<svg xmlns="http://www.w3.org/2000/svg" xmlns:xlink="http://www.w3.org/1999/xlink" version="1.1" id="Layer_1" x="0px" y="0px" width="96px" height="99.818px" viewBox="0 0 96 99.818" enable-background="new 0 0 96 99.818" xml:space="preserve">
<g>
	<path fill="#000000" d="M35.54,59.745l-10.631-0.031L22.05,45.507c-1.678-7.429-12.121-5.222-11.004,2.052l3.295,16.507   c0.496,2.486,2.487,4.664,5.657,4.664h13.585c0,0,0,10.6,0,15.011c0,4.758,6.682,4.787,6.682,0.094V64.532   C40.264,62.199,38.65,59.745,35.54,59.745z"/>
	<path fill="#000000" d="M15.203,39.725c3.449,0,6.278-2.798,6.278-6.246c0.029-3.452-2.767-6.28-6.248-6.28   c-3.449-0.03-6.278,2.767-6.278,6.216C8.922,36.897,11.72,39.695,15.203,39.725z"/>
	<path fill="#000000" d="M2.733,74.115c0,1.828,1.482,3.311,3.312,3.311h25.366v-6.62H6.044C4.215,70.804,2.733,72.287,2.733,74.115   z"/>
	<path fill="#000000" d="M81.66,64.065l3.295-16.507c1.117-7.272-9.324-9.48-11.004-2.052l-2.859,14.207l-10.629,0.031   c-3.111,0-4.727,2.454-4.727,4.787v19.302c0,4.693,6.682,4.664,6.682-0.094c0-4.411,0-15.011,0-15.011h13.586   C79.174,68.729,81.164,66.552,81.66,64.065z"/>
	<path fill="#000000" d="M80.797,39.725c3.484-0.03,6.281-2.828,6.25-6.312c0-3.449-2.828-6.246-6.277-6.216   c-3.481,0-6.278,2.829-6.25,6.28C74.52,36.927,77.35,39.725,80.797,39.725z"/>
	<path fill="#000000" d="M89.957,70.804H64.592v6.62h25.365c1.828,0,3.311-1.481,3.311-3.311S91.785,70.804,89.957,70.804z"/>
	<circle fill="#000000" cx="47.949" cy="18.58" r="6.093"/>
	<circle fill="#000000" cx="41.922" cy="35.513" r="0.976"/>
	<circle fill="#000000" cx="47.045" cy="35.513" r="0.976"/>
	<path fill="#000000" d="M39.303,47.606h0.825v0.051h0.046v-0.609v-9.784v-3.5h15.748v3.5v9.784v0.56h0.754   c1.484,0,2.686-1.202,2.686-2.688V29.56c0-1.483-1.2-2.688-2.686-2.688H39.303c-1.486,0-2.689,1.204-2.689,2.688V44.92   C36.614,46.404,37.817,47.606,39.303,47.606z"/>
	<circle fill="#000000" cx="44.484" cy="35.513" r="0.976"/>
	<path fill="#000000" d="M30.913,56.679h34.071c1.828,0,3.312-1.482,3.312-3.312s-1.481-3.312-3.312-3.312H30.913   c-1.828,0-3.311,1.482-3.311,3.312S29.084,56.679,30.913,56.679z"/>
	<g>
		<g>
			<path fill="#000000" d="M41.922,36.489c-0.537,0-0.976-0.438-0.976-0.976c0-0.539,0.438-0.977,0.976-0.977     c0.539,0,0.977,0.438,0.977,0.977C42.899,36.051,42.461,36.489,41.922,36.489z M44.484,36.489c-0.539,0-0.976-0.438-0.976-0.976     c0-0.539,0.438-0.977,0.976-0.977c0.539,0,0.976,0.438,0.976,0.977C45.459,36.051,45.023,36.489,44.484,36.489z M47.045,36.489     c-0.539,0-0.976-0.438-0.976-0.976c0-0.539,0.437-0.977,0.976-0.977s0.977,0.438,0.977,0.977     C48.022,36.051,47.584,36.489,47.045,36.489z"/>
		</g>
	</g>
</g>
</svg>