<?xml version="1.0" encoding="utf-8"?>
<!-- Generator: Adobe Illustrator 16.0.0, SVG Export Plug-In . SVG Version: 6.00 Build 0)  -->
<!DOCTYPE svg PUBLIC "-//W3C//DTD SVG 1.1//EN" "http://www.w3.org/Graphics/SVG/1.1/DTD/svg11.dtd">
<svg version="1.1" id="Layer_1" xmlns="http://www.w3.org/2000/svg" xmlns:xlink="http://www.w3.org/1999/xlink" x="0px" y="0px"
	 width="70px" height="70px" viewBox="15 15 70 70" enable-background="new 15 15 70 70" xml:space="preserve">
<circle fill="#004B71" cx="50" cy="50" r="34"/>
<g id="Your_Icon">
	<path fill="#FFFFFF" d="M64.2,44.409c-0.012-1.039-0.854-1.879-1.898-1.879c-1.042,0-1.886,0.839-1.896,1.879h-0.008v5.097
		c-0.002,2.877-1.162,5.464-3.047,7.353C55.466,58.742,52.878,59.9,50,59.902c-2.877-0.002-5.464-1.16-7.352-3.044
		c-1.883-1.889-3.042-4.477-3.044-7.353v-5.097h-0.009c-0.011-1.039-0.854-1.879-1.897-1.879c-1.041,0-1.886,0.839-1.896,1.879l0,0
		v0.001c0,0.006-0.001,0.011-0.001,0.017h0.001l-0.001,5.078c0.001,7.199,5.355,13.14,12.3,14.07v5.286h-6.231v0.008
		c-1.046,0.004-1.893,0.853-1.893,1.9c0,1.046,0.847,1.895,1.893,1.897l0,0h16.269v-0.001c1.042-0.009,1.883-0.854,1.883-1.899
		c0-1.043-0.841-1.889-1.883-1.896v-0.01h-6.231v-5.285C58.847,62.646,64.2,56.705,64.2,49.505V44.409L64.2,44.409z"/>
	<path fill="#FFFFFF" d="M50.001,27.333c-4.22,0-7.641,3.421-7.641,7.641v14.513c0,4.221,3.421,7.639,7.641,7.639
		c4.218,0,7.643-3.418,7.643-7.639V34.975C57.644,30.754,54.222,27.333,50.001,27.333z"/>
</g>
</svg>
