<?xml version="1.0" encoding="utf-8"?>
<!-- Generator: Adobe Illustrator 16.0.0, SVG Export Plug-In . SVG Version: 6.00 Build 0)  -->
<!DOCTYPE svg PUBLIC "-//W3C//DTD SVG 1.1//EN" "http://www.w3.org/Graphics/SVG/1.1/DTD/svg11.dtd">
<svg version="1.1" id="Layer_1" xmlns="http://www.w3.org/2000/svg" xmlns:xlink="http://www.w3.org/1999/xlink" x="0px" y="0px"
	 width="90px" height="90px" viewBox="0 0 90 90" enable-background="new 0 0 90 90" xml:space="preserve">
<path d="M87.354,68.64H2.675c0,0-2.646,0-2.646,2.882c0,2.874,2.646,2.409,2.646,2.409h37.692L29.235,89.767h5.339l11.131-15.836
	h2.119l11.123,15.836h5.345L53.166,73.931h34.188c0,0,2.646,0.465,2.646-2.409C90,68.64,87.354,68.64,87.354,68.64z M76.785,11.343
	c-1.488,6.533-10.378,7.57-10.378,7.57c-7.368-6.386-11.914-7.398-16.373-10.243C45.583,5.831,45.594,0,45.594,0
	s-5.641,0.268-11.754,10.335c-4.184,6.889-11.508,8.7-11.508,8.7c-2.138-5.819-9.929-10.395-9.929-10.395
	c0.537,1.613,2.346,3.793-4.477,8.952c-8.837,6.672-7.896,19.486-7.896,19.486v18.47c0,10.585,10.585,10.585,10.585,10.585h68.802
	c0,0,10.584,0,10.584-10.585v-18.47C90,19.464,76.785,11.343,76.785,11.343z M45.015,53.375c-8.529-0.008-15.438-6.92-15.438-15.44
	c0-8.53,6.908-15.442,15.438-15.442s15.438,6.912,15.438,15.442C60.453,46.455,53.544,53.367,45.015,53.375z M45.015,26.023
	c-6.572,0.01-11.899,5.336-11.91,11.911c0.011,6.571,5.337,11.897,11.91,11.906c6.576-0.009,11.896-5.335,11.91-11.906
	C56.91,31.36,51.587,26.034,45.015,26.023z M39.794,28.892c0.564-0.324,1.283-0.135,1.607,0.429c0.324,0.564,0.134,1.283-0.43,1.606
	c-0.564,0.328-1.283,0.135-1.607-0.426C39.042,29.933,39.231,29.214,39.794,28.892z M35.976,32.71
	c0.323-0.56,1.046-0.753,1.605-0.43c0.561,0.328,0.753,1.046,0.431,1.609c-0.328,0.566-1.046,0.753-1.606,0.431
	C35.846,33.997,35.649,33.278,35.976,32.71z M34.575,37.935c0-0.648,0.53-1.177,1.177-1.177s1.175,0.529,1.175,1.177
	c0,0.65-0.528,1.175-1.175,1.175S34.575,38.585,34.575,37.935z M37.582,43.584c-0.559,0.323-1.285,0.133-1.605-0.427
	c-0.327-0.565-0.135-1.287,0.431-1.611c0.56-0.322,1.282-0.133,1.606,0.427C38.34,42.533,38.143,43.259,37.582,43.584z
	 M41.401,46.549c-0.324,0.545-1.042,0.742-1.607,0.428c-0.563-0.323-0.752-1.042-0.43-1.611c0.324-0.559,1.042-0.753,1.607-0.426
	C41.535,45.264,41.725,45.981,41.401,46.549z M45.015,48.372c-0.647,0-1.175-0.52-1.175-1.175c0-0.648,0.528-1.176,1.175-1.176
	c0.646,0,1.176,0.527,1.176,1.176C46.19,47.853,45.661,48.372,45.015,48.372z M45.015,39.697c-0.063,0-0.126-0.011-0.188-0.02
	l-3.892,1.973c-0.56,0.323-1.285,0.13-1.609-0.434c-0.323-0.56-0.13-1.277,0.435-1.606l3.534-2.303l0.544-8.637
	c0-0.646,0.528-1.176,1.175-1.176c0.646,0,1.18,0.53,1.176,1.176l0.587,9.265C46.777,38.912,45.988,39.697,45.015,39.697z
	 M50.234,46.977c-0.56,0.323-1.281,0.134-1.605-0.428c-0.328-0.567-0.13-1.285,0.433-1.609c0.562-0.328,1.278-0.133,1.607,0.426
	C50.991,45.92,50.799,46.653,50.234,46.977z M50.669,30.501c-0.329,0.561-1.046,0.75-1.607,0.426
	c-0.548-0.323-0.736-1.042-0.422-1.606c0.313-0.564,1.035-0.752,1.595-0.429C50.799,29.214,50.991,29.937,50.669,30.501z
	 M54.057,43.157c-0.323,0.548-1.042,0.746-1.602,0.427c-0.568-0.325-0.757-1.042-0.43-1.611c0.319-0.56,1.041-0.749,1.605-0.427
	C54.187,41.871,54.385,42.592,54.057,43.157z M55.457,37.935c0,0.65-0.524,1.175-1.176,1.175c-0.65,0-1.175-0.525-1.18-1.175
	c0-0.648,0.529-1.177,1.18-1.177C54.933,36.758,55.457,37.287,55.457,37.935z M54.057,32.71c0.328,0.568,0.13,1.287-0.429,1.61
	c-0.562,0.326-1.279,0.135-1.603-0.431c-0.332-0.563-0.139-1.281,0.427-1.609C53,31.957,53.733,32.15,54.057,32.71z"/>
</svg>
