<?xml version="1.0" encoding="utf-8"?>
<!-- Generator: Adobe Illustrator 16.0.0, SVG Export Plug-In . SVG Version: 6.00 Build 0)  -->
<!DOCTYPE svg PUBLIC "-//W3C//DTD SVG 1.1//EN" "http://www.w3.org/Graphics/SVG/1.1/DTD/svg11.dtd">
<svg version="1.1" id="Layer_1" xmlns="http://www.w3.org/2000/svg" xmlns:xlink="http://www.w3.org/1999/xlink" x="0px" y="0px"
	 width="70px" height="70px" viewBox="0 0 70 70" enable-background="new 0 0 70 70" xml:space="preserve">
<circle fill="#004B71" cx="35" cy="35" r="34"/>
<path fill="#FFFFFF" d="M42.822,9.805c-0.658,0-1.209,0.458-1.357,1.071h-0.002l-0.002,0.017c-0.006,0.023-0.01,0.046-0.014,0.069
	l-3.945,20.605c0,0.001,0,0.002-0.002,0.003l-0.008,0.043l0.004,0c-0.039,0.207-0.064,0.42-0.064,0.639
	c0,0.871,0.338,1.656,0.877,2.257l-0.012,0.004l0.104,0.108c0.016,0.016,0.031,0.032,0.047,0.048l2.975,3.076v21.047
	c0,0.773,0.627,1.4,1.4,1.4s1.4-0.627,1.4-1.4V11.205C44.223,10.432,43.596,9.805,42.822,9.805z"/>
<path fill="#FFFFFF" d="M34.97,27.113c0-0.167-0.021-0.329-0.049-0.488l0.007,0L33.036,12.94c0-0.742-0.58-1.344-1.311-1.391v14.08
	c0,0.118-0.096,0.214-0.214,0.214s-0.214-0.096-0.214-0.214V11.541h-1.763V25.63c0,0.118-0.096,0.214-0.214,0.214
	s-0.214-0.096-0.214-0.214V11.541h-1.763V25.63c0,0.118-0.096,0.214-0.214,0.214s-0.214-0.096-0.214-0.214V11.541
	c-0.773,0-1.4,0.627-1.4,1.4l-1.893,13.685l0.007,0c-0.027,0.159-0.049,0.321-0.049,0.488c0,0.73,0.283,1.389,0.735,1.893
	l-0.011,0.004l0.08,0.081c0.021,0.021,0.041,0.042,0.062,0.062l3.428,3.454v26.187c0,0.773,0.627,1.4,1.4,1.4s1.4-0.627,1.4-1.4
	V32.607l3.428-3.454c0.021-0.021,0.041-0.042,0.062-0.062l0.08-0.081l-0.011-0.004C34.687,28.502,34.97,27.844,34.97,27.113z"/>
</svg>
