<?xml version="1.0" encoding="utf-8"?>
<!-- Generator: Adobe Illustrator 16.0.0, SVG Export Plug-In . SVG Version: 6.00 Build 0)  -->
<!DOCTYPE svg PUBLIC "-//W3C//DTD SVG 1.1//EN" "http://www.w3.org/Graphics/SVG/1.1/DTD/svg11.dtd">
<svg version="1.1" id="Your_Icon" xmlns="http://www.w3.org/2000/svg" xmlns:xlink="http://www.w3.org/1999/xlink" x="0px" y="0px"
	 width="100px" height="100px" viewBox="0 0 100 100" enable-background="new 0 0 100 100" xml:space="preserve">
<g>
	<path fill="#009EE2" d="M38.999,12h22c1.101,0,1.823-0.882,1.607-1.961l-1.216-6.078C61.177,2.883,60.099,2,58.999,2H41
		c-1.101,0-2.177,0.883-2.393,1.961l-1.216,6.078C37.176,11.118,37.899,12,38.999,12z"/>
	<path fill="#009EE2" d="M100,43.5c0-3.025-2.477-5.5-5.5-5.5h-6.579l-4.767-12.399c-1.187-3.08-4.752-6.342-7.925-7.249
		C75.229,18.353,66.999,16,50,16c-17,0-25.231,2.353-25.231,2.353c-3.173,0.906-6.737,4.168-7.923,7.249L12.077,38H5.5
		C2.476,38,0,40.475,0,43.5S2.476,49,5.5,49h2.346l-1.691,4.399C4.969,56.479,4,61.7,4,65v26.001C4,94.851,7.15,98,11,98
		s7-3.149,7-6.999v-4h63.999v4c0,3.85,3.15,6.999,7,6.999S96,94.851,96,91.001V65c0-3.3-0.971-8.521-2.154-11.601L92.151,49H94.5
		C97.523,49,100,46.525,100,43.5z M17.69,45.124l5.617-15.247C23.688,28.845,24.899,28,26,28h47.999c1.1,0,2.312,0.845,2.691,1.876
		l5.617,15.247C82.688,46.155,82.1,47,81,47H19C17.899,47,17.311,46.155,17.69,45.124z M17.5,69.999c-3.037,0-5.5-2.464-5.5-5.499
		s2.463-5.5,5.5-5.5c3.036,0,5.5,2.465,5.5,5.5S20.536,69.999,17.5,69.999z M82.5,69.999c-3.039,0-5.5-2.461-5.5-5.499
		s2.461-5.5,5.5-5.5c3.037,0,5.499,2.462,5.499,5.5S85.537,69.999,82.5,69.999z"/>
</g>
</svg>
