<?xml version="1.0" encoding="utf-8"?>
<!-- Generator: Adobe Illustrator 16.0.0, SVG Export Plug-In . SVG Version: 6.00 Build 0)  -->
<!DOCTYPE svg PUBLIC "-//W3C//DTD SVG 1.1//EN" "http://www.w3.org/Graphics/SVG/1.1/DTD/svg11.dtd">
<svg version="1.1" id="Layer_1" xmlns="http://www.w3.org/2000/svg" xmlns:xlink="http://www.w3.org/1999/xlink" x="0px" y="0px"
	 width="70px" height="70px" viewBox="0 0 70 70" enable-background="new 0 0 70 70" xml:space="preserve">
<circle fill="#004B71" cx="35" cy="35" r="34"/>
<g>
	<path fill="#FFFFFF" d="M27.748,40.725l-6.187-0.02l-1.665-8.268c-0.978-4.323-7.055-3.039-6.405,1.195l1.918,9.608
		c0.288,1.445,1.447,2.714,3.293,2.714h7.907c0,0,0,6.169,0,8.736c0,2.771,3.889,2.786,3.889,0.055V43.511
		C30.497,42.152,29.558,40.725,27.748,40.725z"/>
	<path fill="#FFFFFF" d="M15.91,29.073c2.009,0,3.655-1.629,3.655-3.636c0.016-2.009-1.612-3.655-3.637-3.655
		c-2.008-0.018-3.654,1.61-3.654,3.617C12.254,27.426,13.884,29.055,15.91,29.073z"/>
	<path fill="#FFFFFF" d="M8.652,49.088c0,1.063,0.862,1.927,1.928,1.927h14.763v-3.853H10.58
		C9.515,47.162,8.652,48.023,8.652,49.088z"/>
	<path fill="#FFFFFF" d="M54.591,43.239l1.919-9.607c0.649-4.232-5.428-5.518-6.405-1.195l-1.664,8.268l-6.188,0.019
		c-1.81,0-2.75,1.429-2.75,2.785v11.235c0,2.731,3.89,2.715,3.89-0.055c0-2.568,0-8.736,0-8.736h7.906
		C53.144,45.954,54.302,44.686,54.591,43.239z"/>
	<path fill="#FFFFFF" d="M54.09,29.073c2.027-0.018,3.655-1.646,3.638-3.674c0-2.008-1.646-3.636-3.654-3.618
		c-2.026,0-3.654,1.646-3.637,3.655C50.437,27.443,52.082,29.073,54.09,29.073z"/>
	<path fill="#FFFFFF" d="M59.421,47.162H44.657v3.853h14.764c1.063,0,1.927-0.863,1.927-1.928
		C61.348,48.021,60.484,47.162,59.421,47.162z"/>
	<circle fill="#FFFFFF" cx="34.969" cy="16.765" r="3.546"/>
	<circle fill="#FFFFFF" cx="31.462" cy="26.621" r="0.568"/>
	<circle fill="#FFFFFF" cx="34.444" cy="26.621" r="0.568"/>
	<path fill="#FFFFFF" d="M29.938,33.66h0.48v0.029h0.027v-0.354v-5.694v-2.038h9.166v2.038v5.694v0.325h0.438
		c0.864,0,1.563-0.698,1.563-1.564v-8.94c0-0.863-0.699-1.565-1.563-1.565H29.938c-0.865,0-1.565,0.701-1.565,1.565v8.94
		C28.373,32.959,29.073,33.66,29.938,33.66z"/>
	<circle fill="#FFFFFF" cx="32.955" cy="26.621" r="0.568"/>
	<path fill="#FFFFFF" d="M25.055,38.94h19.831c1.063,0,1.929-0.863,1.929-1.929c0-1.063-0.863-1.927-1.929-1.927H25.055
		c-1.064,0-1.927,0.863-1.927,1.927C23.127,38.077,23.99,38.94,25.055,38.94z"/>
	<g>
		<g>
			<path fill="#FFFFFF" d="M31.462,27.189c-0.312,0-0.568-0.255-0.568-0.568c0-0.313,0.254-0.569,0.568-0.569
				c0.314,0,0.569,0.256,0.569,0.569C32.031,26.934,31.776,27.189,31.462,27.189z M32.955,27.189c-0.315,0-0.569-0.255-0.569-0.568
				c0-0.313,0.254-0.569,0.569-0.569c0.313,0,0.568,0.256,0.568,0.569C33.521,26.934,33.268,27.189,32.955,27.189z M34.444,27.189
				c-0.313,0-0.567-0.255-0.567-0.568c0-0.313,0.254-0.569,0.567-0.569c0.313,0,0.568,0.256,0.568,0.569
				C35.012,26.934,34.757,27.189,34.444,27.189z"/>
		</g>
	</g>
</g>
</svg>
