<?xml version="1.0" encoding="utf-8"?>
<!-- Generator: Adobe Illustrator 16.0.0, SVG Export Plug-In . SVG Version: 6.00 Build 0)  -->
<!DOCTYPE svg PUBLIC "-//W3C//DTD SVG 1.1//EN" "http://www.w3.org/Graphics/SVG/1.1/DTD/svg11.dtd">
<svg version="1.1" id="Layer_1" xmlns="http://www.w3.org/2000/svg" xmlns:xlink="http://www.w3.org/1999/xlink" x="0px" y="0px"
	 width="70px" height="70px" viewBox="0 0 70 70" enable-background="new 0 0 70 70" xml:space="preserve">
<circle fill="#004B71" cx="35" cy="35" r="34"/>
<g>
	<path fill="#FFFFFF" d="M53.234,47.707c0,2.354-6.032,6.213-18.234,6.213c-11.676,0-18.233-3.858-18.233-6.213
		S24.93,43.802,35,43.802C45.071,43.802,53.234,45.353,53.234,47.707z"/>
	<g>
		<path fill="#004B71" d="M53.234,36.213c0,10.069-8.163,14.603-18.234,14.603c-10.07,0-18.233-4.533-18.233-14.603
			c0-3.313,0-8.341,0-8.341h36.468C53.234,27.872,53.234,33.066,53.234,36.213z"/>
	</g>
	<circle fill="#FFFFFF" cx="54.148" cy="32.965" r="4.403"/>
	<g>
		<path fill="#FFFFFF" d="M53.234,34.588c0,10.07-8.163,14.603-18.234,14.603c-10.07,0-18.233-4.532-18.233-14.603
			c0-3.313,0-8.34,0-8.34h36.468C53.234,26.248,53.234,31.441,53.234,34.588z"/>
	</g>
	<ellipse fill="#FFFFFF" cx="35" cy="26.248" rx="18.234" ry="4.264"/>
	<ellipse fill="#004B71" cx="35" cy="26.398" rx="15.818" ry="3.7"/>
	<circle fill="#004B71" cx="54.706" cy="32.965" r="2.116"/>
	<g>
		<g>
			<path fill="#004B71" d="M33.4,24.93c-0.235,0-0.469-0.08-0.66-0.242c-2.49-2.125-2.987-4.164-2.965-5.501
				c0.027-1.629,0.82-3.183,2.175-4.265c0.909-0.725,1.471-1.528,1.54-2.204c0.04-0.38-0.079-0.731-0.364-1.074
				c-0.27-0.325-0.313-0.783-0.109-1.153c0.182-0.332,0.53-0.534,0.901-0.534c0.043,0,0.087,0.003,0.131,0.009
				c0.722,0.092,2.17,0.628,3.015,2.055c1.28,2.164,0.66,4.598-1.896,7.443c-1.819,2.025-0.966,3.745-0.862,3.935
				c0.237,0.436,0.133,0.985-0.252,1.298C33.863,24.853,33.631,24.93,33.4,24.93z"/>
			<path fill="#004B71" d="M33.408,23.904c0,0-1.415-2.445,0.994-5.128c2.866-3.19,2.487-5.029,1.777-6.23
				c-0.815-1.375-2.261-1.559-2.261-1.559c1.272,1.533,0.416,3.351-1.326,4.74C30.695,17.241,29.455,20.533,33.408,23.904z"/>
			<path fill="#004B71" d="M36.349,26.194c-0.139,0-0.275-0.028-0.409-0.085c-1.645-0.713-2.29-1.8-2.542-2.587
				c-0.356-1.113-0.179-2.383,0.487-3.487c0.4-0.663,0.844-1.184,1.236-1.644c0.779-0.916,1.295-1.521,1.32-2.847
				c0.01-0.389,0.236-0.741,0.588-0.909c0.14-0.067,0.292-0.1,0.442-0.1c0.225,0,0.449,0.073,0.632,0.216
				c0.076,0.059,1.852,1.461,2.021,3.55c0.099,1.232-0.358,2.403-1.361,3.48c-1.51,1.623-1.628,2.579-1.543,2.833
				c0.229,0.364,0.209,0.837-0.059,1.18C36.963,26.053,36.659,26.194,36.349,26.194z"/>
			<path fill="#004B71" d="M36.349,25.164c0,0-0.967-1.258,1.661-4.083c2.753-2.959-0.538-5.516-0.538-5.516
				c-0.049,2.49-1.591,3.155-2.705,5.001C33.94,21.937,33.86,24.085,36.349,25.164z"/>
		</g>
		<g>
			<path fill="#FFFFFF" d="M33.408,23.904c0,0-1.415-2.445,0.994-5.128c2.866-3.19,2.487-5.029,1.777-6.23
				c-0.815-1.375-2.261-1.559-2.261-1.559c1.272,1.533,0.416,3.351-1.326,4.74C30.695,17.241,29.455,20.533,33.408,23.904z"/>
			<path fill="#FFFFFF" d="M36.349,25.164c0,0-0.967-1.258,1.661-4.083c2.753-2.959-0.538-5.516-0.538-5.516
				c-0.049,2.49-1.591,3.155-2.705,5.001C33.94,21.937,33.86,24.085,36.349,25.164z"/>
		</g>
	</g>
</g>
</svg>
