<?xml version="1.0" encoding="utf-8"?>
<!-- Generator: Adobe Illustrator 16.2.1, SVG Export Plug-In . SVG Version: 6.00 Build 0)  -->
<!DOCTYPE svg PUBLIC "-//W3C//DTD SVG 1.1//EN" "http://www.w3.org/Graphics/SVG/1.1/DTD/svg11.dtd">
<svg version="1.1" id="Layer_1" xmlns="http://www.w3.org/2000/svg" xmlns:xlink="http://www.w3.org/1999/xlink" x="0px" y="0px"
	 width="512px" height="1024px" viewBox="0 0 512 1024" enable-background="new 0 0 512 1024" xml:space="preserve">
<path fill="#E5E5E5" d="M426,0H86C38.7,0,0,38.701,0,86v340c0,47.3,38.7,86,86,86h340c47.3,0,86-38.7,86-86V86
	C512,38.701,473.3,0,426,0z M421.834,403.833c-56.666,18.667-167.333,55-188,60.167s-42,13.834-54-20.833
	c0,0-102-301.333-111.333-328S50.077,72.424,71.167,64c48.688-19.447,99.333-44.25,108.667-16c8.351,25.273,97.333,304,97.333,304
	s104.665-36.834,133.333-44.834c28.666-8,38.501-13.334,46,26C463.998,372.5,478.5,385.167,421.834,403.833z"/>
<path fill="#004D6E" d="M426,512.001H86c-47.3,0-86,38.7-86,86V938c0,47.301,38.7,86,86,86h340c47.3,0,86-38.699,86-86V598.001
	C512,550.701,473.3,512.001,426,512.001z M421.834,915.834c-56.666,18.666-167.333,55-188,60.166c-20.667,5.168-42,13.834-54-20.832
	c0,0-102-301.333-111.333-328s-18.424-42.743,2.666-51.167c48.688-19.447,99.333-44.25,108.667-16
	C188.185,585.273,277.167,864,277.167,864s104.665-36.834,133.333-44.834c28.666-8,38.501-13.334,46,26
	C463.998,884.5,478.5,897.166,421.834,915.834z"/>
</svg>
