<?xml version="1.0" encoding="utf-8"?>
<!-- Generator: Adobe Illustrator 16.0.0, SVG Export Plug-In . SVG Version: 6.00 Build 0)  -->
<!DOCTYPE svg PUBLIC "-//W3C//DTD SVG 1.1//EN" "http://www.w3.org/Graphics/SVG/1.1/DTD/svg11.dtd">
<svg version="1.1" id="Layer_1" xmlns="http://www.w3.org/2000/svg" xmlns:xlink="http://www.w3.org/1999/xlink" x="0px" y="0px"
	 width="70px" height="70px" viewBox="97.576 0 70 70" enable-background="new 97.576 0 70 70" xml:space="preserve">
<circle fill="#004B71" cx="132.576" cy="36.067" r="34"/>
<g>
	<path fill="#FFFFFF" d="M109.807,41.465c0,5.359,5.357,5.359,5.357,5.359h34.838c0,0,5.357,0,5.357-5.359l-0.016-20.354
		c0-5.359-5.359-5.359-5.359-5.359h-34.836c0,0-5.357,0-5.357,5.359L109.807,41.465z"/>
	<path fill="#FFFFFF" d="M154.021,48.096h-42.875c0,0-1.34,0-1.34,1.459c0,1.455,1.34,1.221,1.34,1.221h19.084l-5.637,8.018h2.705
		l5.635-8.018h1.072l5.633,8.018h2.705l-5.633-8.018h17.311c0,0,1.34,0.234,1.34-1.221
		C155.361,48.096,154.021,48.096,154.021,48.096z"/>
</g>
<g>
	<g>
		<path fill="#004B71" d="M125.393,20.913c-1.132,0-2.051-0.919-2.051-2.05s0.919-2.051,2.051-2.051c1.13,0,2.051,0.92,2.051,2.051
			S126.522,20.913,125.393,20.913z M125.393,18.099c-0.422,0-0.764,0.343-0.764,0.764s0.342,0.763,0.764,0.763
			c0.42,0,0.763-0.342,0.763-0.763S125.812,18.099,125.393,18.099z"/>
		<path fill="#004B71" d="M130.752,23.434c-0.004-0.018-0.369-1.71-0.773-2.861c-0.258-0.737-0.76-1.079-1.577-1.079h-1.865v-1.288
			h1.865c1.361,0,2.353,0.689,2.791,1.94c0.433,1.23,0.803,2.946,0.818,3.018L130.752,23.434z"/>
		<circle fill="#004B71" cx="131.619" cy="24.561" r="1.407"/>
	</g>
	<g>
		<circle fill="#004B71" cx="140.641" cy="29.635" r="1.407"/>
		<rect x="141.924" y="28.991" fill="#004B71" width="4.251" height="1.287"/>
		<path fill="#004B71" d="M147.207,31.685c-1.13,0-2.05-0.92-2.05-2.051s0.92-2.05,2.05-2.05c1.132,0,2.052,0.919,2.052,2.05
			S148.339,31.685,147.207,31.685z M147.207,28.871c-0.42,0-0.763,0.343-0.763,0.764s0.343,0.763,0.763,0.763
			c0.422,0,0.764-0.342,0.764-0.763S147.629,28.871,147.207,28.871z"/>
	</g>
	<g>
		<circle fill="#004B71" cx="140.56" cy="33.374" r="1.407"/>
		<path fill="#004B71" d="M145.591,34.646c0,0-0.644-0.241-1.178-0.456c-0.276-0.11-0.453-0.172-0.9-0.172h-1.666V32.73h1.666
			c0.664,0,1.004,0.115,1.378,0.264c0.523,0.209,1.151,0.445,1.155,0.446L145.591,34.646z"/>
		<path fill="#004B71" d="M147.128,36.698c-1.13,0-2.05-0.921-2.05-2.052c0-1.13,0.92-2.05,2.05-2.05c1.132,0,2.051,0.92,2.051,2.05
			C149.179,35.777,148.26,36.698,147.128,36.698z M147.128,33.884c-0.42,0-0.764,0.342-0.764,0.762c0,0.421,0.344,0.763,0.764,0.763
			c0.422,0,0.764-0.342,0.764-0.763C147.892,34.226,147.55,33.884,147.128,33.884z"/>
	</g>
	<g>
		<path fill="#004B71" d="M137.46,34.011c0,0.754-0.611,1.366-1.366,1.366h-5.161c-0.756,0-1.368-0.611-1.368-1.366v-5.024
			c0-0.754,0.612-1.367,1.368-1.367h5.161c0.755,0,1.366,0.612,1.366,1.367V34.011z"/>
		<path fill="#004B71" d="M136.094,36.236h-5.161c-1.228,0-2.227-0.999-2.227-2.225v-5.024c0-1.227,0.999-2.226,2.227-2.226h5.161
			c1.227,0,2.224,0.999,2.224,2.226v5.024C138.317,35.237,137.32,36.236,136.094,36.236z M130.933,28.478
			c-0.281,0-0.51,0.229-0.51,0.509v5.024c0,0.28,0.229,0.508,0.51,0.508h5.161c0.28,0,0.509-0.228,0.509-0.508v-5.024
			c0-0.28-0.229-0.509-0.509-0.509H130.933z"/>
	</g>
	<g>
		<path fill="#004B71" d="M135.352,20.999c-1.133,0-2.052-0.92-2.052-2.051s0.919-2.051,2.052-2.051c1.131,0,2.05,0.92,2.05,2.051
			S136.482,20.999,135.352,20.999z M135.352,18.185c-0.421,0-0.764,0.342-0.764,0.763s0.343,0.764,0.764,0.764
			c0.419,0,0.763-0.343,0.763-0.764S135.771,18.185,135.352,18.185z"/>
		<rect x="134.707" y="20.231" fill="#004B71" width="1.287" height="3.296"/>
		<circle fill="#004B71" cx="135.35" cy="24.561" r="1.407"/>
	</g>
	<g>
		<circle fill="#004B71" cx="131.616" cy="38.371" r="1.406"/>
		<path fill="#004B71" d="M123.663,41.103c-0.001-0.025-0.041-0.62-0.041-1.114c0-1.472,0.835-2.353,2.233-2.353h4.73v1.288h-4.73
			c-0.672,0-0.945,0.308-0.945,1.064c0,0.452,0.037,1.022,0.039,1.028L123.663,41.103z"/>
		<path fill="#004B71" d="M124.255,44.491c-1.131,0-2.052-0.92-2.052-2.051c0-1.13,0.921-2.051,2.052-2.051
			c1.13,0,2.051,0.921,2.051,2.051C126.306,43.571,125.385,44.491,124.255,44.491z M124.255,41.678
			c-0.422,0-0.765,0.342-0.765,0.763c0,0.422,0.343,0.764,0.765,0.764c0.421,0,0.763-0.342,0.763-0.764
			C125.018,42.02,124.676,41.678,124.255,41.678z"/>
	</g>
	<g>
		<circle fill="#004B71" cx="135.353" cy="38.371" r="1.406"/>
		<path fill="#004B71" d="M140.762,42.354l-1.287-0.044c0-0.012,0.04-1.192,0.04-2.322c0-0.757-0.274-1.064-0.946-1.064h-2.31
			v-1.288h2.31c1.398,0,2.233,0.881,2.233,2.353C140.802,41.141,140.762,42.343,140.762,42.354z"/>
		<path fill="#004B71" d="M140.169,45.764c-1.13,0-2.049-0.919-2.049-2.049c0-1.132,0.919-2.052,2.049-2.052
			c1.131,0,2.052,0.92,2.052,2.052C142.221,44.845,141.3,45.764,140.169,45.764z M140.169,42.95c-0.42,0-0.763,0.343-0.763,0.765
			c0,0.42,0.343,0.762,0.763,0.762c0.422,0,0.764-0.342,0.764-0.762C140.933,43.293,140.591,42.95,140.169,42.95z"/>
	</g>
	<g>
		<circle fill="#004B71" cx="126.196" cy="33.414" r="1.407"/>
		<rect x="120.662" y="32.77" fill="#004B71" width="4.251" height="1.287"/>
		<path fill="#004B71" d="M119.63,35.466c-1.132,0-2.052-0.922-2.052-2.053c0-1.13,0.92-2.051,2.052-2.051
			c1.13,0,2.05,0.92,2.05,2.051C121.68,34.544,120.76,35.466,119.63,35.466z M119.63,32.649c-0.422,0-0.764,0.343-0.764,0.764
			c0,0.421,0.342,0.764,0.764,0.764c0.419,0,0.763-0.343,0.763-0.764C120.393,32.992,120.049,32.649,119.63,32.649z"/>
	</g>
	<g>
		<circle fill="#004B71" cx="126.276" cy="29.674" r="1.407"/>
		<path fill="#004B71" d="M124.99,30.317h-1.666c-0.664,0-1.004-0.115-1.378-0.264c-0.523-0.209-1.151-0.446-1.155-0.446
			l0.455-1.205c0,0,0.644,0.242,1.178,0.456c0.276,0.11,0.453,0.172,0.9,0.172h1.666V30.317z"/>
		<path fill="#004B71" d="M119.709,30.452c-1.132,0-2.051-0.92-2.051-2.051c0-1.13,0.919-2.05,2.051-2.05
			c1.13,0,2.05,0.92,2.05,2.05C121.759,29.532,120.839,30.452,119.709,30.452z M119.709,27.638c-0.422,0-0.764,0.342-0.764,0.763
			c0,0.421,0.342,0.764,0.764,0.764c0.42,0,0.764-0.342,0.764-0.764C120.473,27.98,120.129,27.638,119.709,27.638z"/>
	</g>
</g>
</svg>
