<?xml version="1.0" encoding="utf-8"?>
<!-- Generator: Adobe Illustrator 16.0.0, SVG Export Plug-In . SVG Version: 6.00 Build 0)  -->
<!DOCTYPE svg PUBLIC "-//W3C//DTD SVG 1.1//EN" "http://www.w3.org/Graphics/SVG/1.1/DTD/svg11.dtd">
<svg version="1.1" id="Layer_1" xmlns="http://www.w3.org/2000/svg" xmlns:xlink="http://www.w3.org/1999/xlink" x="0px" y="0px"
	 width="721.286px" height="229.301px" viewBox="0 0 721.286 229.301" enable-background="new 0 0 721.286 229.301"
	 xml:space="preserve">
<g>
	<g>
		<g>
			<g>
				<path fill="#283A42" d="M40.479,204.807c-0.296,0-0.465-0.156-0.514-0.467l-0.183-2.818c-0.792,1.076-1.718,1.934-2.777,2.568
					c-1.06,0.631-2.253,0.952-3.571,0.952c-2.195,0-3.906-0.759-5.139-2.282c-1.23-1.521-1.843-3.802-1.843-6.846
					c0-1.307,0.168-2.521,0.512-3.656c0.345-1.135,0.849-2.115,1.514-2.947c0.666-0.834,1.48-1.488,2.444-1.965
					c0.964-0.481,2.079-0.721,3.338-0.721c1.21,0,2.261,0.223,3.148,0.67c0.889,0.45,1.653,1.104,2.304,1.971v-10.6h1.706v26.141
					H40.479z M33.92,203.658c1.186,0,2.262-0.307,3.222-0.92c0.958-0.609,1.817-1.46,2.572-2.551v-9.432
					c-0.696-1.021-1.459-1.738-2.296-2.158c-0.833-0.416-1.778-0.627-2.832-0.627c-1.056,0-1.981,0.193-2.771,0.576
					c-0.794,0.385-1.456,0.924-1.988,1.627c-0.532,0.695-0.938,1.539-1.206,2.513c-0.272,0.975-0.406,2.053-0.406,3.228
					c0,2.656,0.495,4.615,1.474,5.861C30.674,203.028,32.083,203.658,33.92,203.658z"/>
				<path fill="#283A42" d="M50.386,180.77c0,0.215-0.046,0.412-0.136,0.6c-0.091,0.187-0.207,0.347-0.351,0.495
					c-0.145,0.142-0.311,0.26-0.501,0.341c-0.193,0.088-0.394,0.128-0.609,0.128c-0.217,0-0.42-0.04-0.613-0.128
					c-0.191-0.081-0.359-0.199-0.501-0.341c-0.145-0.148-0.258-0.309-0.341-0.495c-0.087-0.188-0.128-0.385-0.128-0.6
					c0-0.221,0.041-0.424,0.128-0.623c0.083-0.197,0.197-0.367,0.341-0.514c0.142-0.145,0.311-0.252,0.501-0.335
					c0.193-0.087,0.396-0.13,0.613-0.13c0.215,0,0.417,0.043,0.609,0.13c0.19,0.083,0.357,0.19,0.501,0.335
					c0.144,0.146,0.26,0.312,0.351,0.514C50.34,180.346,50.386,180.549,50.386,180.77z M49.631,186.93v17.877h-1.709V186.93H49.631z
					"/>
				<path fill="#283A42" d="M61.847,186.625c0.779,0,1.502,0.098,2.168,0.288c0.662,0.19,1.259,0.458,1.787,0.808h4.58v0.594
					c0,0.3-0.167,0.458-0.503,0.484l-2.708,0.195c0.333,0.455,0.589,0.973,0.771,1.539c0.179,0.568,0.268,1.175,0.268,1.82
					c0,0.863-0.158,1.645-0.467,2.35c-0.311,0.695-0.747,1.297-1.299,1.792c-0.561,0.497-1.23,0.882-2.008,1.157
					c-0.778,0.28-1.639,0.416-2.586,0.416c-1.033,0-1.965-0.156-2.804-0.469c-0.503,0.291-0.897,0.629-1.186,1.027
					c-0.291,0.396-0.43,0.779-0.43,1.15c0,0.51,0.178,0.908,0.54,1.184c0.357,0.272,0.836,0.478,1.425,0.6
					c0.595,0.128,1.271,0.207,2.034,0.244c0.759,0.038,1.531,0.076,2.311,0.115c0.79,0.043,1.563,0.121,2.32,0.229
					c0.763,0.106,1.439,0.297,2.032,0.562c0.593,0.269,1.068,0.648,1.427,1.133c0.355,0.488,0.542,1.129,0.542,1.938
					c0,0.738-0.187,1.453-0.561,2.131c-0.374,0.683-0.905,1.292-1.608,1.815c-0.698,0.528-1.547,0.952-2.542,1.269
					c-0.991,0.316-2.109,0.474-3.339,0.474c-1.261,0-2.361-0.126-3.307-0.386c-0.946-0.258-1.742-0.602-2.379-1.039
					c-0.646-0.439-1.125-0.947-1.448-1.521c-0.327-0.568-0.485-1.188-0.485-1.831c0-0.944,0.312-1.758,0.936-2.44
					c0.619-0.686,1.48-1.211,2.566-1.585c-0.599-0.199-1.074-0.493-1.427-0.875c-0.354-0.388-0.528-0.915-0.528-1.604
					c0-0.249,0.044-0.514,0.144-0.791c0.093-0.268,0.237-0.545,0.433-0.814c0.19-0.271,0.418-0.523,0.69-0.762
					c0.27-0.241,0.583-0.456,0.942-0.65c-0.849-0.49-1.51-1.144-1.981-1.953c-0.477-0.816-0.714-1.773-0.714-2.859
					c0-0.86,0.154-1.645,0.459-2.342c0.304-0.703,0.735-1.302,1.295-1.813c0.559-0.501,1.23-0.888,2.02-1.163
					C60.015,186.765,60.89,186.625,61.847,186.625z M68.479,206.013c0-0.564-0.15-1.02-0.44-1.358
					c-0.292-0.341-0.687-0.604-1.178-0.798c-0.491-0.192-1.056-0.327-1.697-0.401c-0.644-0.08-1.312-0.141-2.014-0.176
					c-0.698-0.04-1.405-0.07-2.109-0.105c-0.707-0.038-1.366-0.109-1.975-0.215c-0.457,0.177-0.875,0.384-1.271,0.623
					c-0.386,0.23-0.719,0.492-0.993,0.784c-0.276,0.292-0.494,0.617-0.648,0.972c-0.154,0.354-0.233,0.737-0.233,1.164
					c0,0.525,0.134,1.011,0.404,1.461c0.268,0.447,0.666,0.839,1.186,1.168c0.52,0.328,1.161,0.591,1.917,0.779
					c0.751,0.191,1.62,0.289,2.603,0.289c0.91,0,1.756-0.104,2.542-0.307c0.784-0.201,1.468-0.494,2.051-0.859
					c0.581-0.373,1.033-0.818,1.364-1.334C68.314,207.184,68.479,206.625,68.479,206.013z M61.847,196.901
					c0.771,0,1.451-0.114,2.05-0.329c0.597-0.223,1.104-0.533,1.506-0.934c0.41-0.393,0.721-0.865,0.93-1.417
					c0.207-0.546,0.315-1.159,0.315-1.833c0-0.67-0.11-1.283-0.327-1.84c-0.215-0.553-0.528-1.033-0.942-1.43
					c-0.414-0.393-0.917-0.697-1.51-0.917c-0.593-0.218-1.265-0.323-2.022-0.323c-0.751,0-1.429,0.105-2.03,0.323
					c-0.601,0.22-1.104,0.524-1.519,0.917c-0.41,0.396-0.729,0.877-0.942,1.43c-0.215,0.557-0.325,1.17-0.325,1.84
					c0,0.674,0.109,1.287,0.325,1.833c0.213,0.552,0.532,1.024,0.942,1.417c0.418,0.4,0.917,0.711,1.519,0.934
					C60.417,196.787,61.095,196.901,61.847,196.901z"/>
				<path fill="#283A42" d="M77.048,180.77c0,0.215-0.045,0.412-0.134,0.6c-0.093,0.187-0.207,0.347-0.353,0.495
					c-0.142,0.142-0.309,0.26-0.501,0.341c-0.189,0.088-0.396,0.128-0.611,0.128c-0.219,0-0.422-0.04-0.609-0.128
					c-0.195-0.081-0.361-0.199-0.503-0.341c-0.146-0.148-0.258-0.309-0.343-0.495c-0.085-0.188-0.128-0.385-0.128-0.6
					c0-0.221,0.043-0.424,0.128-0.623c0.085-0.197,0.197-0.367,0.343-0.514c0.142-0.145,0.309-0.252,0.503-0.335
					c0.187-0.087,0.39-0.13,0.609-0.13c0.215,0,0.422,0.043,0.611,0.13c0.189,0.083,0.359,0.19,0.501,0.335
					c0.146,0.146,0.26,0.312,0.353,0.514C77.003,180.346,77.048,180.549,77.048,180.77z M76.293,186.93v17.877h-1.709V186.93H76.293
					z"/>
				<path fill="#283A42" d="M87.483,205.097c-1.206,0-2.148-0.339-2.815-1.007c-0.676-0.674-1.009-1.707-1.009-3.109V188.76h-2.57
					c-0.132,0-0.238-0.031-0.321-0.105c-0.085-0.068-0.126-0.172-0.126-0.305v-0.667l3.053-0.212l0.426-6.396
					c0.012-0.105,0.057-0.203,0.134-0.288c0.077-0.087,0.183-0.126,0.311-0.126h0.802v6.827h5.619v1.272h-5.619v12.133
					c0,0.487,0.061,0.909,0.185,1.265c0.128,0.357,0.303,0.644,0.522,0.866c0.223,0.23,0.483,0.4,0.782,0.508
					c0.298,0.105,0.623,0.16,0.972,0.16c0.431,0,0.8-0.059,1.113-0.186c0.312-0.127,0.578-0.267,0.808-0.414
					c0.228-0.148,0.414-0.291,0.561-0.417c0.138-0.122,0.258-0.185,0.337-0.185c0.098,0,0.191,0.059,0.288,0.177l0.467,0.757
					c-0.457,0.504-1.031,0.91-1.734,1.213C88.967,204.94,88.238,205.097,87.483,205.097z"/>
				<path fill="#283A42" d="M106.834,204.807c-0.357,0-0.581-0.17-0.664-0.504l-0.252-2.279c-0.491,0.48-0.976,0.907-1.463,1.291
					c-0.483,0.388-0.995,0.709-1.521,0.971c-0.522,0.266-1.094,0.467-1.704,0.604c-0.613,0.136-1.283,0.21-2.014,0.21
					c-0.611,0-1.204-0.094-1.778-0.277c-0.575-0.178-1.084-0.45-1.527-0.822c-0.442-0.367-0.8-0.846-1.072-1.431
					c-0.266-0.579-0.402-1.276-0.402-2.087c0-0.76,0.217-1.459,0.649-2.109c0.431-0.642,1.103-1.21,2.02-1.686
					c0.912-0.479,2.097-0.862,3.541-1.15c1.439-0.289,3.177-0.459,5.203-0.504v-1.865c0-1.656-0.361-2.93-1.072-3.818
					c-0.715-0.892-1.771-1.338-3.173-1.338c-0.863,0-1.596,0.115-2.199,0.357c-0.607,0.241-1.121,0.505-1.539,0.791
					c-0.418,0.287-0.759,0.553-1.019,0.792c-0.268,0.235-0.491,0.357-0.668,0.357c-0.239,0-0.42-0.108-0.538-0.321l-0.309-0.523
					c0.938-0.936,1.918-1.641,2.948-2.119c1.029-0.478,2.197-0.717,3.504-0.717c0.958,0,1.794,0.148,2.515,0.455
					c0.721,0.309,1.313,0.742,1.789,1.311c0.471,0.568,0.826,1.258,1.068,2.067c0.24,0.81,0.359,1.711,0.359,2.706v11.643h-0.684
					V204.807z M99.647,203.856c0.699,0,1.332-0.071,1.917-0.228c0.581-0.146,1.121-0.357,1.616-0.631
					c0.497-0.268,0.962-0.585,1.393-0.957c0.433-0.373,0.856-0.775,1.279-1.209v-4.649c-1.705,0.049-3.167,0.179-4.397,0.39
					c-1.227,0.203-2.239,0.491-3.035,0.849c-0.798,0.361-1.383,0.79-1.758,1.283c-0.379,0.505-0.566,1.065-0.566,1.705
					c0,0.597,0.098,1.112,0.296,1.552c0.195,0.436,0.459,0.795,0.78,1.08c0.321,0.275,0.703,0.486,1.133,0.617
					S99.183,203.856,99.647,203.856z"/>
				<path fill="#283A42" d="M115.117,178.666v26.141h-1.705v-26.141H115.117z"/>
				<path fill="#283A42" d="M141.054,204.807c-0.296,0-0.467-0.156-0.514-0.467l-0.183-2.818c-0.79,1.076-1.718,1.934-2.777,2.568
					c-1.062,0.631-2.251,0.952-3.571,0.952c-2.197,0-3.906-0.759-5.136-2.282c-1.23-1.521-1.839-3.802-1.839-6.846
					c0-1.307,0.167-2.521,0.507-3.656c0.343-1.135,0.845-2.115,1.513-2.947c0.664-0.834,1.48-1.488,2.446-1.965
					c0.966-0.481,2.079-0.721,3.339-0.721c1.21,0,2.26,0.223,3.145,0.67c0.889,0.45,1.656,1.104,2.306,1.971v-10.6h1.703v26.141
					H141.054z M134.495,203.658c1.19,0,2.262-0.307,3.222-0.92c0.958-0.609,1.815-1.46,2.574-2.551v-9.432
					c-0.699-1.021-1.464-1.738-2.296-2.158c-0.834-0.416-1.776-0.627-2.834-0.627c-1.056,0-1.979,0.193-2.771,0.576
					c-0.792,0.385-1.454,0.924-1.99,1.627c-0.534,0.695-0.934,1.539-1.206,2.513c-0.272,0.975-0.404,2.053-0.404,3.228
					c0,2.656,0.489,4.615,1.476,5.861C131.253,203.028,132.662,203.658,134.495,203.658z"/>
				<path fill="#283A42" d="M150.963,180.77c0,0.215-0.047,0.412-0.136,0.6c-0.091,0.187-0.207,0.347-0.349,0.495
					c-0.146,0.142-0.312,0.26-0.503,0.341c-0.191,0.088-0.398,0.128-0.611,0.128c-0.217,0-0.42-0.04-0.611-0.128
					c-0.193-0.081-0.359-0.199-0.503-0.341c-0.142-0.148-0.256-0.309-0.345-0.495c-0.081-0.188-0.126-0.385-0.126-0.6
					c0-0.221,0.045-0.424,0.126-0.623c0.089-0.197,0.203-0.367,0.345-0.514c0.144-0.145,0.311-0.252,0.503-0.335
					c0.191-0.087,0.394-0.13,0.611-0.13c0.213,0,0.42,0.043,0.611,0.13c0.189,0.083,0.357,0.19,0.503,0.335
					c0.142,0.146,0.258,0.312,0.349,0.514C150.917,180.346,150.963,180.549,150.963,180.77z M150.208,186.93v17.877h-1.707V186.93
					H150.208z"/>
				<path fill="#283A42" d="M166.376,189.137c-0.087,0.17-0.215,0.255-0.396,0.255c-0.132,0-0.3-0.071-0.511-0.228
					c-0.207-0.152-0.485-0.314-0.827-0.501c-0.339-0.187-0.761-0.355-1.26-0.501c-0.494-0.156-1.101-0.229-1.823-0.229
					c-0.646,0-1.234,0.096-1.766,0.277c-0.536,0.188-0.991,0.436-1.369,0.746c-0.375,0.314-0.67,0.676-0.881,1.095
					c-0.209,0.41-0.317,0.841-0.317,1.295c0,0.568,0.146,1.029,0.435,1.401c0.289,0.371,0.666,0.688,1.135,0.955
					c0.465,0.263,0.997,0.486,1.59,0.681c0.591,0.194,1.198,0.386,1.821,0.577c0.624,0.192,1.23,0.406,1.821,0.639
					c0.593,0.232,1.125,0.521,1.591,0.871c0.467,0.344,0.849,0.771,1.135,1.277c0.286,0.497,0.432,1.11,0.432,1.826
					c0,0.784-0.146,1.51-0.426,2.18c-0.284,0.672-0.688,1.25-1.222,1.739c-0.534,0.491-1.186,0.886-1.965,1.167
					c-0.779,0.287-1.668,0.437-2.659,0.437c-1.259,0-2.345-0.207-3.252-0.604c-0.909-0.402-1.726-0.926-2.444-1.574l0.412-0.608
					c0.059-0.098,0.128-0.167,0.201-0.216c0.069-0.051,0.17-0.07,0.305-0.07c0.154,0,0.347,0.1,0.572,0.286
					c0.228,0.192,0.52,0.397,0.889,0.617c0.366,0.224,0.82,0.431,1.364,0.623c0.544,0.19,1.218,0.286,2.022,0.286
					c0.751,0,1.417-0.104,1.994-0.309c0.577-0.213,1.056-0.504,1.438-0.86c0.383-0.355,0.676-0.778,0.873-1.265
					c0.197-0.483,0.297-0.993,0.297-1.535c0-0.597-0.145-1.098-0.433-1.494c-0.286-0.392-0.664-0.725-1.131-1.001
					c-0.467-0.28-0.999-0.514-1.592-0.7c-0.588-0.197-1.202-0.386-1.831-0.578c-0.629-0.188-1.238-0.404-1.831-0.628
					c-0.595-0.228-1.125-0.518-1.594-0.862c-0.465-0.348-0.842-0.768-1.131-1.266c-0.284-0.499-0.43-1.12-0.43-1.859
					c0-0.639,0.138-1.248,0.414-1.837c0.272-0.587,0.666-1.101,1.175-1.541c0.512-0.446,1.131-0.8,1.86-1.062
					c0.731-0.262,1.551-0.396,2.462-0.396c1.088,0,2.059,0.156,2.903,0.469c0.84,0.311,1.618,0.788,2.326,1.438L166.376,189.137z"/>
				<path fill="#283A42" d="M178.717,186.643c1.007,0,1.939,0.173,2.797,0.521c0.853,0.348,1.598,0.855,2.225,1.518
					c0.629,0.668,1.123,1.479,1.476,2.454c0.353,0.972,0.53,2.085,0.53,3.344c0,0.262-0.039,0.438-0.116,0.536
					c-0.079,0.1-0.201,0.148-0.37,0.148h-12.903v0.336c0,1.34,0.158,2.523,0.471,3.541c0.309,1.018,0.753,1.869,1.328,2.562
					c0.574,0.688,1.269,1.203,2.087,1.551c0.812,0.352,1.724,0.525,2.73,0.525c0.895,0,1.673-0.098,2.334-0.301
					c0.66-0.198,1.214-0.416,1.661-0.664c0.447-0.242,0.804-0.467,1.068-0.663c0.264-0.196,0.455-0.298,0.577-0.298
					c0.156,0,0.272,0.061,0.359,0.178l0.465,0.581c-0.288,0.354-0.666,0.687-1.141,1.003c-0.471,0.311-0.997,0.58-1.582,0.8
					c-0.578,0.22-1.202,0.397-1.865,0.526c-0.664,0.133-1.332,0.202-2.006,0.202c-1.222,0-2.333-0.215-3.34-0.64
					c-1.007-0.428-1.874-1.047-2.592-1.861s-1.277-1.809-1.673-2.988c-0.39-1.182-0.584-2.531-0.584-4.055
					c0-1.283,0.181-2.462,0.544-3.551c0.365-1.08,0.893-2.016,1.582-2.797c0.692-0.785,1.537-1.4,2.533-1.846
					C176.315,186.864,177.448,186.643,178.717,186.643z M178.746,187.914c-0.921,0-1.744,0.148-2.477,0.436
					c-0.729,0.289-1.358,0.697-1.892,1.237c-0.532,0.542-0.962,1.186-1.292,1.944c-0.333,0.75-0.544,1.596-0.653,2.527h11.767
					c0-0.957-0.132-1.814-0.392-2.57c-0.264-0.767-0.635-1.408-1.114-1.939c-0.475-0.524-1.052-0.929-1.722-1.211
					C180.301,188.062,179.562,187.914,178.746,187.914z"/>
				<path fill="#283A42" d="M201.751,204.807c-0.357,0-0.581-0.17-0.664-0.504l-0.25-2.279c-0.491,0.48-0.98,0.907-1.468,1.291
					c-0.485,0.388-0.988,0.709-1.514,0.971c-0.53,0.266-1.096,0.467-1.708,0.604c-0.613,0.136-1.283,0.21-2.016,0.21
					c-0.607,0-1.2-0.094-1.774-0.277c-0.575-0.178-1.088-0.45-1.529-0.822c-0.445-0.367-0.8-0.846-1.072-1.431
					c-0.27-0.579-0.404-1.276-0.404-2.087c0-0.76,0.217-1.459,0.646-2.109c0.433-0.642,1.104-1.21,2.022-1.686
					c0.92-0.479,2.097-0.862,3.539-1.15c1.446-0.289,3.177-0.459,5.206-0.504v-1.865c0-1.656-0.355-2.93-1.07-3.818
					c-0.711-0.892-1.769-1.338-3.173-1.338c-0.861,0-1.594,0.115-2.197,0.357c-0.605,0.241-1.121,0.505-1.539,0.791
					c-0.418,0.287-0.761,0.553-1.023,0.792c-0.264,0.235-0.487,0.357-0.666,0.357c-0.236,0-0.418-0.108-0.542-0.321l-0.303-0.523
					c0.934-0.936,1.918-1.641,2.948-2.119c1.029-0.478,2.199-0.717,3.504-0.717c0.958,0,1.799,0.148,2.516,0.455
					c0.718,0.309,1.312,0.742,1.791,1.311c0.469,0.568,0.824,1.258,1.066,2.067c0.239,0.81,0.359,1.711,0.359,2.706v11.643h-0.684
					V204.807z M194.566,203.856c0.696,0,1.332-0.071,1.915-0.228c0.579-0.146,1.117-0.357,1.614-0.631
					c0.498-0.268,0.962-0.585,1.395-0.957c0.428-0.373,0.856-0.775,1.275-1.209v-4.649c-1.701,0.049-3.163,0.179-4.394,0.39
					c-1.228,0.203-2.241,0.491-3.037,0.849c-0.796,0.361-1.385,0.79-1.758,1.283c-0.382,0.505-0.568,1.065-0.568,1.705
					c0,0.597,0.095,1.112,0.296,1.552c0.199,0.436,0.458,0.795,0.781,1.08c0.323,0.275,0.701,0.486,1.133,0.617
					C193.651,203.789,194.102,203.856,194.566,203.856z"/>
				<path fill="#283A42" d="M217.671,189.137c-0.083,0.17-0.215,0.255-0.394,0.255c-0.134,0-0.305-0.071-0.512-0.228
					c-0.211-0.152-0.487-0.314-0.831-0.501c-0.339-0.187-0.761-0.355-1.261-0.501c-0.491-0.156-1.1-0.229-1.821-0.229
					c-0.646,0-1.234,0.096-1.769,0.277c-0.534,0.188-0.986,0.436-1.364,0.746c-0.378,0.314-0.67,0.676-0.881,1.095
					c-0.209,0.41-0.316,0.841-0.316,1.295c0,0.568,0.142,1.029,0.434,1.401c0.289,0.371,0.664,0.688,1.133,0.955
					c0.469,0.263,0.997,0.486,1.588,0.681c0.593,0.194,1.202,0.386,1.825,0.577c0.624,0.192,1.23,0.406,1.825,0.639
					c0.593,0.232,1.121,0.521,1.583,0.871c0.471,0.344,0.851,0.771,1.137,1.277c0.288,0.497,0.43,1.11,0.43,1.826
					c0,0.784-0.138,1.51-0.422,2.18c-0.284,0.672-0.686,1.25-1.222,1.739c-0.534,0.491-1.191,0.886-1.967,1.167
					c-0.777,0.287-1.667,0.437-2.657,0.437c-1.259,0-2.343-0.207-3.252-0.604c-0.909-0.402-1.726-0.926-2.444-1.574l0.415-0.608
					c0.057-0.098,0.125-0.167,0.195-0.216c0.073-0.051,0.174-0.07,0.309-0.07c0.154,0,0.343,0.1,0.572,0.286
					c0.228,0.192,0.524,0.397,0.893,0.617c0.366,0.224,0.816,0.431,1.36,0.623c0.548,0.19,1.226,0.286,2.02,0.286
					c0.759,0,1.423-0.104,1.998-0.309c0.575-0.213,1.054-0.504,1.439-0.86c0.382-0.355,0.67-0.778,0.869-1.265
					c0.199-0.483,0.296-0.993,0.296-1.535c0-0.597-0.145-1.098-0.433-1.494c-0.286-0.392-0.664-0.725-1.135-1.001
					c-0.467-0.28-0.993-0.514-1.587-0.7c-0.591-0.197-1.206-0.386-1.832-0.578c-0.629-0.188-1.24-0.404-1.835-0.628
					c-0.589-0.228-1.119-0.518-1.588-0.862c-0.471-0.348-0.844-0.768-1.133-1.266c-0.288-0.499-0.43-1.12-0.43-1.859
					c0-0.639,0.136-1.248,0.414-1.837c0.274-0.587,0.666-1.101,1.178-1.541c0.507-0.446,1.125-0.8,1.859-1.062
					c0.727-0.262,1.547-0.396,2.46-0.396c1.088,0,2.057,0.156,2.899,0.469c0.845,0.311,1.625,0.788,2.331,1.438L217.671,189.137z"/>
				<path fill="#283A42" d="M230.015,186.643c1.007,0,1.937,0.173,2.793,0.521c0.857,0.348,1.6,0.855,2.229,1.518
					c0.625,0.668,1.119,1.479,1.474,2.454c0.353,0.972,0.532,2.085,0.532,3.344c0,0.262-0.041,0.438-0.12,0.536
					c-0.075,0.1-0.199,0.148-0.368,0.148h-12.899v0.336c0,1.34,0.156,2.523,0.465,3.541c0.311,1.018,0.759,1.869,1.33,2.562
					c0.575,0.688,1.271,1.203,2.083,1.551c0.816,0.352,1.726,0.525,2.733,0.525c0.897,0,1.677-0.098,2.336-0.301
					c0.656-0.198,1.212-0.416,1.663-0.664c0.447-0.242,0.804-0.467,1.068-0.663c0.264-0.196,0.455-0.298,0.573-0.298
					c0.158,0,0.276,0.061,0.359,0.178l0.467,0.581c-0.291,0.354-0.666,0.687-1.139,1.003c-0.473,0.311-0.999,0.58-1.583,0.8
					c-0.581,0.22-1.202,0.397-1.868,0.526c-0.662,0.133-1.33,0.202-2.006,0.202c-1.218,0-2.331-0.215-3.337-0.64
					c-1.009-0.428-1.872-1.047-2.59-1.861c-0.723-0.814-1.275-1.809-1.669-2.988c-0.396-1.182-0.593-2.531-0.593-4.055
					c0-1.283,0.183-2.462,0.548-3.551c0.365-1.08,0.893-2.016,1.583-2.797c0.688-0.785,1.531-1.4,2.529-1.846
					C227.609,186.864,228.746,186.643,230.015,186.643z M230.041,187.914c-0.921,0-1.746,0.148-2.479,0.436
					c-0.727,0.289-1.36,0.697-1.89,1.237c-0.53,0.542-0.964,1.186-1.293,1.944c-0.329,0.75-0.546,1.596-0.654,2.527h11.769
					c0-0.957-0.134-1.814-0.394-2.57c-0.262-0.767-0.635-1.408-1.114-1.939c-0.478-0.524-1.052-0.929-1.72-1.211
					C231.596,188.062,230.853,187.914,230.041,187.914z"/>
				<path fill="#283A42" d="M261.25,204.807c-0.296,0-0.467-0.156-0.516-0.467l-0.179-2.818c-0.796,1.076-1.722,1.934-2.781,2.568
					c-1.06,0.631-2.254,0.952-3.569,0.952c-2.194,0-3.908-0.759-5.138-2.282c-1.228-1.521-1.841-3.802-1.841-6.846
					c0-1.307,0.168-2.521,0.512-3.656c0.341-1.135,0.845-2.115,1.512-2.947c0.666-0.834,1.48-1.488,2.446-1.965
					c0.966-0.481,2.077-0.721,3.338-0.721c1.21,0,2.259,0.223,3.146,0.67c0.887,0.45,1.657,1.104,2.304,1.971v-10.6h1.703v26.141
					H261.25z M254.689,203.658c1.186,0,2.262-0.307,3.22-0.92c0.962-0.609,1.821-1.46,2.576-2.551v-9.432
					c-0.696-1.021-1.459-1.738-2.296-2.158c-0.834-0.416-1.776-0.627-2.834-0.627c-1.056,0-1.978,0.193-2.771,0.576
					c-0.79,0.385-1.456,0.924-1.983,1.627c-0.54,0.695-0.942,1.539-1.21,2.513c-0.272,0.975-0.402,2.053-0.402,3.228
					c0,2.656,0.489,4.615,1.474,5.861C251.447,203.028,252.854,203.658,254.689,203.658z"/>
				<path fill="#283A42" d="M274.929,186.643c1.007,0,1.941,0.173,2.793,0.521c0.857,0.348,1.6,0.855,2.229,1.518
					c0.629,0.668,1.121,1.479,1.474,2.454c0.353,0.972,0.528,2.085,0.528,3.344c0,0.262-0.039,0.438-0.114,0.536
					c-0.077,0.1-0.203,0.148-0.365,0.148h-12.904v0.336c0,1.34,0.156,2.523,0.467,3.541c0.309,1.018,0.755,1.869,1.33,2.562
					c0.574,0.688,1.269,1.203,2.085,1.551c0.812,0.352,1.722,0.525,2.729,0.525c0.897,0,1.677-0.098,2.334-0.301
					c0.662-0.198,1.214-0.416,1.661-0.664c0.451-0.242,0.808-0.467,1.072-0.663c0.264-0.196,0.455-0.298,0.576-0.298
					c0.156,0,0.274,0.061,0.359,0.178l0.465,0.581c-0.29,0.354-0.668,0.687-1.141,1.003c-0.475,0.311-1.001,0.58-1.58,0.8
					c-0.581,0.22-1.206,0.397-1.872,0.526c-0.662,0.133-1.332,0.202-2.002,0.202c-1.222,0-2.334-0.215-3.342-0.64
					c-1.005-0.428-1.868-1.047-2.59-1.861c-0.721-0.814-1.277-1.809-1.67-2.988c-0.396-1.182-0.591-2.531-0.591-4.055
					c0-1.283,0.183-2.462,0.548-3.551c0.365-1.08,0.891-2.016,1.58-2.797c0.69-0.785,1.537-1.4,2.534-1.846
					C272.521,186.864,273.663,186.643,274.929,186.643z M274.958,187.914c-0.921,0-1.75,0.148-2.48,0.436
					c-0.727,0.289-1.354,0.697-1.89,1.237c-0.532,0.542-0.964,1.186-1.293,1.944c-0.329,0.75-0.544,1.596-0.653,2.527h11.771
					c0-0.957-0.134-1.814-0.396-2.57c-0.262-0.767-0.633-1.408-1.11-1.939c-0.479-0.524-1.056-0.929-1.722-1.211
					C276.509,188.062,275.77,187.914,274.958,187.914z"/>
				<path fill="#283A42" d="M291.42,205.097c-1.208,0-2.148-0.339-2.815-1.007c-0.672-0.674-1.007-1.707-1.007-3.109V188.76h-2.572
					c-0.128,0-0.238-0.031-0.319-0.105c-0.087-0.068-0.126-0.172-0.126-0.305v-0.667l3.053-0.212l0.426-6.396
					c0.015-0.105,0.055-0.203,0.132-0.288c0.075-0.087,0.181-0.126,0.314-0.126h0.798v6.827h5.625v1.272h-5.625v12.133
					c0,0.487,0.061,0.909,0.189,1.265c0.126,0.357,0.296,0.644,0.52,0.866c0.221,0.23,0.483,0.4,0.784,0.508
					c0.296,0.105,0.621,0.16,0.97,0.16c0.427,0,0.8-0.059,1.113-0.186c0.312-0.127,0.581-0.267,0.81-0.414
					c0.229-0.148,0.414-0.291,0.558-0.417c0.14-0.122,0.256-0.185,0.337-0.185c0.1,0,0.191,0.059,0.291,0.177l0.469,0.757
					c-0.458,0.504-1.037,0.91-1.733,1.213C292.904,204.94,292.177,205.097,291.42,205.097z"/>
				<path fill="#283A42" d="M306.1,186.643c1.005,0,1.938,0.173,2.793,0.521c0.859,0.348,1.604,0.855,2.229,1.518
					c0.629,0.668,1.119,1.479,1.474,2.454c0.354,0.972,0.532,2.085,0.532,3.344c0,0.262-0.041,0.438-0.118,0.536
					c-0.077,0.1-0.199,0.148-0.37,0.148h-12.899v0.336c0,1.34,0.154,2.523,0.467,3.541c0.309,1.018,0.755,1.869,1.328,2.562
					c0.577,0.688,1.271,1.203,2.087,1.551c0.814,0.352,1.726,0.525,2.729,0.525c0.897,0,1.677-0.098,2.337-0.301
					c0.66-0.198,1.212-0.416,1.663-0.664c0.451-0.242,0.804-0.467,1.07-0.663c0.262-0.196,0.451-0.298,0.575-0.298
					c0.156,0,0.272,0.061,0.357,0.178l0.467,0.581c-0.288,0.354-0.664,0.687-1.139,1.003c-0.475,0.311-1,0.58-1.582,0.8
					c-0.581,0.22-1.204,0.397-1.868,0.526c-0.666,0.133-1.332,0.202-2.005,0.202c-1.22,0-2.335-0.215-3.338-0.64
					c-1.009-0.428-1.872-1.047-2.592-1.861s-1.279-1.809-1.673-2.988c-0.392-1.182-0.587-2.531-0.587-4.055
					c0-1.283,0.181-2.462,0.544-3.551c0.365-1.08,0.893-2.016,1.583-2.797c0.686-0.785,1.535-1.4,2.531-1.846
					C303.698,186.864,304.829,186.643,306.1,186.643z M306.126,187.914c-0.92,0-1.746,0.148-2.475,0.436
					c-0.727,0.289-1.36,0.697-1.892,1.237c-0.532,0.542-0.964,1.186-1.293,1.944c-0.331,0.75-0.546,1.596-0.656,2.527h11.769
					c0-0.957-0.13-1.814-0.394-2.57c-0.266-0.767-0.631-1.408-1.113-1.939c-0.475-0.524-1.049-0.929-1.723-1.211
					C307.679,188.062,306.94,187.914,306.126,187.914z"/>
				<path fill="#283A42" d="M329.495,189.316c-0.061,0.061-0.118,0.111-0.17,0.154c-0.055,0.041-0.132,0.062-0.223,0.062
					c-0.122,0-0.289-0.078-0.498-0.24c-0.211-0.165-0.489-0.342-0.834-0.533c-0.349-0.188-0.782-0.367-1.303-0.523
					c-0.52-0.162-1.151-0.252-1.896-0.252c-1.027,0-1.943,0.189-2.739,0.553c-0.798,0.367-1.468,0.885-2.014,1.571
					c-0.546,0.687-0.958,1.511-1.247,2.481c-0.287,0.966-0.433,2.061-0.433,3.27c0,1.257,0.146,2.369,0.44,3.342
					c0.294,0.969,0.708,1.789,1.247,2.449c0.542,0.668,1.192,1.173,1.959,1.521c0.771,0.348,1.62,0.52,2.554,0.52
					c0.863,0,1.583-0.102,2.164-0.306c0.584-0.205,1.06-0.425,1.439-0.666c0.377-0.235,0.676-0.459,0.899-0.662
					c0.22-0.205,0.394-0.304,0.524-0.304c0.159,0,0.278,0.059,0.359,0.178l0.473,0.576c-0.276,0.355-0.625,0.691-1.043,1.006
					c-0.418,0.311-0.896,0.582-1.417,0.81c-0.534,0.224-1.101,0.399-1.72,0.524c-0.619,0.127-1.261,0.194-1.931,0.194
					c-1.141,0-2.176-0.211-3.118-0.621c-0.942-0.414-1.75-1.011-2.424-1.799c-0.678-0.779-1.206-1.745-1.585-2.885
					c-0.372-1.139-0.562-2.433-0.562-3.878c0-1.363,0.179-2.612,0.538-3.737c0.359-1.128,0.879-2.095,1.573-2.909
					c0.686-0.818,1.531-1.449,2.531-1.898c0.999-0.45,2.146-0.674,3.441-0.674c1.157,0,2.194,0.188,3.1,0.561
					c0.901,0.367,1.689,0.873,2.361,1.508L329.495,189.316z"/>
				<path fill="#283A42" d="M338.943,205.097c-1.21,0-2.148-0.339-2.824-1.007c-0.666-0.674-1.001-1.707-1.001-3.109V188.76h-2.57
					c-0.132,0-0.241-0.031-0.322-0.105c-0.085-0.068-0.128-0.172-0.128-0.305v-0.667l3.053-0.212l0.43-6.396
					c0.01-0.105,0.053-0.203,0.13-0.288c0.077-0.087,0.183-0.126,0.312-0.126h0.8v6.827h5.624v1.272h-5.624v12.133
					c0,0.487,0.065,0.909,0.187,1.265c0.13,0.357,0.298,0.644,0.524,0.866c0.219,0.23,0.483,0.4,0.779,0.508
					c0.301,0.105,0.622,0.16,0.971,0.16c0.43,0,0.802-0.059,1.11-0.186c0.312-0.127,0.583-0.267,0.814-0.414
					c0.228-0.148,0.41-0.291,0.556-0.417c0.143-0.122,0.254-0.185,0.339-0.185c0.095,0,0.191,0.059,0.286,0.177l0.467,0.757
					c-0.453,0.504-1.031,0.91-1.729,1.213C340.43,204.94,339.699,205.097,338.943,205.097z"/>
				<path fill="#283A42" d="M349.852,180.77c0,0.215-0.047,0.412-0.136,0.6c-0.091,0.187-0.203,0.347-0.349,0.495
					c-0.142,0.142-0.312,0.26-0.501,0.341c-0.195,0.088-0.396,0.128-0.615,0.128c-0.215,0-0.418-0.04-0.605-0.128
					c-0.197-0.081-0.363-0.199-0.505-0.341c-0.144-0.148-0.26-0.309-0.343-0.495c-0.083-0.188-0.125-0.385-0.125-0.6
					c0-0.221,0.042-0.424,0.125-0.623c0.083-0.197,0.199-0.367,0.343-0.514c0.142-0.145,0.309-0.252,0.505-0.335
					c0.187-0.087,0.39-0.13,0.605-0.13c0.219,0,0.42,0.043,0.615,0.13c0.189,0.083,0.359,0.19,0.501,0.335
					c0.146,0.146,0.258,0.312,0.349,0.514C349.805,180.346,349.852,180.549,349.852,180.77z M349.096,186.93v17.877h-1.708V186.93
					H349.096z"/>
				<path fill="#283A42" d="M362.228,186.643c1.283,0,2.433,0.22,3.435,0.652c1.02,0.438,1.864,1.06,2.566,1.863
					c0.694,0.803,1.227,1.769,1.588,2.898c0.365,1.138,0.553,2.404,0.553,3.803c0,1.401-0.188,2.666-0.553,3.793
					c-0.361,1.123-0.894,2.087-1.588,2.891c-0.702,0.802-1.547,1.421-2.566,1.854c-1.002,0.426-2.147,0.646-3.435,0.646
					c-1.279,0-2.432-0.222-3.442-0.646c-1.011-0.433-1.868-1.052-2.57-1.854c-0.7-0.804-1.228-1.768-1.598-2.891
					c-0.363-1.127-0.544-2.392-0.544-3.793c0-1.398,0.181-2.665,0.544-3.803c0.365-1.13,0.897-2.096,1.598-2.898
					c0.703-0.804,1.559-1.425,2.57-1.863C359.796,186.86,360.949,186.643,362.228,186.643z M362.228,203.691
					c1.067,0,1.993-0.18,2.794-0.545c0.795-0.368,1.461-0.892,1.993-1.576c0.532-0.68,0.935-1.508,1.194-2.467
					c0.264-0.966,0.397-2.044,0.397-3.244c0-1.186-0.134-2.268-0.397-3.233c-0.26-0.973-0.662-1.806-1.194-2.493
					c-0.532-0.686-1.198-1.214-1.993-1.586c-0.801-0.371-1.727-0.561-2.794-0.561s-1.998,0.189-2.793,0.561
					c-0.799,0.372-1.467,0.897-1.995,1.586c-0.536,0.688-0.938,1.521-1.204,2.493c-0.27,0.966-0.406,2.048-0.406,3.233
					c0,1.2,0.136,2.278,0.406,3.244c0.266,0.959,0.668,1.787,1.204,2.467c0.528,0.685,1.196,1.208,1.995,1.576
					C360.23,203.512,361.161,203.691,362.228,203.691z"/>
				<path fill="#283A42" d="M374.86,204.807V186.93h0.934c0.309,0,0.491,0.154,0.536,0.448l0.162,2.698
					c0.816-1.031,1.763-1.865,2.847-2.491c1.088-0.628,2.294-0.942,3.625-0.942c0.982,0,1.848,0.156,2.596,0.469
					c0.742,0.311,1.367,0.758,1.863,1.347c0.486,0.589,0.853,1.293,1.104,2.117c0.252,0.831,0.383,1.761,0.383,2.81v11.422h-1.71
					v-11.422c0-1.677-0.382-2.994-1.146-3.946c-0.771-0.948-1.944-1.429-3.523-1.429c-1.174,0-2.262,0.3-3.265,0.904
					c-1.011,0.605-1.913,1.438-2.7,2.492v13.4H374.86z"/>
				<path fill="#283A42" d="M401.893,204.807v-16.008l-2.518-0.16c-0.341-0.024-0.516-0.173-0.516-0.449v-0.702h3.033v-2.263
					c0-1.021,0.134-1.915,0.397-2.69c0.265-0.77,0.638-1.415,1.112-1.931c0.479-0.512,1.061-0.896,1.734-1.159
					c0.678-0.254,1.421-0.384,2.237-0.384c0.369,0,0.747,0.028,1.12,0.098c0.378,0.068,0.711,0.154,0.999,0.277l-0.053,0.814
					c-0.013,0.164-0.13,0.246-0.341,0.246c-0.146,0-0.342-0.015-0.589-0.055c-0.243-0.035-0.54-0.051-0.901-0.051
					c-0.589,0-1.137,0.087-1.629,0.258c-0.494,0.178-0.926,0.452-1.287,0.836c-0.356,0.388-0.637,0.891-0.836,1.51
					c-0.195,0.615-0.297,1.377-0.297,2.276v2.217h5.807v1.272h-5.77v16.045h-1.705V204.807z"/>
				<path fill="#283A42" d="M419.616,186.643c1.279,0,2.429,0.22,3.436,0.652c1.015,0.438,1.863,1.06,2.562,1.863
					c0.694,0.803,1.223,1.769,1.592,2.898c0.365,1.138,0.548,2.404,0.548,3.803c0,1.401-0.183,2.666-0.548,3.793
					c-0.369,1.123-0.894,2.087-1.592,2.891c-0.698,0.802-1.547,1.421-2.562,1.854c-1.007,0.426-2.156,0.646-3.436,0.646
					c-1.283,0-2.432-0.222-3.442-0.646c-1.012-0.433-1.868-1.052-2.571-1.854c-0.701-0.804-1.234-1.768-1.596-2.891
					c-0.369-1.127-0.547-2.392-0.547-3.793c0-1.398,0.178-2.665,0.547-3.803c0.361-1.13,0.895-2.096,1.596-2.898
					c0.703-0.804,1.56-1.425,2.571-1.863C417.184,186.862,418.333,186.643,419.616,186.643z M419.616,203.691
					c1.064,0,1.989-0.18,2.794-0.545c0.796-0.368,1.461-0.892,1.989-1.576c0.532-0.68,0.93-1.508,1.198-2.467
					c0.264-0.966,0.394-2.044,0.394-3.244c0-1.186-0.13-2.268-0.394-3.233c-0.269-0.973-0.666-1.806-1.198-2.493
					c-0.528-0.686-1.193-1.214-1.989-1.586c-0.805-0.371-1.729-0.561-2.794-0.561c-1.067,0-1.997,0.189-2.797,0.561
					c-0.796,0.372-1.462,0.897-1.99,1.586c-0.539,0.688-0.938,1.521-1.205,2.493c-0.269,0.966-0.41,2.048-0.41,3.233
					c0,1.2,0.142,2.278,0.41,3.244c0.268,0.959,0.666,1.787,1.205,2.467c0.528,0.685,1.194,1.208,1.99,1.576
					C417.619,203.512,418.548,203.691,419.616,203.691z"/>
				<path fill="#283A42" d="M432.24,204.807V186.93h0.896c0.207,0,0.354,0.045,0.447,0.127c0.089,0.084,0.138,0.229,0.15,0.431
					l0.142,3.774c0.577-1.451,1.344-2.588,2.303-3.406c0.954-0.82,2.136-1.227,3.536-1.227c0.54,0,1.035,0.053,1.49,0.17
					c0.459,0.107,0.893,0.276,1.299,0.492l-0.243,1.186c-0.032,0.192-0.146,0.286-0.354,0.286c-0.069,0-0.175-0.021-0.305-0.071
					c-0.13-0.047-0.3-0.1-0.495-0.162c-0.195-0.057-0.438-0.113-0.727-0.16c-0.288-0.051-0.617-0.072-0.987-0.072
					c-1.355,0-2.46,0.419-3.333,1.258c-0.869,0.842-1.567,2.046-2.111,3.631v11.625h-1.709V204.807z"/>
				<path fill="#283A42" d="M453.442,204.807V186.93h0.934c0.313,0,0.491,0.154,0.545,0.448l0.158,2.589
					c0.345-0.492,0.723-0.942,1.12-1.347c0.386-0.409,0.812-0.761,1.263-1.056c0.451-0.294,0.926-0.516,1.434-0.68
					c0.508-0.156,1.044-0.244,1.607-0.244c1.304,0,2.348,0.382,3.127,1.141c0.779,0.764,1.308,1.817,1.579,3.17
					c0.22-0.741,0.516-1.383,0.91-1.921c0.39-0.536,0.836-0.984,1.331-1.34c0.508-0.349,1.052-0.612,1.641-0.79
					c0.597-0.17,1.202-0.26,1.827-0.26c0.881,0,1.682,0.148,2.385,0.443c0.706,0.294,1.303,0.725,1.798,1.301
					c0.504,0.572,0.882,1.281,1.146,2.119c0.26,0.841,0.394,1.795,0.394,2.879v11.422h-1.701v-11.422
					c0-1.752-0.378-3.082-1.137-4.001c-0.751-0.916-1.832-1.376-3.237-1.376c-0.621,0-1.214,0.115-1.786,0.344
					c-0.568,0.23-1.076,0.561-1.511,1.014c-0.431,0.451-0.783,1.01-1.035,1.684c-0.26,0.67-0.398,1.441-0.398,2.336v11.424h-1.701
					v-11.424c0-1.74-0.345-3.071-1.043-3.991c-0.69-0.923-1.71-1.386-3.037-1.386c-0.963,0-1.863,0.289-2.692,0.872
					c-0.819,0.581-1.559,1.387-2.208,2.42v13.509H453.442z"/>
				<path fill="#283A42" d="M493.437,204.807c-0.357,0-0.581-0.17-0.662-0.504l-0.252-2.279c-0.495,0.48-0.982,0.907-1.466,1.291
					c-0.487,0.388-0.99,0.709-1.519,0.971c-0.527,0.266-1.096,0.467-1.705,0.604c-0.613,0.136-1.283,0.21-2.014,0.21
					c-0.609,0-1.206-0.094-1.782-0.277c-0.573-0.178-1.085-0.45-1.523-0.822c-0.446-0.367-0.8-0.846-1.063-1.431
					c-0.271-0.579-0.406-1.276-0.406-2.087c0-0.76,0.216-1.459,0.642-2.109c0.435-0.642,1.104-1.21,2.022-1.686
					c0.913-0.479,2.095-0.862,3.536-1.15c1.445-0.289,3.184-0.459,5.205-0.504v-1.865c0-1.656-0.353-2.93-1.067-3.818
					c-0.715-0.892-1.767-1.338-3.176-1.338c-0.86,0-1.595,0.115-2.196,0.357c-0.608,0.241-1.116,0.505-1.534,0.791
					c-0.423,0.287-0.764,0.553-1.027,0.792c-0.265,0.235-0.479,0.357-0.662,0.357c-0.248,0-0.422-0.108-0.536-0.321l-0.312-0.523
					c0.934-0.936,1.916-1.641,2.948-2.119c1.026-0.478,2.196-0.717,3.508-0.717c0.954,0,1.79,0.148,2.509,0.455
					c0.719,0.309,1.319,0.742,1.787,1.311c0.479,0.568,0.828,1.258,1.071,2.067c0.24,0.81,0.357,1.711,0.357,2.706v11.643h-0.682
					V204.807z M486.25,203.856c0.695,0,1.332-0.071,1.917-0.228c0.581-0.146,1.12-0.357,1.612-0.631
					c0.499-0.268,0.962-0.585,1.396-0.957c0.43-0.373,0.853-0.775,1.279-1.209v-4.649c-1.706,0.049-3.168,0.179-4.397,0.39
					c-1.227,0.203-2.237,0.491-3.037,0.849c-0.8,0.361-1.381,0.79-1.763,1.283c-0.377,0.505-0.561,1.065-0.561,1.705
					c0,0.597,0.094,1.112,0.293,1.552c0.203,0.436,0.459,0.795,0.783,1.08c0.321,0.275,0.703,0.486,1.133,0.617
					C485.333,203.789,485.779,203.856,486.25,203.856z"/>
				<path fill="#283A42" d="M509.353,189.137c-0.077,0.17-0.211,0.255-0.39,0.255c-0.134,0-0.309-0.071-0.516-0.228
					c-0.207-0.152-0.487-0.314-0.824-0.501c-0.342-0.187-0.764-0.355-1.259-0.501c-0.495-0.156-1.104-0.229-1.823-0.229
					c-0.649,0-1.234,0.096-1.771,0.277c-0.54,0.188-0.986,0.436-1.36,0.746c-0.386,0.314-0.678,0.676-0.889,1.095
					c-0.207,0.41-0.312,0.841-0.312,1.295c0,0.568,0.146,1.029,0.435,1.401c0.284,0.371,0.661,0.688,1.133,0.955
					c0.458,0.263,0.994,0.486,1.587,0.681s1.202,0.386,1.819,0.577c0.625,0.192,1.234,0.406,1.827,0.639s1.12,0.521,1.592,0.871
					c0.467,0.344,0.845,0.771,1.129,1.277c0.284,0.497,0.434,1.11,0.434,1.826c0,0.784-0.142,1.51-0.418,2.18
					c-0.288,0.672-0.694,1.25-1.23,1.739c-0.527,0.491-1.186,0.886-1.965,1.167c-0.775,0.287-1.66,0.437-2.659,0.437
					c-1.255,0-2.339-0.207-3.248-0.604c-0.91-0.402-1.73-0.926-2.444-1.574l0.414-0.608c0.061-0.098,0.126-0.167,0.194-0.216
					c0.073-0.051,0.171-0.07,0.305-0.07c0.158,0,0.354,0.1,0.577,0.286c0.231,0.192,0.523,0.397,0.889,0.617
					c0.365,0.224,0.82,0.431,1.368,0.623c0.549,0.19,1.219,0.286,2.019,0.286c0.759,0,1.421-0.104,1.997-0.309
					c0.577-0.213,1.048-0.504,1.43-0.86c0.394-0.355,0.682-0.778,0.877-1.265c0.194-0.483,0.296-0.993,0.296-1.535
					c0-0.597-0.142-1.098-0.435-1.494c-0.284-0.392-0.661-0.725-1.128-1.001c-0.463-0.28-0.999-0.514-1.596-0.7
					c-0.593-0.197-1.198-0.386-1.827-0.578c-0.63-0.188-1.243-0.404-1.836-0.628c-0.589-0.228-1.116-0.518-1.587-0.862
					c-0.467-0.348-0.845-0.768-1.138-1.266c-0.279-0.499-0.426-1.12-0.426-1.859c0-0.639,0.134-1.248,0.414-1.837
					c0.272-0.587,0.666-1.101,1.178-1.541c0.508-0.446,1.129-0.8,1.855-1.062c0.73-0.262,1.551-0.396,2.46-0.396
					c1.089,0,2.059,0.156,2.903,0.469c0.845,0.311,1.624,0.788,2.327,1.438L509.353,189.137z"/>
				<path fill="#283A42" d="M524.806,189.137c-0.085,0.17-0.215,0.255-0.394,0.255c-0.126,0-0.305-0.071-0.512-0.228
					c-0.211-0.152-0.487-0.314-0.828-0.501c-0.337-0.187-0.764-0.355-1.259-0.501c-0.495-0.156-1.104-0.229-1.823-0.229
					c-0.642,0-1.234,0.096-1.771,0.277c-0.527,0.188-0.986,0.436-1.364,0.746c-0.377,0.314-0.67,0.676-0.881,1.095
					c-0.207,0.41-0.312,0.841-0.312,1.295c0,0.568,0.146,1.029,0.431,1.401c0.292,0.371,0.666,0.688,1.133,0.955
					c0.467,0.263,0.994,0.486,1.592,0.681c0.597,0.194,1.197,0.386,1.822,0.577c0.626,0.192,1.23,0.406,1.819,0.639
					c0.597,0.232,1.129,0.521,1.596,0.871c0.463,0.344,0.845,0.771,1.129,1.277c0.292,0.497,0.431,1.11,0.431,1.826
					c0,0.784-0.139,1.51-0.423,2.18c-0.276,0.672-0.682,1.25-1.218,1.739c-0.532,0.491-1.186,0.886-1.97,1.167
					c-0.783,0.287-1.66,0.437-2.655,0.437c-1.263,0-2.343-0.207-3.256-0.604c-0.906-0.402-1.722-0.926-2.44-1.574l0.41-0.608
					c0.057-0.098,0.126-0.167,0.199-0.216c0.068-0.051,0.17-0.07,0.304-0.07c0.159,0,0.35,0.1,0.577,0.286
					c0.228,0.192,0.52,0.397,0.885,0.617c0.37,0.224,0.824,0.431,1.364,0.623c0.553,0.19,1.227,0.286,2.026,0.286
					c0.755,0,1.417-0.104,1.993-0.309c0.577-0.213,1.056-0.504,1.438-0.86c0.378-0.355,0.678-0.778,0.873-1.265
					c0.195-0.483,0.292-0.993,0.292-1.535c0-0.597-0.142-1.098-0.426-1.494c-0.292-0.392-0.666-0.725-1.133-1.001
					c-0.467-0.28-0.995-0.514-1.592-0.7c-0.597-0.197-1.202-0.386-1.835-0.578c-0.626-0.188-1.243-0.404-1.831-0.628
					c-0.593-0.228-1.125-0.518-1.592-0.862c-0.463-0.348-0.845-0.768-1.133-1.266c-0.288-0.499-0.431-1.12-0.431-1.859
					c0-0.639,0.138-1.248,0.418-1.837c0.269-0.587,0.666-1.101,1.174-1.541c0.512-0.446,1.129-0.8,1.855-1.062
					c0.739-0.262,1.559-0.396,2.465-0.396c1.092,0,2.059,0.156,2.902,0.469c0.841,0.311,1.616,0.788,2.323,1.438L524.806,189.137z"
					/>
				<path fill="#283A42" d="M543.244,186.625c0.775,0,1.498,0.098,2.16,0.288c0.666,0.19,1.267,0.458,1.791,0.808h4.58v0.594
					c0,0.3-0.163,0.458-0.504,0.484l-2.712,0.195c0.337,0.455,0.597,0.973,0.775,1.539c0.179,0.568,0.268,1.175,0.268,1.82
					c0,0.863-0.154,1.645-0.467,2.35c-0.309,0.695-0.743,1.297-1.299,1.792c-0.561,0.497-1.227,0.882-2.006,1.157
					c-0.78,0.28-1.645,0.416-2.587,0.416c-1.027,0-1.965-0.156-2.801-0.469c-0.508,0.291-0.906,0.629-1.187,1.027
					c-0.292,0.396-0.434,0.779-0.434,1.15c0,0.51,0.179,0.908,0.54,1.184c0.356,0.272,0.832,0.478,1.429,0.6
					c0.589,0.128,1.267,0.207,2.03,0.244c0.755,0.038,1.53,0.076,2.318,0.115c0.779,0.043,1.555,0.121,2.318,0.229
					c0.76,0.106,1.438,0.297,2.022,0.562c0.597,0.269,1.071,0.648,1.429,1.133c0.361,0.488,0.544,1.129,0.544,1.938
					c0,0.738-0.19,1.453-0.561,2.131c-0.373,0.683-0.901,1.292-1.607,1.815c-0.698,0.528-1.551,0.952-2.542,1.269
					c-0.994,0.316-2.107,0.474-3.346,0.474c-1.254,0-2.351-0.126-3.301-0.386c-0.946-0.258-1.746-0.602-2.383-1.039
					c-0.642-0.439-1.125-0.947-1.446-1.521c-0.324-0.568-0.487-1.188-0.487-1.831c0-0.944,0.309-1.758,0.938-2.44
					c0.617-0.686,1.481-1.211,2.574-1.585c-0.605-0.199-1.084-0.493-1.434-0.875c-0.357-0.388-0.531-0.915-0.531-1.604
					c0-0.249,0.044-0.514,0.142-0.791c0.098-0.268,0.244-0.545,0.438-0.814c0.19-0.271,0.423-0.523,0.687-0.762
					c0.271-0.241,0.584-0.456,0.941-0.65c-0.849-0.49-1.51-1.144-1.977-1.953c-0.476-0.816-0.719-1.773-0.719-2.859
					c0-0.86,0.162-1.645,0.458-2.342c0.305-0.703,0.739-1.302,1.296-1.813c0.561-0.501,1.234-0.888,2.025-1.163
					C541.413,186.765,542.286,186.625,543.244,186.625z M549.875,206.013c0-0.564-0.15-1.02-0.442-1.358
					c-0.297-0.341-0.687-0.604-1.174-0.798c-0.495-0.192-1.063-0.327-1.701-0.401c-0.646-0.08-1.312-0.141-2.014-0.176
					c-0.698-0.04-1.401-0.07-2.111-0.105c-0.707-0.038-1.364-0.109-1.974-0.215c-0.459,0.177-0.877,0.384-1.263,0.623
					c-0.394,0.23-0.723,0.492-1.003,0.784c-0.271,0.292-0.491,0.617-0.642,0.972c-0.162,0.354-0.243,0.737-0.243,1.164
					c0,0.525,0.142,1.011,0.41,1.461c0.268,0.447,0.666,0.839,1.182,1.168c0.523,0.328,1.161,0.591,1.916,0.779
					c0.755,0.191,1.624,0.289,2.61,0.289c0.906,0,1.755-0.104,2.538-0.307c0.788-0.201,1.466-0.494,2.047-0.859
					c0.584-0.373,1.035-0.818,1.363-1.334C549.708,207.184,549.875,206.625,549.875,206.013z M543.244,196.901
					c0.764,0,1.45-0.114,2.047-0.329c0.597-0.223,1.104-0.533,1.506-0.934c0.41-0.393,0.719-0.865,0.926-1.417
					c0.207-0.546,0.312-1.159,0.312-1.833c0-0.67-0.105-1.283-0.32-1.84c-0.215-0.553-0.528-1.033-0.942-1.43
					c-0.405-0.393-0.913-0.697-1.51-0.917c-0.589-0.218-1.267-0.323-2.019-0.323c-0.755,0-1.433,0.105-2.025,0.323
					c-0.605,0.22-1.113,0.524-1.523,0.917c-0.409,0.396-0.727,0.877-0.945,1.43c-0.211,0.557-0.317,1.17-0.317,1.84
					c0,0.674,0.106,1.287,0.317,1.833c0.219,0.552,0.536,1.024,0.945,1.417c0.41,0.4,0.918,0.711,1.523,0.934
					C541.811,196.787,542.485,196.901,543.244,196.901z"/>
				<path fill="#283A42" d="M566.883,204.807c-0.357,0-0.581-0.17-0.662-0.504l-0.252-2.279c-0.495,0.48-0.979,0.907-1.466,1.291
					c-0.479,0.388-0.986,0.709-1.519,0.971c-0.527,0.266-1.096,0.467-1.705,0.604c-0.613,0.136-1.279,0.21-2.014,0.21
					c-0.613,0-1.202-0.094-1.774-0.277c-0.577-0.178-1.088-0.45-1.531-0.822c-0.442-0.367-0.8-0.846-1.067-1.431
					c-0.272-0.579-0.41-1.276-0.41-2.087c0-0.76,0.224-1.459,0.649-2.109c0.435-0.642,1.104-1.21,2.018-1.686
					c0.922-0.479,2.1-0.862,3.549-1.15c1.441-0.289,3.176-0.459,5.193-0.504v-1.865c0-1.656-0.354-2.93-1.067-3.818
					c-0.707-0.892-1.767-1.338-3.172-1.338c-0.86,0-1.591,0.115-2.196,0.357c-0.609,0.241-1.116,0.505-1.539,0.791
					c-0.418,0.287-0.763,0.553-1.022,0.792c-0.265,0.235-0.487,0.357-0.662,0.357c-0.244,0-0.423-0.108-0.54-0.321l-0.305-0.523
					c0.93-0.936,1.912-1.641,2.943-2.119c1.027-0.478,2.201-0.717,3.504-0.717c0.955,0,1.795,0.148,2.518,0.455
					c0.719,0.309,1.315,0.742,1.783,1.311c0.479,0.568,0.836,1.258,1.075,2.067c0.231,0.81,0.354,1.711,0.354,2.706v11.643h-0.682
					V204.807z M559.701,203.856c0.693,0,1.335-0.071,1.912-0.228c0.58-0.146,1.116-0.357,1.616-0.631
					c0.495-0.271,0.958-0.585,1.396-0.957c0.426-0.373,0.849-0.775,1.267-1.209v-4.649c-1.693,0.049-3.163,0.179-4.389,0.39
					c-1.23,0.203-2.237,0.491-3.042,0.849c-0.791,0.361-1.38,0.79-1.754,1.283c-0.373,0.505-0.564,1.065-0.564,1.705
					c0,0.597,0.102,1.112,0.293,1.552c0.194,0.436,0.459,0.795,0.783,1.08c0.325,0.275,0.698,0.486,1.133,0.617
					S559.229,203.856,559.701,203.856z"/>
				<path fill="#283A42" d="M577.826,205.097c-1.206,0-2.148-0.339-2.818-1.007c-0.67-0.674-1.003-1.707-1.003-3.109V188.76h-2.57
					c-0.142,0-0.243-0.031-0.328-0.105c-0.077-0.068-0.118-0.172-0.118-0.305v-0.667l3.054-0.212l0.418-6.396
					c0.012-0.105,0.061-0.203,0.138-0.288c0.077-0.087,0.183-0.126,0.312-0.126h0.8v6.827h5.624v1.272h-5.624v12.133
					c0,0.487,0.062,0.909,0.183,1.265c0.131,0.357,0.305,0.644,0.524,0.866c0.224,0.23,0.487,0.4,0.783,0.508
					c0.301,0.105,0.617,0.16,0.975,0.16c0.431,0,0.796-0.059,1.108-0.186c0.309-0.127,0.581-0.267,0.812-0.414
					c0.223-0.148,0.406-0.291,0.556-0.417c0.143-0.122,0.256-0.185,0.333-0.185c0.102,0,0.195,0.059,0.293,0.177l0.471,0.757
					c-0.455,0.504-1.035,0.91-1.738,1.213C579.307,204.94,578.584,205.097,577.826,205.097z"/>
				<path fill="#283A42" d="M585.767,204.807v-26.141h1.705v11.32c0.828-1.02,1.774-1.831,2.834-2.439
					c1.064-0.605,2.25-0.904,3.562-0.904c0.982,0,1.852,0.156,2.599,0.469c0.751,0.311,1.368,0.758,1.859,1.347
					s0.856,1.293,1.112,2.117c0.252,0.831,0.382,1.761,0.382,2.81v11.422h-1.709v-11.422c0-1.677-0.387-2.994-1.149-3.946
					c-0.764-0.948-1.94-1.429-3.524-1.429c-1.169,0-2.258,0.3-3.269,0.904c-1.007,0.605-1.9,1.438-2.696,2.492v13.4H585.767z"/>
				<path fill="#283A42" d="M611.948,186.643c1.003,0,1.937,0.173,2.794,0.521c0.848,0.348,1.596,0.855,2.229,1.518
					c0.625,0.668,1.121,1.479,1.47,2.454c0.354,0.972,0.532,2.085,0.532,3.344c0,0.262-0.041,0.438-0.114,0.536
					c-0.081,0.1-0.202,0.148-0.373,0.148h-12.899v0.336c0,1.34,0.154,2.523,0.467,3.541c0.316,1.018,0.755,1.869,1.332,2.562
					c0.572,0.688,1.267,1.203,2.083,1.551c0.812,0.352,1.722,0.525,2.729,0.525c0.901,0,1.681-0.098,2.334-0.301
					c0.666-0.198,1.219-0.416,1.665-0.664c0.446-0.242,0.804-0.467,1.072-0.663c0.256-0.196,0.45-0.298,0.568-0.298
					c0.162,0,0.275,0.061,0.361,0.178l0.467,0.581c-0.288,0.354-0.666,0.687-1.141,1.003c-0.476,0.311-0.995,0.58-1.58,0.8
					c-0.58,0.22-1.201,0.397-1.867,0.526c-0.666,0.133-1.336,0.202-2.006,0.202c-1.223,0-2.339-0.215-3.342-0.64
					c-1.003-0.428-1.872-1.047-2.587-1.861c-0.727-0.814-1.278-1.809-1.677-2.988c-0.39-1.18-0.589-2.531-0.589-4.055
					c0-1.283,0.179-2.462,0.549-3.551c0.369-1.08,0.897-2.016,1.579-2.797c0.69-0.785,1.539-1.4,2.538-1.846
					C609.541,186.864,610.673,186.643,611.948,186.643z M611.972,187.914c-0.926,0-1.746,0.148-2.477,0.436
					c-0.731,0.289-1.356,0.697-1.896,1.237c-0.532,0.542-0.958,1.186-1.291,1.944c-0.329,0.75-0.548,1.596-0.649,2.527h11.763
					c0-0.957-0.13-1.814-0.391-2.57c-0.268-0.767-0.633-1.408-1.112-1.939c-0.479-0.524-1.052-0.929-1.726-1.211
					C613.531,188.062,612.789,187.914,611.972,187.914z"/>
				<path fill="#283A42" d="M623.572,204.807V186.93h0.894c0.203,0,0.354,0.045,0.442,0.127c0.094,0.084,0.143,0.229,0.154,0.431
					l0.139,3.774c0.58-1.451,1.34-2.588,2.302-3.406c0.958-0.82,2.14-1.227,3.545-1.227c0.536,0,1.031,0.053,1.49,0.17
					c0.45,0.107,0.885,0.276,1.291,0.492l-0.235,1.186c-0.037,0.192-0.154,0.286-0.357,0.286c-0.069,0-0.179-0.021-0.309-0.071
					c-0.126-0.047-0.297-0.1-0.491-0.162c-0.199-0.057-0.442-0.113-0.727-0.16c-0.293-0.051-0.622-0.072-0.995-0.072
					c-1.348,0-2.461,0.419-3.334,1.258c-0.86,0.842-1.566,2.046-2.103,3.631v11.625h-1.706V204.807z"/>
				<path fill="#283A42" d="M640.796,180.77c0,0.215-0.041,0.412-0.135,0.6c-0.089,0.187-0.207,0.347-0.353,0.495
					c-0.143,0.142-0.305,0.26-0.5,0.341c-0.194,0.088-0.394,0.128-0.608,0.128c-0.22,0-0.423-0.04-0.613-0.128
					c-0.195-0.081-0.361-0.199-0.504-0.341c-0.146-0.148-0.26-0.309-0.345-0.495c-0.077-0.188-0.122-0.385-0.122-0.6
					c0-0.221,0.045-0.424,0.122-0.623c0.085-0.197,0.198-0.367,0.345-0.514c0.143-0.145,0.309-0.252,0.504-0.335
					c0.19-0.087,0.394-0.13,0.613-0.13c0.215,0,0.414,0.043,0.608,0.13c0.195,0.083,0.357,0.19,0.5,0.335
					c0.146,0.146,0.264,0.312,0.353,0.514C640.751,180.35,640.796,180.549,640.796,180.77z M640.041,186.93v17.877h-1.701V186.93
					H640.041z"/>
				<path fill="#283A42" d="M646.371,204.807V186.93h0.93c0.312,0,0.491,0.154,0.54,0.448l0.163,2.698
					c0.815-1.031,1.762-1.865,2.85-2.491c1.088-0.628,2.29-0.942,3.618-0.942c0.986,0,1.852,0.156,2.599,0.469
					c0.747,0.311,1.364,0.758,1.859,1.347c0.491,0.589,0.856,1.293,1.116,2.117c0.244,0.831,0.374,1.761,0.374,2.81v11.422h-1.71
					v-11.422c0-1.677-0.381-2.994-1.145-3.946c-0.768-0.948-1.945-1.429-3.524-1.429c-1.178,0-2.262,0.3-3.269,0.904
					c-1.007,0.605-1.908,1.438-2.7,2.492v13.4H646.371z"/>
				<path fill="#283A42" d="M671.699,186.625c0.779,0,1.502,0.098,2.168,0.288s1.259,0.458,1.791,0.808h4.575v0.594
					c0,0.3-0.166,0.458-0.499,0.484l-2.717,0.195c0.342,0.455,0.598,0.973,0.771,1.539c0.179,0.568,0.272,1.175,0.272,1.82
					c0,0.863-0.154,1.645-0.467,2.35c-0.312,0.695-0.747,1.297-1.304,1.792c-0.556,0.497-1.226,0.882-2.002,1.157
					c-0.779,0.28-1.64,0.416-2.59,0.416c-1.027,0-1.965-0.156-2.806-0.469c-0.499,0.291-0.894,0.629-1.186,1.027
					c-0.284,0.396-0.427,0.779-0.427,1.15c0,0.51,0.179,0.908,0.536,1.184c0.361,0.272,0.837,0.478,1.43,0.6
					c0.597,0.128,1.267,0.207,2.034,0.244c0.755,0.038,1.53,0.076,2.314,0.115c0.783,0.043,1.555,0.121,2.318,0.229
					c0.759,0.106,1.433,0.297,2.025,0.562c0.598,0.269,1.068,0.648,1.43,1.133c0.361,0.488,0.54,1.129,0.54,1.938
					c0,0.738-0.187,1.453-0.561,2.131c-0.365,0.683-0.905,1.292-1.604,1.815c-0.703,0.528-1.552,0.952-2.546,1.269
					c-0.995,0.316-2.104,0.474-3.342,0.474c-1.255,0-2.354-0.126-3.301-0.386c-0.954-0.258-1.742-0.602-2.384-1.039
					c-0.642-0.439-1.12-0.947-1.449-1.521c-0.321-0.568-0.479-1.188-0.479-1.831c0-0.944,0.309-1.758,0.935-2.44
					c0.621-0.686,1.481-1.211,2.565-1.585c-0.597-0.199-1.071-0.493-1.429-0.875c-0.354-0.388-0.532-0.915-0.532-1.604
					c0-0.249,0.049-0.514,0.15-0.791c0.094-0.268,0.239-0.545,0.431-0.814c0.19-0.271,0.422-0.523,0.694-0.762
					c0.264-0.241,0.576-0.456,0.941-0.65c-0.853-0.49-1.515-1.144-1.985-1.953c-0.475-0.816-0.71-1.773-0.71-2.859
					c0-0.86,0.149-1.645,0.454-2.342c0.309-0.703,0.735-1.302,1.3-1.813c0.552-0.501,1.226-0.888,2.014-1.163
					C669.868,186.765,670.745,186.625,671.699,186.625z M678.325,206.013c0-0.564-0.142-1.02-0.435-1.358
					c-0.296-0.341-0.686-0.604-1.177-0.798c-0.491-0.192-1.056-0.327-1.693-0.401c-0.646-0.08-1.315-0.141-2.022-0.176
					c-0.698-0.04-1.4-0.07-2.111-0.105c-0.706-0.038-1.359-0.109-1.973-0.215c-0.451,0.177-0.873,0.384-1.268,0.623
					c-0.385,0.23-0.723,0.492-0.994,0.784c-0.276,0.292-0.487,0.617-0.649,0.972c-0.159,0.354-0.231,0.737-0.231,1.164
					c0,0.525,0.134,1.011,0.401,1.461c0.269,0.447,0.666,0.839,1.189,1.168c0.517,0.328,1.157,0.591,1.909,0.779
					c0.759,0.191,1.624,0.289,2.61,0.289c0.905,0,1.754-0.104,2.542-0.307c0.783-0.201,1.47-0.494,2.046-0.859
					c0.581-0.373,1.035-0.818,1.364-1.334C678.167,207.184,678.325,206.625,678.325,206.013z M671.699,196.901
					c0.768,0,1.449-0.114,2.051-0.329c0.601-0.223,1.1-0.533,1.51-0.934c0.402-0.393,0.715-0.865,0.922-1.417
					c0.211-0.546,0.316-1.159,0.316-1.833c0-0.67-0.105-1.283-0.32-1.84c-0.22-0.553-0.536-1.033-0.942-1.43
					c-0.418-0.393-0.921-0.697-1.515-0.917c-0.588-0.218-1.267-0.323-2.021-0.323c-0.751,0-1.43,0.105-2.026,0.323
					c-0.601,0.22-1.104,0.524-1.519,0.917c-0.418,0.396-0.73,0.877-0.941,1.43c-0.216,0.557-0.325,1.17-0.325,1.84
					c0,0.674,0.109,1.287,0.325,1.833c0.211,0.552,0.523,1.024,0.941,1.417c0.414,0.4,0.918,0.711,1.519,0.934
					C670.265,196.787,670.948,196.901,671.699,196.901z"/>
				<path fill="#283A42" d="M693.787,189.137c-0.094,0.17-0.22,0.255-0.398,0.255c-0.134,0-0.309-0.071-0.516-0.228
					c-0.207-0.152-0.482-0.314-0.82-0.501c-0.341-0.187-0.767-0.355-1.262-0.501c-0.492-0.156-1.104-0.229-1.819-0.229
					c-0.649,0-1.238,0.096-1.774,0.277c-0.532,0.188-0.986,0.436-1.364,0.746c-0.374,0.314-0.67,0.676-0.873,1.095
					c-0.22,0.41-0.32,0.841-0.32,1.295c0,0.568,0.142,1.029,0.43,1.401c0.288,0.371,0.666,0.688,1.137,0.955
					c0.468,0.263,0.991,0.486,1.584,0.681c0.597,0.194,1.206,0.386,1.823,0.577c0.629,0.192,1.234,0.406,1.827,0.639
					s1.12,0.521,1.587,0.871c0.476,0.344,0.849,0.771,1.138,1.277c0.288,0.497,0.43,1.11,0.43,1.826c0,0.784-0.142,1.51-0.422,2.18
					c-0.284,0.672-0.69,1.25-1.223,1.739c-0.531,0.491-1.186,0.886-1.969,1.167c-0.775,0.287-1.665,0.437-2.659,0.437
					c-1.255,0-2.339-0.207-3.253-0.604c-0.909-0.402-1.726-0.926-2.44-1.574l0.415-0.608c0.061-0.098,0.125-0.167,0.198-0.216
					c0.069-0.051,0.171-0.07,0.301-0.07c0.162,0,0.354,0.1,0.576,0.286c0.228,0.192,0.521,0.397,0.886,0.617
					c0.369,0.224,0.82,0.431,1.368,0.623c0.544,0.19,1.218,0.286,2.021,0.286c0.752,0,1.422-0.104,1.99-0.309
					c0.58-0.213,1.06-0.504,1.438-0.86c0.385-0.355,0.678-0.778,0.881-1.265c0.194-0.483,0.284-0.993,0.284-1.535
					c0-0.597-0.134-1.098-0.427-1.494c-0.284-0.392-0.666-0.725-1.133-1.001c-0.463-0.28-0.994-0.514-1.592-0.7
					c-0.588-0.197-1.205-0.386-1.827-0.578c-0.629-0.188-1.242-0.404-1.835-0.628c-0.593-0.228-1.12-0.518-1.596-0.862
					c-0.459-0.348-0.84-0.768-1.125-1.266c-0.284-0.499-0.434-1.12-0.434-1.859c0-0.639,0.146-1.248,0.414-1.837
					c0.28-0.587,0.666-1.101,1.173-1.541c0.516-0.446,1.137-0.8,1.864-1.062c0.73-0.262,1.551-0.396,2.46-0.396
					c1.089,0,2.059,0.156,2.899,0.469c0.845,0.311,1.624,0.788,2.33,1.438L693.787,189.137z"/>
			</g>
		</g>
	</g>
	<rect x="387.044" y="17.831" fill="#283A42" width="3.861" height="152.331"/>
	<path fill="#283A42" d="M290.974,59.465v66.28v27.767h-32.781V64.729L290.974,59.465z M290.974,55.171h-32.781V27.407h46.494
		c17.613,0,32.693,6.105,45.235,18.314c12.545,12.209,18.818,27.123,18.818,44.736c0,17.617-6.273,32.529-18.818,44.74
		c-12.542,12.205-27.622,18.314-45.235,18.314h-6.253l-3.169-27.767h3.065c10.478,0,19.15-2.952,26.004-8.861
		c6.86-5.912,10.289-14.717,10.289-26.426c0-11.038-3.289-19.676-9.871-25.923c-6.578-6.239-15.275-9.363-26.087-9.363H290.974"/>
	<path fill="#283A42" d="M427.489,27.407h32.275l25.593,67.398l27.09-67.398h32.612l0,0l-23.245,53.519l-30.27,72.586h-13.046
		l-28.935-72.586L427.489,27.407z M446.438,100.176l-7.747,53.336h-32.612l20.964-123.173L446.438,100.176z M545.505,30.339
		l18.62,123.173h-32.782l-6.752-53.336L545.505,30.339z"/>
	<path fill="#283A42" d="M656.98,108.856h-26.757V83.098h65.054c-0.203,9.986-0.987,18.572-2.355,25.758
		C692.921,108.856,684.054,110.588,656.98,108.856z M690.051,119.062c-1.84,4.717-4.39,9.34-7.653,13.875
		c-11.815,16.499-29.157,24.754-52.013,24.754c-19.847,0-36.011-6.16-48.496-18.482c-12.489-12.314-18.733-28.349-18.733-48.082
		c0-20.403,6.297-36.819,18.904-49.253c12.595-12.428,29.1-18.646,49.503-18.646c13.151,0,24.581,2.956,34.28,8.863
		c9.7,5.91,17.229,14.717,22.58,26.422l-31.11,13.048c-2.335-6.245-5.851-11.15-10.536-14.717
		c-4.682-3.569-10.256-5.354-16.721-5.354c-10.15,0-18.149,4.014-24.004,12.043c-5.854,8.027-8.778,17.283-8.778,27.76
		c0,10.483,2.984,19.678,8.949,27.595c5.964,7.92,14.076,11.873,24.333,11.873c7.357,0,13.432-1.895,18.23-5.683
		c4.243-3.355,6.874-7.988,7.885-13.886C656.728,110.864,690.798,117.151,690.051,119.062z"/>
	<polygon fill="#08171E" points="521.814,80.926 522.147,80.926 524.591,100.176 545.505,30.339 545.059,27.407 	"/>
	<polygon fill="#08171E" points="427.489,27.407 427.042,30.339 446.438,100.176 449.227,80.926 449.564,80.926 	"/>
	<polygon fill="#08171E" points="290.974,55.171 290.974,59.465 258.193,64.729 258.193,55.171 	"/>
	<polygon fill="#08171E" points="290.974,125.745 295.263,125.745 298.434,153.512 290.974,153.512 	"/>
	<path fill="#08171E" d="M690.047,119.058c1.056-2.706,1.884-5.435,2.473-8.197c0.138-0.65,0.264-1.326,0.394-2.004
		c0.021-0.093-35.934,0-35.934,0c-0.077,0.802-0.187,1.577-0.316,2.334L690.047,119.058z"/>
	<path fill="#283A42" d="M174.645,59.465v66.28v27.767h-32.781V64.729L174.645,59.465z M174.645,55.171h-32.781V27.407h46.494
		c17.613,0,32.693,6.105,45.235,18.314c12.544,12.209,18.817,27.123,18.817,44.736c0,17.617-6.273,32.529-18.817,44.74
		c-12.542,12.205-27.622,18.314-45.235,18.314h-6.253l-3.169-27.767h3.065c10.478,0,19.15-2.952,26.004-8.861
		c6.86-5.912,10.289-14.717,10.289-26.426c0-11.038-3.289-19.676-9.871-25.923c-6.578-6.239-15.275-9.363-26.087-9.363H174.645"/>
	<polygon fill="#08171E" points="174.645,55.171 174.645,59.465 141.864,64.729 141.864,55.171 	"/>
	<polygon fill="#08171E" points="174.645,125.745 178.935,125.745 182.105,153.512 174.645,153.512 	"/>
	<path fill="#283A42" d="M58.789,59.465v66.28v27.767h-32.78V64.729L58.789,59.465z M58.789,55.171h-32.78V27.407h46.494
		c17.613,0,32.693,6.105,45.235,18.314c12.544,12.209,18.817,27.123,18.817,44.736c0,17.617-6.273,32.529-18.817,44.74
		c-12.542,12.205-27.622,18.314-45.235,18.314H66.25l-3.169-27.767h3.065c10.478,0,19.15-2.952,26.004-8.861
		c6.86-5.912,10.289-14.717,10.289-26.426c0-11.038-3.289-19.676-9.871-25.923c-6.578-6.239-15.274-9.363-26.087-9.363H58.789"/>
	<polygon fill="#08171E" points="58.789,55.171 58.789,59.465 26.009,64.729 26.009,55.171 	"/>
	<polygon fill="#08171E" points="58.789,125.745 63.079,125.745 66.25,153.512 58.789,153.512 	"/>
</g>
</svg>
