<?xml version="1.0" encoding="utf-8"?>
<!-- Generator: Adobe Illustrator 16.2.1, SVG Export Plug-In . SVG Version: 6.00 Build 0)  -->
<!DOCTYPE svg PUBLIC "-//W3C//DTD SVG 1.1//EN" "http://www.w3.org/Graphics/SVG/1.1/DTD/svg11.dtd">
<svg version="1.1" id="Layer_1" xmlns="http://www.w3.org/2000/svg" xmlns:xlink="http://www.w3.org/1999/xlink" x="0px" y="0px"
	 width="381px" height="114px" viewBox="0 0 381 114" enable-background="new 0 0 381 114" xml:space="preserve">
<g>
	<g>
		<g>
			<path fill="#293B43" d="M7.545,110.052c-0.168,0-0.266-0.089-0.292-0.266l-0.104-1.604c-0.45,0.613-0.977,1.1-1.581,1.463
				c-0.604,0.359-1.281,0.541-2.032,0.541c-1.25,0-2.222-0.434-2.922-1.299c-0.7-0.867-1.049-2.164-1.049-3.894
				c0-0.743,0.096-1.437,0.291-2.081s0.481-1.203,0.861-1.676c0.378-0.475,0.842-0.848,1.391-1.12
				c0.549-0.272,1.183-0.409,1.898-0.409c0.691,0,1.288,0.129,1.792,0.384c0.505,0.255,0.941,0.628,1.311,1.118v-6.03h0.971v14.873
				H7.545z M3.812,109.398c0.676,0,1.287-0.176,1.833-0.523c0.546-0.346,1.033-0.831,1.464-1.451v-5.365
				c-0.396-0.58-0.832-0.99-1.307-1.227c-0.474-0.238-1.012-0.358-1.611-0.358c-0.602,0-1.127,0.109-1.577,0.328
				c-0.451,0.217-0.829,0.526-1.131,0.925c-0.305,0.396-0.533,0.875-0.687,1.43c-0.154,0.556-0.231,1.168-0.231,1.837
				c0,1.513,0.281,2.625,0.84,3.336C1.967,109.041,2.769,109.398,3.812,109.398z"/>
			<path fill="#293B43" d="M13.182,96.376c0,0.122-0.026,0.235-0.077,0.341c-0.052,0.106-0.118,0.198-0.2,0.281
				c-0.082,0.08-0.177,0.146-0.287,0.195c-0.108,0.049-0.224,0.072-0.348,0.072c-0.122,0-0.237-0.023-0.348-0.072
				c-0.108-0.049-0.205-0.115-0.285-0.195c-0.082-0.083-0.146-0.175-0.193-0.281c-0.049-0.105-0.074-0.219-0.074-0.341
				c0-0.125,0.024-0.241,0.074-0.354c0.047-0.113,0.112-0.21,0.193-0.292c0.081-0.081,0.177-0.145,0.285-0.193
				c0.111-0.048,0.226-0.072,0.348-0.072c0.124,0,0.24,0.024,0.348,0.072c0.109,0.049,0.205,0.112,0.287,0.193
				c0.082,0.082,0.148,0.179,0.2,0.292C13.155,96.135,13.182,96.251,13.182,96.376z M12.752,99.881v10.171H11.78V99.881H12.752z"/>
			<path fill="#293B43" d="M19.702,99.707c0.444,0,0.854,0.056,1.233,0.165c0.377,0.108,0.716,0.261,1.017,0.458h2.606v0.337
				c0,0.173-0.094,0.264-0.286,0.278l-1.542,0.11c0.19,0.26,0.337,0.552,0.44,0.874c0.101,0.324,0.151,0.671,0.151,1.037
				c0,0.492-0.089,0.937-0.265,1.336c-0.178,0.396-0.425,0.738-0.741,1.021c-0.317,0.283-0.698,0.502-1.14,0.659
				c-0.443,0.157-0.934,0.234-1.473,0.234c-0.587,0-1.118-0.088-1.594-0.265c-0.287,0.164-0.512,0.356-0.675,0.582
				c-0.164,0.225-0.245,0.443-0.245,0.654c0,0.293,0.102,0.52,0.308,0.676c0.204,0.154,0.474,0.271,0.812,0.342
				c0.337,0.072,0.722,0.117,1.155,0.138c0.432,0.021,0.872,0.044,1.317,0.065c0.447,0.023,0.888,0.068,1.319,0.129
				c0.433,0.061,0.818,0.169,1.156,0.322c0.337,0.154,0.606,0.367,0.812,0.643c0.204,0.277,0.307,0.643,0.307,1.1
				c0,0.422-0.105,0.828-0.317,1.216c-0.212,0.389-0.515,0.733-0.914,1.033c-0.398,0.301-0.881,0.54-1.447,0.721
				c-0.564,0.182-1.2,0.271-1.901,0.271c-0.716,0-1.343-0.072-1.88-0.221c-0.539-0.146-0.991-0.344-1.354-0.592
				c-0.366-0.247-0.639-0.537-0.823-0.864c-0.185-0.326-0.276-0.674-0.276-1.042c0-0.537,0.178-1.002,0.532-1.39
				c0.354-0.388,0.842-0.688,1.461-0.901c-0.34-0.113-0.611-0.281-0.812-0.498c-0.202-0.22-0.302-0.523-0.302-0.912
				c0-0.141,0.027-0.291,0.082-0.449c0.054-0.155,0.136-0.312,0.247-0.465c0.108-0.153,0.238-0.298,0.393-0.434
				c0.154-0.137,0.332-0.26,0.536-0.369c-0.483-0.279-0.86-0.65-1.128-1.113c-0.269-0.463-0.404-1.007-0.404-1.627
				c0-0.488,0.086-0.934,0.26-1.331c0.173-0.399,0.418-0.743,0.736-1.03c0.317-0.286,0.7-0.506,1.15-0.662
				S19.157,99.707,19.702,99.707z M23.475,110.736c0-0.32-0.084-0.577-0.25-0.771c-0.167-0.193-0.39-0.345-0.67-0.455
				c-0.279-0.107-0.602-0.185-0.966-0.229c-0.364-0.047-0.746-0.078-1.145-0.1c-0.398-0.02-0.799-0.039-1.201-0.06
				s-0.777-0.062-1.124-0.122c-0.26,0.102-0.5,0.219-0.722,0.354c-0.221,0.132-0.41,0.281-0.566,0.448
				c-0.156,0.166-0.28,0.351-0.368,0.552s-0.132,0.42-0.132,0.66c0,0.301,0.076,0.577,0.23,0.832
				c0.153,0.256,0.377,0.478,0.673,0.664c0.297,0.188,0.661,0.337,1.09,0.445c0.428,0.109,0.922,0.164,1.482,0.164
				c0.517,0,0.999-0.059,1.446-0.174c0.447-0.115,0.835-0.28,1.166-0.49c0.331-0.213,0.588-0.464,0.776-0.758
				C23.381,111.404,23.475,111.086,23.475,110.736z M19.702,105.554c0.438,0,0.825-0.063,1.166-0.188
				c0.34-0.126,0.628-0.302,0.857-0.528c0.233-0.225,0.409-0.493,0.528-0.809c0.119-0.311,0.179-0.659,0.179-1.041
				s-0.062-0.73-0.186-1.049c-0.123-0.314-0.3-0.586-0.536-0.812c-0.235-0.226-0.521-0.398-0.859-0.522
				c-0.336-0.123-0.719-0.184-1.15-0.184c-0.428,0-0.813,0.061-1.155,0.184c-0.342,0.124-0.628,0.297-0.864,0.522
				c-0.235,0.226-0.414,0.497-0.537,0.812c-0.123,0.318-0.184,0.667-0.184,1.049s0.062,0.73,0.184,1.041
				c0.123,0.315,0.302,0.584,0.537,0.809c0.236,0.227,0.522,0.402,0.864,0.528C18.889,105.49,19.274,105.554,19.702,105.554z"/>
			<path fill="#293B43" d="M28.351,96.376c0,0.122-0.025,0.235-0.076,0.341c-0.053,0.106-0.118,0.198-0.2,0.281
				c-0.082,0.08-0.178,0.146-0.286,0.195c-0.109,0.049-0.225,0.072-0.348,0.072c-0.124,0-0.24-0.023-0.348-0.072
				c-0.11-0.049-0.205-0.115-0.287-0.195c-0.082-0.083-0.146-0.175-0.195-0.281c-0.048-0.105-0.072-0.219-0.072-0.341
				c0-0.125,0.024-0.241,0.072-0.354c0.048-0.113,0.113-0.21,0.195-0.292c0.082-0.081,0.177-0.145,0.287-0.193
				c0.108-0.048,0.224-0.072,0.348-0.072c0.123,0,0.238,0.024,0.348,0.072c0.108,0.049,0.205,0.112,0.286,0.193
				c0.082,0.082,0.147,0.179,0.2,0.292C28.326,96.135,28.351,96.251,28.351,96.376z M27.921,99.881v10.171h-0.972V99.881H27.921z"/>
			<path fill="#293B43" d="M34.289,110.217c-0.688,0-1.224-0.192-1.604-0.572c-0.382-0.383-0.574-0.973-0.574-1.77v-6.951H30.65
				c-0.075,0-0.136-0.021-0.183-0.062c-0.048-0.039-0.072-0.098-0.072-0.172v-0.379l1.737-0.122l0.243-3.64
				c0.007-0.061,0.032-0.115,0.077-0.163c0.043-0.05,0.103-0.073,0.177-0.073h0.455v3.887h3.199v0.725h-3.199v6.9
				c0,0.279,0.036,0.52,0.107,0.721c0.071,0.201,0.171,0.365,0.296,0.494c0.126,0.13,0.274,0.225,0.445,0.287
				c0.171,0.062,0.354,0.093,0.552,0.093c0.245,0,0.456-0.036,0.634-0.108c0.177-0.073,0.33-0.15,0.459-0.235
				s0.236-0.163,0.318-0.235c0.081-0.07,0.146-0.105,0.193-0.105c0.054,0,0.108,0.033,0.164,0.1l0.266,0.43
				c-0.26,0.287-0.587,0.518-0.986,0.691C35.132,110.128,34.718,110.217,34.289,110.217z"/>
			<path fill="#293B43" d="M45.298,110.052c-0.204,0-0.33-0.097-0.378-0.286l-0.142-1.298c-0.281,0.272-0.557,0.519-0.835,0.735
				c-0.274,0.22-0.563,0.402-0.864,0.553c-0.298,0.148-0.624,0.264-0.97,0.342c-0.348,0.08-0.729,0.119-1.146,0.119
				c-0.348,0-0.686-0.052-1.012-0.155c-0.327-0.103-0.617-0.257-0.869-0.47c-0.252-0.21-0.456-0.482-0.61-0.812
				c-0.151-0.331-0.229-0.729-0.229-1.189c0-0.432,0.123-0.83,0.368-1.197s0.628-0.688,1.15-0.961
				c0.52-0.272,1.193-0.491,2.014-0.654c0.82-0.164,1.807-0.26,2.959-0.287v-1.062c0-0.94-0.204-1.664-0.609-2.171
				c-0.407-0.508-1.007-0.763-1.805-0.763c-0.491,0-0.908,0.068-1.251,0.204c-0.345,0.138-0.636,0.286-0.875,0.45
				c-0.239,0.164-0.433,0.312-0.583,0.451c-0.15,0.135-0.278,0.203-0.379,0.203c-0.136,0-0.239-0.062-0.307-0.183l-0.174-0.298
				c0.533-0.531,1.091-0.934,1.677-1.206s1.251-0.409,1.995-0.409c0.545,0,1.021,0.087,1.431,0.262
				c0.409,0.174,0.747,0.422,1.017,0.745s0.471,0.715,0.608,1.176c0.136,0.46,0.205,0.972,0.205,1.538v6.624H45.298z M41.21,109.51
				c0.396,0,0.758-0.041,1.089-0.127c0.331-0.085,0.637-0.205,0.92-0.358c0.282-0.153,0.546-0.335,0.792-0.546
				c0.245-0.212,0.487-0.441,0.727-0.686v-2.648c-0.969,0.027-1.801,0.103-2.5,0.222c-0.699,0.116-1.275,0.28-1.728,0.485
				c-0.454,0.204-0.787,0.447-1.001,0.729c-0.215,0.285-0.322,0.606-0.322,0.969c0,0.34,0.055,0.634,0.168,0.883
				c0.112,0.249,0.261,0.453,0.445,0.613c0.183,0.16,0.398,0.277,0.644,0.354C40.688,109.473,40.945,109.51,41.21,109.51z"/>
			<path fill="#293B43" d="M50.011,95.179v14.873h-0.972V95.179H50.011z"/>
			<path fill="#293B43" d="M64.768,110.052c-0.168,0-0.266-0.089-0.292-0.266l-0.104-1.604c-0.45,0.613-0.978,1.1-1.581,1.463
				c-0.604,0.359-1.281,0.541-2.032,0.541c-1.249,0-2.222-0.434-2.922-1.299c-0.7-0.867-1.048-2.164-1.048-3.894
				c0-0.743,0.096-1.437,0.29-2.081c0.196-0.645,0.481-1.203,0.86-1.676c0.379-0.475,0.842-0.848,1.394-1.12
				c0.548-0.272,1.181-0.409,1.898-0.409c0.689,0,1.286,0.129,1.791,0.384c0.505,0.255,0.942,0.628,1.311,1.118v-6.03h0.97v14.873
				H64.768z M61.035,109.398c0.677,0,1.287-0.176,1.833-0.523c0.545-0.346,1.033-0.831,1.464-1.451v-5.365
				c-0.397-0.58-0.831-0.99-1.307-1.227c-0.474-0.238-1.01-0.358-1.612-0.358c-0.601,0-1.126,0.109-1.576,0.328
				c-0.45,0.217-0.828,0.526-1.131,0.925c-0.305,0.396-0.533,0.875-0.687,1.43c-0.154,0.556-0.23,1.168-0.23,1.837
				c0,1.513,0.279,2.625,0.84,3.336C59.189,109.041,59.992,109.398,61.035,109.398z"/>
			<path fill="#293B43" d="M70.404,96.376c0,0.122-0.025,0.235-0.077,0.341c-0.052,0.106-0.117,0.198-0.198,0.281
				c-0.083,0.08-0.178,0.146-0.287,0.195c-0.109,0.049-0.226,0.072-0.349,0.072s-0.238-0.023-0.347-0.072
				c-0.109-0.049-0.205-0.115-0.286-0.195c-0.082-0.083-0.147-0.175-0.195-0.281c-0.048-0.105-0.072-0.219-0.072-0.341
				c0-0.125,0.024-0.241,0.072-0.354c0.048-0.113,0.113-0.21,0.195-0.292c0.082-0.081,0.177-0.145,0.286-0.193
				c0.108-0.048,0.224-0.072,0.347-0.072s0.239,0.024,0.349,0.072c0.108,0.049,0.204,0.112,0.287,0.193
				c0.082,0.082,0.146,0.179,0.198,0.292C70.378,96.135,70.404,96.251,70.404,96.376z M69.974,99.881v10.171h-0.972V99.881H69.974z"
				/>
			<path fill="#293B43" d="M79.174,101.138c-0.049,0.097-0.123,0.144-0.225,0.144c-0.074,0-0.172-0.041-0.291-0.128
				c-0.119-0.085-0.277-0.181-0.47-0.286c-0.194-0.105-0.433-0.203-0.716-0.285c-0.282-0.087-0.628-0.129-1.037-0.129
				c-0.368,0-0.703,0.053-1.006,0.158c-0.306,0.106-0.563,0.247-0.778,0.426c-0.214,0.176-0.381,0.382-0.501,0.619
				c-0.118,0.233-0.178,0.48-0.178,0.738c0,0.322,0.082,0.586,0.246,0.798s0.377,0.392,0.645,0.542
				c0.265,0.15,0.568,0.278,0.905,0.388c0.337,0.11,0.682,0.22,1.037,0.327c0.354,0.111,0.7,0.231,1.037,0.363
				c0.337,0.133,0.639,0.299,0.904,0.496c0.265,0.197,0.481,0.439,0.645,0.727c0.163,0.285,0.246,0.633,0.246,1.043
				c0,0.443-0.082,0.855-0.241,1.236c-0.161,0.382-0.392,0.711-0.695,0.992c-0.303,0.278-0.676,0.501-1.119,0.664
				c-0.444,0.162-0.948,0.246-1.513,0.246c-0.716,0-1.333-0.117-1.85-0.344c-0.518-0.229-0.982-0.525-1.391-0.895l0.235-0.348
				c0.034-0.054,0.072-0.095,0.113-0.123c0.041-0.027,0.098-0.04,0.173-0.04c0.088,0,0.197,0.056,0.327,0.163
				c0.129,0.109,0.297,0.227,0.505,0.354c0.208,0.125,0.467,0.241,0.777,0.354c0.31,0.107,0.693,0.162,1.15,0.162
				c0.428,0,0.806-0.059,1.134-0.178c0.327-0.121,0.601-0.283,0.817-0.488c0.219-0.203,0.385-0.443,0.498-0.719
				c0.111-0.277,0.167-0.566,0.167-0.873c0-0.341-0.082-0.626-0.246-0.85c-0.163-0.225-0.378-0.415-0.644-0.572
				c-0.266-0.158-0.568-0.291-0.905-0.397c-0.337-0.11-0.685-0.22-1.043-0.329c-0.357-0.107-0.705-0.229-1.042-0.357
				c-0.338-0.128-0.639-0.293-0.906-0.49c-0.265-0.198-0.48-0.439-0.643-0.721c-0.164-0.283-0.247-0.637-0.247-1.059
				c0-0.361,0.078-0.709,0.236-1.043c0.155-0.334,0.379-0.625,0.669-0.879c0.29-0.252,0.643-0.453,1.058-0.602
				c0.416-0.149,0.883-0.227,1.4-0.227c0.621,0,1.171,0.089,1.651,0.268c0.48,0.176,0.922,0.448,1.325,0.817L79.174,101.138z"/>
			<path fill="#293B43" d="M86.196,99.717c0.573,0,1.102,0.1,1.59,0.297c0.487,0.197,0.91,0.484,1.267,0.863
				c0.357,0.38,0.638,0.843,0.838,1.396c0.201,0.552,0.302,1.186,0.302,1.902c0,0.148-0.022,0.25-0.066,0.305
				c-0.044,0.056-0.114,0.082-0.209,0.082h-7.341v0.193c0,0.764,0.089,1.436,0.267,2.016c0.176,0.577,0.428,1.064,0.755,1.455
				c0.327,0.393,0.723,0.688,1.187,0.885c0.463,0.198,0.981,0.299,1.554,0.299c0.51,0,0.953-0.057,1.328-0.173
				c0.375-0.112,0.69-0.235,0.945-0.376c0.255-0.139,0.458-0.266,0.609-0.378c0.149-0.112,0.257-0.169,0.327-0.169
				c0.089,0,0.157,0.034,0.205,0.1l0.265,0.33c-0.164,0.203-0.379,0.394-0.649,0.572c-0.267,0.178-0.568,0.328-0.899,0.455
				c-0.331,0.124-0.685,0.225-1.062,0.3c-0.378,0.075-0.759,0.114-1.141,0.114c-0.695,0-1.328-0.121-1.901-0.363
				s-1.064-0.597-1.475-1.058c-0.409-0.464-0.727-1.03-0.951-1.702s-0.334-1.439-0.334-2.307c0-0.73,0.104-1.401,0.311-2.018
				c0.208-0.617,0.508-1.148,0.9-1.595s0.874-0.796,1.441-1.048C84.829,99.844,85.474,99.717,86.196,99.717z M86.211,100.442
				c-0.523,0-0.992,0.083-1.409,0.247c-0.415,0.163-0.775,0.396-1.077,0.703c-0.303,0.309-0.547,0.676-0.735,1.105
				c-0.188,0.43-0.311,0.91-0.372,1.439h6.695c0-0.543-0.074-1.033-0.224-1.463c-0.15-0.436-0.361-0.801-0.633-1.103
				c-0.272-0.3-0.599-0.529-0.98-0.689C87.096,100.523,86.675,100.442,86.211,100.442z"/>
			<path fill="#293B43" d="M99.302,110.052c-0.205,0-0.332-0.097-0.379-0.286l-0.143-1.298c-0.279,0.272-0.557,0.519-0.834,0.735
				c-0.275,0.22-0.563,0.402-0.862,0.553c-0.301,0.148-0.624,0.264-0.972,0.342c-0.347,0.08-0.729,0.119-1.146,0.119
				c-0.346,0-0.683-0.052-1.01-0.155c-0.327-0.103-0.619-0.257-0.87-0.47c-0.251-0.21-0.455-0.482-0.608-0.812
				c-0.153-0.331-0.23-0.729-0.23-1.189c0-0.432,0.123-0.83,0.368-1.197s0.628-0.688,1.15-0.961
				c0.522-0.272,1.194-0.491,2.014-0.654c0.82-0.164,1.807-0.26,2.959-0.287v-1.062c0-0.94-0.202-1.664-0.607-2.171
				c-0.406-0.508-1.008-0.763-1.806-0.763c-0.491,0-0.907,0.068-1.251,0.204c-0.344,0.138-0.635,0.286-0.875,0.45
				c-0.238,0.164-0.432,0.312-0.583,0.451c-0.15,0.135-0.276,0.203-0.379,0.203c-0.135,0-0.238-0.062-0.307-0.183l-0.173-0.298
				c0.532-0.531,1.091-0.934,1.677-1.206s1.25-0.409,1.993-0.409c0.545,0,1.023,0.087,1.431,0.262
				c0.409,0.174,0.747,0.422,1.018,0.745c0.269,0.323,0.47,0.715,0.607,1.176c0.137,0.46,0.205,0.972,0.205,1.538v6.624H99.302z
				 M95.212,109.51c0.396,0,0.758-0.041,1.089-0.127c0.33-0.085,0.636-0.205,0.919-0.358s0.547-0.335,0.793-0.546
				c0.244-0.212,0.487-0.441,0.726-0.686v-2.648c-0.967,0.027-1.801,0.103-2.5,0.222c-0.698,0.116-1.274,0.28-1.728,0.485
				c-0.452,0.204-0.787,0.447-1.001,0.729c-0.215,0.285-0.322,0.606-0.322,0.969c0,0.34,0.055,0.634,0.168,0.883
				c0.113,0.249,0.261,0.453,0.445,0.613c0.183,0.16,0.398,0.277,0.645,0.354C94.692,109.473,94.947,109.51,95.212,109.51z"/>
			<path fill="#293B43" d="M108.358,101.138c-0.048,0.097-0.123,0.144-0.225,0.144c-0.076,0-0.172-0.041-0.292-0.128
				c-0.119-0.085-0.276-0.181-0.47-0.286c-0.195-0.105-0.433-0.203-0.717-0.285c-0.282-0.087-0.628-0.129-1.037-0.129
				c-0.367,0-0.703,0.053-1.006,0.158c-0.303,0.106-0.563,0.247-0.777,0.426c-0.215,0.176-0.382,0.382-0.5,0.619
				c-0.12,0.233-0.179,0.48-0.179,0.738c0,0.322,0.081,0.586,0.246,0.798c0.164,0.212,0.378,0.392,0.644,0.542
				c0.267,0.15,0.568,0.278,0.905,0.388c0.337,0.11,0.683,0.22,1.038,0.327c0.354,0.111,0.699,0.231,1.037,0.363
				c0.338,0.133,0.639,0.299,0.903,0.496c0.267,0.197,0.481,0.439,0.645,0.727c0.164,0.285,0.245,0.633,0.245,1.043
				c0,0.443-0.079,0.855-0.239,1.236c-0.162,0.382-0.392,0.711-0.696,0.992c-0.303,0.278-0.676,0.501-1.119,0.664
				c-0.442,0.162-0.948,0.246-1.512,0.246c-0.716,0-1.333-0.117-1.85-0.344c-0.519-0.229-0.981-0.525-1.391-0.895l0.234-0.348
				c0.034-0.054,0.072-0.095,0.113-0.123c0.041-0.027,0.099-0.04,0.173-0.04c0.089,0,0.197,0.056,0.327,0.163
				c0.13,0.109,0.298,0.227,0.508,0.354c0.207,0.125,0.465,0.241,0.774,0.354c0.311,0.107,0.695,0.162,1.15,0.162
				c0.431,0,0.808-0.059,1.135-0.178c0.326-0.121,0.599-0.283,0.818-0.488c0.218-0.203,0.382-0.443,0.496-0.719
				c0.112-0.277,0.168-0.566,0.168-0.873c0-0.341-0.082-0.626-0.246-0.85c-0.164-0.225-0.377-0.415-0.645-0.572
				c-0.266-0.158-0.567-0.291-0.905-0.397c-0.337-0.11-0.685-0.22-1.042-0.329c-0.358-0.107-0.705-0.229-1.043-0.357
				c-0.337-0.128-0.638-0.293-0.905-0.49c-0.266-0.198-0.48-0.439-0.644-0.721c-0.164-0.283-0.245-0.637-0.245-1.059
				c0-0.361,0.078-0.709,0.235-1.043c0.157-0.334,0.379-0.625,0.669-0.879c0.289-0.252,0.643-0.453,1.059-0.602
				c0.415-0.149,0.881-0.227,1.4-0.227c0.62,0,1.169,0.089,1.651,0.268c0.48,0.176,0.921,0.448,1.323,0.817L108.358,101.138z"/>
			<path fill="#293B43" d="M115.38,99.717c0.574,0,1.103,0.1,1.589,0.297c0.489,0.197,0.91,0.484,1.268,0.863
				c0.357,0.38,0.638,0.843,0.838,1.396c0.201,0.552,0.302,1.186,0.302,1.902c0,0.148-0.023,0.25-0.067,0.305
				c-0.043,0.056-0.113,0.082-0.209,0.082h-7.338v0.193c0,0.764,0.088,1.436,0.265,2.016c0.177,0.577,0.431,1.064,0.757,1.455
				c0.327,0.393,0.723,0.688,1.185,0.885c0.465,0.198,0.982,0.299,1.555,0.299c0.511,0,0.955-0.057,1.329-0.173
				c0.374-0.112,0.689-0.235,0.946-0.376c0.255-0.139,0.458-0.266,0.607-0.378c0.152-0.112,0.26-0.169,0.327-0.169
				c0.089,0,0.158,0.034,0.205,0.1l0.266,0.33c-0.163,0.203-0.38,0.394-0.648,0.572c-0.27,0.178-0.569,0.328-0.899,0.455
				c-0.332,0.124-0.686,0.225-1.063,0.3c-0.378,0.075-0.758,0.114-1.141,0.114c-0.694,0-1.328-0.121-1.901-0.363
				s-1.063-0.597-1.473-1.058c-0.411-0.464-0.727-1.03-0.95-1.702c-0.225-0.672-0.337-1.439-0.337-2.307
				c0-0.73,0.104-1.401,0.313-2.018c0.207-0.617,0.506-1.148,0.898-1.595s0.872-0.796,1.441-1.048
				C114.012,99.844,114.658,99.717,115.38,99.717z M115.396,100.442c-0.525,0-0.994,0.083-1.41,0.247
				c-0.414,0.163-0.773,0.396-1.076,0.703c-0.303,0.309-0.548,0.676-0.735,1.105c-0.188,0.43-0.312,0.91-0.373,1.439h6.696
				c0-0.543-0.076-1.033-0.225-1.463c-0.149-0.436-0.361-0.801-0.633-1.103c-0.272-0.3-0.599-0.529-0.979-0.689
				C116.28,100.523,115.858,100.442,115.396,100.442z"/>
			<path fill="#293B43" d="M133.152,110.052c-0.168,0-0.267-0.089-0.293-0.266l-0.102-1.604c-0.451,0.613-0.979,1.1-1.582,1.463
				c-0.603,0.359-1.281,0.541-2.031,0.541c-1.249,0-2.223-0.434-2.923-1.299c-0.699-0.867-1.048-2.164-1.048-3.894
				c0-0.743,0.096-1.437,0.291-2.081c0.194-0.645,0.481-1.203,0.86-1.676c0.379-0.475,0.842-0.848,1.392-1.12
				s1.183-0.409,1.898-0.409c0.689,0,1.286,0.129,1.792,0.384s0.942,0.628,1.311,1.118v-6.03h0.97v14.873H133.152z M129.419,109.398
				c0.675,0,1.287-0.176,1.833-0.523c0.546-0.346,1.034-0.831,1.465-1.451v-5.365c-0.397-0.58-0.831-0.99-1.306-1.227
				c-0.474-0.238-1.011-0.358-1.612-0.358c-0.6,0-1.126,0.109-1.576,0.328c-0.451,0.217-0.829,0.526-1.131,0.925
				c-0.306,0.396-0.534,0.875-0.687,1.43c-0.154,0.556-0.23,1.168-0.23,1.837c0,1.513,0.279,2.625,0.839,3.336
				C127.574,109.041,128.376,109.398,129.419,109.398z"/>
			<path fill="#293B43" d="M140.935,99.717c0.573,0,1.103,0.1,1.589,0.297c0.487,0.197,0.91,0.484,1.268,0.863
				c0.357,0.38,0.638,0.843,0.837,1.396c0.202,0.552,0.302,1.186,0.302,1.902c0,0.148-0.023,0.25-0.066,0.305
				c-0.043,0.056-0.114,0.082-0.209,0.082h-7.339v0.193c0,0.764,0.089,1.436,0.266,2.016c0.176,0.577,0.43,1.064,0.757,1.455
				c0.326,0.393,0.722,0.688,1.185,0.885c0.463,0.198,0.982,0.299,1.555,0.299c0.51,0,0.954-0.057,1.328-0.173
				c0.375-0.112,0.69-0.235,0.945-0.376c0.255-0.139,0.458-0.266,0.609-0.378s0.259-0.169,0.327-0.169
				c0.089,0,0.157,0.034,0.205,0.1l0.265,0.33c-0.164,0.203-0.379,0.394-0.647,0.572c-0.271,0.178-0.57,0.328-0.899,0.455
				c-0.332,0.124-0.686,0.225-1.065,0.3c-0.376,0.075-0.756,0.114-1.139,0.114c-0.695,0-1.328-0.121-1.901-0.363
				s-1.063-0.597-1.474-1.058c-0.41-0.464-0.728-1.03-0.951-1.702c-0.225-0.672-0.335-1.439-0.335-2.307
				c0-0.73,0.104-1.401,0.312-2.018c0.208-0.617,0.506-1.148,0.899-1.595c0.392-0.446,0.873-0.796,1.441-1.048
				C139.566,99.844,140.212,99.717,140.935,99.717z M140.95,100.442c-0.524,0-0.995,0.083-1.41,0.247
				c-0.415,0.163-0.772,0.396-1.076,0.703c-0.303,0.309-0.548,0.676-0.736,1.105c-0.188,0.43-0.31,0.91-0.373,1.439h6.696
				c0-0.543-0.074-1.033-0.224-1.463c-0.149-0.436-0.361-0.801-0.633-1.103c-0.272-0.3-0.599-0.529-0.979-0.689
				C141.833,100.523,141.413,100.442,140.95,100.442z"/>
			<path fill="#293B43" d="M150.317,110.217c-0.687,0-1.223-0.192-1.603-0.572c-0.383-0.383-0.574-0.973-0.574-1.77v-6.951h-1.462
				c-0.075,0-0.136-0.021-0.183-0.062c-0.049-0.039-0.072-0.098-0.072-0.172v-0.379l1.737-0.122l0.243-3.64
				c0.007-0.061,0.031-0.115,0.076-0.163c0.043-0.05,0.102-0.073,0.177-0.073h0.456v3.887h3.199v0.725h-3.199v6.9
				c0,0.279,0.035,0.52,0.107,0.721c0.071,0.201,0.169,0.365,0.296,0.494c0.126,0.13,0.274,0.225,0.445,0.287
				c0.17,0.062,0.354,0.093,0.552,0.093c0.245,0,0.456-0.036,0.633-0.108c0.178-0.073,0.331-0.15,0.461-0.235
				s0.236-0.163,0.317-0.235c0.081-0.07,0.146-0.105,0.193-0.105c0.055,0,0.109,0.033,0.165,0.1l0.266,0.43
				c-0.26,0.287-0.588,0.518-0.987,0.691C151.162,110.128,150.748,110.217,150.317,110.217z"/>
			<path fill="#293B43" d="M158.67,99.717c0.571,0,1.102,0.1,1.589,0.297c0.489,0.197,0.911,0.484,1.269,0.863
				c0.357,0.38,0.636,0.843,0.837,1.396c0.202,0.552,0.302,1.186,0.302,1.902c0,0.148-0.022,0.25-0.066,0.305
				c-0.043,0.056-0.113,0.082-0.209,0.082h-7.339v0.193c0,0.764,0.088,1.436,0.266,2.016c0.176,0.577,0.43,1.064,0.755,1.455
				c0.328,0.393,0.723,0.688,1.187,0.885c0.464,0.198,0.981,0.299,1.554,0.299c0.51,0,0.953-0.057,1.328-0.173
				c0.375-0.112,0.69-0.235,0.946-0.376c0.256-0.139,0.458-0.266,0.608-0.378c0.149-0.112,0.258-0.169,0.327-0.169
				c0.089,0,0.157,0.034,0.205,0.1l0.265,0.33c-0.164,0.203-0.378,0.394-0.648,0.572c-0.27,0.178-0.569,0.328-0.899,0.455
				c-0.332,0.124-0.686,0.225-1.063,0.3c-0.378,0.075-0.758,0.114-1.141,0.114c-0.694,0-1.328-0.121-1.901-0.363
				c-0.572-0.242-1.063-0.597-1.474-1.058c-0.41-0.464-0.728-1.03-0.951-1.702c-0.224-0.672-0.335-1.439-0.335-2.307
				c0-0.73,0.104-1.401,0.311-2.018c0.208-0.617,0.508-1.148,0.9-1.595s0.874-0.796,1.441-1.048
				C157.302,99.844,157.947,99.717,158.67,99.717z M158.685,100.442c-0.523,0-0.994,0.083-1.408,0.247
				c-0.415,0.163-0.775,0.396-1.078,0.703c-0.302,0.309-0.547,0.676-0.735,1.105s-0.311,0.91-0.372,1.439h6.695
				c0-0.543-0.075-1.033-0.224-1.463c-0.15-0.436-0.361-0.801-0.633-1.103c-0.272-0.3-0.599-0.529-0.98-0.689
				C159.568,100.523,159.147,100.442,158.685,100.442z"/>
			<path fill="#293B43" d="M171.979,101.241c-0.034,0.034-0.066,0.062-0.098,0.087c-0.03,0.022-0.073,0.034-0.127,0.034
				c-0.068,0-0.162-0.046-0.281-0.137c-0.119-0.093-0.278-0.192-0.476-0.302s-0.445-0.21-0.741-0.3
				c-0.296-0.095-0.656-0.142-1.078-0.142c-0.586,0-1.105,0.105-1.559,0.313s-0.835,0.505-1.146,0.896
				c-0.31,0.389-0.546,0.857-0.709,1.41c-0.164,0.551-0.246,1.172-0.246,1.86c0,0.715,0.083,1.348,0.25,1.901
				c0.167,0.551,0.404,1.018,0.709,1.394c0.308,0.38,0.679,0.667,1.114,0.865c0.437,0.198,0.921,0.297,1.453,0.297
				c0.49,0,0.9-0.058,1.232-0.175c0.33-0.116,0.602-0.241,0.817-0.379c0.215-0.135,0.385-0.262,0.511-0.377s0.226-0.174,0.301-0.174
				c0.089,0,0.158,0.034,0.205,0.1l0.267,0.33c-0.158,0.203-0.355,0.394-0.594,0.572c-0.237,0.178-0.508,0.33-0.806,0.46
				c-0.301,0.128-0.625,0.229-0.977,0.3c-0.351,0.073-0.717,0.109-1.098,0.109c-0.648,0-1.238-0.119-1.774-0.353
				c-0.536-0.235-0.995-0.576-1.38-1.024c-0.385-0.444-0.685-0.992-0.899-1.639c-0.214-0.648-0.322-1.384-0.322-2.208
				c0-0.776,0.103-1.485,0.307-2.127c0.205-0.642,0.502-1.19,0.894-1.655s0.872-0.824,1.441-1.079
				c0.569-0.255,1.222-0.384,1.958-0.384c0.659,0,1.249,0.107,1.762,0.317c0.514,0.211,0.962,0.497,1.344,0.858L171.979,101.241z"/>
			<path fill="#293B43" d="M177.354,110.217c-0.687,0-1.222-0.192-1.604-0.572c-0.381-0.383-0.573-0.973-0.573-1.77v-6.951h-1.461
				c-0.075,0-0.137-0.021-0.184-0.062c-0.048-0.039-0.072-0.098-0.072-0.172v-0.379l1.738-0.122l0.243-3.64
				c0.007-0.061,0.031-0.115,0.076-0.163c0.043-0.05,0.102-0.073,0.177-0.073h0.455v3.887h3.2v0.725h-3.2v6.9
				c0,0.279,0.036,0.52,0.108,0.721c0.071,0.201,0.17,0.365,0.296,0.494c0.126,0.13,0.274,0.225,0.445,0.287
				c0.169,0.062,0.354,0.093,0.551,0.093c0.246,0,0.457-0.036,0.634-0.108c0.177-0.073,0.331-0.15,0.46-0.235
				s0.236-0.163,0.318-0.235c0.081-0.07,0.144-0.105,0.192-0.105c0.054,0,0.109,0.033,0.164,0.1l0.266,0.43
				c-0.258,0.287-0.587,0.518-0.985,0.691C178.199,110.128,177.785,110.217,177.354,110.217z"/>
			<path fill="#293B43" d="M183.561,96.376c0,0.122-0.026,0.235-0.077,0.341c-0.052,0.106-0.117,0.198-0.198,0.281
				c-0.082,0.08-0.178,0.146-0.287,0.195c-0.11,0.049-0.226,0.072-0.349,0.072s-0.238-0.023-0.347-0.072
				c-0.111-0.049-0.205-0.115-0.286-0.195c-0.082-0.083-0.147-0.175-0.195-0.281c-0.048-0.105-0.072-0.219-0.072-0.341
				c0-0.125,0.024-0.241,0.072-0.354c0.048-0.113,0.113-0.21,0.195-0.292c0.082-0.081,0.175-0.145,0.286-0.193
				c0.108-0.048,0.224-0.072,0.347-0.072s0.238,0.024,0.349,0.072c0.108,0.049,0.205,0.112,0.287,0.193
				c0.082,0.082,0.146,0.179,0.198,0.292C183.534,96.135,183.561,96.251,183.561,96.376z M183.131,99.881v10.171h-0.972V99.881
				H183.131z"/>
			<path fill="#293B43" d="M190.604,99.717c0.729,0,1.381,0.125,1.955,0.374c0.578,0.248,1.061,0.602,1.456,1.058
				c0.396,0.457,0.698,1.006,0.906,1.652c0.207,0.643,0.312,1.365,0.312,2.161s-0.104,1.516-0.312,2.157
				c-0.208,0.64-0.51,1.188-0.906,1.646c-0.396,0.456-0.878,0.808-1.456,1.053c-0.574,0.244-1.227,0.368-1.955,0.368
				c-0.73,0-1.384-0.124-1.959-0.368c-0.576-0.245-1.063-0.597-1.463-1.053c-0.398-0.457-0.701-1.006-0.909-1.646
				c-0.207-0.642-0.311-1.361-0.311-2.157s0.104-1.519,0.311-2.161c0.208-0.646,0.511-1.195,0.909-1.652
				c0.399-0.456,0.887-0.81,1.463-1.058C189.221,99.842,189.874,99.717,190.604,99.717z M190.604,109.419
				c0.606,0,1.134-0.104,1.588-0.312c0.453-0.208,0.831-0.507,1.134-0.896c0.303-0.387,0.531-0.857,0.682-1.403
				c0.148-0.55,0.225-1.165,0.225-1.846c0-0.675-0.076-1.288-0.225-1.841c-0.15-0.552-0.379-1.023-0.682-1.416
				s-0.681-0.693-1.134-0.903c-0.454-0.212-0.981-0.319-1.588-0.319c-0.609,0-1.138,0.107-1.591,0.319
				c-0.453,0.21-0.833,0.511-1.136,0.903c-0.303,0.393-0.531,0.864-0.685,1.416c-0.152,0.553-0.229,1.166-0.229,1.841
				c0,0.681,0.077,1.296,0.229,1.846c0.153,0.546,0.382,1.017,0.685,1.403c0.303,0.389,0.683,0.688,1.136,0.896
				C189.466,109.314,189.996,109.419,190.604,109.419z"/>
			<path fill="#293B43" d="M197.789,110.052V99.881h0.531c0.177,0,0.279,0.086,0.307,0.256l0.091,1.533
				c0.464-0.586,1.003-1.059,1.62-1.416s1.306-0.537,2.061-0.537c0.559,0,1.052,0.089,1.477,0.268
				c0.426,0.176,0.778,0.432,1.06,0.766c0.279,0.334,0.488,0.735,0.632,1.205c0.145,0.473,0.215,1.002,0.215,1.598v6.499h-0.971
				v-6.499c0-0.956-0.218-1.704-0.653-2.246c-0.437-0.541-1.105-0.812-2.004-0.812c-0.669,0-1.287,0.17-1.86,0.516
				s-1.084,0.816-1.535,1.418v7.624H197.789z"/>
			<path fill="#293B43" d="M213.172,110.052v-9.106l-1.432-0.093c-0.196-0.013-0.296-0.099-0.296-0.255v-0.398h1.728V98.91
				c0-0.579,0.074-1.09,0.225-1.528c0.149-0.44,0.362-0.806,0.635-1.1c0.271-0.292,0.602-0.511,0.984-0.659
				c0.387-0.146,0.811-0.221,1.274-0.221c0.211,0,0.424,0.019,0.638,0.056c0.217,0.038,0.404,0.091,0.567,0.159l-0.028,0.463
				c-0.008,0.096-0.072,0.141-0.196,0.141c-0.081,0-0.191-0.01-0.332-0.031c-0.139-0.02-0.311-0.029-0.515-0.029
				c-0.335,0-0.644,0.049-0.926,0.146c-0.283,0.102-0.526,0.26-0.732,0.479c-0.203,0.219-0.363,0.504-0.475,0.855
				c-0.112,0.352-0.169,0.784-0.169,1.297v1.262h3.303v0.725h-3.282v9.128H213.172z"/>
			<path fill="#293B43" d="M223.252,99.717c0.729,0,1.381,0.125,1.957,0.374c0.576,0.248,1.061,0.602,1.457,1.058
				c0.395,0.457,0.695,1.006,0.904,1.652c0.207,0.643,0.312,1.365,0.312,2.161s-0.105,1.516-0.312,2.157
				c-0.209,0.64-0.51,1.188-0.904,1.646c-0.396,0.456-0.881,0.808-1.457,1.053c-0.576,0.244-1.229,0.368-1.957,0.368
				c-0.73,0-1.382-0.124-1.959-0.368c-0.574-0.245-1.062-0.597-1.461-1.053c-0.398-0.457-0.701-1.006-0.908-1.646
				c-0.209-0.642-0.313-1.361-0.313-2.157s0.104-1.519,0.313-2.161c0.207-0.646,0.51-1.195,0.908-1.652
				c0.398-0.456,0.887-0.81,1.461-1.058C221.87,99.842,222.521,99.717,223.252,99.717z M223.252,109.419
				c0.606,0,1.135-0.104,1.589-0.312s0.832-0.507,1.135-0.896c0.302-0.387,0.529-0.857,0.681-1.403
				c0.149-0.55,0.224-1.165,0.224-1.846c0-0.675-0.074-1.288-0.224-1.841c-0.151-0.552-0.379-1.023-0.681-1.416
				c-0.303-0.393-0.681-0.693-1.135-0.903c-0.454-0.212-0.982-0.319-1.589-0.319s-1.138,0.107-1.59,0.319
				c-0.453,0.21-0.832,0.511-1.134,0.903c-0.306,0.393-0.533,0.864-0.686,1.416c-0.153,0.553-0.231,1.166-0.231,1.841
				c0,0.681,0.078,1.296,0.231,1.846c0.152,0.546,0.38,1.017,0.686,1.403c0.302,0.389,0.681,0.688,1.134,0.896
				C222.114,109.314,222.646,109.419,223.252,109.419z"/>
			<path fill="#293B43" d="M230.438,110.052V99.881h0.51c0.117,0,0.2,0.023,0.252,0.072c0.052,0.047,0.08,0.129,0.088,0.246
				l0.079,2.145c0.329-0.824,0.765-1.47,1.311-1.937c0.544-0.467,1.216-0.7,2.013-0.7c0.307,0,0.589,0.033,0.849,0.099
				c0.257,0.063,0.505,0.157,0.736,0.279l-0.135,0.677c-0.02,0.107-0.087,0.162-0.205,0.162c-0.038,0-0.099-0.014-0.173-0.041
				c-0.072-0.027-0.168-0.057-0.279-0.092c-0.112-0.033-0.251-0.064-0.417-0.093c-0.162-0.028-0.35-0.04-0.561-0.04
				c-0.77,0-1.401,0.238-1.896,0.714c-0.495,0.479-0.896,1.166-1.202,2.067v6.612H230.438z"/>
			<path fill="#293B43" d="M242.499,110.052V99.881h0.531c0.178,0,0.279,0.086,0.308,0.256l0.092,1.473
				c0.197-0.281,0.411-0.537,0.635-0.767c0.222-0.231,0.463-0.432,0.72-0.601c0.255-0.166,0.529-0.295,0.818-0.386
				c0.288-0.092,0.592-0.14,0.914-0.14c0.743,0,1.335,0.217,1.778,0.649c0.442,0.433,0.743,1.034,0.899,1.804
				c0.123-0.422,0.294-0.787,0.518-1.094c0.222-0.306,0.474-0.56,0.758-0.762c0.289-0.199,0.597-0.35,0.934-0.449
				c0.337-0.098,0.684-0.148,1.037-0.148c0.503,0,0.958,0.084,1.357,0.252c0.401,0.166,0.743,0.413,1.024,0.74
				c0.284,0.328,0.501,0.729,0.649,1.205c0.149,0.479,0.224,1.021,0.224,1.639v6.499h-0.969v-6.499c0-0.997-0.215-1.755-0.646-2.277
				c-0.428-0.521-1.042-0.781-1.841-0.781c-0.354,0-0.692,0.064-1.018,0.195c-0.322,0.129-0.611,0.32-0.858,0.576
				c-0.246,0.256-0.445,0.574-0.592,0.956c-0.147,0.382-0.222,0.823-0.222,1.331v6.499h-0.97v-6.499c0-0.99-0.197-1.746-0.592-2.271
				c-0.395-0.523-0.972-0.787-1.728-0.787c-0.551,0-1.063,0.164-1.535,0.496c-0.467,0.33-0.886,0.789-1.256,1.375v7.687H242.499z"/>
			<path fill="#293B43" d="M265.253,110.052c-0.205,0-0.33-0.097-0.378-0.286l-0.143-1.298c-0.281,0.272-0.558,0.519-0.832,0.735
				c-0.276,0.22-0.565,0.402-0.863,0.553c-0.301,0.148-0.626,0.264-0.973,0.342c-0.349,0.08-0.729,0.119-1.146,0.119
				c-0.346,0-0.686-0.052-1.013-0.155c-0.327-0.103-0.616-0.257-0.868-0.47c-0.253-0.21-0.455-0.482-0.606-0.812
				c-0.154-0.331-0.231-0.729-0.231-1.189c0-0.432,0.123-0.83,0.368-1.197c0.246-0.367,0.628-0.688,1.15-0.961
				c0.52-0.272,1.191-0.491,2.012-0.654c0.822-0.164,1.809-0.26,2.962-0.287v-1.062c0-0.94-0.202-1.664-0.609-2.171
				c-0.404-0.508-1.005-0.763-1.804-0.763c-0.491,0-0.907,0.068-1.252,0.204c-0.346,0.138-0.635,0.286-0.873,0.45
				c-0.24,0.164-0.434,0.312-0.585,0.451c-0.149,0.135-0.274,0.203-0.378,0.203c-0.137,0-0.238-0.062-0.305-0.183l-0.174-0.298
				c0.529-0.531,1.088-0.934,1.675-1.206c0.585-0.272,1.251-0.409,1.994-0.409c0.544,0,1.021,0.087,1.43,0.262
				c0.409,0.174,0.751,0.422,1.018,0.745c0.27,0.323,0.472,0.715,0.608,1.176c0.138,0.46,0.205,0.972,0.205,1.538v6.624H265.253z
				 M261.165,109.51c0.395,0,0.758-0.041,1.09-0.127c0.329-0.085,0.635-0.205,0.917-0.358c0.283-0.153,0.548-0.335,0.794-0.546
				c0.245-0.212,0.485-0.441,0.727-0.686v-2.648c-0.968,0.027-1.803,0.103-2.5,0.222c-0.7,0.116-1.275,0.28-1.728,0.485
				c-0.455,0.204-0.787,0.447-1.004,0.729c-0.214,0.285-0.319,0.606-0.319,0.969c0,0.34,0.055,0.634,0.168,0.883
				s0.26,0.453,0.445,0.613c0.183,0.16,0.399,0.277,0.645,0.354C260.643,109.473,260.897,109.51,261.165,109.51z"/>
			<path fill="#293B43" d="M274.309,101.138c-0.045,0.097-0.12,0.144-0.224,0.144c-0.074,0-0.173-0.041-0.291-0.128
				c-0.12-0.085-0.276-0.181-0.469-0.286c-0.195-0.105-0.436-0.203-0.717-0.285c-0.282-0.087-0.628-0.129-1.037-0.129
				c-0.368,0-0.703,0.053-1.006,0.158c-0.306,0.106-0.563,0.247-0.777,0.426c-0.217,0.176-0.383,0.382-0.503,0.619
				c-0.118,0.233-0.178,0.48-0.178,0.738c0,0.322,0.082,0.586,0.245,0.798c0.161,0.212,0.378,0.392,0.645,0.542
				c0.263,0.15,0.568,0.278,0.902,0.388c0.34,0.11,0.687,0.22,1.037,0.327c0.356,0.111,0.703,0.231,1.04,0.363
				c0.336,0.133,0.637,0.299,0.904,0.496c0.267,0.197,0.481,0.439,0.645,0.727c0.161,0.285,0.243,0.633,0.243,1.043
				c0,0.443-0.079,0.855-0.238,1.236c-0.161,0.382-0.392,0.711-0.695,0.992c-0.303,0.278-0.676,0.501-1.119,0.664
				c-0.442,0.162-0.947,0.246-1.513,0.246c-0.717,0-1.333-0.117-1.851-0.344c-0.518-0.229-0.984-0.525-1.391-0.895l0.235-0.348
				c0.034-0.054,0.072-0.095,0.113-0.123c0.041-0.027,0.097-0.04,0.174-0.04c0.086,0,0.197,0.056,0.327,0.163
				c0.13,0.109,0.296,0.227,0.505,0.354c0.207,0.125,0.467,0.241,0.777,0.354c0.311,0.107,0.693,0.162,1.15,0.162
				c0.431,0,0.808-0.059,1.135-0.178c0.328-0.121,0.598-0.283,0.816-0.488c0.219-0.203,0.385-0.443,0.495-0.719
				c0.113-0.277,0.169-0.566,0.169-0.873c0-0.341-0.08-0.626-0.246-0.85c-0.161-0.225-0.377-0.415-0.642-0.572
				c-0.265-0.158-0.568-0.291-0.907-0.397c-0.337-0.11-0.684-0.22-1.042-0.329c-0.356-0.107-0.705-0.229-1.042-0.357
				c-0.337-0.128-0.638-0.293-0.904-0.49c-0.265-0.198-0.481-0.439-0.646-0.721c-0.161-0.283-0.245-0.637-0.245-1.059
				c0-0.361,0.079-0.709,0.236-1.043c0.156-0.334,0.38-0.625,0.671-0.879c0.289-0.252,0.643-0.453,1.056-0.602
				c0.417-0.149,0.884-0.227,1.4-0.227c0.619,0,1.172,0.089,1.651,0.268c0.48,0.176,0.924,0.448,1.325,0.817L274.309,101.138z"/>
			<path fill="#293B43" d="M283.101,101.138c-0.048,0.097-0.122,0.144-0.226,0.144c-0.072,0-0.171-0.041-0.289-0.128
				c-0.123-0.085-0.276-0.181-0.472-0.286c-0.192-0.105-0.433-0.203-0.717-0.285c-0.282-0.087-0.628-0.129-1.037-0.129
				c-0.366,0-0.702,0.053-1.006,0.158c-0.303,0.106-0.563,0.247-0.777,0.426c-0.214,0.176-0.38,0.382-0.5,0.619
				c-0.118,0.233-0.179,0.48-0.179,0.738c0,0.322,0.082,0.586,0.243,0.798c0.166,0.212,0.381,0.392,0.646,0.542
				s0.567,0.278,0.904,0.388c0.339,0.11,0.684,0.22,1.037,0.327c0.355,0.111,0.7,0.231,1.037,0.363
				c0.339,0.133,0.64,0.299,0.907,0.496c0.265,0.197,0.48,0.439,0.642,0.727c0.166,0.285,0.246,0.633,0.246,1.043
				c0,0.443-0.08,0.855-0.241,1.236c-0.158,0.382-0.39,0.711-0.692,0.992c-0.304,0.278-0.676,0.501-1.121,0.664
				c-0.443,0.162-0.946,0.246-1.512,0.246c-0.717,0-1.332-0.117-1.853-0.344c-0.515-0.229-0.979-0.525-1.388-0.895l0.233-0.348
				c0.033-0.054,0.072-0.095,0.112-0.123c0.041-0.027,0.1-0.04,0.174-0.04c0.089,0,0.199,0.056,0.329,0.163
				c0.128,0.109,0.296,0.227,0.503,0.354c0.21,0.125,0.47,0.241,0.777,0.354c0.312,0.107,0.695,0.162,1.152,0.162
				c0.429,0,0.807-0.059,1.134-0.178c0.327-0.121,0.599-0.283,0.817-0.488c0.217-0.203,0.386-0.443,0.496-0.719
				c0.113-0.277,0.168-0.566,0.168-0.873c0-0.341-0.081-0.626-0.245-0.85c-0.163-0.225-0.378-0.415-0.643-0.572
				c-0.267-0.158-0.567-0.291-0.904-0.397c-0.339-0.11-0.686-0.22-1.044-0.329c-0.356-0.107-0.708-0.229-1.042-0.357
				c-0.34-0.128-0.64-0.293-0.905-0.49c-0.265-0.198-0.48-0.439-0.645-0.721c-0.163-0.283-0.245-0.637-0.245-1.059
				c0-0.361,0.079-0.709,0.235-1.043c0.154-0.334,0.381-0.625,0.669-0.879c0.291-0.252,0.643-0.453,1.059-0.602
				c0.417-0.149,0.884-0.227,1.4-0.227c0.621,0,1.17,0.089,1.65,0.268c0.479,0.176,0.922,0.448,1.323,0.817L283.101,101.138z"/>
			<path fill="#293B43" d="M293.589,99.707c0.442,0,0.854,0.056,1.231,0.165c0.378,0.108,0.72,0.261,1.018,0.458h2.606v0.337
				c0,0.173-0.094,0.264-0.286,0.278l-1.543,0.11c0.19,0.26,0.337,0.552,0.438,0.874c0.104,0.324,0.153,0.671,0.153,1.037
				c0,0.492-0.089,0.937-0.267,1.336c-0.176,0.396-0.421,0.738-0.738,1.021c-0.318,0.283-0.698,0.502-1.141,0.659
				c-0.443,0.157-0.934,0.234-1.473,0.234c-0.585,0-1.119-0.088-1.593-0.265c-0.289,0.164-0.513,0.356-0.674,0.582
				c-0.166,0.225-0.248,0.443-0.248,0.654c0,0.293,0.104,0.52,0.309,0.676c0.204,0.154,0.474,0.271,0.812,0.342
				c0.335,0.072,0.72,0.117,1.152,0.138c0.434,0.021,0.874,0.044,1.321,0.065c0.445,0.023,0.886,0.068,1.318,0.129
				c0.434,0.061,0.818,0.169,1.153,0.322c0.339,0.154,0.608,0.367,0.812,0.643c0.205,0.277,0.309,0.643,0.309,1.1
				c0,0.422-0.106,0.828-0.318,1.216c-0.211,0.389-0.515,0.733-0.914,1.033c-0.399,0.301-0.883,0.54-1.446,0.721
				c-0.565,0.182-1.2,0.271-1.903,0.271c-0.714,0-1.34-0.072-1.879-0.221c-0.539-0.146-0.991-0.344-1.354-0.592
				c-0.365-0.247-0.64-0.537-0.823-0.864c-0.185-0.326-0.276-0.674-0.276-1.042c0-0.537,0.176-1.002,0.532-1.39
				c0.354-0.388,0.842-0.688,1.463-0.901c-0.345-0.113-0.613-0.281-0.813-0.498c-0.202-0.22-0.304-0.523-0.304-0.912
				c0-0.141,0.027-0.291,0.082-0.449c0.056-0.155,0.138-0.312,0.248-0.465c0.108-0.153,0.238-0.298,0.393-0.434
				c0.151-0.137,0.332-0.26,0.536-0.369c-0.486-0.279-0.861-0.65-1.128-1.113c-0.27-0.463-0.407-1.007-0.407-1.627
				c0-0.488,0.089-0.934,0.263-1.331c0.173-0.399,0.418-0.743,0.736-1.03c0.317-0.286,0.7-0.506,1.149-0.662
				C292.547,99.787,293.045,99.707,293.589,99.707z M297.361,110.736c0-0.32-0.084-0.577-0.25-0.771
				c-0.169-0.193-0.39-0.345-0.669-0.455c-0.281-0.107-0.604-0.185-0.968-0.229c-0.365-0.047-0.745-0.078-1.145-0.1
				c-0.399-0.02-0.799-0.039-1.201-0.06c-0.401-0.021-0.777-0.062-1.123-0.122c-0.26,0.102-0.501,0.219-0.72,0.354
				c-0.224,0.132-0.411,0.281-0.57,0.448c-0.153,0.166-0.279,0.351-0.365,0.552c-0.092,0.201-0.135,0.42-0.135,0.66
				c0,0.301,0.077,0.577,0.23,0.832c0.151,0.256,0.378,0.478,0.674,0.664c0.296,0.188,0.659,0.337,1.09,0.445
				c0.429,0.109,0.924,0.164,1.482,0.164c0.517,0,0.998-0.059,1.446-0.174c0.447-0.115,0.834-0.28,1.164-0.49
				c0.332-0.213,0.59-0.464,0.777-0.758C297.268,111.404,297.361,111.086,297.361,110.736z M293.589,105.554
				c0.436,0,0.825-0.063,1.164-0.188c0.342-0.126,0.628-0.302,0.859-0.528c0.231-0.225,0.406-0.493,0.526-0.809
				c0.118-0.311,0.179-0.659,0.179-1.041s-0.061-0.73-0.183-1.049c-0.123-0.314-0.304-0.586-0.537-0.812s-0.521-0.398-0.858-0.522
				c-0.337-0.123-0.72-0.184-1.15-0.184c-0.429,0-0.813,0.061-1.152,0.184c-0.345,0.124-0.631,0.297-0.866,0.522
				c-0.233,0.226-0.414,0.497-0.537,0.812c-0.122,0.318-0.183,0.667-0.183,1.049s0.061,0.73,0.183,1.041
				c0.123,0.315,0.304,0.584,0.537,0.809c0.235,0.227,0.521,0.402,0.866,0.528C292.775,105.49,293.16,105.554,293.589,105.554z"/>
			<path fill="#293B43" d="M307.041,110.052c-0.204,0-0.332-0.097-0.378-0.286l-0.145-1.298c-0.278,0.272-0.556,0.519-0.832,0.735
				c-0.274,0.22-0.563,0.402-0.864,0.553c-0.301,0.148-0.623,0.264-0.972,0.342c-0.347,0.08-0.727,0.119-1.146,0.119
				c-0.346,0-0.684-0.052-1.01-0.155c-0.328-0.103-0.619-0.257-0.869-0.47c-0.253-0.21-0.455-0.482-0.608-0.812
				c-0.154-0.331-0.231-0.729-0.231-1.189c0-0.432,0.125-0.83,0.368-1.197c0.245-0.367,0.631-0.688,1.15-0.961
				c0.522-0.272,1.193-0.491,2.017-0.654c0.82-0.164,1.807-0.26,2.957-0.287v-1.062c0-0.94-0.203-1.664-0.609-2.171
				c-0.404-0.508-1.006-0.763-1.805-0.763c-0.49,0-0.907,0.068-1.251,0.204c-0.344,0.138-0.635,0.286-0.873,0.45
				s-0.434,0.312-0.585,0.451c-0.146,0.135-0.274,0.203-0.375,0.203c-0.138,0-0.238-0.062-0.309-0.183l-0.173-0.298
				c0.531-0.531,1.09-0.934,1.675-1.206c0.587-0.272,1.253-0.409,1.994-0.409c0.544,0,1.022,0.087,1.432,0.262
				c0.409,0.174,0.748,0.422,1.016,0.745c0.271,0.323,0.474,0.715,0.611,1.176c0.135,0.46,0.202,0.972,0.202,1.538v6.624H307.041z
				 M302.951,109.51c0.396,0,0.76-0.041,1.09-0.127c0.332-0.085,0.635-0.205,0.919-0.358s0.546-0.335,0.794-0.546
				c0.245-0.212,0.486-0.441,0.725-0.686v-2.648c-0.968,0.027-1.803,0.103-2.5,0.222c-0.698,0.116-1.273,0.28-1.728,0.485
				c-0.453,0.204-0.787,0.447-1.001,0.729c-0.215,0.285-0.32,0.606-0.32,0.969c0,0.34,0.056,0.634,0.166,0.883
				c0.113,0.249,0.26,0.453,0.445,0.613s0.399,0.277,0.645,0.354C302.431,109.473,302.686,109.51,302.951,109.51z"/>
			<path fill="#293B43" d="M313.266,110.217c-0.688,0-1.223-0.192-1.605-0.572c-0.38-0.383-0.569-0.973-0.569-1.77v-6.951h-1.463
				c-0.077,0-0.138-0.021-0.186-0.062c-0.046-0.039-0.07-0.098-0.07-0.172v-0.379l1.737-0.122l0.241-3.64
				c0.007-0.061,0.033-0.115,0.077-0.163c0.043-0.05,0.104-0.073,0.178-0.073h0.455v3.887h3.199v0.725h-3.199v6.9
				c0,0.279,0.035,0.52,0.105,0.721c0.072,0.201,0.171,0.365,0.296,0.494c0.128,0.13,0.276,0.225,0.447,0.287
				c0.169,0.062,0.352,0.093,0.551,0.093c0.246,0,0.458-0.036,0.633-0.108c0.179-0.073,0.33-0.15,0.462-0.235
				c0.128-0.085,0.234-0.163,0.315-0.235c0.082-0.07,0.147-0.105,0.192-0.105c0.056,0,0.111,0.033,0.166,0.1l0.265,0.43
				c-0.257,0.287-0.587,0.518-0.986,0.691C314.11,110.128,313.696,110.217,313.266,110.217z"/>
			<path fill="#293B43" d="M317.784,110.052V95.179h0.97v6.441c0.472-0.58,1.011-1.042,1.611-1.388
				c0.604-0.344,1.28-0.516,2.029-0.516c0.558,0,1.051,0.089,1.477,0.268c0.426,0.176,0.779,0.432,1.059,0.766
				s0.488,0.735,0.633,1.205c0.145,0.473,0.217,1.002,0.217,1.598v6.499h-0.972v-6.499c0-0.956-0.22-1.704-0.655-2.246
				c-0.435-0.541-1.104-0.812-2.004-0.812c-0.666,0-1.287,0.17-1.859,0.516c-0.573,0.346-1.083,0.816-1.535,1.418v7.624H317.784z"/>
			<path fill="#293B43" d="M332.678,99.717c0.572,0,1.102,0.1,1.59,0.297c0.486,0.197,0.91,0.484,1.269,0.863
				c0.355,0.38,0.638,0.843,0.837,1.396c0.2,0.552,0.301,1.186,0.301,1.902c0,0.148-0.021,0.25-0.064,0.305
				c-0.046,0.056-0.116,0.082-0.21,0.082h-7.341v0.193c0,0.764,0.087,1.436,0.265,2.016c0.181,0.577,0.431,1.064,0.758,1.455
				c0.327,0.393,0.722,0.688,1.187,0.885c0.462,0.198,0.979,0.299,1.555,0.299c0.51,0,0.952-0.057,1.325-0.173
				c0.378-0.112,0.69-0.235,0.946-0.376c0.257-0.139,0.459-0.266,0.61-0.378c0.147-0.112,0.258-0.169,0.325-0.169
				c0.092,0,0.158,0.034,0.204,0.1l0.268,0.33c-0.164,0.203-0.38,0.394-0.649,0.572c-0.27,0.178-0.568,0.328-0.9,0.455
				c-0.33,0.124-0.684,0.225-1.061,0.3c-0.381,0.075-0.761,0.114-1.141,0.114c-0.695,0-1.331-0.121-1.903-0.363
				c-0.57-0.242-1.063-0.597-1.473-1.058c-0.411-0.464-0.727-1.03-0.95-1.702s-0.337-1.439-0.337-2.307
				c0-0.73,0.104-1.401,0.312-2.018c0.21-0.617,0.508-1.148,0.9-1.595c0.392-0.446,0.873-0.796,1.44-1.048
				C331.311,99.844,331.956,99.717,332.678,99.717z M332.692,100.442c-0.524,0-0.994,0.083-1.408,0.247
				c-0.416,0.163-0.774,0.396-1.077,0.703c-0.304,0.309-0.547,0.676-0.734,1.105s-0.312,0.91-0.373,1.439h6.693
				c0-0.543-0.072-1.033-0.221-1.463c-0.152-0.436-0.361-0.801-0.633-1.103c-0.272-0.3-0.602-0.529-0.982-0.689
				C333.577,100.523,333.156,100.442,332.692,100.442z"/>
			<path fill="#293B43" d="M339.292,110.052V99.881h0.51c0.115,0,0.2,0.023,0.25,0.072c0.054,0.047,0.082,0.129,0.089,0.246
				l0.08,2.145c0.329-0.824,0.763-1.47,1.309-1.937s1.218-0.7,2.017-0.7c0.306,0,0.587,0.033,0.847,0.099
				c0.258,0.063,0.505,0.157,0.736,0.279l-0.133,0.677c-0.021,0.107-0.089,0.162-0.204,0.162c-0.041,0-0.101-0.014-0.176-0.041
				c-0.074-0.027-0.168-0.057-0.281-0.092c-0.11-0.033-0.25-0.064-0.411-0.093c-0.166-0.028-0.354-0.04-0.565-0.04
				c-0.771,0-1.4,0.238-1.896,0.714c-0.493,0.479-0.893,1.166-1.2,2.067v6.612H339.292z"/>
			<path fill="#293B43" d="M349.094,96.376c0,0.122-0.026,0.235-0.076,0.341c-0.051,0.106-0.118,0.198-0.203,0.281
				c-0.079,0.08-0.175,0.146-0.283,0.195c-0.111,0.049-0.224,0.072-0.347,0.072c-0.125,0-0.24-0.023-0.349-0.072
				c-0.111-0.049-0.205-0.115-0.287-0.195c-0.081-0.083-0.146-0.175-0.194-0.281c-0.046-0.105-0.069-0.219-0.069-0.341
				c0-0.125,0.023-0.241,0.069-0.354c0.048-0.113,0.113-0.21,0.194-0.292c0.082-0.081,0.176-0.145,0.287-0.193
				c0.108-0.048,0.224-0.072,0.349-0.072c0.123,0,0.235,0.024,0.347,0.072c0.108,0.049,0.204,0.112,0.283,0.193
				c0.085,0.082,0.152,0.179,0.203,0.292C349.067,96.135,349.094,96.251,349.094,96.376z M348.663,99.881v10.171h-0.97V99.881
				H348.663z"/>
			<path fill="#293B43" d="M352.263,110.052V99.881h0.532c0.176,0,0.278,0.086,0.305,0.256l0.092,1.533
				c0.465-0.586,1.006-1.059,1.622-1.416c0.618-0.357,1.304-0.537,2.06-0.537c0.558,0,1.051,0.089,1.477,0.268
				c0.427,0.176,0.777,0.432,1.06,0.766c0.278,0.334,0.488,0.735,0.633,1.205c0.142,0.473,0.214,1.002,0.214,1.598v6.499h-0.973
				v-6.499c0-0.956-0.216-1.704-0.651-2.246c-0.436-0.541-1.104-0.812-2.005-0.812c-0.668,0-1.287,0.17-1.859,0.516
				s-1.085,0.816-1.535,1.418v7.624H352.263z"/>
			<path fill="#293B43" d="M366.675,99.707c0.443,0,0.854,0.056,1.232,0.165c0.378,0.108,0.717,0.261,1.018,0.458h2.605v0.337
				c0,0.173-0.096,0.264-0.286,0.278l-1.545,0.11c0.192,0.26,0.34,0.552,0.44,0.874c0.102,0.324,0.154,0.671,0.154,1.037
				c0,0.492-0.089,0.937-0.268,1.336c-0.175,0.396-0.423,0.738-0.738,1.021c-0.317,0.283-0.698,0.502-1.141,0.659
				c-0.445,0.157-0.934,0.234-1.473,0.234c-0.587,0-1.118-0.088-1.595-0.265c-0.286,0.164-0.51,0.356-0.674,0.582
				c-0.164,0.225-0.245,0.443-0.245,0.654c0,0.293,0.103,0.52,0.306,0.676c0.206,0.154,0.476,0.271,0.812,0.342
				c0.337,0.072,0.722,0.117,1.155,0.138c0.433,0.021,0.873,0.044,1.318,0.065c0.447,0.023,0.886,0.068,1.321,0.129
				c0.431,0.061,0.815,0.169,1.152,0.322c0.339,0.154,0.608,0.367,0.813,0.643c0.204,0.277,0.308,0.643,0.308,1.1
				c0,0.422-0.108,0.828-0.32,1.216c-0.209,0.389-0.515,0.733-0.912,1.033c-0.401,0.301-0.883,0.54-1.448,0.721
				c-0.565,0.182-1.198,0.271-1.9,0.271c-0.715,0-1.34-0.072-1.879-0.221c-0.542-0.146-0.991-0.344-1.357-0.592
				c-0.363-0.247-0.638-0.537-0.823-0.864c-0.183-0.326-0.273-0.674-0.273-1.042c0-0.537,0.176-1.002,0.531-1.39
				c0.354-0.388,0.842-0.688,1.461-0.901c-0.34-0.113-0.611-0.281-0.813-0.498c-0.2-0.22-0.301-0.523-0.301-0.912
				c0-0.141,0.026-0.291,0.082-0.449c0.055-0.155,0.137-0.312,0.245-0.465c0.11-0.153,0.24-0.298,0.395-0.434
				c0.151-0.137,0.33-0.26,0.537-0.369c-0.484-0.279-0.862-0.65-1.131-1.113c-0.268-0.463-0.402-1.007-0.402-1.627
				c0-0.488,0.087-0.934,0.26-1.331c0.174-0.399,0.419-0.743,0.736-1.03c0.315-0.286,0.697-0.506,1.147-0.662
				C365.633,99.787,366.129,99.707,366.675,99.707z M370.445,110.736c0-0.32-0.082-0.577-0.248-0.771
				c-0.168-0.193-0.39-0.345-0.671-0.455c-0.279-0.107-0.602-0.185-0.965-0.229c-0.366-0.047-0.746-0.078-1.146-0.1
				c-0.399-0.02-0.799-0.039-1.203-0.06c-0.401-0.021-0.774-0.062-1.123-0.122c-0.258,0.102-0.498,0.219-0.72,0.354
				c-0.222,0.132-0.411,0.281-0.567,0.448c-0.157,0.166-0.279,0.351-0.369,0.552c-0.089,0.201-0.132,0.42-0.132,0.66
				c0,0.301,0.077,0.577,0.229,0.832c0.154,0.256,0.38,0.478,0.676,0.664c0.296,0.188,0.659,0.337,1.088,0.445
				c0.431,0.109,0.924,0.164,1.484,0.164c0.515,0,0.999-0.059,1.446-0.174c0.445-0.115,0.835-0.28,1.164-0.49
				c0.33-0.213,0.59-0.464,0.777-0.758C370.354,111.404,370.445,111.086,370.445,110.736z M366.675,105.554
				c0.436,0,0.825-0.063,1.165-0.188c0.342-0.126,0.625-0.302,0.858-0.528c0.231-0.225,0.407-0.493,0.527-0.809
				c0.118-0.311,0.178-0.659,0.178-1.041s-0.06-0.73-0.183-1.049c-0.123-0.314-0.303-0.586-0.537-0.812
				c-0.235-0.226-0.521-0.398-0.858-0.522c-0.337-0.123-0.722-0.184-1.15-0.184c-0.431,0-0.815,0.061-1.154,0.184
				c-0.342,0.124-0.628,0.297-0.864,0.522c-0.235,0.226-0.414,0.497-0.536,0.812c-0.123,0.318-0.183,0.667-0.183,1.049
				s0.06,0.73,0.183,1.041c0.122,0.315,0.301,0.584,0.536,0.809c0.236,0.227,0.522,0.402,0.864,0.528
				C365.859,105.49,366.244,105.554,366.675,105.554z"/>
			<path fill="#293B43" d="M379.239,101.138c-0.05,0.097-0.122,0.144-0.226,0.144c-0.075,0-0.174-0.041-0.291-0.128
				c-0.121-0.085-0.277-0.181-0.47-0.286c-0.194-0.105-0.433-0.203-0.717-0.285c-0.281-0.087-0.628-0.129-1.037-0.129
				c-0.368,0-0.702,0.053-1.008,0.158c-0.304,0.106-0.561,0.247-0.777,0.426c-0.214,0.176-0.38,0.382-0.498,0.619
				c-0.12,0.233-0.181,0.48-0.181,0.738c0,0.322,0.082,0.586,0.245,0.798c0.164,0.212,0.378,0.392,0.646,0.542
				c0.265,0.15,0.565,0.278,0.902,0.388c0.339,0.11,0.686,0.22,1.039,0.327c0.354,0.111,0.7,0.231,1.037,0.363
				c0.337,0.133,0.64,0.299,0.904,0.496c0.268,0.197,0.481,0.439,0.645,0.727c0.164,0.285,0.246,0.633,0.246,1.043
				c0,0.443-0.082,0.855-0.24,1.236c-0.159,0.382-0.393,0.711-0.696,0.992c-0.303,0.278-0.676,0.501-1.118,0.664
				c-0.443,0.162-0.948,0.246-1.514,0.246c-0.715,0-1.333-0.117-1.851-0.344c-0.517-0.229-0.981-0.525-1.391-0.895l0.236-0.348
				c0.033-0.054,0.072-0.095,0.112-0.123c0.041-0.027,0.1-0.04,0.174-0.04c0.089,0,0.197,0.056,0.327,0.163
				c0.13,0.109,0.296,0.227,0.505,0.354c0.207,0.125,0.467,0.241,0.777,0.354c0.311,0.107,0.693,0.162,1.15,0.162
				c0.428,0,0.809-0.059,1.133-0.178c0.33-0.121,0.602-0.283,0.818-0.488c0.219-0.203,0.385-0.443,0.498-0.719
				c0.113-0.277,0.166-0.566,0.166-0.873c0-0.341-0.079-0.626-0.243-0.85c-0.163-0.225-0.38-0.415-0.645-0.572
				c-0.265-0.158-0.567-0.291-0.905-0.397c-0.336-0.11-0.686-0.22-1.041-0.329c-0.358-0.107-0.708-0.229-1.042-0.357
				c-0.339-0.128-0.64-0.293-0.907-0.49c-0.265-0.198-0.479-0.439-0.643-0.721c-0.163-0.283-0.248-0.637-0.248-1.059
				c0-0.361,0.082-0.709,0.236-1.043c0.158-0.334,0.38-0.625,0.669-0.879c0.293-0.252,0.645-0.453,1.059-0.602
				c0.416-0.149,0.883-0.227,1.4-0.227c0.62,0,1.172,0.089,1.65,0.268c0.481,0.176,0.924,0.448,1.325,0.817L379.239,101.138z"/>
		</g>
	</g>
	<g>
		<path fill="#293B43" d="M296.373,8.239h6.784v74.423c-6.465,0-12.933,0-19.399,0V49.585l-15.796,16.538h-2.122L250.15,49.585
			v33.077c-6.468,0-12.934,0-19.401,0V8.239h6.998l29.048,32.229L296.373,8.239z"/>
		<path fill="#293B43" d="M344.924,7.498c14.949,0.106,30.533,7.844,34.138,26.291h-18.659c-3.075-6.36-7.949-8.905-15.479-8.905
			c-11.979,0-18.446,9.329-18.446,20.673c0,12.298,7.208,20.355,18.446,20.355c7.635,0,12.51-2.014,15.902-9.117H345.03V40.362
			h35.093c0.423,7.421,0.423,14.524-2.12,21.734c-5.303,15.479-19.402,21.415-33.079,21.415c-18.87,0-37.953-12.616-38.059-37.954
			C306.971,20.218,326.054,7.498,344.924,7.498z"/>
	</g>
	<g>
		<g>
			<path fill="#293B43" d="M27.572,82.662H-0.417V8.45h27.989C75.915,8.663,75.915,82.451,27.572,82.662z M18.561,65.383h9.012
				c23.642,0,23.642-39.651,0-39.651h-9.012V65.383z"/>
			<path fill="#293B43" d="M95.63,82.662H67.643V8.45H95.63C143.975,8.663,143.975,82.451,95.63,82.662z M86.619,65.383h9.011
				c23.642,0,23.642-39.651,0-39.651h-9.011V65.383z"/>
			<path fill="#293B43" d="M163.69,82.662h-27.988V8.45h27.988C212.033,8.663,212.033,82.451,163.69,82.662z M154.68,65.383h9.01
				c23.642,0,23.642-39.651,0-39.651h-9.01V65.383z"/>
		</g>
	</g>
	<rect x="213.674" y="0.393" fill="#293B43" width="2.269" height="89.488"/>
	<path fill="#0C191F" d="M360.826,56.795c-0.19,0.397-0.385,0.772-0.585,1.138l17.755,4.182c0.002-0.008,0.004-0.012,0.007-0.02
		c0.633-1.796,1.109-3.586,1.46-5.375L360.826,56.795z"/>
	<polygon fill="#0C191F" points="283.758,49.585 283.758,59.225 303.157,28.728 303.157,27.022 	"/>
	<polygon fill="#0C191F" points="230.749,27.022 250.15,49.585 250.15,59.225 230.749,28.728 	"/>
	<polygon fill="#0C191F" points="154.68,25.732 154.68,28.254 135.702,31.348 135.702,25.732 	"/>
	<polygon fill="#0C191F" points="154.68,65.383 157.201,65.383 159.063,82.662 154.68,82.662 	"/>
	<polygon fill="#0C191F" points="86.619,25.732 86.619,28.254 67.643,31.348 67.643,25.732 	"/>
	<polygon fill="#0C191F" points="18.561,25.732 18.561,28.254 -0.417,31.348 -0.417,25.732 	"/>
	<polygon fill="#0C191F" points="86.619,65.383 89.142,65.383 91.003,82.662 86.619,82.662 	"/>
	<polygon fill="#0C191F" points="18.559,65.383 21.083,65.383 22.943,82.662 18.559,82.662 	"/>
</g>
</svg>
