<?xml version="1.0" encoding="utf-8"?>
<!-- Generator: Adobe Illustrator 16.0.0, SVG Export Plug-In . SVG Version: 6.00 Build 0)  -->
<!DOCTYPE svg PUBLIC "-//W3C//DTD SVG 1.1//EN" "http://www.w3.org/Graphics/SVG/1.1/DTD/svg11.dtd">
<svg version="1.1" id="Layer_1" xmlns="http://www.w3.org/2000/svg" xmlns:xlink="http://www.w3.org/1999/xlink" x="0px" y="0px"
	 width="721.286px" height="229.302px" viewBox="0 0 721.286 229.302" enable-background="new 0 0 721.286 229.302"
	 xml:space="preserve">
<g>
	<g>
		<path fill="#283A42" d="M547.528,29.18h11.914v130.678c-11.355,0-22.711,0-34.066,0v-58.078l-27.734,29.039h-3.727l-27.549-29.039
			v58.078c-11.354,0-22.709,0-34.064,0V29.18h12.283l51.008,56.59L547.528,29.18z"/>
		<path fill="#283A42" d="M632.778,27.877c26.246,0.188,53.611,13.773,59.941,46.164h-32.764
			c-5.398-11.168-13.961-15.637-27.18-15.637c-21.037,0-32.391,16.383-32.391,36.299c0,21.596,12.656,35.742,32.391,35.742
			c13.402,0,21.966-3.537,27.922-16.008h-27.734V85.582h61.617c0.742,13.031,0.742,25.504-3.725,38.162
			c-9.311,27.18-34.064,37.605-58.08,37.605c-33.137,0-66.643-22.152-66.828-66.645C566.136,50.215,599.642,27.877,632.778,27.877z"
			/>
	</g>
	<g>
		<g>
			<path fill="#283A42" d="M75.548,159.857H26.4V29.551h49.146C160.431,29.924,160.431,159.486,75.548,159.857z M59.724,129.516
				h15.824c41.512,0,41.512-69.621,0-69.621H59.724V129.516z"/>
			<path fill="#283A42" d="M195.048,159.857h-49.143V29.551h49.143C279.936,29.924,279.936,159.486,195.048,159.857z
				 M179.227,129.516h15.821c41.513,0,41.513-69.621,0-69.621h-15.821V129.516z"/>
			<path fill="#283A42" d="M314.553,159.857h-49.146V29.551h49.146C399.438,29.924,399.438,159.486,314.553,159.857z
				 M298.73,129.516h15.822c41.512,0,41.512-69.621,0-69.621H298.73V129.516z"/>
		</g>
	</g>
	<rect x="402.317" y="15.403" fill="#283A42" width="3.984" height="157.13"/>
	<path fill="#08171E" d="M660.7,114.438c-0.334,0.697-0.678,1.355-1.025,2l31.172,7.342c0.006-0.014,0.01-0.02,0.014-0.033
		c1.113-3.152,1.947-6.297,2.564-9.438L660.7,114.438z"/>
	<polygon fill="#08171E" points="525.376,101.779 525.376,118.705 559.442,65.154 559.442,62.162 	"/>
	<polygon fill="#08171E" points="432.3,62.162 466.366,101.779 466.366,118.705 432.3,65.154 	"/>
	<polygon fill="#08171E" points="298.73,59.895 298.73,64.324 265.408,69.756 265.408,59.895 	"/>
	<polygon fill="#08171E" points="298.73,129.516 303.158,129.516 306.429,159.857 298.73,159.857 	"/>
	<polygon fill="#08171E" points="179.227,59.895 179.227,64.324 145.905,69.756 145.905,59.895 	"/>
	<polygon fill="#08171E" points="59.724,59.895 59.724,64.324 26.4,69.756 26.4,59.895 	"/>
	<polygon fill="#08171E" points="179.227,129.516 183.655,129.516 186.923,159.857 179.227,159.857 	"/>
	<polygon fill="#08171E" points="59.722,129.516 64.152,129.516 67.419,159.857 59.722,159.857 	"/>
	<g>
		<path fill="#314550" d="M39.061,207.854c-0.271,0-0.425-0.139-0.468-0.422l-0.163-2.562c-0.718,0.979-1.56,1.758-2.522,2.332
			c-0.962,0.574-2.043,0.865-3.238,0.865c-1.99,0-3.545-0.691-4.659-2.072c-1.114-1.377-1.673-3.445-1.673-6.209
			c0-1.184,0.154-2.287,0.467-3.314c0.31-1.027,0.767-1.916,1.369-2.674c0.604-0.754,1.344-1.352,2.221-1.783
			c0.875-0.436,1.885-0.654,3.025-0.654c1.1,0,2.051,0.207,2.856,0.613c0.806,0.408,1.501,1.004,2.089,1.785v-9.615h1.549v23.711
			H39.061z M33.108,206.812c1.076,0,2.051-0.275,2.922-0.83c0.87-0.557,1.649-1.326,2.334-2.318v-8.555
			c-0.631-0.924-1.326-1.576-2.082-1.953c-0.756-0.383-1.613-0.568-2.57-0.568c-0.959,0-1.797,0.17-2.515,0.52
			c-0.718,0.348-1.319,0.838-1.803,1.475c-0.483,0.639-0.851,1.396-1.095,2.279c-0.243,0.889-0.367,1.861-0.367,2.928
			c0,2.412,0.447,4.188,1.338,5.32C30.167,206.244,31.442,206.812,33.108,206.812z"/>
		<path fill="#314550" d="M50.979,191.377c0.913,0,1.758,0.158,2.534,0.473c0.777,0.316,1.451,0.775,2.021,1.381
			c0.571,0.6,1.015,1.342,1.337,2.221c0.32,0.881,0.479,1.895,0.479,3.033c0,0.238-0.036,0.402-0.104,0.488
			c-0.07,0.088-0.183,0.129-0.334,0.129H45.21v0.311c0,1.219,0.142,2.287,0.423,3.211c0.282,0.926,0.683,1.699,1.204,2.322
			c0.523,0.627,1.152,1.096,1.893,1.408c0.739,0.318,1.564,0.475,2.477,0.475c0.815,0,1.521-0.09,2.118-0.27
			c0.597-0.18,1.103-0.381,1.509-0.604s0.729-0.422,0.969-0.604c0.238-0.18,0.414-0.27,0.521-0.27c0.142,0,0.249,0.055,0.326,0.164
			l0.424,0.521c-0.261,0.326-0.604,0.629-1.034,0.914c-0.43,0.281-0.908,0.521-1.436,0.725c-0.525,0.201-1.092,0.359-1.694,0.479
			c-0.603,0.123-1.209,0.184-1.816,0.184c-1.108,0-2.119-0.195-3.031-0.582c-0.913-0.383-1.696-0.945-2.351-1.686
			c-0.652-0.738-1.157-1.643-1.516-2.713c-0.355-1.07-0.536-2.297-0.536-3.676c0-1.162,0.167-2.234,0.498-3.219
			c0.332-0.982,0.811-1.83,1.436-2.543s1.392-1.27,2.3-1.672C48.798,191.578,49.825,191.377,50.979,191.377z M51.003,192.535
			c-0.836,0-1.584,0.131-2.245,0.395c-0.663,0.26-1.235,0.633-1.72,1.121c-0.48,0.488-0.871,1.074-1.17,1.764
			c-0.299,0.684-0.496,1.449-0.595,2.295h10.675c0-0.865-0.119-1.646-0.357-2.336s-0.574-1.273-1.01-1.754
			c-0.433-0.479-0.955-0.844-1.562-1.098C52.411,192.662,51.739,192.535,51.003,192.535z"/>
		<path fill="#314550" d="M65.45,208.117c-1.097,0-1.949-0.307-2.559-0.914c-0.607-0.605-0.913-1.549-0.913-2.818v-11.082h-2.331
			c-0.119,0-0.218-0.031-0.293-0.098c-0.075-0.064-0.113-0.158-0.113-0.275v-0.605l2.771-0.193l0.389-5.805
			c0.01-0.098,0.051-0.184,0.119-0.262c0.071-0.076,0.165-0.113,0.283-0.113h0.725v6.193h5.104v1.156h-5.104v11.002
			c0,0.443,0.059,0.828,0.172,1.146c0.114,0.32,0.271,0.584,0.473,0.789c0.201,0.207,0.438,0.361,0.709,0.459
			c0.271,0.098,0.563,0.146,0.88,0.146c0.391,0,0.728-0.057,1.011-0.17c0.282-0.115,0.527-0.242,0.732-0.377
			c0.207-0.137,0.375-0.26,0.507-0.375c0.129-0.113,0.231-0.172,0.309-0.172c0.087,0,0.175,0.057,0.263,0.162l0.422,0.688
			c-0.412,0.457-0.938,0.822-1.572,1.1C66.796,207.979,66.135,208.117,65.45,208.117z"/>
		<path fill="#314550" d="M78.276,191.377c0.913,0,1.757,0.158,2.534,0.473c0.776,0.316,1.451,0.775,2.021,1.381
			c0.57,0.6,1.016,1.342,1.338,2.221c0.319,0.881,0.479,1.895,0.479,3.033c0,0.238-0.036,0.402-0.105,0.488
			c-0.068,0.088-0.182,0.129-0.332,0.129H72.508v0.311c0,1.219,0.142,2.287,0.424,3.211c0.282,0.926,0.684,1.699,1.206,2.322
			c0.521,0.627,1.15,1.096,1.891,1.408c0.739,0.318,1.564,0.475,2.477,0.475c0.815,0,1.521-0.09,2.119-0.27s1.102-0.381,1.509-0.604
			c0.405-0.223,0.729-0.422,0.969-0.604c0.237-0.18,0.414-0.27,0.521-0.27c0.143,0,0.25,0.055,0.326,0.164l0.424,0.521
			c-0.261,0.326-0.604,0.629-1.035,0.914c-0.428,0.281-0.906,0.521-1.435,0.725c-0.526,0.201-1.092,0.359-1.694,0.479
			c-0.603,0.123-1.209,0.184-1.817,0.184c-1.109,0-2.118-0.195-3.031-0.582c-0.912-0.383-1.696-0.945-2.35-1.686
			c-0.653-0.738-1.158-1.643-1.517-2.713c-0.356-1.07-0.535-2.297-0.535-3.676c0-1.162,0.166-2.234,0.498-3.219
			s0.809-1.83,1.434-2.543s1.391-1.27,2.298-1.672C76.095,191.578,77.124,191.377,78.276,191.377z M78.301,192.535
			c-0.837,0-1.583,0.131-2.245,0.395c-0.662,0.26-1.235,0.633-1.719,1.121c-0.481,0.488-0.873,1.074-1.17,1.764
			c-0.299,0.684-0.498,1.449-0.596,2.295h10.676c0-0.865-0.119-1.646-0.357-2.336c-0.24-0.689-0.576-1.273-1.01-1.754
			c-0.434-0.479-0.955-0.844-1.562-1.098C79.71,192.662,79.038,192.535,78.301,192.535z"/>
		<path fill="#314550" d="M99.005,193.807c-0.055,0.055-0.104,0.1-0.153,0.137c-0.05,0.039-0.117,0.057-0.204,0.057
			c-0.109,0-0.259-0.068-0.449-0.219c-0.188-0.145-0.443-0.307-0.757-0.479c-0.315-0.172-0.71-0.334-1.183-0.48
			c-0.471-0.146-1.045-0.223-1.717-0.223c-0.937,0-1.765,0.168-2.486,0.5c-0.725,0.33-1.332,0.807-1.826,1.428
			c-0.493,0.615-0.871,1.367-1.131,2.246c-0.262,0.879-0.393,1.869-0.393,2.965c0,1.145,0.133,2.154,0.399,3.033
			c0.267,0.881,0.646,1.621,1.133,2.227c0.489,0.604,1.081,1.062,1.776,1.375c0.695,0.316,1.467,0.475,2.314,0.475
			c0.783,0,1.438-0.092,1.963-0.277c0.527-0.186,0.961-0.387,1.305-0.604c0.343-0.217,0.613-0.416,0.814-0.604
			c0.201-0.184,0.361-0.275,0.48-0.275c0.141,0,0.25,0.053,0.326,0.164l0.424,0.521c-0.25,0.324-0.566,0.629-0.945,0.914
			c-0.382,0.281-0.81,0.525-1.287,0.73c-0.479,0.207-0.998,0.365-1.557,0.479c-0.561,0.117-1.145,0.176-1.753,0.176
			c-1.032,0-1.976-0.188-2.827-0.564c-0.854-0.371-1.586-0.914-2.199-1.629c-0.615-0.709-1.093-1.582-1.435-2.615
			c-0.343-1.033-0.515-2.205-0.515-3.521c0-1.234,0.164-2.365,0.49-3.387c0.324-1.023,0.801-1.9,1.426-2.641
			s1.392-1.314,2.299-1.723c0.906-0.402,1.947-0.609,3.121-0.609c1.054,0,1.99,0.166,2.812,0.506
			c0.82,0.336,1.533,0.793,2.144,1.369L99.005,193.807z"/>
		<path fill="#314550" d="M106.438,212.305c0.054,0,0.127,0.029,0.22,0.09c0.094,0.061,0.215,0.123,0.359,0.195
			c0.146,0.068,0.328,0.137,0.546,0.195c0.217,0.061,0.483,0.088,0.799,0.088c0.554,0,0.985-0.117,1.295-0.357
			c0.312-0.236,0.464-0.566,0.464-0.979c0-0.271-0.07-0.496-0.211-0.678c-0.142-0.18-0.342-0.328-0.604-0.449
			c-0.26-0.117-0.566-0.209-0.918-0.273c-0.355-0.068-0.743-0.127-1.167-0.18l0.603-1.922c-0.943-0.066-1.808-0.307-2.591-0.711
			c-0.782-0.408-1.453-0.967-2.012-1.672c-0.56-0.705-0.992-1.555-1.296-2.549c-0.307-0.996-0.457-2.117-0.457-3.369
			c0-1.234,0.162-2.363,0.49-3.387c0.323-1.021,0.8-1.9,1.425-2.643c0.625-0.736,1.391-1.312,2.298-1.719
			c0.906-0.406,1.947-0.613,3.121-0.613c1.053,0,1.99,0.166,2.812,0.51c0.819,0.336,1.533,0.791,2.142,1.365l-0.405,0.557
			c-0.056,0.055-0.106,0.1-0.155,0.137c-0.049,0.039-0.115,0.059-0.203,0.059c-0.106,0-0.259-0.07-0.449-0.221
			c-0.189-0.146-0.443-0.307-0.756-0.479c-0.316-0.176-0.711-0.334-1.184-0.482c-0.473-0.145-1.045-0.221-1.718-0.221
			c-0.938,0-1.765,0.166-2.486,0.5c-0.724,0.33-1.332,0.805-1.826,1.426c-0.493,0.617-0.872,1.369-1.132,2.248
			c-0.262,0.879-0.391,1.869-0.391,2.963c0,1.145,0.132,2.154,0.396,3.033c0.268,0.881,0.646,1.623,1.135,2.229
			c0.488,0.604,1.08,1.062,1.775,1.375c0.695,0.316,1.466,0.475,2.314,0.475c0.783,0,1.438-0.094,1.963-0.277
			c0.527-0.186,0.962-0.387,1.304-0.604c0.344-0.217,0.614-0.416,0.815-0.605c0.201-0.184,0.361-0.275,0.479-0.275
			c0.142,0,0.249,0.055,0.327,0.164l0.423,0.521c-0.489,0.629-1.188,1.156-2.095,1.578c-0.906,0.426-1.936,0.66-3.087,0.705
			l-0.392,1.285c0.965,0.174,1.702,0.426,2.209,0.746c0.504,0.326,0.756,0.812,0.756,1.451c0,0.326-0.072,0.619-0.22,0.881
			c-0.146,0.264-0.353,0.48-0.618,0.66c-0.268,0.182-0.584,0.316-0.955,0.416c-0.369,0.098-0.771,0.146-1.205,0.146
			c-0.446,0-0.881-0.062-1.306-0.188c-0.423-0.127-0.776-0.293-1.058-0.498l0.163-0.457
			C106.241,212.369,106.329,212.305,106.438,212.305z"/>
		<path fill="#314550" d="M127.363,207.854c-0.327,0-0.528-0.152-0.604-0.457l-0.229-2.066c-0.445,0.436-0.887,0.824-1.326,1.172
			c-0.441,0.35-0.901,0.645-1.377,0.883c-0.479,0.236-0.996,0.42-1.55,0.545c-0.556,0.125-1.163,0.188-1.825,0.188
			c-0.555,0-1.093-0.082-1.615-0.246c-0.521-0.164-0.982-0.414-1.383-0.748c-0.402-0.338-0.727-0.77-0.971-1.297
			c-0.245-0.525-0.367-1.16-0.367-1.898c0-0.686,0.196-1.316,0.586-1.904c0.392-0.588,1.004-1.1,1.834-1.533
			c0.832-0.434,1.9-0.781,3.211-1.045c1.309-0.26,2.883-0.41,4.717-0.453v-1.693c0-1.498-0.322-2.652-0.969-3.467
			c-0.646-0.807-1.604-1.211-2.877-1.211c-0.783,0-1.447,0.105-1.996,0.322c-0.549,0.223-1.015,0.457-1.394,0.721
			c-0.381,0.26-0.69,0.498-0.931,0.715c-0.237,0.219-0.438,0.328-0.602,0.328c-0.219,0-0.382-0.1-0.488-0.293l-0.278-0.477
			c0.848-0.848,1.739-1.486,2.672-1.922c0.937-0.436,1.994-0.654,3.178-0.654c0.869,0,1.632,0.139,2.281,0.42
			c0.653,0.273,1.192,0.672,1.624,1.188c0.428,0.516,0.752,1.139,0.968,1.875c0.218,0.73,0.328,1.551,0.328,2.453v10.559
			L127.363,207.854L127.363,207.854z M120.844,206.99c0.63,0,1.21-0.064,1.737-0.201c0.526-0.135,1.016-0.33,1.465-0.57
			c0.453-0.244,0.873-0.535,1.264-0.871c0.393-0.338,0.777-0.701,1.158-1.092v-4.223c-1.543,0.043-2.871,0.158-3.985,0.354
			c-1.112,0.188-2.032,0.441-2.754,0.771c-0.724,0.324-1.254,0.711-1.599,1.16c-0.342,0.455-0.514,0.967-0.514,1.543
			c0,0.543,0.092,1.012,0.271,1.41c0.178,0.396,0.414,0.723,0.708,0.977c0.292,0.26,0.636,0.445,1.026,0.564
			C120.014,206.93,120.421,206.99,120.844,206.99z M124.495,186.994c0.467,0,0.82-0.148,1.06-0.445
			c0.237-0.301,0.364-0.707,0.376-1.217h0.961c0,0.393-0.053,0.76-0.155,1.104c-0.103,0.34-0.255,0.637-0.457,0.885
			c-0.2,0.252-0.448,0.447-0.741,0.59s-0.625,0.213-0.994,0.213c-0.357,0-0.696-0.092-1.02-0.271
			c-0.318-0.176-0.626-0.373-0.92-0.586c-0.293-0.211-0.577-0.408-0.855-0.586c-0.276-0.18-0.557-0.27-0.838-0.27
			c-0.457,0-0.805,0.154-1.043,0.463c-0.24,0.311-0.369,0.711-0.391,1.199h-0.994c0-0.393,0.055-0.76,0.162-1.1
			c0.109-0.346,0.268-0.643,0.473-0.891c0.206-0.252,0.456-0.445,0.75-0.588c0.293-0.143,0.625-0.213,0.994-0.213
			s0.715,0.09,1.035,0.271c0.32,0.18,0.625,0.375,0.913,0.586c0.288,0.213,0.569,0.408,0.847,0.588
			C123.934,186.902,124.212,186.994,124.495,186.994z"/>
		<path fill="#314550" d="M138.561,191.377c1.162,0,2.202,0.197,3.121,0.596c0.917,0.396,1.69,0.959,2.321,1.688
			c0.631,0.73,1.11,1.605,1.442,2.633s0.498,2.178,0.498,3.443c0,1.273-0.166,2.42-0.498,3.439
			c-0.332,1.023-0.812,1.896-1.442,2.625s-1.404,1.287-2.321,1.68c-0.919,0.391-1.959,0.588-3.121,0.588
			c-1.164,0-2.203-0.197-3.12-0.588c-0.92-0.393-1.695-0.951-2.332-1.68c-0.636-0.729-1.118-1.602-1.45-2.625
			c-0.329-1.02-0.497-2.166-0.497-3.439c0-1.268,0.168-2.418,0.497-3.443c0.332-1.025,0.814-1.902,1.45-2.633
			c0.637-0.729,1.412-1.291,2.332-1.688C136.356,191.576,137.396,191.377,138.561,191.377z M138.561,206.844
			c0.966,0,1.812-0.164,2.535-0.498c0.722-0.33,1.325-0.805,1.808-1.428c0.484-0.615,0.846-1.363,1.084-2.238
			c0.238-0.873,0.359-1.855,0.359-2.943c0-1.074-0.121-2.053-0.359-2.93c-0.238-0.881-0.6-1.637-1.084-2.26
			c-0.482-0.625-1.085-1.104-1.808-1.439c-0.724-0.338-1.569-0.51-2.535-0.51c-0.968,0-1.812,0.172-2.535,0.51
			c-0.722,0.336-1.325,0.814-1.808,1.439c-0.484,0.623-0.85,1.379-1.092,2.26c-0.244,0.877-0.367,1.855-0.367,2.93
			c0,1.088,0.123,2.07,0.367,2.943c0.244,0.875,0.607,1.623,1.092,2.238c0.48,0.623,1.085,1.098,1.808,1.428
			C136.747,206.68,137.593,206.844,138.561,206.844z"/>
		<path fill="#314550" d="M166.829,207.854c-0.268,0-0.424-0.139-0.467-0.422l-0.164-2.562c-0.718,0.979-1.559,1.758-2.521,2.332
			s-2.043,0.865-3.238,0.865c-1.991,0-3.545-0.691-4.659-2.072c-1.115-1.377-1.673-3.445-1.673-6.209
			c0-1.184,0.155-2.287,0.466-3.314c0.312-1.027,0.768-1.916,1.369-2.674c0.605-0.754,1.346-1.352,2.221-1.783
			c0.875-0.436,1.887-0.654,3.027-0.654c1.1,0,2.05,0.207,2.855,0.613c0.806,0.408,1.502,1.004,2.088,1.785v-9.615h1.549v23.711
			H166.829z M160.88,206.812c1.076,0,2.05-0.275,2.921-0.83c0.868-0.557,1.646-1.326,2.333-2.318v-8.555
			c-0.629-0.924-1.325-1.576-2.081-1.953c-0.757-0.383-1.613-0.568-2.57-0.568c-0.959,0-1.796,0.17-2.515,0.52
			c-0.719,0.348-1.319,0.838-1.805,1.475c-0.482,0.639-0.848,1.396-1.093,2.279c-0.245,0.889-0.368,1.861-0.368,2.928
			c0,2.412,0.447,4.188,1.34,5.32C157.935,206.244,159.212,206.812,160.88,206.812z"/>
		<path fill="#314550" d="M175.325,186.047c0,0.197-0.041,0.379-0.123,0.547c-0.08,0.17-0.188,0.316-0.317,0.447
			c-0.132,0.133-0.282,0.232-0.456,0.311s-0.358,0.117-0.555,0.117c-0.195,0-0.379-0.039-0.555-0.117
			c-0.174-0.076-0.326-0.178-0.457-0.311c-0.129-0.131-0.232-0.277-0.309-0.447c-0.076-0.168-0.114-0.35-0.114-0.547
			c0-0.195,0.038-0.383,0.114-0.561c0.074-0.182,0.18-0.336,0.309-0.465c0.131-0.129,0.283-0.234,0.457-0.312
			c0.176-0.074,0.358-0.115,0.555-0.115c0.195,0,0.381,0.041,0.555,0.115c0.174,0.076,0.324,0.184,0.456,0.312
			c0.13,0.129,0.237,0.283,0.317,0.465C175.284,185.664,175.325,185.852,175.325,186.047z M174.642,191.641v16.213h-1.548v-16.213
			H174.642z"/>
		<path fill="#314550" d="M185.233,191.359c0.707,0,1.36,0.088,1.964,0.266c0.604,0.174,1.146,0.416,1.623,0.73h4.155v0.535
			c0,0.275-0.152,0.422-0.457,0.441l-2.461,0.18c0.305,0.412,0.538,0.879,0.702,1.395c0.163,0.518,0.245,1.066,0.245,1.652
			c0,0.785-0.143,1.492-0.426,2.129c-0.281,0.637-0.677,1.182-1.182,1.629c-0.505,0.449-1.109,0.801-1.816,1.055
			c-0.705,0.246-1.488,0.371-2.349,0.371c-0.935,0-1.781-0.139-2.541-0.422c-0.457,0.26-0.815,0.57-1.076,0.928
			c-0.26,0.361-0.39,0.707-0.39,1.043c0,0.469,0.162,0.828,0.486,1.074c0.328,0.252,0.76,0.436,1.298,0.545
			c0.538,0.117,1.151,0.189,1.842,0.225c0.688,0.029,1.39,0.068,2.103,0.105c0.711,0.039,1.411,0.105,2.102,0.203
			c0.689,0.1,1.305,0.268,1.842,0.512s0.97,0.586,1.296,1.027c0.325,0.439,0.488,1.025,0.488,1.752c0,0.674-0.168,1.32-0.505,1.939
			c-0.338,0.619-0.823,1.168-1.461,1.645c-0.635,0.48-1.402,0.859-2.305,1.15c-0.9,0.287-1.912,0.43-3.031,0.43
			c-1.142,0-2.142-0.113-2.998-0.35c-0.858-0.234-1.578-0.551-2.159-0.947c-0.582-0.395-1.019-0.854-1.312-1.375
			c-0.295-0.521-0.439-1.074-0.439-1.662c0-0.857,0.281-1.598,0.847-2.219c0.563-0.615,1.343-1.098,2.33-1.436
			c-0.544-0.184-0.976-0.445-1.296-0.799c-0.32-0.346-0.48-0.83-0.48-1.451c0-0.225,0.043-0.465,0.131-0.713
			c0.088-0.252,0.219-0.5,0.391-0.744c0.176-0.242,0.385-0.475,0.629-0.689c0.245-0.219,0.53-0.416,0.855-0.586
			c-0.772-0.445-1.373-1.037-1.801-1.779c-0.431-0.734-0.645-1.602-0.645-2.592c0-0.779,0.138-1.488,0.414-2.125
			c0.277-0.637,0.669-1.184,1.175-1.641c0.506-0.453,1.116-0.809,1.833-1.057C183.572,191.484,184.365,191.359,185.233,191.359z
			 M191.249,208.945c0-0.51-0.134-0.918-0.399-1.229c-0.267-0.311-0.622-0.553-1.068-0.727c-0.446-0.172-0.959-0.295-1.54-0.363
			c-0.58-0.072-1.188-0.125-1.824-0.158c-0.638-0.031-1.274-0.064-1.916-0.098c-0.642-0.031-1.237-0.098-1.793-0.193
			c-0.412,0.162-0.795,0.352-1.148,0.561c-0.354,0.211-0.654,0.451-0.904,0.717c-0.251,0.268-0.445,0.561-0.587,0.881
			c-0.141,0.32-0.212,0.67-0.212,1.053c0,0.479,0.123,0.922,0.367,1.328s0.604,0.76,1.076,1.059
			c0.472,0.301,1.051,0.537,1.734,0.711c0.685,0.176,1.473,0.262,2.364,0.262c0.824,0,1.594-0.096,2.306-0.277
			c0.711-0.184,1.33-0.445,1.857-0.781c0.525-0.338,0.939-0.74,1.238-1.209C191.1,210.01,191.249,209.5,191.249,208.945z
			 M185.233,200.682c0.696,0,1.314-0.1,1.857-0.297c0.544-0.203,1-0.482,1.369-0.844c0.371-0.357,0.648-0.785,0.84-1.287
			c0.189-0.498,0.285-1.055,0.285-1.662s-0.097-1.166-0.293-1.67c-0.195-0.504-0.48-0.939-0.855-1.297
			c-0.375-0.355-0.831-0.635-1.37-0.832c-0.538-0.195-1.147-0.293-1.833-0.293c-0.684,0-1.298,0.098-1.841,0.293
			c-0.543,0.197-1.002,0.477-1.376,0.832c-0.376,0.357-0.66,0.793-0.858,1.297c-0.194,0.504-0.292,1.061-0.292,1.67
			s0.098,1.164,0.292,1.662c0.198,0.502,0.482,0.93,0.858,1.287c0.374,0.359,0.833,0.641,1.376,0.844
			C183.937,200.582,184.551,200.682,185.233,200.682z"/>
		<path fill="#314550" d="M198.532,186.047c0,0.197-0.041,0.379-0.123,0.547c-0.08,0.17-0.187,0.316-0.317,0.447
			c-0.13,0.133-0.282,0.232-0.457,0.311c-0.173,0.078-0.358,0.117-0.554,0.117c-0.196,0-0.379-0.039-0.554-0.117
			c-0.175-0.076-0.327-0.178-0.458-0.311c-0.129-0.131-0.232-0.277-0.309-0.447c-0.076-0.168-0.113-0.35-0.113-0.547
			c0-0.195,0.037-0.383,0.113-0.561c0.074-0.182,0.18-0.336,0.309-0.465c0.131-0.129,0.283-0.234,0.458-0.312
			c0.175-0.074,0.357-0.115,0.554-0.115c0.195,0,0.381,0.041,0.554,0.115c0.175,0.076,0.327,0.184,0.457,0.312
			c0.131,0.129,0.237,0.283,0.317,0.465C198.491,185.664,198.532,185.852,198.532,186.047z M197.849,191.641v16.213H196.3v-16.213
			H197.849z"/>
		<path fill="#314550" d="M207.514,208.117c-1.101,0-1.951-0.307-2.56-0.914c-0.609-0.605-0.912-1.549-0.912-2.818v-11.082h-2.332
			c-0.119,0-0.217-0.031-0.293-0.098c-0.075-0.064-0.113-0.158-0.113-0.275v-0.605l2.769-0.193l0.388-5.805
			c0.012-0.098,0.053-0.184,0.121-0.262c0.071-0.076,0.166-0.113,0.282-0.113h0.726v6.193h5.104v1.156h-5.104v11.002
			c0,0.443,0.058,0.828,0.172,1.146c0.115,0.32,0.271,0.584,0.473,0.789c0.199,0.207,0.438,0.361,0.71,0.459
			c0.271,0.098,0.563,0.146,0.878,0.146c0.391,0,0.729-0.057,1.012-0.17c0.28-0.115,0.526-0.242,0.732-0.377
			c0.205-0.137,0.374-0.26,0.506-0.375c0.129-0.113,0.232-0.172,0.309-0.172c0.088,0,0.174,0.057,0.262,0.162l0.425,0.688
			c-0.414,0.457-0.938,0.822-1.573,1.1C208.857,207.979,208.196,208.117,207.514,208.117z"/>
		<path fill="#314550" d="M224.575,207.854c-0.326,0-0.527-0.152-0.604-0.457l-0.229-2.066c-0.445,0.436-0.89,0.824-1.328,1.172
			c-0.44,0.35-0.899,0.645-1.377,0.883c-0.479,0.236-0.996,0.42-1.55,0.545c-0.553,0.125-1.161,0.188-1.825,0.188
			c-0.555,0-1.092-0.082-1.613-0.246c-0.522-0.164-0.983-0.414-1.385-0.748c-0.402-0.338-0.727-0.77-0.971-1.297
			c-0.244-0.525-0.367-1.16-0.367-1.898c0-0.686,0.196-1.316,0.588-1.904c0.391-0.588,1.002-1.1,1.832-1.533
			c0.832-0.434,1.901-0.781,3.211-1.045c1.31-0.26,2.881-0.41,4.72-0.453v-1.693c0-1.498-0.326-2.652-0.972-3.467
			c-0.646-0.807-1.604-1.211-2.875-1.211c-0.783,0-1.449,0.105-1.998,0.322c-0.549,0.223-1.014,0.457-1.395,0.721
			c-0.38,0.26-0.688,0.498-0.927,0.715c-0.24,0.219-0.44,0.328-0.604,0.328c-0.218,0-0.38-0.1-0.488-0.293l-0.276-0.477
			c0.848-0.848,1.737-1.486,2.673-1.922c0.934-0.436,1.993-0.654,3.177-0.654c0.869,0,1.632,0.139,2.282,0.42
			c0.653,0.273,1.193,0.672,1.622,1.188s0.752,1.139,0.97,1.875c0.217,0.73,0.327,1.551,0.327,2.453v10.559L224.575,207.854
			L224.575,207.854z M218.056,206.99c0.629,0,1.208-0.064,1.734-0.201c0.527-0.135,1.017-0.33,1.468-0.57
			c0.452-0.244,0.872-0.535,1.263-0.871c0.393-0.338,0.777-0.701,1.159-1.092v-4.223c-1.545,0.043-2.873,0.158-3.986,0.354
			c-1.112,0.188-2.032,0.441-2.754,0.771c-0.721,0.324-1.255,0.711-1.597,1.16c-0.342,0.455-0.514,0.967-0.514,1.543
			c0,0.543,0.09,1.012,0.27,1.41c0.179,0.396,0.417,0.723,0.709,0.977c0.292,0.26,0.635,0.445,1.027,0.564
			C217.225,206.93,217.633,206.99,218.056,206.99z"/>
		<path fill="#314550" d="M231.6,184.143v23.711h-1.548v-23.711H231.6z"/>
		<path fill="#314550" d="M254.148,207.854c-0.269,0-0.426-0.139-0.468-0.422l-0.164-2.562c-0.717,0.979-1.559,1.758-2.521,2.332
			c-0.962,0.574-2.041,0.865-3.237,0.865c-1.991,0-3.544-0.691-4.659-2.072c-1.115-1.377-1.674-3.445-1.674-6.209
			c0-1.184,0.156-2.287,0.466-3.314c0.312-1.027,0.767-1.916,1.371-2.674c0.604-0.754,1.344-1.352,2.219-1.783
			c0.876-0.436,1.886-0.654,3.028-0.654c1.098,0,2.051,0.207,2.854,0.613c0.806,0.408,1.501,1.004,2.089,1.785v-9.615h1.547v23.711
			H254.148z M248.196,206.812c1.078,0,2.053-0.275,2.924-0.83c0.868-0.557,1.646-1.326,2.332-2.318v-8.555
			c-0.631-0.924-1.324-1.576-2.08-1.953c-0.757-0.383-1.613-0.568-2.571-0.568s-1.796,0.17-2.515,0.52
			c-0.717,0.348-1.318,0.838-1.804,1.475c-0.485,0.639-0.849,1.396-1.095,2.279c-0.244,0.889-0.365,1.861-0.365,2.928
			c0,2.412,0.446,4.188,1.338,5.32C245.253,206.244,246.531,206.812,248.196,206.812z"/>
		<path fill="#314550" d="M266.067,191.377c0.913,0,1.757,0.158,2.534,0.473c0.776,0.316,1.451,0.775,2.021,1.381
			c0.57,0.6,1.017,1.342,1.336,2.221c0.321,0.881,0.482,1.895,0.482,3.033c0,0.238-0.036,0.402-0.105,0.488
			c-0.07,0.088-0.183,0.129-0.334,0.129h-11.703v0.311c0,1.219,0.141,2.287,0.424,3.211c0.283,0.926,0.685,1.699,1.205,2.322
			c0.521,0.627,1.152,1.096,1.891,1.408c0.739,0.318,1.564,0.475,2.479,0.475c0.813,0,1.521-0.09,2.119-0.27
			c0.598-0.18,1.102-0.381,1.506-0.604c0.41-0.223,0.731-0.422,0.972-0.604c0.239-0.18,0.413-0.27,0.521-0.27
			c0.143,0,0.25,0.055,0.327,0.164l0.423,0.521c-0.261,0.326-0.604,0.629-1.033,0.914c-0.432,0.281-0.908,0.521-1.436,0.725
			c-0.527,0.201-1.092,0.359-1.693,0.479c-0.604,0.123-1.209,0.184-1.816,0.184c-1.11,0-2.12-0.195-3.032-0.582
			c-0.913-0.383-1.696-0.945-2.35-1.686c-0.653-0.738-1.159-1.643-1.518-2.713c-0.355-1.07-0.534-2.297-0.534-3.676
			c0-1.162,0.164-2.234,0.498-3.219c0.33-0.982,0.809-1.83,1.433-2.543c0.626-0.713,1.392-1.27,2.298-1.672
			C263.886,191.578,264.917,191.377,266.067,191.377z M266.093,192.535c-0.838,0-1.584,0.131-2.246,0.395
			c-0.662,0.26-1.234,0.633-1.717,1.121c-0.483,0.488-0.875,1.074-1.174,1.764c-0.298,0.684-0.496,1.449-0.593,2.295h10.675
			c0-0.865-0.117-1.646-0.357-2.336c-0.239-0.689-0.575-1.273-1.01-1.754c-0.434-0.479-0.954-0.844-1.562-1.098
			C267.501,192.662,266.829,192.535,266.093,192.535z"/>
		<path fill="#314550" d="M293.426,207.854c-0.271,0-0.425-0.139-0.468-0.422l-0.164-2.562c-0.717,0.979-1.559,1.758-2.521,2.332
			c-0.961,0.574-2.042,0.865-3.238,0.865c-1.99,0-3.544-0.691-4.658-2.072c-1.115-1.377-1.672-3.445-1.672-6.209
			c0-1.184,0.154-2.287,0.465-3.314s0.768-1.916,1.371-2.674c0.604-0.754,1.344-1.352,2.22-1.783
			c0.875-0.436,1.885-0.654,3.026-0.654c1.1,0,2.051,0.207,2.856,0.613c0.806,0.408,1.5,1.004,2.089,1.785v-9.615h1.548v23.711
			H293.426z M287.474,206.812c1.078,0,2.051-0.275,2.923-0.83c0.869-0.557,1.647-1.326,2.334-2.318v-8.555
			c-0.632-0.924-1.324-1.576-2.081-1.953c-0.757-0.383-1.615-0.568-2.57-0.568c-0.959,0-1.798,0.17-2.516,0.52
			c-0.718,0.348-1.318,0.838-1.804,1.475c-0.484,0.639-0.849,1.396-1.093,2.279c-0.246,0.889-0.367,1.861-0.367,2.928
			c0,2.412,0.445,4.188,1.338,5.32C284.53,206.244,285.809,206.812,287.474,206.812z"/>
		<path fill="#314550" d="M305.409,191.377c1.163,0,2.203,0.197,3.121,0.596c0.917,0.396,1.691,0.959,2.322,1.688
			c0.631,0.73,1.109,1.605,1.441,2.633c0.332,1.025,0.498,2.178,0.498,3.443c0,1.273-0.166,2.42-0.498,3.439
			c-0.332,1.023-0.812,1.896-1.441,2.625c-0.631,0.729-1.405,1.287-2.322,1.68c-0.918,0.391-1.958,0.588-3.121,0.588
			c-1.162,0-2.203-0.197-3.121-0.588c-0.918-0.393-1.694-0.951-2.33-1.68c-0.637-0.729-1.119-1.602-1.45-2.625
			c-0.332-1.02-0.498-2.166-0.498-3.439c0-1.268,0.166-2.418,0.498-3.443c0.331-1.025,0.812-1.902,1.45-2.633
			c0.636-0.729,1.412-1.291,2.33-1.688S304.247,191.377,305.409,191.377z M305.409,206.844c0.967,0,1.812-0.164,2.535-0.498
			c0.723-0.33,1.326-0.805,1.809-1.428c0.483-0.615,0.845-1.363,1.084-2.238c0.238-0.873,0.358-1.855,0.358-2.943
			c0-1.074-0.12-2.053-0.358-2.93c-0.239-0.881-0.601-1.637-1.084-2.26c-0.482-0.625-1.086-1.104-1.809-1.439
			c-0.724-0.338-1.568-0.51-2.535-0.51c-0.968,0-1.812,0.172-2.535,0.51c-0.723,0.336-1.324,0.814-1.808,1.439
			c-0.483,0.623-0.848,1.379-1.092,2.26c-0.244,0.877-0.366,1.855-0.366,2.93c0,1.088,0.123,2.07,0.366,2.943
			c0.244,0.875,0.608,1.623,1.092,2.238c0.483,0.623,1.085,1.098,1.808,1.428C303.598,206.68,304.441,206.844,305.409,206.844z"/>
		<path fill="#314550" d="M322.486,191.377c0.913,0,1.759,0.158,2.535,0.473c0.777,0.316,1.451,0.775,2.021,1.381
			c0.57,0.6,1.016,1.342,1.336,2.221c0.32,0.881,0.48,1.895,0.48,3.033c0,0.238-0.036,0.402-0.105,0.488
			c-0.07,0.088-0.182,0.129-0.334,0.129h-11.7v0.311c0,1.219,0.142,2.287,0.423,3.211c0.283,0.926,0.683,1.699,1.205,2.322
			c0.521,0.627,1.152,1.096,1.892,1.408c0.738,0.318,1.563,0.475,2.476,0.475c0.815,0,1.521-0.09,2.119-0.27
			s1.102-0.381,1.509-0.604s0.729-0.422,0.97-0.604c0.238-0.18,0.414-0.27,0.521-0.27c0.142,0,0.248,0.055,0.324,0.164l0.426,0.521
			c-0.263,0.326-0.605,0.629-1.035,0.914c-0.43,0.281-0.907,0.521-1.437,0.725c-0.526,0.201-1.091,0.359-1.692,0.479
			c-0.604,0.123-1.209,0.184-1.817,0.184c-1.106,0-2.118-0.195-3.031-0.582c-0.911-0.383-1.696-0.945-2.35-1.686
			c-0.654-0.738-1.159-1.643-1.517-2.713c-0.355-1.07-0.535-2.297-0.535-3.676c0-1.162,0.166-2.234,0.498-3.219
			c0.33-0.984,0.809-1.83,1.433-2.543c0.626-0.713,1.394-1.27,2.299-1.672C320.307,191.578,321.335,191.377,322.486,191.377z
			 M322.511,192.535c-0.835,0-1.583,0.131-2.244,0.395c-0.662,0.26-1.234,0.633-1.718,1.121c-0.481,0.488-0.872,1.074-1.171,1.764
			c-0.299,0.684-0.496,1.449-0.594,2.295h10.674c0-0.865-0.119-1.646-0.358-2.336c-0.239-0.691-0.574-1.273-1.01-1.754
			c-0.434-0.479-0.953-0.844-1.562-1.098C323.921,192.662,323.249,192.535,322.511,192.535z"/>
		<path fill="#314550" d="M332.544,207.854v-16.213h0.848c0.281,0,0.443,0.135,0.488,0.402l0.146,2.447
			c0.738-0.938,1.6-1.688,2.583-2.258c0.982-0.568,2.078-0.855,3.285-0.855c0.89,0,1.674,0.141,2.354,0.424
			c0.679,0.281,1.239,0.689,1.687,1.225c0.444,0.529,0.782,1.172,1.011,1.922s0.342,1.596,0.342,2.543v10.363h-1.548V197.49
			c0-1.52-0.348-2.715-1.043-3.578c-0.696-0.861-1.761-1.295-3.196-1.295c-1.063,0-2.052,0.273-2.963,0.822
			c-0.914,0.549-1.729,1.303-2.446,2.258v12.156H332.544z"/>
		<path fill="#314550" d="M353.452,212.305c0.056,0,0.129,0.029,0.222,0.09s0.212,0.123,0.356,0.195
			c0.146,0.068,0.329,0.137,0.547,0.195c0.217,0.061,0.483,0.088,0.799,0.088c0.554,0,0.985-0.117,1.295-0.357
			c0.311-0.236,0.466-0.566,0.466-0.979c0-0.271-0.071-0.496-0.214-0.678c-0.142-0.18-0.342-0.328-0.604-0.449
			c-0.26-0.117-0.565-0.209-0.92-0.273c-0.353-0.068-0.743-0.127-1.165-0.18l0.602-1.922c-0.944-0.066-1.808-0.307-2.59-0.711
			c-0.783-0.408-1.455-0.967-2.013-1.672c-0.56-0.705-0.993-1.555-1.296-2.549c-0.305-0.996-0.457-2.117-0.457-3.369
			c0-1.234,0.163-2.363,0.49-3.387c0.324-1.021,0.8-1.9,1.426-2.643c0.624-0.736,1.391-1.312,2.298-1.719
			c0.906-0.406,1.946-0.613,3.121-0.613c1.054,0,1.991,0.166,2.812,0.51c0.819,0.336,1.533,0.791,2.143,1.365l-0.406,0.557
			c-0.056,0.055-0.104,0.1-0.154,0.137c-0.05,0.039-0.117,0.059-0.205,0.059c-0.106,0-0.258-0.07-0.447-0.221
			c-0.189-0.146-0.441-0.307-0.758-0.479c-0.314-0.176-0.709-0.334-1.183-0.482c-0.473-0.145-1.045-0.221-1.719-0.221
			c-0.935,0-1.764,0.166-2.485,0.5c-0.724,0.33-1.332,0.805-1.824,1.426c-0.494,0.617-0.873,1.369-1.133,2.248
			c-0.262,0.879-0.393,1.869-0.393,2.963c0,1.145,0.134,2.154,0.398,3.033c0.267,0.881,0.646,1.623,1.134,2.229
			c0.487,0.604,1.082,1.062,1.774,1.375c0.696,0.316,1.467,0.475,2.315,0.475c0.782,0,1.438-0.094,1.964-0.277
			c0.525-0.186,0.962-0.387,1.303-0.604c0.344-0.217,0.613-0.416,0.816-0.605c0.201-0.184,0.361-0.275,0.479-0.275
			c0.144,0,0.252,0.055,0.326,0.164l0.424,0.521c-0.486,0.629-1.188,1.156-2.095,1.578c-0.907,0.426-1.937,0.66-3.087,0.705
			l-0.393,1.285c0.968,0.174,1.703,0.426,2.209,0.746c0.505,0.326,0.759,0.812,0.759,1.451c0,0.326-0.074,0.619-0.222,0.881
			c-0.146,0.264-0.354,0.48-0.618,0.66c-0.266,0.182-0.585,0.316-0.954,0.416c-0.37,0.098-0.771,0.146-1.206,0.146
			c-0.446,0-0.88-0.062-1.306-0.188c-0.422-0.127-0.774-0.293-1.058-0.498l0.162-0.457
			C353.257,212.369,353.344,212.305,353.452,212.305z"/>
		<path fill="#314550" d="M374.374,207.854c-0.32,0-0.523-0.152-0.6-0.457l-0.227-2.066c-0.447,0.436-0.893,0.824-1.33,1.172
			c-0.439,0.35-0.896,0.645-1.375,0.883c-0.479,0.236-0.994,0.42-1.549,0.545c-0.557,0.125-1.166,0.188-1.826,0.188
			c-0.555,0-1.09-0.082-1.613-0.246c-0.521-0.164-0.984-0.414-1.387-0.748c-0.401-0.338-0.723-0.77-0.973-1.297
			c-0.24-0.525-0.362-1.16-0.362-1.898c0-0.686,0.194-1.316,0.587-1.904c0.391-0.588,1.001-1.1,1.832-1.533
			c0.832-0.434,1.9-0.781,3.211-1.045c1.309-0.26,2.881-0.41,4.719-0.453v-1.693c0-1.498-0.322-2.652-0.969-3.467
			c-0.645-0.807-1.605-1.211-2.877-1.211c-0.783,0-1.449,0.105-1.998,0.322c-0.549,0.223-1.014,0.457-1.391,0.721
			c-0.385,0.26-0.693,0.498-0.933,0.715c-0.239,0.219-0.438,0.328-0.604,0.328c-0.219,0-0.381-0.1-0.487-0.293l-0.278-0.477
			c0.848-0.848,1.74-1.486,2.676-1.922c0.932-0.436,1.99-0.654,3.18-0.654c0.867,0,1.629,0.139,2.281,0.42
			c0.648,0.273,1.189,0.672,1.617,1.188c0.432,0.516,0.758,1.139,0.973,1.875c0.217,0.73,0.328,1.551,0.328,2.453v10.559
			L374.374,207.854L374.374,207.854z M367.86,206.99c0.627,0,1.209-0.064,1.734-0.201c0.525-0.135,1.016-0.33,1.467-0.57
			c0.449-0.244,0.873-0.535,1.262-0.871c0.391-0.338,0.777-0.701,1.158-1.092v-4.223c-1.543,0.043-2.871,0.158-3.984,0.354
			c-1.113,0.188-2.033,0.441-2.754,0.771c-0.725,0.324-1.258,0.711-1.598,1.16c-0.344,0.455-0.514,0.967-0.514,1.543
			c0,0.543,0.089,1.012,0.269,1.41c0.181,0.396,0.416,0.723,0.708,0.977c0.293,0.26,0.639,0.445,1.027,0.564
			C367.026,206.93,367.435,206.99,367.86,206.99z"/>
		<path fill="#314550" d="M388.331,193.645c-0.078,0.15-0.193,0.227-0.359,0.227c-0.117,0-0.273-0.064-0.463-0.203
			c-0.19-0.137-0.441-0.287-0.75-0.453c-0.312-0.172-0.689-0.322-1.143-0.459s-1.002-0.205-1.656-0.205
			c-0.584,0-1.117,0.088-1.604,0.254c-0.479,0.172-0.896,0.396-1.234,0.678c-0.344,0.283-0.609,0.609-0.801,0.986
			c-0.188,0.375-0.283,0.77-0.283,1.18c0,0.512,0.131,0.938,0.391,1.27c0.262,0.342,0.602,0.625,1.027,0.865
			c0.424,0.236,0.9,0.443,1.439,0.619c0.539,0.174,1.088,0.348,1.653,0.521c0.563,0.174,1.116,0.367,1.653,0.576
			c0.539,0.215,1.02,0.479,1.443,0.791c0.422,0.314,0.766,0.701,1.025,1.158c0.262,0.455,0.391,1.01,0.391,1.662
			c0,0.703-0.127,1.363-0.381,1.973c-0.254,0.607-0.627,1.135-1.109,1.582c-0.482,0.443-1.078,0.797-1.783,1.059
			c-0.707,0.26-1.51,0.393-2.412,0.393c-1.141,0-2.123-0.186-2.949-0.547c-0.826-0.365-1.562-0.838-2.219-1.428l0.377-0.551
			c0.057-0.088,0.113-0.154,0.182-0.197c0.062-0.045,0.154-0.064,0.275-0.064c0.141,0,0.312,0.086,0.521,0.264
			c0.205,0.172,0.473,0.357,0.805,0.559s0.746,0.393,1.24,0.564s1.105,0.26,1.83,0.26c0.688,0,1.289-0.096,1.811-0.285
			c0.521-0.191,0.955-0.449,1.305-0.773c0.35-0.322,0.609-0.709,0.793-1.148c0.178-0.439,0.266-0.904,0.266-1.395
			c0-0.541-0.129-0.996-0.391-1.352c-0.26-0.357-0.604-0.664-1.025-0.912c-0.424-0.252-0.902-0.463-1.439-0.637
			c-0.537-0.176-1.096-0.35-1.664-0.521c-0.57-0.176-1.125-0.367-1.66-0.568c-0.539-0.207-1.021-0.469-1.443-0.785
			c-0.422-0.312-0.768-0.697-1.027-1.146c-0.26-0.451-0.389-1.014-0.389-1.686c0-0.576,0.123-1.133,0.373-1.666
			c0.25-0.531,0.605-0.996,1.068-1.4c0.461-0.4,1.021-0.723,1.688-0.959c0.66-0.24,1.404-0.359,2.23-0.359
			c0.988,0,1.867,0.141,2.633,0.424c0.766,0.279,1.467,0.717,2.109,1.305L388.331,193.645z"/>
		<path fill="#314550" d="M398.726,213.59v-21.949h0.848c0.145,0,0.256,0.029,0.342,0.09c0.09,0.059,0.137,0.164,0.146,0.312
			l0.148,2.514c0.717-0.979,1.559-1.756,2.518-2.33c0.961-0.574,2.037-0.867,3.236-0.867c1.998,0,3.553,0.691,4.66,2.072
			c1.105,1.381,1.66,3.447,1.66,6.207c0,1.186-0.152,2.291-0.465,3.32c-0.309,1.025-0.764,1.914-1.359,2.672
			c-0.602,0.752-1.332,1.348-2.209,1.783c-0.873,0.434-1.883,0.652-3.023,0.652c-1.107,0-2.064-0.203-2.865-0.604
			c-0.807-0.4-1.5-1.002-2.088-1.791v7.918H398.726z M405.522,192.617c-1.076,0-2.053,0.279-2.926,0.838
			c-0.875,0.561-1.648,1.342-2.322,2.344v8.506c0.619,0.936,1.307,1.59,2.062,1.971c0.754,0.383,1.613,0.57,2.582,0.57
			c0.955,0,1.793-0.172,2.512-0.521c0.715-0.35,1.316-0.836,1.799-1.475c0.482-0.637,0.85-1.396,1.092-2.279
			c0.244-0.887,0.367-1.861,0.367-2.93c0-2.41-0.443-4.188-1.328-5.316C408.476,193.186,407.192,192.617,405.522,192.617z"/>
		<path fill="#314550" d="M426.022,207.854c-0.326,0-0.525-0.152-0.6-0.457l-0.23-2.066c-0.447,0.436-0.889,0.824-1.326,1.172
			c-0.439,0.35-0.898,0.645-1.377,0.883c-0.48,0.236-0.996,0.42-1.549,0.545c-0.557,0.125-1.164,0.188-1.828,0.188
			c-0.553,0-1.092-0.082-1.613-0.246c-0.52-0.164-0.982-0.414-1.383-0.748c-0.4-0.338-0.729-0.77-0.973-1.297
			c-0.244-0.525-0.365-1.16-0.365-1.898c0-0.686,0.193-1.316,0.584-1.904c0.396-0.588,1.004-1.1,1.836-1.533
			c0.828-0.434,1.9-0.781,3.209-1.045c1.312-0.26,2.881-0.41,4.719-0.453v-1.693c0-1.498-0.322-2.652-0.969-3.467
			c-0.646-0.807-1.604-1.211-2.875-1.211c-0.783,0-1.449,0.105-1.998,0.322c-0.547,0.223-1.012,0.457-1.395,0.721
			c-0.381,0.26-0.689,0.498-0.928,0.715c-0.24,0.219-0.441,0.328-0.604,0.328c-0.215,0-0.381-0.1-0.488-0.293l-0.275-0.477
			c0.846-0.848,1.737-1.486,2.676-1.922c0.932-0.436,1.99-0.654,3.176-0.654c0.869,0,1.629,0.139,2.281,0.42
			c0.652,0.273,1.19,0.672,1.621,1.188c0.428,0.516,0.752,1.139,0.967,1.875c0.224,0.73,0.33,1.551,0.33,2.453v10.559
			L426.022,207.854L426.022,207.854z M419.503,206.99c0.631,0,1.209-0.064,1.736-0.201c0.527-0.135,1.018-0.33,1.467-0.57
			c0.447-0.244,0.871-0.535,1.266-0.871c0.391-0.338,0.771-0.701,1.154-1.092v-4.223c-1.543,0.043-2.869,0.158-3.982,0.354
			c-1.115,0.188-2.035,0.441-2.756,0.771c-0.723,0.324-1.254,0.711-1.598,1.16c-0.346,0.455-0.514,0.967-0.514,1.543
			c0,0.543,0.088,1.012,0.268,1.41c0.182,0.396,0.418,0.723,0.713,0.977c0.291,0.26,0.633,0.445,1.023,0.564
			C418.672,206.93,419.079,206.99,419.503,206.99z"/>
		<path fill="#314550" d="M431.046,207.854v-16.213h0.811c0.188,0,0.32,0.039,0.402,0.111c0.082,0.076,0.125,0.207,0.139,0.393
			l0.129,3.422c0.521-1.314,1.219-2.344,2.084-3.088c0.871-0.744,1.941-1.119,3.213-1.119c0.488,0,0.943,0.053,1.354,0.154
			c0.412,0.107,0.803,0.256,1.174,0.451l-0.211,1.074c-0.035,0.176-0.146,0.262-0.328,0.262c-0.063,0-0.158-0.021-0.277-0.064
			c-0.118-0.043-0.268-0.092-0.445-0.146c-0.182-0.055-0.4-0.104-0.66-0.146c-0.263-0.041-0.56-0.061-0.896-0.061
			c-1.227,0-2.232,0.379-3.023,1.139c-0.785,0.762-1.427,1.857-1.91,3.293v10.543h-1.554V207.854z"/>
		<path fill="#314550" d="M453.026,207.854c-0.322,0-0.525-0.152-0.6-0.457l-0.23-2.066c-0.445,0.436-0.887,0.824-1.328,1.172
			c-0.438,0.35-0.896,0.645-1.377,0.883c-0.479,0.236-0.994,0.42-1.549,0.545c-0.553,0.125-1.164,0.188-1.822,0.188
			c-0.555,0-1.094-0.082-1.615-0.246c-0.521-0.164-0.982-0.414-1.385-0.748c-0.402-0.338-0.725-0.77-0.973-1.297
			c-0.242-0.525-0.365-1.16-0.365-1.898c0-0.686,0.197-1.316,0.588-1.904s1.002-1.1,1.832-1.533
			c0.832-0.434,1.902-0.781,3.209-1.045c1.312-0.26,2.887-0.41,4.723-0.453v-1.693c0-1.498-0.324-2.652-0.971-3.467
			c-0.646-0.807-1.605-1.211-2.877-1.211c-0.779,0-1.451,0.105-1.998,0.322c-0.547,0.223-1.014,0.457-1.395,0.721
			c-0.377,0.26-0.688,0.498-0.926,0.715c-0.242,0.219-0.439,0.328-0.605,0.328c-0.215,0-0.377-0.1-0.486-0.293l-0.277-0.477
			c0.848-0.848,1.74-1.486,2.674-1.922c0.936-0.436,1.994-0.654,3.182-0.654c0.865,0,1.629,0.139,2.279,0.42
			c0.652,0.273,1.191,0.672,1.619,1.188c0.434,0.516,0.752,1.139,0.971,1.875c0.219,0.73,0.324,1.551,0.324,2.453v10.559
			L453.026,207.854L453.026,207.854z M446.511,206.99c0.629,0,1.207-0.064,1.734-0.201c0.525-0.135,1.016-0.33,1.467-0.57
			c0.451-0.244,0.873-0.535,1.262-0.871c0.393-0.338,0.777-0.701,1.158-1.092v-4.223c-1.543,0.043-2.871,0.158-3.984,0.354
			c-1.113,0.188-2.033,0.441-2.758,0.771c-0.719,0.324-1.254,0.711-1.596,1.16c-0.34,0.455-0.514,0.967-0.514,1.543
			c0,0.543,0.092,1.012,0.27,1.41c0.18,0.396,0.418,0.723,0.711,0.977c0.293,0.26,0.633,0.445,1.021,0.564
			C445.679,206.93,446.085,206.99,446.511,206.99z"/>
		<path fill="#314550" d="M469.962,191.377c0.912,0,1.76,0.158,2.535,0.473c0.775,0.316,1.447,0.775,2.021,1.381
			c0.567,0.6,1.014,1.342,1.336,2.221c0.32,0.881,0.479,1.895,0.479,3.033c0,0.238-0.037,0.402-0.104,0.488
			c-0.072,0.088-0.183,0.129-0.334,0.129h-11.703v0.311c0,1.219,0.142,2.287,0.422,3.211c0.283,0.926,0.688,1.699,1.207,2.322
			c0.523,0.627,1.15,1.096,1.895,1.408c0.736,0.318,1.564,0.475,2.479,0.475c0.812,0,1.521-0.09,2.115-0.27
			c0.602-0.18,1.102-0.381,1.51-0.604c0.404-0.223,0.73-0.422,0.972-0.604c0.235-0.18,0.409-0.27,0.521-0.27
			c0.141,0,0.25,0.055,0.326,0.164l0.424,0.521c-0.263,0.326-0.604,0.629-1.035,0.914c-0.428,0.281-0.908,0.521-1.434,0.725
			c-0.525,0.201-1.093,0.359-1.693,0.479c-0.604,0.123-1.209,0.184-1.821,0.184c-1.104,0-2.117-0.195-3.028-0.582
			c-0.91-0.383-1.695-0.945-2.35-1.686c-0.653-0.738-1.157-1.643-1.518-2.713c-0.357-1.07-0.535-2.297-0.535-3.676
			c0-1.162,0.166-2.234,0.498-3.219s0.81-1.83,1.435-2.543s1.392-1.27,2.299-1.672C467.783,191.578,468.81,191.377,469.962,191.377z
			 M469.985,192.535c-0.832,0-1.584,0.131-2.244,0.395c-0.662,0.26-1.234,0.633-1.717,1.121c-0.484,0.488-0.873,1.074-1.172,1.764
			c-0.299,0.684-0.498,1.449-0.594,2.295h10.676c0-0.865-0.121-1.646-0.359-2.336c-0.234-0.689-0.576-1.273-1.01-1.754
			c-0.434-0.479-0.955-0.844-1.561-1.098C471.396,192.662,470.724,192.535,469.985,192.535z"/>
		<path fill="#314550" d="M485.706,207.854h-1.369l-6.844-16.213h1.223c0.15,0,0.271,0.041,0.365,0.121
			c0.092,0.082,0.158,0.17,0.203,0.268l5.348,12.793c0.105,0.252,0.188,0.49,0.24,0.721c0.059,0.229,0.109,0.451,0.164,0.684
			c0.057-0.229,0.111-0.459,0.17-0.689c0.062-0.234,0.145-0.473,0.24-0.711l5.377-12.793c0.057-0.119,0.127-0.215,0.223-0.285
			c0.09-0.068,0.201-0.104,0.33-0.104h1.176L485.706,207.854z"/>
		<path fill="#314550" d="M500.927,191.377c0.912,0,1.758,0.158,2.535,0.473c0.773,0.316,1.449,0.775,2.02,1.381
			c0.57,0.6,1.016,1.342,1.336,2.221c0.322,0.881,0.482,1.895,0.482,3.033c0,0.238-0.033,0.402-0.105,0.488
			c-0.074,0.088-0.184,0.129-0.336,0.129h-11.701v0.311c0,1.219,0.143,2.287,0.424,3.211c0.281,0.926,0.688,1.699,1.205,2.322
			c0.521,0.627,1.152,1.096,1.893,1.408c0.738,0.318,1.564,0.475,2.479,0.475c0.814,0,1.521-0.09,2.119-0.27
			c0.6-0.18,1.102-0.381,1.508-0.604c0.408-0.223,0.729-0.422,0.971-0.604c0.238-0.18,0.412-0.27,0.521-0.27
			c0.142,0,0.25,0.055,0.324,0.164l0.424,0.521c-0.26,0.326-0.604,0.629-1.033,0.914c-0.43,0.281-0.907,0.521-1.434,0.725
			c-0.527,0.201-1.093,0.359-1.695,0.479c-0.604,0.123-1.209,0.184-1.817,0.184c-1.106,0-2.116-0.195-3.03-0.582
			c-0.912-0.383-1.695-0.945-2.349-1.686c-0.651-0.738-1.159-1.643-1.519-2.713c-0.356-1.07-0.533-2.297-0.533-3.676
			c0-1.162,0.164-2.234,0.496-3.219s0.812-1.83,1.435-2.543c0.625-0.713,1.394-1.27,2.3-1.672
			C498.749,191.578,499.776,191.377,500.927,191.377z M500.95,192.535c-0.834,0-1.584,0.131-2.246,0.395
			c-0.66,0.26-1.23,0.633-1.715,1.121s-0.875,1.074-1.174,1.764c-0.297,0.684-0.494,1.449-0.592,2.295h10.676
			c0-0.865-0.121-1.646-0.361-2.336c-0.234-0.689-0.574-1.273-1.008-1.754c-0.436-0.479-0.955-0.844-1.562-1.098
			C502.36,192.662,501.69,192.535,500.95,192.535z"/>
		<path fill="#314550" d="M510.981,207.854v-16.213h0.848c0.283,0,0.443,0.135,0.488,0.402l0.146,2.447
			c0.74-0.938,1.602-1.688,2.584-2.258c0.982-0.568,2.078-0.855,3.285-0.855c0.889,0,1.676,0.141,2.354,0.424
			c0.68,0.281,1.242,0.689,1.688,1.225c0.445,0.529,0.781,1.172,1.012,1.922c0.229,0.75,0.344,1.596,0.344,2.543v10.363h-1.549
			V197.49c0-1.52-0.35-2.715-1.043-3.578c-0.697-0.861-1.764-1.295-3.195-1.295c-1.062,0-2.055,0.273-2.967,0.822
			c-0.91,0.549-1.729,1.303-2.443,2.258v12.156H510.981z"/>
		<path fill="#314550" d="M532.544,208.117c-1.1,0-1.949-0.307-2.561-0.914c-0.605-0.605-0.912-1.549-0.912-2.818v-11.082h-2.332
			c-0.117,0-0.217-0.031-0.291-0.098c-0.074-0.064-0.111-0.158-0.111-0.275v-0.605l2.77-0.193l0.387-5.805
			c0.012-0.098,0.053-0.184,0.119-0.262c0.07-0.076,0.164-0.113,0.283-0.113h0.727v6.193h5.102v1.156h-5.102v11.002
			c0,0.443,0.057,0.828,0.17,1.146c0.115,0.32,0.271,0.584,0.475,0.789c0.201,0.207,0.438,0.361,0.709,0.459
			s0.562,0.146,0.879,0.146c0.396,0,0.729-0.057,1.012-0.17c0.281-0.115,0.525-0.242,0.734-0.377
			c0.207-0.137,0.373-0.26,0.504-0.375c0.131-0.113,0.232-0.172,0.311-0.172c0.086,0,0.176,0.057,0.262,0.162l0.426,0.688
			c-0.414,0.457-0.939,0.822-1.572,1.1C533.888,207.979,533.229,208.117,532.544,208.117z"/>
		<path fill="#314550" d="M545.435,191.377c1.162,0,2.201,0.197,3.121,0.596c0.918,0.396,1.691,0.959,2.32,1.688
			c0.631,0.73,1.109,1.605,1.443,2.633c0.332,1.025,0.496,2.178,0.496,3.443c0,1.273-0.164,2.42-0.496,3.439
			c-0.334,1.023-0.812,1.896-1.443,2.625c-0.629,0.729-1.402,1.287-2.32,1.68c-0.92,0.391-1.959,0.588-3.121,0.588
			c-1.164,0-2.205-0.197-3.123-0.588c-0.916-0.393-1.695-0.951-2.328-1.68c-0.637-0.729-1.121-1.602-1.455-2.625
			c-0.328-1.02-0.496-2.166-0.496-3.439c0-1.268,0.168-2.418,0.496-3.443c0.334-1.025,0.818-1.902,1.455-2.633
			c0.633-0.729,1.412-1.291,2.328-1.688C543.229,191.576,544.271,191.377,545.435,191.377z M545.435,206.844
			c0.967,0,1.811-0.164,2.533-0.498c0.723-0.33,1.324-0.805,1.811-1.428c0.48-0.615,0.844-1.363,1.08-2.238
			c0.244-0.873,0.361-1.855,0.361-2.943c0-1.074-0.117-2.053-0.361-2.93c-0.236-0.881-0.6-1.637-1.08-2.26
			c-0.486-0.625-1.088-1.104-1.811-1.439c-0.723-0.338-1.566-0.51-2.533-0.51s-1.812,0.172-2.535,0.51
			c-0.725,0.336-1.326,0.814-1.811,1.439c-0.482,0.623-0.844,1.379-1.09,2.26c-0.244,0.877-0.367,1.855-0.367,2.93
			c0,1.088,0.123,2.07,0.367,2.943c0.246,0.875,0.605,1.623,1.09,2.238c0.482,0.623,1.086,1.098,1.811,1.428
			C543.622,206.68,544.468,206.844,545.435,206.844z"/>
		<path fill="#314550" d="M565.333,193.645c-0.074,0.15-0.193,0.227-0.355,0.227c-0.119,0-0.271-0.064-0.463-0.203
			c-0.193-0.137-0.443-0.287-0.752-0.453c-0.311-0.172-0.689-0.322-1.143-0.459c-0.451-0.137-1.002-0.205-1.652-0.205
			c-0.584,0-1.121,0.088-1.605,0.254c-0.48,0.172-0.896,0.396-1.236,0.678c-0.346,0.283-0.609,0.609-0.801,0.986
			c-0.189,0.375-0.283,0.77-0.283,1.18c0,0.512,0.131,0.938,0.391,1.27c0.262,0.342,0.604,0.625,1.025,0.865
			c0.426,0.236,0.904,0.443,1.441,0.619c0.539,0.174,1.09,0.348,1.654,0.521s1.115,0.367,1.654,0.576
			c0.537,0.215,1.018,0.479,1.443,0.791c0.422,0.314,0.764,0.701,1.023,1.158c0.262,0.455,0.393,1.01,0.393,1.662
			c0,0.703-0.127,1.363-0.385,1.973c-0.252,0.607-0.623,1.135-1.105,1.582c-0.482,0.443-1.078,0.797-1.787,1.059
			c-0.701,0.26-1.508,0.393-2.406,0.393c-1.143,0-2.125-0.186-2.953-0.547c-0.826-0.365-1.562-0.838-2.215-1.428l0.375-0.551
			c0.055-0.088,0.111-0.154,0.18-0.197c0.062-0.045,0.156-0.064,0.271-0.064c0.145,0,0.318,0.086,0.525,0.264
			c0.207,0.172,0.473,0.357,0.805,0.559c0.33,0.201,0.744,0.393,1.236,0.564c0.498,0.174,1.109,0.26,1.836,0.26
			c0.688,0,1.285-0.096,1.811-0.285c0.52-0.191,0.953-0.449,1.305-0.773c0.349-0.322,0.607-0.709,0.789-1.148
			c0.18-0.439,0.269-0.904,0.269-1.395c0-0.541-0.128-0.996-0.392-1.352c-0.258-0.357-0.604-0.664-1.021-0.912
			c-0.43-0.252-0.904-0.463-1.445-0.637c-0.537-0.176-1.09-0.35-1.662-0.521c-0.568-0.176-1.125-0.367-1.66-0.568
			c-0.537-0.207-1.021-0.469-1.443-0.785c-0.422-0.312-0.768-0.697-1.025-1.146c-0.262-0.451-0.393-1.014-0.393-1.686
			c0-0.576,0.125-1.133,0.375-1.666c0.25-0.531,0.605-0.996,1.068-1.4c0.461-0.4,1.023-0.723,1.688-0.959
			c0.662-0.24,1.404-0.359,2.232-0.359c0.988,0,1.863,0.141,2.633,0.424c0.762,0.279,1.467,0.717,2.107,1.305L565.333,193.645z"/>
		<path fill="#314550" d="M587.229,207.854c-0.268,0-0.422-0.139-0.465-0.422l-0.162-2.562c-0.723,0.979-1.561,1.758-2.521,2.332
			c-0.967,0.574-2.045,0.865-3.242,0.865c-1.986,0-3.541-0.691-4.654-2.072c-1.117-1.377-1.678-3.445-1.678-6.209
			c0-1.184,0.156-2.287,0.467-3.314s0.77-1.916,1.373-2.674c0.602-0.754,1.342-1.352,2.221-1.783
			c0.873-0.436,1.883-0.654,3.027-0.654c1.098,0,2.051,0.207,2.854,0.613c0.805,0.408,1.5,1.004,2.088,1.785v-9.615h1.549v23.711
			H587.229z M581.278,206.812c1.076,0,2.053-0.275,2.922-0.83c0.871-0.557,1.648-1.326,2.336-2.318v-8.555
			c-0.633-0.924-1.326-1.576-2.082-1.953c-0.756-0.383-1.611-0.568-2.568-0.568s-1.798,0.17-2.516,0.52
			c-0.719,0.348-1.318,0.838-1.805,1.475c-0.484,0.639-0.852,1.396-1.094,2.279c-0.242,0.889-0.367,1.861-0.367,2.928
			c0,2.412,0.445,4.188,1.338,5.32C578.337,206.244,579.612,206.812,581.278,206.812z"/>
		<path fill="#314550" d="M599.151,191.377c0.914,0,1.758,0.158,2.535,0.473c0.775,0.316,1.449,0.775,2.02,1.381
			c0.57,0.6,1.018,1.342,1.338,2.221c0.318,0.881,0.479,1.895,0.479,3.033c0,0.238-0.035,0.402-0.104,0.488
			c-0.071,0.088-0.183,0.129-0.334,0.129h-11.699v0.311c0,1.219,0.139,2.287,0.422,3.211c0.281,0.926,0.684,1.699,1.205,2.322
			c0.523,0.627,1.152,1.096,1.891,1.408c0.74,0.318,1.566,0.475,2.479,0.475c0.814,0,1.521-0.09,2.116-0.27
			c0.601-0.18,1.101-0.381,1.511-0.604c0.405-0.223,0.729-0.422,0.971-0.604c0.236-0.18,0.41-0.27,0.521-0.27
			c0.141,0,0.248,0.055,0.322,0.164l0.426,0.521c-0.264,0.326-0.604,0.629-1.031,0.914c-0.434,0.281-0.908,0.521-1.438,0.725
			c-0.523,0.201-1.09,0.359-1.691,0.479c-0.604,0.123-1.212,0.184-1.818,0.184c-1.106,0-2.119-0.195-3.031-0.582
			c-0.911-0.383-1.696-0.945-2.348-1.686c-0.652-0.738-1.16-1.643-1.519-2.713c-0.354-1.07-0.532-2.297-0.532-3.676
			c0-1.162,0.163-2.234,0.495-3.219s0.808-1.83,1.435-2.543c0.623-0.713,1.392-1.27,2.299-1.672
			C596.97,191.578,598.001,191.377,599.151,191.377z M599.175,192.535c-0.834,0-1.584,0.131-2.244,0.395
			c-0.662,0.26-1.236,0.633-1.719,1.121s-0.871,1.074-1.172,1.764c-0.295,0.684-0.494,1.449-0.594,2.295h10.676
			c0-0.865-0.121-1.646-0.359-2.336c-0.236-0.689-0.574-1.273-1.01-1.754c-0.434-0.479-0.951-0.844-1.562-1.098
			C600.587,192.662,599.913,192.535,599.175,192.535z"/>
		<path fill="#314550" d="M615.007,207.854v-16.213h0.85c0.281,0,0.441,0.135,0.488,0.402l0.145,2.35
			c0.316-0.447,0.654-0.854,1.014-1.221c0.355-0.371,0.74-0.689,1.146-0.955c0.408-0.266,0.844-0.473,1.305-0.617
			c0.461-0.15,0.947-0.223,1.457-0.223c1.188,0,2.133,0.346,2.838,1.035s1.186,1.646,1.436,2.877
			c0.193-0.674,0.469-1.258,0.82-1.746c0.354-0.486,0.758-0.893,1.215-1.211c0.451-0.322,0.945-0.562,1.484-0.717
			c0.537-0.16,1.09-0.238,1.654-0.238c0.799,0,1.523,0.133,2.164,0.4c0.639,0.264,1.182,0.658,1.635,1.182
			c0.449,0.521,0.793,1.158,1.029,1.922c0.244,0.762,0.361,1.629,0.361,2.609v10.361h-1.547V197.49c0-1.588-0.348-2.797-1.027-3.629
			c-0.686-0.828-1.662-1.244-2.934-1.244c-0.566,0-1.105,0.104-1.621,0.311c-0.52,0.207-0.975,0.512-1.373,0.918
			c-0.396,0.41-0.709,0.918-0.943,1.523c-0.232,0.609-0.35,1.312-0.35,2.121v10.361h-1.545V197.49c0-1.576-0.32-2.781-0.947-3.619
			c-0.631-0.836-1.549-1.254-2.754-1.254c-0.881,0-1.699,0.262-2.447,0.789c-0.752,0.525-1.416,1.258-2.002,2.191v12.254
			L615.007,207.854L615.007,207.854z"/>
		<path fill="#314550" d="M650.796,207.854c-0.326,0-0.529-0.152-0.604-0.457l-0.227-2.066c-0.447,0.436-0.893,0.824-1.33,1.172
			c-0.439,0.35-0.898,0.645-1.375,0.883c-0.479,0.236-0.994,0.42-1.55,0.545c-0.558,0.125-1.166,0.188-1.823,0.188
			c-0.556,0-1.093-0.082-1.615-0.246c-0.521-0.164-0.981-0.414-1.387-0.748c-0.4-0.338-0.724-0.77-0.97-1.297
			c-0.246-0.525-0.364-1.16-0.364-1.898c0-0.686,0.194-1.316,0.586-1.904c0.389-0.588,1.004-1.1,1.832-1.533
			c0.832-0.434,1.898-0.781,3.211-1.045c1.309-0.26,2.881-0.41,4.719-0.453v-1.693c0-1.498-0.322-2.652-0.969-3.467
			c-0.646-0.807-1.605-1.211-2.877-1.211c-0.781,0-1.449,0.105-1.998,0.322c-0.55,0.223-1.015,0.457-1.392,0.721
			c-0.384,0.26-0.692,0.498-0.931,0.715c-0.24,0.219-0.438,0.328-0.603,0.328c-0.221,0-0.383-0.1-0.489-0.293l-0.279-0.477
			c0.851-0.848,1.74-1.486,2.675-1.922s1.991-0.654,3.181-0.654c0.866,0,1.629,0.139,2.28,0.42c0.649,0.273,1.19,0.672,1.619,1.188
			c0.431,0.516,0.756,1.139,0.972,1.875c0.217,0.73,0.327,1.551,0.327,2.453v10.559L650.796,207.854L650.796,207.854z
			 M644.278,206.99c0.627,0,1.209-0.064,1.734-0.201c0.527-0.135,1.016-0.33,1.467-0.57c0.451-0.244,0.873-0.535,1.262-0.871
			c0.393-0.338,0.777-0.701,1.158-1.092v-4.223c-1.543,0.043-2.871,0.158-3.984,0.354c-1.113,0.188-2.029,0.441-2.754,0.771
			c-0.723,0.324-1.258,0.711-1.598,1.16c-0.342,0.455-0.514,0.967-0.514,1.543c0,0.543,0.092,1.012,0.27,1.41
			c0.18,0.396,0.416,0.723,0.707,0.977c0.293,0.26,0.639,0.445,1.027,0.564C643.444,206.93,643.854,206.99,644.278,206.99z"/>
		<path fill="#314550" d="M664.747,193.645c-0.078,0.15-0.195,0.227-0.359,0.227c-0.117,0-0.273-0.064-0.464-0.203
			c-0.188-0.137-0.44-0.287-0.75-0.453c-0.312-0.172-0.688-0.322-1.142-0.459s-1.002-0.205-1.656-0.205
			c-0.584,0-1.118,0.088-1.604,0.254c-0.479,0.172-0.896,0.396-1.236,0.678c-0.344,0.283-0.607,0.609-0.799,0.986
			c-0.188,0.375-0.285,0.77-0.285,1.18c0,0.512,0.133,0.938,0.393,1.27c0.262,0.342,0.602,0.625,1.025,0.865
			c0.426,0.236,0.902,0.443,1.441,0.619c0.539,0.174,1.09,0.348,1.653,0.521s1.116,0.367,1.653,0.576
			c0.539,0.215,1.02,0.479,1.443,0.791c0.422,0.314,0.766,0.701,1.025,1.158c0.262,0.455,0.391,1.01,0.391,1.662
			c0,0.703-0.127,1.363-0.381,1.973c-0.254,0.607-0.627,1.135-1.109,1.582c-0.481,0.443-1.078,0.797-1.783,1.059
			c-0.707,0.26-1.51,0.393-2.412,0.393c-1.141,0-2.123-0.186-2.95-0.547c-0.825-0.365-1.562-0.838-2.218-1.428l0.377-0.551
			c0.057-0.088,0.113-0.154,0.182-0.197c0.062-0.045,0.155-0.064,0.271-0.064c0.145,0,0.316,0.086,0.525,0.264
			c0.207,0.172,0.473,0.357,0.805,0.559s0.744,0.393,1.236,0.564c0.496,0.174,1.109,0.26,1.834,0.26
			c0.688,0,1.287-0.096,1.811-0.285c0.521-0.191,0.955-0.449,1.309-0.773c0.346-0.322,0.605-0.709,0.789-1.148
			c0.178-0.439,0.266-0.904,0.266-1.395c0-0.541-0.129-0.996-0.391-1.352c-0.259-0.357-0.604-0.664-1.025-0.912
			c-0.424-0.252-0.9-0.463-1.439-0.637c-0.539-0.176-1.096-0.35-1.664-0.521c-0.568-0.176-1.125-0.367-1.66-0.568
			c-0.539-0.207-1.021-0.469-1.443-0.785c-0.422-0.312-0.768-0.697-1.026-1.146c-0.261-0.451-0.39-1.014-0.39-1.686
			c0-0.576,0.123-1.133,0.373-1.666c0.25-0.531,0.604-0.996,1.068-1.4c0.461-0.4,1.021-0.723,1.688-0.959
			c0.66-0.24,1.404-0.359,2.232-0.359c0.986,0,1.865,0.141,2.633,0.424c0.764,0.279,1.465,0.717,2.107,1.305L664.747,193.645z"/>
		<path fill="#314550" d="M678.274,193.645c-0.076,0.15-0.195,0.227-0.361,0.227c-0.117,0-0.271-0.064-0.463-0.203
			c-0.188-0.137-0.439-0.287-0.75-0.453c-0.311-0.172-0.688-0.322-1.137-0.459c-0.455-0.137-1.004-0.205-1.658-0.205
			c-0.586,0-1.121,0.088-1.604,0.254c-0.482,0.172-0.896,0.396-1.238,0.678c-0.342,0.283-0.605,0.609-0.799,0.986
			c-0.188,0.375-0.283,0.77-0.283,1.18c0,0.512,0.129,0.938,0.389,1.27c0.264,0.342,0.604,0.625,1.027,0.865
			c0.424,0.236,0.902,0.443,1.439,0.619c0.539,0.174,1.088,0.348,1.654,0.521s1.119,0.367,1.656,0.576
			c0.537,0.215,1.018,0.479,1.441,0.791c0.422,0.314,0.766,0.701,1.023,1.158c0.264,0.455,0.393,1.01,0.393,1.662
			c0,0.703-0.125,1.363-0.379,1.973c-0.258,0.607-0.629,1.135-1.111,1.582c-0.482,0.443-1.078,0.797-1.783,1.059
			c-0.707,0.26-1.51,0.393-2.412,0.393c-1.141,0-2.123-0.186-2.951-0.547c-0.826-0.365-1.562-0.838-2.215-1.428l0.373-0.551
			c0.055-0.088,0.115-0.154,0.182-0.197c0.062-0.045,0.156-0.064,0.277-0.064c0.139,0,0.312,0.086,0.521,0.264
			c0.205,0.172,0.475,0.357,0.805,0.559c0.332,0.201,0.746,0.393,1.24,0.564s1.104,0.26,1.83,0.26c0.688,0,1.289-0.096,1.811-0.285
			c0.521-0.191,0.957-0.449,1.305-0.773c0.348-0.322,0.611-0.709,0.791-1.148c0.178-0.439,0.266-0.904,0.266-1.395
			c0-0.541-0.129-0.996-0.389-1.352c-0.26-0.357-0.604-0.664-1.025-0.912c-0.426-0.252-0.904-0.463-1.441-0.637
			c-0.537-0.176-1.092-0.35-1.662-0.521c-0.568-0.176-1.127-0.367-1.662-0.568c-0.539-0.207-1.021-0.469-1.441-0.785
			c-0.422-0.312-0.77-0.697-1.023-1.146c-0.264-0.451-0.393-1.014-0.393-1.686c0-0.576,0.123-1.133,0.375-1.666
			c0.25-0.531,0.604-0.996,1.064-1.4c0.463-0.4,1.025-0.723,1.688-0.959c0.659-0.24,1.405-0.359,2.229-0.359
			c0.988,0,1.867,0.141,2.634,0.424c0.767,0.279,1.469,0.717,2.108,1.305L678.274,193.645z"/>
		<path fill="#314550" d="M693.218,207.854c-0.328,0-0.527-0.152-0.604-0.457l-0.229-2.066c-0.445,0.436-0.889,0.824-1.326,1.172
			c-0.439,0.35-0.9,0.645-1.379,0.883c-0.479,0.236-0.994,0.42-1.547,0.545c-0.555,0.125-1.164,0.188-1.826,0.188
			c-0.555,0-1.092-0.082-1.615-0.246c-0.52-0.164-0.982-0.414-1.385-0.748c-0.4-0.338-0.723-0.77-0.969-1.297
			c-0.246-0.525-0.367-1.16-0.367-1.898c0-0.686,0.195-1.316,0.588-1.904c0.391-0.588,1.002-1.1,1.832-1.533s1.9-0.781,3.209-1.045
			c1.311-0.26,2.887-0.41,4.719-0.453v-1.693c0-1.498-0.322-2.652-0.969-3.467c-0.645-0.807-1.605-1.211-2.875-1.211
			c-0.781,0-1.449,0.105-1.996,0.322c-0.549,0.223-1.014,0.457-1.395,0.721c-0.384,0.26-0.691,0.498-0.932,0.715
			c-0.238,0.219-0.438,0.328-0.602,0.328c-0.219,0-0.385-0.1-0.49-0.293l-0.276-0.477c0.849-0.848,1.737-1.486,2.677-1.922
			c0.934-0.436,1.989-0.654,3.176-0.654c0.871,0,1.629,0.139,2.281,0.42c0.65,0.273,1.191,0.672,1.623,1.188
			c0.426,0.516,0.752,1.139,0.967,1.875c0.221,0.73,0.328,1.551,0.328,2.453v10.559L693.218,207.854L693.218,207.854z
			 M686.698,206.99c0.629,0,1.211-0.064,1.736-0.201c0.527-0.135,1.016-0.33,1.465-0.57c0.451-0.244,0.875-0.535,1.266-0.871
			c0.393-0.338,0.775-0.701,1.154-1.092v-4.223c-1.541,0.043-2.869,0.158-3.982,0.354c-1.115,0.188-2.031,0.441-2.756,0.771
			c-0.723,0.324-1.254,0.711-1.596,1.16c-0.344,0.455-0.512,0.967-0.512,1.543c0,0.543,0.088,1.012,0.266,1.41
			c0.182,0.396,0.416,0.723,0.711,0.977c0.291,0.26,0.635,0.445,1.025,0.564C685.865,206.93,686.274,206.99,686.698,206.99z"/>
	</g>
</g>
</svg>
