<?xml version="1.0" encoding="utf-8"?>
<!-- Generator: Adobe Illustrator 16.0.0, SVG Export Plug-In . SVG Version: 6.00 Build 0)  -->
<!DOCTYPE svg PUBLIC "-//W3C//DTD SVG 1.1//EN" "http://www.w3.org/Graphics/SVG/1.1/DTD/svg11.dtd">
<svg version="1.1" id="Layer_1" xmlns="http://www.w3.org/2000/svg" xmlns:xlink="http://www.w3.org/1999/xlink" x="0px" y="0px"
	 width="630.074px" height="197.99px" viewBox="0 0 630.074 197.99" enable-background="new 0 0 630.074 197.99"
	 xml:space="preserve">
<g>
	
		<linearGradient id="SVGID_1_" gradientUnits="userSpaceOnUse" x1="95.9351" y1="-44.5825" x2="701.4337" y2="-48.2154" gradientTransform="matrix(1 0 0 -1 -156 52.9902)">
		<stop  offset="0.1902" style="stop-color:#7B331D"/>
		<stop  offset="0.205" style="stop-color:#863221"/>
		<stop  offset="0.2328" style="stop-color:#962E26"/>
		<stop  offset="0.2515" style="stop-color:#9C2C28"/>
		<stop  offset="0.3865" style="stop-color:#DE7237"/>
		<stop  offset="0.4908" style="stop-color:#FDBB3E"/>
		<stop  offset="0.5125" style="stop-color:#FDC864"/>
		<stop  offset="0.5379" style="stop-color:#FED588"/>
		<stop  offset="0.5665" style="stop-color:#FEE0A8"/>
		<stop  offset="0.5981" style="stop-color:#FEEAC4"/>
		<stop  offset="0.6338" style="stop-color:#FFF2DA"/>
		<stop  offset="0.6755" style="stop-color:#FFF8EB"/>
		<stop  offset="0.727" style="stop-color:#FFFCF6"/>
		<stop  offset="0.7993" style="stop-color:#FFFEFD"/>
		<stop  offset="1" style="stop-color:#FFFFFF"/>
	</linearGradient>
	<path fill="url(#SVGID_1_)" d="M228.107,18.963l-2.928-2.139l-2.936,2.139c-6.773,4.934-12.834,10.422-18.153,16.296
		c-5.31-5.874-11.38-11.343-18.182-16.296l-2.917-2.139l-2.927,2.139c-6.782,4.934-12.843,10.422-18.153,16.296
		c-5.338-5.874-11.399-11.343-18.191-16.296l-2.926-2.139l-2.919,2.139c-6.792,4.934-12.852,10.422-18.163,16.296
		c-5.329-5.874-11.397-11.343-18.191-16.296l-2.917-2.139l-2.926,2.139c-9.308,6.792-17.301,14.56-23.821,23.032
		c0,0-3.537,4.447-5.985,8.622C56.659,65.449,51.677,81.98,51.677,98.905c0,16.934,4.982,33.446,14.195,48.297
		c1.828,2.938,3.828,5.816,5.985,8.622c6.521,8.461,14.514,16.231,23.821,23.032l2.926,2.129l2.917-2.129
		c6.794-4.953,12.862-10.424,18.191-16.287c5.312,5.863,11.371,11.342,18.163,16.287l2.919,2.129l2.926-2.129
		c6.792-4.953,12.853-10.424,18.191-16.287c5.31,5.863,11.371,11.342,18.153,16.287l2.927,2.129l2.917-2.129
		c6.802-4.953,12.872-10.424,18.182-16.287c5.319,5.863,11.38,11.342,18.153,16.287l2.936,2.129l2.928-2.129
		c27.968-20.388,43.991-49.526,43.991-79.952C272.099,68.489,256.075,39.349,228.107,18.963z M182.991,29.189
		c23.567,18.341,37.002,43.578,37.002,69.715c0,16.85-5.611,33.324-15.902,47.809c-2.074-2.926-3.968-5.91-5.647-8.968
		c-6.661-12.18-10.263-25.389-10.263-38.841c0-13.463,3.603-26.663,10.263-38.822c-1.783-3.246-4.25-5.628-6.465-8.696
		c-3.968,6.389-6.623,12.327-8.968,19.251c-3.265-9.701-8.246-18.989-14.701-27.573C172.634,38.102,177.475,33.477,182.991,29.189z
		 M140.793,29.189c23.565,18.341,37,43.578,37,69.715c0,16.85-5.61,33.324-15.883,47.809c-2.083-2.926-3.987-5.91-5.667-8.968
		c-6.661-12.18-10.253-25.389-10.253-38.841c0-13.463,3.593-26.663,10.253-38.822c-1.773-3.246-4.249-5.628-6.465-8.696
		c-3.958,6.389-6.623,12.327-8.959,19.251c-3.274-9.701-8.255-18.989-14.69-27.573C130.454,38.129,135.313,33.448,140.793,29.189z
		 M98.603,168.619c-8.219-6.369-15.151-13.613-20.752-21.418c-2.214-3.078-4.212-6.229-5.996-9.456
		c-6.67-12.18-10.263-25.389-10.263-38.841c0-13.463,3.593-26.663,10.263-38.822c0,0,3.125-5.704,5.996-9.466
		c5.601-7.806,12.533-15.049,20.752-21.428c23.548,18.341,37.002,43.578,37.002,69.715c0,16.85-5.611,33.325-15.894,47.809
		c-2.073-2.926-3.968-5.91-5.656-8.968c-6.68-12.179-10.274-25.39-10.274-38.841c0-13.463,3.594-26.663,10.274-38.822
		c-1.774-3.246-4.259-5.628-6.465-8.696c-9.212,14.842-13.716,30.593-13.716,47.518c0,16.934,4.962,33.446,14.185,48.297
		c1.613,2.581,3.377,5.121,5.235,7.601C108.97,159.735,104.063,164.369,98.603,168.619z M140.793,168.619
		c-5.479-4.25-10.339-8.921-14.674-13.864c6.445-8.595,11.427-17.883,14.701-27.564c2.337,6.916,5.471,13.613,9.448,20.012
		c1.605,2.581,3.368,5.121,5.227,7.601C151.167,159.735,146.271,164.369,140.793,168.619z M182.991,168.619
		c-5.479-4.25-10.338-8.921-14.682-13.864c6.463-8.604,11.436-17.883,14.701-27.564c2.346,6.916,5.469,13.613,9.438,20.012
		c1.614,2.581,3.378,5.121,5.254,7.601C193.348,159.735,188.47,164.369,182.991,168.619z M225.18,168.619
		c-5.469-4.25-10.338-8.921-14.663-13.864c12.524-16.691,19.401-35.999,19.401-55.851s-6.877-39.159-19.401-55.84
		c4.325-4.935,9.193-9.617,14.663-13.875c23.577,18.341,37.002,43.578,37.002,69.715
		C262.182,125.054,248.757,150.278,225.18,168.619z"/>
	<g>
		<path fill="#7A1600" d="M335.52,68.583c-2.703-1.802-3.903-2.28-5.705-2.28c-2.4,0-4.082,1.38-4.082,3.297
			c0,1.501,0.959,2.463,3.783,3.665l3.901,1.679c3.235,1.378,4.926,3.841,4.926,7.083c0,4.682-3.97,8.228-9.308,8.228
			c-3.668,0-6.727-1.323-9.25-4.024l2.523-3.303c2.401,2.341,4.56,3.424,7.027,3.424c2.514,0,4.38-1.562,4.38-3.724
			c0-1.679-0.843-2.524-3.724-3.72c-6.906-2.819-8.643-4.503-8.643-8.524c0-4.564,3.717-8.104,8.406-8.104
			c2.692,0,5.159,0.839,7.617,2.64L335.52,68.583z"/>
		<path fill="#7A1600" d="M349.422,47.511v17.708c0,4.563,0,5.521-0.244,9.602l0.188,0.065c2.514-2.767,3.112-3.367,6.183-6.304
			l6.061-5.883l4.859,0.958l-9.662,9.246c-0.302,0.3-0.658,0.54-1.502,1.319c0.957,1.021,1.323,1.444,1.744,1.922l11.1,13.445
			h-5.938l-9.662-11.766c-0.366-0.417-0.479-0.54-0.724-1.079c-0.244,0.479-0.355,0.601-0.779,0.962l-1.622,1.439v10.443h-4.926
			V47.511H349.422z"/>
		<path fill="#7A1600" d="M396.283,76.322c0,8.167-5.581,13.932-13.499,13.932c-7.984,0-13.632-5.765-13.632-13.81
			c0-8.223,5.76-14.166,13.742-14.166C390.58,62.279,396.283,68.222,396.283,76.322z M374.312,75.604
			c0,6.123,3.847,10.747,8.949,10.747c4.682,0,7.862-3.781,7.862-9.246c0-6.183-3.724-10.746-8.765-10.746
			C377.559,66.359,374.312,70.083,374.312,75.604z"/>
		<path fill="#7A1600" d="M407.776,47.511v42.078h-4.927V47.511H407.776z"/>
		<path fill="#7A1600" d="M420.883,47.511v42.078h-4.926V47.511H420.883z"/>
		<path fill="#7A1600" d="M439.608,81.848c-1.023,1.023-1.381,1.679-1.381,2.641c0,1.261,1.079,1.919,3.902,2.518l7.985,1.624
			c3.959,0.779,6.604,3.781,6.604,7.505c0,5.939-5.469,10.143-13.21,10.143c-7.139,0-12.187-3.543-12.187-8.585
			c0-3.419,2.225-5.82,7.083-7.623v-0.238c-2.88-0.962-3.958-2.102-3.958-4.143c0-1.863,0.956-3.186,3.479-4.743l0.18-0.123
			l-0.058-0.121c-3.479-1.679-5.226-4.616-5.226-8.703c0-5.881,4.446-9.9,10.985-9.9c1.746,0,2.824,0.238,4.805,0.956h9.541v3.303
			l-3.358-0.356c-1.623-0.123-2.103-0.244-3.604-0.667l-0.121,0.183c2.7,2.52,3.425,4.021,3.425,6.966
			c0,5.699-4.382,9.786-10.564,9.786c-1.68,0-2.823-0.183-4.146-0.601L439.608,81.848z M440.632,91.033
			c-3.181,1.558-4.684,3.48-4.684,5.883c0,3.302,3.604,5.821,8.342,5.821c4.682,0,7.805-2.219,7.805-5.521
			c0-2.824-1.743-4.204-6.481-5.16L440.632,91.033z M437.685,72.001c0,4.443,2.28,7.084,6.006,7.084
			c3.724,0,5.947-2.397,5.947-6.483c0-4.38-2.467-7.321-6.183-7.321C439.853,65.281,437.685,67.804,437.685,72.001z"/>
		<path fill="#7A1600" d="M468.091,47.511v42.078h-4.924V47.511H468.091z"/>
		<path fill="#7A1600" d="M501.753,76.322c0,8.167-5.582,13.932-13.501,13.932c-7.983,0-13.631-5.765-13.631-13.81
			c0-8.223,5.76-14.166,13.743-14.166C496.05,62.279,501.753,68.222,501.753,76.322z M479.78,75.604
			c0,6.123,3.848,10.747,8.951,10.747c4.682,0,7.861-3.781,7.861-9.246c0-6.183-3.725-10.746-8.763-10.746
			C483.026,66.359,479.78,70.083,479.78,75.604z"/>
		<path fill="#7A1600" d="M513.16,47.511v10.925c0,3.302,0,4.02-0.244,6.966l0.123,0.055c3.002-2.157,4.803-2.819,7.506-2.819
			c6.839,0,11.942,5.766,11.942,13.45c0,8.401-5.705,14.166-13.933,14.166c-3.659,0-5.882-0.6-10.318-2.945V47.511H513.16z
			 M513.16,80.948c0,1.923,0,2.223-0.244,3.841c2.159,1.263,3.604,1.68,5.64,1.68c5.282,0,8.706-3.78,8.706-9.663
			c0-5.943-3.424-9.968-8.462-9.968c-2.347,0-3.725,0.543-5.884,2.167c0.244,1.618,0.244,1.979,0.244,3.837V80.948L513.16,80.948z"
			/>
		<path fill="#7A1600" d="M538.511,65.281c3.725-2.042,6.427-2.825,9.606-2.825c2.824,0,5.349,0.961,6.85,2.581
			c1.257,1.383,1.856,3.602,1.856,7.266v8.701c0,3.002,0,3.068,0.234,3.904c0.244,1.083,1.201,1.745,2.347,1.745
			c0.355,0,1.021-0.123,1.557-0.244l-0.714,3.48c-0.966,0.244-1.501,0.3-2.401,0.3c-2.943,0-4.444-1.017-5.225-3.48
			c-3.061,2.646-5.104,3.546-8.041,3.546c-4.568,0-7.628-3.002-7.628-7.565c0-6,4.504-8.885,15.188-9.786
			c-0.177-0.361-0.242-0.601-0.242-1.019v-0.482c0-3.297-1.501-4.864-4.615-4.864c-2.59,0-4.626,0.722-8.772,3.002V65.281
			L538.511,65.281z M551.898,78.368c0-1.202,0-1.446,0.242-2.524c-7.506,1.079-10.328,2.881-10.328,6.661
			c0,2.403,1.744,3.964,4.446,3.964c1.857,0,2.815-0.361,5.64-2.041V78.368z"/>
		<path fill="#7A1600" d="M570.802,47.511v42.078h-4.924V47.511H570.802z"/>
		<path fill="#7A1600" d="M322.169,126.701h-6.062c-0.656,0-0.779,0-1.378-0.179c0.179,0.603,0.179,0.726,0.179,1.379v12.846
			c0,4.087,0.843,5.227,3.779,5.227c1.5,0,2.646-0.238,4.746-1.082l0.715,3.305c-2.215,1.201-4.383,1.736-7.021,1.736
			c-2.645,0-5.225-1.136-6.125-2.761c-0.835-1.438-1.021-2.879-1.021-7.202v-12.066c0-0.654,0-0.777,0.187-1.381
			c-0.601,0.18-0.722,0.18-1.388,0.18h-4.438v-2.941c6.782-0.359,6.838-0.477,7.928-8.16h3.057l-0.365,6.299
			c0,0.603-0.055,0.783-0.233,1.386c0.599-0.185,0.722-0.185,1.377-0.185h6.062L322.169,126.701L322.169,126.701z"/>
		<path fill="#7A1600" d="M333.811,107.554v9.605c0,4.738-0.057,5.699-0.299,9.966l0.178,0.056c2.759-3.48,5.348-4.857,8.94-4.857
			c5.226,0,8.949,3.902,8.949,9.424v17.885h-4.927v-15.902c0-2.824-0.299-4.203-1.133-5.281c-0.969-1.266-2.59-2.045-4.326-2.045
			c-2.758,0-4.926,1.203-7.383,4.205v19.023h-4.925v-42.076h4.925V107.554z"/>
		<path fill="#7A1600" d="M364.424,129.228c2.336-4.625,4.737-6.904,7.316-6.904c1.324,0,2.102,0.178,4.203,1.02l-1.201,4.141
			c-1.801-0.604-2.401-0.719-3.235-0.719c-2.346,0-4.325,1.618-6.85,5.521v17.347h-4.925v-15.902c0-6.664-0.301-8.227-1.801-9.666
			l4.146-1.739c1.444,1.198,1.923,2.823,2.103,6.903H364.424L364.424,129.228z"/>
		<path fill="#7A1600" d="M384.199,136.009c-0.545,0-0.665,0-1.088-0.242c0.065,6.363,3.367,10.207,8.884,10.207
			c2.823,0,5.349-1.022,7.271-2.942l2.517,2.581c-2.938,3.186-6.306,4.686-10.688,4.686c-7.617,0-12.843-5.586-12.843-13.809
			c0-8.225,5.461-14.166,12.91-14.166c6.358,0,10.62,4.439,10.62,10.924l-2.28,2.763L384.199,136.009L384.199,136.009z
			 M395.421,132.765c0.956,0,1.145,0,1.979,0.241c-0.356-4.259-2.938-6.903-6.842-6.903c-3.845,0-6.548,2.521-7.382,6.903
			c1.378-0.241,1.679-0.241,3.237-0.241H395.421z"/>
		<path fill="#7A1600" d="M407.812,125.324c3.726-2.041,6.418-2.824,9.607-2.824c2.814,0,5.338,0.962,6.839,2.578
			c1.258,1.386,1.858,3.604,1.858,7.269v8.701c0,3.002,0,3.066,0.242,3.902c0.246,1.082,1.2,1.744,2.348,1.744
			c0.354,0,1.012-0.121,1.557-0.244l-0.724,3.48c-0.956,0.242-1.5,0.301-2.4,0.301c-2.938,0-4.438-1.02-5.227-3.48
			c-3.058,2.646-5.095,3.546-8.04,3.546c-4.559,0-7.627-3.002-7.627-7.565c0-6,4.504-8.885,15.188-9.785
			c-0.179-0.36-0.234-0.6-0.234-1.019v-0.481c0-3.299-1.501-4.864-4.625-4.864c-2.581,0-4.624,0.722-8.765,3.002v-4.26H407.812z
			 M421.201,138.411c0-1.201,0-1.444,0.234-2.525c-7.506,1.081-10.319,2.883-10.319,6.662c0,2.402,1.735,3.965,4.438,3.965
			c1.867,0,2.823-0.359,5.647-2.041V138.411L421.201,138.411z"/>
		<path fill="#7A1600" d="M448.681,126.701h-6.062c-0.656,0-0.777,0-1.378-0.179c0.178,0.603,0.178,0.726,0.178,1.379v12.846
			c0,4.087,0.844,5.227,3.781,5.227c1.5,0,2.646-0.238,4.748-1.082l0.711,3.305c-2.214,1.201-4.38,1.736-7.018,1.736
			c-2.646,0-5.226-1.136-6.127-2.761c-0.833-1.438-1.021-2.879-1.021-7.202v-12.066c0-0.654,0-0.777,0.188-1.381
			c-0.603,0.18-0.724,0.18-1.389,0.18h-4.439v-2.941c6.784-0.359,6.84-0.477,7.929-8.16h3.06l-0.365,6.299
			c0,0.603-0.058,0.783-0.234,1.386c0.601-0.185,0.722-0.185,1.378-0.185h6.062L448.681,126.701L448.681,126.701z"/>
		<path fill="#7A1600" d="M469.479,128.624c-2.7-1.801-3.901-2.279-5.702-2.279c-2.401,0-4.081,1.379-4.081,3.301
			c0,1.5,0.956,2.461,3.778,3.662l3.904,1.678c3.236,1.381,4.926,3.845,4.926,7.084c0,4.683-3.97,8.229-9.308,8.229
			c-3.669,0-6.728-1.32-9.251-4.025l2.523-3.299c2.401,2.338,4.56,3.422,7.026,3.422c2.515,0,4.382-1.561,4.382-3.725
			c0-1.681-0.845-2.521-3.725-3.721c-6.906-2.818-8.642-4.502-8.642-8.521c0-4.564,3.716-8.104,8.405-8.104
			c2.692,0,5.161,0.839,7.618,2.64L469.479,128.624z"/>
		<path fill="#7A1600" d="M497.521,125.862h-6.127c-0.656,0-0.777,0-1.321-0.117c0.121,0.535,0.121,0.656,0.121,1.318v22.75h-3.426
			v-22.75c0-0.662,0-0.783,0.123-1.318c-0.545,0.117-0.656,0.117-1.321,0.117h-4.438v-2.579h4.438c0.665,0,0.776,0,1.321,0.116
			c-0.123-0.541-0.123-0.656-0.123-1.317v-3.119c0-7.808,3.904-12.008,11.166-12.008c0.844,0,1.443,0.062,2.345,0.239l-0.421,2.817
			c-0.836-0.233-1.26-0.302-2.103-0.302c-5.217,0-7.562,2.887-7.562,9.309v3.062c0,0.661,0,0.777-0.121,1.318
			c0.544-0.117,0.665-0.117,1.321-0.117h6.127V125.862z"/>
		<path fill="#7A1600" d="M523.771,142.313c0,4.319,0.364,5.215,2.288,5.215c0.414,0,1.191-0.116,1.915-0.356l-0.423,2.459
			c-0.957,0.365-1.612,0.484-2.458,0.484c-2.703,0-4.024-1.263-4.325-3.964l-0.111-0.059c-3.002,2.938-5.403,4.08-8.951,4.08
			c-2.879,0-5.703-1.26-7.204-3.3c-1.257-1.681-1.68-3.604-1.68-7.562v-16.33h3.425v16.263c0,5.647,1.924,7.985,6.539,7.985
			c2.824,0,4.625-0.836,7.571-3.537v-20.711h3.413L523.771,142.313L523.771,142.313z"/>
		<path fill="#7A1600" d="M536.568,127.546c3.002-3.546,5.582-4.986,9.119-4.986c5.403,0,8.949,3.785,8.949,9.547v17.709h-3.425
			v-16.027c0-3.421-0.299-4.807-1.379-6.062c-1.2-1.379-3.003-2.223-4.925-2.223c-3.06,0-5.405,1.262-8.098,4.324v19.988h-3.425
			v-17.229c0-5.46-0.364-7.261-1.866-8.642l2.891-1.385c1.257,1.262,1.734,2.465,1.979,4.922L536.568,127.546z"/>
		<path fill="#7A1600" d="M585.062,142.313c0,4.381,0.355,5.215,2.279,5.215c0.412,0,0.9-0.057,1.913-0.356l-0.412,2.459
			c-1.022,0.365-1.624,0.484-2.467,0.484c-2.403,0-3.839-1.084-4.383-3.241c-2.758,2.339-5.159,3.3-8.284,3.3
			c-7.083,0-12.121-5.524-12.121-13.207c0-8.22,5.518-14.168,13.146-14.168c2.458,0,4.146,0.484,7.026,2.046l0.112-0.063
			c-0.235-2.938-0.235-3.66-0.235-6.901v-10.746h3.426V142.313L585.062,142.313z M581.638,132.526c0-2.043,0-2.461,0.18-4.262
			c-2.524-1.921-4.382-2.644-6.904-2.644c-5.64,0-9.663,4.622-9.663,10.987c0,6.238,3.902,10.621,9.428,10.621
			c2.702,0,4.438-0.72,7.141-2.883c-0.18-1.679-0.18-2.103-0.18-4.08L581.638,132.526L581.638,132.526z"/>
	</g>
	<g>
		<path fill="#7A1600" d="M263.357,29.038c-1.361,1.368-3.008,2.052-4.94,2.052c-1.931,0-3.575-0.685-4.93-2.052
			c-1.349-1.362-2.024-3.011-2.024-4.95c0-1.919,0.681-3.56,2.043-4.921c1.355-1.355,2.993-2.033,4.911-2.033
			c1.932,0,3.579,0.678,4.94,2.033c1.362,1.356,2.043,2.996,2.043,4.921C265.4,26.02,264.719,27.669,263.357,29.038z
			 M254.181,19.851c-1.167,1.171-1.748,2.587-1.748,4.247c0,1.672,0.579,3.097,1.738,4.275c1.165,1.178,2.581,1.767,4.246,1.767
			c1.666,0,3.082-0.589,4.247-1.767c1.165-1.178,1.748-2.603,1.748-4.275c0-1.66-0.583-3.075-1.748-4.247
			c-1.172-1.178-2.587-1.767-4.247-1.767C256.765,18.083,255.352,18.672,254.181,19.851z M258.285,20.24
			c0.95,0,1.646,0.092,2.09,0.275c0.791,0.33,1.187,0.977,1.187,1.94c0,0.685-0.249,1.189-0.747,1.512
			c-0.265,0.17-0.635,0.295-1.106,0.371c0.598,0.095,1.036,0.345,1.314,0.75c0.277,0.405,0.417,0.801,0.417,1.187v0.56
			c0,0.177,0.006,0.367,0.018,0.568c0.013,0.203,0.035,0.336,0.067,0.399l0.047,0.095h-1.263c-0.006-0.025-0.013-0.051-0.019-0.076
			c-0.006-0.025-0.013-0.054-0.019-0.084l-0.029-0.247v-0.605c0-0.884-0.24-1.469-0.722-1.753c-0.283-0.164-0.785-0.245-1.5-0.245
			h-1.064v3.011h-1.351V20.24H258.285z M259.741,21.447c-0.339-0.19-0.884-0.285-1.634-0.285h-1.152v2.774h1.219
			c0.571,0,1-0.057,1.286-0.171c0.527-0.209,0.791-0.608,0.791-1.197C260.251,22.01,260.082,21.637,259.741,21.447z"/>
	</g>
</g>
</svg>
