<?xml version="1.0" encoding="utf-8"?>
<!-- Generator: Adobe Illustrator 16.0.0, SVG Export Plug-In . SVG Version: 6.00 Build 0)  -->
<!DOCTYPE svg PUBLIC "-//W3C//DTD SVG 1.1//EN" "http://www.w3.org/Graphics/SVG/1.1/DTD/svg11.dtd">
<svg version="1.1" id="Layer_1" xmlns="http://www.w3.org/2000/svg" xmlns:xlink="http://www.w3.org/1999/xlink" x="0px" y="0px"
	 width="162.781px" height="30px" viewBox="0 0 162.781 30" enable-background="new 0 0 162.781 30" xml:space="preserve">
<g>
	<path fill="#314550" d="M6.596,1.875L6.583,1.879C4.459,2.846,2.8,4.396,1.65,6.488L1.635,6.52
		C0.898,8.176,0.525,9.705,0.525,11.07c0,1.084,0.248,2.363,0.737,3.801l0.008,0.02c0.326,0.824,0.889,1.748,1.669,2.742
		l0.012,0.018l0.015,0.012c2.174,2.283,4.667,3.439,7.413,3.439h6.097v-1.822h-5.382c-1.495,0-2.669-0.197-3.485-0.586L7.576,18.68
		c-1.424-0.541-2.666-1.525-3.691-2.928c-0.731-1.168-1.199-2.402-1.393-3.682h10.11v-1.867H2.497l0.026-0.191
		C2.728,8.652,3.228,7.41,4.008,6.316c0.888-1.121,1.897-1.971,3.005-2.527c1.105-0.557,2.343-0.84,3.678-0.84h5.785V1.037h-5.65
		C9.353,1.037,7.93,1.32,6.596,1.875"/>
	<path fill="#314550" d="M34.328,2.227l-0.016-0.016l-0.017-0.012c-1.002-0.771-2.202-1.162-3.564-1.162H20.298v20.064h1.868V12.07
		h9.013c0.302,0,0.799-0.076,1.52-0.232l0.037-0.008l0.035-0.016c1.284-0.535,2.257-1.395,2.89-2.557l0.018-0.031l0.012-0.035
		c0.456-1.355,0.514-1.762,0.514-1.965V5.744l-0.28-1.127C35.725,3.842,35.188,3.037,34.328,2.227 M34.425,6.551
		c0,0.822-0.215,1.559-0.637,2.191c-0.757,0.984-1.624,1.461-2.654,1.461h-8.968V2.986h7.27l1.389-0.01l0.016-0.002
		c0.382-0.016,0.817,0.051,1.298,0.201c0.082,0.025,0.385,0.156,0.447,0.195C33.822,4.105,34.425,5.148,34.425,6.551"/>
	<rect x="40.036" y="1.037" fill="#314550" width="1.822" height="20.064"/>
	<polygon fill="#314550" points="45.739,2.906 52.802,2.906 52.802,21.102 54.67,21.102 54.67,2.906 61.688,2.906 61.688,1.037 
		45.739,1.037 	"/>
	<path fill="#314550" d="M97.682,2.404l-0.016-0.01c-1.221-0.73-2.547-1.156-3.938-1.266h-0.021h-0.022
		c-1.493,0.041-1.816,0.1-1.951,0.152c-1.862,0.389-3.29,1.086-4.238,2.074c-1.533,1.541-2.312,3.566-2.312,6.016l-0.012,11.73
		h1.925v-8.986h12.17v8.986h1.867V8.924C101.133,6.119,99.973,3.926,97.682,2.404 M99.266,8.836v1.457H87.052V9.416
		c0-1.715,0.507-3.17,1.507-4.33c0.585-0.68,1.279-1.193,2.066-1.533c0.791-0.34,1.702-0.512,2.708-0.512
		c1.376,0.027,2.743,0.52,4.063,1.463C98.638,5.824,99.266,7.281,99.266,8.836"/>
	<path fill="#314550" d="M111.026,1.875l-0.012,0.004c-2.125,0.967-3.783,2.518-4.934,4.609l-0.016,0.031
		c-0.736,1.656-1.109,3.186-1.109,4.551c0,1.084,0.248,2.363,0.737,3.801l0.007,0.02c0.326,0.824,0.889,1.748,1.67,2.742
		l0.013,0.018l0.014,0.012c2.173,2.283,4.668,3.439,7.412,3.439h6.099v-1.822h-5.383c-1.676,0-2.43-0.197-2.768-0.361l-0.051-0.023
		l-0.054-0.01c-0.855-0.164-1.855-0.703-2.975-1.602c-0.934-0.914-1.644-1.891-2.11-2.906c-0.464-1.014-0.698-2.096-0.698-3.217
		c0-1.67,0.499-3.258,1.485-4.717c0.884-1.164,1.899-2.045,3.02-2.621c1.119-0.578,2.38-0.873,3.748-0.873h5.785V1.037h-5.651
		C113.783,1.037,112.359,1.32,111.026,1.875"/>
	<path fill="#314550" d="M79.769,21.08h2.12l-5.185-9.047c1.479-0.162,2.704-0.848,3.649-2.045l0.009-0.01
		c0.492-0.67,0.834-1.574,1.016-2.686l0.005-0.033V5.928c0-0.494-0.171-1.133-0.525-1.953l-0.005-0.012
		c-0.309-0.664-0.781-1.268-1.406-1.795L79.42,2.145c-1.022-0.732-2.082-1.107-3.15-1.107H65.477v20.064h1.869V12.07h7.225
		c0.343,0.551,1.562,2.637,5.091,8.82L79.769,21.08z M67.346,10.203V2.861h8.879c0.642,0,1.352,0.256,2.109,0.762
		c0.855,0.791,1.271,1.75,1.271,2.932c0,0.955-0.304,1.773-0.928,2.498l-0.021,0.025c-0.546,0.748-1.591,1.125-3.104,1.125H67.346z"
		/>
	<path fill="#FBB040" d="M146.204,3.348l-1.901-1.902c-0.204-0.203-0.535-0.203-0.74,0l-8.014,8.018
		c-0.206,0.203-0.206,0.535,0,0.74l1.899,1.9c0.205,0.205,0.535,0.205,0.74,0l8.016-8.016
		C146.408,3.883,146.408,3.553,146.204,3.348"/>
	<path fill="#00AEEF" d="M154.009,3.521l-1.875-1.875c-0.213-0.213-0.555-0.213-0.765,0l-11.79,11.787
		c-0.212,0.213-0.212,0.555,0,0.768l1.876,1.875c0.21,0.211,0.554,0.211,0.765,0l11.789-11.789
		C154.22,4.074,154.22,3.732,154.009,3.521"/>
	<path fill="#8DC63F" d="M162.098,3.35l-1.875-1.873c-0.213-0.213-0.555-0.213-0.766,0l-15.918,15.918
		c-0.212,0.211-0.212,0.555,0,0.766l1.874,1.875c0.212,0.211,0.555,0.211,0.767,0l15.918-15.918
		C162.309,3.904,162.309,3.562,162.098,3.35"/>
	<path fill="#314550" d="M140.081,2.303l-0.951-0.914c-0.201-0.193-0.521-0.191-0.721,0.008l-11.746,11.746V1.037h-1.867v20.064
		h1.867v-5.311c0.58-0.641,2.072-2.145,4.443-4.48l10.168,9.729l1.138-1.137l-9.904-9.986L140.081,2.303z"/>
	<path fill="#314550" d="M66.051,27.664c0.012,0.652,0.428,0.922,0.909,0.922c0.347,0,0.554-0.062,0.735-0.139l0.082,0.344
		c-0.17,0.078-0.461,0.166-0.882,0.166c-0.818,0-1.305-0.537-1.305-1.338s0.472-1.432,1.244-1.432c0.866,0,1.097,0.764,1.097,1.252
		c0,0.098-0.012,0.176-0.017,0.225H66.051z M67.465,27.318c0.006-0.307-0.127-0.785-0.669-0.785c-0.487,0-0.702,0.451-0.74,0.785
		H67.465z"/>
	<polygon fill="#314550" points="69.899,25.209 69.899,26.754 71.687,26.754 71.687,25.209 72.169,25.209 72.169,28.902 
		71.687,28.902 71.687,27.17 69.899,27.17 69.899,28.902 69.422,28.902 69.422,25.209 	"/>
	<path fill="#314550" d="M74.125,27.664c0.012,0.652,0.429,0.922,0.91,0.922c0.347,0,0.554-0.062,0.735-0.139l0.082,0.344
		c-0.169,0.078-0.459,0.166-0.882,0.166c-0.817,0-1.306-0.537-1.306-1.338s0.472-1.432,1.245-1.432c0.866,0,1.096,0.764,1.096,1.252
		c0,0.098-0.011,0.176-0.015,0.225H74.125z M75.54,27.318c0.006-0.307-0.125-0.785-0.669-0.785c-0.487,0-0.701,0.451-0.739,0.785
		H75.54z"/>
	<path fill="#314550" d="M78.95,28.902l-0.038-0.334h-0.017c-0.148,0.207-0.434,0.395-0.812,0.395c-0.537,0-0.811-0.377-0.811-0.762
		c0-0.643,0.569-0.992,1.595-0.986V27.16c0-0.221-0.061-0.615-0.604-0.615c-0.246,0-0.503,0.076-0.689,0.197l-0.11-0.318
		c0.219-0.143,0.536-0.236,0.871-0.236c0.811,0,1.009,0.555,1.009,1.088v0.99c0,0.23,0.012,0.455,0.044,0.637H78.95L78.95,28.902z
		 M78.878,27.547c-0.525-0.01-1.122,0.084-1.122,0.598c0,0.314,0.207,0.461,0.454,0.461c0.345,0,0.565-0.219,0.641-0.443
		c0.018-0.049,0.027-0.104,0.027-0.154V27.547z"/>
	<rect x="81" y="25.01" fill="#314550" width="0.483" height="3.893"/>
	<path fill="#314550" d="M83.753,25.488v0.76h0.69v0.367h-0.69v1.434c0,0.326,0.093,0.514,0.361,0.514
		c0.126,0,0.221-0.018,0.279-0.033l0.022,0.363c-0.093,0.037-0.242,0.064-0.429,0.064c-0.225,0-0.404-0.072-0.52-0.203
		c-0.137-0.141-0.188-0.379-0.188-0.691v-1.447h-0.411v-0.367h0.411v-0.635L83.753,25.488z"/>
	<path fill="#314550" d="M85.863,25.01h0.483v1.656h0.01c0.076-0.137,0.197-0.258,0.345-0.34c0.143-0.082,0.313-0.139,0.493-0.139
		c0.357,0,0.927,0.221,0.927,1.137v1.578H87.64v-1.523c0-0.428-0.159-0.791-0.615-0.791c-0.312,0-0.559,0.221-0.646,0.482
		c-0.027,0.068-0.031,0.139-0.031,0.23v1.602h-0.483V25.01z"/>
	<path fill="#314550" d="M91.871,28.902v-2.287h-0.372v-0.367h0.372v-0.125c0-0.371,0.082-0.713,0.308-0.926
		c0.183-0.176,0.423-0.248,0.647-0.248c0.169,0,0.317,0.039,0.411,0.078L93.17,25.4c-0.071-0.035-0.17-0.062-0.306-0.062
		c-0.411,0-0.516,0.363-0.516,0.768v0.143h0.642v0.367h-0.642v2.287H91.871L91.871,28.902z"/>
	<path fill="#314550" d="M96.631,27.555c0,0.98-0.681,1.408-1.321,1.408c-0.72,0-1.272-0.527-1.272-1.365
		c0-0.889,0.582-1.41,1.315-1.41C96.114,26.188,96.631,26.742,96.631,27.555 M94.525,27.582c0,0.58,0.333,1.02,0.806,1.02
		c0.461,0,0.806-0.434,0.806-1.031c0-0.449-0.226-1.02-0.795-1.02S94.525,27.076,94.525,27.582"/>
	<path fill="#314550" d="M98.115,27.076c0-0.312-0.004-0.58-0.021-0.828h0.422l0.018,0.523h0.021
		c0.121-0.359,0.411-0.584,0.733-0.584c0.056,0,0.094,0.008,0.139,0.018v0.455c-0.05-0.012-0.1-0.016-0.165-0.016
		c-0.34,0-0.582,0.258-0.647,0.619c-0.011,0.064-0.021,0.143-0.021,0.225v1.414h-0.478V27.076L98.115,27.076z"/>
	<path fill="#314550" d="M102.803,28.902c0.011-0.182,0.022-0.449,0.022-0.686V25.01h0.478v1.668h0.011
		c0.17-0.297,0.476-0.49,0.903-0.49c0.658,0,1.125,0.549,1.118,1.355c0,0.949-0.597,1.42-1.189,1.42c-0.384,0-0.689-0.148-0.887-0.5
		h-0.017l-0.022,0.439H102.803z M103.303,27.84c0,0.059,0.011,0.119,0.021,0.176c0.095,0.332,0.373,0.562,0.724,0.562
		c0.505,0,0.806-0.41,0.806-1.02c0-0.531-0.273-0.986-0.788-0.986c-0.329,0-0.636,0.225-0.735,0.592
		c-0.012,0.055-0.026,0.121-0.026,0.199V27.84L103.303,27.84z"/>
	<path fill="#314550" d="M107.09,27.664c0.011,0.652,0.428,0.922,0.911,0.922c0.344,0,0.553-0.062,0.733-0.139l0.083,0.344
		c-0.171,0.078-0.461,0.166-0.884,0.166c-0.816,0-1.304-0.537-1.304-1.338s0.471-1.432,1.243-1.432c0.867,0,1.097,0.764,1.097,1.252
		c0,0.098-0.01,0.176-0.017,0.225H107.09z M108.504,27.318c0.006-0.307-0.126-0.785-0.669-0.785c-0.487,0-0.7,0.451-0.739,0.785
		H108.504z"/>
	<path fill="#314550" d="M111.026,25.488v0.76h0.69v0.367h-0.69v1.434c0,0.326,0.093,0.514,0.362,0.514
		c0.127,0,0.219-0.018,0.279-0.033l0.022,0.363c-0.094,0.037-0.242,0.064-0.43,0.064c-0.225,0-0.404-0.072-0.521-0.203
		c-0.137-0.141-0.186-0.379-0.186-0.691v-1.447h-0.411v-0.367h0.411v-0.635L111.026,25.488z"/>
	<path fill="#314550" d="M113.718,25.488v0.76h0.69v0.367h-0.69v1.434c0,0.326,0.094,0.514,0.361,0.514
		c0.127,0,0.221-0.018,0.28-0.033l0.021,0.363c-0.093,0.037-0.241,0.064-0.426,0.064c-0.226,0-0.406-0.072-0.522-0.203
		c-0.137-0.141-0.187-0.379-0.187-0.691v-1.447h-0.411v-0.367h0.411v-0.635L113.718,25.488z"/>
	<path fill="#314550" d="M116.064,27.664c0.011,0.652,0.428,0.922,0.91,0.922c0.345,0,0.553-0.062,0.734-0.139l0.082,0.344
		c-0.17,0.078-0.462,0.166-0.883,0.166c-0.817,0-1.304-0.537-1.304-1.338s0.471-1.432,1.243-1.432c0.867,0,1.097,0.764,1.097,1.252
		c0,0.098-0.011,0.176-0.018,0.225H116.064z M117.479,27.318c0.005-0.307-0.126-0.785-0.669-0.785c-0.488,0-0.701,0.451-0.739,0.785
		H117.479z"/>
	<path fill="#314550" d="M119.42,27.076c0-0.312-0.006-0.58-0.022-0.828h0.422l0.017,0.523h0.022
		c0.119-0.359,0.411-0.584,0.734-0.584c0.054,0,0.093,0.008,0.137,0.018v0.455c-0.05-0.012-0.098-0.016-0.165-0.016
		c-0.341,0-0.581,0.258-0.646,0.619c-0.011,0.064-0.021,0.143-0.021,0.225v1.414h-0.477V27.076L119.42,27.076z"/>
	<polygon fill="#314550" points="124.622,25.209 124.622,26.754 126.41,26.754 126.41,25.209 126.892,25.209 126.892,28.902 
		126.41,28.902 126.41,27.17 124.622,27.17 124.622,28.902 124.146,28.902 124.146,25.209 	"/>
	<path fill="#314550" d="M128.849,27.664c0.011,0.652,0.429,0.922,0.91,0.922c0.345,0,0.554-0.062,0.735-0.139l0.081,0.344
		c-0.17,0.078-0.461,0.166-0.884,0.166c-0.814,0-1.304-0.537-1.304-1.338s0.472-1.432,1.244-1.432c0.866,0,1.097,0.764,1.097,1.252
		c0,0.098-0.01,0.176-0.017,0.225H128.849z M130.264,27.318c0.005-0.307-0.127-0.785-0.669-0.785c-0.489,0-0.702,0.451-0.741,0.785
		H130.264z"/>
	<path fill="#314550" d="M133.673,28.902l-0.038-0.334h-0.017c-0.148,0.207-0.434,0.395-0.812,0.395
		c-0.537,0-0.811-0.377-0.811-0.762c0-0.643,0.568-0.992,1.596-0.986V27.16c0-0.221-0.062-0.615-0.604-0.615
		c-0.247,0-0.504,0.076-0.69,0.197l-0.11-0.318c0.221-0.143,0.538-0.236,0.872-0.236c0.812,0,1.009,0.555,1.009,1.088v0.99
		c0,0.23,0.011,0.455,0.044,0.637H133.673L133.673,28.902z M133.602,27.547c-0.526-0.01-1.124,0.084-1.124,0.598
		c0,0.314,0.208,0.461,0.456,0.461c0.345,0,0.563-0.219,0.641-0.443c0.018-0.049,0.027-0.104,0.027-0.154V27.547z"/>
	<rect x="135.724" y="25.01" fill="#314550" width="0.481" height="3.893"/>
	<path fill="#314550" d="M138.475,25.488v0.76h0.692v0.367h-0.692v1.434c0,0.326,0.095,0.514,0.362,0.514
		c0.126,0,0.219-0.018,0.279-0.033l0.022,0.363c-0.094,0.037-0.241,0.064-0.427,0.064c-0.226,0-0.406-0.072-0.521-0.203
		c-0.137-0.141-0.188-0.379-0.188-0.691v-1.447h-0.409v-0.367h0.409v-0.635L138.475,25.488z"/>
	<path fill="#314550" d="M140.587,25.01h0.481v1.656h0.01c0.078-0.137,0.199-0.258,0.347-0.34c0.142-0.082,0.312-0.139,0.493-0.139
		c0.355,0,0.927,0.221,0.927,1.137v1.578h-0.482v-1.523c0-0.428-0.159-0.791-0.615-0.791c-0.312,0-0.559,0.221-0.646,0.482
		c-0.027,0.068-0.033,0.139-0.033,0.23v1.602h-0.481V25.01L140.587,25.01z"/>
</g>
</svg>
