<?xml version="1.0" encoding="utf-8"?>
<!-- Generator: Adobe Illustrator 16.0.0, SVG Export Plug-In . SVG Version: 6.00 Build 0)  -->
<!DOCTYPE svg PUBLIC "-//W3C//DTD SVG 1.1//EN" "http://www.w3.org/Graphics/SVG/1.1/DTD/svg11.dtd">
<svg version="1.1" id="Layer_1" xmlns="http://www.w3.org/2000/svg" xmlns:xlink="http://www.w3.org/1999/xlink" x="0px" y="0px"
	 width="721.286px" height="229.301px" viewBox="0 0 721.286 229.301" enable-background="new 0 0 721.286 229.301"
	 xml:space="preserve">
<g>
	<g>
		<g>
			<path fill="#283A42" d="M39.708,208.075c-0.296,0-0.467-0.156-0.514-0.467l-0.182-2.82c-0.791,1.078-1.717,1.934-2.778,2.572
				c-1.062,0.629-2.252,0.951-3.571,0.951c-2.197,0-3.906-0.762-5.137-2.283c-1.23-1.523-1.844-3.803-1.844-6.844
				c0-1.307,0.169-2.523,0.512-3.658c0.343-1.133,0.846-2.113,1.514-2.947c0.664-0.834,1.48-1.488,2.444-1.967
				s2.079-0.719,3.336-0.719c1.214,0,2.263,0.225,3.151,0.672c0.888,0.449,1.653,1.104,2.303,1.967v-10.598h1.706v26.141H39.708z
				 M33.146,206.928c1.188,0,2.263-0.309,3.223-0.922c0.96-0.609,1.816-1.459,2.574-2.551v-9.43
				c-0.696-1.02-1.461-1.738-2.297-2.158c-0.833-0.418-1.778-0.629-2.831-0.629c-1.058,0-1.981,0.193-2.772,0.578
				c-0.793,0.381-1.457,0.922-1.987,1.625c-0.535,0.697-0.937,1.539-1.208,2.512c-0.271,0.977-0.405,2.055-0.405,3.23
				c0,2.656,0.494,4.615,1.476,5.861C29.903,206.297,31.311,206.928,33.146,206.928z"/>
			<path fill="#283A42" d="M49.615,184.036c0,0.217-0.047,0.414-0.136,0.602c-0.091,0.186-0.207,0.346-0.351,0.494
				c-0.144,0.139-0.311,0.258-0.503,0.342c-0.19,0.086-0.393,0.127-0.611,0.127c-0.214,0-0.417-0.041-0.611-0.127
				c-0.19-0.084-0.359-0.203-0.501-0.342c-0.144-0.148-0.258-0.309-0.341-0.494c-0.086-0.188-0.129-0.385-0.129-0.602
				c0-0.219,0.042-0.422,0.129-0.621c0.083-0.199,0.197-0.369,0.341-0.512c0.142-0.145,0.311-0.254,0.501-0.338
				c0.194-0.086,0.397-0.127,0.611-0.127c0.218,0,0.421,0.041,0.611,0.127c0.192,0.084,0.36,0.193,0.503,0.338
				c0.144,0.143,0.26,0.312,0.351,0.512C49.568,183.614,49.615,183.817,49.615,184.036z M48.86,190.198v17.877h-1.709v-17.877H48.86
				z"/>
			<path fill="#283A42" d="M61.076,189.893c0.78,0,1.501,0.098,2.167,0.287c0.662,0.191,1.258,0.461,1.787,0.809h4.58v0.592
				c0,0.301-0.165,0.461-0.503,0.486l-2.71,0.195c0.334,0.455,0.592,0.973,0.773,1.539c0.178,0.566,0.267,1.176,0.267,1.822
				c0,0.863-0.156,1.645-0.465,2.348c-0.313,0.697-0.747,1.297-1.302,1.793c-0.559,0.498-1.227,0.883-2.005,1.158
				c-0.778,0.279-1.641,0.414-2.588,0.414c-1.032,0-1.965-0.156-2.802-0.465c-0.503,0.287-0.899,0.627-1.187,1.023
				c-0.288,0.395-0.432,0.779-0.432,1.15c0,0.512,0.18,0.91,0.542,1.184c0.357,0.275,0.833,0.479,1.427,0.602
				c0.592,0.127,1.269,0.207,2.03,0.244c0.759,0.035,1.533,0.076,2.315,0.115c0.786,0.043,1.561,0.119,2.319,0.229
				c0.762,0.105,1.438,0.295,2.032,0.562c0.592,0.27,1.065,0.646,1.427,1.133c0.357,0.486,0.54,1.129,0.54,1.934
				c0,0.74-0.187,1.455-0.559,2.135c-0.372,0.682-0.905,1.291-1.607,1.814c-0.7,0.529-1.548,0.951-2.543,1.27
				c-0.992,0.316-2.108,0.473-3.341,0.473c-1.258,0-2.36-0.127-3.305-0.385c-0.947-0.258-1.742-0.605-2.381-1.041
				c-0.643-0.436-1.123-0.947-1.446-1.521c-0.326-0.57-0.486-1.184-0.486-1.832c0-0.943,0.313-1.758,0.935-2.439
				c0.622-0.686,1.48-1.213,2.569-1.586c-0.599-0.199-1.074-0.494-1.428-0.875c-0.355-0.385-0.53-0.918-0.53-1.604
				c0-0.25,0.048-0.512,0.144-0.791c0.095-0.27,0.239-0.545,0.434-0.816c0.19-0.27,0.419-0.523,0.689-0.76
				c0.271-0.242,0.583-0.457,0.943-0.652c-0.85-0.49-1.512-1.143-1.983-1.953c-0.474-0.816-0.71-1.773-0.71-2.859
				c0-0.859,0.152-1.645,0.457-2.344c0.304-0.701,0.735-1.301,1.294-1.809c0.558-0.504,1.23-0.889,2.021-1.164
				C59.244,190.034,60.118,189.893,61.076,189.893z M67.707,209.28c0-0.562-0.148-1.016-0.439-1.357
				c-0.294-0.34-0.686-0.605-1.178-0.801c-0.491-0.189-1.058-0.324-1.698-0.4c-0.641-0.08-1.311-0.141-2.013-0.174
				c-0.7-0.039-1.404-0.072-2.11-0.105c-0.706-0.039-1.366-0.109-1.975-0.217c-0.457,0.178-0.877,0.385-1.269,0.623
				c-0.389,0.232-0.721,0.494-0.996,0.785c-0.274,0.293-0.492,0.619-0.646,0.973c-0.155,0.352-0.233,0.736-0.233,1.16
				c0,0.527,0.133,1.014,0.404,1.463c0.269,0.447,0.664,0.838,1.184,1.168c0.522,0.328,1.161,0.592,1.916,0.781
				c0.753,0.191,1.622,0.287,2.605,0.287c0.909,0,1.755-0.102,2.542-0.305c0.784-0.201,1.467-0.494,2.049-0.861
				c0.581-0.373,1.034-0.816,1.364-1.332S67.707,209.893,67.707,209.28z M61.076,200.17c0.77,0,1.45-0.115,2.049-0.33
				c0.599-0.225,1.104-0.533,1.508-0.932c0.41-0.393,0.719-0.865,0.928-1.42c0.21-0.545,0.315-1.158,0.315-1.832
				c0-0.668-0.11-1.281-0.326-1.84c-0.215-0.553-0.529-1.031-0.943-1.428c-0.413-0.395-0.916-0.699-1.51-0.918
				c-0.592-0.217-1.265-0.322-2.021-0.322c-0.753,0-1.43,0.105-2.03,0.322c-0.601,0.219-1.104,0.523-1.518,0.918
				c-0.413,0.396-0.728,0.875-0.943,1.428c-0.216,0.559-0.324,1.172-0.324,1.84c0,0.674,0.108,1.287,0.324,1.832
				c0.215,0.555,0.53,1.027,0.943,1.42c0.415,0.398,0.917,0.707,1.518,0.932C59.646,200.055,60.323,200.17,61.076,200.17z"/>
			<path fill="#283A42" d="M76.277,184.036c0,0.217-0.044,0.414-0.133,0.602c-0.094,0.186-0.208,0.346-0.352,0.494
				c-0.144,0.139-0.312,0.258-0.503,0.342c-0.192,0.086-0.396,0.127-0.611,0.127c-0.218,0-0.421-0.041-0.611-0.127
				c-0.192-0.084-0.359-0.203-0.503-0.342c-0.144-0.148-0.258-0.309-0.343-0.494c-0.084-0.188-0.127-0.385-0.127-0.602
				c0-0.219,0.042-0.422,0.127-0.621c0.085-0.199,0.199-0.369,0.343-0.512c0.144-0.145,0.311-0.254,0.503-0.338
				c0.19-0.086,0.394-0.127,0.611-0.127c0.216,0,0.419,0.041,0.611,0.127c0.19,0.084,0.359,0.193,0.503,0.338
				c0.144,0.143,0.258,0.312,0.352,0.512C76.232,183.614,76.277,183.817,76.277,184.036z M75.522,190.198v17.877h-1.708v-17.877
				H75.522z"/>
			<path fill="#283A42" d="M86.714,208.366c-1.209,0-2.15-0.338-2.819-1.006c-0.672-0.674-1.008-1.709-1.008-3.113V192.03h-2.569
				c-0.131,0-0.239-0.035-0.321-0.107c-0.085-0.07-0.127-0.172-0.127-0.305v-0.668l3.053-0.211l0.427-6.398
				c0.013-0.105,0.057-0.203,0.135-0.287c0.076-0.086,0.18-0.127,0.311-0.127h0.799v6.83h5.623v1.273h-5.623v12.129
				c0,0.49,0.063,0.912,0.188,1.268s0.3,0.643,0.521,0.867c0.222,0.229,0.481,0.398,0.782,0.508c0.3,0.105,0.622,0.16,0.971,0.16
				c0.431,0,0.801-0.062,1.114-0.189c0.311-0.127,0.579-0.264,0.808-0.414c0.229-0.148,0.414-0.289,0.558-0.416
				c0.142-0.121,0.258-0.182,0.34-0.182c0.096,0,0.19,0.055,0.288,0.174l0.467,0.758c-0.457,0.502-1.032,0.908-1.733,1.213
				C88.197,208.209,87.469,208.366,86.714,208.366z"/>
			<path fill="#283A42" d="M106.064,208.075c-0.357,0-0.58-0.17-0.664-0.504l-0.25-2.279c-0.493,0.479-0.979,0.908-1.467,1.289
				c-0.482,0.389-0.99,0.711-1.518,0.973c-0.524,0.264-1.096,0.465-1.705,0.602c-0.611,0.139-1.282,0.211-2.013,0.211
				c-0.611,0-1.205-0.094-1.778-0.275c-0.575-0.178-1.085-0.451-1.526-0.824c-0.444-0.367-0.802-0.846-1.072-1.43
				c-0.267-0.578-0.402-1.277-0.402-2.088c0-0.758,0.216-1.459,0.647-2.107c0.432-0.643,1.104-1.209,2.021-1.688
				c0.914-0.477,2.098-0.861,3.54-1.15c1.442-0.287,3.176-0.457,5.202-0.502v-1.869c0-1.654-0.357-2.928-1.07-3.816
				c-0.715-0.891-1.77-1.34-3.172-1.34c-0.863,0-1.597,0.119-2.199,0.359c-0.607,0.242-1.119,0.504-1.537,0.791
				c-0.421,0.287-0.762,0.551-1.023,0.791c-0.265,0.236-0.488,0.359-0.666,0.359c-0.239,0-0.421-0.109-0.539-0.322l-0.307-0.523
				c0.937-0.936,1.917-1.641,2.947-2.119s2.199-0.719,3.506-0.719c0.958,0,1.795,0.152,2.515,0.457
				c0.719,0.309,1.312,0.744,1.786,1.311c0.474,0.57,0.829,1.256,1.07,2.068c0.239,0.809,0.359,1.709,0.359,2.703v11.643H106.064z
				 M98.879,207.122c0.695,0,1.332-0.07,1.914-0.223c0.582-0.148,1.121-0.359,1.618-0.631c0.495-0.271,0.96-0.588,1.392-0.959
				c0.431-0.373,0.856-0.775,1.277-1.207v-4.65c-1.702,0.045-3.166,0.178-4.394,0.389c-1.229,0.203-2.241,0.49-3.036,0.85
				c-0.798,0.359-1.383,0.787-1.76,1.281c-0.378,0.504-0.566,1.066-0.566,1.705c0,0.596,0.097,1.111,0.296,1.551
				c0.196,0.436,0.459,0.795,0.782,1.08c0.321,0.277,0.7,0.486,1.131,0.621C97.961,207.059,98.414,207.122,98.879,207.122z"/>
			<path fill="#283A42" d="M114.349,181.934v26.141h-1.708v-26.141H114.349z"/>
			<path fill="#283A42" d="M140.286,208.075c-0.296,0-0.467-0.156-0.514-0.467l-0.182-2.82c-0.791,1.078-1.719,1.934-2.778,2.572
				c-1.062,0.629-2.252,0.951-3.571,0.951c-2.195,0-3.906-0.762-5.137-2.283c-1.23-1.523-1.841-3.803-1.841-6.844
				c0-1.307,0.169-2.523,0.509-3.658c0.345-1.133,0.846-2.113,1.512-2.947c0.666-0.834,1.48-1.488,2.449-1.967
				c0.964-0.479,2.076-0.719,3.337-0.719c1.211,0,2.26,0.225,3.146,0.672c0.888,0.449,1.656,1.104,2.305,1.967v-10.598h1.704v26.141
				H140.286z M133.725,206.928c1.19,0,2.262-0.309,3.222-0.922c0.958-0.609,1.816-1.459,2.574-2.551v-9.43
				c-0.698-1.02-1.461-1.738-2.297-2.158c-0.833-0.418-1.776-0.629-2.833-0.629c-1.056,0-1.979,0.193-2.771,0.578
				c-0.791,0.381-1.455,0.922-1.987,1.625c-0.537,0.697-0.937,1.539-1.208,2.512c-0.271,0.977-0.404,2.055-0.404,3.23
				c0,2.656,0.49,4.615,1.476,5.861C130.481,206.297,131.892,206.928,133.725,206.928z"/>
			<path fill="#283A42" d="M150.193,184.036c0,0.217-0.044,0.414-0.135,0.602c-0.091,0.186-0.205,0.346-0.349,0.494
				c-0.146,0.139-0.312,0.258-0.503,0.342c-0.192,0.086-0.397,0.127-0.613,0.127s-0.419-0.041-0.609-0.127
				c-0.192-0.084-0.359-0.203-0.503-0.342c-0.144-0.148-0.258-0.309-0.343-0.494c-0.084-0.188-0.127-0.385-0.127-0.602
				c0-0.219,0.042-0.422,0.127-0.621c0.085-0.199,0.199-0.369,0.343-0.512c0.144-0.145,0.311-0.254,0.503-0.338
				c0.19-0.086,0.394-0.127,0.609-0.127s0.421,0.041,0.613,0.127c0.19,0.084,0.357,0.193,0.503,0.338
				c0.144,0.143,0.258,0.312,0.349,0.512C150.148,183.614,150.193,183.817,150.193,184.036z M149.438,190.198v17.877h-1.708v-17.877
				H149.438z"/>
			<path fill="#283A42" d="M165.608,192.405c-0.087,0.17-0.216,0.254-0.396,0.254c-0.131,0-0.302-0.072-0.512-0.225
				c-0.209-0.152-0.486-0.316-0.827-0.502c-0.34-0.188-0.761-0.355-1.258-0.504c-0.495-0.152-1.104-0.225-1.823-0.225
				c-0.647,0-1.235,0.094-1.768,0.275c-0.537,0.189-0.99,0.436-1.368,0.748c-0.376,0.314-0.67,0.674-0.882,1.092
				c-0.208,0.41-0.313,0.842-0.313,1.299c0,0.566,0.144,1.027,0.432,1.398c0.287,0.373,0.664,0.689,1.133,0.957
				c0.465,0.262,0.998,0.486,1.59,0.68c0.592,0.195,1.199,0.385,1.822,0.576c0.622,0.193,1.231,0.406,1.823,0.639
				c0.592,0.232,1.123,0.523,1.59,0.871c0.465,0.346,0.846,0.773,1.133,1.277c0.286,0.498,0.431,1.111,0.431,1.83
				c0,0.783-0.144,1.506-0.423,2.174c-0.283,0.674-0.689,1.252-1.222,1.742c-0.533,0.492-1.188,0.885-1.967,1.168
				c-0.78,0.287-1.666,0.436-2.66,0.436c-1.258,0-2.343-0.207-3.252-0.605c-0.909-0.4-1.726-0.926-2.444-1.572l0.414-0.609
				c0.06-0.098,0.127-0.168,0.199-0.215c0.071-0.051,0.171-0.072,0.304-0.072c0.154,0,0.347,0.098,0.575,0.287
				c0.226,0.191,0.522,0.398,0.888,0.617c0.366,0.225,0.82,0.428,1.366,0.623c0.543,0.189,1.218,0.287,2.021,0.287
				c0.752,0,1.417-0.105,1.994-0.312c0.575-0.213,1.055-0.5,1.436-0.859c0.385-0.355,0.677-0.777,0.875-1.264
				c0.195-0.486,0.294-0.994,0.294-1.535c0-0.598-0.144-1.1-0.431-1.494c-0.286-0.393-0.664-0.727-1.131-1.002
				c-0.467-0.279-0.998-0.512-1.59-0.701c-0.592-0.195-1.203-0.385-1.833-0.576c-0.628-0.189-1.239-0.406-1.832-0.629
				c-0.594-0.225-1.123-0.518-1.592-0.863c-0.465-0.348-0.844-0.77-1.129-1.266c-0.288-0.498-0.433-1.119-0.433-1.859
				c0-0.639,0.137-1.248,0.414-1.836c0.272-0.588,0.666-1.1,1.176-1.543c0.51-0.445,1.129-0.797,1.858-1.059
				c0.732-0.262,1.552-0.396,2.462-0.396c1.091,0,2.06,0.156,2.903,0.469c0.844,0.309,1.62,0.787,2.328,1.438L165.608,192.405z"/>
			<path fill="#283A42" d="M177.951,189.911c1.006,0,1.937,0.172,2.795,0.52c0.856,0.348,1.599,0.854,2.227,1.518
				c0.628,0.668,1.121,1.48,1.474,2.453s0.531,2.086,0.531,3.346c0,0.262-0.04,0.439-0.116,0.537
				c-0.078,0.098-0.201,0.145-0.368,0.145H171.59v0.338c0,1.34,0.157,2.525,0.469,3.543c0.309,1.016,0.753,1.869,1.328,2.559
				s1.271,1.205,2.085,1.553c0.814,0.352,1.726,0.525,2.732,0.525c0.896,0,1.674-0.098,2.334-0.301
				c0.66-0.199,1.214-0.414,1.662-0.664c0.448-0.242,0.806-0.465,1.07-0.664c0.262-0.195,0.452-0.297,0.575-0.297
				c0.156,0,0.274,0.061,0.359,0.178l0.465,0.58c-0.288,0.355-0.666,0.689-1.142,1.006c-0.47,0.309-0.998,0.576-1.58,0.799
				c-0.581,0.217-1.203,0.395-1.867,0.525c-0.664,0.135-1.334,0.203-2.004,0.203c-1.223,0-2.335-0.217-3.341-0.639
				c-1.006-0.428-1.872-1.049-2.592-1.861c-0.719-0.816-1.277-1.811-1.671-2.99c-0.393-1.18-0.587-2.533-0.587-4.055
				c0-1.281,0.182-2.461,0.545-3.549c0.366-1.082,0.893-2.018,1.582-2.799c0.689-0.787,1.535-1.4,2.533-1.844
				C175.548,190.133,176.682,189.911,177.951,189.911z M177.978,191.182c-0.92,0-1.745,0.148-2.476,0.436
				c-0.73,0.289-1.362,0.699-1.893,1.236c-0.533,0.541-0.962,1.188-1.292,1.945c-0.33,0.752-0.545,1.598-0.653,2.529h11.767
				c0-0.957-0.131-1.814-0.393-2.572c-0.264-0.766-0.634-1.408-1.112-1.938c-0.478-0.527-1.053-0.93-1.723-1.213
				C179.532,191.327,178.792,191.182,177.978,191.182z"/>
			<path fill="#283A42" d="M200.986,208.075c-0.359,0-0.583-0.17-0.666-0.504l-0.251-2.279c-0.491,0.479-0.979,0.908-1.466,1.289
				c-0.484,0.389-0.989,0.711-1.516,0.973c-0.529,0.264-1.096,0.465-1.709,0.602c-0.609,0.139-1.281,0.211-2.013,0.211
				c-0.609,0-1.201-0.094-1.776-0.275c-0.575-0.178-1.087-0.451-1.529-0.824c-0.442-0.367-0.799-0.846-1.07-1.43
				c-0.269-0.578-0.404-1.277-0.404-2.088c0-0.758,0.216-1.459,0.647-2.107c0.431-0.643,1.104-1.209,2.021-1.688
				c0.917-0.477,2.098-0.861,3.54-1.15c1.442-0.287,3.176-0.457,5.202-0.502v-1.869c0-1.654-0.355-2.928-1.067-3.816
				c-0.713-0.891-1.772-1.34-3.174-1.34c-0.863,0-1.594,0.119-2.199,0.359c-0.605,0.242-1.117,0.504-1.538,0.791
				c-0.418,0.287-0.759,0.551-1.023,0.791c-0.264,0.236-0.486,0.359-0.666,0.359c-0.237,0-0.418-0.109-0.54-0.322l-0.304-0.523
				c0.935-0.936,1.918-1.641,2.948-2.119s2.197-0.719,3.504-0.719c0.958,0,1.797,0.152,2.514,0.457
				c0.719,0.309,1.313,0.744,1.789,1.311c0.472,0.57,0.827,1.256,1.068,2.068c0.241,0.809,0.36,1.709,0.36,2.703v11.643H200.986z
				 M193.799,207.122c0.695,0,1.332-0.07,1.913-0.223c0.58-0.148,1.119-0.359,1.616-0.631c0.497-0.271,0.962-0.588,1.394-0.959
				c0.429-0.373,0.856-0.775,1.275-1.207v-4.65c-1.7,0.045-3.165,0.178-4.394,0.389c-1.227,0.203-2.24,0.49-3.037,0.85
				c-0.795,0.359-1.383,0.787-1.759,1.281c-0.379,0.504-0.567,1.066-0.567,1.705c0,0.596,0.097,1.111,0.296,1.551
				c0.199,0.436,0.459,0.795,0.783,1.08c0.321,0.277,0.7,0.486,1.133,0.621C192.883,207.059,193.332,207.122,193.799,207.122z"/>
			<path fill="#283A42" d="M216.905,192.405c-0.085,0.17-0.216,0.254-0.396,0.254c-0.133,0-0.303-0.072-0.512-0.225
				c-0.209-0.152-0.486-0.316-0.827-0.502c-0.342-0.188-0.761-0.355-1.26-0.504c-0.495-0.152-1.104-0.225-1.823-0.225
				c-0.645,0-1.234,0.094-1.768,0.275c-0.533,0.189-0.989,0.436-1.366,0.748c-0.378,0.314-0.672,0.674-0.879,1.092
				c-0.211,0.41-0.315,0.842-0.315,1.299c0,0.566,0.142,1.027,0.432,1.398c0.287,0.373,0.664,0.689,1.131,0.957
				c0.47,0.262,0.998,0.486,1.59,0.68c0.592,0.195,1.201,0.385,1.825,0.576c0.622,0.193,1.229,0.406,1.823,0.639
				s1.123,0.523,1.588,0.871c0.469,0.346,0.846,0.773,1.133,1.277c0.288,0.498,0.432,1.111,0.432,1.83
				c0,0.783-0.14,1.506-0.421,2.174c-0.285,0.674-0.689,1.252-1.225,1.742c-0.532,0.492-1.188,0.885-1.966,1.168
				c-0.778,0.287-1.667,0.436-2.658,0.436c-1.258,0-2.343-0.207-3.252-0.605c-0.912-0.4-1.726-0.926-2.445-1.572l0.413-0.609
				c0.059-0.098,0.127-0.168,0.198-0.215c0.072-0.051,0.174-0.072,0.305-0.072c0.156,0,0.347,0.098,0.575,0.287
				c0.229,0.191,0.524,0.398,0.893,0.617c0.363,0.225,0.818,0.428,1.361,0.623c0.546,0.189,1.223,0.287,2.021,0.287
				c0.757,0,1.421-0.105,1.996-0.312c0.573-0.213,1.054-0.5,1.438-0.859c0.383-0.355,0.672-0.777,0.871-1.264
				c0.196-0.486,0.296-0.994,0.296-1.535c0-0.598-0.144-1.1-0.432-1.494c-0.287-0.393-0.664-0.727-1.133-1.002
				c-0.468-0.279-0.996-0.512-1.59-0.701c-0.592-0.195-1.204-0.385-1.832-0.576c-0.63-0.189-1.239-0.406-1.833-0.629
				c-0.592-0.225-1.121-0.518-1.59-0.863c-0.468-0.348-0.844-0.77-1.132-1.266c-0.287-0.498-0.431-1.119-0.431-1.859
				c0-0.639,0.137-1.248,0.415-1.836c0.274-0.588,0.666-1.1,1.176-1.543c0.507-0.445,1.129-0.797,1.86-1.059
				c0.729-0.262,1.55-0.396,2.462-0.396c1.089,0,2.055,0.156,2.901,0.469c0.843,0.309,1.62,0.787,2.326,1.438L216.905,192.405z"/>
			<path fill="#283A42" d="M229.248,189.911c1.008,0,1.938,0.172,2.793,0.52c0.858,0.348,1.599,0.854,2.229,1.518
				c0.628,0.668,1.121,1.48,1.474,2.453s0.531,2.086,0.531,3.346c0,0.262-0.04,0.439-0.118,0.537
				c-0.076,0.098-0.199,0.145-0.368,0.145h-12.899v0.338c0,1.34,0.155,2.525,0.465,3.543c0.311,1.016,0.757,1.869,1.33,2.559
				c0.575,0.689,1.271,1.205,2.083,1.553c0.816,0.352,1.725,0.525,2.731,0.525c0.899,0,1.679-0.098,2.337-0.301
				c0.657-0.199,1.212-0.414,1.662-0.664c0.448-0.242,0.806-0.465,1.067-0.664c0.267-0.195,0.457-0.297,0.575-0.297
				c0.157,0,0.277,0.061,0.36,0.178l0.467,0.58c-0.288,0.355-0.668,0.689-1.14,1.006c-0.474,0.309-1,0.576-1.582,0.799
				c-0.583,0.217-1.205,0.395-1.869,0.525c-0.664,0.135-1.332,0.203-2.004,0.203c-1.22,0-2.334-0.217-3.341-0.639
				c-1.006-0.428-1.869-1.049-2.588-1.861c-0.724-0.816-1.277-1.811-1.671-2.99c-0.395-1.18-0.592-2.533-0.592-4.055
				c0-1.281,0.182-2.461,0.55-3.549c0.364-1.082,0.89-2.018,1.58-2.799c0.689-0.787,1.533-1.4,2.533-1.844
				C226.843,190.133,227.979,189.911,229.248,189.911z M229.275,191.182c-0.922,0-1.747,0.148-2.479,0.436
				c-0.728,0.289-1.359,0.699-1.891,1.236c-0.532,0.541-0.964,1.188-1.292,1.945c-0.33,0.752-0.547,1.598-0.655,2.529h11.77
				c0-0.957-0.133-1.814-0.396-2.572c-0.262-0.766-0.634-1.408-1.112-1.938c-0.478-0.527-1.053-0.93-1.721-1.213
				C230.829,191.327,230.086,191.182,229.275,191.182z"/>
			<path fill="#283A42" d="M260.485,208.075c-0.296,0-0.469-0.156-0.516-0.467l-0.18-2.82c-0.793,1.078-1.719,1.934-2.78,2.572
				c-1.06,0.629-2.252,0.951-3.569,0.951c-2.195,0-3.908-0.762-5.139-2.283c-1.229-1.523-1.842-3.803-1.842-6.844
				c0-1.307,0.169-2.523,0.512-3.658c0.341-1.133,0.846-2.113,1.512-2.947s1.48-1.488,2.447-1.967s2.079-0.719,3.336-0.719
				c1.212,0,2.261,0.225,3.149,0.672c0.888,0.449,1.656,1.104,2.305,1.967v-10.598h1.704v26.141H260.485z M253.924,206.928
				c1.186,0,2.263-0.309,3.22-0.922c0.96-0.609,1.819-1.459,2.576-2.551v-9.43c-0.698-1.02-1.461-1.738-2.297-2.158
				c-0.833-0.418-1.776-0.629-2.833-0.629c-1.056,0-1.979,0.193-2.771,0.578c-0.793,0.381-1.457,0.922-1.987,1.625
				c-0.537,0.697-0.939,1.539-1.208,2.512c-0.271,0.977-0.403,2.055-0.403,3.23c0,2.656,0.49,4.615,1.474,5.861
				C250.68,206.297,252.09,206.928,253.924,206.928z"/>
			<path fill="#283A42" d="M274.165,189.911c1.006,0,1.937,0.172,2.793,0.52s1.599,0.854,2.229,1.518
				c0.628,0.668,1.121,1.48,1.472,2.453c0.355,0.973,0.531,2.086,0.531,3.346c0,0.262-0.04,0.439-0.116,0.537
				s-0.201,0.145-0.368,0.145h-12.901v0.338c0,1.34,0.157,2.525,0.467,3.543c0.309,1.016,0.755,1.869,1.33,2.559
				c0.573,0.689,1.269,1.205,2.083,1.553c0.814,0.352,1.726,0.525,2.732,0.525c0.896,0,1.677-0.098,2.334-0.301
				c0.66-0.199,1.214-0.414,1.662-0.664c0.448-0.242,0.806-0.465,1.07-0.664c0.264-0.195,0.455-0.297,0.575-0.297
				c0.157,0,0.275,0.061,0.359,0.178l0.465,0.58c-0.288,0.355-0.666,0.689-1.138,1.006c-0.476,0.309-1.002,0.576-1.582,0.799
				c-0.583,0.217-1.205,0.395-1.871,0.525c-0.662,0.135-1.33,0.203-2.002,0.203c-1.222,0-2.334-0.217-3.341-0.639
				c-1.006-0.428-1.869-1.049-2.59-1.861c-0.721-0.816-1.279-1.811-1.671-2.99c-0.395-1.18-0.59-2.533-0.59-4.055
				c0-1.281,0.182-2.461,0.548-3.549c0.366-1.082,0.89-2.018,1.58-2.799c0.689-0.787,1.535-1.4,2.533-1.844
				C271.758,190.133,272.894,189.911,274.165,189.911z M274.192,191.182c-0.922,0-1.749,0.148-2.479,0.436
				c-0.729,0.289-1.357,0.699-1.89,1.236c-0.533,0.541-0.964,1.188-1.294,1.945c-0.33,0.752-0.545,1.598-0.655,2.529h11.77
				c0-0.957-0.131-1.814-0.394-2.572c-0.262-0.766-0.634-1.408-1.112-1.938c-0.478-0.527-1.053-0.93-1.721-1.213
				C275.744,191.327,275.004,191.182,274.192,191.182z"/>
			<path fill="#283A42" d="M290.656,208.366c-1.208,0-2.148-0.338-2.816-1.006c-0.673-0.674-1.009-1.709-1.009-3.113V192.03h-2.569
				c-0.131,0-0.239-0.035-0.321-0.107c-0.087-0.07-0.127-0.172-0.127-0.305v-0.668l3.054-0.211l0.427-6.398
				c0.013-0.105,0.055-0.203,0.133-0.287c0.076-0.086,0.18-0.127,0.311-0.127h0.801v6.83h5.623v1.273h-5.623v12.129
				c0,0.49,0.061,0.912,0.188,1.268c0.125,0.355,0.298,0.643,0.521,0.867c0.222,0.229,0.482,0.398,0.782,0.508
				c0.298,0.105,0.622,0.16,0.971,0.16c0.429,0,0.801-0.062,1.112-0.189c0.312-0.127,0.581-0.264,0.81-0.414
				c0.229-0.148,0.415-0.289,0.559-0.416c0.142-0.121,0.256-0.182,0.338-0.182c0.098,0,0.192,0.055,0.29,0.174l0.467,0.758
				c-0.456,0.502-1.034,0.908-1.733,1.213C292.14,208.209,291.413,208.366,290.656,208.366z"/>
			<path fill="#283A42" d="M305.337,189.911c1.004,0,1.937,0.172,2.793,0.52c0.858,0.348,1.601,0.854,2.229,1.518
				c0.628,0.668,1.119,1.48,1.472,2.453c0.355,0.973,0.531,2.086,0.531,3.346c0,0.262-0.038,0.439-0.116,0.537
				c-0.076,0.098-0.199,0.145-0.368,0.145h-12.901v0.338c0,1.34,0.154,2.525,0.468,3.543c0.309,1.016,0.755,1.869,1.328,2.559
				c0.575,0.689,1.271,1.205,2.084,1.553c0.816,0.352,1.726,0.525,2.732,0.525c0.896,0,1.675-0.098,2.335-0.301
				c0.659-0.199,1.213-0.414,1.662-0.664c0.451-0.242,0.806-0.465,1.07-0.664c0.263-0.195,0.453-0.297,0.575-0.297
				c0.157,0,0.275,0.061,0.359,0.178l0.466,0.58c-0.288,0.355-0.664,0.689-1.14,1.006c-0.474,0.309-1,0.576-1.58,0.799
				c-0.583,0.217-1.205,0.395-1.869,0.525c-0.664,0.135-1.332,0.203-2.005,0.203c-1.22,0-2.334-0.217-3.341-0.639
				c-1.006-0.428-1.869-1.049-2.59-1.861c-0.721-0.816-1.279-1.811-1.672-2.99c-0.394-1.18-0.588-2.533-0.588-4.055
				c0-1.281,0.182-2.461,0.545-3.549c0.366-1.082,0.892-2.018,1.582-2.799c0.689-0.787,1.535-1.4,2.533-1.844
				C302.933,190.133,304.066,189.911,305.337,189.911z M305.362,191.182c-0.92,0-1.747,0.148-2.474,0.436
				c-0.729,0.289-1.361,0.699-1.895,1.236c-0.531,0.541-0.962,1.188-1.292,1.945c-0.33,0.752-0.546,1.598-0.653,2.529h11.768
				c0-0.957-0.131-1.814-0.394-2.572c-0.265-0.766-0.634-1.408-1.112-1.938c-0.478-0.527-1.053-0.93-1.724-1.213
				C306.917,191.327,306.176,191.182,305.362,191.182z"/>
			<path fill="#283A42" d="M328.73,192.586c-0.059,0.061-0.116,0.111-0.171,0.152c-0.053,0.043-0.129,0.064-0.225,0.064
				c-0.12,0-0.285-0.08-0.495-0.242c-0.209-0.164-0.489-0.338-0.835-0.531c-0.347-0.191-0.782-0.369-1.302-0.525
				c-0.52-0.164-1.153-0.25-1.895-0.25c-1.029,0-1.943,0.188-2.74,0.551c-0.797,0.367-1.467,0.887-2.013,1.572
				c-0.546,0.686-0.96,1.51-1.248,2.479c-0.287,0.969-0.431,2.064-0.431,3.273c0,1.256,0.146,2.369,0.44,3.342
				c0.294,0.967,0.71,1.789,1.248,2.447c0.542,0.668,1.193,1.172,1.958,1.523c0.768,0.346,1.62,0.52,2.554,0.52
				c0.861,0,1.582-0.102,2.166-0.309c0.58-0.203,1.057-0.422,1.436-0.664c0.378-0.236,0.676-0.461,0.898-0.664
				c0.222-0.203,0.397-0.305,0.528-0.305c0.157,0,0.277,0.061,0.359,0.178l0.47,0.58c-0.277,0.355-0.624,0.689-1.045,1.006
				c-0.416,0.309-0.892,0.58-1.417,0.809c-0.529,0.225-1.099,0.4-1.717,0.523c-0.618,0.131-1.26,0.195-1.931,0.195
				c-1.14,0-2.176-0.211-3.119-0.621c-0.941-0.416-1.749-1.012-2.426-1.799c-0.677-0.781-1.203-1.746-1.58-2.883
				c-0.376-1.139-0.567-2.432-0.567-3.879c0-1.365,0.18-2.613,0.54-3.738c0.359-1.129,0.882-2.094,1.571-2.91
				c0.689-0.816,1.533-1.449,2.533-1.898c1-0.449,2.148-0.672,3.443-0.672c1.159,0,2.195,0.186,3.098,0.559
				c0.903,0.367,1.692,0.871,2.362,1.51L328.73,192.586z"/>
			<path fill="#283A42" d="M338.178,208.366c-1.208,0-2.148-0.338-2.819-1.006c-0.67-0.674-1.006-1.709-1.006-3.113V192.03h-2.569
				c-0.131,0-0.241-0.035-0.324-0.107c-0.084-0.07-0.127-0.172-0.127-0.305v-0.668l3.056-0.211l0.427-6.398
				c0.013-0.105,0.055-0.203,0.133-0.287c0.076-0.086,0.18-0.127,0.311-0.127h0.799v6.83h5.625v1.273h-5.625v12.129
				c0,0.49,0.063,0.912,0.19,1.268c0.125,0.355,0.298,0.643,0.52,0.867c0.222,0.229,0.482,0.398,0.783,0.508
				c0.298,0.105,0.621,0.16,0.968,0.16c0.431,0,0.803-0.062,1.114-0.189s0.582-0.264,0.81-0.414
				c0.229-0.148,0.414-0.289,0.558-0.416c0.142-0.121,0.253-0.182,0.338-0.182c0.095,0,0.192,0.055,0.288,0.174l0.467,0.758
				c-0.455,0.502-1.032,0.908-1.732,1.213C339.663,208.209,338.935,208.366,338.178,208.366z"/>
			<path fill="#283A42" d="M349.087,184.036c0,0.217-0.046,0.414-0.135,0.602c-0.091,0.186-0.205,0.346-0.349,0.494
				c-0.144,0.139-0.313,0.258-0.503,0.342c-0.194,0.086-0.397,0.127-0.613,0.127c-0.215,0-0.418-0.041-0.608-0.127
				c-0.195-0.084-0.36-0.203-0.504-0.342c-0.144-0.148-0.258-0.309-0.342-0.494c-0.084-0.188-0.126-0.385-0.126-0.602
				c0-0.219,0.042-0.422,0.126-0.621s0.199-0.369,0.342-0.512c0.144-0.145,0.309-0.254,0.504-0.338
				c0.19-0.086,0.393-0.127,0.608-0.127c0.216,0,0.419,0.041,0.613,0.127c0.19,0.084,0.359,0.193,0.503,0.338
				c0.144,0.143,0.258,0.312,0.349,0.512C349.041,183.614,349.087,183.817,349.087,184.036z M348.332,190.198v17.877h-1.708v-17.877
				H348.332z"/>
			<path fill="#283A42" d="M361.468,189.911c1.281,0,2.428,0.219,3.435,0.654c1.019,0.436,1.864,1.059,2.562,1.861
				c0.693,0.803,1.227,1.768,1.59,2.9c0.364,1.135,0.55,2.402,0.55,3.803s-0.186,2.664-0.55,3.789
				c-0.363,1.125-0.896,2.09-1.59,2.893c-0.698,0.805-1.544,1.422-2.562,1.854c-1.007,0.426-2.153,0.646-3.435,0.646
				c-1.284,0-2.433-0.221-3.443-0.646c-1.013-0.432-1.869-1.049-2.571-1.854c-0.7-0.803-1.232-1.768-1.599-2.893
				c-0.363-1.125-0.545-2.389-0.545-3.789s0.182-2.668,0.545-3.803c0.366-1.133,0.899-2.098,1.599-2.9
				c0.702-0.803,1.559-1.426,2.571-1.861C359.036,190.129,360.184,189.911,361.468,189.911z M361.468,206.961
				c1.066,0,1.992-0.182,2.791-0.549c0.795-0.365,1.459-0.889,1.992-1.574c0.533-0.68,0.935-1.506,1.197-2.465
				c0.262-0.969,0.397-2.047,0.397-3.244c0-1.188-0.136-2.268-0.397-3.234c-0.263-0.973-0.664-1.803-1.197-2.492
				s-1.197-1.217-1.992-1.586c-0.799-0.371-1.725-0.562-2.791-0.562c-1.071,0-2.001,0.191-2.796,0.562
				c-0.798,0.369-1.464,0.896-1.996,1.586c-0.533,0.689-0.935,1.52-1.204,2.492c-0.269,0.967-0.404,2.047-0.404,3.234
				c0,1.197,0.135,2.275,0.404,3.244c0.269,0.959,0.67,1.785,1.204,2.465c0.532,0.686,1.198,1.209,1.996,1.574
				C359.467,206.78,360.397,206.961,361.468,206.961z"/>
			<path fill="#283A42" d="M374.097,208.075v-17.877h0.934c0.309,0,0.491,0.152,0.537,0.447l0.161,2.699
				c0.816-1.031,1.764-1.865,2.847-2.49c1.086-0.631,2.296-0.943,3.624-0.943c0.981,0,1.848,0.156,2.593,0.469
				c0.748,0.309,1.369,0.758,1.864,1.346c0.491,0.588,0.858,1.293,1.108,2.117c0.254,0.83,0.381,1.76,0.381,2.809v11.424h-1.709
				v-11.424c0-1.678-0.381-2.994-1.146-3.945c-0.77-0.951-1.945-1.43-3.522-1.43c-1.176,0-2.263,0.301-3.269,0.904
				c-1.012,0.609-1.908,1.439-2.699,2.492v13.402H374.097z"/>
			<path fill="#283A42" d="M401.133,208.075v-16.008l-2.517-0.16c-0.343-0.025-0.52-0.174-0.52-0.449v-0.701h3.036v-2.264
				c0-1.02,0.131-1.916,0.397-2.689c0.262-0.773,0.635-1.416,1.112-1.932c0.478-0.512,1.058-0.896,1.733-1.16
				c0.677-0.254,1.422-0.385,2.237-0.385c0.372,0,0.745,0.029,1.121,0.098c0.38,0.068,0.71,0.156,0.998,0.279l-0.051,0.812
				c-0.013,0.168-0.127,0.25-0.343,0.25c-0.144,0-0.338-0.018-0.584-0.057c-0.245-0.033-0.545-0.051-0.904-0.051
				c-0.588,0-1.134,0.086-1.629,0.258c-0.498,0.178-0.926,0.453-1.285,0.838s-0.639,0.889-0.838,1.506
				c-0.194,0.617-0.295,1.379-0.295,2.279v2.217h5.806v1.273h-5.769v16.045H401.133z"/>
			<path fill="#283A42" d="M418.853,189.911c1.281,0,2.428,0.219,3.438,0.654c1.015,0.436,1.864,1.059,2.562,1.861
				c0.693,0.803,1.222,1.768,1.59,2.9c0.364,1.135,0.546,2.402,0.546,3.803s-0.182,2.664-0.546,3.789
				c-0.368,1.125-0.896,2.09-1.59,2.893c-0.698,0.805-1.548,1.422-2.562,1.854c-1.011,0.426-2.157,0.646-3.438,0.646
				c-1.285,0-2.432-0.221-3.442-0.646c-1.011-0.432-1.869-1.049-2.571-1.854c-0.698-0.803-1.23-1.768-1.595-2.893
				c-0.368-1.125-0.55-2.389-0.55-3.789s0.182-2.668,0.55-3.803c0.364-1.133,0.896-2.098,1.595-2.9
				c0.702-0.803,1.561-1.426,2.571-1.861S417.568,189.911,418.853,189.911z M418.853,206.961c1.065,0,1.992-0.182,2.791-0.549
				c0.8-0.365,1.463-0.889,1.996-1.574c0.529-0.68,0.931-1.506,1.197-2.465c0.262-0.969,0.393-2.047,0.393-3.244
				c0-1.188-0.131-2.268-0.393-3.234c-0.267-0.973-0.668-1.803-1.197-2.492c-0.533-0.689-1.196-1.217-1.996-1.586
				c-0.799-0.371-1.726-0.562-2.791-0.562s-2,0.191-2.795,0.562c-0.796,0.369-1.464,0.896-1.992,1.586
				c-0.537,0.689-0.939,1.52-1.205,2.492c-0.271,0.967-0.406,2.047-0.406,3.234c0,1.197,0.135,2.275,0.406,3.244
				c0.266,0.959,0.668,1.785,1.205,2.465c0.528,0.686,1.196,1.209,1.992,1.574C416.853,206.78,417.788,206.961,418.853,206.961z"/>
			<path fill="#283A42" d="M431.481,208.075v-17.877h0.896c0.208,0,0.351,0.043,0.444,0.127c0.089,0.084,0.14,0.229,0.152,0.432
				l0.14,3.771c0.579-1.449,1.345-2.584,2.305-3.404c0.956-0.82,2.136-1.23,3.535-1.23c0.542,0,1.036,0.055,1.493,0.174
				c0.452,0.109,0.888,0.275,1.294,0.49l-0.237,1.188c-0.033,0.191-0.151,0.285-0.359,0.285c-0.067,0-0.173-0.021-0.304-0.072
				c-0.127-0.047-0.296-0.098-0.491-0.162c-0.198-0.059-0.439-0.113-0.731-0.16c-0.287-0.051-0.617-0.072-0.985-0.072
				c-1.354,0-2.465,0.42-3.332,1.256c-0.871,0.842-1.573,2.047-2.115,3.633v11.623H431.481z"/>
			<path fill="#283A42" d="M452.681,208.075v-17.877h0.935c0.313,0,0.491,0.152,0.542,0.447l0.16,2.59
				c0.347-0.492,0.724-0.943,1.117-1.346c0.389-0.41,0.812-0.762,1.264-1.057c0.449-0.293,0.931-0.516,1.438-0.678
				c0.507-0.16,1.04-0.244,1.606-0.244c1.307,0,2.348,0.381,3.126,1.141c0.778,0.762,1.307,1.814,1.581,3.168
				c0.216-0.74,0.517-1.383,0.91-1.92c0.389-0.537,0.832-0.984,1.332-1.34c0.507-0.352,1.049-0.613,1.641-0.791
				c0.592-0.17,1.201-0.258,1.822-0.258c0.885,0,1.684,0.146,2.386,0.439c0.706,0.295,1.307,0.727,1.802,1.303
				c0.498,0.574,0.879,1.281,1.142,2.119c0.262,0.842,0.394,1.797,0.394,2.879v11.424h-1.705v-11.424c0-1.75-0.376-3.082-1.133-4
				c-0.753-0.918-1.832-1.375-3.235-1.375c-0.622,0-1.218,0.115-1.789,0.342c-0.566,0.229-1.074,0.562-1.51,1.012
				c-0.432,0.453-0.782,1.01-1.04,1.684c-0.258,0.672-0.39,1.445-0.39,2.338v11.424h-1.704v-11.424c0-1.742-0.347-3.07-1.04-3.992
				c-0.694-0.922-1.709-1.383-3.037-1.383c-0.968,0-1.869,0.287-2.698,0.871c-0.82,0.58-1.556,1.387-2.207,2.42v13.508H452.681z"/>
			<path fill="#283A42" d="M492.676,208.075c-0.36,0-0.58-0.17-0.664-0.504l-0.25-2.279c-0.495,0.479-0.981,0.908-1.463,1.289
				c-0.486,0.389-0.994,0.711-1.519,0.973c-0.528,0.264-1.1,0.465-1.708,0.602c-0.613,0.139-1.282,0.211-2.014,0.211
				c-0.608,0-1.205-0.094-1.78-0.275c-0.575-0.178-1.082-0.451-1.526-0.824c-0.444-0.367-0.8-0.846-1.065-1.43
				c-0.271-0.578-0.406-1.277-0.406-2.088c0-0.758,0.215-1.459,0.646-2.107c0.432-0.643,1.104-1.209,2.021-1.688
				c0.914-0.477,2.094-0.861,3.536-1.15c1.446-0.287,3.18-0.457,5.206-0.502v-1.869c0-1.654-0.355-2.928-1.07-3.816
				c-0.711-0.891-1.768-1.34-3.172-1.34c-0.863,0-1.594,0.119-2.199,0.359c-0.609,0.242-1.116,0.504-1.535,0.791
				c-0.423,0.287-0.761,0.551-1.027,0.791c-0.263,0.236-0.482,0.359-0.664,0.359c-0.241,0-0.419-0.109-0.537-0.322l-0.305-0.523
				c0.931-0.936,1.912-1.641,2.943-2.119c1.027-0.479,2.199-0.719,3.506-0.719c0.956,0,1.793,0.152,2.513,0.457
				c0.719,0.309,1.319,0.744,1.788,1.311c0.475,0.57,0.829,1.256,1.07,2.068c0.241,0.809,0.359,1.709,0.359,2.703v11.643H492.676z
				 M485.491,207.122c0.693,0,1.332-0.07,1.916-0.223c0.579-0.148,1.116-0.359,1.611-0.631c0.499-0.271,0.964-0.588,1.396-0.959
				c0.432-0.373,0.854-0.775,1.277-1.207v-4.65c-1.7,0.045-3.168,0.178-4.395,0.389c-1.23,0.203-2.241,0.49-3.036,0.85
				c-0.8,0.359-1.383,0.787-1.764,1.281c-0.376,0.504-0.562,1.066-0.562,1.705c0,0.596,0.097,1.111,0.296,1.551
				c0.199,0.436,0.457,0.795,0.782,1.08c0.321,0.277,0.702,0.486,1.134,0.621C484.573,207.059,485.021,207.122,485.491,207.122z"/>
			<path fill="#283A42" d="M508.594,192.405c-0.08,0.17-0.212,0.254-0.394,0.254c-0.131,0-0.305-0.072-0.512-0.225
				c-0.211-0.152-0.486-0.316-0.824-0.502c-0.343-0.188-0.766-0.355-1.261-0.504c-0.495-0.152-1.104-0.225-1.822-0.225
				c-0.647,0-1.235,0.094-1.769,0.275c-0.537,0.189-0.989,0.436-1.365,0.748c-0.381,0.314-0.673,0.674-0.884,1.092
				c-0.208,0.41-0.313,0.842-0.313,1.299c0,0.566,0.145,1.027,0.432,1.398c0.283,0.373,0.664,0.689,1.133,0.957
				c0.461,0.262,0.998,0.486,1.586,0.68c0.597,0.195,1.206,0.385,1.823,0.576c0.626,0.193,1.235,0.406,1.827,0.639
				s1.121,0.523,1.59,0.871c0.47,0.346,0.846,0.773,1.134,1.277c0.283,0.498,0.427,1.111,0.427,1.83c0,0.783-0.14,1.506-0.418,2.174
				c-0.284,0.674-0.689,1.252-1.223,1.742c-0.533,0.492-1.188,0.885-1.967,1.168c-0.778,0.287-1.666,0.436-2.66,0.436
				c-1.26,0-2.343-0.207-3.252-0.605c-0.909-0.4-1.729-0.926-2.444-1.572l0.414-0.609c0.06-0.098,0.127-0.168,0.199-0.215
				c0.071-0.051,0.169-0.072,0.305-0.072c0.151,0,0.347,0.098,0.575,0.287c0.229,0.191,0.52,0.398,0.888,0.617
				c0.364,0.225,0.82,0.428,1.366,0.623c0.545,0.189,1.218,0.287,2.021,0.287c0.757,0,1.421-0.105,1.996-0.312
				c0.575-0.213,1.049-0.5,1.434-0.859c0.385-0.355,0.677-0.777,0.871-1.264c0.199-0.486,0.296-0.994,0.296-1.535
				c0-0.598-0.14-1.1-0.431-1.494c-0.284-0.393-0.664-0.727-1.13-1.002c-0.465-0.279-0.998-0.512-1.595-0.701
				c-0.592-0.195-1.2-0.385-1.83-0.576c-0.627-0.189-1.24-0.406-1.832-0.629c-0.592-0.225-1.12-0.518-1.59-0.863
				c-0.465-0.348-0.846-0.77-1.134-1.266c-0.283-0.498-0.431-1.119-0.431-1.859c0-0.639,0.139-1.248,0.414-1.836
				s0.668-1.1,1.18-1.543c0.508-0.445,1.129-0.797,1.857-1.059c0.73-0.262,1.552-0.396,2.461-0.396c1.087,0,2.06,0.156,2.9,0.469
				c0.847,0.309,1.625,0.787,2.331,1.438L508.594,192.405z"/>
			<path fill="#283A42" d="M524.047,192.405c-0.085,0.17-0.216,0.254-0.397,0.254c-0.127,0-0.301-0.072-0.508-0.225
				c-0.216-0.152-0.486-0.316-0.829-0.502c-0.338-0.188-0.761-0.355-1.26-0.504c-0.495-0.152-1.104-0.225-1.823-0.225
				c-0.643,0-1.234,0.094-1.768,0.275c-0.532,0.189-0.989,0.436-1.366,0.748c-0.376,0.314-0.668,0.674-0.879,1.092
				c-0.208,0.41-0.313,0.842-0.313,1.299c0,0.566,0.145,1.027,0.428,1.398c0.291,0.373,0.668,0.689,1.133,0.957
				c0.466,0.262,0.998,0.486,1.59,0.68c0.597,0.195,1.201,0.385,1.823,0.576c0.626,0.193,1.23,0.406,1.822,0.639
				c0.597,0.232,1.125,0.523,1.595,0.871c0.465,0.346,0.846,0.773,1.129,1.277c0.292,0.498,0.432,1.111,0.432,1.83
				c0,0.783-0.14,1.506-0.423,2.174c-0.279,0.674-0.686,1.252-1.218,1.742c-0.533,0.492-1.188,0.885-1.971,1.168
				c-0.778,0.287-1.662,0.436-2.656,0.436c-1.26,0-2.343-0.207-3.256-0.605c-0.905-0.4-1.722-0.926-2.44-1.572l0.41-0.609
				c0.06-0.098,0.127-0.168,0.198-0.215c0.072-0.051,0.174-0.072,0.305-0.072c0.156,0,0.352,0.098,0.58,0.287
				c0.224,0.191,0.52,0.398,0.884,0.617c0.368,0.225,0.824,0.428,1.365,0.623c0.55,0.189,1.223,0.287,2.026,0.287
				c0.753,0,1.417-0.105,1.991-0.312c0.575-0.213,1.054-0.5,1.438-0.859c0.381-0.355,0.677-0.777,0.871-1.264
				c0.199-0.486,0.296-0.994,0.296-1.535c0-0.598-0.144-1.1-0.432-1.494c-0.287-0.393-0.664-0.727-1.129-1.002
				c-0.47-0.279-0.998-0.512-1.59-0.701c-0.597-0.195-1.205-0.385-1.836-0.576c-0.626-0.189-1.243-0.406-1.831-0.629
				c-0.596-0.225-1.125-0.518-1.59-0.863c-0.465-0.348-0.846-0.77-1.134-1.266c-0.287-0.498-0.431-1.119-0.431-1.859
				c0-0.639,0.139-1.248,0.414-1.836c0.271-0.588,0.668-1.1,1.176-1.543c0.512-0.445,1.129-0.797,1.86-1.059
				c0.732-0.262,1.553-0.396,2.462-0.396c1.091,0,2.055,0.156,2.901,0.469c0.841,0.309,1.619,0.787,2.325,1.438L524.047,192.405z"/>
			<path fill="#283A42" d="M542.482,189.893c0.778,0,1.501,0.098,2.165,0.287c0.664,0.191,1.265,0.461,1.789,0.809h4.58v0.592
				c0,0.301-0.165,0.461-0.503,0.486l-2.711,0.195c0.334,0.455,0.592,0.973,0.77,1.539c0.182,0.566,0.271,1.176,0.271,1.822
				c0,0.863-0.156,1.645-0.47,2.348c-0.309,0.697-0.739,1.297-1.298,1.793c-0.559,0.498-1.227,0.883-2.005,1.158
				c-0.778,0.279-1.641,0.414-2.588,0.414c-1.027,0-1.967-0.156-2.8-0.465c-0.508,0.287-0.9,0.627-1.184,1.023
				c-0.292,0.395-0.437,0.779-0.437,1.15c0,0.512,0.183,0.91,0.542,1.184c0.359,0.275,0.833,0.479,1.43,0.602
				c0.587,0.127,1.264,0.207,2.025,0.244c0.761,0.035,1.535,0.076,2.321,0.115c0.783,0.043,1.557,0.119,2.318,0.229
				c0.761,0.105,1.438,0.295,2.025,0.562c0.597,0.27,1.07,0.646,1.43,1.133s0.541,1.129,0.541,1.934c0,0.74-0.187,1.455-0.559,2.135
				c-0.372,0.682-0.904,1.291-1.606,1.814c-0.702,0.529-1.553,0.951-2.542,1.27c-0.994,0.316-2.11,0.473-3.345,0.473
				c-1.257,0-2.356-0.127-3.304-0.385s-1.742-0.605-2.381-1.041c-0.643-0.436-1.125-0.947-1.446-1.521
				c-0.325-0.57-0.486-1.184-0.486-1.832c0-0.943,0.309-1.758,0.935-2.439c0.622-0.686,1.48-1.213,2.571-1.586
				c-0.604-0.199-1.078-0.494-1.43-0.875c-0.354-0.385-0.532-0.918-0.532-1.604c0-0.25,0.046-0.512,0.144-0.791
				c0.098-0.27,0.241-0.545,0.436-0.816c0.19-0.27,0.419-0.523,0.689-0.76c0.267-0.242,0.584-0.457,0.943-0.652
				c-0.854-0.49-1.515-1.143-1.983-1.953c-0.474-0.816-0.715-1.773-0.715-2.859c0-0.859,0.156-1.645,0.461-2.344
				c0.305-0.701,0.735-1.301,1.294-1.809c0.559-0.504,1.23-0.889,2.021-1.164C540.651,190.034,541.526,189.893,542.482,189.893z
				 M549.113,209.28c0-0.562-0.147-1.016-0.439-1.357c-0.296-0.34-0.686-0.605-1.176-0.801c-0.495-0.189-1.062-0.324-1.7-0.4
				c-0.643-0.08-1.311-0.141-2.013-0.174c-0.702-0.039-1.404-0.072-2.11-0.105c-0.706-0.039-1.366-0.109-1.976-0.217
				c-0.456,0.178-0.879,0.385-1.264,0.623c-0.394,0.232-0.724,0.494-1.003,0.785c-0.271,0.293-0.49,0.619-0.643,0.973
				c-0.161,0.352-0.237,0.736-0.237,1.16c0,0.527,0.136,1.014,0.406,1.463c0.267,0.447,0.664,0.838,1.185,1.168
				c0.52,0.328,1.158,0.592,1.916,0.781c0.752,0.191,1.623,0.287,2.604,0.287c0.909,0,1.755-0.102,2.542-0.305
				c0.786-0.201,1.468-0.494,2.047-0.861c0.583-0.373,1.036-0.816,1.366-1.332C548.948,210.452,549.113,209.893,549.113,209.28z
				 M542.482,200.17c0.766,0,1.45-0.115,2.047-0.33c0.601-0.225,1.104-0.533,1.51-0.932c0.406-0.393,0.715-0.865,0.926-1.42
				c0.208-0.545,0.313-1.158,0.313-1.832c0-0.668-0.105-1.281-0.321-1.84c-0.216-0.553-0.533-1.031-0.943-1.428
				c-0.41-0.395-0.918-0.699-1.51-0.918c-0.592-0.217-1.265-0.322-2.021-0.322c-0.753,0-1.43,0.105-2.025,0.322
				c-0.605,0.219-1.108,0.523-1.522,0.918c-0.41,0.396-0.728,0.875-0.943,1.428c-0.216,0.559-0.321,1.172-0.321,1.84
				c0,0.674,0.105,1.287,0.321,1.832c0.216,0.555,0.533,1.027,0.943,1.42c0.414,0.398,0.917,0.707,1.522,0.932
				C541.052,200.055,541.729,200.17,542.482,200.17z"/>
			<path fill="#283A42" d="M566.126,208.075c-0.359,0-0.583-0.17-0.664-0.504l-0.253-2.279c-0.491,0.479-0.978,0.908-1.464,1.289
				c-0.482,0.389-0.989,0.711-1.519,0.973c-0.528,0.264-1.095,0.465-1.708,0.602c-0.609,0.139-1.277,0.211-2.013,0.211
				c-0.609,0-1.201-0.094-1.776-0.275c-0.575-0.178-1.087-0.451-1.527-0.824c-0.443-0.367-0.799-0.846-1.069-1.43
				c-0.271-0.578-0.406-1.277-0.406-2.088c0-0.758,0.22-1.459,0.647-2.107c0.431-0.643,1.107-1.209,2.021-1.688
				c0.917-0.477,2.098-0.861,3.544-1.15c1.441-0.287,3.176-0.457,5.197-0.502v-1.869c0-1.654-0.355-2.928-1.07-3.816
				c-0.71-0.891-1.768-1.34-3.172-1.34c-0.862,0-1.594,0.119-2.199,0.359c-0.604,0.242-1.116,0.504-1.535,0.791
				c-0.418,0.287-0.761,0.551-1.027,0.791c-0.258,0.236-0.482,0.359-0.659,0.359c-0.241,0-0.419-0.109-0.542-0.322l-0.305-0.523
				c0.935-0.936,1.916-1.641,2.943-2.119c1.032-0.479,2.204-0.719,3.507-0.719c0.955,0,1.797,0.152,2.516,0.457
				c0.719,0.309,1.315,0.744,1.785,1.311c0.478,0.57,0.833,1.256,1.074,2.068c0.236,0.809,0.354,1.709,0.354,2.703v11.643H566.126z
				 M558.937,207.122c0.698,0,1.337-0.07,1.916-0.223c0.584-0.148,1.116-0.359,1.615-0.631s0.96-0.588,1.396-0.959
				c0.432-0.373,0.854-0.775,1.273-1.207v-4.65c-1.7,0.045-3.168,0.178-4.395,0.389c-1.226,0.203-2.236,0.49-3.036,0.85
				c-0.795,0.359-1.383,0.787-1.759,1.281c-0.377,0.504-0.562,1.066-0.562,1.705c0,0.596,0.097,1.111,0.291,1.551
				c0.199,0.436,0.457,0.795,0.783,1.08c0.325,0.277,0.701,0.486,1.133,0.621C558.024,207.059,558.472,207.122,558.937,207.122z"/>
			<path fill="#283A42" d="M577.067,208.366c-1.209,0-2.147-0.338-2.82-1.006c-0.668-0.674-1.002-1.709-1.002-3.113V192.03h-2.571
				c-0.136,0-0.241-0.035-0.326-0.107c-0.08-0.07-0.122-0.172-0.122-0.305v-0.668l3.053-0.211l0.423-6.398
				c0.013-0.105,0.06-0.203,0.136-0.287c0.076-0.086,0.182-0.127,0.312-0.127h0.8v6.83h5.625v1.273h-5.625v12.129
				c0,0.49,0.063,0.912,0.186,1.268c0.127,0.355,0.301,0.643,0.521,0.867c0.225,0.229,0.486,0.398,0.787,0.508
				c0.296,0.105,0.617,0.16,0.968,0.16c0.432,0,0.804-0.062,1.112-0.189c0.313-0.127,0.579-0.264,0.812-0.414
				c0.224-0.148,0.41-0.289,0.554-0.416c0.144-0.121,0.258-0.182,0.338-0.182c0.098,0,0.195,0.055,0.292,0.174l0.466,0.758
				c-0.453,0.502-1.032,0.908-1.734,1.213C578.552,208.209,577.825,208.366,577.067,208.366z"/>
			<path fill="#283A42" d="M585.009,208.075v-26.141h1.705v11.32c0.828-1.018,1.775-1.83,2.833-2.439
				c1.062-0.605,2.25-0.904,3.565-0.904c0.98,0,1.848,0.156,2.597,0.469c0.748,0.309,1.37,0.758,1.86,1.346s0.858,1.293,1.112,2.117
				c0.254,0.83,0.381,1.76,0.381,2.809v11.424h-1.709v-11.424c0-1.678-0.385-2.994-1.15-3.945c-0.765-0.951-1.94-1.43-3.522-1.43
				c-1.172,0-2.263,0.301-3.27,0.904c-1.006,0.609-1.902,1.439-2.697,2.492v13.402H585.009z"/>
			<path fill="#283A42" d="M611.188,189.911c1.006,0,1.937,0.172,2.795,0.52c0.854,0.348,1.599,0.854,2.229,1.518
				c0.626,0.668,1.121,1.48,1.472,2.453c0.352,0.973,0.529,2.086,0.529,3.346c0,0.262-0.038,0.439-0.114,0.537
				c-0.08,0.098-0.203,0.145-0.368,0.145h-12.903v0.338c0,1.34,0.152,2.525,0.466,3.543c0.317,1.016,0.757,1.869,1.332,2.559
				s1.269,1.205,2.085,1.553c0.812,0.352,1.721,0.525,2.731,0.525c0.897,0,1.675-0.098,2.331-0.301
				c0.664-0.199,1.213-0.414,1.662-0.664c0.452-0.242,0.808-0.465,1.073-0.664c0.259-0.195,0.453-0.297,0.571-0.297
				c0.161,0,0.279,0.061,0.359,0.178l0.47,0.58c-0.288,0.355-0.668,0.689-1.142,1.006c-0.474,0.309-0.998,0.576-1.582,0.799
				c-0.579,0.217-1.201,0.395-1.865,0.525c-0.668,0.135-1.336,0.203-2.004,0.203c-1.223,0-2.339-0.217-3.346-0.639
				c-1.002-0.428-1.869-1.049-2.588-1.861c-0.724-0.816-1.277-1.811-1.671-2.99s-0.592-2.533-0.592-4.055
				c0-1.281,0.182-2.461,0.55-3.549c0.368-1.082,0.893-2.018,1.581-2.799c0.689-0.787,1.535-1.4,2.534-1.844
				C608.786,190.133,609.918,189.911,611.188,189.911z M611.213,191.182c-0.922,0-1.747,0.148-2.475,0.436
				c-0.731,0.289-1.361,0.699-1.895,1.236c-0.533,0.541-0.96,1.188-1.29,1.945c-0.33,0.752-0.55,1.598-0.655,2.529h11.766
				c0-0.957-0.127-1.814-0.39-2.572c-0.267-0.766-0.634-1.408-1.112-1.938c-0.478-0.527-1.057-0.93-1.726-1.213
				C612.769,191.327,612.029,191.182,611.213,191.182z"/>
			<path fill="#283A42" d="M622.813,208.075v-17.877h0.896c0.203,0,0.352,0.043,0.44,0.127c0.093,0.084,0.144,0.229,0.156,0.432
				l0.14,3.771c0.579-1.449,1.341-2.584,2.301-3.404s2.14-1.23,3.544-1.23c0.537,0,1.032,0.055,1.488,0.174
				c0.453,0.109,0.889,0.275,1.294,0.49l-0.232,1.188c-0.038,0.191-0.156,0.285-0.359,0.285c-0.072,0-0.178-0.021-0.309-0.072
				c-0.131-0.047-0.296-0.098-0.495-0.162c-0.194-0.059-0.439-0.113-0.723-0.16c-0.292-0.051-0.622-0.072-0.994-0.072
				c-1.354,0-2.461,0.42-3.332,1.256c-0.867,0.842-1.569,2.047-2.11,3.633v11.623H622.813z"/>
			<path fill="#283A42" d="M640.042,184.036c0,0.217-0.046,0.414-0.135,0.602c-0.089,0.186-0.208,0.346-0.355,0.494
				c-0.14,0.139-0.309,0.258-0.499,0.342c-0.194,0.086-0.394,0.127-0.609,0.127c-0.22,0-0.423-0.041-0.613-0.127
				c-0.194-0.084-0.359-0.203-0.503-0.342c-0.144-0.148-0.258-0.309-0.343-0.494c-0.08-0.188-0.122-0.385-0.122-0.602
				c0-0.219,0.042-0.422,0.122-0.621c0.085-0.199,0.199-0.369,0.343-0.512c0.144-0.145,0.309-0.254,0.503-0.338
				c0.19-0.086,0.394-0.127,0.613-0.127c0.216,0,0.415,0.041,0.609,0.127c0.19,0.084,0.359,0.193,0.499,0.338
				c0.147,0.143,0.267,0.312,0.355,0.512S640.042,183.817,640.042,184.036z M639.286,190.198v17.877h-1.704v-17.877H639.286z"/>
			<path fill="#283A42" d="M645.613,208.075v-17.877h0.935c0.309,0,0.49,0.152,0.537,0.447l0.16,2.699
				c0.816-1.031,1.768-1.865,2.851-2.49c1.087-0.631,2.292-0.943,3.62-0.943c0.981,0,1.848,0.156,2.597,0.469
				c0.748,0.309,1.366,0.758,1.86,1.346c0.491,0.588,0.859,1.293,1.112,2.117c0.25,0.83,0.377,1.76,0.377,2.809v11.424h-1.709
				v-11.424c0-1.678-0.381-2.994-1.146-3.945c-0.766-0.951-1.941-1.43-3.523-1.43c-1.176,0-2.263,0.301-3.269,0.904
				c-1.007,0.609-1.907,1.439-2.698,2.492v13.402H645.613z"/>
			<path fill="#283A42" d="M670.945,189.893c0.778,0,1.501,0.098,2.165,0.287c0.664,0.191,1.261,0.461,1.789,0.809h4.58v0.592
				c0,0.301-0.169,0.461-0.503,0.486l-2.716,0.195c0.339,0.455,0.597,0.973,0.774,1.539s0.271,1.176,0.271,1.822
				c0,0.863-0.156,1.645-0.47,2.348c-0.309,0.697-0.744,1.297-1.298,1.793c-0.559,0.498-1.227,0.883-2.005,1.158
				c-0.782,0.279-1.641,0.414-2.588,0.414c-1.032,0-1.967-0.156-2.804-0.465c-0.504,0.287-0.896,0.627-1.185,1.023
				c-0.287,0.395-0.432,0.779-0.432,1.15c0,0.512,0.183,0.91,0.537,1.184c0.364,0.275,0.838,0.479,1.43,0.602
				c0.592,0.127,1.269,0.207,2.03,0.244c0.761,0.035,1.535,0.076,2.317,0.115c0.786,0.043,1.557,0.119,2.321,0.229
				c0.758,0.105,1.434,0.295,2.026,0.562c0.596,0.27,1.069,0.646,1.429,1.133c0.36,0.486,0.542,1.129,0.542,1.934
				c0,0.74-0.19,1.455-0.562,2.135c-0.368,0.682-0.905,1.291-1.603,1.814c-0.707,0.529-1.553,0.951-2.546,1.27
				c-0.994,0.316-2.106,0.473-3.342,0.473c-1.256,0-2.355-0.127-3.303-0.385c-0.951-0.258-1.742-0.605-2.385-1.041
				c-0.639-0.436-1.121-0.947-1.446-1.521c-0.321-0.57-0.482-1.184-0.482-1.832c0-0.943,0.309-1.758,0.935-2.439
				c0.622-0.686,1.48-1.213,2.567-1.586c-0.597-0.199-1.074-0.494-1.43-0.875c-0.351-0.385-0.528-0.918-0.528-1.604
				c0-0.25,0.046-0.512,0.144-0.791c0.097-0.27,0.241-0.545,0.432-0.816c0.194-0.27,0.423-0.523,0.693-0.76
				c0.267-0.242,0.579-0.457,0.943-0.652c-0.851-0.49-1.515-1.143-1.988-1.953c-0.47-0.816-0.706-1.773-0.706-2.859
				c0-0.859,0.152-1.645,0.457-2.344c0.304-0.701,0.735-1.301,1.294-1.809c0.554-0.504,1.227-0.889,2.017-1.164
				C669.114,190.034,669.985,189.893,670.945,189.893z M677.572,209.28c0-0.562-0.144-1.016-0.436-1.357
				c-0.296-0.34-0.686-0.605-1.18-0.801c-0.491-0.189-1.058-0.324-1.696-0.4c-0.643-0.08-1.312-0.141-2.013-0.174
				c-0.702-0.039-1.404-0.072-2.115-0.105c-0.706-0.039-1.361-0.109-1.975-0.217c-0.452,0.178-0.876,0.385-1.265,0.623
				c-0.389,0.232-0.723,0.494-0.998,0.785c-0.274,0.293-0.49,0.619-0.647,0.973c-0.156,0.352-0.232,0.736-0.232,1.16
				c0,0.527,0.136,1.014,0.402,1.463c0.271,0.447,0.668,0.838,1.188,1.168c0.52,0.328,1.158,0.592,1.911,0.781
				c0.757,0.191,1.624,0.287,2.609,0.287c0.905,0,1.755-0.102,2.542-0.305c0.782-0.201,1.467-0.494,2.047-0.861
				c0.579-0.373,1.036-0.816,1.365-1.332C677.411,210.452,677.572,209.893,677.572,209.28z M670.945,200.17
				c0.766,0,1.45-0.115,2.047-0.33c0.601-0.225,1.1-0.533,1.51-0.932c0.406-0.393,0.715-0.865,0.926-1.42
				c0.207-0.545,0.313-1.158,0.313-1.832c0-0.668-0.106-1.281-0.321-1.84c-0.216-0.553-0.533-1.031-0.943-1.428
				c-0.415-0.395-0.918-0.699-1.51-0.918c-0.592-0.217-1.269-0.322-2.021-0.322c-0.757,0-1.434,0.105-2.03,0.322
				c-0.601,0.219-1.104,0.523-1.519,0.918c-0.414,0.396-0.727,0.875-0.942,1.428c-0.216,0.559-0.321,1.172-0.321,1.84
				c0,0.674,0.105,1.287,0.321,1.832c0.216,0.555,0.528,1.027,0.942,1.42c0.415,0.398,0.918,0.707,1.519,0.932
				C669.511,200.055,670.188,200.17,670.945,200.17z"/>
			<path fill="#283A42" d="M693.029,192.405c-0.089,0.17-0.216,0.254-0.397,0.254c-0.131,0-0.305-0.072-0.512-0.225
				c-0.212-0.152-0.486-0.316-0.824-0.502c-0.343-0.188-0.762-0.355-1.261-0.504c-0.495-0.152-1.104-0.225-1.822-0.225
				c-0.647,0-1.235,0.094-1.772,0.275c-0.533,0.189-0.985,0.436-1.366,0.748c-0.376,0.314-0.668,0.674-0.875,1.092
				c-0.212,0.41-0.317,0.842-0.317,1.299c0,0.566,0.144,1.027,0.432,1.398c0.287,0.373,0.664,0.689,1.133,0.957
				c0.466,0.262,0.994,0.486,1.586,0.68c0.597,0.195,1.206,0.385,1.827,0.576c0.622,0.193,1.23,0.406,1.823,0.639
				c0.592,0.232,1.125,0.523,1.59,0.871c0.47,0.346,0.846,0.773,1.134,1.277c0.287,0.498,0.431,1.111,0.431,1.83
				c0,0.783-0.144,1.506-0.423,2.174c-0.279,0.674-0.689,1.252-1.222,1.742c-0.533,0.492-1.188,0.885-1.967,1.168
				c-0.778,0.287-1.666,0.436-2.66,0.436c-1.256,0-2.343-0.207-3.252-0.605c-0.909-0.4-1.726-0.926-2.444-1.572l0.414-0.609
				c0.06-0.098,0.127-0.168,0.199-0.215c0.071-0.051,0.173-0.072,0.304-0.072c0.157,0,0.348,0.098,0.575,0.287
				c0.229,0.191,0.521,0.398,0.889,0.617c0.363,0.225,0.82,0.428,1.366,0.623c0.545,0.189,1.218,0.287,2.021,0.287
				c0.752,0,1.421-0.105,1.991-0.312c0.58-0.213,1.058-0.5,1.438-0.859c0.385-0.355,0.677-0.777,0.875-1.264
				c0.199-0.486,0.292-0.994,0.292-1.535c0-0.598-0.14-1.1-0.427-1.494c-0.288-0.393-0.669-0.727-1.134-1.002
				c-0.465-0.279-0.998-0.512-1.59-0.701c-0.593-0.195-1.206-0.385-1.831-0.576c-0.631-0.189-1.244-0.406-1.832-0.629
				c-0.596-0.225-1.125-0.518-1.594-0.863c-0.466-0.348-0.842-0.77-1.13-1.266c-0.287-0.498-0.436-1.119-0.436-1.859
				c0-0.639,0.145-1.248,0.415-1.836c0.279-0.588,0.668-1.1,1.176-1.543c0.516-0.445,1.133-0.797,1.86-1.059
				c0.731-0.262,1.553-0.396,2.462-0.396c1.091,0,2.06,0.156,2.9,0.469c0.846,0.309,1.624,0.787,2.331,1.438L693.029,192.405z"/>
		</g>
	</g>
	<g>
		<path fill="#283A42" d="M547.375,29.119h11.927v130.815c-11.364,0-22.731,0-34.1,0v-58.14l-27.764,29.07h-3.73l-27.577-29.07
			v58.14c-11.368,0-22.731,0-34.1,0V29.119h12.299l51.057,56.648L547.375,29.119z"/>
		<path fill="#283A42" d="M632.713,27.816c26.275,0.187,53.667,13.787,60.003,46.211h-32.797
			c-5.405-11.179-13.973-15.652-27.206-15.652c-21.057,0-32.424,16.398-32.424,36.336c0,21.616,12.67,35.778,32.424,35.778
			c13.419,0,21.987-3.539,27.95-16.023H632.9V85.582h61.681c0.745,13.044,0.745,25.528-3.726,38.202
			c-9.32,27.207-34.104,37.639-58.142,37.639c-33.168,0-66.709-22.172-66.896-66.71C566.004,50.176,599.545,27.816,632.713,27.816z"
			/>
	</g>
	<g>
		<g>
			<path fill="#283A42" d="M74.909,159.934H25.712V29.491h49.197C159.879,29.866,159.879,159.563,74.909,159.934z M59.069,129.561
				h15.84c41.555,0,41.555-69.694,0-69.694h-15.84V129.561z"/>
			<path fill="#283A42" d="M194.533,159.934H145.34V29.491h49.192C279.508,29.866,279.508,159.563,194.533,159.934z
				 M178.695,129.561h15.838c41.555,0,41.555-69.694,0-69.694h-15.838V129.561z"/>
			<path fill="#283A42" d="M314.161,159.934h-49.194V29.491h49.194C399.132,29.866,399.132,159.563,314.161,159.934z
				 M298.323,129.561h15.838c41.555,0,41.555-69.694,0-69.694h-15.838V129.561z"/>
		</g>
	</g>
	<rect x="402.017" y="15.328" fill="#283A42" width="3.988" height="157.293"/>
	<path fill="#08171E" d="M660.664,114.468c-0.334,0.697-0.677,1.357-1.027,2l31.206,7.352c0.005-0.014,0.009-0.021,0.013-0.035
		c1.112-3.158,1.95-6.305,2.567-9.447L660.664,114.468z"/>
	<polygon fill="#08171E" points="525.202,101.794 525.202,118.739 559.301,65.132 559.301,62.136 	"/>
	<polygon fill="#08171E" points="432.031,62.136 466.13,101.794 466.13,118.739 432.031,65.132 	"/>
	<polygon fill="#08171E" points="298.323,59.867 298.323,64.301 264.966,69.737 264.966,59.867 	"/>
	<polygon fill="#08171E" points="298.323,129.561 302.755,129.561 306.028,159.934 298.323,159.934 	"/>
	<polygon fill="#08171E" points="178.695,59.867 178.695,64.301 145.34,69.737 145.34,59.867 	"/>
	<polygon fill="#08171E" points="59.069,59.867 59.069,64.301 25.712,69.737 25.712,59.867 	"/>
	<polygon fill="#08171E" points="178.695,129.561 183.129,129.561 186.4,159.934 178.695,159.934 	"/>
	<polygon fill="#08171E" points="59.067,129.561 63.503,129.561 66.772,159.934 59.067,159.934 	"/>
</g>
</svg>
