<?xml version="1.0" encoding="utf-8"?>
<!-- Generator: Adobe Illustrator 16.0.0, SVG Export Plug-In . SVG Version: 6.00 Build 0)  -->
<!DOCTYPE svg PUBLIC "-//W3C//DTD SVG 1.1//EN" "http://www.w3.org/Graphics/SVG/1.1/DTD/svg11.dtd">
<svg version="1.1" id="Layer_1" xmlns="http://www.w3.org/2000/svg" xmlns:xlink="http://www.w3.org/1999/xlink" x="0px" y="0px"
	 width="170px" height="197px" viewBox="0 0.25 170 197" enable-background="new 0 0.25 170 197" xml:space="preserve">
<g>
	<g>
		<polygon opacity="0.3" fill="#2D2D2D" enable-background="new    " points="30.189,174.083 170,192.949 170,4.551 10.833,31.917 
					"/>
	</g>
	<g>
		<polygon fill="#004D6E" points="38.271,165.172 170,189.865 170,7.635 13.143,33.232 		"/>
	</g>
	<g>
		<path fill="#FFFFFF" d="M54.438,67.561c-0.064,0.107-0.133,0.188-0.205,0.242c-0.072,0.055-0.167,0.082-0.282,0.082
			c-0.123,0-0.265-0.062-0.428-0.186c-0.162-0.123-0.368-0.258-0.617-0.405c-0.249-0.147-0.549-0.283-0.899-0.405
			c-0.35-0.123-0.774-0.186-1.272-0.186c-0.47,0-0.885,0.062-1.246,0.189c-0.36,0.125-0.662,0.297-0.904,0.516
			c-0.242,0.215-0.424,0.471-0.547,0.764c-0.123,0.292-0.184,0.607-0.184,0.947c0,0.434,0.106,0.793,0.319,1.078
			c0.213,0.283,0.494,0.527,0.845,0.729c0.351,0.203,0.747,0.379,1.191,0.524c0.444,0.147,0.899,0.303,1.365,0.461
			c0.466,0.16,0.92,0.338,1.364,0.537c0.444,0.196,0.842,0.448,1.191,0.752c0.351,0.304,0.632,0.676,0.845,1.114
			c0.213,0.44,0.32,0.982,0.32,1.625c0,0.681-0.116,1.316-0.347,1.912c-0.231,0.597-0.569,1.113-1.013,1.556
			c-0.444,0.44-0.99,0.786-1.636,1.039c-0.646,0.254-1.381,0.379-2.204,0.379c-1.004,0-1.92-0.183-2.746-0.548
			c-0.827-0.362-1.533-0.855-2.118-1.479l0.606-0.996c0.059-0.078,0.129-0.146,0.212-0.199c0.083-0.056,0.175-0.082,0.276-0.082
			c0.151,0,0.324,0.082,0.52,0.244c0.196,0.161,0.438,0.34,0.731,0.535c0.292,0.195,0.646,0.374,1.062,0.536
			c0.415,0.161,0.922,0.243,1.521,0.243c0.498,0,0.942-0.068,1.332-0.205c0.391-0.137,0.721-0.33,0.991-0.579
			c0.271-0.25,0.479-0.548,0.623-0.896s0.217-0.731,0.217-1.158c0-0.471-0.106-0.854-0.319-1.153
			c-0.213-0.299-0.493-0.55-0.84-0.753c-0.347-0.201-0.742-0.373-1.186-0.514c-0.444-0.144-0.899-0.285-1.365-0.436
			c-0.466-0.148-0.921-0.318-1.365-0.515c-0.443-0.195-0.839-0.447-1.186-0.758c-0.347-0.312-0.627-0.699-0.84-1.166
			c-0.213-0.466-0.319-1.041-0.319-1.729c0-0.549,0.106-1.079,0.319-1.592c0.213-0.513,0.521-0.968,0.927-1.364
			c0.404-0.397,0.904-0.716,1.5-0.953s1.279-0.356,2.053-0.356c0.866,0,1.657,0.137,2.372,0.41c0.715,0.274,1.339,0.672,1.874,1.19
			L54.438,67.561z"/>
		<path fill="#FFFFFF" d="M62.009,69.509c0.657,0,1.264,0.11,1.82,0.331c0.556,0.221,1.036,0.538,1.44,0.953
			c0.404,0.414,0.721,0.928,0.947,1.537c0.228,0.609,0.342,1.306,0.342,2.086c0,0.304-0.032,0.506-0.098,0.605
			c-0.065,0.102-0.188,0.151-0.368,0.151h-7.301c0.015,0.691,0.108,1.296,0.281,1.81c0.174,0.514,0.412,0.939,0.715,1.283
			c0.304,0.344,0.665,0.6,1.084,0.77c0.418,0.17,0.888,0.254,1.408,0.254c0.483,0,0.9-0.055,1.251-0.168
			c0.35-0.11,0.651-0.23,0.904-0.361c0.253-0.13,0.464-0.251,0.634-0.363c0.169-0.11,0.315-0.168,0.438-0.168
			c0.158,0,0.281,0.062,0.368,0.187l0.542,0.703c-0.238,0.289-0.524,0.541-0.856,0.754s-0.688,0.388-1.066,0.524
			c-0.379,0.138-0.771,0.239-1.176,0.31c-0.405,0.067-0.805,0.103-1.202,0.103c-0.758,0-1.457-0.127-2.096-0.384
			c-0.64-0.258-1.191-0.633-1.657-1.127c-0.466-0.493-0.829-1.106-1.089-1.836c-0.26-0.729-0.39-1.567-0.39-2.514
			c0-0.767,0.117-1.479,0.352-2.146c0.234-0.663,0.572-1.239,1.013-1.728s0.979-0.871,1.614-1.148
			C60.5,69.648,61.215,69.509,62.009,69.509z M62.053,70.928c-0.932,0-1.665,0.271-2.199,0.809
			c-0.534,0.537-0.866,1.283-0.996,2.236h5.968c0-0.447-0.062-0.856-0.184-1.229c-0.123-0.371-0.304-0.691-0.542-0.963
			c-0.238-0.271-0.529-0.479-0.872-0.63C62.885,71.002,62.493,70.928,62.053,70.928z"/>
		<path fill="#FFFFFF" d="M73.36,69.509c0.657,0,1.264,0.11,1.82,0.331c0.556,0.221,1.036,0.538,1.44,0.953
			c0.404,0.414,0.721,0.928,0.947,1.537c0.228,0.609,0.342,1.306,0.342,2.086c0,0.304-0.032,0.506-0.098,0.605
			c-0.065,0.102-0.188,0.151-0.368,0.151h-7.301c0.015,0.691,0.108,1.296,0.281,1.81c0.174,0.514,0.412,0.939,0.715,1.283
			c0.304,0.344,0.665,0.6,1.084,0.77c0.418,0.17,0.888,0.254,1.408,0.254c0.483,0,0.9-0.055,1.251-0.168
			c0.35-0.11,0.651-0.23,0.904-0.361c0.253-0.13,0.464-0.251,0.634-0.363c0.169-0.11,0.315-0.168,0.438-0.168
			c0.158,0,0.281,0.062,0.368,0.187l0.542,0.703c-0.238,0.289-0.524,0.541-0.856,0.754s-0.688,0.388-1.066,0.524
			c-0.379,0.138-0.771,0.239-1.176,0.31c-0.405,0.067-0.805,0.103-1.202,0.103c-0.758,0-1.457-0.127-2.096-0.384
			c-0.64-0.258-1.191-0.633-1.657-1.127c-0.466-0.493-0.829-1.106-1.089-1.836s-0.39-1.567-0.39-2.514
			c0-0.767,0.117-1.479,0.352-2.146c0.234-0.663,0.572-1.239,1.013-1.728s0.979-0.871,1.614-1.148
			C71.852,69.648,72.566,69.509,73.36,69.509z M73.404,70.928c-0.932,0-1.665,0.271-2.199,0.809
			c-0.534,0.537-0.866,1.283-0.996,2.236h5.968c0-0.447-0.062-0.856-0.184-1.229c-0.123-0.371-0.304-0.691-0.542-0.963
			c-0.238-0.271-0.529-0.479-0.872-0.63C74.236,71.002,73.845,70.928,73.404,70.928z"/>
		<path fill="#FFFFFF" d="M88.991,69.509c0.802,0,1.524,0.134,2.172,0.401c0.647,0.267,1.194,0.646,1.646,1.138
			c0.451,0.489,0.799,1.085,1.041,1.78c0.24,0.697,0.361,1.477,0.361,2.334c0,0.867-0.121,1.646-0.361,2.341
			c-0.242,0.692-0.59,1.286-1.041,1.776s-1,0.867-1.646,1.131c-0.646,0.265-1.37,0.396-2.172,0.396s-1.525-0.133-2.173-0.396
			c-0.646-0.264-1.195-0.641-1.65-1.131s-0.807-1.084-1.051-1.776c-0.246-0.692-0.368-1.474-0.368-2.341
			c0-0.857,0.122-1.637,0.368-2.334c0.244-0.695,0.596-1.291,1.051-1.78c0.455-0.491,1.005-0.87,1.65-1.138
			C87.465,69.643,88.189,69.509,88.991,69.509z M88.991,79.302c1.083,0,1.892-0.362,2.427-1.089
			c0.534-0.727,0.801-1.738,0.801-3.038c0-1.308-0.267-2.325-0.801-3.056c-0.535-0.729-1.344-1.094-2.427-1.094
			c-0.55,0-1.025,0.094-1.431,0.281c-0.404,0.188-0.742,0.457-1.014,0.812s-0.474,0.789-0.605,1.305
			c-0.133,0.517-0.199,1.101-0.199,1.75c0,0.647,0.066,1.229,0.199,1.742c0.134,0.515,0.336,0.944,0.605,1.296
			s0.607,0.618,1.014,0.807C87.966,79.207,88.441,79.302,88.991,79.302z"/>
		<path fill="#FFFFFF" d="M98.264,69.684v6.996c0,0.831,0.19,1.476,0.573,1.93c0.384,0.453,0.961,0.683,1.733,0.683
			c0.562,0,1.094-0.133,1.593-0.399c0.498-0.269,0.956-0.64,1.375-1.115v-8.092h1.929v10.973h-1.148
			c-0.272,0-0.446-0.135-0.52-0.399l-0.152-1.181c-0.477,0.525-1.011,0.951-1.603,1.271c-0.593,0.32-1.271,0.479-2.037,0.479
			c-0.6,0-1.128-0.099-1.587-0.297c-0.458-0.199-0.843-0.479-1.152-0.841c-0.311-0.36-0.543-0.797-0.699-1.311
			c-0.153-0.514-0.231-1.08-0.231-1.701v-6.996H98.264z"/>
		<path fill="#FFFFFF" d="M108.641,80.656V69.682h1.104c0.209,0,0.354,0.041,0.433,0.119c0.08,0.079,0.135,0.217,0.163,0.411
			l0.13,1.712c0.375-0.767,0.84-1.363,1.393-1.793c0.554-0.431,1.201-0.646,1.943-0.646c0.305,0,0.578,0.035,0.823,0.104
			c0.246,0.067,0.474,0.164,0.683,0.287l-0.248,1.44c-0.051,0.18-0.162,0.271-0.336,0.271c-0.103,0-0.258-0.034-0.467-0.103
			c-0.209-0.069-0.502-0.104-0.877-0.104c-0.672,0-1.232,0.194-1.685,0.585c-0.451,0.391-0.829,0.957-1.132,1.701v6.986h-1.928
			V80.656L108.641,80.656z"/>
		<path fill="#FFFFFF" d="M123.695,64.699v15.955h-1.928V64.699H123.695z"/>
		<path fill="#FFFFFF" d="M129.675,66.238c0,0.188-0.038,0.361-0.112,0.525c-0.076,0.161-0.178,0.307-0.305,0.434
			c-0.126,0.127-0.271,0.227-0.438,0.297c-0.166,0.072-0.344,0.107-0.53,0.107c-0.188,0-0.363-0.035-0.524-0.107
			c-0.164-0.07-0.309-0.17-0.435-0.297c-0.127-0.127-0.226-0.271-0.298-0.434c-0.072-0.164-0.108-0.339-0.108-0.525
			c0-0.188,0.036-0.367,0.108-0.535c0.072-0.17,0.171-0.318,0.298-0.444c0.126-0.126,0.271-0.226,0.435-0.298
			c0.161-0.072,0.336-0.107,0.524-0.107s0.364,0.035,0.53,0.107s0.312,0.172,0.438,0.298c0.127,0.126,0.229,0.274,0.305,0.444
			C129.637,65.871,129.675,66.051,129.675,66.238z M129.242,69.684v10.974h-1.93V69.684H129.242z"/>
		<path fill="#FFFFFF" d="M131.257,69.684h1.581c0.151,0,0.278,0.039,0.379,0.118c0.102,0.079,0.174,0.173,0.217,0.28l2.784,7.062
			c0.101,0.26,0.181,0.521,0.238,0.779c0.058,0.26,0.11,0.518,0.162,0.77c0.058-0.252,0.118-0.51,0.185-0.77
			c0.064-0.261,0.147-0.521,0.249-0.779l2.816-7.062c0.043-0.114,0.112-0.211,0.211-0.286c0.098-0.075,0.219-0.112,0.362-0.112
			h1.506l-4.475,10.974h-1.742L131.257,69.684z"/>
		<path fill="#FFFFFF" d="M147.797,69.509c0.657,0,1.264,0.11,1.82,0.331c0.556,0.221,1.035,0.538,1.439,0.953
			c0.403,0.414,0.721,0.928,0.946,1.537c0.229,0.609,0.343,1.306,0.343,2.086c0,0.304-0.031,0.506-0.099,0.605
			c-0.063,0.102-0.188,0.151-0.368,0.151h-7.301c0.015,0.691,0.107,1.296,0.279,1.81c0.176,0.514,0.412,0.939,0.717,1.283
			c0.304,0.344,0.665,0.6,1.084,0.77c0.418,0.17,0.888,0.254,1.406,0.254c0.483,0,0.9-0.055,1.252-0.168
			c0.351-0.11,0.65-0.23,0.904-0.361c0.252-0.13,0.463-0.251,0.633-0.363c0.17-0.11,0.315-0.168,0.438-0.168
			c0.158,0,0.281,0.062,0.368,0.187l0.542,0.703c-0.238,0.289-0.524,0.541-0.856,0.754s-0.688,0.388-1.064,0.524
			c-0.381,0.138-0.771,0.239-1.178,0.31c-0.403,0.067-0.805,0.103-1.201,0.103c-0.758,0-1.457-0.127-2.096-0.384
			c-0.641-0.258-1.19-0.633-1.658-1.127c-0.465-0.493-0.828-1.106-1.088-1.836s-0.391-1.567-0.391-2.514
			c0-0.767,0.117-1.479,0.352-2.146c0.234-0.663,0.572-1.239,1.015-1.728c0.44-0.488,0.979-0.871,1.612-1.148
			C146.288,69.648,147.003,69.509,147.797,69.509z M147.841,70.928c-0.932,0-1.665,0.271-2.198,0.809
			c-0.535,0.537-0.867,1.283-0.996,2.236h5.969c0-0.447-0.062-0.856-0.186-1.229c-0.123-0.371-0.304-0.691-0.541-0.963
			c-0.238-0.271-0.529-0.479-0.873-0.63C148.673,71.002,148.281,70.928,147.841,70.928z"/>
		<path fill="#FFFFFF" d="M66.094,97.488c-0.087,0.158-0.221,0.238-0.401,0.238c-0.108,0-0.23-0.039-0.368-0.119
			c-0.137-0.078-0.305-0.168-0.504-0.266c-0.198-0.099-0.435-0.188-0.709-0.271c-0.274-0.085-0.6-0.125-0.975-0.125
			c-0.325,0-0.618,0.04-0.878,0.125c-0.26,0.081-0.481,0.196-0.666,0.342c-0.185,0.146-0.325,0.312-0.423,0.503
			c-0.097,0.189-0.146,0.398-0.146,0.622c0,0.283,0.081,0.519,0.243,0.705c0.163,0.188,0.378,0.351,0.645,0.485
			c0.268,0.14,0.57,0.261,0.91,0.363c0.339,0.104,0.688,0.217,1.045,0.336c0.357,0.119,0.706,0.252,1.046,0.396
			c0.339,0.145,0.643,0.324,0.909,0.541c0.268,0.217,0.482,0.48,0.645,0.795c0.163,0.314,0.244,0.691,0.244,1.134
			c0,0.505-0.091,0.974-0.271,1.401c-0.181,0.431-0.448,0.803-0.802,1.115c-0.354,0.313-0.787,0.562-1.3,0.741
			c-0.513,0.181-1.105,0.271-1.776,0.271c-0.766,0-1.459-0.125-2.08-0.373c-0.621-0.25-1.148-0.569-1.581-0.959l0.455-0.736
			c0.058-0.094,0.126-0.166,0.205-0.217c0.08-0.051,0.185-0.076,0.314-0.076s0.267,0.052,0.411,0.152
			c0.145,0.101,0.32,0.213,0.525,0.336c0.206,0.121,0.455,0.233,0.748,0.334c0.292,0.103,0.658,0.151,1.1,0.151
			c0.375,0,0.704-0.049,0.985-0.146c0.281-0.097,0.517-0.229,0.704-0.396c0.187-0.168,0.326-0.356,0.417-0.573
			c0.09-0.218,0.136-0.447,0.136-0.693c0-0.303-0.082-0.555-0.244-0.753c-0.162-0.198-0.377-0.368-0.645-0.509
			c-0.268-0.142-0.572-0.265-0.915-0.368c-0.344-0.104-0.693-0.216-1.051-0.33c-0.358-0.115-0.708-0.247-1.051-0.396
			c-0.343-0.148-0.648-0.334-0.915-0.559c-0.268-0.225-0.482-0.5-0.645-0.829c-0.163-0.327-0.244-0.728-0.244-1.196
			c0-0.418,0.087-0.821,0.26-1.207c0.174-0.388,0.427-0.727,0.759-1.02c0.332-0.292,0.74-0.525,1.224-0.697
			c0.484-0.175,1.036-0.262,1.657-0.262c0.723,0,1.37,0.113,1.944,0.342c0.574,0.229,1.07,0.54,1.489,0.938L66.094,97.488z"/>
		<path fill="#FFFFFF" d="M72.539,106.824c-0.867,0-1.533-0.24-1.999-0.727c-0.466-0.482-0.698-1.181-0.698-2.09v-6.716h-1.321
			c-0.116,0-0.214-0.034-0.293-0.104c-0.079-0.066-0.119-0.174-0.119-0.318V96.1l1.798-0.228l0.444-3.392
			c0.015-0.108,0.062-0.196,0.141-0.267c0.08-0.067,0.181-0.103,0.304-0.103h0.975v3.779h3.142v1.396H71.77v6.586
			c0,0.463,0.112,0.806,0.336,1.028c0.224,0.224,0.513,0.336,0.866,0.336c0.202,0,0.378-0.026,0.525-0.081
			c0.148-0.056,0.276-0.113,0.385-0.179c0.108-0.065,0.2-0.125,0.276-0.18c0.075-0.055,0.143-0.081,0.2-0.081
			c0.102,0,0.191,0.062,0.271,0.185l0.563,0.921c-0.332,0.312-0.732,0.556-1.202,0.73C73.52,106.732,73.037,106.824,72.539,106.824z
			"/>
		<path fill="#FFFFFF" d="M77.293,106.652V95.68h1.105c0.209,0,0.354,0.04,0.433,0.119c0.08,0.079,0.134,0.217,0.163,0.411
			l0.13,1.712c0.375-0.766,0.84-1.363,1.392-1.793c0.553-0.43,1.201-0.645,1.944-0.645c0.304,0,0.578,0.033,0.823,0.104
			c0.246,0.068,0.473,0.164,0.683,0.287l-0.249,1.439c-0.051,0.182-0.162,0.271-0.336,0.271c-0.102,0-0.257-0.034-0.466-0.104
			c-0.209-0.067-0.502-0.104-0.877-0.104c-0.672,0-1.233,0.195-1.685,0.585c-0.451,0.392-0.829,0.957-1.132,1.7v6.986h-1.928
			V106.652z"/>
		<path fill="#FFFFFF" d="M90.367,95.506c0.656,0,1.264,0.109,1.82,0.331c0.556,0.22,1.035,0.538,1.438,0.952
			c0.403,0.416,0.722,0.929,0.947,1.539c0.228,0.609,0.342,1.305,0.342,2.084c0,0.305-0.032,0.507-0.099,0.605
			c-0.064,0.104-0.188,0.152-0.367,0.152h-7.301c0.016,0.691,0.107,1.296,0.281,1.809c0.174,0.514,0.411,0.94,0.715,1.283
			c0.305,0.344,0.664,0.602,1.084,0.771c0.418,0.17,0.889,0.254,1.408,0.254c0.482,0,0.899-0.057,1.25-0.168
			c0.35-0.111,0.651-0.232,0.904-0.362s0.464-0.251,0.634-0.362c0.169-0.11,0.315-0.168,0.438-0.168
			c0.158,0,0.281,0.062,0.367,0.185l0.543,0.705c-0.238,0.288-0.524,0.538-0.856,0.752c-0.332,0.213-0.688,0.389-1.065,0.524
			c-0.379,0.137-0.771,0.24-1.177,0.31c-0.405,0.069-0.805,0.104-1.202,0.104c-0.758,0-1.457-0.129-2.096-0.385
			c-0.641-0.257-1.191-0.632-1.656-1.127c-0.467-0.494-0.83-1.105-1.09-1.837c-0.26-0.729-0.39-1.565-0.39-2.513
			c0-0.767,0.116-1.479,0.352-2.146c0.234-0.664,0.572-1.239,1.013-1.729c0.441-0.487,0.979-0.868,1.615-1.146
			C88.857,95.646,89.573,95.506,90.367,95.506z M90.411,96.925c-0.933,0-1.665,0.271-2.199,0.808
			c-0.534,0.539-0.866,1.283-0.996,2.236h5.968c0-0.447-0.062-0.857-0.184-1.229c-0.123-0.371-0.305-0.692-0.542-0.965
			c-0.237-0.271-0.528-0.479-0.872-0.629C91.243,96.998,90.852,96.925,90.411,96.925z"/>
		<path fill="#FFFFFF" d="M105.436,106.652h-0.854c-0.188,0-0.34-0.027-0.455-0.088c-0.116-0.058-0.19-0.18-0.229-0.367
			l-0.217-1.019c-0.289,0.261-0.57,0.492-0.845,0.698s-0.563,0.379-0.867,0.52c-0.303,0.143-0.626,0.248-0.969,0.32
			c-0.345,0.071-0.726,0.106-1.144,0.106c-0.426,0-0.824-0.06-1.196-0.179s-0.695-0.299-0.97-0.537
			c-0.275-0.237-0.494-0.539-0.655-0.903c-0.162-0.363-0.244-0.795-0.244-1.293c0-0.435,0.119-0.853,0.356-1.252
			c0.238-0.4,0.623-0.757,1.153-1.066c0.53-0.311,1.228-0.563,2.085-0.764c0.859-0.198,1.91-0.312,3.152-0.343v-0.854
			c0-0.852-0.184-1.496-0.547-1.934c-0.365-0.438-0.905-0.654-1.62-0.654c-0.47,0-0.864,0.06-1.187,0.179s-0.601,0.252-0.834,0.399
			c-0.234,0.147-0.438,0.28-0.605,0.399c-0.17,0.119-0.338,0.181-0.504,0.181c-0.131,0-0.244-0.034-0.344-0.104
			c-0.097-0.068-0.174-0.152-0.23-0.255l-0.348-0.616c0.605-0.586,1.261-1.021,1.961-1.312c0.699-0.288,1.478-0.434,2.328-0.434
			c0.613,0,1.158,0.102,1.637,0.305c0.479,0.201,0.878,0.482,1.201,0.845c0.324,0.36,0.57,0.798,0.736,1.312
			c0.166,0.513,0.25,1.076,0.25,1.688v7.021h0.004V106.652z M100.43,105.473c0.34,0,0.65-0.035,0.932-0.104
			c0.283-0.069,0.549-0.166,0.798-0.293c0.25-0.127,0.487-0.279,0.716-0.461s0.449-0.387,0.666-0.617v-2.285
			c-0.891,0.029-1.645,0.1-2.266,0.211s-1.127,0.26-1.517,0.439c-0.391,0.181-0.674,0.394-0.851,0.639
			c-0.178,0.246-0.266,0.52-0.266,0.822c0,0.289,0.047,0.539,0.141,0.748s0.221,0.381,0.38,0.515
			c0.157,0.134,0.347,0.231,0.562,0.293C99.941,105.441,100.177,105.473,100.43,105.473z"/>
		<path fill="#FFFFFF" d="M108.357,106.652V95.68h1.147c0.272,0,0.448,0.135,0.521,0.4l0.142,1.127
			c0.403-0.498,0.856-0.906,1.358-1.225c0.502-0.319,1.084-0.479,1.748-0.479c0.744,0,1.347,0.206,1.806,0.618
			c0.458,0.41,0.789,0.968,0.989,1.668c0.152-0.397,0.354-0.74,0.603-1.029c0.25-0.288,0.529-0.526,0.84-0.715
			c0.312-0.188,0.642-0.325,0.991-0.411c0.352-0.087,0.706-0.131,1.066-0.131c0.576,0,1.093,0.094,1.543,0.275
			c0.451,0.186,0.834,0.453,1.147,0.809c0.314,0.354,0.554,0.789,0.72,1.305c0.166,0.518,0.25,1.106,0.25,1.771v6.986H121.3v-6.986
			c0-0.857-0.188-1.512-0.562-1.954c-0.375-0.444-0.922-0.666-1.637-0.666c-0.316,0-0.619,0.056-0.903,0.167
			c-0.285,0.111-0.536,0.275-0.755,0.492c-0.215,0.218-0.387,0.49-0.514,0.818s-0.188,0.709-0.188,1.143v6.986h-1.93v-6.986
			c0-0.881-0.178-1.537-0.529-1.971c-0.354-0.436-0.87-0.649-1.551-0.649c-0.478,0-0.92,0.128-1.325,0.384
			c-0.408,0.258-0.782,0.605-1.121,1.047v8.178H108.357L108.357,106.652z"/>
		<path fill="#FFFFFF" d="M128.723,92.236c0,0.188-0.037,0.361-0.113,0.523c-0.074,0.162-0.176,0.309-0.303,0.434
			c-0.127,0.127-0.271,0.228-0.438,0.299c-0.166,0.07-0.344,0.107-0.53,0.107s-0.362-0.037-0.524-0.107
			c-0.162-0.071-0.309-0.172-0.435-0.299c-0.127-0.125-0.228-0.271-0.298-0.434c-0.072-0.162-0.107-0.338-0.107-0.523
			c0-0.188,0.035-0.367,0.107-0.537c0.07-0.17,0.171-0.317,0.298-0.443c0.126-0.126,0.271-0.227,0.435-0.299
			c0.162-0.071,0.338-0.107,0.524-0.107s0.364,0.036,0.53,0.107c0.166,0.072,0.312,0.173,0.438,0.299
			c0.127,0.126,0.229,0.273,0.303,0.443C128.686,91.867,128.723,92.048,128.723,92.236z M128.29,95.68v10.973h-1.929V95.68H128.29z"
			/>
		<path fill="#FFFFFF" d="M131.689,106.652V95.68h1.146c0.273,0,0.448,0.135,0.521,0.4l0.15,1.189c0.479-0.525,1.01-0.951,1.6-1.275
			c0.588-0.325,1.269-0.488,2.041-0.488c0.6,0,1.129,0.1,1.588,0.298c0.457,0.199,0.841,0.479,1.146,0.847
			c0.31,0.363,0.54,0.804,0.699,1.314c0.158,0.514,0.237,1.08,0.237,1.701v6.986h-1.928v-6.986c0-0.831-0.189-1.477-0.568-1.936
			c-0.381-0.459-0.958-0.688-1.738-0.688c-0.568,0-1.104,0.137-1.6,0.411c-0.493,0.272-0.949,0.646-1.368,1.114v8.08h-1.929v0.004
			H131.689z"/>
		<path fill="#FFFFFF" d="M147.43,95.494c0.479,0,0.922,0.054,1.338,0.158c0.416,0.104,0.793,0.258,1.133,0.461h2.979v0.715
			c0,0.236-0.149,0.39-0.455,0.455l-1.243,0.172c0.243,0.471,0.366,0.994,0.366,1.57c0,0.535-0.104,1.021-0.31,1.457
			c-0.205,0.438-0.49,0.812-0.855,1.121c-0.363,0.311-0.798,0.549-1.3,0.715s-1.054,0.25-1.649,0.25
			c-0.515,0-0.998-0.062-1.453-0.186c-0.229,0.146-0.405,0.301-0.524,0.467s-0.179,0.327-0.179,0.486c0,0.26,0.104,0.457,0.312,0.59
			c0.21,0.135,0.487,0.229,0.834,0.287c0.348,0.059,0.74,0.096,1.182,0.108c0.439,0.015,0.891,0.036,1.35,0.069
			c0.459,0.032,0.908,0.088,1.35,0.168c0.439,0.08,0.834,0.209,1.18,0.392c0.349,0.18,0.625,0.43,0.834,0.746
			c0.211,0.317,0.314,0.729,0.314,1.233c0,0.471-0.117,0.926-0.354,1.365c-0.233,0.439-0.571,0.832-1.012,1.176
			s-0.979,0.617-1.613,0.822c-0.637,0.206-1.354,0.311-2.156,0.311c-0.803,0-1.504-0.08-2.105-0.237
			c-0.604-0.16-1.104-0.373-1.5-0.642c-0.396-0.268-0.695-0.576-0.895-0.926c-0.199-0.352-0.299-0.717-0.299-1.1
			c0-0.543,0.172-1.002,0.515-1.381c0.345-0.381,0.813-0.683,1.414-0.904c-0.312-0.146-0.558-0.338-0.742-0.58
			c-0.184-0.242-0.276-0.564-0.276-0.971c0-0.158,0.029-0.321,0.088-0.492c0.059-0.17,0.146-0.338,0.267-0.504
			s0.267-0.324,0.438-0.477c0.172-0.154,0.375-0.285,0.605-0.4c-0.541-0.305-0.966-0.705-1.271-1.207
			c-0.309-0.502-0.461-1.09-0.461-1.762c0-0.533,0.104-1.021,0.311-1.457c0.205-0.438,0.492-0.81,0.859-1.115
			c0.369-0.307,0.809-0.543,1.315-0.709C146.266,95.578,146.823,95.494,147.43,95.494z M150.854,107.248
			c0-0.273-0.076-0.495-0.229-0.661s-0.357-0.294-0.617-0.384c-0.261-0.092-0.561-0.157-0.898-0.201
			c-0.34-0.043-0.696-0.072-1.071-0.092c-0.376-0.02-0.761-0.039-1.147-0.061c-0.389-0.022-0.763-0.062-1.115-0.119
			c-0.412,0.194-0.746,0.434-1.002,0.715s-0.385,0.617-0.385,1.008c0,0.246,0.062,0.476,0.188,0.688
			c0.126,0.213,0.317,0.397,0.577,0.555c0.263,0.154,0.589,0.275,0.98,0.367c0.395,0.09,0.857,0.137,1.393,0.137
			c0.521,0,0.986-0.049,1.396-0.143c0.412-0.095,0.762-0.229,1.047-0.4c0.284-0.172,0.504-0.379,0.654-0.617
			C150.775,107.802,150.854,107.537,150.854,107.248z M147.43,101.291c0.391,0,0.734-0.055,1.034-0.163s0.552-0.261,0.753-0.455
			c0.202-0.194,0.354-0.429,0.455-0.698c0.102-0.271,0.151-0.567,0.151-0.895c0-0.672-0.204-1.205-0.612-1.604
			c-0.406-0.396-1.002-0.597-1.781-0.597c-0.771,0-1.363,0.199-1.771,0.597c-0.408,0.396-0.611,0.932-0.611,1.604
			c0,0.326,0.052,0.623,0.156,0.895c0.104,0.272,0.259,0.504,0.461,0.698s0.451,0.347,0.747,0.455S147.047,101.291,147.43,101.291z"
			/>
		<path fill="#FFFFFF" d="M111.326,132.648v-15.955h1.929v6.455c0.47-0.498,0.989-0.896,1.56-1.195
			c0.571-0.301,1.229-0.45,1.974-0.45c0.599,0,1.128,0.101,1.587,0.298c0.458,0.199,0.841,0.48,1.146,0.846
			c0.309,0.364,0.539,0.804,0.699,1.315c0.157,0.513,0.237,1.079,0.237,1.7v6.986h-1.929v-6.986c0-0.83-0.189-1.475-0.568-1.934
			s-0.958-0.688-1.738-0.688c-0.57,0-1.104,0.137-1.598,0.41c-0.495,0.274-0.951,0.646-1.37,1.114v8.082L111.326,132.648
			L111.326,132.648z"/>
		<path fill="#FFFFFF" d="M127.715,121.502c0.657,0,1.264,0.109,1.82,0.33c0.556,0.221,1.035,0.539,1.439,0.953
			c0.403,0.416,0.721,0.929,0.946,1.539c0.229,0.609,0.343,1.305,0.343,2.084c0,0.305-0.031,0.506-0.099,0.605
			c-0.063,0.104-0.188,0.151-0.368,0.151h-7.301c0.015,0.692,0.107,1.297,0.279,1.81c0.176,0.514,0.412,0.94,0.717,1.283
			c0.304,0.344,0.665,0.602,1.084,0.771c0.418,0.17,0.888,0.254,1.406,0.254c0.483,0,0.9-0.057,1.252-0.168
			c0.351-0.111,0.65-0.232,0.904-0.362c0.252-0.13,0.463-0.251,0.633-0.362c0.17-0.11,0.315-0.168,0.438-0.168
			c0.158,0,0.281,0.062,0.368,0.185l0.542,0.704c-0.238,0.289-0.524,0.539-0.856,0.753c-0.332,0.213-0.688,0.389-1.064,0.524
			c-0.381,0.137-0.771,0.24-1.178,0.31c-0.403,0.069-0.805,0.104-1.201,0.104c-0.758,0-1.456-0.128-2.096-0.385
			c-0.641-0.256-1.19-0.631-1.658-1.127c-0.465-0.493-0.827-1.104-1.088-1.836c-0.26-0.729-0.391-1.565-0.391-2.513
			c0-0.767,0.117-1.479,0.352-2.146c0.234-0.664,0.572-1.24,1.015-1.729c0.442-0.489,0.979-0.869,1.612-1.147
			C126.206,121.643,126.921,121.502,127.715,121.502z M127.759,122.921c-0.932,0-1.665,0.271-2.198,0.808
			c-0.535,0.539-0.867,1.283-0.996,2.236h5.969c0-0.447-0.062-0.857-0.186-1.229c-0.123-0.372-0.304-0.692-0.541-0.965
			c-0.238-0.271-0.529-0.479-0.873-0.629C128.591,122.994,128.199,122.921,127.759,122.921z"/>
		<path fill="#FFFFFF" d="M134.723,132.648v-10.974h1.105c0.209,0,0.354,0.04,0.433,0.119c0.08,0.078,0.134,0.217,0.163,0.41
			l0.131,1.713c0.375-0.767,0.84-1.363,1.391-1.793c0.555-0.431,1.201-0.646,1.945-0.646c0.303,0,0.577,0.033,0.822,0.104
			c0.246,0.068,0.473,0.164,0.684,0.287l-0.25,1.439c-0.051,0.182-0.162,0.271-0.336,0.271c-0.102,0-0.256-0.034-0.465-0.104
			c-0.209-0.067-0.503-0.104-0.878-0.104c-0.672,0-1.233,0.195-1.685,0.585c-0.451,0.392-0.829,0.957-1.133,1.7v6.986h-1.928
			V132.648L134.723,132.648z"/>
		<path fill="#FFFFFF" d="M147.797,121.502c0.657,0,1.264,0.109,1.82,0.33c0.556,0.221,1.035,0.539,1.439,0.953
			c0.403,0.416,0.721,0.929,0.946,1.539c0.229,0.609,0.343,1.305,0.343,2.084c0,0.305-0.031,0.506-0.099,0.605
			c-0.063,0.104-0.188,0.151-0.368,0.151h-7.301c0.015,0.692,0.107,1.297,0.279,1.81c0.176,0.514,0.412,0.94,0.717,1.283
			c0.304,0.344,0.665,0.602,1.084,0.771c0.418,0.17,0.888,0.254,1.406,0.254c0.483,0,0.9-0.057,1.252-0.168
			c0.351-0.111,0.65-0.232,0.904-0.362c0.252-0.13,0.463-0.251,0.633-0.362c0.17-0.11,0.315-0.168,0.438-0.168
			c0.158,0,0.281,0.062,0.368,0.185l0.542,0.704c-0.238,0.289-0.524,0.539-0.856,0.753c-0.332,0.213-0.688,0.389-1.064,0.524
			c-0.381,0.137-0.771,0.24-1.178,0.31c-0.403,0.069-0.805,0.104-1.201,0.104c-0.758,0-1.457-0.128-2.096-0.385
			c-0.641-0.256-1.19-0.631-1.658-1.127c-0.465-0.493-0.828-1.104-1.088-1.836c-0.26-0.729-0.391-1.565-0.391-2.513
			c0-0.767,0.117-1.479,0.352-2.146c0.234-0.664,0.572-1.24,1.015-1.729c0.442-0.489,0.979-0.869,1.612-1.147
			C146.288,121.643,147.003,121.502,147.797,121.502z M147.841,122.921c-0.932,0-1.665,0.271-2.198,0.808
			c-0.535,0.539-0.867,1.283-0.996,2.236h5.969c0-0.447-0.062-0.857-0.186-1.229s-0.304-0.692-0.541-0.965
			c-0.238-0.271-0.529-0.479-0.873-0.629C148.673,122.994,148.281,122.921,147.841,122.921z"/>
	</g>
</g>
</svg>
