<?xml version="1.0" encoding="utf-8"?>
<!-- Generator: Adobe Illustrator 16.0.0, SVG Export Plug-In . SVG Version: 6.00 Build 0)  -->
<!DOCTYPE svg PUBLIC "-//W3C//DTD SVG 1.1//EN" "http://www.w3.org/Graphics/SVG/1.1/DTD/svg11.dtd">
<svg version="1.1" id="Layer_1" xmlns="http://www.w3.org/2000/svg" xmlns:xlink="http://www.w3.org/1999/xlink" x="0px" y="0px"
	 width="170px" height="197.5px" viewBox="0 72.5 170 197.5" enable-background="new 0 72.5 170 197.5" xml:space="preserve">
<g>
	<g>
		<polygon opacity="0.3" fill="#2D2D2D" enable-background="new    " points="2.824,242.89 170,265.449 170,77.051 38.271,101.744 
					"/>
	</g>
	<g>
		<polygon fill="#FFFFFF" points="13.143,236.768 170,262.365 170,80.135 38.271,104.828 		"/>
	</g>
	<g>
		<path fill="#004D6E" d="M51.879,137.547h1.679c0.188,0,0.339,0.048,0.455,0.143c0.115,0.094,0.202,0.213,0.26,0.356l4.387,10.95
			c0.102,0.246,0.193,0.514,0.276,0.802c0.083,0.289,0.164,0.589,0.244,0.899c0.064-0.312,0.135-0.61,0.211-0.899
			c0.076-0.288,0.164-0.556,0.266-0.802l4.365-10.95c0.05-0.123,0.137-0.237,0.26-0.343c0.123-0.104,0.274-0.156,0.455-0.156h1.689
			L60.1,153.07h-1.896L51.879,137.547z"/>
		<path fill="#004D6E" d="M71.191,141.923c0.657,0,1.264,0.11,1.82,0.331c0.556,0.22,1.036,0.538,1.44,0.953
			c0.404,0.414,0.721,0.928,0.947,1.537c0.228,0.61,0.342,1.306,0.342,2.086c0,0.304-0.032,0.506-0.098,0.605
			c-0.065,0.102-0.188,0.152-0.368,0.152h-7.301c0.015,0.691,0.108,1.296,0.281,1.809c0.174,0.514,0.412,0.94,0.715,1.283
			c0.304,0.344,0.665,0.6,1.084,0.77c0.418,0.17,0.888,0.254,1.408,0.254c0.483,0,0.9-0.055,1.251-0.168
			c0.35-0.11,0.651-0.231,0.904-0.361c0.253-0.13,0.464-0.251,0.634-0.363c0.169-0.111,0.315-0.168,0.438-0.168
			c0.158,0,0.281,0.062,0.368,0.186l0.542,0.703c-0.238,0.289-0.524,0.541-0.856,0.754s-0.688,0.388-1.066,0.524
			c-0.379,0.138-0.771,0.24-1.176,0.31c-0.405,0.068-0.805,0.103-1.202,0.103c-0.758,0-1.457-0.128-2.096-0.384
			c-0.64-0.258-1.191-0.633-1.657-1.127s-0.829-1.106-1.089-1.836c-0.26-0.73-0.39-1.567-0.39-2.514
			c0-0.766,0.117-1.479,0.352-2.146c0.234-0.664,0.572-1.24,1.013-1.728c0.441-0.488,0.979-0.871,1.614-1.148
			C69.683,142.062,70.397,141.923,71.191,141.923z M71.235,143.342c-0.932,0-1.665,0.27-2.199,0.809
			c-0.534,0.537-0.866,1.282-0.996,2.235h5.968c0-0.446-0.062-0.856-0.184-1.229c-0.123-0.371-0.304-0.691-0.542-0.963
			c-0.238-0.271-0.529-0.479-0.872-0.629C72.067,143.416,71.676,143.342,71.235,143.342z"/>
		<path fill="#004D6E" d="M80.345,142.097v11.785c0,0.44-0.059,0.851-0.174,1.229c-0.115,0.377-0.298,0.709-0.547,0.99
			s-0.57,0.504-0.964,0.666s-0.865,0.243-1.414,0.243c-0.238,0-0.455-0.019-0.649-0.054c-0.195-0.036-0.39-0.092-0.585-0.162
			l0.087-1.04c0.014-0.095,0.047-0.153,0.097-0.179c0.051-0.025,0.131-0.039,0.238-0.039c0.059,0,0.119,0.003,0.185,0.006
			c0.065,0.004,0.145,0.006,0.238,0.006c0.563,0,0.964-0.132,1.202-0.396c0.238-0.264,0.357-0.688,0.357-1.271v-11.785
			L80.345,142.097L80.345,142.097z M80.777,138.652c0,0.188-0.038,0.362-0.113,0.525c-0.076,0.162-0.177,0.307-0.304,0.434
			c-0.126,0.127-0.272,0.227-0.438,0.297c-0.166,0.072-0.343,0.108-0.53,0.108c-0.188,0-0.363-0.036-0.525-0.108
			c-0.163-0.07-0.308-0.17-0.434-0.297c-0.127-0.127-0.226-0.271-0.298-0.434c-0.072-0.163-0.108-0.338-0.108-0.525
			c0-0.187,0.036-0.367,0.108-0.535c0.072-0.17,0.171-0.318,0.298-0.444c0.126-0.126,0.271-0.226,0.434-0.298
			c0.162-0.072,0.337-0.108,0.525-0.108s0.364,0.036,0.53,0.108s0.312,0.172,0.438,0.298c0.127,0.126,0.228,0.274,0.304,0.444
			C80.739,138.285,80.777,138.465,80.777,138.652z"/>
		<path fill="#004D6E" d="M91.762,153.07h-0.854c-0.188,0-0.341-0.028-0.455-0.088c-0.116-0.058-0.191-0.18-0.228-0.367
			l-0.218-1.019c-0.289,0.261-0.569,0.492-0.845,0.698s-0.562,0.379-0.867,0.52c-0.303,0.143-0.626,0.248-0.969,0.32
			c-0.344,0.07-0.725,0.107-1.145,0.107c-0.426,0-0.824-0.061-1.196-0.18c-0.372-0.119-0.695-0.298-0.97-0.535
			c-0.275-0.238-0.493-0.539-0.655-0.904c-0.162-0.364-0.244-0.797-0.244-1.295c0-0.434,0.119-0.851,0.357-1.25
			c0.239-0.401,0.623-0.758,1.154-1.067c0.53-0.312,1.226-0.563,2.085-0.765c0.859-0.197,1.91-0.312,3.152-0.34v-0.856
			c0-0.853-0.184-1.496-0.547-1.933c-0.365-0.438-0.905-0.655-1.62-0.655c-0.47,0-0.864,0.06-1.187,0.179s-0.6,0.252-0.834,0.4
			c-0.235,0.147-0.438,0.281-0.606,0.4c-0.17,0.118-0.338,0.178-0.504,0.178c-0.13,0-0.244-0.033-0.342-0.103
			c-0.097-0.067-0.175-0.153-0.232-0.255l-0.347-0.617c0.606-0.585,1.26-1.021,1.96-1.311c0.701-0.289,1.478-0.434,2.328-0.434
			c0.614,0,1.16,0.102,1.637,0.303c0.477,0.203,0.878,0.483,1.201,0.846c0.326,0.361,0.57,0.798,0.737,1.311
			c0.166,0.514,0.249,1.076,0.249,1.689v7.021H91.762z M86.757,151.889c0.341,0,0.65-0.034,0.933-0.104
			c0.281-0.068,0.547-0.166,0.795-0.293c0.25-0.125,0.488-0.278,0.717-0.459c0.227-0.182,0.449-0.388,0.666-0.618v-2.285
			c-0.889,0.028-1.645,0.1-2.266,0.211c-0.621,0.112-1.125,0.259-1.516,0.438c-0.391,0.182-0.674,0.395-0.851,0.64
			c-0.177,0.246-0.266,0.521-0.266,0.823c0,0.289,0.047,0.537,0.141,0.746c0.094,0.211,0.221,0.381,0.38,0.516
			c0.158,0.134,0.347,0.23,0.562,0.293C86.27,151.859,86.504,151.889,86.757,151.889z"/>
		<path fill="#004D6E" d="M98.866,153.07v-10.974h1.147c0.274,0,0.448,0.134,0.521,0.399l0.15,1.191
			c0.478-0.525,1.01-0.953,1.599-1.277s1.269-0.487,2.042-0.487c0.599,0,1.128,0.101,1.587,0.298
			c0.458,0.199,0.841,0.48,1.147,0.846c0.308,0.364,0.539,0.803,0.698,1.315c0.158,0.513,0.238,1.08,0.238,1.701v6.985h-1.929
			v-6.985c0-0.831-0.189-1.476-0.568-1.935s-0.958-0.688-1.738-0.688c-0.57,0-1.104,0.137-1.598,0.41
			c-0.495,0.274-0.951,0.646-1.37,1.115v8.082h-1.928V153.07z"/>
		<path fill="#004D6E" d="M115.354,141.923c0.801,0,1.524,0.134,2.172,0.401c0.646,0.267,1.195,0.646,1.646,1.138
			c0.451,0.489,0.798,1.085,1.04,1.78c0.241,0.697,0.362,1.477,0.362,2.334c0,0.867-0.121,1.646-0.362,2.341
			c-0.242,0.692-0.589,1.286-1.04,1.776c-0.45,0.49-1,0.868-1.646,1.131c-0.646,0.265-1.371,0.396-2.172,0.396
			c-0.803,0-1.525-0.132-2.172-0.396c-0.646-0.263-1.197-0.641-1.652-1.131c-0.454-0.49-0.805-1.084-1.051-1.776
			c-0.246-0.693-0.367-1.474-0.367-2.341c0-0.857,0.121-1.637,0.367-2.334c0.246-0.695,0.597-1.291,1.051-1.78
			c0.455-0.491,1.006-0.87,1.652-1.138C113.827,142.056,114.551,141.923,115.354,141.923z M115.354,151.716
			c1.082,0,1.892-0.363,2.426-1.089c0.535-0.727,0.802-1.738,0.802-3.038c0-1.308-0.267-2.325-0.802-3.056
			c-0.534-0.729-1.344-1.094-2.426-1.094c-0.549,0-1.025,0.094-1.431,0.281s-0.741,0.458-1.013,0.812
			c-0.271,0.354-0.475,0.789-0.605,1.305c-0.135,0.517-0.201,1.1-0.201,1.75c0,0.648,0.066,1.23,0.201,1.742
			c0.133,0.514,0.336,0.945,0.605,1.296s0.607,0.618,1.013,0.807C114.327,151.621,114.805,151.716,115.354,151.716z"/>
		<path fill="#004D6E" d="M129.239,143.906c-0.087,0.158-0.222,0.237-0.401,0.237c-0.107,0-0.23-0.039-0.367-0.118
			c-0.138-0.08-0.306-0.168-0.505-0.266c-0.198-0.098-0.435-0.188-0.709-0.271c-0.274-0.082-0.6-0.123-0.975-0.123
			c-0.325,0-0.618,0.041-0.878,0.123c-0.26,0.084-0.481,0.197-0.666,0.342c-0.186,0.146-0.325,0.312-0.424,0.504
			c-0.097,0.191-0.146,0.398-0.146,0.623c0,0.281,0.081,0.517,0.243,0.703c0.163,0.188,0.378,0.352,0.645,0.488
			c0.269,0.137,0.57,0.258,0.91,0.362s0.688,0.217,1.045,0.336s0.706,0.251,1.047,0.396c0.338,0.146,0.643,0.324,0.908,0.541
			c0.268,0.218,0.482,0.482,0.645,0.797c0.164,0.313,0.244,0.691,0.244,1.133c0,0.505-0.09,0.973-0.271,1.402
			s-0.448,0.802-0.802,1.114c-0.354,0.314-0.787,0.562-1.301,0.742c-0.513,0.181-1.104,0.271-1.775,0.271
			c-0.766,0-1.459-0.123-2.08-0.373c-0.621-0.248-1.148-0.568-1.581-0.959l0.455-0.735c0.058-0.094,0.126-0.166,0.205-0.217
			c0.08-0.052,0.185-0.076,0.313-0.076s0.268,0.051,0.412,0.151c0.145,0.102,0.319,0.213,0.524,0.336
			c0.206,0.123,0.455,0.234,0.748,0.336c0.292,0.102,0.657,0.152,1.101,0.152c0.375,0,0.703-0.05,0.984-0.146
			c0.281-0.098,0.518-0.229,0.704-0.396c0.187-0.166,0.325-0.356,0.417-0.574c0.09-0.217,0.136-0.446,0.136-0.692
			c0-0.304-0.082-0.554-0.244-0.753c-0.161-0.198-0.377-0.368-0.645-0.51c-0.269-0.141-0.572-0.264-0.915-0.367
			c-0.344-0.104-0.693-0.215-1.051-0.33c-0.358-0.115-0.709-0.247-1.051-0.396c-0.344-0.148-0.648-0.334-0.916-0.558
			s-0.481-0.5-0.645-0.829c-0.163-0.328-0.244-0.729-0.244-1.197c0-0.418,0.087-0.82,0.26-1.207c0.174-0.387,0.428-0.726,0.76-1.019
			c0.332-0.292,0.74-0.524,1.224-0.698s1.036-0.261,1.657-0.261c0.723,0,1.369,0.114,1.943,0.342s1.07,0.54,1.489,0.937
			L129.239,143.906z"/>
		<path fill="#004D6E" d="M138.643,143.906c-0.088,0.158-0.222,0.237-0.401,0.237c-0.108,0-0.23-0.039-0.368-0.118
			c-0.137-0.08-0.305-0.168-0.504-0.266c-0.198-0.098-0.436-0.188-0.709-0.271c-0.274-0.082-0.6-0.123-0.975-0.123
			c-0.326,0-0.619,0.041-0.879,0.123c-0.26,0.084-0.48,0.197-0.666,0.342c-0.185,0.146-0.324,0.312-0.423,0.504
			c-0.097,0.191-0.146,0.398-0.146,0.623c0,0.281,0.08,0.517,0.242,0.703c0.164,0.188,0.379,0.352,0.646,0.488
			c0.269,0.137,0.569,0.258,0.91,0.362c0.339,0.104,0.688,0.217,1.045,0.336s0.706,0.251,1.046,0.396
			c0.339,0.146,0.643,0.324,0.909,0.541c0.269,0.218,0.481,0.482,0.646,0.797c0.162,0.313,0.243,0.691,0.243,1.133
			c0,0.505-0.091,0.973-0.271,1.402c-0.182,0.43-0.448,0.802-0.803,1.114c-0.354,0.314-0.787,0.562-1.3,0.742
			c-0.513,0.181-1.104,0.271-1.776,0.271c-0.766,0-1.459-0.123-2.08-0.373c-0.62-0.248-1.147-0.568-1.58-0.959l0.455-0.735
			c0.058-0.094,0.125-0.166,0.205-0.217c0.08-0.052,0.185-0.076,0.313-0.076s0.267,0.051,0.411,0.151
			c0.145,0.102,0.32,0.213,0.525,0.336s0.455,0.234,0.748,0.336c0.291,0.102,0.658,0.152,1.1,0.152c0.375,0,0.704-0.05,0.984-0.146
			c0.281-0.098,0.518-0.229,0.705-0.396c0.187-0.166,0.326-0.356,0.416-0.574c0.09-0.217,0.137-0.446,0.137-0.692
			c0-0.304-0.082-0.554-0.244-0.753c-0.162-0.198-0.377-0.368-0.645-0.51c-0.269-0.141-0.572-0.264-0.916-0.367
			s-0.692-0.215-1.051-0.33c-0.357-0.115-0.708-0.247-1.051-0.396c-0.343-0.148-0.648-0.334-0.915-0.558
			c-0.269-0.224-0.481-0.5-0.646-0.829c-0.162-0.328-0.243-0.729-0.243-1.197c0-0.418,0.087-0.82,0.26-1.207
			c0.174-0.387,0.427-0.726,0.759-1.019c0.332-0.292,0.74-0.524,1.225-0.698c0.483-0.174,1.035-0.261,1.656-0.261
			c0.723,0,1.37,0.114,1.944,0.342s1.069,0.54,1.489,0.937L138.643,143.906z"/>
		<path fill="#004D6E" d="M146.201,141.923c0.802,0,1.525,0.134,2.172,0.401c0.646,0.267,1.195,0.646,1.646,1.138
			c0.451,0.489,0.797,1.085,1.039,1.78c0.241,0.697,0.362,1.477,0.362,2.334c0,0.867-0.121,1.646-0.362,2.341
			c-0.242,0.692-0.589,1.286-1.039,1.776c-0.451,0.49-1,0.868-1.646,1.131c-0.646,0.265-1.37,0.396-2.172,0.396
			c-0.803,0-1.525-0.132-2.172-0.396c-0.646-0.263-1.196-0.641-1.651-1.131s-0.806-1.084-1.051-1.776
			c-0.246-0.693-0.368-1.474-0.368-2.341c0-0.857,0.122-1.637,0.368-2.334c0.245-0.695,0.596-1.291,1.051-1.78
			c0.455-0.491,1.005-0.87,1.651-1.138C144.675,142.056,145.398,141.923,146.201,141.923z M146.201,151.716
			c1.083,0,1.892-0.363,2.427-1.089c0.534-0.727,0.802-1.738,0.802-3.038c0-1.308-0.268-2.325-0.802-3.056
			c-0.535-0.729-1.344-1.094-2.427-1.094c-0.549,0-1.025,0.094-1.43,0.281c-0.405,0.188-0.742,0.458-1.014,0.812
			c-0.271,0.354-0.474,0.789-0.605,1.305c-0.135,0.517-0.2,1.1-0.2,1.75c0,0.648,0.065,1.23,0.2,1.742
			c0.133,0.514,0.336,0.945,0.605,1.296s0.608,0.618,1.014,0.807C145.176,151.621,145.652,151.716,146.201,151.716z"/>
		<path fill="#004D6E" d="M65.094,169.902c-0.087,0.159-0.221,0.238-0.401,0.238c-0.108,0-0.23-0.039-0.368-0.119
			c-0.137-0.078-0.305-0.168-0.504-0.265c-0.198-0.099-0.435-0.188-0.709-0.271c-0.274-0.084-0.6-0.125-0.975-0.125
			c-0.325,0-0.618,0.041-0.878,0.125c-0.26,0.082-0.481,0.196-0.666,0.342c-0.185,0.145-0.325,0.312-0.423,0.503
			c-0.097,0.19-0.146,0.399-0.146,0.622c0,0.283,0.081,0.518,0.243,0.705c0.163,0.188,0.378,0.351,0.645,0.486
			c0.268,0.139,0.57,0.26,0.91,0.363c0.339,0.104,0.688,0.217,1.045,0.336c0.357,0.119,0.706,0.251,1.046,0.396
			c0.339,0.145,0.643,0.324,0.909,0.541c0.268,0.217,0.482,0.481,0.645,0.795c0.163,0.314,0.244,0.692,0.244,1.134
			c0,0.505-0.091,0.973-0.271,1.401c-0.181,0.431-0.448,0.803-0.802,1.115c-0.354,0.314-0.787,0.562-1.3,0.742
			c-0.513,0.18-1.105,0.271-1.776,0.271c-0.766,0-1.459-0.125-2.08-0.373c-0.621-0.25-1.148-0.569-1.581-0.959l0.455-0.736
			c0.058-0.094,0.126-0.166,0.205-0.217c0.08-0.051,0.185-0.076,0.314-0.076s0.267,0.051,0.411,0.152
			c0.145,0.101,0.32,0.213,0.525,0.336c0.206,0.121,0.455,0.233,0.748,0.334c0.292,0.103,0.658,0.152,1.1,0.152
			c0.375,0,0.704-0.049,0.985-0.146c0.281-0.097,0.517-0.229,0.704-0.396s0.326-0.356,0.417-0.573
			c0.09-0.218,0.136-0.447,0.136-0.693c0-0.303-0.082-0.555-0.244-0.753c-0.162-0.198-0.377-0.368-0.645-0.509
			c-0.268-0.142-0.572-0.265-0.915-0.368c-0.344-0.104-0.693-0.216-1.051-0.33c-0.358-0.115-0.708-0.247-1.051-0.396
			c-0.343-0.149-0.648-0.334-0.915-0.559c-0.268-0.225-0.482-0.5-0.645-0.829c-0.163-0.328-0.244-0.728-0.244-1.196
			c0-0.419,0.087-0.822,0.26-1.207c0.174-0.388,0.427-0.727,0.759-1.02c0.332-0.292,0.74-0.525,1.224-0.698
			c0.484-0.174,1.036-0.261,1.657-0.261c0.723,0,1.37,0.113,1.944,0.342c0.574,0.229,1.07,0.54,1.489,0.938L65.094,169.902z"/>
		<path fill="#004D6E" d="M71.539,179.238c-0.867,0-1.533-0.24-1.999-0.726c-0.466-0.483-0.698-1.181-0.698-2.09v-6.716h-1.321
			c-0.116,0-0.214-0.034-0.293-0.104c-0.079-0.067-0.119-0.175-0.119-0.319v-0.769l1.798-0.228l0.444-3.392
			c0.015-0.108,0.062-0.196,0.141-0.266c0.08-0.068,0.181-0.103,0.304-0.103h0.975v3.779h3.142v1.396H70.77v6.586
			c0,0.463,0.112,0.806,0.336,1.029c0.224,0.223,0.513,0.336,0.866,0.336c0.202,0,0.378-0.027,0.525-0.082
			c0.148-0.055,0.276-0.113,0.385-0.179c0.108-0.065,0.2-0.125,0.276-0.179c0.075-0.055,0.143-0.081,0.2-0.081
			c0.102,0,0.191,0.062,0.271,0.185l0.563,0.92c-0.332,0.312-0.732,0.556-1.202,0.731C72.52,179.146,72.037,179.238,71.539,179.238z
			"/>
		<path fill="#004D6E" d="M76.293,179.066v-10.973h1.105c0.209,0,0.354,0.04,0.433,0.119c0.08,0.079,0.134,0.217,0.163,0.411
			l0.13,1.712c0.375-0.766,0.84-1.363,1.392-1.793c0.553-0.43,1.201-0.645,1.944-0.645c0.304,0,0.578,0.033,0.823,0.104
			c0.246,0.068,0.473,0.164,0.683,0.287l-0.249,1.439C82.666,169.91,82.555,170,82.381,170c-0.102,0-0.257-0.034-0.466-0.104
			c-0.209-0.068-0.502-0.104-0.877-0.104c-0.672,0-1.233,0.195-1.685,0.585c-0.451,0.391-0.829,0.957-1.132,1.7v6.986h-1.928
			V179.066z"/>
		<path fill="#004D6E" d="M89.367,167.92c0.656,0,1.264,0.109,1.82,0.331c0.556,0.22,1.035,0.538,1.439,0.952
			c0.404,0.416,0.721,0.929,0.947,1.539c0.228,0.609,0.342,1.305,0.342,2.084c0,0.305-0.032,0.507-0.098,0.606
			c-0.065,0.103-0.188,0.152-0.368,0.152h-7.3c0.015,0.692,0.107,1.296,0.281,1.809s0.411,0.94,0.715,1.283
			c0.304,0.344,0.664,0.601,1.084,0.771c0.418,0.17,0.888,0.254,1.408,0.254c0.482,0,0.899-0.057,1.25-0.168
			c0.35-0.111,0.651-0.232,0.904-0.362s0.464-0.251,0.634-0.363c0.169-0.11,0.315-0.168,0.438-0.168
			c0.158,0,0.281,0.062,0.367,0.185l0.543,0.705c-0.238,0.289-0.524,0.539-0.856,0.752s-0.688,0.389-1.065,0.525
			c-0.379,0.137-0.771,0.24-1.177,0.309c-0.405,0.069-0.805,0.104-1.202,0.104c-0.758,0-1.457-0.128-2.096-0.384
			c-0.641-0.257-1.191-0.632-1.656-1.127c-0.467-0.494-0.83-1.106-1.09-1.837c-0.26-0.729-0.39-1.566-0.39-2.512
			c0-0.767,0.117-1.48,0.352-2.146c0.234-0.664,0.572-1.24,1.013-1.729c0.441-0.488,0.979-0.869,1.615-1.147
			C87.857,168.06,88.573,167.92,89.367,167.92z M89.411,169.339c-0.933,0-1.665,0.271-2.199,0.808
			c-0.534,0.538-0.866,1.283-0.996,2.236h5.968c0-0.447-0.062-0.857-0.184-1.229c-0.123-0.371-0.305-0.692-0.542-0.965
			c-0.237-0.271-0.528-0.479-0.872-0.628C90.243,169.412,89.852,169.339,89.411,169.339z"/>
		<path fill="#004D6E" d="M104.436,179.066h-0.855c-0.188,0-0.34-0.027-0.455-0.087c-0.116-0.058-0.191-0.18-0.229-0.368
			l-0.217-1.018c-0.289,0.26-0.57,0.492-0.845,0.698s-0.563,0.379-0.867,0.52c-0.303,0.142-0.626,0.248-0.969,0.32
			c-0.345,0.071-0.726,0.106-1.144,0.106c-0.426,0-0.824-0.06-1.196-0.179c-0.372-0.118-0.695-0.298-0.97-0.536
			c-0.275-0.238-0.494-0.539-0.655-0.904c-0.162-0.363-0.244-0.795-0.244-1.293c0-0.435,0.119-0.852,0.356-1.252
			c0.239-0.4,0.623-0.756,1.154-1.066c0.53-0.311,1.227-0.564,2.085-0.764c0.859-0.198,1.91-0.312,3.152-0.342v-0.855
			c0-0.852-0.183-1.496-0.547-1.934c-0.365-0.438-0.905-0.654-1.62-0.654c-0.469,0-0.864,0.06-1.186,0.179
			c-0.322,0.119-0.601,0.252-0.834,0.399c-0.235,0.148-0.438,0.281-0.606,0.4c-0.17,0.119-0.338,0.18-0.504,0.18
			c-0.13,0-0.244-0.034-0.343-0.104c-0.097-0.068-0.174-0.152-0.231-0.255l-0.347-0.617c0.605-0.585,1.26-1.021,1.961-1.312
			c0.699-0.288,1.477-0.434,2.328-0.434c0.613,0,1.158,0.102,1.636,0.305c0.478,0.201,0.878,0.482,1.202,0.845
			c0.324,0.36,0.57,0.798,0.736,1.311s0.25,1.076,0.25,1.689v7.021H104.436z M99.43,177.886c0.34,0,0.65-0.034,0.932-0.103
			c0.283-0.069,0.548-0.166,0.797-0.293c0.25-0.127,0.488-0.279,0.716-0.461c0.228-0.181,0.449-0.387,0.666-0.617v-2.285
			c-0.89,0.029-1.644,0.1-2.265,0.211s-1.127,0.259-1.517,0.439c-0.391,0.181-0.674,0.394-0.851,0.639
			c-0.178,0.246-0.266,0.52-0.266,0.822c0,0.289,0.047,0.539,0.141,0.748s0.221,0.381,0.38,0.515
			c0.157,0.134,0.347,0.231,0.562,0.293C98.941,177.855,99.177,177.886,99.43,177.886z"/>
		<path fill="#004D6E" d="M107.357,179.066v-10.973h1.148c0.273,0,0.448,0.134,0.521,0.4l0.141,1.127
			c0.404-0.498,0.857-0.906,1.359-1.225s1.084-0.478,1.748-0.478c0.744,0,1.346,0.206,1.805,0.618
			c0.458,0.41,0.789,0.968,0.99,1.668c0.152-0.397,0.353-0.74,0.602-1.029c0.25-0.289,0.529-0.527,0.84-0.715
			c0.312-0.188,0.641-0.325,0.991-0.411c0.351-0.087,0.706-0.131,1.067-0.131c0.576,0,1.092,0.093,1.543,0.276
			c0.451,0.185,0.834,0.453,1.147,0.808c0.314,0.354,0.554,0.789,0.72,1.305c0.166,0.517,0.25,1.106,0.25,1.771v6.986h-1.929v-6.986
			c0-0.858-0.188-1.512-0.562-1.954c-0.375-0.444-0.921-0.666-1.636-0.666c-0.317,0-0.619,0.056-0.904,0.167
			s-0.536,0.275-0.754,0.492c-0.215,0.218-0.387,0.49-0.514,0.818s-0.188,0.709-0.188,1.143v6.986h-1.929v-6.986
			c0-0.881-0.178-1.537-0.53-1.971c-0.354-0.435-0.87-0.649-1.55-0.649c-0.478,0-0.92,0.128-1.326,0.384
			c-0.408,0.257-0.782,0.605-1.121,1.046v8.179H107.357L107.357,179.066z"/>
		<path fill="#004D6E" d="M127.723,164.65c0,0.188-0.037,0.361-0.113,0.524c-0.075,0.162-0.176,0.308-0.303,0.433
			c-0.127,0.127-0.272,0.228-0.438,0.299s-0.343,0.107-0.53,0.107s-0.363-0.036-0.525-0.107s-0.308-0.172-0.434-0.299
			c-0.127-0.125-0.227-0.271-0.298-0.433c-0.072-0.163-0.108-0.338-0.108-0.524c0-0.188,0.036-0.367,0.108-0.537
			c0.071-0.17,0.171-0.317,0.298-0.443c0.126-0.126,0.271-0.227,0.434-0.299c0.162-0.071,0.338-0.107,0.525-0.107
			s0.364,0.036,0.53,0.107c0.166,0.072,0.312,0.173,0.438,0.299s0.228,0.273,0.303,0.443
			C127.686,164.281,127.723,164.462,127.723,164.65z M127.29,168.094v10.973h-1.929v-10.973H127.29z"/>
		<path fill="#004D6E" d="M130.689,179.066v-10.973h1.147c0.274,0,0.448,0.134,0.521,0.4l0.151,1.19
			c0.478-0.526,1.009-0.952,1.599-1.276c0.588-0.325,1.269-0.488,2.041-0.488c0.6,0,1.129,0.1,1.588,0.298
			c0.457,0.199,0.841,0.479,1.146,0.847c0.309,0.363,0.54,0.803,0.699,1.314c0.158,0.513,0.238,1.08,0.238,1.701v6.986h-1.928
			v-6.986c0-0.831-0.19-1.476-0.569-1.935c-0.38-0.459-0.958-0.688-1.738-0.688c-0.569,0-1.104,0.137-1.599,0.411
			c-0.494,0.273-0.95,0.646-1.369,1.115v8.08h-1.928V179.066z"/>
		<path fill="#004D6E" d="M146.43,167.908c0.478,0,0.922,0.054,1.338,0.158c0.416,0.104,0.793,0.258,1.133,0.461h2.979v0.715
			c0,0.237-0.15,0.39-0.455,0.455l-1.244,0.172c0.244,0.471,0.367,0.994,0.367,1.57c0,0.535-0.104,1.021-0.309,1.457
			c-0.206,0.438-0.491,0.812-0.856,1.121c-0.364,0.311-0.798,0.549-1.3,0.715s-1.053,0.25-1.65,0.25
			c-0.514,0-0.998-0.062-1.453-0.185c-0.229,0.146-0.405,0.3-0.524,0.466s-0.179,0.328-0.179,0.487c0,0.26,0.104,0.457,0.313,0.59
			c0.21,0.134,0.487,0.229,0.834,0.287c0.347,0.059,0.74,0.095,1.181,0.108c0.44,0.015,0.891,0.037,1.35,0.069
			c0.459,0.033,0.908,0.089,1.349,0.168c0.44,0.08,0.834,0.21,1.181,0.392c0.348,0.18,0.625,0.43,0.834,0.746
			c0.211,0.317,0.314,0.729,0.314,1.234c0,0.471-0.117,0.925-0.354,1.365c-0.233,0.439-0.571,0.832-1.012,1.175
			c-0.44,0.344-0.979,0.618-1.613,0.823c-0.637,0.206-1.354,0.31-2.156,0.31c-0.803,0-1.504-0.079-2.105-0.237
			c-0.604-0.16-1.104-0.373-1.5-0.641c-0.397-0.268-0.695-0.576-0.895-0.926c-0.199-0.352-0.299-0.717-0.299-1.1
			c0-0.543,0.172-1.002,0.515-1.381c0.345-0.381,0.813-0.682,1.414-0.904c-0.312-0.146-0.558-0.338-0.742-0.58
			c-0.184-0.242-0.276-0.564-0.276-0.971c0-0.158,0.029-0.321,0.088-0.492c0.058-0.17,0.146-0.338,0.266-0.504
			s0.266-0.324,0.438-0.477s0.375-0.285,0.606-0.4c-0.541-0.304-0.966-0.705-1.272-1.207c-0.308-0.502-0.461-1.09-0.461-1.762
			c0-0.533,0.104-1.02,0.311-1.457c0.205-0.437,0.492-0.809,0.859-1.115c0.369-0.307,0.809-0.543,1.316-0.709
			C145.266,167.992,145.823,167.908,146.43,167.908z M149.854,179.662c0-0.274-0.076-0.495-0.229-0.661s-0.357-0.294-0.617-0.384
			c-0.261-0.092-0.561-0.157-0.898-0.201c-0.34-0.043-0.697-0.073-1.072-0.092c-0.376-0.019-0.76-0.039-1.148-0.061
			s-0.762-0.062-1.115-0.119c-0.412,0.195-0.746,0.434-1.002,0.715c-0.256,0.282-0.385,0.617-0.385,1.008
			c0,0.246,0.063,0.476,0.189,0.688s0.318,0.397,0.578,0.554c0.262,0.154,0.588,0.276,0.98,0.367
			c0.395,0.09,0.857,0.137,1.393,0.137c0.521,0,0.986-0.049,1.396-0.143c0.412-0.094,0.762-0.229,1.046-0.4
			c0.285-0.172,0.505-0.379,0.655-0.617C149.775,180.216,149.854,179.951,149.854,179.662z M146.43,173.705
			c0.391,0,0.734-0.055,1.034-0.163s0.552-0.261,0.753-0.455c0.202-0.194,0.354-0.429,0.455-0.698
			c0.102-0.271,0.151-0.568,0.151-0.895c0-0.672-0.204-1.205-0.612-1.604c-0.406-0.396-1.002-0.596-1.781-0.596
			c-0.772,0-1.363,0.199-1.771,0.596c-0.408,0.396-0.611,0.932-0.611,1.604c0,0.326,0.052,0.623,0.156,0.895
			s0.259,0.504,0.461,0.698s0.451,0.347,0.747,0.455S146.047,173.705,146.43,173.705z"/>
		<path fill="#004D6E" d="M95.162,205.062h-0.855c-0.188,0-0.34-0.027-0.455-0.087c-0.115-0.058-0.19-0.18-0.228-0.368l-0.217-1.018
			c-0.289,0.26-0.57,0.492-0.845,0.697c-0.275,0.207-0.563,0.38-0.867,0.521c-0.303,0.142-0.627,0.248-0.969,0.32
			c-0.345,0.071-0.726,0.106-1.145,0.106c-0.426,0-0.824-0.06-1.196-0.179s-0.694-0.298-0.97-0.536s-0.493-0.539-0.655-0.904
			c-0.161-0.363-0.243-0.795-0.243-1.293c0-0.435,0.118-0.852,0.356-1.252c0.239-0.4,0.623-0.757,1.153-1.066
			c0.531-0.311,1.227-0.564,2.086-0.764c0.859-0.198,1.91-0.312,3.152-0.342v-0.855c0-0.852-0.184-1.496-0.548-1.934
			s-0.905-0.654-1.62-0.654c-0.469,0-0.863,0.06-1.186,0.179s-0.6,0.252-0.834,0.399c-0.235,0.148-0.438,0.281-0.605,0.4
			c-0.171,0.119-0.339,0.18-0.505,0.18c-0.13,0-0.243-0.035-0.342-0.104c-0.097-0.068-0.175-0.153-0.231-0.255l-0.348-0.617
			c0.605-0.585,1.26-1.021,1.961-1.312c0.7-0.289,1.477-0.434,2.328-0.434c0.614,0,1.159,0.102,1.637,0.305
			c0.477,0.201,0.877,0.482,1.201,0.844c0.325,0.361,0.57,0.799,0.737,1.312c0.166,0.513,0.249,1.076,0.249,1.688v7.021H95.162z
			 M90.157,203.882c0.34,0,0.649-0.034,0.932-0.103c0.282-0.069,0.547-0.166,0.796-0.293c0.25-0.127,0.488-0.279,0.717-0.461
			c0.227-0.181,0.448-0.387,0.666-0.617v-2.285c-0.89,0.029-1.645,0.1-2.266,0.211s-1.126,0.259-1.516,0.439
			c-0.391,0.18-0.674,0.394-0.852,0.639c-0.177,0.246-0.266,0.52-0.266,0.822c0,0.289,0.047,0.539,0.141,0.748
			s0.221,0.381,0.381,0.514c0.157,0.135,0.346,0.231,0.562,0.293C89.67,203.852,89.904,203.882,90.157,203.882z"/>
		<path fill="#004D6E" d="M102.527,193.916c0.802,0,1.524,0.134,2.172,0.4c0.646,0.268,1.195,0.646,1.646,1.139
			c0.45,0.49,0.797,1.085,1.039,1.781c0.241,0.696,0.362,1.476,0.362,2.334c0,0.866-0.121,1.646-0.362,2.34
			c-0.242,0.692-0.589,1.285-1.039,1.775c-0.451,0.491-1,0.869-1.646,1.133s-1.37,0.396-2.172,0.396
			c-0.803,0-1.525-0.132-2.172-0.396s-1.196-0.642-1.651-1.133c-0.455-0.49-0.806-1.083-1.052-1.775
			c-0.245-0.693-0.367-1.474-0.367-2.34c0-0.858,0.122-1.638,0.367-2.334c0.246-0.696,0.597-1.291,1.052-1.781
			c0.455-0.491,1.005-0.87,1.651-1.139C101.001,194.049,101.727,193.916,102.527,193.916z M102.527,203.709
			c1.082,0,1.892-0.363,2.427-1.09c0.534-0.726,0.801-1.737,0.801-3.037c0-1.309-0.267-2.325-0.801-3.055
			c-0.535-0.729-1.345-1.096-2.427-1.096c-0.549,0-1.025,0.096-1.43,0.282c-0.406,0.187-0.742,0.458-1.014,0.812
			c-0.271,0.354-0.475,0.789-0.605,1.305c-0.135,0.518-0.201,1.101-0.201,1.75s0.066,1.23,0.201,1.744
			c0.133,0.513,0.336,0.943,0.605,1.295c0.27,0.351,0.607,0.619,1.014,0.807C101.502,203.615,101.979,203.709,102.527,203.709z"/>
		<path fill="#004D6E" d="M112.926,194.09h1.581c0.151,0,0.278,0.04,0.379,0.119c0.103,0.078,0.175,0.173,0.218,0.281l2.783,7.062
			c0.102,0.26,0.18,0.521,0.238,0.78s0.111,0.517,0.162,0.769c0.059-0.252,0.119-0.509,0.186-0.769
			c0.063-0.26,0.146-0.521,0.248-0.78l2.816-7.062c0.043-0.115,0.113-0.211,0.211-0.287c0.098-0.075,0.219-0.113,0.363-0.113h1.505
			l-4.474,10.973h-1.744L112.926,194.09z"/>
		<path fill="#004D6E" d="M127.98,190.646c0,0.188-0.037,0.362-0.112,0.525c-0.076,0.162-0.177,0.307-0.304,0.433
			c-0.127,0.127-0.272,0.227-0.438,0.299c-0.166,0.071-0.343,0.107-0.53,0.107s-0.363-0.036-0.525-0.107
			c-0.162-0.072-0.307-0.172-0.434-0.299c-0.127-0.126-0.226-0.271-0.298-0.433c-0.071-0.163-0.108-0.338-0.108-0.525
			c0-0.187,0.037-0.366,0.108-0.536c0.072-0.17,0.171-0.317,0.298-0.443s0.271-0.227,0.434-0.299
			c0.162-0.071,0.338-0.107,0.525-0.107c0.188,0,0.364,0.036,0.53,0.107c0.166,0.072,0.312,0.173,0.438,0.299
			s0.228,0.273,0.304,0.443C127.943,190.279,127.98,190.458,127.98,190.646z M127.549,194.09v10.973h-1.929V194.09H127.549z"/>
		<path fill="#004D6E" d="M129.562,194.09h1.582c0.15,0,0.277,0.04,0.379,0.119c0.102,0.078,0.174,0.173,0.217,0.281l2.783,7.062
			c0.102,0.26,0.181,0.521,0.238,0.78c0.059,0.26,0.111,0.517,0.162,0.769c0.059-0.252,0.119-0.509,0.186-0.769
			c0.063-0.26,0.146-0.521,0.248-0.78l2.816-7.062c0.043-0.115,0.113-0.211,0.211-0.287c0.098-0.075,0.219-0.113,0.363-0.113h1.505
			l-4.474,10.973h-1.743L129.562,194.09z"/>
		<path fill="#004D6E" d="M146.201,193.916c0.802,0,1.525,0.134,2.172,0.4c0.646,0.268,1.195,0.646,1.646,1.139
			c0.451,0.49,0.797,1.085,1.039,1.781c0.241,0.696,0.362,1.476,0.362,2.334c0,0.866-0.121,1.646-0.362,2.34
			c-0.242,0.692-0.589,1.285-1.039,1.775c-0.451,0.491-1,0.869-1.646,1.133s-1.37,0.396-2.172,0.396
			c-0.803,0-1.525-0.132-2.172-0.396s-1.196-0.642-1.651-1.133c-0.455-0.49-0.806-1.083-1.051-1.775
			c-0.246-0.693-0.368-1.474-0.368-2.34c0-0.858,0.122-1.638,0.368-2.334c0.245-0.696,0.596-1.291,1.051-1.781
			c0.455-0.491,1.005-0.87,1.651-1.139C144.675,194.049,145.398,193.916,146.201,193.916z M146.201,203.709
			c1.083,0,1.892-0.363,2.427-1.09c0.534-0.726,0.802-1.737,0.802-3.037c0-1.309-0.268-2.325-0.802-3.055
			c-0.535-0.729-1.344-1.096-2.427-1.096c-0.549,0-1.025,0.096-1.43,0.282c-0.405,0.187-0.742,0.458-1.014,0.812
			c-0.271,0.354-0.474,0.789-0.605,1.305c-0.135,0.518-0.2,1.101-0.2,1.75s0.065,1.23,0.2,1.744
			c0.133,0.513,0.336,0.943,0.605,1.295c0.27,0.351,0.608,0.619,1.014,0.807C145.176,203.615,145.652,203.709,146.201,203.709z"/>
	</g>
</g>
</svg>
