<?xml version="1.0" encoding="utf-8"?>
<!-- Generator: Adobe Illustrator 16.0.0, SVG Export Plug-In . SVG Version: 6.00 Build 0)  -->
<!DOCTYPE svg PUBLIC "-//W3C//DTD SVG 1.1//EN" "http://www.w3.org/Graphics/SVG/1.1/DTD/svg11.dtd">
<svg version="1.1" id="Layer_1" xmlns="http://www.w3.org/2000/svg" xmlns:xlink="http://www.w3.org/1999/xlink" x="0px" y="0px"
	 width="70px" height="70px" viewBox="0 0 70 70" enable-background="new 0 0 70 70" xml:space="preserve">
<circle fill="#004B71" cx="35" cy="35" r="34"/>
<path fill="#FFFFFF" d="M56.445,47.029H13.569c0,0-1.34,0-1.34,1.459c0,1.455,1.34,1.22,1.34,1.22h19.085l-5.637,8.018h2.704
	l5.636-8.018h1.073l5.632,8.018h2.705l-5.633-8.018h17.312c0,0,1.339,0.235,1.339-1.22C57.784,47.029,56.445,47.029,56.445,47.029z
	 M51.094,18.018c-0.753,3.308-5.256,3.833-5.256,3.833c-3.729-3.233-6.031-3.745-8.289-5.186c-2.254-1.438-2.248-4.39-2.248-4.39
	s-2.856,0.136-5.952,5.232c-2.118,3.489-5.827,4.405-5.827,4.405c-1.083-2.947-5.028-5.264-5.028-5.264
	c0.272,0.817,1.188,1.921-2.267,4.533c-4.475,3.379-3.998,9.867-3.998,9.867v9.351c0,5.359,5.359,5.359,5.359,5.359h34.837
	c0,0,5.357,0,5.357-5.359v-9.351C57.784,22.129,51.094,18.018,51.094,18.018z M35.008,39.299c-4.319-0.003-7.817-3.503-7.817-7.817
	c0-4.319,3.498-7.819,7.817-7.819c4.318,0,7.816,3.5,7.816,7.819C42.824,35.796,39.326,39.296,35.008,39.299z M35.008,25.45
	c-3.328,0.005-6.025,2.702-6.031,6.031c0.006,3.327,2.702,6.024,6.031,6.029c3.329-0.005,6.022-2.702,6.029-6.029
	C41.03,28.152,38.334,25.456,35.008,25.45z M32.364,26.903c0.285-0.164,0.65-0.068,0.814,0.218c0.164,0.285,0.068,0.649-0.218,0.812
	c-0.285,0.167-0.65,0.069-0.814-0.215C31.983,27.43,32.079,27.066,32.364,26.903z M30.431,28.836
	c0.163-0.284,0.529-0.381,0.812-0.218c0.284,0.167,0.381,0.53,0.218,0.815c-0.167,0.287-0.53,0.381-0.813,0.219
	C30.365,29.487,30.265,29.124,30.431,28.836z M29.722,31.482c0-0.328,0.269-0.596,0.595-0.596c0.328,0,0.596,0.268,0.596,0.596
	c0,0.329-0.268,0.595-0.596,0.595C29.99,32.077,29.722,31.811,29.722,31.482z M31.244,34.342c-0.283,0.164-0.651,0.066-0.813-0.216
	c-0.166-0.287-0.068-0.652,0.219-0.817c0.283-0.162,0.648-0.066,0.812,0.217C31.627,33.81,31.528,34.177,31.244,34.342z
	 M33.178,35.844c-0.164,0.275-0.527,0.375-0.814,0.216c-0.285-0.163-0.38-0.527-0.218-0.815c0.165-0.284,0.529-0.381,0.814-0.216
	C33.246,35.193,33.342,35.556,33.178,35.844z M35.008,36.767c-0.328,0-0.595-0.264-0.595-0.595c0-0.328,0.267-0.596,0.595-0.596
	c0.327,0,0.596,0.267,0.596,0.596C35.602,36.504,35.335,36.767,35.008,36.767z M35.008,32.374c-0.032,0-0.064-0.005-0.096-0.011
	l-1.97,1c-0.284,0.163-0.65,0.065-0.815-0.22c-0.164-0.284-0.066-0.646,0.221-0.813l1.789-1.166l0.275-4.374
	c0-0.327,0.267-0.596,0.595-0.596c0.327,0,0.597,0.269,0.595,0.596l0.298,4.691C35.899,31.976,35.5,32.374,35.008,32.374z
	 M37.649,36.06c-0.283,0.164-0.648,0.068-0.812-0.216c-0.166-0.287-0.065-0.651,0.22-0.815c0.283-0.166,0.646-0.067,0.812,0.216
	C38.033,35.524,37.937,35.896,37.649,36.06z M37.869,27.718c-0.166,0.284-0.529,0.379-0.812,0.215
	c-0.278-0.164-0.373-0.527-0.214-0.812c0.158-0.286,0.523-0.381,0.807-0.218C37.937,27.066,38.033,27.433,37.869,27.718z
	 M39.585,34.126c-0.162,0.277-0.527,0.376-0.811,0.216c-0.288-0.165-0.384-0.528-0.218-0.816c0.161-0.283,0.527-0.379,0.812-0.217
	C39.65,33.475,39.751,33.839,39.585,34.126z M40.294,31.482c0,0.329-0.265,0.595-0.595,0.595s-0.597-0.266-0.598-0.595
	c0-0.328,0.268-0.596,0.598-0.596S40.294,31.154,40.294,31.482z M39.585,28.836c0.166,0.288,0.065,0.651-0.218,0.816
	c-0.283,0.165-0.646,0.068-0.811-0.219c-0.167-0.285-0.07-0.648,0.216-0.815C39.05,28.455,39.421,28.552,39.585,28.836z"/>
</svg>
