<?xml version="1.0" encoding="utf-8"?>
<!-- Generator: Adobe Illustrator 16.2.1, SVG Export Plug-In . SVG Version: 6.00 Build 0)  -->
<!DOCTYPE svg PUBLIC "-//W3C//DTD SVG 1.1//EN" "http://www.w3.org/Graphics/SVG/1.1/DTD/svg11.dtd">
<svg version="1.1" id="Layer_1" xmlns="http://www.w3.org/2000/svg" xmlns:xlink="http://www.w3.org/1999/xlink" x="0px" y="0px"
	 width="412px" height="670px" viewBox="0 0 412 670" enable-background="new 0 0 412 670" xml:space="preserve">
<path id="twitter-icon" fill="#E5E5E4" d="M412,41.812c-15.158,6.724-31.449,11.269-48.548,13.31
	c17.449-10.461,30.854-27.025,37.164-46.764c-16.333,9.687-34.422,16.721-53.676,20.511C331.523,12.44,309.555,2.177,285.243,2.177
	c-54.561,0-94.668,50.916-82.338,103.787C132.656,102.44,70.372,68.788,28.683,17.65C6.541,55.633,17.198,105.341,54.841,130.5
	c-13.854-0.438-26.891-4.241-38.285-10.574c-0.917,39.162,27.146,75.781,67.795,83.949c-11.896,3.236-24.926,3.979-38.17,1.447
	c10.754,33.58,41.972,58.018,78.96,58.699C89.604,291.871,44.846,304.309,0,299.024c37.405,23.982,81.837,37.978,129.57,37.978
	c156.933,0,245.596-132.552,240.251-251.436C386.339,73.649,400.668,58.762,412,41.812z"/>
<path id="twitter-icon_1_" fill="#004D6E" d="M412,371.223c-15.158,6.726-31.449,11.271-48.548,13.312
	c17.449-10.461,30.854-27.025,37.164-46.765c-16.333,9.688-34.422,16.722-53.676,20.512c-15.418-16.43-37.387-26.691-61.697-26.691
	c-54.561,0-94.668,50.916-82.338,103.787c-70.25-3.524-132.533-37.177-174.223-88.312c-22.142,37.981-11.485,87.689,26.158,112.85
	c-13.854-0.438-26.891-4.241-38.285-10.574c-0.917,39.162,27.146,75.781,67.795,83.949c-11.896,3.236-24.926,3.979-38.17,1.447
	c10.754,33.58,41.972,58.018,78.96,58.698C89.604,621.283,44.846,633.721,0,628.436c37.405,23.982,81.837,37.979,129.57,37.979
	c156.933,0,245.596-132.553,240.251-251.437C386.339,403.061,400.668,388.174,412,371.223z"/>
</svg>
