<?xml version="1.0" encoding="utf-8"?>
<!-- Generator: Adobe Illustrator 16.0.0, SVG Export Plug-In . SVG Version: 6.00 Build 0)  -->
<!DOCTYPE svg PUBLIC "-//W3C//DTD SVG 1.1//EN" "http://www.w3.org/Graphics/SVG/1.1/DTD/svg11.dtd">
<svg version="1.1" id="Layer_1" xmlns="http://www.w3.org/2000/svg" xmlns:xlink="http://www.w3.org/1999/xlink" x="0px" y="0px"
	 width="30px" height="30px" viewBox="35 35 30 30" enable-background="new 35 35 30 30" xml:space="preserve">
<g id="Captions">
</g>
<g id="Your_Icon">
	<path fill="#004B71" d="M50,63c-7.18,0-13-5.821-13-13c0-7.179,5.82-13,13-13c7.179,0,13,5.821,13,13C63,57.179,57.179,63,50,63z
		 M50.113,40.664c-4.995,0-9.45,4.455-9.45,9.45c0,4.994,4.455,9.449,9.45,9.449c4.994,0,9.449-4.454,9.449-9.449
		C59.562,45.119,55.107,40.664,50.113,40.664z M50.102,52.539h-0.406c-0.624,0-1.391-0.445-1.391-1.069v-0.452v-5.292
		c0-0.625,0.506-1.334,1.131-1.334h0.655c0.624,0,1.23,0.616,1.23,1.241v4.062h3.859c0.624,0,1.333,0.495,1.333,1.119v0.655
		c0,0.624-0.709,1.07-1.333,1.07L50.102,52.539L50.102,52.539L50.102,52.539z"/>
</g>
</svg>
