<?xml version="1.0" encoding="utf-8"?>
<!-- Generator: Adobe Illustrator 16.2.1, SVG Export Plug-In . SVG Version: 6.00 Build 0)  -->
<!DOCTYPE svg PUBLIC "-//W3C//DTD SVG 1.1//EN" "http://www.w3.org/Graphics/SVG/1.1/DTD/svg11.dtd">
<svg version="1.1" id="Layer_1" xmlns="http://www.w3.org/2000/svg" xmlns:xlink="http://www.w3.org/1999/xlink" x="0px" y="0px"
	 width="191px" height="834px" viewBox="0 0 191 834" enable-background="new 0 0 191 834" xml:space="preserve">
<path id="facebook-icon" fill="#E5E5E5" d="M44.067,136.692H0.923v70.426h43.144V414h82.965V206.238h57.882l6.162-69.546h-64.045
	c0,0,0-25.97,0-39.615c0-16.398,3.303-22.89,19.147-22.89c12.767,0,44.896,0,44.896,0V2c0,0-47.326,0-57.441,0
	C71.9,2,44.067,29.179,44.067,81.231C44.067,126.566,44.067,136.692,44.067,136.692z"/>
<path id="facebook-icon_1_" fill="#283A42" d="M43.067,552.691H-0.077v70.427h43.144V830h82.965V622.238h57.882l6.162-69.547
	h-64.045c0,0,0-25.969,0-39.614c0-16.397,3.303-22.89,19.147-22.89c12.767,0,44.896,0,44.896,0V418c0,0-47.326,0-57.441,0
	c-61.734,0-89.567,27.18-89.567,79.23C43.067,542.566,43.067,552.691,43.067,552.691z"/>
</svg>
