<?xml version="1.0" encoding="utf-8"?>
<!-- Generator: Adobe Illustrator 16.0.0, SVG Export Plug-In . SVG Version: 6.00 Build 0)  -->
<!DOCTYPE svg PUBLIC "-//W3C//DTD SVG 1.1//EN" "http://www.w3.org/Graphics/SVG/1.1/DTD/svg11.dtd">
<svg version="1.1" id="Layer_1" xmlns="http://www.w3.org/2000/svg" xmlns:xlink="http://www.w3.org/1999/xlink" x="0px" y="0px"
	 width="70px" height="70px" viewBox="0 0 70 70" enable-background="new 0 0 70 70" xml:space="preserve">
<circle fill="#004B71" cx="35" cy="35" r="34"/>
<ellipse fill="#FFFFFF" cx="35" cy="40.217" rx="18.685" ry="14.327"/>
<g>
	
		<polyline fill="none" stroke="#004B71" stroke-width="5" stroke-linecap="round" stroke-linejoin="round" stroke-miterlimit="10" points="
		38.734,22.979 40.115,26.594 38.256,29.984 	"/>
	
		<polyline fill="none" stroke="#FFFFFF" stroke-width="3" stroke-linecap="round" stroke-linejoin="round" stroke-miterlimit="10" points="
		38.734,22.979 40.115,26.594 38.256,29.984 	"/>
</g>
<g>
	
		<polyline fill="none" stroke="#004B71" stroke-width="5" stroke-linecap="round" stroke-linejoin="round" stroke-miterlimit="10" points="
		55.217,31.769 54.393,36 50.277,37.115 	"/>
	
		<polyline fill="none" stroke="#FFFFFF" stroke-width="3" stroke-linecap="round" stroke-linejoin="round" stroke-miterlimit="10" points="
		55.217,31.769 54.393,36 50.277,37.115 	"/>
</g>
<g>
	
		<polyline fill="none" stroke="#004B71" stroke-width="5" stroke-linecap="round" stroke-linejoin="round" stroke-miterlimit="10" points="
		51.414,29.102 48.201,29.984 46.719,32.321 	"/>
	
		<polyline fill="none" stroke="#FFFFFF" stroke-width="3" stroke-linecap="round" stroke-linejoin="round" stroke-miterlimit="10" points="
		51.414,29.102 48.201,29.984 46.719,32.321 	"/>
</g>
<g>
	
		<polyline fill="none" stroke="#004B71" stroke-width="5" stroke-linecap="round" stroke-linejoin="round" stroke-miterlimit="10" points="
		31.273,22.979 29.89,26.594 31.75,29.984 	"/>
	
		<polyline fill="none" stroke="#FFFFFF" stroke-width="3" stroke-linecap="round" stroke-linejoin="round" stroke-miterlimit="10" points="
		31.273,22.979 29.89,26.594 31.75,29.984 	"/>
</g>
<circle fill="#FFFFFF" stroke="#004B71" stroke-linecap="round" stroke-linejoin="round" stroke-miterlimit="10" cx="35" cy="19.474" r="4.117"/>
<circle fill="#FFFFFF" stroke="#004B71" stroke-linecap="round" stroke-linejoin="round" stroke-miterlimit="10" cx="53.685" cy="27.095" r="4.116"/>
<g>
	
		<polyline fill="none" stroke="#004B71" stroke-width="5" stroke-linecap="round" stroke-linejoin="round" stroke-miterlimit="10" points="
		15.312,31.769 16.136,36 20.251,37.115 	"/>
	
		<polyline fill="none" stroke="#FFFFFF" stroke-width="3" stroke-linecap="round" stroke-linejoin="round" stroke-miterlimit="10" points="
		15.312,31.769 16.136,36 20.251,37.115 	"/>
</g>
<g>
	
		<polyline fill="none" stroke="#004B71" stroke-width="5" stroke-linecap="round" stroke-linejoin="round" stroke-miterlimit="10" points="
		19.115,29.102 22.328,29.984 23.81,32.321 	"/>
	
		<polyline fill="none" stroke="#FFFFFF" stroke-width="3" stroke-linecap="round" stroke-linejoin="round" stroke-miterlimit="10" points="
		19.115,29.102 22.328,29.984 23.81,32.321 	"/>
</g>
<circle fill="#FFFFFF" stroke="#004B71" stroke-linecap="round" stroke-linejoin="round" stroke-miterlimit="10" cx="16.844" cy="27.095" r="4.117"/>
</svg>
