<?xml version="1.0" encoding="utf-8"?>
<!-- Generator: Adobe Illustrator 16.0.0, SVG Export Plug-In . SVG Version: 6.00 Build 0)  -->
<!DOCTYPE svg PUBLIC "-//W3C//DTD SVG 1.1//EN" "http://www.w3.org/Graphics/SVG/1.1/DTD/svg11.dtd">
<svg version="1.1" id="Layer_1" xmlns="http://www.w3.org/2000/svg" xmlns:xlink="http://www.w3.org/1999/xlink" x="0px" y="0px"
	 width="70px" height="70px" viewBox="0 0 70 70" enable-background="new 0 0 70 70" xml:space="preserve">
<circle fill="#004B71" cx="35" cy="35" r="34"/>
<g>
	<path fill="#FFFFFF" d="M38.346,22.788c0.812-0.838,1.313-1.979,1.313-3.238c0-2.572-2.088-4.658-4.66-4.658
		c-2.573,0-4.66,2.085-4.66,4.658c0,1.26,0.503,2.401,1.313,3.238c-2.207,1.192-3.704,3.525-3.704,6.208h14.102
		C42.051,26.313,40.555,23.979,38.346,22.788z"/>
	<path fill="#FFFFFF" d="M23.786,32.388h0.969v9.279c0.864-1.976,2.83-3.359,5.119-3.359c2.292,0,4.266,1.391,5.125,3.376
		c0.861-1.985,2.833-3.376,5.129-3.376c2.286,0,4.252,1.384,5.116,3.359v-9.279h0.969c0.523,0,0.943-0.423,0.943-0.942
		c0-0.519-0.42-0.939-0.943-0.939H23.786c-0.52,0-0.941,0.421-0.941,0.939C22.844,31.965,23.266,32.388,23.786,32.388z"/>
	<path fill="#FFFFFF" d="M40.695,47.679c0.657-1.511,1.916-2.698,3.461-3.281c0.02-0.168,0.051-0.331,0.051-0.502
		c0-2.252-1.826-4.079-4.081-4.079c-2.254,0-4.082,1.827-4.082,4.079c0,0.06,0.016,0.116,0.02,0.175
		C38.145,44.408,39.878,45.799,40.695,47.679z"/>
	<path fill="#FFFFFF" d="M46.312,43.984c2.449,0,4.56,1.449,5.538,3.532c0.535-1.138,1.415-2.074,2.498-2.699
		c0.069-0.299,0.112-0.604,0.112-0.922c0-2.252-1.826-4.081-4.082-4.081c-2.254,0-4.081,1.827-4.081,4.081
		c0,0.032,0.011,0.062,0.011,0.089C46.31,43.984,46.312,43.984,46.312,43.984z"/>
	<path fill="#FFFFFF" d="M29.461,47.679c0.796-1.829,2.462-3.188,4.471-3.572c0.003-0.069,0.022-0.139,0.022-0.211
		c0-2.252-1.827-4.079-4.081-4.079c-2.256,0-4.082,1.827-4.082,4.079c0,0.149,0.026,0.289,0.043,0.435
		C27.46,44.894,28.779,46.113,29.461,47.679z"/>
	<path fill="#FFFFFF" d="M18.228,47.679c0.922-2.124,3.017-3.618,5.462-3.68c0-0.036,0.011-0.067,0.011-0.104
		c0-2.252-1.827-4.079-4.082-4.079c-2.254,0-4.081,1.827-4.081,4.079c0,0.318,0.046,0.623,0.113,0.922
		C16.787,45.472,17.701,46.468,18.228,47.679z"/>
	<path fill="#FFFFFF" d="M17.082,50.11c0,2.471-2,4.474-4.473,4.474c-2.469,0-4.472-2.003-4.472-4.474
		c0-2.472,2.002-4.472,4.472-4.472C15.082,45.639,17.082,47.639,17.082,50.11z M23.843,45.639c-2.468,0-4.471,2-4.471,4.472
		c0,2.471,2.002,4.474,4.471,4.474c2.472,0,4.474-2.003,4.474-4.474C28.317,47.639,26.315,45.639,23.843,45.639z M35.077,45.639
		c-2.468,0-4.471,2-4.471,4.472c0,2.471,2.002,4.474,4.471,4.474c2.472,0,4.474-2.003,4.474-4.474
		C39.551,47.639,37.549,45.639,35.077,45.639z M46.312,45.639c-2.47,0-4.473,2-4.473,4.472c0,2.471,2.003,4.474,4.473,4.474
		s4.472-2.003,4.472-4.474C50.784,47.639,48.782,45.639,46.312,45.639z M57.388,45.639c-2.468,0-4.469,2-4.469,4.472
		c0,2.471,2.001,4.474,4.469,4.474c2.473,0,4.475-2.003,4.475-4.474C61.862,47.639,59.86,45.639,57.388,45.639z"/>
	<path fill="#FFFFFF" d="M48.871,9.412c-3.395,0-6.143,2.75-6.143,6.146c0,1.108,0.297,2.148,0.813,3.047l-1.491,3.672l3.637-1.474
		c0.93,0.567,2.018,0.898,3.184,0.898c3.395,0,6.145-2.75,6.145-6.144C55.016,12.162,52.265,9.412,48.871,9.412z"/>
</g>
</svg>
