<?xml version="1.0" encoding="utf-8"?>
<!-- Generator: Adobe Illustrator 16.0.0, SVG Export Plug-In . SVG Version: 6.00 Build 0)  -->
<!DOCTYPE svg PUBLIC "-//W3C//DTD SVG 1.1//EN" "http://www.w3.org/Graphics/SVG/1.1/DTD/svg11.dtd">
<svg version="1.1" id="Layer_1" xmlns="http://www.w3.org/2000/svg" xmlns:xlink="http://www.w3.org/1999/xlink" x="0px" y="0px"
	 width="100px" height="100px" viewBox="0 0 100 100" enable-background="new 0 0 100 100" xml:space="preserve">
<g>
	<path fill="#009EE2" d="M98.352,1.637c-2.789-2.786-8.507-1.899-12.188,1.78L64.729,24.848l-44.233-9.529
		c-5.463-0.998-8.783-0.533-13.872,5.564c-4.181,5.008,2.73,7.642,9.807,10.735l28.978,12.64
		c-7.836,8.2-14.562,15.981-19.523,22.448c-0.914,1.218-2.365,1.491-3.523,1.21l-14.418-3.1c-2.864-0.522-4.604-0.279-7.272,2.915
		c-2.193,2.628,1.431,4.008,5.141,5.629l12.239,5.164c-1.014,2.062-1.456,3.629-1.242,4.594c0.005,0.025,0.01,0.037,0.024,0.053
		c0.017,0.017,0.03,0.021,0.053,0.025c0.964,0.214,2.534-0.227,4.596-1.24l5.162,12.239c1.623,3.708,3.004,7.332,5.629,5.14
		c3.196-2.667,3.439-4.406,2.917-7.271l-3.103-14.418c-0.281-1.159-0.008-2.609,1.211-3.526
		c6.467-4.959,14.248-11.686,22.445-19.521l12.642,28.977c3.096,7.077,5.728,13.989,10.736,9.81
		c6.096-5.091,6.562-8.409,5.566-13.873l-9.532-44.234l21.433-21.437C100.27,10.163,101.137,4.425,98.352,1.637L98.352,1.637z"/>
</g>
</svg>
