<?xml version="1.0" encoding="utf-8"?>
<!-- Generator: Adobe Illustrator 16.0.0, SVG Export Plug-In . SVG Version: 6.00 Build 0)  -->
<!DOCTYPE svg PUBLIC "-//W3C//DTD SVG 1.1//EN" "http://www.w3.org/Graphics/SVG/1.1/DTD/svg11.dtd">
<svg version="1.1" id="Layer_1" xmlns="http://www.w3.org/2000/svg" xmlns:xlink="http://www.w3.org/1999/xlink" x="0px" y="0px"
	 width="100px" height="100px" viewBox="0 0 100 100" enable-background="new 0 0 100 100" xml:space="preserve">
<g>
	<g>
		<path fill="#009EE2" d="M71.999,19.819V84H28V17h43.999v4.819H77V8c0-4.418-3.583-8-8-8H31c-4.418,0-8,3.582-8,8v84
			c0,4.418,3.582,8,8,8h38c4.417,0,8-3.582,8-8V19.819H71.999z M46.032,9h7.999c0.554,0,1.001,0.448,1.001,1
			c0,0.552-0.447,1-1.001,1h-7.999c-0.552,0-1-0.448-1-1C45.032,9.448,45.48,9,46.032,9z M49.699,95.266
			c-2.209,0-4.001-1.79-4.001-4c0-2.209,1.792-4,4.001-4c2.21,0,4,1.791,4,4C53.699,93.476,51.909,95.266,49.699,95.266z"/>
	</g>
</g>
<g id="Your_Icon">
	<g>
		<path fill="#009EE2" d="M50,35.683c-7.51,0-13.597,6.087-13.597,13.597c0,7.51,6.087,13.597,13.597,13.597
			s13.597-6.087,13.597-13.597C63.597,41.77,57.51,35.683,50,35.683z M50,60.61c-6.258,0-11.331-5.073-11.331-11.331
			c0-6.257,5.073-11.331,11.331-11.331c6.257,0,11.33,5.073,11.33,11.331C61.33,55.537,56.257,60.61,50,60.61z"/>
	</g>
	<path fill="#009EE2" d="M53.776,39.837l-7.554,7.931l0,0v10.953l7.554-7.931l0,0V39.837z M50.861,50.122
		c-0.442,0.442-1.159,0.442-1.602,0c-0.443-0.442-0.443-1.16-0.001-1.603c0.443-0.442,1.16-0.442,1.603,0
		C51.304,48.961,51.304,49.679,50.861,50.122z"/>
</g>
</svg>
