<?xml version="1.0" encoding="utf-8"?>
<!-- Generator: Adobe Illustrator 16.0.0, SVG Export Plug-In . SVG Version: 6.00 Build 0)  -->
<!DOCTYPE svg PUBLIC "-//W3C//DTD SVG 1.1//EN" "http://www.w3.org/Graphics/SVG/1.1/DTD/svg11.dtd">
<svg version="1.1" id="Layer_1" xmlns="http://www.w3.org/2000/svg" xmlns:xlink="http://www.w3.org/1999/xlink" x="0px" y="0px"
	 width="100px" height="100px" viewBox="0 0 100 100" enable-background="new 0 0 100 100" xml:space="preserve">
<path fill="#009EE2" d="M78.555,59.904c-4.311,0-7.806,3.493-7.806,7.801c0,4.312,3.495,7.807,7.806,7.807
	c4.31,0,7.806-3.495,7.806-7.807C86.36,63.397,82.864,59.904,78.555,59.904z M19.944,59.904c-4.31,0-7.801,3.493-7.801,7.801
	c0,4.312,3.492,7.807,7.801,7.807c4.307,0,7.804-3.495,7.804-7.807C27.748,63.397,24.25,59.904,19.944,59.904z M99.241,53.691
	c-0.305-1.818-3.638-4.093-3.638-4.093c-3.939-8.181-17.122-9.395-17.122-9.395c-7.732-9.838-22.674-14.128-22.674-14.128
	c-16.902-3.06-37.661-0.755-37.661-0.755c-10.581,1.265-7.679,5.451-7.679,5.451C-2.808,41.188,0.321,61.116,0.321,61.116
	c0.455,6.212,5.606,6.668,5.606,6.668s0.587,0.004,1.669,0.012v-0.089c0-6.81,5.538-12.351,12.349-12.351
	c6.812,0,12.351,5.541,12.351,12.351c0,0.086-0.007,0.17-0.008,0.253c14.882,0.099,19.537,0.224,33.932,0.336
	c-0.007-0.194-0.015-0.391-0.015-0.591c0-6.809,5.54-12.35,12.353-12.35c6.81,0,12.35,5.541,12.35,12.35
	c0,0.275-0.012,0.541-0.027,0.81c1.808-0.161,3.818-0.732,3.818-0.732c4.999-1.665,5.302-4.699,5.302-4.699L99.241,53.691z"/>
</svg>
