<?xml version="1.0" encoding="utf-8"?>
<!-- Generator: Adobe Illustrator 16.0.0, SVG Export Plug-In . SVG Version: 6.00 Build 0)  -->
<!DOCTYPE svg PUBLIC "-//W3C//DTD SVG 1.1//EN" "http://www.w3.org/Graphics/SVG/1.1/DTD/svg11.dtd">
<svg version="1.1" id="Layer_1" xmlns="http://www.w3.org/2000/svg" xmlns:xlink="http://www.w3.org/1999/xlink" x="0px" y="0px"
	 width="721.286px" height="229.301px" viewBox="0 0 721.286 229.301" enable-background="new 0 0 721.286 229.301"
	 xml:space="preserve">
<g>
	<rect x="387.047" y="20.847" fill="#283A42" width="3.857" height="152.167"/>
	<path fill="#283A42" d="M291.08,62.437v66.21v27.734h-32.745V67.695L291.08,62.437z M291.08,58.147h-32.745V30.413h46.444
		c17.595,0,32.658,6.098,45.187,18.294c12.531,12.196,18.799,27.093,18.799,44.688c0,17.599-6.268,32.494-18.799,44.693
		c-12.529,12.191-27.592,18.293-45.187,18.293h-6.246l-3.166-27.734h3.062c10.466,0,19.129-2.949,25.976-8.855
		c6.852-5.904,10.277-14.699,10.277-26.396c0-11.026-3.285-19.655-9.86-25.895c-6.57-6.232-15.258-9.353-26.059-9.353H291.08"/>
	<path fill="#283A42" d="M427.448,30.413h32.24l25.564,67.326l27.062-67.326h32.576l0,0L521.67,83.874l-30.236,72.507h-13.031
		L449.5,83.874L427.448,30.413z M446.377,103.103l-7.738,53.278h-32.578l20.941-123.04L446.377,103.103z M545.336,33.342
		l18.602,123.04H531.19l-6.744-53.278L545.336,33.342z"/>
	<path fill="#283A42" d="M656.692,111.775h-26.729V86.044h64.984c-0.203,9.976-0.986,18.552-2.354,25.731
		C692.594,111.775,683.737,113.504,656.692,111.775z M689.727,121.971c-1.836,4.713-4.385,9.328-7.645,13.857
		c-11.803,16.484-29.125,24.73-51.957,24.73c-19.824,0-35.971-6.154-48.443-18.463c-12.477-12.303-18.713-28.32-18.713-48.032
		c0-20.381,6.289-36.779,18.883-49.2c12.582-12.415,29.068-18.626,49.449-18.626c13.139,0,24.555,2.953,34.244,8.854
		c9.689,5.903,17.211,14.701,22.557,26.394l-31.078,13.034c-2.332-6.238-5.844-11.137-10.523-14.701
		c-4.678-3.565-10.246-5.348-16.703-5.348c-10.139,0-18.129,4.009-23.979,12.03c-5.848,8.019-8.77,17.264-8.77,27.73
		c0,10.472,2.982,19.657,8.939,27.564c5.959,7.914,14.062,11.859,24.307,11.859c7.35,0,13.418-1.889,18.213-5.674
		c4.238-3.354,6.865-7.982,7.875-13.871C656.44,113.78,690.473,120.059,689.727,121.971z"/>
	<polygon fill="#08171E" points="521.67,83.874 522.004,83.874 524.446,103.103 545.336,33.342 544.891,30.413 	"/>
	<polygon fill="#08171E" points="427.448,30.413 427.002,33.342 446.377,103.103 449.165,83.874 449.5,83.874 	"/>
	<polygon fill="#08171E" points="291.08,58.147 291.08,62.437 258.334,67.695 258.334,58.147 	"/>
	<polygon fill="#08171E" points="291.08,128.647 295.365,128.647 298.532,156.381 291.08,156.381 	"/>
	<path fill="#08171E" d="M689.723,121.965c1.055-2.705,1.883-5.43,2.471-8.189c0.137-0.649,0.264-1.324,0.393-2.001
		c0.021-0.093-35.895,0-35.895,0c-0.076,0.801-0.186,1.576-0.316,2.331L689.723,121.965z"/>
	<path fill="#283A42" d="M174.876,62.437v66.21v27.734h-32.745V67.695L174.876,62.437z M174.876,58.147h-32.745V30.413h46.444
		c17.595,0,32.658,6.098,45.187,18.294c12.531,12.196,18.797,27.093,18.797,44.688c0,17.599-6.266,32.494-18.797,44.693
		c-12.529,12.191-27.592,18.293-45.187,18.293h-6.246l-3.166-27.734h3.062c10.466,0,19.13-2.949,25.976-8.855
		c6.853-5.904,10.278-14.699,10.278-26.396c0-11.026-3.285-19.655-9.86-25.895c-6.571-6.232-15.258-9.353-26.059-9.353H174.876"/>
	<polygon fill="#08171E" points="174.876,58.147 174.876,62.437 142.131,67.695 142.131,58.147 	"/>
	<polygon fill="#08171E" points="174.876,128.647 179.161,128.647 182.329,156.381 174.876,156.381 	"/>
	<path fill="#283A42" d="M59.145,62.437v66.21v27.734H26.399V67.695L59.145,62.437z M59.145,58.147H26.399V30.413h46.444
		c17.594,0,32.658,6.098,45.187,18.294c12.531,12.196,18.797,27.093,18.797,44.688c0,17.599-6.267,32.494-18.797,44.693
		c-12.528,12.191-27.592,18.293-45.187,18.293h-6.246l-3.166-27.734h3.062c10.466,0,19.13-2.949,25.976-8.855
		c6.853-5.904,10.278-14.699,10.278-26.396c0-11.026-3.286-19.655-9.86-25.895c-6.57-6.232-15.258-9.353-26.059-9.353H59.145"/>
	<polygon fill="#08171E" points="59.145,58.147 59.145,62.437 26.399,67.695 26.399,58.147 	"/>
	<polygon fill="#08171E" points="59.145,128.647 63.43,128.647 66.598,156.381 59.145,156.381 	"/>
	<g>
		<g>
			<path fill="#283A42" d="M39.006,202.436c-0.27,0-0.423-0.139-0.468-0.422l-0.159-2.547c-0.716,0.973-1.552,1.748-2.511,2.318
				c-0.959,0.572-2.036,0.865-3.227,0.865c-1.981,0-3.529-0.689-4.639-2.064c-1.108-1.375-1.664-3.432-1.664-6.182
				c0-1.18,0.153-2.279,0.465-3.307c0.307-1.021,0.761-1.906,1.363-2.66c0.602-0.75,1.338-1.342,2.21-1.775
				c0.871-0.43,1.879-0.65,3.014-0.65c1.093,0,2.041,0.207,2.843,0.609c0.803,0.41,1.494,1.002,2.08,1.781v-9.576h1.542v23.609
				H39.006z M33.08,201.397c1.073,0,2.044-0.271,2.91-0.828c0.867-0.551,1.641-1.316,2.324-2.303v-8.521
				c-0.628-0.916-1.318-1.566-2.071-1.943c-0.752-0.381-1.606-0.568-2.562-0.568c-0.953,0-1.788,0.172-2.502,0.52
				c-0.716,0.346-1.313,0.832-1.794,1.465c-0.482,0.637-0.847,1.395-1.091,2.271c-0.24,0.885-0.364,1.854-0.364,2.916
				c0,2.4,0.444,4.17,1.331,5.297C30.151,200.833,31.422,201.397,33.08,201.397z"/>
			<path fill="#283A42" d="M50.872,186.03c0.909,0,1.75,0.158,2.524,0.471c0.774,0.316,1.443,0.773,2.011,1.375
				c0.57,0.596,1.012,1.338,1.332,2.213c0.319,0.877,0.478,1.883,0.478,3.018c0,0.236-0.034,0.402-0.105,0.488
				c-0.067,0.084-0.181,0.129-0.331,0.129H45.128v0.309c0,1.209,0.141,2.275,0.423,3.195c0.281,0.922,0.679,1.691,1.199,2.312
				c0.521,0.625,1.148,1.092,1.884,1.402c0.736,0.316,1.557,0.471,2.465,0.471c0.812,0,1.515-0.088,2.11-0.268
				c0.595-0.178,1.095-0.377,1.5-0.6c0.407-0.223,0.726-0.418,0.966-0.6c0.235-0.18,0.412-0.268,0.518-0.268
				c0.143,0,0.248,0.053,0.325,0.162l0.423,0.518c-0.261,0.326-0.604,0.629-1.03,0.914c-0.429,0.279-0.904,0.518-1.431,0.717
				c-0.521,0.203-1.085,0.361-1.686,0.479c-0.6,0.123-1.203,0.184-1.809,0.184c-1.102,0-2.109-0.195-3.018-0.58
				c-0.909-0.381-1.689-0.941-2.341-1.68c-0.648-0.734-1.152-1.635-1.508-2.701s-0.532-2.287-0.532-3.658
				c0-1.156,0.164-2.227,0.495-3.205c0.33-0.98,0.805-1.824,1.428-2.529c0.623-0.711,1.384-1.266,2.289-1.664
				C48.702,186.233,49.724,186.03,50.872,186.03z M50.897,187.18c-0.833,0-1.578,0.135-2.238,0.395
				c-0.658,0.26-1.228,0.629-1.709,1.115c-0.479,0.486-0.869,1.07-1.165,1.756c-0.297,0.682-0.495,1.443-0.591,2.283h10.627
				c0-0.859-0.121-1.639-0.356-2.324c-0.239-0.689-0.572-1.27-1.004-1.748c-0.432-0.475-0.951-0.834-1.557-1.09
				C52.297,187.311,51.629,187.18,50.897,187.18z"/>
			<path fill="#283A42" d="M65.282,202.7c-1.093,0-1.942-0.309-2.549-0.914c-0.605-0.604-0.909-1.541-0.909-2.807v-11.031h-2.321
				c-0.119,0-0.215-0.033-0.291-0.098c-0.075-0.064-0.114-0.158-0.114-0.275v-0.6l2.758-0.195L62.244,181
				c0.011-0.094,0.051-0.184,0.12-0.26c0.07-0.078,0.164-0.113,0.282-0.113h0.72v6.164h5.081v1.156h-5.081v10.951
				c0,0.441,0.059,0.822,0.172,1.143c0.114,0.322,0.269,0.58,0.471,0.787c0.2,0.207,0.436,0.357,0.707,0.455
				c0.27,0.098,0.56,0.146,0.875,0.146c0.389,0,0.724-0.053,1.006-0.166c0.282-0.119,0.525-0.244,0.731-0.379
				c0.205-0.133,0.373-0.26,0.503-0.373c0.129-0.113,0.231-0.17,0.307-0.17c0.086,0,0.174,0.053,0.261,0.162l0.423,0.682
				c-0.412,0.455-0.934,0.82-1.567,1.096C66.62,202.557,65.962,202.7,65.282,202.7z"/>
			<path fill="#283A42" d="M78.051,186.03c0.909,0,1.749,0.158,2.522,0.471c0.773,0.316,1.447,0.773,2.015,1.375
				c0.568,0.596,1.009,1.338,1.328,2.213c0.321,0.877,0.48,1.883,0.48,3.018c0,0.236-0.038,0.402-0.104,0.488
				c-0.072,0.084-0.182,0.129-0.333,0.129H72.307v0.309c0,1.209,0.141,2.275,0.421,3.195c0.282,0.922,0.681,1.691,1.203,2.312
				c0.518,0.625,1.145,1.092,1.881,1.402c0.736,0.316,1.559,0.471,2.467,0.471c0.812,0,1.514-0.088,2.109-0.268
				c0.593-0.178,1.096-0.377,1.501-0.6c0.404-0.223,0.728-0.418,0.963-0.6c0.239-0.18,0.412-0.268,0.521-0.268
				c0.139,0,0.249,0.053,0.325,0.162l0.421,0.518c-0.26,0.326-0.603,0.629-1.031,0.914c-0.425,0.279-0.902,0.518-1.426,0.717
				c-0.526,0.203-1.089,0.361-1.687,0.479c-0.602,0.123-1.205,0.184-1.81,0.184c-1.104,0-2.11-0.195-3.019-0.58
				c-0.909-0.381-1.688-0.941-2.338-1.68c-0.652-0.734-1.153-1.635-1.511-2.701c-0.355-1.066-0.533-2.287-0.533-3.658
				c0-1.156,0.165-2.227,0.496-3.205c0.331-0.98,0.806-1.824,1.428-2.529c0.623-0.711,1.386-1.266,2.289-1.664
				C75.878,186.233,76.905,186.03,78.051,186.03z M78.074,187.18c-0.833,0-1.575,0.135-2.233,0.395
				c-0.661,0.26-1.231,0.629-1.712,1.115c-0.479,0.486-0.868,1.07-1.165,1.756c-0.298,0.682-0.494,1.443-0.593,2.283H83
				c0-0.859-0.118-1.639-0.355-2.324c-0.238-0.689-0.575-1.27-1.006-1.748c-0.431-0.475-0.95-0.834-1.554-1.09
				C79.479,187.311,78.81,187.18,78.074,187.18z"/>
			<path fill="#283A42" d="M98.689,188.45c-0.055,0.053-0.104,0.098-0.151,0.135c-0.05,0.041-0.118,0.057-0.204,0.057
				c-0.107,0-0.259-0.068-0.448-0.219c-0.189-0.143-0.442-0.305-0.753-0.475c-0.313-0.174-0.706-0.332-1.177-0.482
				c-0.469-0.143-1.039-0.219-1.709-0.219c-0.932,0-1.756,0.166-2.476,0.498c-0.719,0.328-1.324,0.799-1.817,1.42
				c-0.492,0.613-0.868,1.363-1.127,2.238c-0.261,0.873-0.391,1.861-0.391,2.949c0,1.139,0.134,2.145,0.399,3.021
				c0.265,0.877,0.639,1.615,1.127,2.215c0.486,0.6,1.077,1.059,1.767,1.371c0.693,0.316,1.461,0.471,2.305,0.471
				c0.781,0,1.433-0.09,1.956-0.277c0.526-0.186,0.957-0.385,1.298-0.6c0.343-0.215,0.612-0.414,0.812-0.6
				c0.2-0.184,0.359-0.275,0.477-0.275c0.141,0,0.25,0.053,0.327,0.162l0.423,0.518c-0.249,0.326-0.564,0.629-0.942,0.914
				c-0.379,0.279-0.806,0.523-1.284,0.725c-0.475,0.207-0.993,0.365-1.547,0.479c-0.558,0.115-1.14,0.176-1.746,0.176
				c-1.026,0-1.966-0.188-2.814-0.564c-0.85-0.369-1.58-0.912-2.191-1.623c-0.611-0.705-1.088-1.572-1.427-2.604
				c-0.343-1.029-0.513-2.193-0.513-3.508c0-1.229,0.164-2.352,0.488-3.371c0.324-1.018,0.798-1.895,1.417-2.627
				c0.623-0.738,1.386-1.311,2.289-1.713c0.904-0.404,1.939-0.611,3.109-0.611c1.049,0,1.981,0.166,2.798,0.506
				c0.818,0.334,1.527,0.787,2.136,1.363L98.689,188.45z"/>
			<path fill="#283A42" d="M106.088,206.864c0.055,0,0.127,0.033,0.219,0.094c0.092,0.057,0.215,0.121,0.358,0.191
				c0.147,0.072,0.327,0.137,0.544,0.197c0.216,0.059,0.481,0.086,0.795,0.086c0.552,0,0.981-0.117,1.289-0.357
				c0.31-0.234,0.463-0.562,0.463-0.973c0-0.268-0.072-0.494-0.211-0.674c-0.141-0.178-0.341-0.328-0.601-0.445
				c-0.259-0.117-0.564-0.211-0.915-0.275c-0.354-0.066-0.738-0.127-1.163-0.18l0.601-1.914c-0.94-0.064-1.801-0.301-2.579-0.705
				c-0.781-0.406-1.447-0.961-2.004-1.664c-0.557-0.701-0.986-1.549-1.289-2.539c-0.305-0.988-0.454-2.104-0.454-3.354
				c0-1.229,0.16-2.352,0.488-3.371c0.321-1.018,0.795-1.895,1.417-2.627c0.623-0.738,1.384-1.311,2.289-1.713
				c0.902-0.404,1.939-0.611,3.108-0.611c1.047,0,1.981,0.166,2.797,0.506c0.816,0.334,1.527,0.787,2.132,1.363l-0.403,0.551
				c-0.055,0.053-0.105,0.098-0.156,0.135c-0.045,0.041-0.113,0.057-0.202,0.057c-0.106,0-0.256-0.068-0.445-0.219
				c-0.189-0.143-0.442-0.305-0.753-0.475c-0.315-0.174-0.707-0.332-1.177-0.482c-0.471-0.143-1.041-0.219-1.712-0.219
				c-0.93,0-1.754,0.166-2.473,0.498c-0.721,0.328-1.327,0.799-1.819,1.42c-0.49,0.613-0.869,1.363-1.128,2.238
				c-0.26,0.873-0.389,1.861-0.389,2.949c0,1.139,0.131,2.145,0.396,3.021c0.266,0.877,0.644,1.615,1.129,2.215
				c0.486,0.6,1.077,1.059,1.769,1.371c0.692,0.316,1.46,0.471,2.306,0.471c0.778,0,1.43-0.09,1.954-0.277
				c0.523-0.186,0.956-0.385,1.297-0.6c0.344-0.215,0.612-0.414,0.812-0.6c0.202-0.184,0.362-0.275,0.479-0.275
				c0.139,0,0.249,0.053,0.324,0.162l0.421,0.518c-0.486,0.629-1.182,1.152-2.084,1.574s-1.929,0.658-3.073,0.701l-0.391,1.279
				c0.963,0.174,1.694,0.426,2.2,0.746c0.5,0.324,0.753,0.807,0.753,1.443c0,0.324-0.072,0.617-0.219,0.875
				c-0.145,0.264-0.351,0.48-0.617,0.658c-0.265,0.178-0.582,0.316-0.948,0.414c-0.37,0.098-0.77,0.145-1.202,0.145
				c-0.443,0-0.876-0.061-1.299-0.182c-0.423-0.129-0.773-0.297-1.055-0.498l0.162-0.455
				C105.894,206.934,105.983,206.864,106.088,206.864z"/>
			<path fill="#283A42" d="M126.924,202.436c-0.325,0-0.526-0.15-0.599-0.455l-0.229-2.061c-0.444,0.434-0.883,0.824-1.321,1.168
				c-0.439,0.35-0.897,0.641-1.371,0.877c-0.478,0.238-0.99,0.418-1.541,0.543c-0.554,0.125-1.157,0.191-1.818,0.191
				c-0.553,0-1.089-0.086-1.606-0.248c-0.52-0.162-0.98-0.414-1.38-0.746c-0.399-0.336-0.723-0.768-0.965-1.291
				c-0.244-0.521-0.364-1.154-0.364-1.889c0-0.682,0.194-1.314,0.583-1.898c0.39-0.584,0.999-1.092,1.825-1.525
				c0.827-0.434,1.894-0.779,3.197-1.037c1.302-0.26,2.871-0.414,4.697-0.455v-1.688c0-1.492-0.32-2.641-0.963-3.451
				c-0.644-0.803-1.599-1.205-2.864-1.205c-0.779,0-1.443,0.105-1.991,0.32c-0.544,0.219-1.009,0.455-1.385,0.719
				c-0.381,0.26-0.688,0.494-0.926,0.713c-0.238,0.215-0.438,0.324-0.6,0.324c-0.219,0-0.379-0.098-0.488-0.291l-0.275-0.475
				c0.843-0.844,1.73-1.48,2.661-1.914c0.932-0.43,1.985-0.65,3.163-0.65c0.867,0,1.623,0.139,2.271,0.418
				c0.652,0.271,1.19,0.67,1.618,1.186c0.427,0.51,0.749,1.131,0.965,1.865c0.215,0.73,0.325,1.541,0.325,2.441v10.514H126.924z
				 M120.432,201.575c0.626,0,1.206-0.064,1.729-0.197c0.526-0.139,1.014-0.33,1.46-0.572c0.449-0.244,0.87-0.531,1.257-0.869
				c0.391-0.336,0.773-0.697,1.153-1.086v-4.201c-1.536,0.043-2.856,0.158-3.967,0.348c-1.108,0.188-2.024,0.441-2.743,0.771
				c-0.719,0.324-1.249,0.709-1.59,1.156c-0.341,0.453-0.511,0.961-0.511,1.537c0,0.539,0.09,1.006,0.269,1.402
				c0.178,0.398,0.413,0.723,0.705,0.973c0.29,0.256,0.634,0.443,1.022,0.561C119.607,201.514,120.011,201.575,120.432,201.575z
				 M124.068,181.665c0.465,0,0.818-0.15,1.054-0.445c0.237-0.297,0.363-0.701,0.374-1.209h0.958c0,0.389-0.054,0.754-0.155,1.1
				c-0.101,0.336-0.254,0.633-0.454,0.879c-0.202,0.252-0.448,0.447-0.74,0.584c-0.29,0.143-0.621,0.215-0.989,0.215
				c-0.358,0-0.693-0.092-1.014-0.271c-0.319-0.174-0.625-0.373-0.917-0.584s-0.576-0.404-0.852-0.584
				c-0.276-0.178-0.554-0.264-0.835-0.264c-0.454,0-0.801,0.15-1.039,0.459c-0.24,0.309-0.368,0.705-0.389,1.197h-0.991
				c0-0.395,0.055-0.76,0.162-1.096c0.107-0.342,0.267-0.641,0.472-0.885c0.204-0.252,0.454-0.445,0.746-0.588
				c0.29-0.143,0.623-0.211,0.989-0.211c0.37,0,0.711,0.09,1.03,0.268c0.319,0.18,0.623,0.373,0.909,0.584
				c0.288,0.211,0.567,0.406,0.846,0.584C123.509,181.577,123.786,181.665,124.068,181.665z"/>
			<path fill="#283A42" d="M138.073,186.03c1.157,0,2.192,0.197,3.107,0.592c0.913,0.396,1.684,0.957,2.311,1.684
				c0.627,0.725,1.106,1.598,1.437,2.619c0.331,1.023,0.494,2.166,0.494,3.428c0,1.27-0.163,2.408-0.494,3.428
				c-0.331,1.018-0.81,1.885-1.437,2.611c-0.626,0.727-1.398,1.281-2.311,1.672c-0.915,0.389-1.95,0.588-3.107,0.588
				c-1.161,0-2.195-0.199-3.108-0.588c-0.916-0.391-1.687-0.945-2.322-1.672c-0.632-0.727-1.114-1.594-1.443-2.611
				c-0.329-1.02-0.497-2.158-0.497-3.428c0-1.262,0.168-2.404,0.497-3.428c0.329-1.021,0.811-1.895,1.443-2.619
				c0.635-0.727,1.406-1.287,2.322-1.684C135.877,186.227,136.912,186.03,138.073,186.03z M138.073,201.43
				c0.961,0,1.803-0.162,2.524-0.496c0.72-0.328,1.319-0.799,1.801-1.42c0.479-0.615,0.84-1.357,1.077-2.23
				c0.239-0.871,0.357-1.85,0.357-2.932c0-1.066-0.118-2.041-0.357-2.916c-0.236-0.877-0.597-1.627-1.077-2.248
				c-0.482-0.623-1.081-1.102-1.801-1.436c-0.721-0.336-1.562-0.506-2.524-0.506c-0.963,0-1.804,0.17-2.524,0.506
				c-0.719,0.334-1.32,0.812-1.8,1.436c-0.483,0.621-0.846,1.371-1.09,2.248c-0.241,0.875-0.364,1.85-0.364,2.916
				c0,1.082,0.123,2.061,0.364,2.932c0.244,0.873,0.606,1.615,1.09,2.23c0.479,0.621,1.081,1.092,1.8,1.42
				C136.269,201.268,137.109,201.43,138.073,201.43z"/>
			<path fill="#283A42" d="M166.218,202.436c-0.266,0-0.421-0.139-0.463-0.422l-0.164-2.547c-0.716,0.973-1.552,1.748-2.511,2.318
				c-0.959,0.572-2.034,0.865-3.225,0.865c-1.983,0-3.529-0.689-4.637-2.064c-1.11-1.375-1.666-3.432-1.666-6.182
				c0-1.18,0.153-2.279,0.462-3.307c0.307-1.021,0.763-1.906,1.363-2.66c0.602-0.75,1.34-1.342,2.212-1.775
				c0.871-0.43,1.877-0.65,3.012-0.65c1.093,0,2.042,0.207,2.843,0.609c0.803,0.41,1.498,1.002,2.08,1.781v-9.576h1.542v23.609
				H166.218z M160.295,201.397c1.071,0,2.04-0.271,2.906-0.828c0.867-0.551,1.641-1.316,2.324-2.303v-8.521
				c-0.626-0.916-1.318-1.566-2.071-1.943c-0.752-0.381-1.606-0.568-2.557-0.568c-0.955,0-1.79,0.172-2.505,0.52
				c-0.715,0.346-1.315,0.832-1.796,1.465c-0.482,0.637-0.843,1.395-1.087,2.271c-0.244,0.885-0.366,1.854-0.366,2.916
				c0,2.4,0.444,4.17,1.333,5.297C157.363,200.833,158.633,201.397,160.295,201.397z"/>
			<path fill="#283A42" d="M174.676,180.723c0,0.195-0.04,0.379-0.122,0.545c-0.08,0.17-0.186,0.316-0.315,0.445
				c-0.131,0.131-0.282,0.232-0.454,0.309s-0.358,0.117-0.552,0.117c-0.196,0-0.378-0.041-0.551-0.117
				c-0.175-0.076-0.326-0.178-0.456-0.309c-0.129-0.129-0.234-0.275-0.307-0.445c-0.076-0.166-0.114-0.35-0.114-0.545
				c0-0.193,0.038-0.381,0.114-0.555c0.073-0.182,0.178-0.336,0.307-0.467c0.13-0.125,0.281-0.23,0.456-0.309
				c0.172-0.072,0.355-0.113,0.551-0.113c0.194,0,0.379,0.041,0.552,0.113c0.172,0.078,0.323,0.184,0.454,0.309
				c0.13,0.131,0.235,0.285,0.315,0.467C174.637,180.342,174.676,180.53,174.676,180.723z M173.995,186.293v16.143h-1.54v-16.143
				H173.995z"/>
			<path fill="#283A42" d="M184.542,186.012c0.705,0,1.355,0.086,1.956,0.264c0.6,0.172,1.138,0.414,1.615,0.727h4.137v0.535
				c0,0.271-0.152,0.418-0.454,0.438l-2.451,0.18c0.303,0.414,0.536,0.875,0.698,1.391c0.162,0.512,0.245,1.062,0.245,1.643
				c0,0.783-0.142,1.484-0.423,2.121c-0.282,0.633-0.673,1.176-1.178,1.623c-0.501,0.445-1.104,0.795-1.809,1.047
				c-0.703,0.246-1.48,0.373-2.336,0.373c-0.932,0-1.773-0.143-2.53-0.422c-0.454,0.26-0.812,0.566-1.073,0.924
				c-0.256,0.357-0.387,0.701-0.387,1.039c0,0.463,0.16,0.822,0.484,1.07c0.328,0.248,0.757,0.43,1.292,0.543
				c0.537,0.113,1.148,0.188,1.834,0.219c0.686,0.033,1.383,0.07,2.094,0.105c0.707,0.041,1.405,0.105,2.091,0.203
				c0.689,0.102,1.3,0.268,1.834,0.512c0.534,0.244,0.967,0.584,1.291,1.021c0.325,0.439,0.486,1.023,0.486,1.744
				c0,0.674-0.167,1.314-0.502,1.932c-0.336,0.619-0.82,1.164-1.454,1.643c-0.633,0.475-1.398,0.852-2.294,1.143
				c-0.897,0.285-1.905,0.426-3.018,0.426c-1.138,0-2.133-0.113-2.986-0.348c-0.854-0.232-1.572-0.543-2.149-0.941
				c-0.578-0.389-1.014-0.848-1.306-1.371c-0.292-0.516-0.437-1.066-0.437-1.654c0-0.855,0.281-1.59,0.843-2.207
				c0.562-0.611,1.335-1.09,2.32-1.428c-0.542-0.182-0.972-0.445-1.291-0.795c-0.318-0.344-0.478-0.826-0.478-1.443
				c0-0.227,0.043-0.463,0.13-0.715c0.086-0.246,0.217-0.494,0.389-0.738c0.172-0.242,0.382-0.475,0.625-0.689
				c0.244-0.219,0.528-0.412,0.852-0.584c-0.77-0.441-1.367-1.033-1.792-1.771c-0.429-0.73-0.642-1.594-0.642-2.58
				c0-0.773,0.137-1.48,0.413-2.113c0.276-0.637,0.667-1.176,1.169-1.635c0.503-0.449,1.112-0.803,1.825-1.049
				C182.886,186.139,183.677,186.012,184.542,186.012z M190.53,203.522c0-0.506-0.13-0.916-0.396-1.225
				c-0.267-0.309-0.621-0.547-1.063-0.723c-0.444-0.17-0.956-0.291-1.534-0.359c-0.578-0.074-1.184-0.127-1.817-0.158
				c-0.633-0.033-1.268-0.066-1.908-0.098c-0.639-0.033-1.232-0.098-1.784-0.195c-0.411,0.162-0.792,0.354-1.144,0.561
				c-0.353,0.211-0.652,0.449-0.9,0.713c-0.252,0.264-0.446,0.557-0.584,0.877c-0.144,0.32-0.213,0.664-0.213,1.045
				c0,0.48,0.124,0.918,0.366,1.322c0.242,0.41,0.599,0.76,1.07,1.055c0.471,0.301,1.048,0.535,1.729,0.711
				c0.682,0.174,1.463,0.26,2.354,0.26c0.822,0,1.588-0.098,2.294-0.281c0.711-0.182,1.324-0.441,1.851-0.777
				c0.523-0.334,0.936-0.734,1.232-1.201C190.383,204.581,190.53,204.075,190.53,203.522z M184.542,195.293
				c0.692,0,1.311-0.098,1.849-0.297c0.542-0.199,0.997-0.479,1.365-0.84c0.368-0.352,0.646-0.777,0.835-1.277
				c0.189-0.498,0.286-1.051,0.286-1.654c0-0.609-0.097-1.164-0.295-1.668c-0.194-0.498-0.478-0.932-0.85-1.289
				c-0.375-0.354-0.829-0.633-1.365-0.828c-0.536-0.193-1.142-0.291-1.825-0.291c-0.679,0-1.293,0.098-1.832,0.291
				c-0.542,0.195-0.999,0.475-1.371,0.828c-0.374,0.357-0.656,0.791-0.854,1.289c-0.194,0.504-0.29,1.059-0.29,1.668
				c0,0.604,0.096,1.156,0.29,1.654c0.198,0.5,0.479,0.926,0.854,1.277c0.373,0.361,0.829,0.641,1.371,0.84
				C183.249,195.196,183.863,195.293,184.542,195.293z"/>
			<path fill="#283A42" d="M197.782,180.723c0,0.195-0.039,0.379-0.122,0.545c-0.08,0.17-0.186,0.316-0.316,0.445
				c-0.13,0.131-0.282,0.232-0.454,0.309c-0.173,0.076-0.357,0.117-0.551,0.117c-0.196,0-0.378-0.041-0.551-0.117
				c-0.175-0.076-0.326-0.178-0.457-0.309c-0.128-0.129-0.233-0.275-0.307-0.445c-0.075-0.166-0.111-0.35-0.111-0.545
				c0-0.193,0.036-0.381,0.111-0.555c0.074-0.182,0.179-0.336,0.307-0.467c0.131-0.125,0.282-0.23,0.457-0.309
				c0.172-0.072,0.355-0.113,0.551-0.113c0.194,0,0.378,0.041,0.551,0.113c0.172,0.078,0.324,0.184,0.454,0.309
				c0.131,0.131,0.236,0.285,0.316,0.467C197.743,180.342,197.782,180.53,197.782,180.723z M197.101,186.293v16.143h-1.54v-16.143
				H197.101z"/>
			<path fill="#283A42" d="M206.724,202.7c-1.094,0-1.943-0.309-2.549-0.914c-0.605-0.604-0.908-1.541-0.908-2.807v-11.031h-2.322
				c-0.118,0-0.214-0.033-0.29-0.098s-0.113-0.158-0.113-0.275v-0.6l2.759-0.195l0.385-5.779c0.01-0.094,0.053-0.184,0.12-0.26
				c0.072-0.078,0.164-0.113,0.282-0.113h0.722v6.164h5.079v1.156h-5.079v10.951c0,0.441,0.057,0.822,0.17,1.143
				c0.114,0.322,0.271,0.58,0.47,0.787c0.198,0.207,0.436,0.357,0.707,0.455c0.27,0.098,0.562,0.146,0.875,0.146
				c0.389,0,0.724-0.053,1.008-0.166c0.279-0.119,0.523-0.244,0.729-0.379c0.204-0.133,0.372-0.26,0.505-0.373
				c0.127-0.113,0.231-0.17,0.308-0.17c0.084,0,0.172,0.053,0.258,0.162l0.423,0.682c-0.413,0.455-0.934,0.82-1.566,1.096
				C208.062,202.557,207.405,202.7,206.724,202.7z"/>
			<path fill="#283A42" d="M223.713,202.436c-0.325,0-0.525-0.15-0.601-0.455l-0.227-2.061c-0.444,0.434-0.885,0.824-1.321,1.168
				c-0.441,0.35-0.897,0.641-1.373,0.877c-0.478,0.238-0.99,0.418-1.541,0.543c-0.552,0.125-1.157,0.191-1.817,0.191
				c-0.552,0-1.088-0.086-1.607-0.248c-0.517-0.162-0.98-0.414-1.38-0.746c-0.399-0.336-0.721-0.768-0.963-1.291
				c-0.243-0.521-0.366-1.154-0.366-1.889c0-0.682,0.194-1.314,0.585-1.898c0.387-0.584,0.997-1.092,1.825-1.525
				c0.828-0.434,1.894-0.779,3.197-1.037c1.302-0.26,2.869-0.414,4.699-0.455v-1.688c0-1.492-0.324-2.641-0.967-3.451
				c-0.644-0.803-1.599-1.205-2.864-1.205c-0.779,0-1.441,0.105-1.987,0.32c-0.546,0.219-1.008,0.455-1.388,0.719
				c-0.379,0.26-0.687,0.494-0.924,0.713c-0.239,0.215-0.437,0.324-0.602,0.324c-0.217,0-0.378-0.098-0.485-0.291l-0.276-0.475
				c0.844-0.844,1.729-1.48,2.661-1.914c0.93-0.43,1.983-0.65,3.163-0.65c0.865,0,1.625,0.139,2.272,0.418
				c0.649,0.271,1.187,0.67,1.614,1.186c0.428,0.51,0.749,1.131,0.965,1.865c0.217,0.73,0.325,1.541,0.325,2.441v10.514H223.713z
				 M217.221,201.575c0.626,0,1.204-0.064,1.727-0.197c0.526-0.139,1.014-0.33,1.462-0.572c0.45-0.244,0.868-0.531,1.257-0.869
				c0.389-0.336,0.773-0.697,1.155-1.086v-4.201c-1.54,0.043-2.86,0.158-3.971,0.348c-1.106,0.188-2.024,0.441-2.743,0.771
				c-0.717,0.324-1.249,0.709-1.59,1.156c-0.341,0.453-0.509,0.961-0.509,1.537c0,0.539,0.088,1.006,0.268,1.402
				c0.178,0.398,0.414,0.723,0.704,0.973c0.293,0.256,0.634,0.443,1.024,0.561C216.395,201.514,216.798,201.575,217.221,201.575z"/>
			<path fill="#283A42" d="M230.705,178.827v23.609h-1.541v-23.609H230.705z"/>
			<path fill="#283A42" d="M253.157,202.436c-0.269,0-0.424-0.139-0.467-0.422l-0.164-2.547c-0.713,0.973-1.549,1.748-2.509,2.318
				c-0.957,0.572-2.034,0.865-3.224,0.865c-1.981,0-3.529-0.689-4.64-2.064c-1.11-1.375-1.665-3.432-1.665-6.182
				c0-1.18,0.155-2.279,0.462-3.307c0.312-1.021,0.766-1.906,1.367-2.66c0.603-0.75,1.339-1.342,2.208-1.775
				c0.873-0.43,1.878-0.65,3.016-0.65c1.092,0,2.04,0.207,2.844,0.609c0.799,0.41,1.494,1.002,2.078,1.781v-9.576h1.542v23.609
				H253.157z M247.231,201.397c1.072,0,2.042-0.271,2.91-0.828c0.865-0.551,1.641-1.316,2.322-2.303v-8.521
				c-0.626-0.916-1.318-1.566-2.071-1.943c-0.753-0.381-1.605-0.568-2.56-0.568c-0.955,0-1.788,0.172-2.503,0.52
				c-0.715,0.346-1.312,0.832-1.796,1.465c-0.483,0.637-0.846,1.395-1.089,2.271c-0.244,0.885-0.364,1.854-0.364,2.916
				c0,2.4,0.444,4.17,1.332,5.297C244.299,200.833,245.573,201.397,247.231,201.397z"/>
			<path fill="#283A42" d="M265.023,186.03c0.909,0,1.75,0.158,2.524,0.471c0.774,0.316,1.443,0.773,2.011,1.375
				c0.568,0.596,1.014,1.338,1.332,2.213c0.319,0.877,0.479,1.883,0.479,3.018c0,0.236-0.036,0.402-0.105,0.488
				c-0.069,0.084-0.183,0.129-0.335,0.129h-11.649v0.309c0,1.209,0.141,2.275,0.423,3.195c0.282,0.922,0.682,1.691,1.2,2.312
				c0.519,0.625,1.148,1.092,1.882,1.402c0.736,0.316,1.559,0.471,2.467,0.471c0.812,0,1.514-0.088,2.109-0.268
				c0.595-0.178,1.096-0.377,1.5-0.6c0.409-0.223,0.728-0.418,0.967-0.6c0.238-0.18,0.413-0.268,0.518-0.268
				c0.143,0,0.25,0.053,0.326,0.162l0.423,0.518c-0.261,0.326-0.601,0.629-1.03,0.914c-0.429,0.279-0.904,0.518-1.431,0.717
				c-0.523,0.203-1.085,0.361-1.686,0.479c-0.6,0.123-1.204,0.184-1.809,0.184c-1.104,0-2.109-0.195-3.018-0.58
				c-0.91-0.381-1.689-0.941-2.339-1.68c-0.65-0.734-1.155-1.635-1.508-2.701c-0.358-1.066-0.534-2.287-0.534-3.658
				c0-1.156,0.164-2.227,0.497-3.205c0.328-0.98,0.803-1.824,1.426-2.529c0.623-0.711,1.386-1.266,2.288-1.664
				C262.853,186.233,263.878,186.03,265.023,186.03z M265.049,187.18c-0.833,0-1.578,0.135-2.238,0.395
				c-0.658,0.26-1.228,0.629-1.708,1.115c-0.481,0.486-0.871,1.07-1.169,1.756c-0.295,0.682-0.493,1.443-0.589,2.283h10.627
				c0-0.859-0.119-1.639-0.356-2.324c-0.24-0.689-0.572-1.27-1.004-1.748c-0.434-0.475-0.951-0.834-1.557-1.09
				C266.451,187.311,265.781,187.18,265.049,187.18z"/>
			<path fill="#283A42" d="M292.262,202.436c-0.268,0-0.423-0.139-0.465-0.422l-0.165-2.547c-0.715,0.973-1.551,1.748-2.511,2.318
				c-0.955,0.572-2.032,0.865-3.222,0.865c-1.983,0-3.529-0.689-4.639-2.064c-1.111-1.375-1.666-3.432-1.666-6.182
				c0-1.18,0.155-2.279,0.462-3.307c0.31-1.021,0.766-1.906,1.365-2.66c0.601-0.75,1.337-1.342,2.21-1.775
				c0.871-0.43,1.876-0.65,3.015-0.65c1.093,0,2.042,0.207,2.843,0.609c0.801,0.41,1.495,1.002,2.08,1.781v-9.576h1.542v23.609
				H292.262z M286.337,201.397c1.072,0,2.039-0.271,2.908-0.828c0.865-0.551,1.643-1.316,2.324-2.303v-8.521
				c-0.628-0.916-1.318-1.566-2.071-1.943c-0.755-0.381-1.609-0.568-2.56-0.568c-0.955,0-1.788,0.172-2.502,0.52
				c-0.716,0.346-1.315,0.832-1.796,1.465c-0.484,0.637-0.846,1.395-1.089,2.271c-0.244,0.885-0.366,1.854-0.366,2.916
				c0,2.4,0.446,4.17,1.333,5.297C283.405,200.833,284.678,201.397,286.337,201.397z"/>
			<path fill="#283A42" d="M304.192,186.03c1.159,0,2.196,0.197,3.109,0.592c0.913,0.396,1.684,0.957,2.314,1.684
				c0.626,0.725,1.103,1.598,1.434,2.619c0.331,1.023,0.497,2.166,0.497,3.428c0,1.27-0.167,2.408-0.497,3.428
				c-0.331,1.018-0.807,1.885-1.434,2.611c-0.63,0.727-1.401,1.281-2.314,1.672c-0.913,0.389-1.95,0.588-3.109,0.588
				c-1.156,0-2.191-0.199-3.105-0.588c-0.916-0.391-1.689-0.945-2.32-1.672c-0.636-0.727-1.114-1.594-1.445-2.611
				c-0.331-1.02-0.495-2.158-0.495-3.428c0-1.262,0.164-2.404,0.495-3.428c0.331-1.021,0.809-1.895,1.445-2.619
				c0.631-0.727,1.404-1.287,2.32-1.684C302.001,186.227,303.037,186.03,304.192,186.03z M304.192,201.43
				c0.963,0,1.805-0.162,2.524-0.496c0.72-0.328,1.321-0.799,1.801-1.42c0.484-0.615,0.84-1.357,1.081-2.23
				c0.235-0.871,0.358-1.85,0.358-2.932c0-1.066-0.123-2.041-0.358-2.916c-0.241-0.877-0.597-1.627-1.081-2.248
				c-0.479-0.623-1.081-1.102-1.801-1.436c-0.719-0.336-1.561-0.506-2.524-0.506s-1.804,0.17-2.523,0.506
				c-0.719,0.334-1.318,0.812-1.8,1.436c-0.48,0.621-0.844,1.371-1.085,2.248c-0.245,0.875-0.366,1.85-0.366,2.916
				c0,1.082,0.122,2.061,0.366,2.932c0.241,0.873,0.605,1.615,1.085,2.23c0.481,0.621,1.081,1.092,1.8,1.42
				C302.389,201.268,303.229,201.43,304.192,201.43z"/>
			<path fill="#283A42" d="M321.197,186.03c0.911,0,1.752,0.158,2.524,0.471c0.773,0.316,1.445,0.773,2.013,1.375
				c0.568,0.596,1.01,1.338,1.329,2.213c0.32,0.877,0.48,1.883,0.48,3.018c0,0.236-0.037,0.402-0.105,0.488
				c-0.072,0.084-0.181,0.129-0.333,0.129h-11.652v0.309c0,1.209,0.143,2.275,0.423,3.195c0.282,0.922,0.679,1.691,1.202,2.312
				c0.517,0.625,1.146,1.092,1.882,1.402c0.734,0.316,1.559,0.471,2.465,0.471c0.812,0,1.516-0.088,2.109-0.268
				c0.595-0.178,1.098-0.377,1.501-0.6c0.407-0.223,0.728-0.418,0.965-0.6c0.238-0.18,0.413-0.268,0.52-0.268
				c0.14,0,0.248,0.053,0.324,0.162l0.423,0.518c-0.259,0.326-0.604,0.629-1.03,0.914c-0.428,0.279-0.902,0.518-1.429,0.717
				c-0.525,0.203-1.087,0.361-1.686,0.479c-0.603,0.123-1.204,0.184-1.809,0.184c-1.104,0-2.111-0.195-3.02-0.58
				c-0.91-0.381-1.689-0.941-2.339-1.68c-0.652-0.734-1.153-1.635-1.51-2.701c-0.354-1.066-0.532-2.287-0.532-3.658
				c0-1.156,0.166-2.227,0.494-3.205c0.333-0.98,0.808-1.824,1.429-2.529c0.625-0.711,1.386-1.266,2.291-1.664
				C319.026,186.233,320.051,186.03,321.197,186.03z M321.22,187.18c-0.832,0-1.576,0.135-2.234,0.395
				c-0.66,0.26-1.228,0.629-1.711,1.115c-0.48,0.486-0.867,1.07-1.166,1.756c-0.298,0.682-0.492,1.443-0.59,2.283h10.626
				c0-0.859-0.118-1.639-0.355-2.324c-0.237-0.689-0.572-1.27-1.006-1.748c-0.431-0.475-0.948-0.834-1.553-1.09
				C322.625,187.311,321.956,187.18,321.22,187.18z"/>
			<path fill="#283A42" d="M331.21,202.436v-16.143h0.846c0.278,0,0.441,0.133,0.485,0.4l0.145,2.438
				c0.736-0.932,1.592-1.682,2.573-2.246c0.978-0.568,2.067-0.855,3.27-0.855c0.885,0,1.666,0.141,2.343,0.422
				c0.677,0.279,1.236,0.689,1.68,1.221c0.444,0.527,0.78,1.164,1.007,1.914c0.225,0.746,0.339,1.59,0.339,2.531v10.318h-1.542
				v-10.318c0-1.514-0.345-2.701-1.036-3.566c-0.692-0.859-1.752-1.285-3.183-1.285c-1.06,0-2.044,0.271-2.953,0.814
				c-0.908,0.549-1.721,1.299-2.436,2.252v12.104H331.21z"/>
			<path fill="#283A42" d="M352.027,206.864c0.055,0,0.129,0.033,0.219,0.094c0.092,0.057,0.212,0.121,0.356,0.191
				c0.148,0.072,0.329,0.137,0.546,0.197c0.216,0.059,0.481,0.086,0.795,0.086c0.55,0,0.981-0.117,1.289-0.357
				c0.309-0.234,0.462-0.562,0.462-0.973c0-0.268-0.069-0.494-0.21-0.674c-0.141-0.178-0.341-0.328-0.601-0.445
				c-0.259-0.117-0.564-0.211-0.917-0.275c-0.35-0.066-0.739-0.127-1.159-0.18l0.599-1.914c-0.943-0.064-1.801-0.301-2.579-0.705
				c-0.781-0.406-1.449-0.961-2.004-1.664c-0.558-0.701-0.989-1.549-1.289-2.539c-0.306-0.988-0.458-2.104-0.458-3.354
				c0-1.229,0.162-2.352,0.489-3.371c0.323-1.018,0.797-1.895,1.419-2.627c0.623-0.738,1.384-1.311,2.288-1.713
				c0.902-0.404,1.939-0.611,3.109-0.611c1.047,0,1.981,0.166,2.797,0.506c0.816,0.334,1.527,0.787,2.134,1.363l-0.405,0.551
				c-0.055,0.053-0.105,0.098-0.156,0.135c-0.045,0.041-0.116,0.057-0.202,0.057c-0.107,0-0.257-0.068-0.446-0.219
				c-0.188-0.143-0.441-0.305-0.754-0.475c-0.313-0.174-0.705-0.332-1.176-0.482c-0.47-0.143-1.04-0.219-1.711-0.219
				c-0.93,0-1.756,0.166-2.475,0.498c-0.72,0.328-1.327,0.799-1.817,1.42c-0.491,0.613-0.869,1.363-1.128,2.238
				c-0.258,0.873-0.389,1.861-0.389,2.949c0,1.139,0.133,2.145,0.396,3.021c0.265,0.877,0.644,1.615,1.129,2.215
				s1.077,1.059,1.769,1.371c0.692,0.316,1.46,0.471,2.306,0.471c0.778,0,1.43-0.09,1.953-0.277c0.524-0.186,0.957-0.385,1.298-0.6
				c0.34-0.215,0.61-0.414,0.812-0.6c0.202-0.184,0.362-0.275,0.479-0.275c0.141,0,0.248,0.053,0.324,0.162l0.422,0.518
				c-0.485,0.629-1.184,1.152-2.086,1.574c-0.901,0.422-1.929,0.658-3.072,0.701l-0.392,1.279c0.963,0.174,1.696,0.426,2.201,0.746
				c0.501,0.324,0.752,0.807,0.752,1.443c0,0.324-0.071,0.617-0.218,0.875c-0.147,0.264-0.352,0.48-0.617,0.658
				s-0.583,0.316-0.948,0.414c-0.371,0.098-0.771,0.145-1.204,0.145c-0.443,0-0.875-0.061-1.298-0.182
				c-0.423-0.129-0.772-0.297-1.054-0.498l0.162-0.455C351.833,206.934,351.919,206.864,352.027,206.864z"/>
			<path fill="#283A42" d="M372.86,202.436c-0.324,0-0.525-0.15-0.598-0.455l-0.229-2.061c-0.443,0.434-0.885,0.824-1.324,1.168
				c-0.438,0.35-0.891,0.641-1.365,0.877c-0.479,0.238-0.992,0.418-1.545,0.543s-1.162,0.191-1.818,0.191
				c-0.551,0-1.084-0.086-1.605-0.248c-0.52-0.162-0.982-0.414-1.379-0.746c-0.402-0.336-0.723-0.768-0.971-1.291
				c-0.238-0.521-0.359-1.154-0.359-1.889c0-0.682,0.193-1.314,0.584-1.898c0.389-0.584,0.996-1.092,1.824-1.525
				s1.893-0.779,3.195-1.037c1.305-0.26,2.869-0.414,4.697-0.455v-1.688c0-1.492-0.32-2.641-0.965-3.451
				c-0.641-0.803-1.598-1.205-2.863-1.205c-0.779,0-1.443,0.105-1.988,0.32c-0.547,0.219-1.01,0.455-1.387,0.719
				c-0.379,0.26-0.689,0.494-0.924,0.713c-0.24,0.215-0.439,0.324-0.602,0.324c-0.217,0-0.379-0.098-0.486-0.291l-0.275-0.475
				c0.842-0.844,1.732-1.48,2.66-1.914c0.93-0.43,1.984-0.65,3.166-0.65c0.865,0,1.621,0.139,2.271,0.418
				c0.646,0.271,1.186,0.67,1.611,1.186c0.428,0.51,0.75,1.131,0.967,1.865c0.219,0.73,0.328,1.541,0.328,2.441v10.514H372.86z
				 M366.372,201.575c0.625,0,1.203-0.064,1.727-0.197c0.523-0.139,1.014-0.33,1.461-0.572c0.447-0.244,0.871-0.531,1.256-0.869
				c0.391-0.336,0.775-0.697,1.152-1.086v-4.201c-1.533,0.043-2.855,0.158-3.967,0.348c-1.109,0.188-2.023,0.441-2.742,0.771
				c-0.721,0.324-1.248,0.709-1.59,1.156c-0.34,0.453-0.51,0.961-0.51,1.537c0,0.539,0.088,1.006,0.268,1.402
				c0.178,0.398,0.414,0.723,0.705,0.973c0.293,0.256,0.633,0.443,1.021,0.561C365.543,201.514,365.948,201.575,366.372,201.575z"/>
			<path fill="#283A42" d="M386.756,188.288c-0.08,0.15-0.197,0.229-0.361,0.229c-0.117,0-0.273-0.07-0.461-0.203
				c-0.189-0.139-0.439-0.289-0.748-0.455c-0.309-0.17-0.686-0.32-1.137-0.457c-0.449-0.135-0.996-0.203-1.646-0.203
				c-0.584,0-1.115,0.084-1.598,0.252c-0.48,0.17-0.893,0.396-1.232,0.676c-0.342,0.281-0.607,0.605-0.795,0.982
				c-0.188,0.373-0.285,0.766-0.285,1.172c0,0.512,0.131,0.934,0.391,1.266c0.26,0.34,0.598,0.625,1.021,0.863
				c0.422,0.236,0.9,0.443,1.436,0.617c0.535,0.17,1.084,0.344,1.646,0.52c0.562,0.174,1.111,0.365,1.646,0.576
				c0.537,0.211,1.016,0.475,1.438,0.781c0.422,0.316,0.762,0.703,1.021,1.156c0.262,0.455,0.389,1.006,0.389,1.654
				c0,0.703-0.125,1.359-0.381,1.965c-0.252,0.604-0.621,1.131-1.104,1.572c-0.479,0.447-1.072,0.795-1.775,1.055
				s-1.504,0.395-2.402,0.395c-1.135,0-2.113-0.188-2.936-0.549c-0.824-0.361-1.559-0.83-2.207-1.42l0.373-0.547
				c0.055-0.09,0.113-0.154,0.18-0.199c0.064-0.043,0.156-0.064,0.275-0.064c0.137,0,0.312,0.086,0.52,0.264
				c0.203,0.17,0.469,0.357,0.803,0.557c0.328,0.197,0.742,0.389,1.232,0.559c0.492,0.174,1.104,0.26,1.826,0.26
				c0.68,0,1.281-0.094,1.801-0.283c0.518-0.191,0.951-0.447,1.297-0.771c0.35-0.32,0.609-0.705,0.789-1.143
				c0.176-0.439,0.266-0.9,0.266-1.389c0-0.539-0.129-0.992-0.389-1.346c-0.256-0.357-0.602-0.662-1.023-0.908
				c-0.422-0.252-0.9-0.459-1.436-0.633c-0.533-0.174-1.086-0.346-1.654-0.52s-1.119-0.365-1.654-0.568
				c-0.535-0.207-1.014-0.467-1.436-0.777c-0.422-0.316-0.764-0.699-1.023-1.145c-0.26-0.451-0.387-1.01-0.387-1.68
				c0-0.572,0.121-1.127,0.371-1.658c0.25-0.527,0.602-0.99,1.062-1.395c0.459-0.398,1.018-0.719,1.682-0.953
				c0.654-0.24,1.396-0.361,2.221-0.361c0.984,0,1.859,0.141,2.619,0.422c0.764,0.279,1.463,0.713,2.102,1.301L386.756,188.288z"/>
			<path fill="#283A42" d="M397.104,208.147v-21.854h0.842c0.143,0,0.256,0.027,0.34,0.088c0.09,0.057,0.137,0.162,0.146,0.312
				l0.148,2.504c0.715-0.975,1.551-1.748,2.506-2.32c0.957-0.572,2.031-0.865,3.223-0.865c1.99,0,3.537,0.689,4.641,2.064
				c1.104,1.371,1.654,3.432,1.654,6.178c0,1.18-0.154,2.283-0.463,3.307c-0.307,1.021-0.758,1.906-1.354,2.66
				c-0.596,0.75-1.326,1.342-2.201,1.775c-0.869,0.432-1.871,0.654-3.01,0.654c-1.105,0-2.059-0.207-2.854-0.605
				c-0.803-0.396-1.492-0.998-2.078-1.783v7.885H397.104z M403.87,187.266c-1.068,0-2.043,0.275-2.914,0.832
				c-0.869,0.555-1.639,1.334-2.311,2.332v8.469c0.617,0.928,1.301,1.586,2.053,1.963c0.752,0.381,1.607,0.568,2.574,0.568
				c0.947,0,1.781-0.172,2.498-0.52c0.711-0.35,1.311-0.832,1.791-1.469c0.48-0.633,0.846-1.391,1.088-2.271
				c0.244-0.879,0.365-1.854,0.365-2.916c0-2.396-0.441-4.166-1.322-5.293C406.809,187.831,405.534,187.266,403.87,187.266z"/>
			<path fill="#283A42" d="M424.28,202.436c-0.324,0-0.521-0.15-0.596-0.455l-0.23-2.061c-0.447,0.434-0.885,0.824-1.32,1.168
				c-0.439,0.35-0.895,0.641-1.371,0.877c-0.48,0.238-0.992,0.418-1.541,0.543c-0.555,0.125-1.158,0.191-1.818,0.191
				c-0.553,0-1.088-0.086-1.607-0.248s-0.98-0.414-1.379-0.746c-0.398-0.336-0.723-0.768-0.967-1.291
				c-0.246-0.521-0.363-1.154-0.363-1.889c0-0.682,0.193-1.314,0.582-1.898c0.391-0.584,1-1.092,1.828-1.525
				c0.822-0.434,1.889-0.779,3.195-1.037c1.301-0.26,2.867-0.414,4.697-0.455v-1.688c0-1.492-0.326-2.641-0.967-3.451
				c-0.643-0.803-1.598-1.205-2.861-1.205c-0.779,0-1.441,0.105-1.988,0.32c-0.547,0.219-1.008,0.455-1.387,0.719
				c-0.383,0.26-0.688,0.494-0.926,0.713c-0.238,0.215-0.439,0.324-0.6,0.324c-0.215,0-0.381-0.098-0.486-0.291l-0.277-0.475
				c0.84-0.844,1.732-1.48,2.664-1.914c0.926-0.43,1.982-0.65,3.16-0.65c0.867,0,1.623,0.139,2.271,0.418
				c0.652,0.271,1.189,0.67,1.615,1.186c0.426,0.51,0.75,1.131,0.963,1.865c0.221,0.73,0.328,1.541,0.328,2.441v10.514H424.28z
				 M417.792,201.575c0.625,0,1.203-0.064,1.73-0.197c0.523-0.139,1.01-0.33,1.457-0.572c0.447-0.244,0.867-0.531,1.26-0.869
				c0.389-0.336,0.768-0.697,1.15-1.086v-4.201c-1.537,0.043-2.857,0.158-3.967,0.348c-1.111,0.188-2.025,0.441-2.742,0.771
				c-0.719,0.324-1.25,0.709-1.592,1.156c-0.342,0.453-0.51,0.961-0.51,1.537c0,0.539,0.09,1.006,0.264,1.402
				c0.184,0.398,0.418,0.723,0.711,0.973c0.291,0.256,0.633,0.443,1.021,0.561S417.368,201.575,417.792,201.575z"/>
			<path fill="#283A42" d="M429.282,202.436v-16.143h0.807c0.188,0,0.32,0.035,0.402,0.113c0.08,0.072,0.125,0.203,0.137,0.385
				l0.129,3.412c0.518-1.311,1.215-2.338,2.076-3.08c0.865-0.738,1.934-1.111,3.197-1.111c0.488,0,0.938,0.053,1.348,0.154
				c0.41,0.105,0.799,0.256,1.168,0.447l-0.209,1.07c-0.035,0.174-0.145,0.264-0.326,0.264c-0.064,0-0.158-0.025-0.275-0.064
				c-0.121-0.045-0.268-0.094-0.447-0.15c-0.178-0.053-0.396-0.102-0.656-0.146c-0.262-0.041-0.557-0.061-0.893-0.061
				c-1.221,0-2.225,0.377-3.012,1.131c-0.783,0.764-1.42,1.854-1.904,3.281v10.498H429.282z"/>
			<path fill="#283A42" d="M451.167,202.436c-0.32,0-0.521-0.15-0.596-0.455l-0.23-2.061c-0.443,0.434-0.883,0.824-1.322,1.168
				c-0.438,0.35-0.893,0.641-1.371,0.877c-0.479,0.238-0.99,0.418-1.541,0.543c-0.553,0.125-1.16,0.191-1.816,0.191
				c-0.551,0-1.088-0.086-1.607-0.248s-0.979-0.414-1.379-0.746c-0.402-0.336-0.723-0.768-0.967-1.291
				c-0.242-0.521-0.363-1.154-0.363-1.889c0-0.682,0.195-1.314,0.584-1.898c0.387-0.584,0.998-1.092,1.822-1.525
				c0.83-0.434,1.896-0.779,3.199-1.037c1.305-0.26,2.869-0.414,4.697-0.455v-1.688c0-1.492-0.32-2.641-0.963-3.451
				c-0.646-0.803-1.602-1.205-2.865-1.205c-0.777,0-1.445,0.105-1.988,0.32c-0.547,0.219-1.01,0.455-1.389,0.719
				c-0.377,0.26-0.684,0.494-0.924,0.713c-0.24,0.215-0.438,0.324-0.6,0.324c-0.215,0-0.377-0.098-0.484-0.291l-0.281-0.475
				c0.846-0.844,1.734-1.48,2.664-1.914c0.928-0.43,1.984-0.65,3.162-0.65c0.867,0,1.627,0.139,2.271,0.418
				c0.654,0.271,1.189,0.67,1.615,1.186c0.43,0.51,0.75,1.131,0.965,1.865c0.217,0.73,0.324,1.541,0.324,2.441v10.514H451.167z
				 M444.678,201.575c0.629,0,1.205-0.064,1.727-0.197c0.527-0.139,1.014-0.33,1.463-0.572c0.449-0.244,0.867-0.531,1.256-0.869
				c0.391-0.336,0.773-0.697,1.152-1.086v-4.201c-1.533,0.043-2.857,0.158-3.967,0.348c-1.107,0.188-2.025,0.441-2.744,0.771
				c-0.717,0.324-1.25,0.709-1.59,1.156c-0.34,0.453-0.51,0.961-0.51,1.537c0,0.539,0.09,1.006,0.268,1.402
				c0.18,0.398,0.414,0.723,0.707,0.973c0.291,0.256,0.631,0.443,1.02,0.561C443.85,201.514,444.256,201.575,444.678,201.575z"/>
			<path fill="#283A42" d="M468.028,186.03c0.908,0,1.752,0.158,2.525,0.471c0.771,0.316,1.441,0.773,2.014,1.375
				c0.562,0.596,1.008,1.338,1.33,2.213c0.316,0.877,0.479,1.883,0.479,3.018c0,0.236-0.037,0.402-0.105,0.488
				c-0.074,0.084-0.184,0.129-0.332,0.129h-11.654v0.309c0,1.209,0.139,2.275,0.422,3.195c0.281,0.922,0.682,1.691,1.201,2.312
				c0.521,0.625,1.146,1.092,1.885,1.402c0.734,0.316,1.559,0.471,2.467,0.471c0.809,0,1.514-0.088,2.105-0.268
				c0.598-0.178,1.098-0.377,1.502-0.6s0.729-0.418,0.969-0.6c0.234-0.18,0.408-0.268,0.52-0.268c0.137,0,0.246,0.053,0.322,0.162
				l0.424,0.518c-0.262,0.326-0.605,0.629-1.031,0.914c-0.43,0.279-0.904,0.518-1.43,0.717c-0.523,0.203-1.086,0.361-1.686,0.479
				c-0.604,0.123-1.203,0.184-1.812,0.184c-1.102,0-2.109-0.195-3.018-0.58c-0.906-0.381-1.688-0.941-2.338-1.68
				c-0.65-0.734-1.154-1.635-1.512-2.701c-0.354-1.066-0.531-2.287-0.531-3.658c0-1.156,0.164-2.227,0.496-3.205
				c0.332-0.98,0.805-1.824,1.428-2.529c0.621-0.711,1.383-1.266,2.287-1.664C465.858,186.233,466.881,186.03,468.028,186.03z
				 M468.051,187.18c-0.828,0-1.576,0.135-2.234,0.395c-0.66,0.26-1.229,0.629-1.707,1.115c-0.482,0.486-0.871,1.07-1.168,1.756
				c-0.297,0.682-0.494,1.443-0.592,2.283h10.629c0-0.859-0.121-1.639-0.355-2.324c-0.238-0.689-0.576-1.27-1.006-1.748
				c-0.432-0.475-0.951-0.834-1.555-1.09C469.456,187.311,468.786,187.18,468.051,187.18z"/>
			<path fill="#283A42" d="M483.704,202.436h-1.363l-6.812-16.143h1.215c0.15,0,0.273,0.039,0.365,0.121
				c0.09,0.082,0.158,0.17,0.201,0.264l5.324,12.74c0.105,0.246,0.186,0.486,0.24,0.717c0.055,0.223,0.107,0.451,0.162,0.678
				c0.057-0.227,0.113-0.455,0.172-0.686c0.061-0.234,0.139-0.471,0.236-0.709l5.354-12.74c0.057-0.117,0.129-0.211,0.219-0.283
				c0.092-0.07,0.205-0.102,0.334-0.102h1.168L483.704,202.436z"/>
			<path fill="#283A42" d="M498.858,186.03c0.91,0,1.75,0.158,2.525,0.471c0.771,0.316,1.439,0.773,2.008,1.375
				c0.568,0.596,1.014,1.338,1.334,2.213c0.32,0.877,0.479,1.883,0.479,3.018c0,0.236-0.031,0.402-0.105,0.488
				c-0.072,0.084-0.182,0.129-0.332,0.129h-11.652v0.309c0,1.209,0.139,2.275,0.422,3.195c0.279,0.922,0.684,1.691,1.201,2.312
				c0.518,0.625,1.146,1.092,1.881,1.402c0.738,0.316,1.561,0.471,2.469,0.471c0.812,0,1.514-0.088,2.109-0.268
				c0.594-0.178,1.096-0.377,1.502-0.6s0.727-0.418,0.965-0.6c0.236-0.18,0.41-0.268,0.52-0.268c0.139,0,0.248,0.053,0.32,0.162
				l0.422,0.518c-0.256,0.326-0.6,0.629-1.025,0.914c-0.432,0.279-0.904,0.518-1.428,0.717c-0.527,0.203-1.088,0.361-1.689,0.479
				c-0.6,0.123-1.203,0.184-1.809,0.184c-1.105,0-2.111-0.195-3.021-0.58c-0.908-0.381-1.686-0.941-2.336-1.68
				c-0.65-0.734-1.154-1.635-1.51-2.701s-0.533-2.287-0.533-3.658c0-1.156,0.166-2.227,0.494-3.205
				c0.33-0.98,0.807-1.824,1.428-2.529c0.625-0.711,1.387-1.266,2.287-1.664C496.686,186.233,497.713,186.03,498.858,186.03z
				 M498.881,187.18c-0.832,0-1.578,0.135-2.234,0.395c-0.658,0.26-1.23,0.629-1.709,1.115c-0.482,0.486-0.871,1.07-1.168,1.756
				c-0.295,0.682-0.494,1.443-0.59,2.283h10.629c0-0.859-0.117-1.639-0.361-2.324c-0.234-0.689-0.572-1.27-1.002-1.748
				c-0.434-0.475-0.949-0.834-1.555-1.09S499.62,187.18,498.881,187.18z"/>
			<path fill="#283A42" d="M508.872,202.436v-16.143h0.842c0.281,0,0.443,0.133,0.484,0.4l0.148,2.438
				c0.734-0.932,1.596-1.682,2.572-2.246c0.982-0.568,2.068-0.855,3.27-0.855c0.889,0,1.666,0.141,2.344,0.422
				c0.678,0.279,1.236,0.689,1.68,1.221c0.445,0.527,0.777,1.164,1.006,1.914c0.227,0.746,0.344,1.59,0.344,2.531v10.318h-1.541
				v-10.318c0-1.514-0.348-2.701-1.043-3.566c-0.693-0.859-1.752-1.285-3.18-1.285c-1.062,0-2.043,0.271-2.951,0.814
				c-0.91,0.549-1.721,1.299-2.434,2.252v12.104H508.872z"/>
			<path fill="#283A42" d="M530.338,202.7c-1.096,0-1.943-0.309-2.547-0.914c-0.604-0.604-0.908-1.541-0.908-2.807v-11.031h-2.32
				c-0.121,0-0.219-0.033-0.293-0.098c-0.076-0.064-0.113-0.158-0.113-0.275v-0.6l2.758-0.195l0.387-5.779
				c0.008-0.094,0.049-0.184,0.117-0.26c0.068-0.078,0.162-0.113,0.283-0.113h0.723v6.164h5.078v1.156h-5.078v10.951
				c0,0.441,0.057,0.822,0.17,1.143c0.113,0.322,0.271,0.58,0.471,0.787s0.434,0.357,0.705,0.455
				c0.268,0.098,0.561,0.146,0.877,0.146c0.389,0,0.727-0.053,1.006-0.166c0.279-0.119,0.523-0.244,0.73-0.379
				c0.207-0.133,0.373-0.26,0.502-0.373c0.131-0.113,0.232-0.17,0.309-0.17c0.086,0,0.174,0.053,0.26,0.162l0.422,0.682
				c-0.41,0.455-0.934,0.82-1.566,1.096S531.02,202.7,530.338,202.7z"/>
			<path fill="#283A42" d="M543.172,186.03c1.154,0,2.189,0.197,3.109,0.592c0.914,0.396,1.68,0.957,2.309,1.684
				c0.629,0.725,1.107,1.598,1.439,2.619c0.328,1.023,0.49,2.166,0.49,3.428c0,1.27-0.162,2.408-0.49,3.428
				c-0.332,1.018-0.811,1.885-1.439,2.611s-1.395,1.281-2.309,1.672c-0.92,0.389-1.955,0.588-3.109,0.588
				c-1.16,0-2.195-0.199-3.107-0.588c-0.912-0.391-1.691-0.945-2.32-1.672c-0.633-0.727-1.115-1.594-1.447-2.611
				c-0.33-1.02-0.496-2.158-0.496-3.428c0-1.262,0.166-2.404,0.496-3.428c0.332-1.021,0.814-1.895,1.447-2.619
				c0.629-0.727,1.408-1.287,2.32-1.684C540.977,186.227,542.012,186.03,543.172,186.03z M543.172,201.43
				c0.965,0,1.805-0.162,2.521-0.496c0.719-0.328,1.318-0.799,1.801-1.42c0.482-0.615,0.844-1.357,1.08-2.23
				c0.238-0.871,0.355-1.85,0.355-2.932c0-1.066-0.117-2.041-0.355-2.916c-0.236-0.877-0.598-1.627-1.08-2.248
				c-0.482-0.623-1.082-1.102-1.801-1.436c-0.717-0.336-1.557-0.506-2.521-0.506c-0.963,0-1.807,0.17-2.523,0.506
				c-0.723,0.334-1.322,0.812-1.801,1.436c-0.482,0.621-0.844,1.371-1.088,2.248c-0.242,0.875-0.365,1.85-0.365,2.916
				c0,1.082,0.123,2.061,0.365,2.932c0.244,0.873,0.605,1.615,1.088,2.23c0.479,0.621,1.078,1.092,1.801,1.42
				C541.366,201.268,542.209,201.43,543.172,201.43z"/>
			<path fill="#283A42" d="M562.985,188.288c-0.078,0.15-0.195,0.229-0.357,0.229c-0.117,0-0.271-0.07-0.459-0.203
				c-0.193-0.139-0.441-0.289-0.75-0.455c-0.309-0.17-0.689-0.32-1.135-0.457c-0.451-0.135-0.998-0.203-1.646-0.203
				c-0.584,0-1.115,0.084-1.598,0.252c-0.484,0.17-0.893,0.396-1.234,0.676c-0.34,0.281-0.607,0.605-0.795,0.982
				c-0.189,0.373-0.283,0.766-0.283,1.172c0,0.512,0.129,0.934,0.385,1.266c0.264,0.34,0.605,0.625,1.021,0.863
				c0.426,0.236,0.906,0.443,1.441,0.617c0.535,0.17,1.082,0.344,1.646,0.52c0.562,0.174,1.111,0.365,1.646,0.576
				s1.014,0.475,1.436,0.781c0.422,0.316,0.762,0.703,1.021,1.156c0.26,0.455,0.391,1.006,0.391,1.654
				c0,0.703-0.127,1.359-0.383,1.965c-0.25,0.604-0.619,1.131-1.102,1.572c-0.484,0.447-1.072,0.795-1.777,1.055
				c-0.701,0.26-1.504,0.395-2.4,0.395c-1.137,0-2.113-0.188-2.941-0.549c-0.818-0.361-1.553-0.83-2.201-1.42l0.373-0.547
				c0.053-0.09,0.113-0.154,0.178-0.199c0.061-0.043,0.154-0.064,0.271-0.064c0.143,0,0.316,0.086,0.523,0.264
				c0.207,0.17,0.471,0.357,0.799,0.557c0.332,0.197,0.742,0.389,1.232,0.559c0.496,0.174,1.107,0.26,1.83,0.26
				c0.682,0,1.277-0.094,1.801-0.283c0.516-0.191,0.949-0.447,1.297-0.771c0.346-0.32,0.609-0.705,0.787-1.143
				c0.18-0.439,0.268-0.9,0.268-1.389c0-0.539-0.129-0.992-0.389-1.346c-0.26-0.357-0.6-0.662-1.021-0.908
				c-0.426-0.252-0.9-0.459-1.441-0.633c-0.531-0.174-1.082-0.346-1.654-0.52c-0.562-0.174-1.119-0.365-1.65-0.568
				c-0.535-0.207-1.018-0.467-1.436-0.777c-0.422-0.316-0.768-0.699-1.021-1.145c-0.26-0.451-0.391-1.01-0.391-1.68
				c0-0.572,0.123-1.127,0.369-1.658c0.252-0.527,0.605-0.99,1.066-1.395c0.459-0.398,1.02-0.719,1.68-0.953
				c0.658-0.24,1.4-0.361,2.223-0.361c0.986,0,1.857,0.141,2.621,0.422c0.762,0.279,1.463,0.713,2.1,1.301L562.985,188.288z"/>
			<path fill="#283A42" d="M584.786,202.436c-0.268,0-0.422-0.139-0.463-0.422l-0.162-2.547c-0.719,0.973-1.553,1.748-2.512,2.318
				c-0.961,0.572-2.035,0.865-3.229,0.865c-1.979,0-3.523-0.689-4.635-2.064s-1.668-3.432-1.668-6.182
				c0-1.18,0.154-2.279,0.463-3.307c0.309-1.021,0.768-1.906,1.367-2.66c0.6-0.75,1.334-1.342,2.211-1.775
				c0.871-0.43,1.877-0.65,3.014-0.65c1.094,0,2.043,0.207,2.842,0.609c0.805,0.41,1.494,1.002,2.082,1.781v-9.576h1.541v23.609
				H584.786z M578.86,201.397c1.07,0,2.043-0.271,2.908-0.828c0.867-0.551,1.643-1.316,2.328-2.303v-8.521
				c-0.633-0.916-1.322-1.566-2.072-1.943c-0.756-0.381-1.611-0.568-2.561-0.568c-0.953,0-1.789,0.172-2.502,0.52
				c-0.719,0.346-1.318,0.832-1.797,1.465c-0.482,0.637-0.848,1.395-1.092,2.271c-0.242,0.885-0.365,1.854-0.365,2.916
				c0,2.4,0.443,4.17,1.336,5.297C575.93,200.833,577.2,201.397,578.86,201.397z"/>
			<path fill="#283A42" d="M596.657,186.03c0.908,0,1.748,0.158,2.523,0.471c0.77,0.316,1.443,0.773,2.012,1.375
				c0.566,0.596,1.01,1.338,1.33,2.213c0.316,0.877,0.479,1.883,0.479,3.018c0,0.236-0.037,0.402-0.105,0.488
				c-0.074,0.084-0.184,0.129-0.332,0.129h-11.65v0.309c0,1.209,0.139,2.275,0.418,3.195c0.281,0.922,0.682,1.691,1.201,2.312
				c0.52,0.625,1.148,1.092,1.883,1.402c0.738,0.316,1.561,0.471,2.469,0.471c0.812,0,1.514-0.088,2.105-0.268
				c0.6-0.178,1.096-0.377,1.504-0.6c0.406-0.223,0.727-0.418,0.967-0.6c0.234-0.18,0.408-0.268,0.52-0.268
				c0.137,0,0.246,0.053,0.32,0.162l0.426,0.518c-0.264,0.326-0.605,0.629-1.031,0.914c-0.43,0.279-0.904,0.518-1.432,0.717
				c-0.523,0.203-1.082,0.361-1.684,0.479c-0.6,0.123-1.209,0.184-1.812,0.184c-1.104,0-2.109-0.195-3.018-0.58
				c-0.904-0.381-1.688-0.941-2.336-1.68c-0.648-0.734-1.156-1.635-1.51-2.701c-0.355-1.066-0.535-2.287-0.535-3.658
				c0-1.156,0.166-2.227,0.496-3.205c0.332-0.98,0.803-1.824,1.428-2.529c0.619-0.711,1.387-1.266,2.291-1.664
				C594.483,186.233,595.508,186.03,596.657,186.03z M596.676,187.18c-0.826,0-1.576,0.135-2.234,0.395
				c-0.656,0.26-1.229,0.629-1.707,1.115c-0.482,0.486-0.873,1.07-1.168,1.756c-0.297,0.682-0.496,1.443-0.588,2.283h10.625
				c0-0.859-0.121-1.639-0.355-2.324c-0.236-0.689-0.572-1.27-1.006-1.748c-0.434-0.475-0.949-0.834-1.555-1.09
				C598.084,187.311,597.411,187.18,596.676,187.18z"/>
			<path fill="#283A42" d="M612.442,202.436v-16.143h0.844c0.279,0,0.441,0.133,0.486,0.4l0.146,2.34
				c0.312-0.445,0.648-0.852,1.006-1.215c0.357-0.369,0.738-0.691,1.145-0.949c0.404-0.268,0.84-0.475,1.297-0.617
				c0.459-0.15,0.945-0.223,1.453-0.223c1.18,0,2.121,0.344,2.822,1.029c0.705,0.689,1.18,1.643,1.432,2.867
				c0.191-0.672,0.467-1.252,0.814-1.74c0.354-0.486,0.756-0.887,1.209-1.203c0.451-0.32,0.945-0.561,1.48-0.715
				c0.535-0.162,1.088-0.238,1.646-0.238c0.795,0,1.518,0.133,2.154,0.4c0.637,0.264,1.176,0.658,1.627,1.178
				c0.449,0.518,0.791,1.15,1.025,1.91c0.244,0.758,0.361,1.621,0.361,2.6v10.318h-1.541v-10.318c0-1.582-0.346-2.783-1.021-3.609
				c-0.686-0.828-1.656-1.242-2.922-1.242c-0.562,0-1.102,0.102-1.613,0.309c-0.516,0.207-0.969,0.506-1.367,0.912
				c-0.393,0.41-0.705,0.912-0.941,1.518c-0.23,0.607-0.344,1.311-0.344,2.113v10.318H622.1v-10.318c0-1.57-0.316-2.771-0.941-3.602
				c-0.629-0.836-1.541-1.25-2.742-1.25c-0.881,0-1.691,0.26-2.438,0.787c-0.75,0.523-1.412,1.25-1.996,2.182v12.201H612.442z"/>
			<path fill="#283A42" d="M648.073,202.436c-0.324,0-0.527-0.15-0.6-0.455l-0.227-2.061c-0.443,0.434-0.885,0.824-1.322,1.168
				c-0.439,0.35-0.896,0.641-1.371,0.877c-0.475,0.238-0.99,0.418-1.541,0.543c-0.557,0.125-1.16,0.191-1.818,0.191
				c-0.551,0-1.086-0.086-1.605-0.248s-0.977-0.414-1.383-0.746c-0.398-0.336-0.719-0.768-0.965-1.291
				c-0.244-0.521-0.361-1.154-0.361-1.889c0-0.682,0.195-1.314,0.584-1.898c0.385-0.584,0.998-1.092,1.824-1.525
				c0.828-0.434,1.891-0.779,3.197-1.037c1.301-0.26,2.867-0.414,4.695-0.455v-1.688c0-1.492-0.32-2.641-0.965-3.451
				c-0.641-0.803-1.598-1.205-2.863-1.205c-0.775,0-1.443,0.105-1.986,0.32c-0.549,0.219-1.01,0.455-1.389,0.719
				c-0.381,0.26-0.689,0.494-0.924,0.713c-0.24,0.215-0.438,0.324-0.6,0.324c-0.221,0-0.383-0.098-0.488-0.291l-0.279-0.475
				c0.848-0.844,1.736-1.48,2.664-1.914c0.93-0.43,1.984-0.65,3.164-0.65c0.865,0,1.623,0.139,2.271,0.418
				c0.648,0.271,1.189,0.67,1.615,1.186c0.426,0.51,0.75,1.131,0.965,1.865c0.215,0.73,0.324,1.541,0.324,2.441v10.514H648.073z
				 M641.584,201.575c0.625,0,1.203-0.064,1.727-0.197c0.527-0.139,1.01-0.33,1.461-0.572c0.449-0.244,0.871-0.531,1.258-0.869
				c0.389-0.336,0.773-0.697,1.15-1.086v-4.201c-1.531,0.043-2.859,0.158-3.965,0.348c-1.111,0.188-2.025,0.441-2.742,0.771
				c-0.719,0.324-1.254,0.709-1.59,1.156c-0.342,0.453-0.512,0.961-0.512,1.537c0,0.539,0.09,1.006,0.268,1.402
				c0.178,0.398,0.414,0.723,0.705,0.973c0.293,0.256,0.633,0.443,1.023,0.561C640.752,201.514,641.163,201.575,641.584,201.575z"/>
			<path fill="#283A42" d="M661.965,188.288c-0.078,0.15-0.195,0.229-0.361,0.229c-0.117,0-0.271-0.07-0.459-0.203
				c-0.189-0.139-0.441-0.289-0.746-0.455c-0.312-0.17-0.689-0.32-1.135-0.457c-0.455-0.135-1.002-0.203-1.65-0.203
				c-0.584,0-1.117,0.084-1.6,0.252c-0.479,0.17-0.893,0.396-1.232,0.676c-0.34,0.281-0.604,0.605-0.795,0.982
				c-0.186,0.373-0.283,0.766-0.283,1.172c0,0.512,0.129,0.934,0.389,1.266c0.26,0.34,0.6,0.625,1.021,0.863
				c0.422,0.236,0.9,0.443,1.436,0.617c0.537,0.17,1.088,0.344,1.648,0.52c0.562,0.174,1.115,0.365,1.646,0.576
				c0.535,0.211,1.014,0.475,1.436,0.781c0.422,0.316,0.766,0.703,1.021,1.156c0.264,0.455,0.389,1.006,0.389,1.654
				c0,0.703-0.125,1.359-0.377,1.965c-0.254,0.604-0.623,1.131-1.107,1.572c-0.479,0.447-1.07,0.795-1.771,1.055
				c-0.705,0.26-1.504,0.395-2.404,0.395c-1.137,0-2.113-0.188-2.938-0.549s-1.557-0.83-2.207-1.42l0.373-0.547
				c0.057-0.09,0.115-0.154,0.18-0.199c0.064-0.043,0.158-0.064,0.275-0.064c0.143,0,0.312,0.086,0.52,0.264
				c0.207,0.17,0.475,0.357,0.803,0.557c0.328,0.197,0.742,0.389,1.232,0.559c0.492,0.174,1.104,0.26,1.826,0.26
				c0.686,0,1.281-0.094,1.801-0.283c0.52-0.191,0.953-0.447,1.301-0.771c0.346-0.32,0.605-0.705,0.787-1.143
				c0.176-0.439,0.264-0.9,0.264-1.389c0-0.539-0.129-0.992-0.389-1.346c-0.256-0.357-0.602-0.662-1.021-0.908
				c-0.422-0.252-0.896-0.459-1.434-0.633c-0.539-0.174-1.09-0.346-1.658-0.52s-1.119-0.365-1.654-0.568
				c-0.535-0.207-1.014-0.467-1.436-0.777c-0.422-0.316-0.764-0.699-1.023-1.145c-0.258-0.451-0.385-1.01-0.385-1.68
				c0-0.572,0.121-1.127,0.369-1.658c0.252-0.527,0.6-0.99,1.062-1.395c0.459-0.398,1.018-0.719,1.684-0.953
				c0.656-0.24,1.398-0.361,2.223-0.361c0.982,0,1.857,0.141,2.621,0.422c0.762,0.279,1.459,0.713,2.096,1.301L661.965,188.288z"/>
			<path fill="#283A42" d="M675.434,188.288c-0.076,0.15-0.199,0.229-0.361,0.229c-0.117,0-0.271-0.07-0.461-0.203
				c-0.188-0.139-0.439-0.289-0.746-0.455c-0.309-0.17-0.686-0.32-1.133-0.457c-0.453-0.135-0.998-0.203-1.65-0.203
				c-0.584,0-1.115,0.084-1.598,0.252c-0.482,0.17-0.893,0.396-1.232,0.676c-0.342,0.281-0.605,0.605-0.795,0.982
				c-0.188,0.373-0.285,0.766-0.285,1.172c0,0.512,0.131,0.934,0.389,1.266c0.26,0.34,0.602,0.625,1.023,0.863
				c0.422,0.236,0.9,0.443,1.436,0.617c0.535,0.17,1.082,0.344,1.646,0.52c0.564,0.174,1.115,0.365,1.65,0.576
				c0.531,0.211,1.01,0.475,1.432,0.781c0.422,0.316,0.764,0.703,1.023,1.156c0.258,0.455,0.389,1.006,0.389,1.654
				c0,0.703-0.125,1.359-0.377,1.965c-0.256,0.604-0.625,1.131-1.107,1.572c-0.479,0.447-1.07,0.795-1.777,1.055
				c-0.701,0.26-1.5,0.395-2.4,0.395c-1.135,0-2.113-0.188-2.938-0.549c-0.822-0.361-1.557-0.83-2.205-1.42l0.373-0.547
				c0.053-0.09,0.113-0.154,0.178-0.199c0.064-0.043,0.158-0.064,0.275-0.064c0.139,0,0.312,0.086,0.52,0.264
				c0.207,0.17,0.475,0.357,0.803,0.557c0.33,0.197,0.742,0.389,1.234,0.559c0.494,0.174,1.104,0.26,1.824,0.26
				c0.686,0,1.281-0.094,1.801-0.283c0.52-0.191,0.953-0.447,1.299-0.771c0.348-0.32,0.607-0.705,0.791-1.143
				c0.174-0.439,0.264-0.9,0.264-1.389c0-0.539-0.131-0.992-0.391-1.346c-0.256-0.357-0.6-0.662-1.021-0.908
				c-0.422-0.252-0.9-0.459-1.436-0.633c-0.531-0.174-1.088-0.346-1.654-0.52c-0.568-0.174-1.121-0.365-1.656-0.568
				c-0.535-0.207-1.014-0.467-1.436-0.777c-0.422-0.316-0.762-0.699-1.021-1.145c-0.26-0.451-0.385-1.01-0.385-1.68
				c0-0.572,0.121-1.127,0.369-1.658c0.246-0.527,0.604-0.99,1.062-1.395c0.461-0.398,1.021-0.719,1.678-0.953
				c0.658-0.24,1.404-0.361,2.223-0.361c0.986,0,1.857,0.141,2.621,0.422c0.762,0.279,1.465,0.713,2.102,1.301L675.434,188.288z"/>
			<path fill="#283A42" d="M690.311,202.436c-0.328,0-0.527-0.15-0.6-0.455l-0.227-2.061c-0.447,0.434-0.889,0.824-1.322,1.168
				c-0.439,0.35-0.896,0.641-1.371,0.877c-0.479,0.238-0.99,0.418-1.541,0.543c-0.553,0.125-1.16,0.191-1.818,0.191
				c-0.555,0-1.086-0.086-1.609-0.248c-0.52-0.162-0.979-0.414-1.379-0.746c-0.398-0.336-0.719-0.768-0.965-1.291
				c-0.244-0.521-0.365-1.154-0.365-1.889c0-0.682,0.193-1.314,0.584-1.898c0.389-0.584,1.002-1.092,1.824-1.525
				c0.828-0.434,1.895-0.779,3.197-1.037c1.305-0.26,2.871-0.414,4.695-0.455v-1.688c0-1.492-0.32-2.641-0.965-3.451
				c-0.641-0.803-1.598-1.205-2.859-1.205c-0.779,0-1.443,0.105-1.986,0.32c-0.549,0.219-1.012,0.455-1.393,0.719
				c-0.377,0.26-0.686,0.494-0.924,0.713c-0.236,0.215-0.438,0.324-0.596,0.324c-0.221,0-0.383-0.098-0.492-0.291l-0.275-0.475
				c0.844-0.844,1.732-1.48,2.664-1.914c0.93-0.43,1.984-0.65,3.164-0.65c0.863,0,1.619,0.139,2.271,0.418
				c0.648,0.271,1.189,0.67,1.615,1.186c0.426,0.51,0.75,1.131,0.961,1.865c0.219,0.73,0.328,1.541,0.328,2.441v10.514H690.311z
				 M683.823,201.575c0.623,0,1.203-0.064,1.727-0.197c0.523-0.139,1.01-0.33,1.457-0.572c0.449-0.244,0.871-0.531,1.262-0.869
				c0.389-0.336,0.77-0.697,1.146-1.086v-4.201c-1.533,0.043-2.855,0.158-3.963,0.348c-1.111,0.188-2.023,0.441-2.744,0.771
				c-0.719,0.324-1.25,0.709-1.59,1.156c-0.342,0.453-0.508,0.961-0.508,1.537c0,0.539,0.09,1.006,0.264,1.402
				c0.182,0.398,0.414,0.723,0.705,0.973c0.293,0.256,0.633,0.443,1.023,0.561C682.991,201.514,683.397,201.575,683.823,201.575z"/>
		</g>
	</g>
</g>
</svg>
