<?xml version="1.0" encoding="utf-8"?>
<!-- Generator: Adobe Illustrator 16.0.0, SVG Export Plug-In . SVG Version: 6.00 Build 0)  -->
<!DOCTYPE svg PUBLIC "-//W3C//DTD SVG 1.1//EN" "http://www.w3.org/Graphics/SVG/1.1/DTD/svg11.dtd">
<svg version="1.1" id="Layer_1" xmlns="http://www.w3.org/2000/svg" xmlns:xlink="http://www.w3.org/1999/xlink" x="0px" y="0px"
	 width="381px" height="114px" viewBox="0 0 381 114" enable-background="new 0 0 381 114" xml:space="preserve">
<g>
	<g>
		<path fill="#283A42" d="M296.374,8.245h6.786V82.67c-6.467,0-12.936,0-19.402,0V49.593l-15.795,16.538h-2.122l-15.69-16.538V82.67
			c-6.465,0-12.933,0-19.399,0V8.245h6.995l29.052,32.229L296.374,8.245z"/>
		<path fill="#283A42" d="M344.926,7.503c14.946,0.107,30.532,7.845,34.138,26.292h-18.659c-3.076-6.36-7.952-8.905-15.48-8.905
			c-11.98,0-18.447,9.33-18.447,20.672c0,12.299,7.209,20.356,18.447,20.356c7.633,0,12.51-2.014,15.902-9.117h-15.794V40.368
			h35.091c0.422,7.421,0.422,14.524-2.121,21.734c-5.303,15.479-19.4,21.416-33.078,21.416c-18.872,0-37.954-12.616-38.06-37.956
			C306.972,20.226,326.055,7.503,344.926,7.503z"/>
	</g>
	<g>
		<g>
			<path fill="#283A42" d="M27.574,82.67h-27.99V8.457h27.989C75.917,8.669,75.917,82.456,27.574,82.67z M18.563,65.389h9.011
				c23.643,0,23.643-39.651,0-39.651h-9.011V65.389z"/>
			<path fill="#283A42" d="M95.632,82.67H67.644V8.457h27.988C143.977,8.669,143.977,82.456,95.632,82.67z M86.621,65.389h9.011
				c23.641,0,23.641-39.651,0-39.651h-9.011V65.389z"/>
			<path fill="#283A42" d="M163.691,82.67h-27.989V8.457h27.989C212.035,8.669,212.035,82.456,163.691,82.67z M154.681,65.389h9.011
				c23.642,0,23.642-39.651,0-39.651h-9.011V65.389z"/>
		</g>
	</g>
	<rect x="213.674" y="0.4" fill="#283A42" width="2.27" height="89.489"/>
	<path fill="#08171E" d="M360.828,56.802c-0.19,0.396-0.386,0.771-0.584,1.139l17.752,4.181c0.004-0.008,0.008-0.011,0.01-0.019
		c0.633-1.795,1.108-3.585,1.459-5.375L360.828,56.802z"/>
	<polygon fill="#08171E" points="283.758,49.593 283.758,59.231 303.16,28.733 303.16,27.03 	"/>
	<polygon fill="#08171E" points="230.75,27.03 250.15,49.593 250.15,59.231 230.75,28.733 	"/>
	<polygon fill="#08171E" points="154.681,25.738 154.681,28.261 135.703,31.354 135.703,25.738 	"/>
	<polygon fill="#08171E" points="154.681,65.389 157.202,65.389 159.065,82.67 154.681,82.67 	"/>
	<polygon fill="#08171E" points="86.621,25.738 86.621,28.261 67.644,31.354 67.644,25.738 	"/>
	<polygon fill="#08171E" points="18.563,25.738 18.563,28.261 -0.416,31.354 -0.416,25.738 	"/>
	<polygon fill="#08171E" points="86.621,65.389 89.144,65.389 91.004,82.67 86.621,82.67 	"/>
	<polygon fill="#08171E" points="18.562,65.389 21.084,65.389 22.945,82.67 18.562,82.67 	"/>
	<g>
		<path fill="#314550" d="M6.794,110.003c-0.154,0-0.242-0.078-0.267-0.24l-0.092-1.459c-0.409,0.559-0.888,1.003-1.437,1.328
			c-0.547,0.326-1.163,0.492-1.844,0.492c-1.134,0-2.019-0.393-2.654-1.18c-0.634-0.785-0.952-1.962-0.952-3.536
			c0-0.674,0.088-1.303,0.266-1.886c0.177-0.586,0.438-1.092,0.78-1.524c0.344-0.43,0.765-0.77,1.264-1.014
			c0.499-0.25,1.075-0.373,1.724-0.373c0.626,0,1.167,0.117,1.626,0.349c0.46,0.231,0.855,0.572,1.19,1.016v-5.474H7.28v13.503
			H6.794V110.003z M3.404,109.411c0.613,0,1.169-0.158,1.664-0.473c0.496-0.317,0.939-0.755,1.329-1.322v-4.871
			c-0.359-0.527-0.754-0.897-1.185-1.113c-0.431-0.217-0.918-0.323-1.465-0.323c-0.546,0-1.022,0.098-1.432,0.297
			c-0.409,0.199-0.751,0.478-1.027,0.84c-0.275,0.364-0.485,0.796-0.624,1.298c-0.138,0.505-0.21,1.061-0.21,1.667
			c0,1.375,0.255,2.387,0.762,3.03C1.729,109.087,2.455,109.411,3.404,109.411z"/>
		<path fill="#314550" d="M13.582,100.619c0.52,0,1.001,0.09,1.443,0.27c0.442,0.181,0.827,0.441,1.152,0.787
			c0.325,0.341,0.578,0.764,0.761,1.265c0.183,0.502,0.272,1.08,0.272,1.727c0,0.137-0.02,0.23-0.059,0.279
			c-0.04,0.051-0.105,0.071-0.19,0.071h-6.665v0.179c0,0.694,0.081,1.302,0.241,1.829c0.161,0.527,0.39,0.967,0.686,1.321
			c0.298,0.357,0.657,0.625,1.079,0.803c0.42,0.182,0.89,0.27,1.41,0.27c0.464,0,0.867-0.051,1.207-0.152
			c0.34-0.104,0.628-0.217,0.859-0.345c0.231-0.126,0.415-0.241,0.551-0.343c0.137-0.104,0.237-0.155,0.298-0.155
			c0.081,0,0.142,0.03,0.185,0.093l0.241,0.297c-0.148,0.186-0.344,0.359-0.589,0.521c-0.245,0.16-0.518,0.297-0.818,0.411
			c-0.298,0.116-0.621,0.206-0.964,0.274c-0.343,0.069-0.688,0.104-1.034,0.104c-0.631,0-1.207-0.11-1.727-0.332
			c-0.52-0.216-0.966-0.537-1.339-0.96c-0.371-0.42-0.659-0.935-0.863-1.547c-0.202-0.606-0.305-1.306-0.305-2.09
			c0-0.663,0.095-1.273,0.284-1.834s0.461-1.043,0.817-1.448c0.355-0.406,0.792-0.725,1.31-0.954
			C12.34,100.734,12.925,100.619,13.582,100.619z M13.596,101.279c-0.476,0-0.902,0.073-1.279,0.225
			c-0.377,0.148-0.702,0.361-0.979,0.639c-0.273,0.278-0.496,0.612-0.666,1.005c-0.172,0.389-0.283,0.824-0.339,1.307h6.079
			c0-0.493-0.068-0.938-0.204-1.329c-0.135-0.393-0.326-0.728-0.575-1.001c-0.247-0.272-0.544-0.48-0.89-0.625
			C14.397,101.351,14.015,101.279,13.596,101.279z"/>
		<path fill="#314550" d="M21.824,110.153c-0.625,0-1.11-0.174-1.458-0.52c-0.346-0.346-0.52-0.883-0.52-1.607v-6.31h-1.328
			c-0.068,0-0.124-0.019-0.167-0.057c-0.042-0.036-0.064-0.09-0.064-0.156v-0.344l1.578-0.112l0.221-3.305
			c0.006-0.056,0.029-0.104,0.068-0.148c0.041-0.043,0.095-0.065,0.161-0.065h0.413v3.526h2.907v0.661h-2.907v6.266
			c0,0.252,0.034,0.47,0.098,0.651c0.065,0.185,0.154,0.333,0.27,0.449c0.114,0.117,0.249,0.207,0.404,0.262
			c0.153,0.055,0.32,0.082,0.5,0.082c0.222,0,0.415-0.031,0.577-0.096c0.16-0.064,0.299-0.137,0.417-0.214
			c0.117-0.079,0.213-0.15,0.288-0.216c0.074-0.062,0.133-0.098,0.177-0.098c0.049,0,0.1,0.033,0.15,0.094l0.24,0.393
			c-0.235,0.259-0.534,0.467-0.896,0.625C22.59,110.075,22.214,110.153,21.824,110.153z"/>
		<path fill="#314550" d="M29.127,100.619c0.521,0,1.001,0.09,1.444,0.27c0.441,0.181,0.826,0.441,1.151,0.787
			c0.324,0.341,0.579,0.764,0.762,1.265c0.182,0.502,0.274,1.08,0.274,1.727c0,0.137-0.021,0.23-0.061,0.279
			c-0.039,0.051-0.103,0.071-0.189,0.071h-6.665v0.179c0,0.694,0.082,1.302,0.241,1.829c0.161,0.527,0.391,0.967,0.688,1.321
			c0.297,0.357,0.655,0.625,1.077,0.803c0.421,0.182,0.89,0.27,1.41,0.27c0.465,0,0.867-0.051,1.207-0.152
			c0.34-0.104,0.627-0.217,0.859-0.345c0.232-0.126,0.416-0.241,0.553-0.343c0.134-0.104,0.236-0.155,0.297-0.155
			c0.081,0,0.141,0.03,0.186,0.093l0.241,0.297c-0.148,0.186-0.345,0.359-0.589,0.521c-0.244,0.16-0.517,0.297-0.817,0.411
			c-0.3,0.116-0.623,0.206-0.965,0.274c-0.343,0.069-0.688,0.104-1.035,0.104c-0.631,0-1.206-0.11-1.726-0.332
			c-0.519-0.216-0.966-0.537-1.339-0.96c-0.372-0.42-0.659-0.935-0.864-1.547c-0.203-0.606-0.305-1.306-0.305-2.09
			c0-0.663,0.095-1.273,0.284-1.834c0.189-0.561,0.461-1.043,0.817-1.448c0.356-0.406,0.792-0.725,1.308-0.954
			C27.886,100.734,28.472,100.619,29.127,100.619z M29.143,101.279c-0.477,0-0.901,0.073-1.278,0.225
			c-0.377,0.148-0.703,0.361-0.979,0.639c-0.274,0.278-0.497,0.612-0.667,1.005c-0.17,0.389-0.284,0.824-0.339,1.307h6.08
			c0-0.493-0.068-0.938-0.203-1.329c-0.137-0.393-0.329-0.728-0.576-1.001c-0.246-0.272-0.543-0.48-0.889-0.625
			C29.945,101.351,29.562,101.279,29.143,101.279z"/>
		<path fill="#314550" d="M40.934,102.004c-0.032,0.03-0.06,0.057-0.088,0.077c-0.029,0.022-0.066,0.031-0.116,0.031
			c-0.062,0-0.147-0.037-0.256-0.123c-0.107-0.083-0.252-0.175-0.432-0.272c-0.179-0.098-0.404-0.189-0.673-0.274
			c-0.268-0.083-0.595-0.126-0.978-0.126c-0.534,0-1.005,0.096-1.416,0.285c-0.414,0.187-0.759,0.459-1.041,0.812
			c-0.281,0.352-0.496,0.779-0.644,1.279c-0.149,0.501-0.224,1.066-0.224,1.688c0,0.652,0.076,1.229,0.228,1.729
			c0.151,0.502,0.368,0.924,0.645,1.27c0.278,0.344,0.616,0.603,1.011,0.779c0.396,0.183,0.836,0.272,1.319,0.272
			c0.445,0,0.819-0.053,1.118-0.156c0.3-0.107,0.548-0.221,0.743-0.346c0.196-0.123,0.349-0.236,0.464-0.344
			c0.114-0.104,0.205-0.155,0.273-0.155c0.08,0,0.143,0.03,0.186,0.092l0.242,0.299c-0.143,0.183-0.323,0.356-0.539,0.519
			c-0.217,0.16-0.46,0.299-0.732,0.416c-0.273,0.119-0.568,0.209-0.887,0.273c-0.32,0.065-0.652,0.099-0.999,0.099
			c-0.587,0-1.125-0.104-1.609-0.321c-0.486-0.209-0.903-0.52-1.253-0.928c-0.35-0.403-0.623-0.9-0.817-1.488
			c-0.195-0.588-0.293-1.255-0.293-2.005c0-0.703,0.094-1.347,0.279-1.929c0.185-0.582,0.456-1.082,0.812-1.505
			c0.355-0.423,0.792-0.748,1.309-0.98c0.516-0.229,1.109-0.348,1.777-0.348c0.601,0,1.134,0.094,1.602,0.288
			c0.467,0.191,0.873,0.453,1.221,0.779L40.934,102.004z"/>
		<path fill="#314550" d="M45.167,112.539c0.032,0,0.072,0.016,0.125,0.051c0.054,0.033,0.123,0.07,0.205,0.111
			c0.083,0.038,0.187,0.078,0.311,0.111c0.124,0.033,0.275,0.049,0.456,0.049c0.315,0,0.562-0.066,0.737-0.203
			c0.177-0.135,0.265-0.322,0.265-0.557c0-0.154-0.04-0.282-0.12-0.387c-0.081-0.104-0.195-0.187-0.344-0.256
			c-0.149-0.066-0.322-0.119-0.523-0.156c-0.202-0.039-0.423-0.071-0.665-0.102l0.345-1.095c-0.538-0.037-1.031-0.175-1.477-0.405
			c-0.445-0.231-0.827-0.55-1.146-0.952c-0.318-0.4-0.564-0.885-0.738-1.45c-0.174-0.568-0.26-1.207-0.26-1.92
			c0-0.703,0.093-1.345,0.279-1.929c0.184-0.582,0.456-1.082,0.812-1.505c0.356-0.42,0.792-0.747,1.31-0.98
			c0.515-0.23,1.108-0.35,1.776-0.35c0.601,0,1.134,0.096,1.602,0.29c0.466,0.192,0.872,0.452,1.22,0.779l-0.23,0.319
			c-0.033,0.028-0.061,0.055-0.088,0.075c-0.029,0.024-0.066,0.033-0.116,0.033c-0.061,0-0.147-0.039-0.256-0.125
			c-0.108-0.083-0.252-0.173-0.43-0.272c-0.18-0.101-0.405-0.19-0.675-0.274c-0.269-0.083-0.595-0.125-0.979-0.125
			c-0.534,0-1.004,0.095-1.416,0.283c-0.413,0.188-0.758,0.46-1.04,0.812c-0.281,0.352-0.497,0.779-0.645,1.281
			c-0.149,0.499-0.223,1.064-0.223,1.687c0,0.652,0.077,1.226,0.226,1.729c0.152,0.5,0.368,0.924,0.647,1.27
			c0.277,0.344,0.615,0.604,1.01,0.781c0.396,0.181,0.835,0.271,1.317,0.271c0.447,0,0.82-0.053,1.119-0.158
			c0.3-0.106,0.547-0.219,0.742-0.342c0.197-0.125,0.351-0.238,0.465-0.346c0.114-0.104,0.206-0.157,0.273-0.157
			c0.08,0,0.141,0.032,0.185,0.093l0.241,0.3c-0.278,0.356-0.676,0.657-1.192,0.897c-0.517,0.242-1.103,0.374-1.759,0.4
			l-0.223,0.732c0.549,0.1,0.969,0.242,1.258,0.425c0.287,0.186,0.431,0.463,0.431,0.826c0,0.186-0.041,0.354-0.126,0.502
			c-0.083,0.15-0.2,0.273-0.352,0.375c-0.152,0.104-0.332,0.182-0.543,0.238c-0.21,0.056-0.44,0.084-0.687,0.084
			c-0.253,0-0.501-0.037-0.744-0.107c-0.24-0.072-0.442-0.169-0.603-0.285l0.092-0.26C45.055,112.574,45.105,112.539,45.167,112.539
			z"/>
		<path fill="#314550" d="M57.084,110.003c-0.187,0-0.301-0.086-0.344-0.261l-0.13-1.175c-0.253,0.249-0.505,0.469-0.754,0.666
			c-0.251,0.201-0.514,0.366-0.785,0.504c-0.273,0.135-0.567,0.238-0.882,0.31c-0.317,0.071-0.663,0.108-1.04,0.108
			c-0.317,0-0.623-0.047-0.92-0.141c-0.296-0.094-0.559-0.236-0.788-0.426c-0.229-0.193-0.414-0.439-0.553-0.738
			c-0.139-0.301-0.208-0.661-0.208-1.084c0-0.389,0.111-0.747,0.333-1.083c0.224-0.334,0.573-0.625,1.045-0.873
			c0.474-0.246,1.082-0.445,1.829-0.596c0.746-0.148,1.642-0.232,2.687-0.257v-0.965c0-0.854-0.184-1.51-0.553-1.975
			c-0.367-0.458-0.913-0.688-1.638-0.688c-0.446,0-0.824,0.059-1.136,0.184c-0.313,0.126-0.578,0.26-0.794,0.409
			c-0.217,0.148-0.393,0.283-0.531,0.408c-0.134,0.125-0.249,0.186-0.342,0.186c-0.124,0-0.218-0.057-0.278-0.165l-0.158-0.272
			c0.483-0.482,0.991-0.847,1.522-1.095c0.533-0.248,1.135-0.373,1.81-0.373c0.495,0,0.929,0.08,1.299,0.239
			c0.372,0.156,0.679,0.384,0.925,0.678c0.244,0.293,0.428,0.648,0.552,1.068c0.124,0.414,0.187,0.883,0.187,1.396v6.014
			L57.084,110.003L57.084,110.003z M53.371,109.511c0.359,0,0.689-0.035,0.99-0.113c0.299-0.078,0.579-0.187,0.833-0.326
			c0.258-0.139,0.497-0.302,0.72-0.493c0.224-0.193,0.442-0.4,0.659-0.623v-2.406c-0.879,0.025-1.634,0.091-2.27,0.201
			c-0.633,0.107-1.157,0.252-1.568,0.439c-0.413,0.186-0.715,0.406-0.912,0.661c-0.194,0.259-0.292,0.552-0.292,0.879
			c0,0.31,0.052,0.576,0.154,0.804c0.101,0.224,0.236,0.411,0.403,0.556c0.167,0.148,0.362,0.254,0.584,0.322
			C52.898,109.478,53.13,109.511,53.371,109.511z M55.45,98.124c0.266,0,0.467-0.084,0.604-0.255
			c0.135-0.171,0.208-0.401,0.215-0.692h0.548c0,0.224-0.031,0.433-0.089,0.629c-0.059,0.193-0.146,0.362-0.261,0.503
			c-0.113,0.143-0.255,0.256-0.422,0.336c-0.167,0.082-0.355,0.122-0.566,0.122c-0.204,0-0.396-0.052-0.58-0.153
			c-0.182-0.102-0.357-0.213-0.524-0.333c-0.167-0.122-0.33-0.233-0.487-0.334c-0.157-0.104-0.317-0.154-0.478-0.154
			c-0.261,0-0.459,0.087-0.594,0.263c-0.137,0.179-0.211,0.404-0.224,0.683h-0.565c0-0.224,0.032-0.433,0.092-0.626
			c0.062-0.197,0.153-0.366,0.27-0.507c0.117-0.145,0.26-0.254,0.428-0.335c0.167-0.082,0.355-0.121,0.566-0.121
			s0.407,0.051,0.589,0.153c0.182,0.104,0.356,0.213,0.519,0.334c0.165,0.122,0.325,0.231,0.483,0.335
			C55.13,98.07,55.29,98.124,55.45,98.124z"/>
		<path fill="#314550" d="M63.46,100.619c0.662,0,1.255,0.113,1.778,0.339c0.523,0.228,0.963,0.548,1.322,0.961
			c0.36,0.416,0.632,0.917,0.821,1.499c0.189,0.588,0.284,1.241,0.284,1.963c0,0.725-0.095,1.377-0.284,1.958
			c-0.189,0.582-0.463,1.08-0.821,1.494c-0.358,0.416-0.799,0.734-1.322,0.957c-0.523,0.223-1.116,0.335-1.778,0.335
			c-0.663,0-1.253-0.112-1.776-0.335c-0.523-0.223-0.965-0.541-1.328-0.957c-0.363-0.414-0.637-0.912-0.827-1.494
			c-0.187-0.581-0.283-1.233-0.283-1.958c0-0.722,0.096-1.377,0.283-1.963c0.189-0.58,0.464-1.08,0.827-1.499
			c0.362-0.413,0.804-0.733,1.328-0.961C62.205,100.732,62.798,100.619,63.46,100.619z M63.46,109.429
			c0.552,0,1.033-0.094,1.444-0.283c0.412-0.189,0.755-0.459,1.031-0.813c0.274-0.35,0.481-0.777,0.617-1.275
			c0.136-0.496,0.204-1.057,0.204-1.676c0-0.612-0.068-1.169-0.204-1.67s-0.342-0.93-0.617-1.286
			c-0.275-0.355-0.619-0.629-1.031-0.819c-0.412-0.192-0.892-0.29-1.444-0.29c-0.55,0-1.031,0.098-1.443,0.29
			c-0.411,0.19-0.754,0.464-1.03,0.819c-0.275,0.356-0.484,0.785-0.622,1.286c-0.139,0.501-0.209,1.058-0.209,1.67
			c0,0.619,0.07,1.18,0.209,1.676c0.139,0.498,0.345,0.926,0.622,1.275c0.274,0.354,0.618,0.624,1.03,0.813
			C62.429,109.335,62.91,109.429,63.46,109.429z"/>
		<path fill="#314550" d="M79.561,110.003c-0.154,0-0.242-0.078-0.267-0.24l-0.093-1.459c-0.409,0.559-0.889,1.003-1.436,1.328
			c-0.548,0.326-1.164,0.492-1.843,0.492c-1.135,0-2.02-0.393-2.654-1.18c-0.635-0.785-0.952-1.962-0.952-3.536
			c0-0.674,0.087-1.303,0.266-1.886c0.178-0.586,0.437-1.092,0.779-1.524c0.344-0.43,0.767-0.77,1.265-1.014
			c0.498-0.25,1.075-0.373,1.723-0.373c0.627,0,1.168,0.117,1.627,0.349c0.459,0.231,0.854,0.572,1.188,1.016v-5.474h0.883v13.503
			h-0.485V110.003z M76.172,109.411c0.613,0,1.167-0.158,1.664-0.473c0.494-0.317,0.938-0.755,1.329-1.322v-4.871
			c-0.358-0.527-0.754-0.897-1.185-1.113c-0.431-0.217-0.918-0.323-1.464-0.323c-0.546,0-1.023,0.098-1.433,0.297
			c-0.409,0.199-0.751,0.478-1.027,0.84c-0.275,0.364-0.483,0.796-0.622,1.298c-0.14,0.505-0.21,1.061-0.21,1.667
			c0,1.375,0.254,2.387,0.763,3.03C74.495,109.087,75.223,109.411,76.172,109.411z"/>
		<path fill="#314550" d="M84.399,97.585c0,0.111-0.024,0.215-0.07,0.311c-0.047,0.098-0.108,0.181-0.181,0.255
			c-0.075,0.076-0.16,0.132-0.26,0.177s-0.203,0.066-0.316,0.066c-0.112,0-0.216-0.021-0.317-0.066
			c-0.099-0.043-0.185-0.101-0.259-0.177c-0.074-0.074-0.133-0.157-0.176-0.255c-0.043-0.096-0.064-0.199-0.064-0.311
			c0-0.112,0.021-0.219,0.064-0.32c0.042-0.104,0.102-0.191,0.176-0.265c0.075-0.073,0.161-0.134,0.259-0.178
			c0.101-0.042,0.204-0.065,0.317-0.065c0.11,0,0.216,0.023,0.316,0.065c0.1,0.044,0.185,0.104,0.26,0.178
			c0.074,0.073,0.134,0.16,0.181,0.265C84.375,97.366,84.399,97.473,84.399,97.585z M84.01,100.77v9.233h-0.882v-9.233H84.01z"/>
		<path fill="#314550" d="M90.041,100.609c0.403,0,0.775,0.05,1.12,0.151c0.344,0.098,0.652,0.237,0.923,0.417h2.367v0.305
			c0,0.155-0.086,0.239-0.261,0.249l-1.401,0.102c0.174,0.236,0.306,0.502,0.399,0.797s0.14,0.605,0.14,0.941
			c0,0.445-0.081,0.848-0.242,1.212c-0.16,0.362-0.386,0.672-0.672,0.928c-0.289,0.256-0.632,0.455-1.035,0.6
			c-0.402,0.141-0.848,0.213-1.339,0.213c-0.532,0-1.014-0.08-1.447-0.24c-0.261,0.146-0.464,0.324-0.612,0.527
			c-0.149,0.207-0.222,0.404-0.222,0.594c0,0.267,0.092,0.472,0.276,0.612c0.187,0.143,0.433,0.248,0.739,0.31
			c0.307,0.067,0.656,0.109,1.049,0.128c0.393,0.019,0.792,0.039,1.198,0.061c0.405,0.023,0.804,0.06,1.197,0.116
			c0.393,0.058,0.743,0.151,1.049,0.291c0.306,0.141,0.553,0.334,0.738,0.584c0.185,0.251,0.278,0.584,0.278,0.999
			c0,0.385-0.096,0.751-0.288,1.103c-0.192,0.354-0.468,0.666-0.832,0.939c-0.361,0.271-0.798,0.487-1.312,0.654
			c-0.513,0.162-1.089,0.244-1.727,0.244c-0.649,0-1.219-0.064-1.707-0.199c-0.488-0.133-0.898-0.315-1.229-0.539
			c-0.332-0.225-0.581-0.486-0.748-0.783c-0.167-0.296-0.25-0.611-0.25-0.945c0-0.49,0.16-0.911,0.483-1.265
			c0.32-0.35,0.764-0.625,1.326-0.818c-0.311-0.105-0.556-0.254-0.739-0.455c-0.182-0.196-0.273-0.475-0.273-0.826
			c0-0.129,0.025-0.265,0.075-0.407s0.125-0.283,0.223-0.422c0.101-0.139,0.22-0.271,0.358-0.395
			c0.14-0.123,0.302-0.236,0.487-0.332c-0.44-0.254-0.782-0.592-1.025-1.013c-0.245-0.419-0.368-0.914-0.368-1.478
			c0-0.441,0.079-0.847,0.236-1.21c0.158-0.362,0.382-0.674,0.669-0.935c0.288-0.258,0.636-0.461,1.044-0.602
			C89.096,100.682,89.547,100.609,90.041,100.609z M93.468,110.625c0-0.291-0.076-0.522-0.228-0.7
			c-0.151-0.179-0.354-0.314-0.607-0.414c-0.254-0.098-0.547-0.168-0.877-0.207c-0.33-0.042-0.677-0.072-1.039-0.091
			c-0.363-0.017-0.726-0.034-1.092-0.056c-0.366-0.018-0.704-0.055-1.021-0.109c-0.235,0.092-0.453,0.201-0.654,0.32
			c-0.202,0.121-0.373,0.258-0.515,0.408c-0.143,0.152-0.253,0.317-0.334,0.501c-0.08,0.185-0.122,0.384-0.122,0.6
			c0,0.273,0.07,0.525,0.209,0.758c0.139,0.23,0.344,0.432,0.613,0.602c0.269,0.172,0.598,0.306,0.988,0.405
			c0.39,0.101,0.838,0.149,1.345,0.149c0.47,0,0.909-0.056,1.314-0.158c0.405-0.105,0.757-0.252,1.058-0.443
			c0.298-0.193,0.534-0.422,0.704-0.689C93.383,111.231,93.468,110.942,93.468,110.625z M90.041,105.918
			c0.397,0,0.749-0.057,1.058-0.168c0.31-0.116,0.569-0.275,0.78-0.48c0.211-0.205,0.369-0.447,0.478-0.734
			c0.108-0.283,0.163-0.599,0.163-0.946c0-0.346-0.055-0.664-0.167-0.95c-0.111-0.287-0.273-0.535-0.487-0.738
			c-0.213-0.204-0.473-0.362-0.778-0.475c-0.308-0.11-0.654-0.166-1.046-0.166c-0.389,0-0.738,0.056-1.047,0.166
			c-0.309,0.112-0.571,0.271-0.784,0.475c-0.213,0.203-0.375,0.451-0.488,0.738c-0.111,0.286-0.167,0.604-0.167,0.95
			c0,0.348,0.056,0.663,0.167,0.946c0.112,0.287,0.275,0.529,0.488,0.734s0.476,0.364,0.784,0.48
			C89.304,105.861,89.653,105.918,90.041,105.918z"/>
		<path fill="#314550" d="M97.616,97.585c0,0.111-0.023,0.215-0.07,0.311c-0.045,0.098-0.106,0.181-0.18,0.255
			c-0.073,0.076-0.16,0.132-0.26,0.177c-0.099,0.045-0.204,0.066-0.316,0.066s-0.215-0.021-0.315-0.066
			c-0.101-0.043-0.187-0.101-0.262-0.177c-0.074-0.074-0.132-0.157-0.176-0.255c-0.044-0.096-0.064-0.199-0.064-0.311
			c0-0.112,0.021-0.219,0.064-0.32c0.042-0.104,0.102-0.191,0.176-0.265c0.075-0.073,0.161-0.134,0.262-0.178
			c0.1-0.042,0.202-0.065,0.315-0.065c0.111,0,0.217,0.023,0.316,0.065c0.1,0.044,0.187,0.104,0.26,0.178
			c0.074,0.073,0.135,0.16,0.18,0.265C97.593,97.366,97.616,97.473,97.616,97.585z M97.227,100.77v9.233h-0.883v-9.233H97.227z"/>
		<path fill="#314550" d="M102.731,110.153c-0.626,0-1.112-0.174-1.458-0.52c-0.348-0.346-0.521-0.883-0.521-1.607v-6.31h-1.327
			c-0.067,0-0.123-0.019-0.167-0.057c-0.043-0.036-0.064-0.09-0.064-0.156v-0.344l1.577-0.112l0.221-3.305
			c0.007-0.056,0.03-0.104,0.069-0.148c0.04-0.043,0.096-0.065,0.161-0.065h0.413v3.526h2.907v0.661h-2.907v6.266
			c0,0.252,0.034,0.47,0.099,0.651c0.065,0.185,0.155,0.333,0.27,0.449c0.113,0.117,0.249,0.207,0.404,0.262
			c0.154,0.055,0.321,0.082,0.5,0.082c0.222,0,0.415-0.031,0.576-0.096c0.16-0.064,0.3-0.137,0.417-0.214
			c0.117-0.079,0.213-0.15,0.289-0.216c0.073-0.062,0.132-0.098,0.176-0.098c0.05,0,0.1,0.033,0.149,0.094l0.242,0.393
			c-0.235,0.259-0.534,0.467-0.896,0.625C103.496,110.075,103.12,110.153,102.731,110.153z"/>
		<path fill="#314550" d="M112.448,110.003c-0.185,0-0.3-0.086-0.345-0.261l-0.129-1.175c-0.254,0.249-0.507,0.469-0.757,0.666
			c-0.25,0.201-0.511,0.366-0.784,0.504c-0.272,0.135-0.567,0.238-0.884,0.31c-0.314,0.071-0.661,0.108-1.039,0.108
			c-0.316,0-0.622-0.047-0.919-0.141c-0.296-0.094-0.56-0.236-0.789-0.426c-0.228-0.193-0.414-0.439-0.552-0.738
			c-0.14-0.301-0.209-0.661-0.209-1.084c0-0.389,0.11-0.747,0.335-1.083c0.221-0.334,0.57-0.625,1.043-0.873
			c0.474-0.246,1.082-0.445,1.829-0.596c0.746-0.148,1.64-0.232,2.688-0.257v-0.965c0-0.854-0.186-1.51-0.554-1.975
			c-0.368-0.458-0.913-0.688-1.637-0.688c-0.446,0-0.826,0.059-1.138,0.184c-0.312,0.126-0.577,0.26-0.794,0.409
			c-0.218,0.148-0.393,0.283-0.528,0.408c-0.137,0.125-0.251,0.186-0.344,0.186c-0.124,0-0.217-0.057-0.278-0.165l-0.157-0.272
			c0.482-0.482,0.989-0.847,1.521-1.095s1.135-0.373,1.81-0.373c0.496,0,0.93,0.08,1.299,0.239c0.372,0.156,0.68,0.384,0.924,0.678
			c0.244,0.293,0.429,0.648,0.553,1.068c0.123,0.414,0.187,0.883,0.187,1.396v6.014L112.448,110.003L112.448,110.003z
			 M108.735,109.511c0.358,0,0.688-0.035,0.988-0.113c0.3-0.078,0.579-0.187,0.835-0.326c0.258-0.139,0.497-0.302,0.72-0.493
			c0.224-0.193,0.442-0.4,0.659-0.623v-2.406c-0.88,0.025-1.635,0.091-2.27,0.201c-0.632,0.107-1.157,0.252-1.568,0.439
			c-0.411,0.186-0.714,0.406-0.91,0.661c-0.194,0.259-0.293,0.552-0.293,0.879c0,0.31,0.052,0.576,0.155,0.804
			c0.101,0.224,0.237,0.411,0.404,0.556c0.166,0.148,0.362,0.254,0.584,0.322C108.262,109.478,108.494,109.511,108.735,109.511z"/>
		<path fill="#314550" d="M116.448,96.5v13.503h-0.881V96.5H116.448z"/>
		<path fill="#314550" d="M129.29,110.003c-0.153,0-0.242-0.078-0.268-0.24l-0.092-1.459c-0.408,0.559-0.888,1.003-1.436,1.328
			c-0.548,0.326-1.163,0.492-1.844,0.492c-1.134,0-2.018-0.393-2.653-1.18c-0.635-0.785-0.953-1.962-0.953-3.536
			c0-0.674,0.088-1.303,0.265-1.886c0.178-0.586,0.438-1.092,0.781-1.524c0.344-0.43,0.765-0.77,1.263-1.014
			c0.5-0.25,1.075-0.373,1.725-0.373c0.626,0,1.169,0.117,1.626,0.349c0.458,0.231,0.854,0.572,1.189,1.016v-5.474h0.881v13.503
			h-0.484V110.003z M125.9,109.411c0.614,0,1.169-0.158,1.665-0.473c0.494-0.317,0.937-0.755,1.328-1.322v-4.871
			c-0.359-0.527-0.754-0.897-1.185-1.113c-0.431-0.217-0.919-0.323-1.464-0.323c-0.545,0-1.022,0.098-1.432,0.297
			c-0.41,0.199-0.752,0.478-1.027,0.84c-0.277,0.364-0.484,0.796-0.625,1.298c-0.139,0.505-0.208,1.061-0.208,1.667
			c0,1.375,0.255,2.387,0.762,3.03C124.224,109.087,124.953,109.411,125.9,109.411z"/>
		<path fill="#314550" d="M136.078,100.619c0.521,0,1.001,0.09,1.444,0.27c0.442,0.181,0.826,0.441,1.15,0.787
			c0.325,0.341,0.579,0.764,0.761,1.265c0.183,0.502,0.275,1.08,0.275,1.727c0,0.137-0.021,0.23-0.06,0.279
			c-0.04,0.051-0.105,0.071-0.19,0.071h-6.665v0.179c0,0.694,0.08,1.302,0.241,1.829s0.391,0.967,0.687,1.321
			c0.296,0.357,0.656,0.625,1.077,0.803c0.421,0.182,0.891,0.27,1.412,0.27c0.462,0,0.867-0.051,1.207-0.152
			c0.34-0.104,0.627-0.217,0.857-0.345c0.234-0.126,0.416-0.241,0.555-0.343c0.135-0.104,0.234-0.155,0.296-0.155
			c0.081,0,0.143,0.03,0.187,0.093l0.24,0.297c-0.148,0.186-0.344,0.359-0.588,0.521c-0.246,0.16-0.518,0.297-0.818,0.411
			c-0.3,0.116-0.622,0.206-0.964,0.274c-0.344,0.069-0.688,0.104-1.033,0.104c-0.633,0-1.208-0.11-1.728-0.332
			c-0.519-0.216-0.965-0.537-1.338-0.96c-0.372-0.42-0.66-0.935-0.864-1.547c-0.203-0.606-0.305-1.306-0.305-2.09
			c0-0.663,0.093-1.273,0.284-1.834c0.188-0.561,0.461-1.043,0.816-1.448c0.357-0.406,0.793-0.725,1.308-0.954
			C134.836,100.734,135.423,100.619,136.078,100.619z M136.093,101.279c-0.478,0-0.902,0.073-1.279,0.225
			c-0.376,0.148-0.703,0.361-0.977,0.639c-0.276,0.278-0.5,0.612-0.669,1.005c-0.169,0.389-0.282,0.824-0.337,1.307h6.08
			c0-0.493-0.067-0.938-0.204-1.329c-0.136-0.393-0.327-0.728-0.574-1.001c-0.248-0.272-0.544-0.48-0.89-0.625
			C136.895,101.351,136.513,101.279,136.093,101.279z"/>
		<path fill="#314550" d="M151.659,110.003c-0.154,0-0.241-0.078-0.266-0.24l-0.093-1.459c-0.408,0.559-0.889,1.003-1.435,1.328
			c-0.547,0.326-1.164,0.492-1.845,0.492c-1.134,0-2.018-0.393-2.653-1.18c-0.635-0.785-0.952-1.962-0.952-3.536
			c0-0.674,0.087-1.303,0.264-1.886c0.178-0.586,0.438-1.092,0.781-1.524c0.344-0.43,0.766-0.77,1.265-1.014
			c0.498-0.25,1.073-0.373,1.724-0.373c0.626,0,1.167,0.117,1.626,0.349c0.459,0.231,0.854,0.572,1.19,1.016v-5.474h0.881v13.503
			h-0.487V110.003z M148.27,109.411c0.614,0,1.167-0.158,1.664-0.473c0.495-0.317,0.938-0.755,1.33-1.322v-4.871
			c-0.359-0.527-0.754-0.897-1.185-1.113c-0.432-0.217-0.92-0.323-1.463-0.323c-0.547,0-1.024,0.098-1.433,0.297
			c-0.41,0.199-0.751,0.478-1.029,0.84c-0.275,0.364-0.482,0.796-0.622,1.298c-0.139,0.505-0.208,1.061-0.208,1.667
			c0,1.375,0.253,2.387,0.763,3.03C146.593,109.087,147.321,109.411,148.27,109.411z"/>
		<path fill="#314550" d="M158.484,100.619c0.663,0,1.255,0.113,1.778,0.339c0.522,0.228,0.962,0.548,1.322,0.961
			c0.359,0.416,0.632,0.917,0.821,1.499c0.189,0.586,0.284,1.241,0.284,1.963c0,0.725-0.095,1.377-0.284,1.958
			c-0.188,0.582-0.463,1.08-0.821,1.494c-0.36,0.416-0.8,0.734-1.322,0.957c-0.523,0.223-1.115,0.335-1.778,0.335
			c-0.662,0-1.254-0.112-1.777-0.335s-0.964-0.541-1.327-0.957c-0.362-0.414-0.637-0.912-0.825-1.494
			c-0.189-0.581-0.284-1.233-0.284-1.958c0-0.722,0.094-1.377,0.284-1.963c0.188-0.58,0.462-1.08,0.825-1.499
			c0.363-0.413,0.804-0.733,1.327-0.961C157.229,100.732,157.822,100.619,158.484,100.619z M158.484,109.429
			c0.551,0,1.032-0.094,1.444-0.283s0.755-0.459,1.03-0.813c0.275-0.35,0.48-0.777,0.617-1.275c0.137-0.496,0.206-1.057,0.206-1.676
			c0-0.612-0.069-1.169-0.206-1.67c-0.136-0.501-0.342-0.93-0.617-1.286c-0.274-0.355-0.618-0.629-1.03-0.819
			c-0.413-0.192-0.893-0.29-1.444-0.29c-0.55,0-1.032,0.098-1.444,0.29c-0.412,0.19-0.755,0.464-1.029,0.819
			c-0.275,0.356-0.483,0.785-0.622,1.286c-0.139,0.501-0.209,1.058-0.209,1.67c0,0.619,0.07,1.18,0.209,1.676
			c0.139,0.498,0.346,0.926,0.622,1.275c0.274,0.354,0.617,0.624,1.029,0.813C157.453,109.335,157.934,109.429,158.484,109.429z"/>
		<path fill="#314550" d="M168.21,100.619c0.52,0,1.001,0.09,1.443,0.27c0.442,0.181,0.826,0.441,1.151,0.787
			c0.325,0.341,0.579,0.764,0.76,1.265c0.184,0.502,0.273,1.08,0.273,1.727c0,0.137-0.02,0.23-0.059,0.279
			c-0.04,0.051-0.104,0.071-0.19,0.071h-6.664v0.179c0,0.694,0.082,1.302,0.241,1.829c0.162,0.527,0.389,0.967,0.687,1.321
			c0.297,0.357,0.656,0.625,1.078,0.803c0.42,0.182,0.89,0.27,1.409,0.27c0.465,0,0.867-0.051,1.207-0.152
			c0.341-0.104,0.627-0.217,0.859-0.345c0.233-0.126,0.416-0.241,0.553-0.343c0.135-0.104,0.235-0.155,0.296-0.155
			c0.081,0,0.141,0.03,0.185,0.093l0.243,0.297c-0.15,0.186-0.345,0.359-0.59,0.521c-0.245,0.16-0.517,0.297-0.819,0.411
			c-0.3,0.116-0.621,0.206-0.963,0.274c-0.344,0.069-0.689,0.104-1.035,0.104c-0.63,0-1.207-0.11-1.726-0.332
			c-0.519-0.216-0.967-0.537-1.339-0.96c-0.372-0.42-0.66-0.935-0.863-1.547c-0.203-0.606-0.305-1.306-0.305-2.09
			c0-0.663,0.095-1.273,0.283-1.834s0.461-1.043,0.817-1.448c0.356-0.406,0.793-0.725,1.309-0.954
			C166.969,100.734,167.554,100.619,168.21,100.619z M168.224,101.279c-0.476,0-0.902,0.073-1.278,0.225
			c-0.377,0.148-0.703,0.361-0.979,0.639c-0.273,0.278-0.497,0.612-0.667,1.005c-0.17,0.389-0.282,0.824-0.337,1.307h6.079
			c0-0.493-0.068-0.938-0.205-1.329c-0.136-0.395-0.327-0.728-0.575-1.001c-0.247-0.272-0.542-0.48-0.889-0.625
			C169.027,101.351,168.644,101.279,168.224,101.279z"/>
		<path fill="#314550" d="M173.938,110.003v-9.233h0.484c0.159,0,0.252,0.077,0.277,0.23l0.083,1.393
			c0.42-0.535,0.912-0.962,1.471-1.286c0.56-0.323,1.184-0.487,1.872-0.487c0.506,0,0.953,0.081,1.34,0.241
			c0.387,0.161,0.706,0.393,0.961,0.698c0.253,0.301,0.446,0.667,0.576,1.095s0.194,0.907,0.194,1.446v5.903h-0.881V104.1
			c0-0.864-0.198-1.544-0.594-2.035c-0.396-0.491-1.004-0.738-1.821-0.738c-0.605,0-1.167,0.156-1.687,0.468
			c-0.521,0.313-0.985,0.743-1.393,1.287v6.922H173.938L173.938,110.003z"/>
		<path fill="#314550" d="M185.845,112.539c0.032,0,0.073,0.016,0.126,0.051c0.054,0.033,0.121,0.07,0.203,0.111
			c0.083,0.038,0.187,0.078,0.311,0.111s0.275,0.049,0.456,0.049c0.316,0,0.561-0.066,0.738-0.203
			c0.177-0.135,0.265-0.322,0.265-0.557c0-0.154-0.041-0.282-0.122-0.387c-0.082-0.104-0.195-0.187-0.345-0.256
			c-0.147-0.066-0.322-0.119-0.525-0.156c-0.2-0.039-0.421-0.071-0.662-0.102l0.342-1.095c-0.536-0.037-1.029-0.175-1.475-0.405
			c-0.445-0.231-0.828-0.55-1.146-0.952c-0.319-0.4-0.565-0.885-0.737-1.45c-0.174-0.568-0.261-1.207-0.261-1.92
			c0-0.703,0.093-1.345,0.279-1.929c0.185-0.582,0.456-1.082,0.812-1.505c0.355-0.42,0.793-0.747,1.309-0.98
			c0.516-0.23,1.108-0.35,1.777-0.35c0.6,0,1.134,0.096,1.601,0.29c0.466,0.192,0.874,0.452,1.221,0.779l-0.231,0.319
			c-0.031,0.028-0.06,0.055-0.088,0.075c-0.028,0.024-0.067,0.033-0.117,0.033c-0.061,0-0.147-0.039-0.255-0.125
			c-0.106-0.083-0.25-0.173-0.432-0.272c-0.178-0.101-0.403-0.19-0.673-0.274c-0.269-0.083-0.595-0.125-0.979-0.125
			c-0.533,0-1.005,0.095-1.416,0.283c-0.412,0.188-0.758,0.46-1.039,0.812c-0.281,0.352-0.498,0.779-0.645,1.281
			c-0.149,0.499-0.225,1.064-0.225,1.687c0,0.652,0.077,1.226,0.227,1.729c0.152,0.5,0.368,0.924,0.646,1.27
			c0.276,0.344,0.615,0.604,1.01,0.781c0.396,0.181,0.834,0.271,1.318,0.271c0.445,0,0.819-0.053,1.119-0.158
			c0.299-0.106,0.548-0.219,0.742-0.342c0.195-0.125,0.349-0.238,0.464-0.346c0.115-0.104,0.205-0.157,0.273-0.157
			c0.082,0,0.144,0.032,0.187,0.093l0.241,0.3c-0.277,0.356-0.676,0.657-1.193,0.897c-0.517,0.242-1.103,0.374-1.758,0.4
			l-0.224,0.732c0.551,0.1,0.97,0.242,1.257,0.425c0.288,0.186,0.433,0.463,0.433,0.826c0,0.186-0.042,0.354-0.125,0.502
			c-0.084,0.15-0.202,0.273-0.353,0.375c-0.151,0.104-0.333,0.182-0.543,0.238c-0.211,0.056-0.439,0.084-0.688,0.084
			c-0.253,0-0.501-0.037-0.743-0.107c-0.24-0.072-0.44-0.169-0.603-0.285l0.093-0.26
			C185.734,112.574,185.784,112.539,185.845,112.539z"/>
		<path fill="#314550" d="M197.761,110.003c-0.183,0-0.298-0.086-0.342-0.261l-0.129-1.175c-0.255,0.249-0.509,0.469-0.758,0.666
			c-0.249,0.201-0.511,0.366-0.783,0.504c-0.272,0.135-0.565,0.238-0.882,0.31s-0.665,0.108-1.04,0.108
			c-0.315,0-0.621-0.047-0.919-0.141s-0.56-0.236-0.789-0.426c-0.229-0.193-0.412-0.439-0.555-0.738
			c-0.137-0.301-0.208-0.661-0.208-1.084c0-0.389,0.113-0.747,0.335-1.083c0.224-0.334,0.571-0.625,1.045-0.873
			c0.473-0.246,1.082-0.445,1.828-0.596c0.746-0.148,1.641-0.232,2.688-0.257v-0.965c0-0.854-0.184-1.51-0.552-1.975
			c-0.367-0.458-0.914-0.688-1.638-0.688c-0.447,0-0.826,0.059-1.139,0.184c-0.312,0.126-0.577,0.26-0.792,0.409
			c-0.22,0.148-0.396,0.283-0.531,0.408s-0.249,0.186-0.344,0.186c-0.126,0-0.218-0.057-0.278-0.165l-0.158-0.272
			c0.483-0.482,0.99-0.847,1.523-1.095c0.531-0.248,1.135-0.373,1.812-0.373c0.493,0,0.928,0.08,1.298,0.239
			c0.369,0.156,0.678,0.384,0.922,0.678c0.245,0.293,0.432,0.648,0.553,1.068c0.125,0.414,0.188,0.883,0.188,1.396v6.014
			L197.761,110.003L197.761,110.003z M194.051,109.511c0.357,0,0.688-0.035,0.988-0.113c0.299-0.078,0.577-0.187,0.836-0.326
			c0.255-0.139,0.496-0.302,0.717-0.493c0.224-0.193,0.443-0.4,0.66-0.623v-2.406c-0.878,0.025-1.636,0.091-2.27,0.201
			c-0.635,0.107-1.158,0.252-1.568,0.439c-0.413,0.186-0.716,0.406-0.909,0.661c-0.195,0.259-0.293,0.552-0.293,0.879
			c0,0.31,0.051,0.576,0.153,0.804c0.103,0.224,0.237,0.411,0.402,0.556c0.168,0.148,0.364,0.254,0.586,0.322
			C193.575,109.478,193.809,109.511,194.051,109.511z"/>
		<path fill="#314550" d="M205.709,101.912c-0.045,0.086-0.109,0.128-0.205,0.128c-0.065,0-0.154-0.034-0.264-0.115
			c-0.107-0.077-0.25-0.163-0.426-0.259c-0.178-0.098-0.392-0.182-0.652-0.262c-0.257-0.076-0.569-0.115-0.942-0.115
			c-0.333,0-0.637,0.05-0.913,0.144c-0.273,0.1-0.512,0.226-0.704,0.387c-0.195,0.16-0.346,0.346-0.455,0.561
			c-0.106,0.213-0.161,0.439-0.161,0.674c0,0.291,0.073,0.533,0.223,0.723c0.148,0.195,0.343,0.355,0.584,0.492
			s0.514,0.253,0.82,0.353s0.621,0.197,0.941,0.297s0.636,0.209,0.941,0.329c0.307,0.122,0.58,0.272,0.822,0.448
			c0.24,0.18,0.436,0.4,0.583,0.66c0.148,0.26,0.224,0.576,0.224,0.947c0,0.4-0.072,0.777-0.218,1.123
			c-0.146,0.347-0.356,0.646-0.632,0.901c-0.273,0.252-0.613,0.455-1.015,0.604c-0.402,0.148-0.86,0.225-1.374,0.225
			c-0.649,0-1.209-0.108-1.68-0.313c-0.471-0.206-0.89-0.476-1.264-0.812l0.215-0.316c0.033-0.049,0.064-0.085,0.104-0.111
			c0.035-0.023,0.088-0.035,0.157-0.035c0.08,0,0.178,0.049,0.297,0.151c0.116,0.098,0.269,0.203,0.458,0.317
			c0.188,0.115,0.424,0.222,0.707,0.319c0.281,0.098,0.628,0.148,1.041,0.148c0.392,0,0.735-0.055,1.032-0.161
			c0.296-0.109,0.543-0.256,0.742-0.441c0.199-0.181,0.347-0.402,0.452-0.652c0.102-0.249,0.15-0.516,0.15-0.794
			c0-0.31-0.072-0.568-0.223-0.771c-0.146-0.203-0.344-0.377-0.583-0.52c-0.241-0.143-0.515-0.264-0.819-0.361
			c-0.306-0.102-0.624-0.199-0.948-0.299c-0.323-0.1-0.641-0.209-0.943-0.322c-0.308-0.117-0.582-0.268-0.822-0.447
			c-0.241-0.177-0.438-0.396-0.585-0.651c-0.148-0.258-0.223-0.578-0.223-0.96c0-0.329,0.07-0.646,0.213-0.95
			c0.143-0.302,0.344-0.565,0.606-0.796c0.265-0.229,0.582-0.412,0.963-0.547c0.377-0.137,0.801-0.205,1.27-0.205
			c0.562,0,1.063,0.08,1.501,0.242c0.436,0.158,0.834,0.408,1.2,0.742L205.709,101.912z"/>
		<path fill="#314550" d="M211.631,113.271V100.77h0.482c0.082,0,0.145,0.018,0.193,0.051c0.051,0.034,0.078,0.094,0.084,0.18
			l0.084,1.431c0.407-0.559,0.888-1,1.435-1.328c0.547-0.326,1.157-0.493,1.841-0.493c1.14,0,2.025,0.394,2.654,1.181
			c0.631,0.785,0.947,1.962,0.947,3.534c0,0.676-0.087,1.305-0.266,1.893c-0.176,0.584-0.436,1.089-0.774,1.521
			c-0.343,0.427-0.759,0.767-1.259,1.015c-0.496,0.246-1.071,0.372-1.72,0.372c-0.631,0-1.177-0.115-1.632-0.344
			c-0.461-0.228-0.854-0.569-1.189-1.021v4.511L211.631,113.271L211.631,113.271z M215.5,101.326c-0.614,0-1.168,0.159-1.666,0.479
			c-0.499,0.317-0.939,0.763-1.324,1.333v4.845c0.354,0.532,0.746,0.905,1.176,1.122c0.429,0.217,0.919,0.324,1.47,0.324
			c0.546,0,1.021-0.098,1.431-0.297c0.408-0.199,0.751-0.475,1.025-0.84c0.273-0.361,0.482-0.794,0.621-1.299
			c0.139-0.503,0.209-1.06,0.209-1.667c0-1.373-0.252-2.386-0.757-3.027C217.184,101.65,216.452,101.326,215.5,101.326z"/>
		<path fill="#314550" d="M227.175,110.003c-0.187,0-0.299-0.086-0.342-0.261l-0.13-1.175c-0.256,0.249-0.507,0.469-0.757,0.666
			c-0.25,0.201-0.512,0.366-0.784,0.504c-0.273,0.135-0.567,0.238-0.881,0.31c-0.317,0.071-0.663,0.108-1.042,0.108
			c-0.314,0-0.622-0.047-0.919-0.141c-0.295-0.094-0.56-0.236-0.787-0.426c-0.229-0.193-0.415-0.439-0.554-0.738
			c-0.14-0.301-0.209-0.661-0.209-1.084c0-0.389,0.11-0.747,0.333-1.083c0.226-0.334,0.572-0.625,1.046-0.873
			c0.472-0.246,1.082-0.445,1.827-0.596c0.748-0.148,1.641-0.232,2.688-0.257v-0.965c0-0.854-0.186-1.51-0.554-1.975
			c-0.367-0.458-0.912-0.688-1.636-0.688c-0.446,0-0.825,0.059-1.139,0.184c-0.311,0.126-0.576,0.26-0.794,0.409
			c-0.217,0.148-0.392,0.283-0.528,0.408s-0.251,0.186-0.344,0.186c-0.122,0-0.217-0.057-0.276-0.165l-0.158-0.272
			c0.481-0.482,0.988-0.847,1.523-1.095c0.53-0.248,1.133-0.373,1.809-0.373c0.495,0,0.928,0.08,1.3,0.239
			c0.371,0.156,0.677,0.384,0.923,0.678c0.244,0.293,0.429,0.648,0.551,1.068c0.128,0.414,0.188,0.883,0.188,1.396v6.014
			L227.175,110.003L227.175,110.003z M223.461,109.511c0.359,0,0.689-0.035,0.99-0.113c0.3-0.078,0.578-0.187,0.836-0.326
			c0.254-0.139,0.495-0.302,0.721-0.493c0.223-0.193,0.439-0.4,0.657-0.623v-2.406c-0.88,0.025-1.636,0.091-2.268,0.201
			c-0.636,0.107-1.159,0.252-1.57,0.439c-0.413,0.186-0.714,0.406-0.91,0.661c-0.197,0.259-0.292,0.552-0.292,0.879
			c0,0.31,0.05,0.576,0.151,0.804c0.104,0.224,0.238,0.411,0.407,0.556c0.165,0.148,0.359,0.254,0.582,0.322
			C222.988,109.478,223.221,109.511,223.461,109.511z"/>
		<path fill="#314550" d="M230.035,110.003v-9.233h0.464c0.106,0,0.181,0.022,0.229,0.064c0.044,0.043,0.07,0.116,0.08,0.222
			l0.072,1.949c0.296-0.747,0.694-1.333,1.188-1.758c0.495-0.423,1.104-0.638,1.829-0.638c0.278,0,0.538,0.031,0.771,0.088
			c0.236,0.062,0.457,0.146,0.669,0.257l-0.121,0.612c-0.019,0.1-0.082,0.15-0.186,0.15c-0.035,0-0.09-0.014-0.158-0.038
			c-0.066-0.024-0.151-0.053-0.254-0.084c-0.103-0.03-0.227-0.059-0.376-0.081c-0.148-0.024-0.318-0.035-0.51-0.035
			c-0.697,0-1.271,0.216-1.72,0.647c-0.449,0.436-0.814,1.057-1.09,1.876v6.005h-0.885v-0.004H230.035z"/>
		<path fill="#314550" d="M242.553,110.003c-0.182,0-0.299-0.086-0.34-0.261l-0.133-1.175c-0.252,0.249-0.503,0.469-0.754,0.666
			c-0.252,0.201-0.513,0.366-0.785,0.504c-0.272,0.135-0.566,0.238-0.883,0.31c-0.314,0.071-0.662,0.108-1.037,0.108
			c-0.316,0-0.622-0.047-0.92-0.141c-0.296-0.094-0.559-0.236-0.789-0.426c-0.229-0.193-0.413-0.439-0.553-0.738
			c-0.139-0.301-0.21-0.661-0.21-1.084c0-0.389,0.112-0.747,0.336-1.083c0.224-0.334,0.569-0.625,1.044-0.873
			c0.474-0.246,1.082-0.445,1.826-0.596c0.748-0.148,1.646-0.232,2.69-0.257v-0.965c0-0.854-0.185-1.51-0.553-1.975
			c-0.366-0.458-0.913-0.688-1.638-0.688c-0.445,0-0.827,0.059-1.139,0.184c-0.311,0.126-0.577,0.26-0.795,0.409
			c-0.213,0.148-0.391,0.283-0.527,0.408c-0.138,0.125-0.25,0.186-0.344,0.186c-0.123,0-0.215-0.057-0.277-0.165l-0.158-0.272
			c0.484-0.482,0.991-0.847,1.524-1.095c0.532-0.248,1.136-0.373,1.812-0.373c0.493,0,0.928,0.08,1.299,0.239
			c0.369,0.156,0.678,0.384,0.923,0.678c0.245,0.293,0.427,0.648,0.551,1.068c0.127,0.414,0.185,0.883,0.185,1.396v6.014
			L242.553,110.003L242.553,110.003z M238.843,109.511c0.359,0,0.688-0.035,0.988-0.113c0.299-0.078,0.579-0.187,0.835-0.326
			c0.256-0.139,0.496-0.302,0.72-0.493c0.224-0.193,0.442-0.4,0.658-0.623v-2.406c-0.88,0.025-1.634,0.091-2.268,0.201
			c-0.635,0.107-1.157,0.252-1.571,0.439c-0.41,0.186-0.715,0.406-0.908,0.661c-0.193,0.259-0.293,0.552-0.293,0.879
			c0,0.31,0.051,0.576,0.153,0.804c0.103,0.224,0.237,0.411,0.405,0.556c0.166,0.148,0.361,0.254,0.581,0.322
			C238.369,109.478,238.602,109.511,238.843,109.511z"/>
		<path fill="#314550" d="M252.198,100.619c0.52,0,1.003,0.09,1.444,0.27c0.441,0.181,0.824,0.441,1.151,0.787
			c0.321,0.341,0.578,0.764,0.761,1.265c0.183,0.502,0.272,1.08,0.272,1.727c0,0.137-0.021,0.23-0.06,0.279
			c-0.041,0.051-0.104,0.071-0.189,0.071h-6.664v0.179c0,0.694,0.08,1.302,0.24,1.829s0.391,0.967,0.687,1.321
			c0.297,0.357,0.655,0.625,1.079,0.803c0.42,0.182,0.891,0.27,1.413,0.27c0.461,0,0.866-0.051,1.204-0.152
			c0.344-0.104,0.627-0.217,0.86-0.345c0.228-0.126,0.415-0.241,0.552-0.343c0.135-0.104,0.234-0.155,0.297-0.155
			c0.08,0,0.143,0.03,0.187,0.093l0.241,0.297c-0.15,0.186-0.343,0.359-0.59,0.521c-0.242,0.16-0.516,0.297-0.816,0.411
			c-0.299,0.116-0.622,0.206-0.964,0.274c-0.343,0.069-0.688,0.104-1.038,0.104c-0.627,0-1.205-0.11-1.725-0.332
			c-0.518-0.216-0.964-0.537-1.338-0.96c-0.371-0.42-0.657-0.935-0.863-1.547c-0.205-0.606-0.306-1.306-0.306-2.09
			c0-0.663,0.095-1.273,0.284-1.834s0.463-1.043,0.817-1.448c0.356-0.406,0.792-0.725,1.31-0.954
			C250.959,100.734,251.545,100.619,252.198,100.619z M252.213,101.279c-0.475,0-0.902,0.073-1.279,0.225
			c-0.375,0.148-0.702,0.361-0.977,0.639c-0.275,0.278-0.499,0.612-0.668,1.005c-0.17,0.389-0.283,0.824-0.338,1.307h6.08
			c0-0.493-0.068-0.938-0.204-1.329c-0.134-0.393-0.329-0.728-0.576-1.001c-0.247-0.272-0.544-0.48-0.888-0.625
			C253.017,101.351,252.634,101.279,252.213,101.279z"/>
		<path fill="#314550" d="M261.166,110.003h-0.78l-3.897-9.233h0.696c0.087,0,0.155,0.023,0.208,0.07
			c0.052,0.046,0.091,0.096,0.115,0.151l3.047,7.286c0.06,0.144,0.107,0.278,0.136,0.411c0.033,0.132,0.063,0.256,0.093,0.389
			c0.032-0.131,0.064-0.259,0.098-0.393c0.036-0.133,0.084-0.268,0.137-0.403l3.062-7.286c0.032-0.068,0.071-0.123,0.127-0.163
			c0.051-0.039,0.114-0.059,0.188-0.059h0.669L261.166,110.003z"/>
		<path fill="#314550" d="M269.834,100.619c0.52,0,1.002,0.09,1.444,0.27c0.439,0.181,0.826,0.441,1.151,0.787
			c0.323,0.341,0.577,0.764,0.761,1.265c0.184,0.502,0.272,1.08,0.272,1.727c0,0.137-0.018,0.23-0.059,0.279
			c-0.043,0.051-0.105,0.071-0.191,0.071h-6.664v0.179c0,0.694,0.081,1.302,0.242,1.829c0.16,0.527,0.391,0.967,0.686,1.321
			c0.297,0.357,0.657,0.625,1.078,0.803c0.421,0.182,0.893,0.27,1.411,0.27c0.465,0,0.867-0.051,1.208-0.152
			c0.341-0.104,0.627-0.217,0.857-0.345c0.234-0.126,0.416-0.241,0.555-0.343c0.135-0.104,0.232-0.155,0.295-0.155
			c0.082,0,0.145,0.03,0.186,0.093l0.242,0.297c-0.148,0.186-0.345,0.359-0.59,0.521c-0.244,0.16-0.515,0.297-0.815,0.411
			c-0.302,0.116-0.623,0.206-0.965,0.274c-0.345,0.069-0.689,0.104-1.035,0.104c-0.631,0-1.205-0.11-1.726-0.332
			c-0.52-0.216-0.965-0.537-1.338-0.96c-0.371-0.42-0.66-0.935-0.865-1.547c-0.202-0.606-0.303-1.306-0.303-2.09
			c0-0.663,0.092-1.273,0.281-1.834c0.188-0.561,0.464-1.043,0.817-1.448c0.356-0.406,0.794-0.725,1.311-0.954
			C268.593,100.734,269.179,100.619,269.834,100.619z M269.847,101.279c-0.475,0-0.901,0.073-1.277,0.225
			c-0.377,0.148-0.7,0.361-0.978,0.639c-0.275,0.278-0.497,0.612-0.668,1.005c-0.17,0.389-0.283,0.824-0.338,1.307h6.08
			c0-0.493-0.069-0.938-0.205-1.329c-0.135-0.393-0.328-0.728-0.575-1.001c-0.248-0.272-0.543-0.48-0.89-0.625
			C270.65,101.351,270.269,101.279,269.847,101.279z"/>
		<path fill="#314550" d="M275.56,110.003v-9.233h0.483c0.161,0,0.253,0.077,0.278,0.23l0.083,1.393
			c0.422-0.535,0.913-0.962,1.473-1.286c0.559-0.323,1.184-0.487,1.869-0.487c0.508,0,0.956,0.081,1.342,0.241
			c0.387,0.161,0.706,0.393,0.961,0.698c0.252,0.301,0.445,0.667,0.576,1.095s0.196,0.907,0.196,1.446v5.903h-0.883V104.1
			c0-0.864-0.199-1.544-0.594-2.035c-0.396-0.491-1.005-0.738-1.818-0.738c-0.604,0-1.173,0.156-1.692,0.468
			c-0.516,0.313-0.982,0.743-1.39,1.287v6.922H275.56L275.56,110.003z"/>
		<path fill="#314550" d="M287.842,110.153c-0.627,0-1.111-0.174-1.459-0.52c-0.346-0.346-0.52-0.883-0.52-1.607v-6.31h-1.33
			c-0.064,0-0.123-0.019-0.163-0.057c-0.043-0.036-0.065-0.09-0.065-0.156v-0.344l1.58-0.112l0.22-3.305
			c0.007-0.056,0.028-0.104,0.069-0.148c0.037-0.043,0.091-0.065,0.159-0.065h0.414v3.526h2.905v0.661h-2.905v6.266
			c0,0.252,0.032,0.47,0.096,0.651c0.067,0.185,0.155,0.333,0.272,0.449c0.114,0.117,0.248,0.207,0.403,0.262
			c0.154,0.055,0.319,0.082,0.5,0.082c0.226,0,0.415-0.031,0.576-0.096c0.16-0.064,0.299-0.137,0.418-0.214
			c0.118-0.079,0.212-0.15,0.288-0.216c0.073-0.062,0.132-0.098,0.177-0.098c0.049,0,0.101,0.033,0.15,0.094l0.242,0.393
			c-0.236,0.259-0.535,0.467-0.897,0.625C288.605,110.075,288.232,110.153,287.842,110.153z"/>
		<path fill="#314550" d="M295.183,100.619c0.661,0,1.253,0.113,1.776,0.339c0.523,0.228,0.963,0.548,1.322,0.961
			c0.359,0.416,0.632,0.917,0.822,1.499c0.189,0.586,0.283,1.241,0.283,1.963c0,0.725-0.094,1.377-0.283,1.958
			c-0.19,0.582-0.463,1.08-0.822,1.494c-0.359,0.416-0.799,0.734-1.322,0.957s-1.115,0.335-1.776,0.335
			c-0.663,0-1.255-0.112-1.777-0.335s-0.966-0.541-1.326-0.957c-0.365-0.414-0.639-0.912-0.829-1.494
			c-0.188-0.581-0.283-1.233-0.283-1.958c0-0.722,0.096-1.377,0.283-1.963c0.19-0.58,0.464-1.08,0.829-1.499
			c0.36-0.413,0.804-0.733,1.326-0.961C293.928,100.732,294.52,100.619,295.183,100.619z M295.183,109.429
			c0.552,0,1.032-0.094,1.442-0.283c0.413-0.189,0.754-0.459,1.033-0.813c0.271-0.35,0.479-0.777,0.614-1.275
			c0.14-0.496,0.204-1.057,0.204-1.676c0-0.612-0.064-1.169-0.204-1.67c-0.135-0.501-0.344-0.93-0.614-1.286
			c-0.277-0.355-0.62-0.629-1.033-0.819c-0.412-0.192-0.891-0.29-1.442-0.29s-1.032,0.098-1.442,0.29
			c-0.415,0.19-0.756,0.464-1.033,0.819c-0.273,0.356-0.48,0.785-0.62,1.286c-0.139,0.501-0.209,1.058-0.209,1.67
			c0,0.619,0.07,1.18,0.209,1.676c0.14,0.498,0.344,0.926,0.62,1.275c0.275,0.354,0.618,0.624,1.033,0.813
			C294.149,109.335,294.631,109.429,295.183,109.429z"/>
		<path fill="#314550" d="M306.514,101.912c-0.041,0.086-0.107,0.128-0.201,0.128c-0.066,0-0.152-0.034-0.262-0.115
			c-0.112-0.077-0.254-0.163-0.431-0.259c-0.177-0.098-0.392-0.182-0.651-0.262c-0.257-0.076-0.569-0.115-0.939-0.115
			c-0.334,0-0.638,0.05-0.913,0.144c-0.274,0.1-0.512,0.226-0.706,0.387c-0.197,0.16-0.347,0.346-0.454,0.561
			c-0.109,0.213-0.162,0.439-0.162,0.674c0,0.291,0.074,0.533,0.222,0.723c0.148,0.195,0.344,0.355,0.584,0.492
			c0.242,0.137,0.517,0.253,0.82,0.353c0.309,0.1,0.623,0.197,0.942,0.297c0.321,0.098,0.636,0.209,0.941,0.329
			c0.308,0.122,0.581,0.272,0.822,0.448c0.24,0.18,0.436,0.4,0.583,0.66c0.149,0.26,0.225,0.576,0.225,0.947
			c0,0.4-0.073,0.777-0.221,1.123c-0.143,0.347-0.354,0.646-0.629,0.901c-0.273,0.252-0.613,0.455-1.018,0.604
			c-0.398,0.148-0.859,0.225-1.371,0.225c-0.65,0-1.209-0.108-1.682-0.313c-0.47-0.206-0.889-0.476-1.262-0.812l0.214-0.316
			c0.034-0.049,0.064-0.085,0.104-0.111c0.035-0.023,0.088-0.035,0.154-0.035c0.083,0,0.181,0.049,0.299,0.151
			c0.118,0.098,0.27,0.203,0.458,0.317c0.188,0.113,0.424,0.222,0.705,0.319c0.283,0.1,0.632,0.148,1.045,0.148
			c0.392,0,0.731-0.055,1.031-0.161c0.297-0.109,0.542-0.256,0.743-0.441c0.198-0.181,0.347-0.402,0.448-0.652
			c0.104-0.249,0.154-0.516,0.154-0.794c0-0.31-0.072-0.568-0.224-0.771c-0.147-0.203-0.345-0.377-0.582-0.52
			c-0.243-0.143-0.513-0.264-0.821-0.361c-0.307-0.102-0.621-0.199-0.947-0.299c-0.324-0.1-0.641-0.209-0.945-0.322
			c-0.306-0.117-0.582-0.268-0.821-0.447c-0.241-0.177-0.438-0.396-0.584-0.651c-0.149-0.258-0.225-0.578-0.225-0.96
			c0-0.329,0.072-0.646,0.214-0.95c0.143-0.302,0.345-0.565,0.607-0.796c0.264-0.229,0.584-0.412,0.962-0.547
			c0.377-0.137,0.801-0.205,1.271-0.205c0.563,0,1.062,0.08,1.499,0.242c0.434,0.158,0.836,0.408,1.201,0.742L306.514,101.912z"/>
		<path fill="#314550" d="M318.984,110.003c-0.151,0-0.24-0.078-0.266-0.24l-0.091-1.459c-0.412,0.559-0.889,1.003-1.437,1.328
			c-0.551,0.326-1.164,0.492-1.846,0.492c-1.13,0-2.018-0.393-2.649-1.18c-0.637-0.785-0.956-1.962-0.956-3.536
			c0-0.674,0.088-1.303,0.266-1.886c0.178-0.586,0.438-1.092,0.781-1.524c0.345-0.43,0.765-0.77,1.266-1.014
			c0.498-0.25,1.072-0.373,1.724-0.373c0.626,0,1.169,0.117,1.626,0.349c0.458,0.231,0.854,0.572,1.188,1.016v-5.474h0.883v13.503
			h-0.489V110.003z M315.596,109.411c0.613,0,1.169-0.158,1.664-0.473c0.497-0.317,0.939-0.755,1.331-1.322v-4.871
			c-0.362-0.527-0.755-0.897-1.187-1.113c-0.431-0.217-0.918-0.323-1.463-0.323c-0.544,0-1.023,0.098-1.432,0.297
			c-0.412,0.199-0.752,0.478-1.028,0.84c-0.276,0.364-0.485,0.796-0.623,1.298c-0.139,0.505-0.21,1.061-0.21,1.667
			c0,1.375,0.255,2.387,0.762,3.03C313.921,109.087,314.647,109.411,315.596,109.411z"/>
		<path fill="#314550" d="M325.775,100.619c0.52,0,1,0.09,1.444,0.27c0.441,0.181,0.823,0.441,1.148,0.787
			c0.325,0.341,0.581,0.764,0.763,1.265c0.182,0.502,0.273,1.08,0.273,1.727c0,0.137-0.021,0.23-0.06,0.279
			c-0.042,0.051-0.104,0.071-0.191,0.071h-6.661v0.179c0,0.694,0.079,1.302,0.24,1.829c0.158,0.527,0.389,0.967,0.686,1.321
			c0.297,0.357,0.656,0.625,1.077,0.803c0.422,0.182,0.892,0.27,1.412,0.27c0.462,0,0.866-0.051,1.204-0.152
			c0.344-0.104,0.627-0.217,0.86-0.345c0.231-0.126,0.417-0.241,0.554-0.343c0.135-0.104,0.233-0.155,0.297-0.155
			c0.081,0,0.142,0.03,0.184,0.093l0.242,0.297c-0.15,0.186-0.343,0.359-0.588,0.521c-0.246,0.16-0.515,0.297-0.818,0.411
			c-0.297,0.116-0.619,0.206-0.962,0.274c-0.345,0.069-0.691,0.104-1.036,0.104c-0.63,0-1.208-0.11-1.727-0.332
			c-0.52-0.216-0.965-0.537-1.337-0.96c-0.371-0.42-0.661-0.935-0.866-1.547c-0.201-0.606-0.301-1.306-0.301-2.09
			c0-0.663,0.092-1.273,0.28-1.834s0.46-1.043,0.817-1.448c0.354-0.406,0.793-0.725,1.311-0.954
			C324.532,100.734,325.119,100.619,325.775,100.619z M325.788,101.279c-0.475,0-0.902,0.073-1.278,0.225
			c-0.376,0.148-0.703,0.361-0.979,0.639c-0.274,0.278-0.496,0.612-0.668,1.005c-0.167,0.389-0.281,0.824-0.338,1.307h6.08
			c0-0.493-0.068-0.938-0.205-1.329c-0.133-0.393-0.325-0.728-0.574-1.001c-0.248-0.272-0.543-0.48-0.889-0.625
			C326.593,101.351,326.208,101.279,325.788,101.279z"/>
		<path fill="#314550" d="M334.805,110.003v-9.233h0.484c0.16,0,0.25,0.077,0.278,0.23l0.083,1.338
			c0.179-0.255,0.372-0.486,0.576-0.696c0.203-0.211,0.422-0.393,0.653-0.544c0.233-0.15,0.481-0.269,0.743-0.352
			c0.264-0.085,0.54-0.127,0.831-0.127c0.675,0,1.214,0.197,1.616,0.59c0.4,0.393,0.676,0.939,0.816,1.638
			c0.109-0.383,0.268-0.715,0.468-0.993c0.201-0.277,0.431-0.509,0.691-0.689c0.256-0.184,0.537-0.32,0.845-0.409
			c0.307-0.092,0.622-0.136,0.943-0.136c0.453,0,0.866,0.076,1.232,0.229c0.364,0.15,0.672,0.375,0.932,0.674
			c0.254,0.296,0.451,0.657,0.585,1.093c0.139,0.436,0.204,0.928,0.204,1.485v5.903h-0.881V104.1c0-0.903-0.197-1.591-0.583-2.065
			c-0.392-0.471-0.946-0.708-1.673-0.708c-0.321,0-0.627,0.059-0.922,0.178c-0.296,0.117-0.557,0.29-0.782,0.521
			c-0.225,0.234-0.403,0.523-0.537,0.869c-0.132,0.348-0.2,0.748-0.2,1.206v5.903h-0.88V104.1c0-0.896-0.181-1.583-0.539-2.06
			c-0.358-0.476-0.882-0.714-1.568-0.714c-0.502,0-0.967,0.15-1.392,0.448c-0.429,0.299-0.808,0.718-1.141,1.248v6.98H334.805
			L334.805,110.003z"/>
		<path fill="#314550" d="M355.188,110.003c-0.186,0-0.301-0.086-0.344-0.261l-0.129-1.175c-0.256,0.249-0.509,0.469-0.758,0.666
			c-0.25,0.201-0.512,0.366-0.784,0.504c-0.271,0.135-0.564,0.238-0.883,0.31c-0.316,0.071-0.664,0.108-1.038,0.108
			c-0.315,0-0.622-0.047-0.919-0.141c-0.298-0.094-0.558-0.236-0.789-0.426c-0.229-0.193-0.414-0.439-0.554-0.738
			c-0.139-0.301-0.207-0.661-0.207-1.084c0-0.389,0.111-0.747,0.333-1.083c0.224-0.334,0.573-0.625,1.044-0.873
			c0.474-0.246,1.08-0.445,1.828-0.596c0.746-0.148,1.642-0.232,2.688-0.257v-0.965c0-0.854-0.182-1.51-0.551-1.975
			c-0.369-0.458-0.914-0.688-1.638-0.688c-0.446,0-0.827,0.059-1.14,0.184c-0.313,0.126-0.577,0.26-0.792,0.409
			c-0.218,0.148-0.394,0.283-0.53,0.408c-0.136,0.125-0.25,0.186-0.344,0.186c-0.126,0-0.218-0.057-0.279-0.165l-0.158-0.272
			c0.484-0.482,0.99-0.847,1.524-1.095c0.532-0.248,1.135-0.373,1.812-0.373c0.492,0,0.928,0.08,1.298,0.239
			c0.37,0.156,0.679,0.384,0.923,0.678c0.245,0.293,0.43,0.648,0.553,1.068c0.125,0.414,0.186,0.883,0.186,1.396v6.014
			L355.188,110.003L355.188,110.003z M351.475,109.511c0.357,0,0.688-0.035,0.988-0.113s0.578-0.187,0.836-0.326
			c0.256-0.139,0.497-0.302,0.719-0.493c0.223-0.193,0.441-0.4,0.658-0.623v-2.406c-0.879,0.025-1.635,0.091-2.27,0.201
			c-0.634,0.107-1.156,0.252-1.567,0.439c-0.411,0.186-0.716,0.406-0.909,0.661c-0.195,0.259-0.295,0.552-0.295,0.879
			c0,0.31,0.055,0.576,0.155,0.804c0.103,0.224,0.235,0.411,0.402,0.556c0.166,0.148,0.363,0.254,0.586,0.322
			C350.999,109.478,351.233,109.511,351.475,109.511z"/>
		<path fill="#314550" d="M363.133,101.912c-0.044,0.086-0.112,0.128-0.205,0.128c-0.065,0-0.154-0.034-0.264-0.115
			c-0.106-0.077-0.25-0.163-0.428-0.259c-0.177-0.098-0.391-0.182-0.65-0.262c-0.257-0.076-0.57-0.115-0.942-0.115
			c-0.333,0-0.636,0.05-0.913,0.144c-0.273,0.1-0.512,0.226-0.704,0.387c-0.197,0.16-0.347,0.346-0.455,0.561
			c-0.108,0.213-0.163,0.439-0.163,0.674c0,0.291,0.076,0.533,0.225,0.723c0.148,0.195,0.343,0.355,0.583,0.492
			c0.242,0.137,0.515,0.253,0.821,0.353s0.62,0.197,0.941,0.297c0.32,0.098,0.636,0.209,0.942,0.329
			c0.306,0.122,0.58,0.272,0.821,0.448c0.24,0.18,0.436,0.4,0.582,0.66c0.15,0.26,0.225,0.576,0.225,0.947
			c0,0.4-0.072,0.777-0.219,1.123c-0.144,0.347-0.357,0.646-0.63,0.901c-0.275,0.252-0.614,0.455-1.016,0.604
			s-0.86,0.225-1.374,0.225c-0.649,0-1.209-0.108-1.681-0.313c-0.47-0.206-0.889-0.476-1.263-0.812l0.215-0.316
			c0.031-0.049,0.065-0.085,0.104-0.111c0.035-0.023,0.087-0.035,0.155-0.035c0.081,0,0.179,0.049,0.298,0.151
			c0.118,0.098,0.27,0.203,0.459,0.317c0.188,0.115,0.424,0.222,0.703,0.319c0.282,0.1,0.631,0.148,1.045,0.148
			c0.393,0,0.733-0.055,1.031-0.161c0.297-0.109,0.544-0.256,0.745-0.441c0.197-0.181,0.346-0.402,0.45-0.652
			c0.1-0.249,0.151-0.516,0.151-0.794c0-0.31-0.073-0.568-0.223-0.771c-0.148-0.203-0.345-0.377-0.585-0.52
			s-0.512-0.264-0.819-0.361c-0.308-0.102-0.625-0.199-0.946-0.299c-0.324-0.1-0.641-0.209-0.945-0.322
			c-0.308-0.117-0.582-0.268-0.823-0.447c-0.239-0.177-0.438-0.396-0.584-0.651c-0.147-0.258-0.222-0.578-0.222-0.96
			c0-0.329,0.071-0.646,0.213-0.95c0.143-0.302,0.344-0.565,0.607-0.796c0.264-0.229,0.581-0.412,0.962-0.547
			c0.376-0.137,0.801-0.205,1.271-0.205c0.561,0,1.062,0.08,1.501,0.242c0.434,0.158,0.833,0.408,1.198,0.742L363.133,101.912z"/>
		<path fill="#314550" d="M370.836,101.912c-0.043,0.086-0.111,0.128-0.205,0.128c-0.067,0-0.154-0.034-0.264-0.115
			c-0.106-0.077-0.25-0.163-0.427-0.259c-0.177-0.098-0.393-0.182-0.648-0.262c-0.258-0.076-0.571-0.115-0.943-0.115
			c-0.335,0-0.639,0.05-0.914,0.144c-0.274,0.1-0.51,0.226-0.705,0.387c-0.193,0.16-0.344,0.346-0.454,0.561
			c-0.107,0.213-0.162,0.439-0.162,0.674c0,0.291,0.074,0.533,0.222,0.723c0.15,0.195,0.344,0.355,0.585,0.492
			c0.242,0.137,0.514,0.253,0.82,0.353s0.619,0.197,0.941,0.297c0.321,0.098,0.638,0.209,0.943,0.329
			c0.305,0.122,0.58,0.272,0.82,0.448c0.24,0.18,0.436,0.4,0.582,0.66c0.15,0.26,0.224,0.576,0.224,0.947
			c0,0.4-0.071,0.777-0.216,1.123c-0.146,0.347-0.357,0.646-0.633,0.901c-0.273,0.252-0.613,0.455-1.015,0.604
			s-0.86,0.225-1.374,0.225c-0.65,0-1.209-0.108-1.679-0.313c-0.473-0.206-0.892-0.476-1.263-0.812l0.213-0.316
			c0.031-0.049,0.064-0.085,0.104-0.111c0.034-0.023,0.087-0.035,0.158-0.035c0.078,0,0.176,0.049,0.295,0.151
			c0.116,0.098,0.27,0.203,0.459,0.317c0.189,0.113,0.425,0.222,0.705,0.319c0.281,0.098,0.63,0.148,1.043,0.148
			c0.393,0,0.733-0.055,1.031-0.161c0.298-0.109,0.545-0.256,0.744-0.441c0.199-0.181,0.347-0.402,0.45-0.652
			c0.101-0.249,0.15-0.516,0.15-0.794c0-0.31-0.072-0.568-0.22-0.771c-0.148-0.203-0.344-0.377-0.585-0.52
			c-0.242-0.143-0.514-0.264-0.82-0.361c-0.305-0.102-0.62-0.199-0.946-0.299c-0.325-0.1-0.642-0.209-0.947-0.322
			c-0.308-0.117-0.581-0.268-0.82-0.447c-0.24-0.177-0.438-0.396-0.582-0.651c-0.151-0.258-0.225-0.578-0.225-0.96
			c0-0.329,0.07-0.646,0.213-0.95c0.143-0.302,0.346-0.565,0.607-0.796c0.264-0.229,0.584-0.412,0.961-0.547
			c0.375-0.137,0.8-0.205,1.27-0.205c0.563,0,1.063,0.08,1.5,0.242c0.438,0.158,0.836,0.408,1.201,0.742L370.836,101.912z"/>
		<path fill="#314550" d="M379.348,110.003c-0.188,0-0.301-0.086-0.345-0.261l-0.131-1.175c-0.252,0.249-0.504,0.469-0.755,0.666
			c-0.25,0.201-0.512,0.366-0.784,0.504c-0.272,0.135-0.567,0.238-0.882,0.31s-0.662,0.108-1.039,0.108
			c-0.317,0-0.622-0.047-0.921-0.141c-0.295-0.094-0.558-0.236-0.789-0.426c-0.227-0.193-0.411-0.439-0.551-0.738
			c-0.141-0.301-0.21-0.661-0.21-1.084c0-0.389,0.112-0.747,0.335-1.083c0.223-0.334,0.571-0.625,1.046-0.873
			c0.472-0.246,1.08-0.445,1.826-0.596c0.746-0.148,1.643-0.232,2.688-0.257v-0.965c0-0.854-0.185-1.51-0.553-1.975
			c-0.367-0.458-0.914-0.688-1.637-0.688c-0.445,0-0.826,0.059-1.137,0.184c-0.314,0.126-0.577,0.26-0.795,0.409
			c-0.219,0.148-0.393,0.283-0.53,0.408c-0.136,0.125-0.249,0.186-0.343,0.186c-0.126,0-0.221-0.057-0.279-0.165l-0.157-0.272
			c0.484-0.482,0.99-0.847,1.525-1.095c0.531-0.248,1.131-0.373,1.809-0.373c0.495,0,0.927,0.08,1.297,0.239
			c0.373,0.156,0.68,0.384,0.925,0.678c0.243,0.293,0.429,0.648,0.552,1.068c0.126,0.414,0.188,0.883,0.188,1.396v6.014
			L379.348,110.003L379.348,110.003z M375.633,109.511c0.359,0,0.691-0.035,0.99-0.113c0.301-0.078,0.578-0.187,0.834-0.326
			c0.257-0.139,0.498-0.302,0.721-0.493c0.225-0.193,0.442-0.4,0.658-0.623v-2.406c-0.879,0.025-1.635,0.091-2.269,0.201
			c-0.634,0.107-1.155,0.252-1.57,0.439c-0.411,0.186-0.713,0.406-0.908,0.661c-0.195,0.259-0.291,0.552-0.291,0.879
			c0,0.31,0.05,0.576,0.15,0.804c0.104,0.224,0.237,0.411,0.406,0.556c0.165,0.148,0.36,0.254,0.583,0.322
			C375.16,109.478,375.393,109.511,375.633,109.511z"/>
	</g>
</g>
</svg>
