<?xml version="1.0" encoding="utf-8"?>
<!-- Generator: Adobe Illustrator 16.0.0, SVG Export Plug-In . SVG Version: 6.00 Build 0)  -->
<!DOCTYPE svg PUBLIC "-//W3C//DTD SVG 1.1//EN" "http://www.w3.org/Graphics/SVG/1.1/DTD/svg11.dtd">
<svg version="1.1" id="Layer_1" xmlns="http://www.w3.org/2000/svg" xmlns:xlink="http://www.w3.org/1999/xlink" x="0px" y="0px"
	 width="721.285px" height="229.301px" viewBox="0 0 721.285 229.301" enable-background="new 0 0 721.285 229.301"
	 xml:space="preserve">
<g>
	<path fill="#FFFFFF" d="M439.269,148.659c2.5-2.763,4.446-6.13,5.82-10.086c1.368-3.97,2.046-8.462,2.046-13.481
		s-0.679-9.521-2.046-13.508c-1.374-3.976-3.32-7.35-5.82-10.101c-2.498-2.763-5.538-4.879-9.105-6.351
		c-3.589-1.493-7.571-2.236-11.98-2.236c-4.357,0-8.33,0.744-11.896,2.236c-3.567,1.472-6.625,3.588-9.137,6.351
		c-2.538,2.751-4.491,6.125-5.846,10.101c-1.375,3.986-2.062,8.488-2.062,13.508s0.687,9.514,2.062,13.481
		c1.354,3.956,3.308,7.323,5.846,10.086c2.512,2.75,5.568,4.864,9.137,6.319c3.564,1.461,7.537,2.196,11.896,2.196
		c4.409,0,8.393-0.735,11.98-2.196C433.731,153.523,436.771,151.409,439.269,148.659z M634.414,101.61
		c-2.515-2.717-5.54-4.819-9.122-6.263c-3.562-1.436-7.541-2.155-11.896-2.155h-19.45v63.746h19.45
		c4.354,0,8.333-0.715,11.896-2.156c3.582-1.445,6.607-3.534,9.122-6.234c2.509-2.719,4.441-6.045,5.803-10.001
		c1.379-3.956,2.06-8.433,2.06-13.453c0-5.02-0.681-9.489-2.06-13.454C638.856,107.699,636.923,104.347,634.414,101.61z
		 M518.292,99.501c-0.174,0.766-0.371,1.495-0.545,2.198c-0.169,0.71-0.351,1.347-0.529,1.911l-20.62,61.787h43.354L519.44,103.61
		C519.011,102.442,518.634,101.071,518.292,99.501z M645.551,76.072c-0.716-1.095-2.554-3.87-3.584-4.273
		c-3.259-1.255-3.27-3.991-4.718-6.49c-0.206-0.332-0.521-0.785-0.451-1.078c1.131-3.603-1.002-6.724-1.542-10.077
		c-0.35-2.305-0.842-4.616-1.462-6.85c-0.894-3.213-3.235-5.287-6.034-6.8c-4.441-2.413-8.796-1.214-12.861,1.02
		c-1.106,0.611-2.088,2.171-2.362,3.452c-0.498,2.204-0.409,4.529-0.476,6.827c-0.025,0.79,0.149,1.594,0.165,2.39
		c0.047,1.609-0.1,3.217,1.812,3.999c0.323,0.136,0.393,0.804,0.581,1.223c-0.11,0.254-0.237,0.496-0.366,0.719
		c-1.711-0.77-3.463-1.488-5.132-2.363c-0.979-0.508-1.718-1.51-2.737-1.926c-2.627-1.107-3.321-3.124-2.791-5.628
		c0.416-2.022-0.275-4.437,2.04-5.841c0.354-0.22,0.489-1.028,0.506-1.551c0.12-3.496,0.475-7.005,0.147-10.435
		c-0.316-3.296-5.5-7.395-8.687-7.216c-1.106,0.065-2.148,1.178-3.264,1.257c-1.742,0.093-1.788,1.192-2.04,2.412
		c-0.074,0.409-0.482,0.811-0.831,1.117c-2.599,2.191-2.3,4.988-1.715,7.88c0.18,0.942-0.023,1.96,0.253,2.855
		c0.482,1.604,1.418,3.089,1.764,4.722c0.481,2.228,0.636,4.533,0.867,6.406c-3.998,1.454-7.514,2.701-11.016,3.979
		c-0.455,0.156-0.919,0.312-1.343,0.53c-0.879,0.45-1.842,1.438-2.569,1.293c-2.303-0.512-4.783-1.038-6.682-2.283
		c-2.589-1.673-2.822-3.493-0.271-7.069c3.547-4.999,2.954-10.607,3.13-16.073c0.107-3.156-1.76-5.769-3.936-8.14
		c-1.396-1.494-2.928-2.361-4.671-3.143c-4.482-2.019-8.306,0.238-12.026,2.098c-2.835,1.436-2.757,4.901-3.696,7.549
		c-0.649,1.852-0.764,3.936-0.938,5.92c-0.426,4.691,0.912,8.993,3.434,12.908c1.917,3.02,0.612,6.761-2.8,7.677
		c-1.777,0.475-3.541,1.025-5.328,1.456c-1.911,0.435-2.737-0.544-2.129-2.411c1.767-5.272-0.158-8.331-5.691-9.111
		c-1.229-0.174-2.483-0.477-3.745-0.68c-2.197-0.384-4.056,0.204-5.737,1.694c-4.612,4.056-4.466,9.097-3.502,14.551
		c0.589,3.288,3.481,5.112,4.267,8.276c-2.024,0.876-4.02,1.999-6.617,0.697c-2.384-1.212-5.124-1.751-7.534-2.929
		c-1.854-0.899-1.72-2.325-0.352-3.912c1.432-1.681,2.495-3.641,3.755-5.469c1.396-1.998,2.767-4.019,4.156-6.017
		c2.45-3.516,1.873-4.728-0.601-7.411c-2.068-2.256-4.99-3.832-7.752-5.298c-1.949-1.034-6.982,1.101-8.353,3.042
		c-2.47,3.514-4.63,7.116-3.735,11.099c-2.646-0.413-5.306-0.883-7.971-1.215c-2.071-0.277-4.295,0.026-6.178-0.668
		c-1.354-0.487-2.614-2.049-3.279-3.454c-1.368-2.961-0.948-6.116-0.021-9.178c0.122-0.372,0.281-0.857,0.572-0.999
		c3.272-1.65,3.146-4.629,2.882-7.574c-0.038-0.465-0.938-0.845-1.938-1.698c-0.89-10.087-3.785-13.77-11.345-13.627
		c-6.597,0.109-9.484,4.243-10.402,14.021c-0.333,0.429-1.019,0.94-0.943,1.271c0.583,2.551,1.279,5.085,1.983,7.62
		c0.864,3.054,1.773,6.108,2.642,9.161c0.083,0.3,0.062,0.629,0.038,0.951c-0.188,2.955-1.076,4.173-4.053,4.875
		c-2.656,0.626-5.353,1.44-8.152,0.039c-0.603-0.296-1.833,0.65-3.366,1.223c-0.399-1.089-1.32-2.356-1.104-3.369
		c0.303-1.312,1.274-2.813,2.408-3.54c1.463-1.005,1.768-2.341,1.688-3.644c-0.156-2.866,0.165-4.103,2.072-4.886
		c-1.364-3.81-2.661-8.042-6.375-9.864c-2.486-1.231-6.486-1.767-8.701-0.569c-2.88,1.562-7.078,2.839-7.604,7.123
		c-0.432,3.643-1.289,7.425,0.938,10.311c-2.768,1.743-5.337,3.385-8.173,5.167c-0.146-1.405-0.317-3.152-0.485-4.908
		c0.192-0.062,0.347-0.102,0.542-0.143c0.394,0.68,0.801,1.356,1.218,2.033c0.169-0.05,0.347-0.089,0.52-0.134
		c-0.438-5.49-0.551-10.994-1.441-16.406c-0.352-2.148-2.182-4.222-3.733-5.961c-1.432-1.588-3.277-1.524-5.644-1.088
		c-7.526,1.365-8.895,7.196-9.87,12.969c-0.984,5.944-0.52,5.987-5.339,9.324c1.292,0.303,1.292,0.303,4.938-2.439
		c0.157,0.13,0.312,0.264,0.489,0.408c-0.987,1.021-1.817,2.238-2.969,3.044c-1.909,1.361-3.99,2.525-6.064,3.637
		c-0.556,0.292-1.515,0.28-2.038-0.022c-2.178-1.18-4.281-2.518-5.161-5.047c-0.128-0.375-0.675-0.849-0.585-1.001
		c1.371-2.256,0.077-4.866,1.439-7.392c2.008-3.723,3.615-7.979,4.075-12.147c0.52-4.718-0.32-9.636-4.941-12.657
		c-0.895-0.609-2.026-1.158-3.068-1.178c-2.503-0.067-5.004-0.41-7.542-0.39c-3.812,0.022-6.046,1.986-7.89,4.398
		c-1.174,1.56-1.512,4.054-1.589,6.148c-0.112,4.218-0.059,8.452,2.374,12.301c0.991,1.55,1.901,3.524-0.444,5.004
		c-0.123,0.059-0.238,0.282-0.2,0.387c1.203,3.194-1.651,2.782-3.161,3.444c-2.202,0.964-4.5,1.688-6.698,2.64
		c-3.302,1.421-5.751,3.731-7.335,7.427c-1.359-3.601-0.711-6.905,0.201-9.897c1.868-6.149-0.439-11.03-4.022-15.544
		c-2.175-2.703-6.297-3.682-8.714-2.648c-4.196,1.801-8.785,4.114-10.631,9.021c-0.285,0.749-0.206,1.844,0.147,2.561
		c1.04,2.11,2.262,4.129,3.466,6.158c1.019,1.673,2.019,3.365,3.168,4.945c1.081,1.481,2.348,2.832,3.546,4.222
		c1.218,1.371,1.502,2.892-0.218,3.804c-2.85,1.507-5.867,2.65-8.976,4.021c-4.683-8.825-12.98-11.542-21.187-15.216
		c0.348-2.744,0.726-5.745,1.097-8.765c0.211,0.021,0.434,0.028,0.656,0.042c0.012,0.289,0.031,0.585,0.031,0.877
		c-0.009,0.283-0.084,0.564-0.124,0.861c0.276,0.075,0.558,0.179,0.826,0.269c1.172-3.203,2.142-6.495,3.558-9.584
		c1.605-3.544-0.238-6.838-0.577-10.157c-0.232-2.291-2.567-4.35-4.106-6.72c-0.242,0.022-0.92,0.089-1.733,0.152
		c0-0.68,0-1.232,0-1.781c-1.769,0-3.53,0-5.292,0c-1.062,0.175-2.114,0.311-3.178,0.548c-2.595,0.564-4.915,1.349-7.291,3.011
		c-4.446,3.142-3.947,7.834-4.493,11.967c-0.315,2.474,1.063,5.514,2.476,7.796c2.007,3.264,3.073,7.633,2.717,11.609
		c-2.696,1.326-5.408,2.598-8.059,3.991c-1.763,0.921-3.215-0.073-3.386-1.377c-0.186-1.452-2.728-2.764-0.527-4.484
		c0.086-0.061-0.238-0.691-0.372-1.02c0.697,0.071,1.456,0.154,2.214,0.25c0.114-0.292,0.25-0.589,0.37-0.879
		c-2.157-1.65-4.411-3.209-6.458-4.998c-0.975-0.867-1.669-2.126-2.254-3.329c-2.323-4.734-7.697-5.524-11.523-1.994
		c-2.37,2.197-3.844,4.935-5.292,7.591c-1.182,2.195-1.274,4.972-1.842,7.5c0.305-0.114,0.628-0.264,1.304-0.514
		c-0.536,0.879-0.911,1.515-1.37,2.291c0.485-0.061,0.768-0.109,1.139-0.15c-1.072,1.521-2.118,2.996-3.606,5.043
		c-3.209-3.309-6.331-6.542-9.162-9.462c1.162-3.389,2.49-6.389,3.18-9.541c0.591-2.634,0.264-5.37,1.259-8.061
		c0.798-2.084-2.479-6.482-4.938-7.315c-2.034-0.687-4.12-1.336-6.229-1.578c-0.902-0.11-2.027,0.672-2.908,1.281
		c-1.594,1.129-3.251,2.234-4.511,3.668c-2.562,2.935-1.722,6.529-1.218,9.87c0.39,2.542,1.451,4.969,2.061,7.482
		c0.352,1.525-0.48,2.561-1.842,3.261c-0.92,0.481-1.756,1.149-2.595,1.759c-1.519,1.066-3.015,1.507-4.503-0.179
		c0.136-0.714,0.305-1.554,0.471-2.39c-0.189,0.13-0.361,0.252-0.53,0.374c-2.095-2.279-4.197-4.545-6.481-7.035
		c-0.381,0-1.207,0-2.191,0c0.717-0.481,1.282-0.857,1.452-0.967c-1.499-0.098-3.294,0.134-4.792-0.425
		c-3.604-1.336-6.337,0.894-9.141,3.365c-2.815,2.459-2.518,5.865-3.887,8.723c-0.867,1.792-0.743,4.062-0.957,5.335
		c0.937,0.654,1.622,1.119,2.254,1.549c0.039-0.05,0.354-0.473,0.855-1.153c-0.589,2.93,1.733,5.28,4.344,5.112
		c1.322-0.094,2.679,0.372,4.681,0.71c-0.766,0.618-1.253,1.351-1.836,1.414c-1.812,0.203-3.654,0.311-5.448,0.134
		c-3.549-0.392-3.396-0.668-6.343-2.961c-1.962-1.519-3.375-3.207-3.815-5.542c-0.258-1.436-0.673-3.154,1.951-3.154
		c0.746,0,1.74-1.034,2.186-1.815c1.365-2.352,2.451-4.855,3.779-7.236c0.566-1.026,1.607-1.798,2.152-2.817
		c0.433-0.733,0.826-1.907,0.53-2.519c-1.158-2.328-1.334-4.234,0.5-6.432c0.662-0.782,0.583-2.8,0.032-3.849
		c-2.041-3.899-4.886-6.935-9.726-7.183c-2.468-0.128-4.969-0.294-7.443-0.404c-0.36-0.006-0.882,0.059-1.095,0.305
		c-2.865,3.217-6.646,5.723-8,10.112c-0.218,0.751-0.408,1.596-0.284,2.341c0.434,2.713,0.548,5.608,1.659,8.049
		c0.891,1.97,0.734,3.39-0.045,5.125c-0.648,1.442-1.603,2.167-3.171,2.021c-1.479-0.158-2.606,0.159-3.351,1.678
		c-0.244,0.483-1.332,0.753-2.062,0.822c-7.308,0.593-13.265,3.303-16.89,10.163c-0.941,1.795-2.566,3.256-3.927,4.954
		c-0.746-0.811-1.562-1.42-1.966-2.222c-0.354-0.733-0.308-1.709-0.269-2.569c0.071-1.109,0.436-2.197,0.479-3.321
		c0.082-1.742,0.224-3.507-0.062-5.203c-0.503-3.05-2.002-5.369-4.09-7.908c-2.376-2.915-5.349-2.269-7.874-3.241
		c-2.126-0.828-5.044,0.357-7.614,0.717c-1.075,0.148-2.134,0.489-3.17,0.793c-0.431,0.118-0.946,0.297-1.195,0.625
		c-1.038,1.278-2.182,2.515-2.875,3.951c-0.622,1.267-0.947,2.809-0.991,4.227c-0.082,2.802,0.13,5.603,0.168,8.389
		c0.01,0.674-0.168,1.346-0.229,2.039c-0.074,0.735-0.096,1.48,0.355,2.234c0.233-1.499,0.473-3.012,0.703-4.521
		c0.152,0,0.311,0,0.465,0c0,2.313,0,4.606,0,6.921c3.361-0.199,5.605,1.316,6.117,3.861c0.751,3.765-1.266,6.137-6.471,7.705
		c-1.938-4.74-6.913-9.526-8.915-14.235c-1.213-2.879-3.148-4.872-7.198-4.237c0.207-2.177,0.055-4.292,0.667-6.157
		c2.098-6.351,0.644-11.856-3.457-16.842c-0.583-0.703-1.499-1.446-2.328-1.55c-3.473-0.396-6.961-0.975-10.443-0.073
		c-2.055,0.549-5.428,5.604-5.872,8.161c-0.514,2.961-0.639,5.802-0.384,8.485c0.344,3.408-3.806,5.708-4.933,8.553
		c-0.177,0.451-0.61,1.04-0.457,1.348c1.299,2.909-1.188,4.95-2.293,7.533c-0.436,1.018-0.896,2.035-1.359,3.079
		c0.896,0.526,0.713,0.433,2.313,1.353c-0.035,5.32-7.304,3.129-9.569,9.378c-1.237,3.409,4.053,28.807,5.962,40.751V82.871h53.444
		v14.83H93.663v19.361h26.093v14.25H93.663v19.771h34.071v14.313h7.523V82.871h29.279c5.851,0,10.88,0.693,15.074,2.084
		c4.2,1.397,7.661,3.292,10.364,5.723c2.725,2.435,4.722,5.299,6.021,8.607c1.292,3.298,1.939,6.875,1.939,10.713
		c0,4.132-0.664,7.938-1.992,11.396c-1.34,3.453-3.383,6.41-6.105,8.885c-2.729,2.461-6.197,4.395-10.403,5.771
		c-4.183,1.39-9.166,2.101-14.897,2.101h-10.02v27.246h51.734V82.871h19.371v82.527h38.096c-1.701-0.455-3.367-0.976-4.938-1.639
		c-4.783-2.037-8.871-4.89-12.259-8.554c-3.37-3.659-6.003-8.056-7.866-13.185c-1.85-5.125-2.789-10.776-2.789-16.931
		c0-6.155,0.999-11.79,2.996-16.92c1.99-5.125,4.791-9.532,8.405-13.213c3.606-3.692,7.925-6.549,12.961-8.582
		c5.037-2.025,10.591-3.047,16.664-3.047c6.001,0,11.176,0.928,15.521,2.785c4.36,1.871,8.221,4.405,11.601,7.587l-3.602,5.081
		c-0.266,0.37-0.564,0.683-0.902,0.932c-0.343,0.249-0.841,0.355-1.483,0.355c-0.498,0-1.017-0.175-1.572-0.524
		c-0.547-0.371-1.192-0.812-1.958-1.335c-0.764-0.549-1.645-1.119-2.685-1.729c-1.016-0.604-2.232-1.172-3.638-1.696
		c-1.398-0.538-3.042-0.977-4.915-1.338c-1.855-0.376-4.004-0.553-6.429-0.553c-4.358,0-8.355,0.764-11.987,2.259
		c-3.629,1.505-6.752,3.635-9.371,6.41c-2.626,2.764-4.67,6.155-6.127,10.138c-1.462,3.99-2.196,8.471-2.196,13.39
		c0,5.099,0.734,9.628,2.196,13.607c1.457,4.001,3.45,7.377,5.979,10.118c2.526,2.766,5.53,4.854,8.982,6.3
		c3.449,1.45,7.173,2.169,11.157,2.169c2.443,0,4.622-0.146,6.557-0.43c1.936-0.285,3.721-0.725,5.388-1.334
		c1.639-0.604,3.19-1.367,4.611-2.303c1.419-0.936,2.856-2.048,4.309-3.348c0.646-0.562,1.273-0.85,1.879-0.85
		s1.153,0.244,1.644,0.744l4.336,4.73c-3.354,3.871-7.402,6.891-12.167,9.062c-1.679,0.75-3.521,1.336-5.438,1.836h29.854V84.248
		h23.065c5.173,0,9.626,0.514,13.393,1.558c3.762,1.05,6.881,2.562,9.325,4.535c2.449,1.98,4.266,4.36,5.437,7.143
		c1.176,2.799,1.762,5.925,1.762,9.375c0,2.879-0.446,5.582-1.355,8.099c-0.912,2.503-2.236,4.753-3.976,6.744
		c-1.718,2.002-3.826,3.69-6.312,5.101c-2.492,1.414-5.319,2.467-8.468,3.197c1.367,0.805,2.581,1.941,3.65,3.465l23.438,31.934
		h30.735c-1.845-0.459-3.63-0.998-5.351-1.701c-4.938-2.035-9.174-4.896-12.713-8.578c-3.521-3.678-6.256-8.066-8.209-13.182
		c-1.931-5.121-2.9-10.724-2.9-16.845c0-6.108,0.971-11.723,2.9-16.824c1.953-5.118,4.688-9.521,8.209-13.229
		c3.539-3.698,7.773-6.578,12.713-8.629c4.946-2.057,10.415-3.079,16.399-3.079c6.015,0,11.497,1.022,16.453,3.079
		c4.961,2.051,9.195,4.931,12.723,8.629c3.529,3.708,6.275,8.111,8.194,13.229c1.954,5.101,2.928,10.715,2.928,16.824
		c0,6.121-0.974,11.724-2.928,16.845c-1.919,5.114-4.665,9.504-8.194,13.182c-3.526,3.684-7.762,6.543-12.723,8.578
		c-1.724,0.703-3.514,1.242-5.366,1.701h57.083L461.024,84.25h9.174c1.004,0,1.81,0.248,2.456,0.731
		c0.646,0.505,1.088,1.125,1.312,1.876l16.86,56.759c0.312,1.022,0.593,2.129,0.819,3.302c0.257,1.18,0.497,2.413,0.727,3.7
		c0.264-1.287,0.53-2.542,0.785-3.722c0.279-1.201,0.583-2.289,0.932-3.28l19.195-56.759c0.22-0.644,0.656-1.233,1.332-1.792
		c0.662-0.54,1.476-0.816,2.423-0.816h3.19c0.979,0,1.797,0.248,2.432,0.731c0.623,0.505,1.063,1.125,1.33,1.876l19.086,56.759
		c0.686,1.978,1.299,4.22,1.819,6.773c0.238-1.25,0.452-2.433,0.626-3.586c0.202-1.142,0.437-2.197,0.747-3.188l16.933-56.759
		c0.17-0.682,0.611-1.287,1.268-1.815c0.67-0.537,1.471-0.792,2.413-0.792h8.611l-25.313,81.149h32.665v-81.15h30.548
		c6.006,0,11.466,0.964,16.414,2.924c4.922,1.96,9.169,4.738,12.684,8.31c3.55,3.603,6.279,7.905,8.216,12.924
		c1.324,3.396,2.024,7.158,2.435,11.056V90.306C653.143,84.248,647.222,78.586,645.551,76.072z M362.528,163.562l-21.194-29.174
		c-0.636-0.925-1.349-1.578-2.105-1.973c-0.752-0.398-1.903-0.602-3.42-0.602h-8.372v33.582h37.299
		C363.829,165,363.066,164.443,362.528,163.562z M175.366,120.02c2.198-2.379,3.315-5.732,3.315-10.021
		c0-1.903-0.298-3.627-0.865-5.179c-0.565-1.57-1.43-2.9-2.584-4.019c-1.161-1.119-2.631-1.99-4.396-2.589
		c-1.763-0.621-3.862-0.923-6.3-0.923h-10.02v26.318h10.02C169.553,123.605,173.162,122.415,175.366,120.02z M347.501,122.602
		c2.461-0.767,4.522-1.858,6.172-3.293c1.653-1.423,2.891-3.117,3.728-5.093c0.838-1.977,1.257-4.166,1.257-6.556
		c0-4.862-1.611-8.53-4.826-11.001c-3.194-2.468-7.979-3.7-14.328-3.7h-12.067v30.822h11.558
		C342.22,123.779,345.073,123.398,347.501,122.602z"/>
	<text transform="matrix(1 0 0 1 150.0349 211.001)" fill="#FFFFFF" font-family="'Lato-Bold'" font-size="40.4594">RECIFE, BRASIL - 2015</text>
</g>
</svg>
