<?xml version="1.0" encoding="utf-8"?>
<!-- Generator: Adobe Illustrator 16.0.0, SVG Export Plug-In . SVG Version: 6.00 Build 0)  -->
<!DOCTYPE svg PUBLIC "-//W3C//DTD SVG 1.1//EN" "http://www.w3.org/Graphics/SVG/1.1/DTD/svg11.dtd">
<svg version="1.1" id="Layer_1" xmlns="http://www.w3.org/2000/svg" xmlns:xlink="http://www.w3.org/1999/xlink" x="0px" y="0px"
	 width="154.333px" height="50.667px" viewBox="0 0 154.333 50.667" enable-background="new 0 0 154.333 50.667"
	 xml:space="preserve">
<g>
	
		<linearGradient id="SVGID_1_" gradientUnits="userSpaceOnUse" x1="415.9619" y1="383.9678" x2="586.5422" y2="384.9912" gradientTransform="matrix(1 0 0 1 -446 -359.0098)">
		<stop  offset="0.1902" style="stop-color:#7B331D"/>
		<stop  offset="0.205" style="stop-color:#863221"/>
		<stop  offset="0.2328" style="stop-color:#962E26"/>
		<stop  offset="0.2515" style="stop-color:#9C2C28"/>
		<stop  offset="0.3865" style="stop-color:#DE7237"/>
		<stop  offset="0.4908" style="stop-color:#FDBB3E"/>
		<stop  offset="0.5125" style="stop-color:#FDC864"/>
		<stop  offset="0.5379" style="stop-color:#FED588"/>
		<stop  offset="0.5665" style="stop-color:#FEE0A8"/>
		<stop  offset="0.5981" style="stop-color:#FEEAC4"/>
		<stop  offset="0.6338" style="stop-color:#FFF2DA"/>
		<stop  offset="0.6755" style="stop-color:#FFF8EB"/>
		<stop  offset="0.727" style="stop-color:#FFFCF6"/>
		<stop  offset="0.7993" style="stop-color:#FFFEFD"/>
		<stop  offset="1" style="stop-color:#FFFFFF"/>
	</linearGradient>
	<path fill="url(#SVGID_1_)" d="M51.146,2.812L50.32,2.208l-0.826,0.604c-1.908,1.391-3.615,2.936-5.115,4.59
		c-1.496-1.654-3.205-3.193-5.121-4.59l-0.822-0.604l-0.824,0.604c-1.91,1.391-3.619,2.936-5.115,4.59
		c-1.504-1.654-3.211-3.193-5.125-4.59l-0.824-0.604l-0.822,0.604c-1.914,1.391-3.621,2.936-5.117,4.59
		c-1.5-1.654-3.211-3.193-5.125-4.59l-0.82-0.604l-0.824,0.604C11.215,4.726,8.963,6.913,7.125,9.3c0,0-0.996,1.254-1.686,2.428
		c-2.596,4.18-3.998,8.838-3.998,13.607s1.402,9.42,3.998,13.605c0.516,0.828,1.078,1.639,1.686,2.43
		c1.838,2.383,4.09,4.57,6.713,6.486l0.824,0.602l0.82-0.602c1.914-1.395,3.625-2.936,5.125-4.588
		c1.496,1.652,3.203,3.195,5.117,4.588l0.822,0.602l0.824-0.602c1.914-1.395,3.621-2.936,5.125-4.588
		c1.496,1.652,3.205,3.195,5.115,4.588l0.824,0.602l0.822-0.602c1.916-1.395,3.625-2.936,5.121-4.588
		c1.5,1.652,3.207,3.195,5.115,4.588l0.826,0.602l0.826-0.602c7.879-5.742,12.393-13.953,12.393-22.525
		C63.539,16.765,59.025,8.554,51.146,2.812z M38.436,5.692c6.641,5.166,10.424,12.275,10.424,19.639c0,4.75-1.582,9.389-4.48,13.473
		c-0.584-0.826-1.117-1.666-1.59-2.529c-1.877-3.43-2.891-7.152-2.891-10.943s1.014-7.51,2.891-10.936
		c-0.502-0.916-1.197-1.586-1.822-2.449c-1.117,1.799-1.865,3.471-2.525,5.422c-0.92-2.732-2.324-5.348-4.141-7.768
		C35.518,8.204,36.881,6.899,38.436,5.692z M26.547,5.692c6.639,5.166,10.424,12.275,10.424,19.639c0,4.75-1.58,9.389-4.475,13.473
		c-0.588-0.826-1.123-1.666-1.596-2.529c-1.879-3.43-2.889-7.152-2.889-10.943s1.012-7.51,2.889-10.936
		c-0.5-0.916-1.197-1.586-1.822-2.449c-1.115,1.799-1.865,3.471-2.523,5.422c-0.924-2.732-2.326-5.348-4.139-7.768
		C23.635,8.21,25.004,6.892,26.547,5.692z M14.66,44.974c-2.314-1.795-4.268-3.836-5.846-6.033
		c-0.623-0.867-1.188-1.758-1.689-2.666c-1.879-3.43-2.893-7.152-2.893-10.943s1.014-7.51,2.893-10.936c0,0,0.881-1.607,1.689-2.668
		c1.578-2.197,3.531-4.238,5.846-6.035c6.635,5.166,10.424,12.275,10.424,19.639c0,4.75-1.58,9.389-4.477,13.469
		c-0.584-0.822-1.117-1.662-1.594-2.525c-1.881-3.43-2.893-7.152-2.893-10.943s1.012-7.51,2.893-10.936
		c-0.5-0.916-1.199-1.586-1.82-2.449c-2.596,4.18-3.865,8.619-3.865,13.385c0,4.771,1.398,9.424,3.996,13.609
		c0.455,0.727,0.951,1.441,1.477,2.139C17.582,42.472,16.199,43.776,14.66,44.974z M26.547,44.974
		c-1.543-1.197-2.912-2.512-4.135-3.906c1.816-2.422,3.221-5.039,4.143-7.766c0.658,1.947,1.541,3.836,2.662,5.639
		c0.451,0.727,0.949,1.443,1.473,2.143C29.471,42.472,28.09,43.776,26.547,44.974z M38.436,44.974
		c-1.545-1.197-2.912-2.512-4.137-3.906c1.82-2.424,3.223-5.039,4.143-7.766c0.66,1.947,1.541,3.836,2.658,5.639
		c0.455,0.727,0.951,1.443,1.48,2.143C41.354,42.472,39.98,43.776,38.436,44.974z M50.32,44.974
		c-1.539-1.197-2.912-2.512-4.131-3.906c3.529-4.701,5.467-10.141,5.467-15.736c0-5.592-1.938-11.031-5.467-15.73
		c1.219-1.391,2.59-2.709,4.131-3.908c6.643,5.166,10.426,12.275,10.426,19.639C60.746,32.7,56.963,39.808,50.32,44.974z"/>
	<g>
		<path fill="#7A1600" d="M81.406,16.79c-0.76-0.508-1.1-0.641-1.605-0.641c-0.678,0-1.15,0.387-1.15,0.928
			c0,0.422,0.27,0.693,1.066,1.031l1.098,0.475c0.912,0.387,1.389,1.082,1.389,1.994c0,1.32-1.119,2.32-2.623,2.32
			c-1.033,0-1.896-0.375-2.605-1.135l0.709-0.932c0.678,0.66,1.287,0.967,1.982,0.967c0.707,0,1.232-0.441,1.232-1.051
			c0-0.473-0.238-0.711-1.049-1.049c-1.945-0.793-2.436-1.268-2.436-2.4c0-1.287,1.049-2.283,2.369-2.283
			c0.758,0,1.453,0.238,2.146,0.742L81.406,16.79z"/>
		<path fill="#7A1600" d="M85.324,10.854v4.988c0,1.287,0,1.555-0.068,2.707l0.053,0.018c0.707-0.781,0.877-0.949,1.74-1.777
			l1.709-1.656l1.369,0.27l-2.723,2.605c-0.084,0.084-0.186,0.15-0.424,0.371c0.27,0.287,0.373,0.408,0.492,0.539l3.127,3.789
			h-1.672l-2.723-3.314c-0.104-0.117-0.135-0.152-0.203-0.305c-0.07,0.137-0.102,0.17-0.221,0.271l-0.457,0.406v2.941h-1.387V10.854
			H85.324z"/>
		<path fill="#7A1600" d="M98.525,18.97c0,2.301-1.57,3.926-3.803,3.926c-2.25,0-3.84-1.625-3.84-3.891
			c0-2.316,1.623-3.99,3.871-3.99C96.92,15.015,98.525,16.688,98.525,18.97z M92.336,18.769c0,1.727,1.084,3.025,2.52,3.025
			c1.32,0,2.217-1.062,2.217-2.604c0-1.742-1.049-3.027-2.469-3.027C93.252,16.163,92.336,17.212,92.336,18.769z"/>
		<path fill="#7A1600" d="M101.764,10.854v11.854h-1.389V10.854H101.764z"/>
		<path fill="#7A1600" d="M105.457,10.854v11.854h-1.389V10.854H105.457z"/>
		<path fill="#7A1600" d="M110.73,20.526c-0.287,0.289-0.389,0.475-0.389,0.744c0,0.357,0.305,0.541,1.102,0.711l2.248,0.457
			c1.115,0.221,1.861,1.064,1.861,2.115c0,1.672-1.541,2.857-3.723,2.857c-2.01,0-3.432-1-3.432-2.42
			c0-0.963,0.625-1.641,1.994-2.146v-0.068c-0.811-0.271-1.115-0.592-1.115-1.166c0-0.525,0.27-0.898,0.98-1.336l0.051-0.035
			l-0.016-0.035c-0.982-0.473-1.475-1.299-1.475-2.451c0-1.656,1.252-2.789,3.096-2.789c0.492,0,0.795,0.068,1.354,0.27h2.688v0.93
			l-0.945-0.1c-0.457-0.035-0.592-0.068-1.016-0.188l-0.033,0.051c0.76,0.711,0.965,1.133,0.965,1.963
			c0,1.605-1.234,2.758-2.977,2.758c-0.473,0-0.795-0.053-1.166-0.17L110.73,20.526z M111.021,23.116
			c-0.896,0.438-1.32,0.98-1.32,1.658c0,0.93,1.016,1.639,2.352,1.639c1.318,0,2.197-0.625,2.197-1.557
			c0-0.795-0.49-1.184-1.826-1.453L111.021,23.116z M110.189,17.753c0,1.252,0.643,1.996,1.693,1.996
			c1.049,0,1.674-0.674,1.674-1.826c0-1.234-0.693-2.062-1.74-2.062C110.799,15.86,110.189,16.571,110.189,17.753z"/>
		<path fill="#7A1600" d="M118.756,10.854v11.854h-1.387V10.854H118.756z"/>
		<path fill="#7A1600" d="M128.24,18.97c0,2.301-1.572,3.926-3.805,3.926c-2.25,0-3.838-1.625-3.838-3.891
			c0-2.316,1.621-3.99,3.871-3.99C126.633,15.015,128.24,16.688,128.24,18.97z M122.049,18.769c0,1.727,1.086,3.025,2.521,3.025
			c1.32,0,2.215-1.062,2.215-2.604c0-1.742-1.047-3.027-2.467-3.027C122.965,16.163,122.049,17.212,122.049,18.769z"/>
		<path fill="#7A1600" d="M131.453,10.854v3.078c0,0.93,0,1.133-0.068,1.961l0.035,0.016c0.844-0.605,1.352-0.793,2.115-0.793
			c1.926,0,3.363,1.623,3.363,3.789c0,2.365-1.605,3.99-3.924,3.99c-1.031,0-1.658-0.17-2.906-0.828V10.854H131.453z
			 M131.453,20.274c0,0.541,0,0.625-0.068,1.082c0.609,0.354,1.016,0.473,1.59,0.473c1.488,0,2.451-1.064,2.451-2.723
			c0-1.674-0.963-2.809-2.383-2.809c-0.662,0-1.049,0.154-1.658,0.611c0.068,0.455,0.068,0.557,0.068,1.08V20.274L131.453,20.274z"
			/>
		<path fill="#7A1600" d="M138.596,15.86c1.051-0.576,1.811-0.795,2.705-0.795c0.799,0,1.51,0.271,1.93,0.725
			c0.355,0.391,0.525,1.018,0.525,2.049v2.451c0,0.846,0,0.865,0.066,1.1c0.068,0.307,0.336,0.49,0.66,0.49
			c0.1,0,0.289-0.033,0.439-0.068l-0.203,0.982c-0.27,0.068-0.424,0.084-0.676,0.084c-0.83,0-1.254-0.287-1.471-0.98
			c-0.863,0.744-1.441,1-2.268,1c-1.285,0-2.148-0.848-2.148-2.133c0-1.689,1.271-2.502,4.279-2.756
			c-0.051-0.104-0.068-0.17-0.068-0.289v-0.135c0-0.928-0.424-1.371-1.299-1.371c-0.73,0-1.305,0.205-2.473,0.846V15.86
			L138.596,15.86z M142.367,19.548c0-0.34,0-0.408,0.068-0.713c-2.115,0.305-2.91,0.812-2.91,1.877c0,0.678,0.492,1.117,1.252,1.117
			c0.523,0,0.795-0.1,1.59-0.574V19.548z"/>
		<path fill="#7A1600" d="M147.693,10.854v11.854h-1.387V10.854H147.693z"/>
		<path fill="#7A1600" d="M77.646,33.165h-1.709c-0.184,0-0.219,0-0.389-0.053c0.051,0.17,0.051,0.207,0.051,0.391v3.619
			c0,1.148,0.238,1.473,1.066,1.473c0.422,0,0.744-0.068,1.336-0.307l0.201,0.932c-0.623,0.338-1.234,0.488-1.977,0.488
			c-0.746,0-1.473-0.318-1.727-0.777c-0.236-0.404-0.287-0.811-0.287-2.027v-3.4c0-0.184,0-0.219,0.051-0.391
			c-0.168,0.053-0.203,0.053-0.391,0.053h-1.25v-0.828c1.912-0.102,1.928-0.137,2.234-2.299h0.861l-0.104,1.773
			c0,0.17-0.016,0.221-0.064,0.391c0.168-0.051,0.203-0.051,0.387-0.051h1.709V33.165L77.646,33.165z"/>
		<path fill="#7A1600" d="M80.926,27.769v2.707c0,1.334-0.016,1.605-0.084,2.807l0.049,0.016c0.779-0.98,1.508-1.367,2.52-1.367
			c1.473,0,2.521,1.1,2.521,2.656v5.037h-1.389v-4.479c0-0.797-0.084-1.186-0.318-1.488c-0.273-0.357-0.73-0.576-1.219-0.576
			c-0.777,0-1.389,0.338-2.08,1.184v5.359h-1.387V27.771h1.387V27.769L80.926,27.769z"/>
		<path fill="#7A1600" d="M89.549,33.876c0.66-1.303,1.336-1.945,2.062-1.945c0.373,0,0.592,0.051,1.184,0.287l-0.338,1.166
			c-0.508-0.17-0.678-0.201-0.91-0.201c-0.662,0-1.221,0.455-1.93,1.555v4.887H88.23v-4.479c0-1.877-0.086-2.318-0.51-2.725
			l1.168-0.49c0.406,0.338,0.541,0.797,0.592,1.945H89.549L89.549,33.876z"/>
		<path fill="#7A1600" d="M95.121,35.786c-0.154,0-0.188,0-0.307-0.066c0.018,1.791,0.949,2.875,2.504,2.875
			c0.795,0,1.508-0.289,2.047-0.828l0.711,0.725c-0.828,0.898-1.777,1.32-3.012,1.32c-2.146,0-3.619-1.572-3.619-3.889
			c0-2.318,1.539-3.992,3.637-3.992c1.793,0,2.994,1.25,2.994,3.078l-0.645,0.779L95.121,35.786L95.121,35.786z M98.283,34.872
			c0.27,0,0.322,0,0.559,0.068c-0.102-1.199-0.828-1.945-1.93-1.945c-1.084,0-1.844,0.709-2.08,1.945
			c0.391-0.068,0.475-0.068,0.914-0.068H98.283z"/>
		<path fill="#7A1600" d="M101.773,32.776c1.051-0.576,1.809-0.795,2.707-0.795c0.793,0,1.504,0.27,1.928,0.727
			c0.354,0.389,0.523,1.014,0.523,2.047v2.451c0,0.846,0,0.863,0.066,1.1c0.07,0.305,0.34,0.49,0.662,0.49
			c0.1,0,0.285-0.033,0.439-0.068l-0.203,0.98c-0.271,0.068-0.424,0.086-0.678,0.086c-0.826,0-1.25-0.289-1.473-0.98
			c-0.861,0.744-1.436,0.998-2.266,0.998c-1.283,0-2.148-0.846-2.148-2.131c0-1.691,1.27-2.504,4.279-2.758
			c-0.051-0.1-0.066-0.168-0.066-0.285v-0.137c0-0.93-0.422-1.371-1.303-1.371c-0.725,0-1.303,0.203-2.469,0.848V32.776
			L101.773,32.776L101.773,32.776z M105.545,36.462c0-0.338,0-0.404,0.068-0.711c-2.117,0.307-2.908,0.814-2.908,1.877
			c0,0.678,0.488,1.117,1.25,1.117c0.525,0,0.797-0.1,1.59-0.576V36.462L105.545,36.462z"/>
		<path fill="#7A1600" d="M113.287,33.165h-1.707c-0.186,0-0.219,0-0.387-0.053c0.049,0.17,0.049,0.207,0.049,0.391v3.619
			c0,1.148,0.236,1.473,1.064,1.473c0.424,0,0.746-0.068,1.34-0.307l0.199,0.932c-0.625,0.338-1.232,0.488-1.979,0.488
			s-1.471-0.318-1.725-0.777c-0.236-0.404-0.287-0.811-0.287-2.027v-3.4c0-0.184,0-0.219,0.051-0.391
			c-0.17,0.053-0.203,0.053-0.391,0.053h-1.25v-0.828c1.912-0.102,1.926-0.137,2.234-2.299h0.861l-0.104,1.773
			c0,0.17-0.016,0.221-0.064,0.391c0.17-0.051,0.201-0.051,0.387-0.051h1.709L113.287,33.165L113.287,33.165z"/>
		<path fill="#7A1600" d="M119.146,33.704c-0.76-0.504-1.098-0.641-1.605-0.641c-0.678,0-1.15,0.389-1.15,0.93
			c0,0.424,0.271,0.693,1.066,1.031l1.1,0.475c0.91,0.389,1.389,1.082,1.389,1.994c0,1.32-1.121,2.318-2.625,2.318
			c-1.031,0-1.896-0.371-2.607-1.135l0.711-0.928c0.678,0.658,1.287,0.963,1.98,0.963c0.709,0,1.236-0.439,1.236-1.047
			c0-0.475-0.238-0.711-1.051-1.051c-1.945-0.793-2.436-1.268-2.436-2.4c0-1.285,1.047-2.283,2.369-2.283
			c0.758,0,1.455,0.238,2.145,0.744L119.146,33.704z"/>
		<path fill="#7A1600" d="M127.047,32.927h-1.727c-0.186,0-0.217,0-0.371-0.031c0.033,0.152,0.033,0.184,0.033,0.371v6.408h-0.963
			v-6.408c0-0.188,0-0.219,0.033-0.371c-0.154,0.031-0.184,0.031-0.371,0.031h-1.25V32.2h1.25c0.188,0,0.217,0,0.371,0.035
			c-0.033-0.154-0.033-0.188-0.033-0.373v-0.879c0-2.199,1.1-3.383,3.145-3.383c0.238,0,0.404,0.018,0.66,0.068l-0.117,0.793
			c-0.236-0.064-0.355-0.084-0.592-0.084c-1.473,0-2.133,0.812-2.133,2.623v0.861c0,0.186,0,0.219-0.033,0.371
			c0.152-0.033,0.186-0.033,0.371-0.033h1.727V32.927L127.047,32.927z"/>
		<path fill="#7A1600" d="M134.443,37.562c0,1.219,0.104,1.469,0.645,1.469c0.117,0,0.334-0.031,0.539-0.1l-0.119,0.693
			c-0.27,0.102-0.453,0.137-0.693,0.137c-0.76,0-1.133-0.355-1.219-1.117l-0.029-0.016c-0.846,0.826-1.521,1.148-2.521,1.148
			c-0.811,0-1.607-0.355-2.029-0.93c-0.355-0.473-0.473-1.016-0.473-2.131v-4.6h0.963v4.58c0,1.592,0.543,2.252,1.842,2.252
			c0.797,0,1.305-0.236,2.133-1v-5.832h0.963V37.562L134.443,37.562z"/>
		<path fill="#7A1600" d="M138.049,33.403c0.846-1,1.574-1.406,2.57-1.406c1.521,0,2.52,1.066,2.52,2.689v4.988h-0.965v-4.514
			c0-0.965-0.084-1.354-0.389-1.709c-0.336-0.389-0.846-0.625-1.387-0.625c-0.861,0-1.523,0.355-2.281,1.219v5.629h-0.965v-4.852
			c0-1.539-0.104-2.047-0.527-2.436l0.814-0.391c0.355,0.355,0.49,0.693,0.559,1.387L138.049,33.403z"/>
		<path fill="#7A1600" d="M151.711,37.562c0,1.234,0.1,1.469,0.643,1.469c0.115,0,0.254-0.014,0.539-0.1l-0.117,0.693
			c-0.287,0.102-0.459,0.137-0.695,0.137c-0.676,0-1.082-0.307-1.234-0.914c-0.777,0.658-1.453,0.93-2.334,0.93
			c-1.994,0-3.414-1.555-3.414-3.719c0-2.316,1.553-3.992,3.703-3.992c0.693,0,1.168,0.135,1.98,0.576l0.029-0.018
			c-0.066-0.83-0.066-1.033-0.066-1.945v-3.027h0.967V37.562L151.711,37.562z M150.746,34.804c0-0.574,0-0.691,0.051-1.199
			c-0.713-0.543-1.236-0.746-1.945-0.746c-1.59,0-2.721,1.305-2.721,3.098c0,1.756,1.098,2.992,2.654,2.992
			c0.764,0,1.25-0.205,2.014-0.812c-0.053-0.473-0.053-0.594-0.053-1.15V34.804L150.746,34.804z"/>
	</g>
	<g>
		<path fill="#7A1600" d="M61.076,5.649c-0.383,0.385-0.848,0.58-1.391,0.58c-0.545,0-1.008-0.195-1.391-0.58
			c-0.379-0.385-0.568-0.848-0.568-1.395c0-0.541,0.191-1.002,0.576-1.385c0.381-0.383,0.842-0.574,1.383-0.574
			c0.543,0,1.008,0.191,1.391,0.574c0.385,0.379,0.576,0.842,0.576,1.385C61.652,4.8,61.461,5.265,61.076,5.649z M58.492,3.062
			c-0.33,0.33-0.494,0.729-0.494,1.195c0,0.473,0.164,0.875,0.49,1.207c0.328,0.332,0.729,0.496,1.197,0.496
			s0.867-0.164,1.195-0.496c0.33-0.332,0.492-0.734,0.492-1.207c0-0.467-0.162-0.865-0.492-1.195
			c-0.33-0.332-0.729-0.498-1.195-0.498C59.221,2.563,58.822,2.729,58.492,3.062z M59.648,3.171c0.266,0,0.463,0.025,0.588,0.078
			c0.223,0.092,0.334,0.275,0.334,0.545c0,0.193-0.068,0.336-0.209,0.426c-0.076,0.049-0.18,0.084-0.312,0.105
			c0.168,0.025,0.293,0.096,0.371,0.213c0.076,0.113,0.117,0.225,0.117,0.332v0.158c0,0.051,0,0.104,0.006,0.16
			c0.002,0.057,0.01,0.094,0.018,0.113l0.014,0.025h-0.357c-0.002-0.006-0.002-0.014-0.004-0.021
			c-0.002-0.006-0.004-0.014-0.004-0.023l-0.01-0.07v-0.17c0-0.248-0.068-0.412-0.203-0.494c-0.08-0.045-0.223-0.068-0.422-0.068
			h-0.301v0.848h-0.381V3.171H59.648z M60.059,3.511c-0.096-0.053-0.25-0.08-0.461-0.08h-0.324v0.781h0.344
			c0.16,0,0.281-0.016,0.361-0.047c0.148-0.061,0.223-0.172,0.223-0.338C60.201,3.669,60.154,3.563,60.059,3.511z"/>
	</g>
</g>
</svg>
