<?xml version="1.0" encoding="utf-8"?>
<!-- Generator: Adobe Illustrator 16.0.0, SVG Export Plug-In . SVG Version: 6.00 Build 0)  -->
<!DOCTYPE svg PUBLIC "-//W3C//DTD SVG 1.1//EN" "http://www.w3.org/Graphics/SVG/1.1/DTD/svg11.dtd">
<svg version="1.1" id="Layer_1" xmlns="http://www.w3.org/2000/svg" xmlns:xlink="http://www.w3.org/1999/xlink" x="0px" y="0px"
	 width="4961.008px" height="1007.798px" viewBox="0 0 4961.008 1007.798" enable-background="new 0 0 4961.008 1007.798"
	 xml:space="preserve">
<g>
	<path fill="#314550" d="M266.139,132.392l-0.37,0.161c-63.25,28.752-112.681,74.904-146.917,137.174l-0.469,0.945
		C96.464,319.99,85.35,365.599,85.35,406.234c0,32.303,7.392,70.392,21.971,113.211l0.212,0.575
		c9.72,24.535,26.449,52.013,49.72,81.67l0.37,0.472l0.414,0.434c64.735,67.952,139.008,102.406,220.755,102.406h181.599v-54.292
		H400.096c-44.527,0-79.456-5.865-103.821-17.433l-0.928-0.396c-42.418-16.088-79.399-45.426-109.921-87.207
		c-21.829-34.717-35.751-71.536-41.478-109.631h301.088v-55.624H144.083l0.762-5.713c6.1-40.509,20.977-77.543,44.215-110.077
		c26.426-33.344,56.534-58.657,89.497-75.244c32.919-16.564,69.779-24.964,109.555-24.964h172.279v-56.955H392.107
		C348.261,107.466,305.879,115.852,266.139,132.392"/>
	<path fill="#314550" d="M1092.101,142.833l-0.464-0.437l-0.506-0.389c-29.846-22.92-65.558-34.541-106.142-34.541H674.238v597.536
		h55.624V436.043h268.441c8.98,0,23.786-2.27,45.265-6.942l1.103-0.24l1.042-0.434c38.256-15.918,67.213-41.531,86.064-76.129
		l0.524-0.962l0.349-1.039c13.558-40.372,15.296-52.508,15.296-58.57v-44.146l-8.377-33.51
		C1133.673,190.98,1117.702,167.012,1092.101,142.833 M1094.985,271.643c0,24.465-6.392,46.418-19,65.258
		c-22.509,29.283-48.357,43.518-79.013,43.518h-267.11v-214.92h216.514l41.377-0.329l0.442-0.011
		c11.373-0.485,24.352,1.514,38.65,5.956c2.488,0.772,11.455,4.68,13.32,5.787C1077.035,198.769,1094.985,229.831,1094.985,271.643"
		/>
	<rect x="1262.087" y="107.467" fill="#314550" width="54.292" height="597.536"/>
	<polygon fill="#314550" points="1431.935,163.09 1642.307,163.09 1642.307,705.002 1697.931,705.002 1697.931,163.09 
		1906.974,163.09 1906.974,107.466 1431.935,107.466 	"/>
	<path fill="#314550" d="M2978.972,148.167l-0.498-0.315c-36.352-21.76-75.814-34.438-117.289-37.685l-0.657-0.051l-0.657,0.018
		c-44.472,1.203-54.098,2.958-58.127,4.527c-55.49,11.613-97.955,32.405-126.228,61.808
		c-45.657,45.932-68.805,106.212-68.805,179.156l-0.345,349.377h57.301V437.375h362.461v267.628h55.623v-362.68
		C3081.751,258.808,3047.172,193.485,2978.972,148.167 M3026.128,339.661v43.422h-363.793V356.97
		c0-51.029,15.106-94.424,44.899-128.98c17.415-20.196,38.12-35.542,61.542-45.609c23.58-10.136,50.713-15.282,80.653-15.296
		c40.994,0.853,81.704,15.508,121.017,43.558C3007.394,249.983,3026.128,293.387,3026.128,339.661"/>
	<path fill="#314550" d="M3376.389,132.392l-0.37,0.161c-63.251,28.752-112.681,74.904-146.917,137.174l-0.47,0.945
		c-21.919,49.318-33.032,94.926-33.032,135.562c0,32.306,7.394,70.395,21.971,113.211l0.211,0.575
		c9.722,24.536,26.45,52.014,49.72,81.67l0.371,0.472l0.412,0.434c64.737,67.952,139.01,102.406,220.756,102.406h181.6v-54.292
		h-160.295c-49.896,0-72.354-5.832-82.408-10.724l-1.487-0.724l-1.625-0.312c-25.468-4.888-55.272-20.932-88.594-47.687
		c-27.838-27.185-48.979-56.301-62.843-86.547c-13.824-30.161-20.833-62.399-20.833-95.819c0-49.705,14.891-96.975,44.264-140.508
		c26.316-34.592,56.574-60.855,89.937-78.062c33.33-17.19,70.881-25.907,111.606-25.907h172.278v-56.955h-168.283
		C3458.509,107.466,3416.128,115.852,3376.389,132.392"/>
	<path fill="#314550" d="M2445.428,704.334h63.17l-154.435-269.409c44.031-4.823,80.53-25.243,108.711-60.883l0.267-0.352
		c14.65-19.937,24.82-46.837,30.225-79.95l0.163-1v-39.627c0-14.723-5.125-33.763-15.667-58.209l-0.139-0.308
		c-9.172-19.78-23.261-37.796-41.879-53.548l-0.779-0.609c-30.446-21.879-62.02-32.973-93.841-32.973h-321.403v597.536h55.624
		V436.043h215.183c10.194,16.397,46.487,78.508,151.584,262.655L2445.428,704.334z M2075.446,380.419V161.758h264.447
		c19.111,0,40.24,7.62,62.816,22.651c25.474,23.587,37.86,52.168,37.86,87.345c0,28.463-9.029,52.8-27.602,74.402l-0.605,0.762
		c-16.288,22.23-47.39,33.501-92.44,33.501H2075.446z"/>
	<path fill="#FBB040" d="M4424.077,176.256l-56.625-56.625c-6.082-6.083-15.945-6.083-22.027,0l-238.729,238.73
		c-6.083,6.082-6.083,15.944,0,22.027l56.625,56.625c6.082,6.083,15.944,6.083,22.026,0l238.73-238.73
		C4430.16,192.2,4430.16,182.339,4424.077,176.256"/>
	<path fill="#00AEEF" d="M4656.53,181.419l-55.871-55.871c-6.291-6.291-16.49-6.291-22.781,0l-351.121,351.121
		c-6.291,6.29-6.291,16.49,0,22.781l55.871,55.871c6.291,6.291,16.49,6.291,22.781,0L4656.53,204.2
		C4662.82,197.909,4662.82,187.71,4656.53,181.419"/>
	<path fill="#8DC63F" d="M4897.433,176.334l-55.84-55.839c-6.299-6.3-16.514-6.3-22.812,0l-474.083,474.082
		c-6.299,6.3-6.299,16.514,0,22.812l55.839,55.839c6.301,6.301,16.514,6.301,22.813,0l474.083-474.082
		C4903.732,192.847,4903.732,182.634,4897.433,176.334"/>
	<path fill="#314550" d="M4241.699,145.148l-28.296-27.251c-6.014-5.792-15.559-5.703-21.463,0.202l-349.83,349.829V107.466h-55.623
		v597.536h55.623v-158.19c17.289-19.057,61.715-63.848,132.3-133.384l302.853,289.725l33.885-33.887l-295.004-297.447
		L4241.699,145.148z"/>
	<path fill="#314550" d="M2036.888,900.431c0.326,19.43,12.734,27.43,27.102,27.43c10.287,0,16.49-1.796,21.878-4.082l2.45,10.286
		c-5.063,2.285-13.715,4.897-26.287,4.897c-24.327,0-38.858-16-38.858-39.838c0-23.836,14.041-42.613,37.063-42.613
		c25.795,0,32.652,22.695,32.652,37.227c0,2.938-0.326,5.224-0.488,6.693H2036.888z M2079.011,890.145
		c0.162-9.144-3.756-23.348-19.92-23.348c-14.529,0-20.898,13.389-22.041,23.348H2079.011z"/>
	<polygon fill="#314550" points="2151.505,827.288 2151.505,873.329 2204.732,873.329 2204.732,827.288 2219.099,827.288 
		2219.099,937.331 2204.732,937.331 2204.732,885.737 2151.505,885.737 2151.505,937.331 2137.3,937.331 2137.3,827.288 	"/>
	<path fill="#314550" d="M2277.39,900.431c0.326,19.43,12.734,27.43,27.102,27.43c10.287,0,16.49-1.796,21.878-4.082l2.45,10.286
		c-5.063,2.285-13.715,4.897-26.287,4.897c-24.327,0-38.858-16-38.858-39.838c0-23.836,14.041-42.613,37.063-42.613
		c25.795,0,32.652,22.695,32.652,37.227c0,2.938-0.326,5.224-0.488,6.693H2277.39z M2319.513,890.145
		c0.162-9.144-3.756-23.348-19.92-23.348c-14.529,0-20.898,13.389-22.041,23.348H2319.513z"/>
	<path fill="#314550" d="M2421.069,937.33l-1.143-9.959h-0.49c-4.408,6.204-12.898,11.755-24.164,11.755
		c-16,0-24.164-11.266-24.164-22.693c0-19.104,16.981-29.552,47.512-29.389v-1.634c0-6.529-1.797-18.286-17.959-18.286
		c-7.348,0-15.021,2.286-20.572,5.879l-3.266-9.471c6.531-4.245,16-7.02,25.959-7.02c24.164,0,30.041,16.49,30.041,32.327v29.552
		c0,6.857,0.328,13.551,1.307,18.938H2421.069z M2418.946,897.002c-15.674-0.326-33.471,2.448-33.471,17.797
		c0,9.307,6.205,13.715,13.553,13.715c10.285,0,16.816-6.532,19.102-13.226c0.49-1.47,0.816-3.102,0.816-4.571V897.002z"/>
	<rect x="2482.136" y="821.409" fill="#314550" width="14.367" height="115.921"/>
	<path fill="#314550" d="M2564.099,835.614v22.693h20.57v10.94h-20.57v42.612c0,9.797,2.775,15.348,10.775,15.348
		c3.754,0,6.529-0.49,8.326-0.98l0.652,10.777c-2.775,1.142-7.184,1.959-12.734,1.959c-6.693,0-12.081-2.123-15.51-6.041
		c-4.082-4.246-5.553-11.266-5.553-20.573v-43.102h-12.244v-10.94h12.244V839.37L2564.099,835.614z"/>
	<path fill="#314550" d="M2626.958,821.409h14.367v49.309h0.328c2.285-4.082,5.877-7.674,10.285-10.123
		c4.244-2.45,9.307-4.082,14.693-4.082c10.613,0,27.594,6.531,27.594,33.796v47.022h-14.369v-45.39
		c0-12.734-4.734-23.511-18.285-23.511c-9.307,0-16.654,6.531-19.266,14.368c-0.816,1.96-0.98,4.082-0.98,6.856v47.676h-14.367
		V821.409z"/>
	<path fill="#314550" d="M2805.905,937.331v-68.083h-11.102v-10.939h11.102v-3.755c0-11.104,2.449-21.225,9.143-27.593
		c5.389-5.226,12.572-7.348,19.266-7.348c5.062,0,9.471,1.144,12.246,2.285l-1.959,11.104c-2.123-0.98-5.062-1.796-9.145-1.796
		c-12.244,0-15.346,10.774-15.346,22.856v4.246h19.102v10.939h-19.102v68.083H2805.905z"/>
	<path fill="#314550" d="M2947.626,897.167c0,29.224-20.244,41.96-39.348,41.96c-21.389,0-37.879-15.674-37.879-40.655
		c0-26.449,17.307-41.96,39.186-41.96C2932.278,856.511,2947.626,873.002,2947.626,897.167 M2884.931,897.983
		c0,17.307,9.959,30.367,24,30.367c13.715,0,24.002-12.897,24.002-30.694c0-13.389-6.695-30.367-23.674-30.367
		C2892.278,867.289,2884.931,882.961,2884.931,897.983"/>
	<path fill="#314550" d="M2991.876,882.961c0-9.307-0.162-17.307-0.652-24.653h12.57l0.49,15.51h0.655
		c3.591-10.612,12.243-17.306,21.876-17.306c1.633,0,2.775,0.163,4.082,0.49v13.551c-1.469-0.326-2.939-0.489-4.898-0.489
		c-10.123,0-17.307,7.673-19.266,18.449c-0.326,1.959-0.652,4.245-0.652,6.694v42.122h-14.205V882.961z"/>
	<path fill="#314550" d="M3131.476,937.331c0.326-5.389,0.654-13.389,0.654-20.408V821.41h14.203v49.634h0.326
		c5.062-8.817,14.205-14.532,26.939-14.532c19.594,0,33.471,16.328,33.309,40.329c0,28.245-17.797,42.286-35.43,42.286
		c-11.43,0-20.572-4.408-26.449-14.858h-0.49l-0.654,13.062H3131.476z M3146.333,905.657c0,1.796,0.326,3.592,0.654,5.225
		c2.775,9.959,11.102,16.816,21.551,16.816c15.021,0,24-12.245,24-30.368c0-15.837-8.162-29.39-23.51-29.39
		c-9.797,0-18.939,6.695-21.879,17.635c-0.326,1.632-0.816,3.592-0.816,5.877V905.657z"/>
	<path fill="#314550" d="M3259.155,900.431c0.326,19.43,12.734,27.43,27.102,27.43c10.287,0,16.49-1.796,21.879-4.082l2.449,10.286
		c-5.062,2.285-13.715,4.897-26.287,4.897c-24.326,0-38.857-16-38.857-39.838c0-23.836,14.041-42.613,37.062-42.613
		c25.795,0,32.652,22.695,32.652,37.227c0,2.938-0.326,5.224-0.488,6.693H3259.155z M3301.278,890.145
		c0.162-9.144-3.756-23.348-19.92-23.348c-14.529,0-20.898,13.389-22.041,23.348H3301.278z"/>
	<path fill="#314550" d="M3376.386,835.614v22.693h20.57v10.94h-20.57v42.612c0,9.797,2.775,15.348,10.775,15.348
		c3.754,0,6.529-0.49,8.326-0.98l0.652,10.777c-2.775,1.142-7.184,1.959-12.734,1.959c-6.693,0-12.081-2.123-15.51-6.041
		c-4.082-4.246-5.553-11.266-5.553-20.573v-43.102h-12.244v-10.94h12.244V839.37L3376.386,835.614z"/>
	<path fill="#314550" d="M3456.552,835.614v22.693h20.572v10.94h-20.572v42.612c0,9.797,2.775,15.348,10.775,15.348
		c3.756,0,6.531-0.49,8.328-0.98l0.652,10.777c-2.775,1.142-7.184,1.959-12.734,1.959c-6.695,0-12.082-2.123-15.512-6.041
		c-4.082-4.246-5.551-11.266-5.551-20.573v-43.102h-12.246v-10.94h12.246V839.37L3456.552,835.614z"/>
	<path fill="#314550" d="M3526.433,900.431c0.326,19.43,12.736,27.43,27.104,27.43c10.285,0,16.49-1.796,21.877-4.082l2.449,10.286
		c-5.061,2.285-13.715,4.897-26.285,4.897c-24.328,0-38.859-16-38.859-39.838c0-23.836,14.041-42.613,37.062-42.613
		c25.797,0,32.654,22.695,32.654,37.227c0,2.938-0.326,5.224-0.49,6.693H3526.433z M3568.556,890.145
		c0.164-9.144-3.754-23.348-19.918-23.348c-14.531,0-20.898,13.389-22.041,23.348H3568.556z"/>
	<path fill="#314550" d="M3626.356,882.961c0-9.307-0.162-17.307-0.652-24.653h12.57l0.49,15.51h0.655
		c3.591-10.612,12.243-17.306,21.876-17.306c1.633,0,2.775,0.163,4.082,0.49v13.551c-1.469-0.326-2.939-0.489-4.898-0.489
		c-10.123,0-17.307,7.673-19.266,18.449c-0.326,1.959-0.652,4.245-0.652,6.694v42.122h-14.205V882.961z"/>
	<polygon fill="#314550" points="3781.304,827.288 3781.304,873.329 3834.528,873.329 3834.528,827.288 3848.896,827.288 
		3848.896,937.331 3834.528,937.331 3834.528,885.737 3781.304,885.737 3781.304,937.331 3767.099,937.331 3767.099,827.288 	"/>
	<path fill="#314550" d="M3907.187,900.431c0.326,19.43,12.736,27.43,27.104,27.43c10.285,0,16.49-1.796,21.877-4.082l2.449,10.286
		c-5.061,2.285-13.715,4.897-26.285,4.897c-24.328,0-38.859-16-38.859-39.838c0-23.836,14.041-42.613,37.062-42.613
		c25.797,0,32.654,22.695,32.654,37.227c0,2.938-0.326,5.224-0.49,6.693H3907.187z M3949.31,890.145
		c0.164-9.144-3.754-23.348-19.918-23.348c-14.531,0-20.898,13.389-22.041,23.348H3949.31z"/>
	<path fill="#314550" d="M4050.866,937.33l-1.143-9.959h-0.49c-4.408,6.204-12.898,11.755-24.164,11.755
		c-16,0-24.162-11.266-24.162-22.693c0-19.104,16.979-29.552,47.51-29.389v-1.634c0-6.529-1.795-18.286-17.959-18.286
		c-7.348,0-15.021,2.286-20.572,5.879l-3.266-9.471c6.531-4.245,16.002-7.02,25.961-7.02c24.164,0,30.041,16.49,30.041,32.327
		v29.552c0,6.857,0.326,13.551,1.307,18.938H4050.866z M4048.745,897.002c-15.674-0.326-33.471,2.448-33.471,17.797
		c0,9.307,6.203,13.715,13.551,13.715c10.285,0,16.816-6.532,19.104-13.226c0.488-1.47,0.816-3.102,0.816-4.571V897.002z"/>
	<rect x="4111.933" y="821.409" fill="#314550" width="14.367" height="115.921"/>
	<path fill="#314550" d="M4193.896,835.614v22.693h20.572v10.94h-20.572v42.612c0,9.797,2.775,15.348,10.775,15.348
		c3.756,0,6.531-0.49,8.328-0.98l0.652,10.777c-2.775,1.142-7.184,1.959-12.734,1.959c-6.695,0-12.082-2.123-15.512-6.041
		c-4.082-4.246-5.551-11.266-5.551-20.573v-43.102h-12.246v-10.94h12.246V839.37L4193.896,835.614z"/>
	<path fill="#314550" d="M4256.757,821.409h14.367v49.309h0.326c2.285-4.082,5.877-7.674,10.285-10.123
		c4.246-2.45,9.307-4.082,14.695-4.082c10.611,0,27.592,6.531,27.592,33.796v47.022h-14.367v-45.39
		c0-12.734-4.734-23.511-18.287-23.511c-9.305,0-16.652,6.531-19.266,14.368c-0.816,1.96-0.979,4.082-0.979,6.856v47.676h-14.367
		V821.409z"/>
</g>
</svg>
