<?xml version="1.0" encoding="utf-8"?>
<!-- Generator: Adobe Illustrator 16.0.0, SVG Export Plug-In . SVG Version: 6.00 Build 0)  -->
<!DOCTYPE svg PUBLIC "-//W3C//DTD SVG 1.1//EN" "http://www.w3.org/Graphics/SVG/1.1/DTD/svg11.dtd">
<svg version="1.1" id="Layer_1" xmlns="http://www.w3.org/2000/svg" xmlns:xlink="http://www.w3.org/1999/xlink" x="0px" y="0px"
	 width="721.286px" height="229.301px" viewBox="0 0 721.286 229.301" enable-background="new 0 0 721.286 229.301"
	 xml:space="preserve">
<g>
	<rect x="387.047" y="20.846" fill="#B0EA3F" width="3.857" height="152.167"/>
	<path fill="#B0EA3F" d="M291.08,62.436v66.209v27.736h-32.746V67.694L291.08,62.436z M291.08,58.146h-32.746V30.412h46.444
		c17.595,0,32.658,6.098,45.187,18.294c12.531,12.196,18.799,27.094,18.799,44.688c0,17.599-6.268,32.494-18.799,44.691
		c-12.529,12.193-27.592,18.295-45.187,18.295h-6.246l-3.166-27.736h3.062c10.466,0,19.13-2.949,25.976-8.852
		c6.853-5.906,10.278-14.701,10.278-26.398c0-11.026-3.285-19.655-9.86-25.895c-6.571-6.232-15.258-9.353-26.059-9.353H291.08"/>
	<path fill="#B0EA3F" d="M427.448,30.412h32.242l25.564,67.326l27.061-67.326h32.576l0,0l-23.219,53.461l-30.238,72.508h-13.031
		L449.5,83.873L427.448,30.412z M446.377,103.102l-7.738,53.279h-32.578L427.002,33.34L446.377,103.102z M545.338,33.34
		l18.6,123.041H531.19l-6.744-53.279L545.338,33.34z"/>
	<path fill="#B0EA3F" d="M656.694,111.774h-26.729V86.043h64.982c-0.201,9.976-0.984,18.552-2.352,25.731
		C692.596,111.774,683.739,113.503,656.694,111.774z M689.729,121.969c-1.838,4.713-4.385,9.33-7.646,13.861
		c-11.803,16.48-29.125,24.727-51.955,24.727c-19.826,0-35.973-6.152-48.445-18.463c-12.475-12.301-18.713-28.318-18.713-48.03
		c0-20.381,6.291-36.779,18.885-49.2c12.58-12.415,29.068-18.627,49.449-18.627c13.137,0,24.555,2.953,34.244,8.854
		c9.689,5.903,17.209,14.701,22.555,26.394l-31.076,13.034c-2.332-6.238-5.846-11.138-10.525-14.701
		c-4.676-3.565-10.246-5.348-16.703-5.348c-10.139,0-18.129,4.009-23.979,12.03c-5.848,8.019-8.768,17.264-8.768,27.73
		c0,10.472,2.98,19.657,8.939,27.565c5.957,7.912,14.061,11.861,24.307,11.861c7.35,0,13.416-1.893,18.211-5.678
		c4.238-3.352,6.867-7.979,7.877-13.871C656.442,113.779,690.475,120.061,689.729,121.969z"/>
	<polygon fill="#2A3303" points="521.672,83.873 522.004,83.873 524.446,103.102 545.338,33.34 544.891,30.412 	"/>
	<polygon fill="#2A3303" points="427.448,30.412 427.002,33.34 446.377,103.102 449.165,83.873 449.5,83.873 	"/>
	<polygon fill="#2A3303" points="291.08,58.146 291.08,62.436 258.334,67.694 258.334,58.146 	"/>
	<polygon fill="#2A3303" points="291.08,128.645 295.365,128.645 298.532,156.381 291.08,156.381 	"/>
	<path fill="#2A3303" d="M689.725,121.965c1.055-2.703,1.881-5.43,2.469-8.189c0.139-0.649,0.264-1.324,0.395-2.001
		c0.02-0.093-35.895,0-35.895,0c-0.078,0.801-0.188,1.576-0.316,2.332L689.725,121.965z"/>
	<path fill="#B0EA3F" d="M174.875,62.436v66.209v27.736H142.13V67.694L174.875,62.436z M174.875,58.146H142.13V30.412h46.444
		c17.595,0,32.658,6.098,45.187,18.294c12.531,12.196,18.797,27.094,18.797,44.688c0,17.599-6.267,32.494-18.797,44.691
		c-12.529,12.193-27.592,18.295-45.187,18.295h-6.246l-3.166-27.736h3.062c10.466,0,19.13-2.949,25.976-8.852
		c6.853-5.906,10.278-14.701,10.278-26.398c0-11.026-3.285-19.655-9.86-25.895c-6.571-6.232-15.258-9.353-26.059-9.353H174.875"/>
	<polygon fill="#2A3303" points="174.875,58.146 174.875,62.436 142.13,67.694 142.13,58.146 	"/>
	<polygon fill="#2A3303" points="174.875,128.645 179.161,128.645 182.328,156.381 174.875,156.381 	"/>
	<path fill="#B0EA3F" d="M59.144,62.436v66.209v27.736H26.398V67.694L59.144,62.436z M59.144,58.146H26.398V30.412h46.444
		c17.595,0,32.658,6.098,45.187,18.294c12.531,12.196,18.797,27.094,18.797,44.688c0,17.599-6.266,32.494-18.797,44.691
		c-12.529,12.193-27.592,18.295-45.187,18.295h-6.246l-3.166-27.736h3.062c10.466,0,19.13-2.949,25.976-8.852
		c6.853-5.906,10.278-14.701,10.278-26.398c0-11.026-3.285-19.655-9.86-25.895c-6.571-6.232-15.258-9.353-26.06-9.353H59.144"/>
	<polygon fill="#2A3303" points="59.144,58.146 59.144,62.436 26.398,67.694 26.398,58.146 	"/>
	<polygon fill="#2A3303" points="59.144,128.645 63.429,128.645 66.597,156.381 59.144,156.381 	"/>
	<g>
		<path fill="#B0EA3F" d="M39.005,202.434c-0.27,0-0.423-0.139-0.468-0.42l-0.159-2.549c-0.716,0.973-1.552,1.75-2.512,2.322
			c-0.959,0.572-2.036,0.861-3.226,0.861c-1.981,0-3.529-0.689-4.639-2.064c-1.108-1.373-1.664-3.432-1.664-6.182
			c0-1.178,0.153-2.277,0.464-3.303c0.308-1.021,0.762-1.906,1.363-2.66c0.603-0.752,1.338-1.344,2.21-1.777
			c0.871-0.43,1.879-0.648,3.015-0.648c1.093,0,2.04,0.205,2.843,0.607c0.803,0.408,1.494,1,2.08,1.779v-9.574h1.542v23.607H39.005z
			 M33.079,201.396c1.073,0,2.044-0.273,2.91-0.826c0.867-0.553,1.641-1.32,2.324-2.307v-8.52c-0.628-0.918-1.318-1.566-2.071-1.943
			c-0.752-0.381-1.606-0.568-2.562-0.568c-0.953,0-1.788,0.17-2.502,0.52c-0.716,0.346-1.313,0.832-1.795,1.465
			c-0.481,0.637-0.847,1.395-1.091,2.271c-0.24,0.885-0.364,1.854-0.364,2.914c0,2.402,0.444,4.17,1.332,5.297
			C30.15,200.832,31.42,201.396,33.079,201.396z"/>
		<path fill="#B0EA3F" d="M50.871,186.029c0.909,0,1.75,0.158,2.524,0.471c0.773,0.316,1.443,0.773,2.011,1.375
			c0.57,0.596,1.012,1.336,1.332,2.213c0.319,0.875,0.478,1.883,0.478,3.02c0,0.234-0.034,0.398-0.105,0.484
			c-0.067,0.088-0.181,0.129-0.331,0.129H45.127v0.309c0,1.211,0.141,2.277,0.423,3.199c0.281,0.918,0.678,1.689,1.199,2.309
			c0.521,0.625,1.148,1.094,1.884,1.404c0.736,0.318,1.557,0.473,2.465,0.473c0.812,0,1.515-0.09,2.11-0.268
			c0.595-0.182,1.095-0.379,1.5-0.604c0.407-0.221,0.726-0.418,0.966-0.6c0.235-0.178,0.412-0.266,0.517-0.266
			c0.143,0,0.249,0.053,0.326,0.162l0.423,0.52c-0.261,0.322-0.604,0.627-1.03,0.91c-0.429,0.279-0.904,0.52-1.431,0.719
			c-0.521,0.201-1.085,0.359-1.686,0.479c-0.6,0.121-1.203,0.182-1.809,0.182c-1.102,0-2.109-0.195-3.018-0.58
			c-0.909-0.381-1.689-0.941-2.341-1.68c-0.648-0.732-1.152-1.633-1.508-2.699s-0.532-2.287-0.532-3.66
			c0-1.156,0.164-2.225,0.495-3.201c0.33-0.982,0.805-1.826,1.428-2.533s1.384-1.264,2.289-1.664
			C48.701,186.232,49.723,186.029,50.871,186.029z M50.896,187.182c-0.833,0-1.578,0.131-2.238,0.391
			c-0.658,0.26-1.228,0.631-1.709,1.117c-0.479,0.488-0.869,1.072-1.165,1.758c-0.297,0.678-0.495,1.441-0.591,2.283H55.82
			c0-0.863-0.121-1.641-0.356-2.326c-0.239-0.688-0.572-1.268-1.005-1.746c-0.432-0.475-0.951-0.838-1.556-1.094
			C52.296,187.311,51.628,187.182,50.896,187.182z"/>
		<path fill="#B0EA3F" d="M65.281,202.697c-1.093,0-1.942-0.307-2.549-0.91c-0.605-0.605-0.909-1.541-0.909-2.809v-11.033h-2.321
			c-0.119,0-0.215-0.031-0.291-0.098c-0.075-0.064-0.114-0.158-0.114-0.275v-0.6l2.758-0.195L62.243,181
			c0.011-0.096,0.051-0.182,0.12-0.26c0.07-0.076,0.164-0.113,0.282-0.113h0.72v6.166h5.081v1.152h-5.081v10.953
			c0,0.443,0.059,0.824,0.172,1.143c0.114,0.32,0.269,0.582,0.471,0.787c0.2,0.207,0.436,0.357,0.707,0.455
			c0.27,0.098,0.56,0.146,0.875,0.146c0.389,0,0.724-0.055,1.006-0.168c0.282-0.115,0.525-0.244,0.731-0.377
			c0.205-0.135,0.373-0.258,0.503-0.373c0.129-0.113,0.231-0.172,0.307-0.172c0.086,0,0.174,0.057,0.261,0.164l0.423,0.682
			c-0.412,0.455-0.934,0.82-1.567,1.096C66.619,202.557,65.961,202.697,65.281,202.697z"/>
		<path fill="#B0EA3F" d="M78.05,186.029c0.909,0,1.75,0.158,2.522,0.471c0.773,0.316,1.447,0.773,2.015,1.375
			c0.568,0.596,1.009,1.336,1.329,2.213c0.32,0.875,0.479,1.883,0.479,3.02c0,0.234-0.038,0.398-0.104,0.484
			c-0.072,0.088-0.182,0.129-0.333,0.129H72.306v0.309c0,1.211,0.141,2.277,0.421,3.199c0.282,0.918,0.682,1.689,1.203,2.309
			c0.518,0.625,1.145,1.094,1.881,1.404c0.736,0.318,1.559,0.473,2.467,0.473c0.812,0,1.514-0.09,2.109-0.268
			c0.593-0.182,1.096-0.379,1.501-0.604c0.404-0.221,0.728-0.418,0.963-0.6c0.239-0.178,0.412-0.266,0.521-0.266
			c0.139,0,0.248,0.053,0.324,0.162l0.421,0.52c-0.26,0.322-0.603,0.627-1.031,0.91c-0.425,0.279-0.902,0.52-1.426,0.719
			c-0.526,0.201-1.089,0.359-1.687,0.479c-0.602,0.121-1.205,0.182-1.81,0.182c-1.104,0-2.11-0.195-3.019-0.58
			c-0.909-0.381-1.688-0.941-2.338-1.68c-0.652-0.732-1.153-1.633-1.511-2.699c-0.355-1.066-0.533-2.287-0.533-3.66
			c0-1.156,0.165-2.225,0.496-3.201c0.331-0.982,0.806-1.826,1.428-2.533c0.623-0.707,1.386-1.264,2.289-1.664
			C75.877,186.232,76.904,186.029,78.05,186.029z M78.073,187.182c-0.833,0-1.575,0.131-2.233,0.391
			c-0.661,0.26-1.231,0.631-1.712,1.117c-0.479,0.488-0.868,1.072-1.165,1.758c-0.298,0.678-0.494,1.441-0.593,2.283h10.629
			c0-0.863-0.118-1.641-0.355-2.326c-0.238-0.688-0.575-1.268-1.006-1.746c-0.431-0.475-0.95-0.838-1.554-1.094
			C79.478,187.311,78.809,187.182,78.073,187.182z"/>
		<path fill="#B0EA3F" d="M98.688,188.449c-0.055,0.055-0.104,0.098-0.151,0.135c-0.051,0.039-0.118,0.057-0.204,0.057
			c-0.107,0-0.258-0.07-0.448-0.219c-0.189-0.143-0.442-0.303-0.753-0.477c-0.313-0.172-0.706-0.332-1.177-0.48
			c-0.469-0.143-1.039-0.219-1.709-0.219c-0.932,0-1.756,0.164-2.476,0.496c-0.719,0.33-1.324,0.803-1.817,1.42
			c-0.492,0.615-0.868,1.363-1.126,2.24c-0.262,0.873-0.392,1.861-0.392,2.949c0,1.139,0.134,2.146,0.399,3.02
			c0.265,0.879,0.639,1.617,1.127,2.217c0.486,0.602,1.077,1.059,1.767,1.369c0.693,0.316,1.461,0.473,2.305,0.473
			c0.781,0,1.433-0.092,1.956-0.275c0.526-0.188,0.957-0.385,1.298-0.604c0.343-0.215,0.612-0.412,0.812-0.598
			c0.2-0.184,0.359-0.275,0.477-0.275c0.141,0,0.25,0.053,0.327,0.162l0.423,0.52c-0.249,0.322-0.564,0.627-0.942,0.91
			c-0.379,0.279-0.806,0.523-1.284,0.729c-0.475,0.205-0.993,0.363-1.547,0.477c-0.558,0.115-1.14,0.174-1.746,0.174
			c-1.026,0-1.966-0.186-2.814-0.564c-0.85-0.369-1.58-0.91-2.191-1.619c-0.61-0.709-1.088-1.576-1.427-2.604
			c-0.343-1.031-0.513-2.197-0.513-3.51c0-1.23,0.165-2.354,0.488-3.371c0.324-1.02,0.798-1.893,1.417-2.629
			c0.623-0.736,1.386-1.309,2.289-1.711c0.904-0.404,1.94-0.611,3.109-0.611c1.049,0,1.981,0.166,2.798,0.506
			c0.818,0.334,1.527,0.789,2.136,1.361L98.688,188.449z"/>
		<path fill="#B0EA3F" d="M106.087,206.865c0.055,0,0.127,0.029,0.219,0.09s0.215,0.123,0.358,0.193
			c0.147,0.07,0.328,0.139,0.544,0.197c0.216,0.059,0.481,0.086,0.795,0.086c0.553,0,0.981-0.117,1.289-0.355
			c0.31-0.236,0.463-0.564,0.463-0.975c0-0.27-0.072-0.494-0.21-0.672c-0.141-0.18-0.341-0.33-0.602-0.449
			c-0.259-0.117-0.564-0.209-0.915-0.273c-0.354-0.066-0.738-0.125-1.163-0.178l0.601-1.916c-0.94-0.064-1.801-0.301-2.578-0.705
			c-0.781-0.406-1.447-0.961-2.005-1.662c-0.557-0.705-0.985-1.551-1.289-2.539c-0.305-0.99-0.455-2.107-0.455-3.355
			c0-1.23,0.16-2.354,0.488-3.371c0.322-1.02,0.795-1.893,1.417-2.629s1.384-1.309,2.289-1.711c0.903-0.404,1.939-0.611,3.108-0.611
			c1.047,0,1.981,0.166,2.798,0.506c0.816,0.334,1.527,0.789,2.132,1.361l-0.404,0.553c-0.055,0.055-0.105,0.098-0.156,0.135
			c-0.045,0.039-0.113,0.057-0.202,0.057c-0.106,0-0.256-0.07-0.445-0.219c-0.19-0.143-0.442-0.303-0.753-0.477
			c-0.315-0.172-0.707-0.332-1.177-0.48c-0.472-0.143-1.042-0.219-1.713-0.219c-0.93,0-1.754,0.164-2.473,0.496
			c-0.721,0.33-1.327,0.803-1.819,1.42c-0.49,0.615-0.869,1.363-1.127,2.24c-0.261,0.873-0.39,1.861-0.39,2.949
			c0,1.139,0.131,2.146,0.396,3.02c0.266,0.879,0.644,1.617,1.129,2.217c0.486,0.602,1.077,1.059,1.769,1.369
			c0.692,0.316,1.46,0.473,2.306,0.473c0.778,0,1.43-0.092,1.954-0.275c0.523-0.188,0.956-0.385,1.297-0.604
			c0.344-0.215,0.612-0.412,0.812-0.598c0.202-0.184,0.362-0.275,0.48-0.275c0.139,0,0.248,0.053,0.323,0.162l0.421,0.52
			c-0.486,0.627-1.181,1.152-2.084,1.572c-0.902,0.424-1.928,0.656-3.073,0.701l-0.39,1.279c0.963,0.172,1.694,0.424,2.199,0.746
			c0.501,0.322,0.753,0.807,0.753,1.443c0,0.324-0.072,0.617-0.219,0.877c-0.145,0.262-0.351,0.479-0.616,0.656
			c-0.265,0.18-0.582,0.316-0.948,0.414c-0.37,0.098-0.77,0.146-1.202,0.146c-0.443,0-0.876-0.061-1.299-0.186
			c-0.423-0.127-0.772-0.293-1.055-0.496l0.163-0.455C105.894,206.932,105.982,206.865,106.087,206.865z"/>
		<path fill="#B0EA3F" d="M126.923,202.434c-0.326,0-0.526-0.15-0.599-0.455l-0.229-2.057c-0.444,0.434-0.883,0.822-1.321,1.168
			c-0.439,0.346-0.897,0.639-1.371,0.875c-0.478,0.238-0.991,0.418-1.542,0.543c-0.554,0.125-1.157,0.189-1.818,0.189
			c-0.553,0-1.089-0.084-1.606-0.246c-0.521-0.162-0.981-0.412-1.38-0.746c-0.399-0.336-0.723-0.766-0.965-1.289
			c-0.244-0.523-0.364-1.156-0.364-1.893c0-0.682,0.193-1.312,0.583-1.896c0.389-0.584,0.999-1.092,1.825-1.527
			c0.826-0.432,1.893-0.777,3.197-1.037c1.302-0.26,2.871-0.412,4.697-0.453v-1.688c0-1.492-0.32-2.641-0.963-3.451
			c-0.644-0.803-1.599-1.207-2.864-1.207c-0.779,0-1.443,0.107-1.99,0.324c-0.545,0.219-1.009,0.453-1.385,0.715
			c-0.381,0.26-0.688,0.496-0.926,0.715c-0.238,0.217-0.438,0.326-0.599,0.326c-0.219,0-0.379-0.1-0.488-0.295l-0.276-0.473
			c0.844-0.844,1.731-1.48,2.661-1.914c0.932-0.43,1.985-0.648,3.163-0.648c0.867,0,1.624,0.135,2.271,0.416
			c0.652,0.273,1.19,0.668,1.617,1.184c0.427,0.514,0.75,1.133,0.965,1.865c0.215,0.73,0.325,1.543,0.325,2.443v10.512H126.923z
			 M120.431,201.574c0.627,0,1.206-0.064,1.729-0.199c0.526-0.137,1.014-0.328,1.46-0.57c0.449-0.242,0.87-0.533,1.257-0.867
			c0.392-0.338,0.774-0.697,1.153-1.088v-4.201c-1.536,0.043-2.856,0.158-3.966,0.35c-1.108,0.186-2.024,0.441-2.743,0.77
			c-0.719,0.324-1.249,0.707-1.59,1.156c-0.341,0.451-0.511,0.961-0.511,1.535c0,0.541,0.09,1.008,0.269,1.404
			c0.177,0.396,0.413,0.721,0.705,0.973c0.29,0.258,0.634,0.443,1.022,0.561C119.606,201.516,120.01,201.574,120.431,201.574z
			 M124.067,181.666c0.465,0,0.818-0.15,1.055-0.447c0.237-0.295,0.363-0.701,0.374-1.209h0.958c0,0.391-0.054,0.756-0.155,1.098
			c-0.102,0.34-0.255,0.633-0.455,0.883c-0.202,0.248-0.448,0.443-0.74,0.584c-0.29,0.141-0.621,0.213-0.988,0.213
			c-0.358,0-0.694-0.092-1.014-0.27c-0.319-0.178-0.625-0.373-0.917-0.584s-0.576-0.406-0.852-0.584
			c-0.275-0.18-0.553-0.266-0.835-0.266c-0.454,0-0.801,0.152-1.038,0.459c-0.24,0.307-0.368,0.707-0.39,1.195h-0.991
			c0-0.391,0.055-0.756,0.163-1.096s0.267-0.639,0.471-0.883c0.204-0.252,0.455-0.447,0.747-0.588
			c0.29-0.141,0.623-0.211,0.989-0.211c0.37,0,0.71,0.09,1.03,0.27c0.32,0.178,0.623,0.373,0.909,0.584
			c0.288,0.211,0.568,0.404,0.846,0.584C123.508,181.576,123.785,181.666,124.067,181.666z"/>
		<path fill="#B0EA3F" d="M138.072,186.029c1.157,0,2.192,0.199,3.107,0.592c0.913,0.398,1.685,0.955,2.311,1.682
			s1.106,1.598,1.437,2.621c0.331,1.021,0.494,2.168,0.494,3.428c0,1.268-0.164,2.41-0.494,3.426
			c-0.331,1.018-0.81,1.889-1.437,2.611c-0.626,0.727-1.398,1.285-2.311,1.674c-0.915,0.389-1.95,0.586-3.107,0.586
			c-1.161,0-2.195-0.197-3.108-0.586c-0.916-0.389-1.687-0.947-2.322-1.674c-0.632-0.723-1.113-1.594-1.443-2.611
			c-0.329-1.016-0.497-2.158-0.497-3.426c0-1.26,0.168-2.406,0.497-3.428c0.33-1.023,0.811-1.895,1.443-2.621
			c0.635-0.727,1.406-1.283,2.322-1.682C135.877,186.229,136.911,186.029,138.072,186.029z M138.072,201.43
			c0.961,0,1.803-0.164,2.524-0.496c0.72-0.33,1.319-0.799,1.801-1.42c0.479-0.615,0.841-1.359,1.077-2.229
			c0.239-0.873,0.357-1.85,0.357-2.934c0-1.068-0.118-2.041-0.357-2.918c-0.236-0.875-0.598-1.627-1.077-2.246
			c-0.481-0.623-1.081-1.102-1.801-1.436c-0.721-0.336-1.562-0.506-2.524-0.506c-0.963,0-1.804,0.17-2.523,0.506
			c-0.719,0.334-1.32,0.812-1.8,1.436c-0.484,0.619-0.846,1.371-1.09,2.246c-0.241,0.877-0.364,1.85-0.364,2.918
			c0,1.084,0.123,2.061,0.364,2.934c0.245,0.869,0.606,1.613,1.09,2.229c0.479,0.621,1.081,1.09,1.8,1.42
			C136.268,201.266,137.109,201.43,138.072,201.43z"/>
		<path fill="#B0EA3F" d="M166.217,202.434c-0.266,0-0.42-0.139-0.463-0.42l-0.163-2.549c-0.716,0.973-1.552,1.75-2.512,2.322
			c-0.959,0.572-2.034,0.861-3.224,0.861c-1.983,0-3.529-0.689-4.637-2.064c-1.11-1.373-1.666-3.432-1.666-6.182
			c0-1.178,0.153-2.277,0.462-3.303c0.307-1.021,0.764-1.906,1.363-2.66c0.603-0.752,1.34-1.344,2.212-1.777
			c0.871-0.43,1.877-0.648,3.013-0.648c1.093,0,2.042,0.205,2.843,0.607c0.803,0.408,1.498,1,2.08,1.779v-9.574h1.542v23.607
			H166.217z M160.294,201.396c1.071,0,2.04-0.273,2.906-0.826c0.867-0.553,1.641-1.32,2.324-2.307v-8.52
			c-0.626-0.918-1.318-1.566-2.071-1.943c-0.752-0.381-1.606-0.568-2.558-0.568c-0.955,0-1.79,0.17-2.504,0.52
			c-0.715,0.346-1.315,0.832-1.797,1.465c-0.481,0.637-0.842,1.395-1.087,2.271c-0.244,0.885-0.366,1.854-0.366,2.914
			c0,2.402,0.444,4.17,1.333,5.297C157.362,200.832,158.632,201.396,160.294,201.396z"/>
		<path fill="#B0EA3F" d="M174.676,180.725c0,0.195-0.04,0.375-0.122,0.543c-0.08,0.168-0.186,0.316-0.315,0.447
			c-0.131,0.129-0.282,0.23-0.455,0.305c-0.172,0.08-0.358,0.119-0.551,0.119c-0.196,0-0.378-0.039-0.551-0.119
			c-0.175-0.074-0.327-0.176-0.457-0.305c-0.128-0.131-0.234-0.279-0.307-0.447c-0.076-0.168-0.113-0.348-0.113-0.543
			c0-0.197,0.038-0.381,0.113-0.559c0.073-0.18,0.179-0.334,0.307-0.463c0.13-0.129,0.281-0.234,0.457-0.309
			c0.172-0.076,0.355-0.115,0.551-0.115c0.193,0,0.379,0.039,0.551,0.115c0.172,0.074,0.324,0.18,0.455,0.309
			c0.129,0.129,0.235,0.283,0.315,0.463C174.636,180.344,174.676,180.527,174.676,180.725z M173.994,186.293v16.141h-1.539v-16.141
			H173.994z"/>
		<path fill="#B0EA3F" d="M184.542,186.014c0.705,0,1.355,0.084,1.956,0.262c0.599,0.172,1.138,0.416,1.615,0.727h4.137v0.537
			c0,0.271-0.152,0.416-0.454,0.438l-2.451,0.178c0.303,0.412,0.537,0.877,0.699,1.389c0.162,0.514,0.245,1.064,0.245,1.646
			c0,0.781-0.142,1.484-0.423,2.119c-0.282,0.635-0.673,1.176-1.179,1.621c-0.5,0.449-1.104,0.797-1.809,1.049
			c-0.703,0.248-1.48,0.371-2.336,0.371c-0.932,0-1.773-0.141-2.53-0.42c-0.454,0.258-0.812,0.568-1.073,0.924
			c-0.256,0.357-0.387,0.703-0.387,1.037c0,0.465,0.16,0.826,0.483,1.07c0.329,0.25,0.758,0.434,1.292,0.545
			c0.536,0.115,1.148,0.186,1.834,0.221c0.686,0.029,1.383,0.068,2.094,0.105c0.707,0.039,1.405,0.105,2.091,0.203
			c0.689,0.1,1.3,0.268,1.834,0.508c0.535,0.244,0.967,0.584,1.291,1.025c0.325,0.438,0.486,1.02,0.486,1.744
			c0,0.67-0.167,1.312-0.502,1.93c-0.337,0.619-0.82,1.162-1.454,1.641c-0.633,0.475-1.398,0.854-2.295,1.145
			c-0.897,0.285-1.905,0.428-3.018,0.428c-1.138,0-2.132-0.115-2.986-0.35c-0.854-0.232-1.572-0.545-2.15-0.941
			c-0.578-0.391-1.014-0.85-1.306-1.369c-0.292-0.518-0.438-1.07-0.438-1.656c0-0.855,0.281-1.59,0.843-2.207
			c0.562-0.613,1.335-1.092,2.32-1.428c-0.543-0.184-0.972-0.447-1.291-0.795c-0.318-0.346-0.478-0.826-0.478-1.445
			c0-0.225,0.043-0.461,0.13-0.711c0.086-0.25,0.217-0.496,0.389-0.74c0.172-0.242,0.382-0.473,0.625-0.688
			c0.245-0.219,0.528-0.414,0.852-0.584c-0.77-0.445-1.367-1.035-1.792-1.773c-0.429-0.729-0.642-1.594-0.642-2.578
			c0-0.777,0.137-1.482,0.413-2.115c0.276-0.635,0.666-1.178,1.169-1.633c0.503-0.453,1.112-0.805,1.825-1.053
			C182.886,186.137,183.677,186.014,184.542,186.014z M190.529,203.523c0-0.508-0.13-0.918-0.396-1.227
			c-0.267-0.309-0.621-0.549-1.063-0.723c-0.444-0.17-0.956-0.293-1.534-0.361c-0.578-0.07-1.184-0.123-1.817-0.158
			c-0.633-0.033-1.268-0.064-1.907-0.098c-0.639-0.029-1.232-0.096-1.784-0.193c-0.412,0.164-0.793,0.352-1.144,0.561
			c-0.353,0.209-0.652,0.451-0.9,0.713c-0.252,0.266-0.446,0.557-0.584,0.877c-0.144,0.318-0.213,0.666-0.213,1.047
			c0,0.477,0.124,0.916,0.366,1.322c0.243,0.408,0.6,0.756,1.071,1.055c0.471,0.297,1.047,0.535,1.729,0.707
			c0.681,0.174,1.463,0.26,2.354,0.26c0.822,0,1.588-0.096,2.294-0.277c0.711-0.184,1.324-0.443,1.851-0.779
			c0.523-0.334,0.936-0.734,1.232-1.203C190.382,204.582,190.529,204.074,190.529,203.523z M184.542,195.293
			c0.692,0,1.31-0.098,1.849-0.295c0.542-0.201,0.997-0.48,1.365-0.84c0.368-0.355,0.646-0.781,0.835-1.281
			c0.189-0.496,0.286-1.049,0.286-1.654s-0.097-1.162-0.295-1.664c-0.194-0.502-0.478-0.934-0.85-1.291
			c-0.374-0.354-0.828-0.633-1.365-0.826c-0.536-0.195-1.142-0.293-1.825-0.293c-0.679,0-1.293,0.098-1.832,0.293
			c-0.542,0.193-0.999,0.473-1.371,0.826c-0.374,0.357-0.656,0.789-0.854,1.291c-0.194,0.502-0.29,1.059-0.29,1.664
			s0.096,1.158,0.29,1.654c0.198,0.5,0.479,0.926,0.854,1.281c0.372,0.359,0.829,0.639,1.371,0.84
			C183.248,195.195,183.862,195.293,184.542,195.293z"/>
		<path fill="#B0EA3F" d="M197.781,180.725c0,0.195-0.039,0.375-0.122,0.543c-0.08,0.168-0.186,0.316-0.316,0.447
			c-0.13,0.129-0.282,0.23-0.455,0.305c-0.172,0.08-0.356,0.119-0.55,0.119c-0.196,0-0.378-0.039-0.551-0.119
			c-0.175-0.074-0.327-0.176-0.457-0.305c-0.128-0.131-0.233-0.279-0.308-0.447c-0.075-0.168-0.11-0.348-0.11-0.543
			c0-0.197,0.036-0.381,0.11-0.559c0.074-0.18,0.18-0.334,0.308-0.463c0.13-0.129,0.282-0.234,0.457-0.309
			c0.172-0.076,0.355-0.115,0.551-0.115c0.194,0,0.378,0.039,0.55,0.115c0.173,0.074,0.325,0.18,0.455,0.309
			c0.131,0.129,0.236,0.283,0.316,0.463C197.743,180.344,197.781,180.527,197.781,180.725z M197.1,186.293v16.141h-1.539v-16.141
			H197.1z"/>
		<path fill="#B0EA3F" d="M206.724,202.697c-1.094,0-1.943-0.307-2.549-0.91c-0.605-0.605-0.909-1.541-0.909-2.809v-11.033h-2.322
			c-0.118,0-0.214-0.031-0.29-0.098c-0.076-0.064-0.114-0.158-0.114-0.275v-0.6l2.759-0.195l0.385-5.777
			c0.01-0.096,0.053-0.182,0.12-0.26c0.072-0.076,0.165-0.113,0.282-0.113h0.722v6.166h5.079v1.152h-5.079v10.953
			c0,0.443,0.057,0.824,0.17,1.143c0.113,0.32,0.271,0.582,0.47,0.787c0.198,0.207,0.436,0.357,0.707,0.455
			c0.27,0.098,0.562,0.146,0.875,0.146c0.389,0,0.724-0.055,1.008-0.168c0.279-0.115,0.523-0.244,0.729-0.377
			c0.204-0.135,0.372-0.258,0.505-0.373c0.127-0.113,0.231-0.172,0.308-0.172c0.084,0,0.172,0.057,0.258,0.164l0.423,0.682
			c-0.413,0.455-0.934,0.82-1.566,1.096C208.061,202.557,207.405,202.697,206.724,202.697z"/>
		<path fill="#B0EA3F" d="M223.713,202.434c-0.326,0-0.525-0.15-0.602-0.455l-0.227-2.057c-0.444,0.434-0.885,0.822-1.321,1.168
			c-0.441,0.346-0.897,0.639-1.373,0.875c-0.478,0.238-0.991,0.418-1.541,0.543c-0.552,0.125-1.157,0.189-1.817,0.189
			c-0.552,0-1.088-0.084-1.607-0.246c-0.517-0.162-0.98-0.412-1.38-0.746c-0.399-0.336-0.721-0.766-0.963-1.289
			c-0.243-0.523-0.366-1.156-0.366-1.893c0-0.682,0.194-1.312,0.585-1.896c0.387-0.584,0.997-1.092,1.825-1.527
			c0.827-0.432,1.893-0.777,3.197-1.037c1.302-0.26,2.869-0.412,4.699-0.453v-1.688c0-1.492-0.324-2.641-0.967-3.451
			c-0.644-0.803-1.599-1.207-2.864-1.207c-0.779,0-1.441,0.107-1.988,0.324c-0.545,0.219-1.008,0.453-1.388,0.715
			c-0.379,0.26-0.687,0.496-0.924,0.715c-0.239,0.217-0.437,0.326-0.602,0.326c-0.217,0-0.378-0.1-0.485-0.295l-0.276-0.473
			c0.843-0.844,1.729-1.48,2.661-1.914c0.93-0.43,1.983-0.648,3.163-0.648c0.865,0,1.625,0.135,2.272,0.416
			c0.649,0.273,1.188,0.668,1.614,1.184c0.428,0.514,0.75,1.133,0.966,1.865c0.217,0.73,0.324,1.543,0.324,2.443v10.512H223.713z
			 M217.22,201.574c0.626,0,1.204-0.064,1.727-0.199c0.526-0.137,1.014-0.328,1.462-0.57c0.45-0.242,0.868-0.533,1.257-0.867
			c0.389-0.338,0.773-0.697,1.155-1.088v-4.201c-1.54,0.043-2.86,0.158-3.971,0.35c-1.106,0.186-2.024,0.441-2.743,0.77
			c-0.717,0.324-1.25,0.707-1.59,1.156c-0.341,0.451-0.509,0.961-0.509,1.535c0,0.541,0.088,1.008,0.268,1.404
			c0.179,0.396,0.414,0.721,0.704,0.973c0.293,0.258,0.634,0.443,1.024,0.561C216.394,201.516,216.797,201.574,217.22,201.574z"/>
		<path fill="#B0EA3F" d="M230.704,178.826v23.607h-1.54v-23.607H230.704z"/>
		<path fill="#B0EA3F" d="M253.157,202.434c-0.269,0-0.424-0.139-0.466-0.42l-0.165-2.549c-0.713,0.973-1.549,1.75-2.508,2.322
			c-0.958,0.572-2.034,0.861-3.225,0.861c-1.981,0-3.529-0.689-4.64-2.064c-1.11-1.373-1.665-3.432-1.665-6.182
			c0-1.178,0.155-2.277,0.462-3.303c0.312-1.021,0.766-1.906,1.367-2.66c0.602-0.752,1.338-1.344,2.208-1.777
			c0.873-0.43,1.878-0.648,3.016-0.648c1.092,0,2.041,0.205,2.844,0.607c0.799,0.408,1.494,1,2.078,1.779v-9.574h1.542v23.607
			H253.157z M247.231,201.396c1.072,0,2.042-0.273,2.91-0.826c0.865-0.553,1.641-1.32,2.322-2.307v-8.52
			c-0.626-0.918-1.318-1.566-2.071-1.943c-0.753-0.381-1.605-0.568-2.56-0.568c-0.955,0-1.788,0.17-2.503,0.52
			c-0.715,0.346-1.312,0.832-1.795,1.465c-0.484,0.637-0.846,1.395-1.089,2.271c-0.244,0.885-0.364,1.854-0.364,2.914
			c0,2.402,0.444,4.17,1.331,5.297C244.298,200.832,245.573,201.396,247.231,201.396z"/>
		<path fill="#B0EA3F" d="M265.023,186.029c0.908,0,1.75,0.158,2.523,0.471c0.774,0.316,1.443,0.773,2.011,1.375
			c0.568,0.596,1.014,1.336,1.332,2.213c0.319,0.875,0.479,1.883,0.479,3.02c0,0.234-0.036,0.398-0.105,0.484
			c-0.069,0.088-0.183,0.129-0.334,0.129h-11.649v0.309c0,1.211,0.141,2.277,0.422,3.199c0.282,0.918,0.682,1.689,1.2,2.309
			c0.519,0.625,1.148,1.094,1.882,1.404c0.736,0.318,1.559,0.473,2.467,0.473c0.812,0,1.514-0.09,2.109-0.268
			c0.595-0.182,1.096-0.379,1.5-0.604c0.408-0.221,0.728-0.418,0.967-0.6c0.238-0.178,0.413-0.266,0.518-0.266
			c0.143,0,0.25,0.053,0.325,0.162l0.423,0.52c-0.26,0.322-0.601,0.627-1.03,0.91c-0.429,0.279-0.904,0.52-1.431,0.719
			c-0.523,0.201-1.085,0.359-1.686,0.479c-0.599,0.121-1.204,0.182-1.809,0.182c-1.104,0-2.109-0.195-3.018-0.58
			c-0.91-0.381-1.689-0.941-2.339-1.68c-0.65-0.732-1.155-1.633-1.508-2.699c-0.358-1.066-0.534-2.287-0.534-3.66
			c0-1.156,0.164-2.225,0.497-3.201c0.328-0.982,0.803-1.826,1.426-2.533s1.386-1.264,2.288-1.664
			C262.853,186.232,263.877,186.029,265.023,186.029z M265.049,187.182c-0.834,0-1.578,0.131-2.238,0.391
			c-0.658,0.26-1.228,0.631-1.708,1.117c-0.481,0.488-0.871,1.072-1.169,1.758c-0.295,0.678-0.493,1.441-0.589,2.283h10.628
			c0-0.863-0.119-1.641-0.356-2.326c-0.241-0.688-0.572-1.268-1.005-1.746c-0.434-0.475-0.951-0.838-1.557-1.094
			C266.451,187.311,265.781,187.182,265.049,187.182z"/>
		<path fill="#B0EA3F" d="M292.262,202.434c-0.268,0-0.423-0.139-0.465-0.42l-0.165-2.549c-0.715,0.973-1.551,1.75-2.51,2.322
			c-0.955,0.572-2.032,0.861-3.223,0.861c-1.983,0-3.528-0.689-4.639-2.064c-1.111-1.373-1.666-3.432-1.666-6.182
			c0-1.178,0.155-2.277,0.462-3.303c0.309-1.021,0.766-1.906,1.365-2.66c0.601-0.752,1.337-1.344,2.21-1.777
			c0.871-0.43,1.876-0.648,3.015-0.648c1.093,0,2.042,0.205,2.843,0.607c0.801,0.408,1.495,1,2.08,1.779v-9.574h1.542v23.607
			H292.262z M286.337,201.396c1.072,0,2.039-0.273,2.908-0.826c0.865-0.553,1.643-1.32,2.324-2.307v-8.52
			c-0.629-0.918-1.318-1.566-2.072-1.943c-0.755-0.381-1.609-0.568-2.559-0.568c-0.955,0-1.788,0.17-2.502,0.52
			c-0.716,0.346-1.315,0.832-1.797,1.465c-0.484,0.637-0.846,1.395-1.089,2.271c-0.245,0.885-0.366,1.854-0.366,2.914
			c0,2.402,0.446,4.17,1.333,5.297C283.405,200.832,284.677,201.396,286.337,201.396z"/>
		<path fill="#B0EA3F" d="M304.192,186.029c1.159,0,2.196,0.199,3.109,0.592c0.913,0.398,1.684,0.955,2.314,1.682
			c0.626,0.727,1.103,1.598,1.434,2.621c0.331,1.021,0.497,2.168,0.497,3.428c0,1.268-0.167,2.41-0.497,3.426
			c-0.331,1.018-0.807,1.889-1.434,2.611c-0.63,0.727-1.401,1.285-2.314,1.674s-1.95,0.586-3.109,0.586
			c-1.156,0-2.191-0.197-3.106-0.586c-0.916-0.389-1.689-0.947-2.32-1.674c-0.636-0.723-1.114-1.594-1.445-2.611
			c-0.33-1.016-0.495-2.158-0.495-3.426c0-1.26,0.165-2.406,0.495-3.428c0.331-1.023,0.81-1.895,1.445-2.621
			c0.63-0.727,1.404-1.283,2.32-1.682C302.001,186.229,303.036,186.029,304.192,186.029z M304.192,201.43
			c0.963,0,1.805-0.164,2.523-0.496c0.72-0.33,1.321-0.799,1.801-1.42c0.484-0.615,0.841-1.359,1.081-2.229
			c0.235-0.873,0.358-1.85,0.358-2.934c0-1.068-0.123-2.041-0.358-2.918c-0.24-0.875-0.597-1.627-1.081-2.246
			c-0.479-0.623-1.081-1.102-1.801-1.436c-0.719-0.336-1.561-0.506-2.523-0.506c-0.963,0-1.804,0.17-2.524,0.506
			c-0.719,0.334-1.318,0.812-1.8,1.436c-0.479,0.619-0.844,1.371-1.085,2.246c-0.245,0.877-0.366,1.85-0.366,2.918
			c0,1.084,0.122,2.061,0.366,2.934c0.241,0.869,0.605,1.613,1.085,2.229c0.481,0.621,1.081,1.09,1.8,1.42
			C302.388,201.266,303.229,201.43,304.192,201.43z"/>
		<path fill="#B0EA3F" d="M321.197,186.029c0.911,0,1.752,0.158,2.524,0.471c0.773,0.316,1.445,0.773,2.013,1.375
			c0.567,0.596,1.01,1.336,1.329,2.213c0.319,0.875,0.479,1.883,0.479,3.02c0,0.234-0.036,0.398-0.105,0.484
			c-0.072,0.088-0.18,0.129-0.333,0.129h-11.651v0.309c0,1.211,0.143,2.277,0.423,3.199c0.282,0.918,0.679,1.689,1.202,2.309
			c0.517,0.625,1.146,1.094,1.882,1.404c0.734,0.318,1.559,0.473,2.465,0.473c0.811,0,1.516-0.09,2.109-0.268
			c0.595-0.182,1.098-0.379,1.502-0.604c0.407-0.221,0.728-0.418,0.965-0.6c0.238-0.178,0.413-0.266,0.52-0.266
			c0.14,0,0.248,0.053,0.324,0.162l0.423,0.52c-0.259,0.322-0.604,0.627-1.03,0.91c-0.428,0.279-0.902,0.52-1.429,0.719
			c-0.525,0.201-1.087,0.359-1.687,0.479c-0.602,0.121-1.204,0.182-1.809,0.182c-1.104,0-2.111-0.195-3.02-0.58
			c-0.909-0.381-1.689-0.941-2.339-1.68c-0.652-0.732-1.153-1.633-1.51-2.699c-0.354-1.066-0.532-2.287-0.532-3.66
			c0-1.156,0.167-2.225,0.494-3.201c0.333-0.982,0.808-1.826,1.429-2.533c0.625-0.707,1.386-1.264,2.291-1.664
			C319.026,186.232,320.051,186.029,321.197,186.029z M321.22,187.182c-0.832,0-1.576,0.131-2.234,0.391
			c-0.66,0.26-1.228,0.631-1.712,1.117c-0.479,0.488-0.867,1.072-1.166,1.758c-0.298,0.678-0.492,1.441-0.59,2.283h10.626
			c0-0.863-0.118-1.641-0.355-2.326c-0.237-0.688-0.572-1.268-1.006-1.746c-0.431-0.475-0.948-0.838-1.554-1.094
			C322.625,187.311,321.956,187.182,321.22,187.182z"/>
		<path fill="#B0EA3F" d="M331.21,202.434v-16.141h0.846c0.277,0,0.441,0.135,0.485,0.402l0.145,2.436
			c0.736-0.934,1.592-1.682,2.573-2.248c0.977-0.568,2.067-0.854,3.27-0.854c0.885,0,1.666,0.143,2.343,0.422
			c0.677,0.279,1.236,0.688,1.68,1.219c0.444,0.527,0.78,1.166,1.007,1.914c0.225,0.746,0.338,1.59,0.338,2.531v10.318h-1.541
			v-10.318c0-1.514-0.345-2.701-1.036-3.562c-0.693-0.859-1.752-1.289-3.183-1.289c-1.06,0-2.044,0.275-2.953,0.818
			c-0.909,0.547-1.721,1.297-2.436,2.248v12.104H331.21z"/>
		<path fill="#B0EA3F" d="M352.027,206.865c0.055,0,0.128,0.029,0.219,0.09c0.092,0.061,0.212,0.123,0.357,0.193
			c0.148,0.07,0.329,0.139,0.546,0.197c0.216,0.059,0.481,0.086,0.795,0.086c0.55,0,0.981-0.117,1.289-0.355
			c0.309-0.236,0.462-0.564,0.462-0.975c0-0.27-0.069-0.494-0.21-0.672c-0.141-0.18-0.341-0.33-0.601-0.449
			c-0.259-0.117-0.564-0.209-0.917-0.273c-0.35-0.066-0.739-0.125-1.159-0.178l0.599-1.916c-0.943-0.064-1.801-0.301-2.579-0.705
			c-0.781-0.406-1.449-0.961-2.004-1.662c-0.558-0.705-0.989-1.551-1.289-2.539c-0.305-0.99-0.457-2.107-0.457-3.355
			c0-1.23,0.162-2.354,0.489-3.371c0.323-1.02,0.797-1.893,1.419-2.629s1.384-1.309,2.288-1.711
			c0.902-0.404,1.939-0.611,3.109-0.611c1.047,0,1.981,0.166,2.797,0.506c0.816,0.334,1.527,0.789,2.133,1.361l-0.404,0.553
			c-0.055,0.055-0.105,0.098-0.156,0.135c-0.045,0.039-0.116,0.057-0.202,0.057c-0.107,0-0.257-0.07-0.446-0.219
			c-0.188-0.143-0.441-0.303-0.754-0.477c-0.313-0.172-0.705-0.332-1.176-0.48c-0.47-0.143-1.04-0.219-1.711-0.219
			c-0.93,0-1.756,0.164-2.475,0.496c-0.72,0.33-1.327,0.803-1.817,1.42c-0.491,0.615-0.869,1.363-1.127,2.24
			c-0.258,0.873-0.389,1.861-0.389,2.949c0,1.139,0.133,2.146,0.396,3.02c0.265,0.879,0.644,1.617,1.129,2.217
			c0.486,0.602,1.077,1.059,1.769,1.369c0.692,0.316,1.46,0.473,2.306,0.473c0.778,0,1.43-0.092,1.953-0.275
			c0.524-0.188,0.958-0.385,1.298-0.604c0.34-0.215,0.61-0.412,0.812-0.598c0.202-0.184,0.362-0.275,0.479-0.275
			c0.141,0,0.248,0.053,0.324,0.162l0.422,0.52c-0.485,0.627-1.184,1.152-2.086,1.572c-0.901,0.424-1.929,0.656-3.072,0.701
			l-0.392,1.279c0.963,0.172,1.695,0.424,2.201,0.746c0.5,0.322,0.752,0.807,0.752,1.443c0,0.324-0.071,0.617-0.218,0.877
			c-0.147,0.262-0.352,0.479-0.617,0.656c-0.265,0.18-0.583,0.316-0.948,0.414c-0.371,0.098-0.771,0.146-1.204,0.146
			c-0.443,0-0.875-0.061-1.298-0.186c-0.422-0.127-0.771-0.293-1.053-0.496l0.162-0.455
			C351.833,206.932,351.919,206.865,352.027,206.865z"/>
		<path fill="#B0EA3F" d="M372.86,202.434c-0.324,0-0.525-0.15-0.598-0.455l-0.229-2.057c-0.443,0.434-0.885,0.822-1.324,1.168
			c-0.438,0.346-0.891,0.639-1.365,0.875c-0.479,0.238-0.992,0.418-1.545,0.543s-1.162,0.189-1.818,0.189
			c-0.551,0-1.084-0.084-1.605-0.246c-0.52-0.162-0.982-0.412-1.379-0.746c-0.402-0.336-0.723-0.766-0.971-1.289
			c-0.238-0.523-0.359-1.156-0.359-1.893c0-0.682,0.193-1.312,0.584-1.896c0.389-0.584,0.996-1.092,1.824-1.527
			c0.828-0.432,1.893-0.777,3.195-1.037c1.305-0.26,2.869-0.412,4.697-0.453v-1.688c0-1.492-0.32-2.641-0.965-3.451
			c-0.641-0.803-1.598-1.207-2.863-1.207c-0.779,0-1.443,0.107-1.988,0.324c-0.547,0.219-1.01,0.453-1.387,0.715
			c-0.379,0.26-0.689,0.496-0.924,0.715c-0.24,0.217-0.439,0.326-0.602,0.326c-0.217,0-0.379-0.1-0.486-0.295l-0.275-0.473
			c0.842-0.844,1.732-1.48,2.66-1.914c0.93-0.43,1.984-0.648,3.166-0.648c0.865,0,1.621,0.135,2.271,0.416
			c0.646,0.273,1.186,0.668,1.611,1.184c0.428,0.514,0.75,1.133,0.967,1.865c0.219,0.73,0.328,1.543,0.328,2.443v10.512H372.86z
			 M366.372,201.574c0.625,0,1.203-0.064,1.727-0.199c0.523-0.137,1.014-0.328,1.461-0.57s0.871-0.533,1.256-0.867
			c0.391-0.338,0.775-0.697,1.152-1.088v-4.201c-1.533,0.043-2.855,0.158-3.967,0.35c-1.109,0.186-2.023,0.441-2.742,0.77
			c-0.721,0.324-1.248,0.707-1.59,1.156c-0.34,0.451-0.51,0.961-0.51,1.535c0,0.541,0.088,1.008,0.268,1.404
			c0.178,0.396,0.414,0.721,0.705,0.973c0.293,0.258,0.633,0.443,1.021,0.561C365.543,201.516,365.948,201.574,366.372,201.574z"/>
		<path fill="#B0EA3F" d="M386.756,188.287c-0.08,0.152-0.197,0.227-0.361,0.227c-0.117,0-0.273-0.066-0.461-0.203
			c-0.189-0.135-0.439-0.287-0.748-0.453c-0.309-0.17-0.686-0.318-1.137-0.457c-0.449-0.135-0.996-0.203-1.646-0.203
			c-0.584,0-1.115,0.086-1.598,0.252c-0.48,0.17-0.893,0.395-1.232,0.676c-0.342,0.281-0.607,0.605-0.795,0.98
			c-0.188,0.373-0.285,0.768-0.285,1.174c0,0.51,0.131,0.932,0.391,1.266c0.26,0.34,0.598,0.623,1.021,0.865
			c0.422,0.234,0.9,0.439,1.436,0.613s1.084,0.348,1.646,0.521c0.562,0.172,1.111,0.365,1.646,0.574
			c0.537,0.211,1.016,0.475,1.438,0.785c0.422,0.316,0.762,0.699,1.021,1.156c0.262,0.453,0.389,1.006,0.389,1.654
			c0,0.699-0.125,1.355-0.381,1.963c-0.252,0.604-0.621,1.129-1.104,1.574c-0.479,0.443-1.072,0.793-1.775,1.055
			c-0.703,0.26-1.504,0.391-2.402,0.391c-1.135,0-2.113-0.184-2.936-0.545c-0.824-0.363-1.559-0.834-2.207-1.422l0.373-0.549
			c0.055-0.086,0.113-0.152,0.18-0.195c0.064-0.045,0.156-0.064,0.275-0.064c0.137,0,0.312,0.084,0.52,0.26
			c0.203,0.174,0.469,0.357,0.803,0.557c0.328,0.201,0.742,0.389,1.232,0.562c0.492,0.172,1.104,0.26,1.826,0.26
			c0.68,0,1.281-0.096,1.801-0.285c0.518-0.189,0.951-0.447,1.297-0.771c0.35-0.322,0.609-0.705,0.789-1.145
			c0.176-0.438,0.266-0.9,0.266-1.387c0-0.539-0.129-0.992-0.389-1.346c-0.256-0.355-0.602-0.66-1.023-0.908
			c-0.422-0.252-0.9-0.461-1.436-0.633c-0.533-0.174-1.086-0.346-1.654-0.52s-1.119-0.363-1.654-0.566
			c-0.535-0.207-1.014-0.467-1.436-0.781s-0.764-0.695-1.023-1.143c-0.26-0.449-0.387-1.01-0.387-1.678
			c0-0.574,0.121-1.129,0.371-1.66c0.25-0.527,0.602-0.99,1.062-1.395c0.459-0.4,1.018-0.719,1.682-0.955
			c0.654-0.24,1.396-0.359,2.221-0.359c0.984,0,1.859,0.143,2.619,0.422c0.764,0.279,1.463,0.715,2.102,1.301L386.756,188.287z"/>
		<path fill="#B0EA3F" d="M397.104,208.146v-21.854h0.842c0.143,0,0.256,0.029,0.34,0.088c0.09,0.059,0.137,0.164,0.146,0.314
			l0.148,2.5c0.717-0.973,1.551-1.748,2.506-2.32c0.957-0.572,2.031-0.861,3.223-0.861c1.99,0,3.537,0.688,4.641,2.062
			c1.104,1.373,1.654,3.434,1.654,6.18c0,1.18-0.154,2.281-0.463,3.305c-0.307,1.021-0.758,1.906-1.354,2.66
			c-0.596,0.75-1.326,1.344-2.201,1.777c-0.869,0.43-1.871,0.65-3.01,0.65c-1.104,0-2.059-0.205-2.854-0.604
			c-0.803-0.398-1.492-0.996-2.078-1.783v7.885H397.104z M403.87,187.264c-1.068,0-2.043,0.279-2.914,0.834
			c-0.869,0.557-1.639,1.334-2.311,2.332v8.469c0.617,0.93,1.301,1.584,2.053,1.963s1.607,0.568,2.574,0.568
			c0.949,0,1.781-0.17,2.498-0.521c0.711-0.346,1.311-0.83,1.791-1.465s0.846-1.393,1.088-2.271
			c0.244-0.883,0.365-1.854,0.365-2.916c0-2.4-0.441-4.166-1.322-5.295C406.809,187.83,405.534,187.264,403.87,187.264z"/>
		<path fill="#B0EA3F" d="M424.282,202.434c-0.326,0-0.523-0.15-0.598-0.455l-0.23-2.057c-0.447,0.434-0.885,0.822-1.32,1.168
			c-0.439,0.346-0.895,0.639-1.371,0.875c-0.48,0.238-0.992,0.418-1.541,0.543c-0.555,0.125-1.158,0.189-1.818,0.189
			c-0.553,0-1.088-0.084-1.607-0.246s-0.98-0.412-1.379-0.746c-0.398-0.336-0.721-0.766-0.967-1.289s-0.363-1.156-0.363-1.893
			c0-0.682,0.193-1.312,0.582-1.896c0.391-0.584,1-1.092,1.828-1.527c0.822-0.432,1.889-0.777,3.195-1.037
			c1.303-0.26,2.867-0.412,4.697-0.453v-1.688c0-1.492-0.324-2.641-0.967-3.451c-0.643-0.803-1.598-1.207-2.861-1.207
			c-0.779,0-1.441,0.107-1.988,0.324c-0.547,0.219-1.008,0.453-1.387,0.715c-0.383,0.26-0.688,0.496-0.926,0.715
			c-0.238,0.217-0.439,0.326-0.6,0.326c-0.215,0-0.381-0.1-0.486-0.295l-0.277-0.473c0.84-0.844,1.732-1.48,2.664-1.914
			c0.926-0.43,1.982-0.648,3.16-0.648c0.867,0,1.623,0.135,2.271,0.416c0.652,0.273,1.189,0.668,1.615,1.184
			c0.426,0.514,0.75,1.133,0.963,1.865c0.221,0.73,0.328,1.543,0.328,2.443v10.512H424.282z M417.792,201.574
			c0.625,0,1.203-0.064,1.73-0.199c0.525-0.137,1.01-0.328,1.457-0.57s0.869-0.533,1.26-0.867c0.389-0.338,0.768-0.697,1.15-1.088
			v-4.201c-1.537,0.043-2.857,0.158-3.967,0.35c-1.111,0.186-2.023,0.441-2.742,0.77c-0.719,0.324-1.25,0.707-1.592,1.156
			c-0.342,0.451-0.51,0.961-0.51,1.535c0,0.541,0.09,1.008,0.264,1.404c0.184,0.396,0.418,0.721,0.711,0.973
			c0.291,0.258,0.633,0.443,1.021,0.561C416.963,201.516,417.368,201.574,417.792,201.574z"/>
		<path fill="#B0EA3F" d="M429.282,202.434v-16.141h0.807c0.188,0,0.32,0.037,0.402,0.111c0.08,0.076,0.125,0.205,0.137,0.389
			l0.129,3.408c0.518-1.309,1.215-2.334,2.076-3.076c0.865-0.74,1.934-1.111,3.199-1.111c0.486,0,0.936,0.053,1.346,0.154
			c0.41,0.105,0.799,0.252,1.168,0.445l-0.209,1.07c-0.035,0.176-0.145,0.262-0.326,0.262c-0.064,0-0.158-0.021-0.275-0.064
			c-0.121-0.043-0.268-0.092-0.447-0.148c-0.178-0.053-0.396-0.102-0.656-0.145c-0.262-0.041-0.557-0.064-0.893-0.064
			c-1.221,0-2.225,0.379-3.012,1.135c-0.783,0.76-1.42,1.852-1.904,3.279v10.496H429.282z"/>
		<path fill="#B0EA3F" d="M451.168,202.434c-0.322,0-0.523-0.15-0.598-0.455l-0.23-2.057c-0.441,0.434-0.883,0.822-1.322,1.168
			c-0.438,0.346-0.893,0.639-1.371,0.875c-0.479,0.238-0.99,0.418-1.541,0.543c-0.553,0.125-1.16,0.189-1.814,0.189
			c-0.553,0-1.09-0.084-1.609-0.246s-0.979-0.412-1.379-0.746c-0.4-0.336-0.721-0.766-0.967-1.289
			c-0.242-0.523-0.363-1.156-0.363-1.893c0-0.682,0.195-1.312,0.584-1.896c0.387-0.584,0.998-1.092,1.824-1.527
			c0.828-0.432,1.895-0.777,3.197-1.037c1.307-0.26,2.869-0.412,4.697-0.453v-1.688c0-1.492-0.32-2.641-0.961-3.451
			c-0.648-0.803-1.604-1.207-2.867-1.207c-0.777,0-1.445,0.107-1.988,0.324c-0.547,0.219-1.01,0.453-1.387,0.715
			c-0.379,0.26-0.686,0.496-0.926,0.715c-0.238,0.217-0.438,0.326-0.6,0.326c-0.215,0-0.377-0.1-0.484-0.295l-0.281-0.473
			c0.846-0.844,1.734-1.48,2.664-1.914c0.928-0.43,1.984-0.648,3.162-0.648c0.867,0,1.627,0.135,2.271,0.416
			c0.654,0.273,1.189,0.668,1.615,1.184c0.43,0.514,0.75,1.133,0.965,1.865c0.217,0.73,0.324,1.543,0.324,2.443v10.512H451.168z
			 M444.678,201.574c0.629,0,1.205-0.064,1.729-0.199c0.527-0.137,1.012-0.328,1.461-0.57s0.869-0.533,1.256-0.867
			c0.391-0.338,0.775-0.697,1.152-1.088v-4.201c-1.533,0.043-2.857,0.158-3.967,0.35c-1.107,0.186-2.025,0.441-2.744,0.77
			c-0.717,0.324-1.25,0.707-1.59,1.156c-0.34,0.451-0.51,0.961-0.51,1.535c0,0.541,0.09,1.008,0.268,1.404
			c0.18,0.396,0.414,0.721,0.707,0.973c0.291,0.258,0.633,0.443,1.02,0.561C443.85,201.516,444.256,201.574,444.678,201.574z"/>
		<path fill="#B0EA3F" d="M468.028,186.029c0.908,0,1.752,0.158,2.525,0.471c0.771,0.316,1.441,0.773,2.014,1.375
			c0.562,0.596,1.008,1.336,1.33,2.213c0.316,0.875,0.479,1.883,0.479,3.02c0,0.234-0.037,0.398-0.105,0.484
			c-0.072,0.088-0.182,0.129-0.332,0.129h-11.652v0.309c0,1.211,0.137,2.277,0.422,3.199c0.279,0.918,0.68,1.689,1.199,2.309
			c0.521,0.625,1.146,1.094,1.885,1.404c0.734,0.318,1.559,0.473,2.467,0.473c0.809,0,1.514-0.09,2.105-0.268
			c0.6-0.182,1.098-0.379,1.504-0.604c0.402-0.221,0.727-0.418,0.967-0.6c0.234-0.178,0.41-0.266,0.52-0.266
			c0.137,0,0.246,0.053,0.322,0.162l0.424,0.52c-0.262,0.322-0.605,0.627-1.031,0.91c-0.43,0.279-0.904,0.52-1.43,0.719
			c-0.523,0.201-1.086,0.359-1.686,0.479c-0.604,0.121-1.203,0.182-1.812,0.182c-1.102,0-2.109-0.195-3.018-0.58
			c-0.906-0.381-1.688-0.941-2.338-1.68c-0.65-0.732-1.154-1.633-1.512-2.699c-0.354-1.066-0.531-2.287-0.531-3.66
			c0-1.156,0.166-2.225,0.496-3.201c0.332-0.982,0.805-1.826,1.428-2.533s1.383-1.264,2.287-1.664
			C465.858,186.232,466.881,186.029,468.028,186.029z M468.053,187.182c-0.83,0-1.578,0.131-2.236,0.391
			c-0.66,0.26-1.229,0.631-1.707,1.117c-0.482,0.488-0.869,1.072-1.168,1.758c-0.297,0.678-0.494,1.441-0.592,2.283h10.631
			c0-0.863-0.123-1.641-0.357-2.326c-0.238-0.688-0.576-1.268-1.006-1.746c-0.432-0.475-0.951-0.838-1.553-1.094
			C469.456,187.311,468.786,187.182,468.053,187.182z"/>
		<path fill="#B0EA3F" d="M483.704,202.434h-1.361l-6.814-16.141h1.215c0.152,0,0.273,0.039,0.367,0.119
			c0.088,0.082,0.158,0.172,0.199,0.266l5.324,12.738c0.105,0.25,0.188,0.488,0.242,0.719c0.055,0.225,0.107,0.449,0.162,0.678
			c0.055-0.229,0.111-0.455,0.17-0.688c0.061-0.232,0.141-0.469,0.236-0.709l5.355-12.738c0.057-0.117,0.127-0.211,0.219-0.283
			c0.09-0.068,0.205-0.102,0.332-0.102h1.168L483.704,202.434z"/>
		<path fill="#B0EA3F" d="M498.86,186.029c0.908,0,1.75,0.158,2.523,0.471c0.771,0.316,1.439,0.773,2.008,1.375
			c0.568,0.596,1.014,1.336,1.334,2.213c0.32,0.875,0.479,1.883,0.479,3.02c0,0.234-0.031,0.398-0.105,0.484
			c-0.072,0.088-0.182,0.129-0.332,0.129h-11.652v0.309c0,1.211,0.141,2.277,0.422,3.199c0.279,0.918,0.684,1.689,1.201,2.309
			c0.518,0.625,1.146,1.094,1.881,1.404c0.738,0.318,1.561,0.473,2.469,0.473c0.812,0,1.514-0.09,2.109-0.268
			c0.594-0.182,1.096-0.379,1.502-0.604c0.406-0.221,0.727-0.418,0.965-0.6c0.236-0.178,0.41-0.266,0.52-0.266
			c0.139,0,0.248,0.053,0.32,0.162l0.422,0.52c-0.256,0.322-0.6,0.627-1.025,0.91c-0.43,0.279-0.904,0.52-1.428,0.719
			c-0.527,0.201-1.088,0.359-1.689,0.479c-0.598,0.121-1.203,0.182-1.809,0.182c-1.105,0-2.111-0.195-3.02-0.58
			c-0.908-0.381-1.688-0.941-2.336-1.68c-0.652-0.732-1.156-1.633-1.512-2.699s-0.533-2.287-0.533-3.66
			c0-1.156,0.166-2.225,0.494-3.201c0.332-0.982,0.809-1.826,1.428-2.533c0.625-0.707,1.387-1.264,2.287-1.664
			C496.688,186.232,497.713,186.029,498.86,186.029z M498.881,187.182c-0.832,0-1.578,0.131-2.234,0.391
			c-0.658,0.26-1.229,0.631-1.707,1.117c-0.484,0.488-0.873,1.072-1.17,1.758c-0.295,0.678-0.494,1.441-0.59,2.283h10.629
			c0-0.863-0.117-1.641-0.361-2.326c-0.234-0.688-0.572-1.268-1.002-1.746c-0.434-0.475-0.949-0.838-1.555-1.094
			C500.288,187.311,499.62,187.182,498.881,187.182z"/>
		<path fill="#B0EA3F" d="M508.872,202.434v-16.141h0.844c0.279,0,0.441,0.135,0.482,0.402l0.15,2.436
			c0.734-0.934,1.594-1.682,2.57-2.248c0.982-0.568,2.068-0.854,3.27-0.854c0.889,0,1.666,0.143,2.344,0.422s1.238,0.688,1.68,1.219
			c0.445,0.527,0.779,1.166,1.006,1.914c0.227,0.746,0.346,1.59,0.346,2.531v10.318h-1.543v-10.318c0-1.514-0.348-2.701-1.041-3.562
			c-0.693-0.859-1.752-1.289-3.18-1.289c-1.062,0-2.045,0.275-2.953,0.818c-0.908,0.547-1.721,1.297-2.434,2.248v12.104H508.872z"/>
		<path fill="#B0EA3F" d="M530.338,202.697c-1.094,0-1.941-0.307-2.547-0.91c-0.604-0.605-0.908-1.541-0.908-2.809v-11.033h-2.32
			c-0.121,0-0.219-0.031-0.291-0.098c-0.078-0.064-0.113-0.158-0.113-0.275v-0.6l2.758-0.195l0.385-5.777
			c0.008-0.096,0.049-0.182,0.117-0.26c0.068-0.076,0.162-0.113,0.285-0.113h0.721v6.166h5.078v1.152h-5.078v10.953
			c0,0.443,0.057,0.824,0.17,1.143c0.115,0.32,0.273,0.582,0.471,0.787c0.199,0.207,0.434,0.357,0.707,0.455
			c0.268,0.098,0.559,0.146,0.875,0.146c0.391,0,0.727-0.055,1.006-0.168c0.279-0.115,0.523-0.244,0.73-0.377
			c0.207-0.135,0.373-0.258,0.502-0.373c0.131-0.113,0.232-0.172,0.309-0.172c0.086,0,0.176,0.057,0.26,0.164l0.422,0.682
			c-0.41,0.455-0.932,0.82-1.564,1.096S531.02,202.697,530.338,202.697z"/>
		<path fill="#B0EA3F" d="M543.172,186.029c1.156,0,2.189,0.199,3.111,0.592c0.912,0.398,1.678,0.955,2.307,1.682
			s1.107,1.598,1.439,2.621c0.33,1.021,0.492,2.168,0.492,3.428c0,1.268-0.162,2.41-0.492,3.426
			c-0.332,1.018-0.811,1.889-1.439,2.611c-0.629,0.727-1.395,1.285-2.307,1.674c-0.922,0.389-1.955,0.586-3.111,0.586
			c-1.16,0-2.195-0.197-3.107-0.586s-1.691-0.947-2.32-1.674c-0.633-0.723-1.115-1.594-1.447-2.611
			c-0.328-1.016-0.494-2.158-0.494-3.426c0-1.26,0.166-2.406,0.494-3.428c0.332-1.023,0.814-1.895,1.447-2.621
			c0.629-0.727,1.408-1.283,2.32-1.682C540.977,186.229,542.012,186.029,543.172,186.029z M543.172,201.43
			c0.965,0,1.805-0.164,2.521-0.496c0.719-0.33,1.318-0.799,1.801-1.42c0.484-0.615,0.844-1.359,1.08-2.229
			c0.238-0.873,0.357-1.85,0.357-2.934c0-1.068-0.119-2.041-0.357-2.918c-0.236-0.875-0.596-1.627-1.08-2.246
			c-0.482-0.623-1.082-1.102-1.801-1.436c-0.717-0.336-1.557-0.506-2.521-0.506c-0.961,0-1.805,0.17-2.523,0.506
			c-0.721,0.334-1.322,0.812-1.801,1.436c-0.482,0.619-0.844,1.371-1.086,2.246c-0.244,0.877-0.365,1.85-0.365,2.918
			c0,1.084,0.121,2.061,0.365,2.934c0.242,0.869,0.604,1.613,1.086,2.229c0.479,0.621,1.08,1.09,1.801,1.42
			C541.368,201.266,542.211,201.43,543.172,201.43z"/>
		<path fill="#B0EA3F" d="M562.985,188.287c-0.076,0.152-0.195,0.227-0.357,0.227c-0.117,0-0.271-0.066-0.457-0.203
			c-0.195-0.135-0.443-0.287-0.75-0.453c-0.309-0.17-0.689-0.318-1.137-0.457c-0.449-0.135-0.998-0.203-1.646-0.203
			c-0.584,0-1.115,0.086-1.598,0.252c-0.482,0.17-0.893,0.395-1.232,0.676c-0.342,0.281-0.609,0.605-0.797,0.98
			c-0.189,0.373-0.283,0.768-0.283,1.174c0,0.51,0.131,0.932,0.385,1.266c0.264,0.34,0.605,0.623,1.023,0.865
			c0.426,0.234,0.904,0.439,1.439,0.613s1.082,0.348,1.646,0.521c0.564,0.172,1.111,0.365,1.646,0.574
			c0.535,0.211,1.014,0.475,1.436,0.785c0.422,0.316,0.764,0.699,1.023,1.156c0.258,0.453,0.389,1.006,0.389,1.654
			c0,0.699-0.125,1.355-0.381,1.963c-0.252,0.604-0.621,1.129-1.104,1.574c-0.482,0.443-1.07,0.793-1.777,1.055
			c-0.701,0.26-1.504,0.391-2.4,0.391c-1.135,0-2.113-0.184-2.941-0.545c-0.818-0.363-1.553-0.834-2.201-1.422l0.373-0.549
			c0.053-0.086,0.113-0.152,0.178-0.195c0.061-0.045,0.154-0.064,0.271-0.064c0.143,0,0.316,0.084,0.523,0.26
			c0.207,0.174,0.471,0.357,0.799,0.557c0.334,0.201,0.742,0.389,1.234,0.562c0.494,0.172,1.107,0.26,1.828,0.26
			c0.682,0,1.277-0.096,1.801-0.285c0.516-0.189,0.949-0.447,1.299-0.771c0.344-0.322,0.607-0.705,0.787-1.145
			c0.178-0.438,0.268-0.9,0.268-1.387c0-0.539-0.131-0.992-0.391-1.346c-0.26-0.355-0.6-0.66-1.021-0.908
			c-0.426-0.252-0.9-0.461-1.439-0.633c-0.531-0.174-1.084-0.346-1.654-0.52c-0.564-0.174-1.121-0.363-1.652-0.566
			c-0.535-0.207-1.018-0.467-1.436-0.781c-0.422-0.314-0.766-0.695-1.021-1.143c-0.26-0.449-0.389-1.01-0.389-1.678
			c0-0.574,0.121-1.129,0.369-1.66c0.25-0.527,0.604-0.99,1.066-1.395c0.457-0.4,1.018-0.719,1.678-0.955
			c0.658-0.24,1.4-0.359,2.223-0.359c0.986,0,1.857,0.143,2.621,0.422c0.762,0.279,1.465,0.715,2.102,1.301L562.985,188.287z"/>
		<path fill="#B0EA3F" d="M584.786,202.434c-0.268,0-0.422-0.139-0.463-0.42l-0.162-2.549c-0.717,0.973-1.553,1.75-2.51,2.322
			c-0.961,0.572-2.037,0.861-3.229,0.861c-1.98,0-3.525-0.689-4.637-2.064c-1.111-1.373-1.666-3.432-1.666-6.182
			c0-1.178,0.154-2.277,0.461-3.303c0.309-1.021,0.768-1.906,1.367-2.66c0.602-0.752,1.334-1.344,2.211-1.777
			c0.873-0.43,1.879-0.648,3.014-0.648c1.096,0,2.045,0.205,2.844,0.607c0.803,0.408,1.492,1,2.08,1.779v-9.574h1.541v23.607
			H584.786z M578.86,201.396c1.07,0,2.045-0.273,2.908-0.826c0.867-0.553,1.643-1.32,2.328-2.307v-8.52
			c-0.633-0.918-1.322-1.566-2.072-1.943c-0.754-0.381-1.611-0.568-2.561-0.568c-0.953,0-1.787,0.17-2.502,0.52
			c-0.717,0.346-1.318,0.832-1.797,1.465c-0.482,0.637-0.848,1.395-1.09,2.271c-0.244,0.885-0.365,1.854-0.365,2.914
			c0,2.402,0.441,4.17,1.334,5.297C575.932,200.832,577.202,201.396,578.86,201.396z"/>
		<path fill="#B0EA3F" d="M596.657,186.029c0.908,0,1.748,0.158,2.523,0.471c0.771,0.316,1.443,0.773,2.012,1.375
			c0.568,0.596,1.01,1.336,1.33,2.213c0.316,0.875,0.479,1.883,0.479,3.02c0,0.234-0.037,0.398-0.105,0.484
			c-0.072,0.088-0.182,0.129-0.332,0.129h-11.648v0.309c0,1.211,0.137,2.277,0.418,3.199c0.279,0.918,0.682,1.689,1.199,2.309
			c0.52,0.625,1.148,1.094,1.883,1.404c0.738,0.318,1.561,0.473,2.471,0.473c0.811,0,1.512-0.09,2.104-0.268
			c0.602-0.182,1.096-0.379,1.506-0.604c0.404-0.221,0.727-0.418,0.965-0.6c0.236-0.178,0.41-0.266,0.52-0.266
			c0.137,0,0.248,0.053,0.32,0.162l0.426,0.52c-0.264,0.322-0.604,0.627-1.029,0.91c-0.432,0.279-0.906,0.52-1.434,0.719
			c-0.521,0.201-1.082,0.359-1.682,0.479c-0.602,0.121-1.209,0.182-1.814,0.182c-1.102,0-2.107-0.195-3.018-0.58
			c-0.904-0.381-1.686-0.941-2.336-1.68c-0.648-0.732-1.156-1.633-1.508-2.699c-0.357-1.066-0.535-2.287-0.535-3.66
			c0-1.156,0.166-2.225,0.494-3.201c0.332-0.982,0.803-1.826,1.428-2.533c0.621-0.707,1.387-1.264,2.291-1.664
			C594.483,186.232,595.51,186.029,596.657,186.029z M596.678,187.182c-0.828,0-1.578,0.131-2.236,0.391
			c-0.656,0.26-1.229,0.631-1.707,1.117c-0.482,0.488-0.871,1.072-1.168,1.758c-0.295,0.678-0.494,1.441-0.588,2.283h10.627
			c0-0.863-0.121-1.641-0.357-2.326c-0.234-0.688-0.572-1.268-1.006-1.746c-0.434-0.475-0.949-0.838-1.553-1.094
			C598.084,187.311,597.413,187.182,596.678,187.182z"/>
		<path fill="#B0EA3F" d="M612.444,202.434v-16.141h0.844c0.279,0,0.441,0.135,0.486,0.402l0.145,2.338
			c0.312-0.447,0.65-0.85,1.006-1.215c0.357-0.371,0.738-0.689,1.145-0.951c0.406-0.266,0.84-0.473,1.299-0.617
			c0.457-0.15,0.943-0.221,1.451-0.221c1.18,0,2.121,0.346,2.822,1.031c0.707,0.688,1.182,1.641,1.432,2.865
			c0.191-0.672,0.467-1.252,0.816-1.738c0.352-0.486,0.754-0.889,1.209-1.207c0.449-0.32,0.945-0.557,1.48-0.713
			c0.535-0.16,1.086-0.238,1.646-0.238c0.795,0,1.516,0.133,2.152,0.4c0.637,0.264,1.178,0.656,1.627,1.176
			c0.451,0.52,0.791,1.154,1.027,1.912c0.242,0.758,0.359,1.623,0.359,2.598v10.318h-1.541v-10.318c0-1.58-0.344-2.781-1.021-3.609
			c-0.686-0.828-1.654-1.242-2.92-1.242c-0.564,0-1.104,0.104-1.615,0.309c-0.514,0.207-0.969,0.51-1.367,0.916
			c-0.393,0.408-0.705,0.912-0.939,1.516c-0.232,0.609-0.346,1.309-0.346,2.111v10.318H622.1v-10.318
			c0-1.568-0.316-2.768-0.941-3.602c-0.629-0.834-1.541-1.25-2.742-1.25c-0.879,0-1.691,0.26-2.438,0.787
			c-0.75,0.523-1.41,1.252-1.994,2.184v12.199H612.444z"/>
		<path fill="#B0EA3F" d="M648.075,202.434c-0.324,0-0.527-0.15-0.602-0.455l-0.227-2.057c-0.441,0.434-0.885,0.822-1.322,1.168
			s-0.896,0.639-1.371,0.875c-0.475,0.238-0.988,0.418-1.541,0.543c-0.555,0.125-1.16,0.189-1.816,0.189
			c-0.553,0-1.088-0.084-1.607-0.246c-0.518-0.162-0.977-0.412-1.383-0.746c-0.396-0.336-0.717-0.766-0.965-1.289
			c-0.242-0.523-0.361-1.156-0.361-1.893c0-0.682,0.195-1.312,0.584-1.896c0.387-0.584,0.998-1.092,1.826-1.527
			c0.826-0.432,1.891-0.777,3.195-1.037c1.303-0.26,2.867-0.412,4.697-0.453v-1.688c0-1.492-0.32-2.641-0.965-3.451
			c-0.641-0.803-1.6-1.207-2.863-1.207c-0.775,0-1.445,0.107-1.988,0.324c-0.547,0.219-1.01,0.453-1.387,0.715
			c-0.381,0.26-0.689,0.496-0.926,0.715c-0.238,0.217-0.438,0.326-0.6,0.326c-0.219,0-0.381-0.1-0.486-0.295l-0.279-0.473
			c0.848-0.844,1.734-1.48,2.664-1.914c0.928-0.43,1.982-0.648,3.164-0.648c0.863,0,1.621,0.135,2.271,0.416
			c0.648,0.273,1.188,0.668,1.613,1.184c0.426,0.514,0.75,1.133,0.965,1.865c0.215,0.73,0.324,1.543,0.324,2.443v10.512H648.075z
			 M641.584,201.574c0.625,0,1.205-0.064,1.729-0.199c0.527-0.137,1.01-0.328,1.459-0.57c0.451-0.242,0.873-0.533,1.258-0.867
			c0.391-0.338,0.775-0.697,1.152-1.088v-4.201c-1.533,0.043-2.859,0.158-3.967,0.35c-1.111,0.186-2.023,0.441-2.742,0.77
			c-0.717,0.324-1.254,0.707-1.59,1.156c-0.34,0.451-0.512,0.961-0.512,1.535c0,0.541,0.09,1.008,0.27,1.404
			c0.178,0.396,0.412,0.721,0.705,0.973c0.291,0.258,0.633,0.443,1.021,0.561C640.752,201.516,641.163,201.574,641.584,201.574z"/>
		<path fill="#B0EA3F" d="M661.965,188.287c-0.076,0.152-0.193,0.227-0.361,0.227c-0.117,0-0.271-0.066-0.457-0.203
			c-0.191-0.135-0.443-0.287-0.746-0.453c-0.312-0.17-0.689-0.318-1.137-0.457c-0.453-0.135-1.002-0.203-1.65-0.203
			c-0.584,0-1.115,0.086-1.598,0.252c-0.479,0.17-0.893,0.395-1.232,0.676c-0.342,0.281-0.605,0.605-0.795,0.98
			c-0.188,0.373-0.285,0.768-0.285,1.174c0,0.51,0.131,0.932,0.391,1.266c0.258,0.34,0.6,0.623,1.021,0.865
			c0.422,0.234,0.9,0.439,1.436,0.613s1.086,0.348,1.646,0.521c0.564,0.172,1.115,0.365,1.646,0.574
			c0.535,0.211,1.014,0.475,1.436,0.785c0.422,0.316,0.768,0.699,1.023,1.156c0.264,0.453,0.389,1.006,0.389,1.654
			c0,0.699-0.125,1.355-0.377,1.963c-0.256,0.604-0.625,1.129-1.107,1.574c-0.479,0.443-1.07,0.793-1.773,1.055
			c-0.705,0.26-1.504,0.391-2.404,0.391c-1.135,0-2.113-0.184-2.936-0.545c-0.824-0.363-1.559-0.834-2.207-1.422l0.373-0.549
			c0.057-0.086,0.113-0.152,0.178-0.195c0.064-0.045,0.158-0.064,0.275-0.064c0.143,0,0.312,0.084,0.52,0.26
			c0.207,0.174,0.475,0.357,0.803,0.557c0.33,0.201,0.742,0.389,1.234,0.562c0.49,0.172,1.104,0.26,1.824,0.26
			c0.686,0,1.281-0.096,1.801-0.285s0.953-0.447,1.303-0.771c0.344-0.322,0.604-0.705,0.787-1.145
			c0.174-0.438,0.264-0.9,0.264-1.387c0-0.539-0.131-0.992-0.391-1.346c-0.256-0.355-0.6-0.66-1.021-0.908
			c-0.422-0.252-0.896-0.461-1.432-0.633c-0.539-0.174-1.092-0.346-1.658-0.52c-0.568-0.174-1.121-0.363-1.656-0.566
			c-0.535-0.207-1.014-0.467-1.436-0.781s-0.762-0.695-1.021-1.143c-0.26-0.449-0.385-1.01-0.385-1.678
			c0-0.574,0.121-1.129,0.369-1.66c0.25-0.527,0.6-0.99,1.062-1.395c0.457-0.4,1.018-0.719,1.682-0.955
			c0.658-0.24,1.4-0.359,2.223-0.359c0.982,0,1.859,0.143,2.621,0.422s1.461,0.715,2.098,1.301L661.965,188.287z"/>
		<path fill="#B0EA3F" d="M675.436,188.287c-0.078,0.152-0.199,0.227-0.361,0.227c-0.117,0-0.271-0.066-0.463-0.203
			c-0.186-0.135-0.438-0.287-0.746-0.453c-0.309-0.17-0.686-0.318-1.131-0.457c-0.455-0.135-0.998-0.203-1.65-0.203
			c-0.586,0-1.117,0.086-1.6,0.252c-0.482,0.17-0.893,0.395-1.232,0.676s-0.604,0.605-0.795,0.98
			c-0.188,0.373-0.283,0.768-0.283,1.174c0,0.51,0.129,0.932,0.389,1.266c0.26,0.34,0.6,0.623,1.021,0.865
			c0.422,0.234,0.9,0.439,1.436,0.613c0.537,0.174,1.084,0.348,1.648,0.521c0.562,0.172,1.115,0.365,1.65,0.574
			c0.531,0.211,1.01,0.475,1.432,0.785c0.422,0.316,0.762,0.699,1.021,1.156c0.26,0.453,0.389,1.006,0.389,1.654
			c0,0.699-0.125,1.355-0.377,1.963c-0.256,0.604-0.623,1.129-1.107,1.574c-0.479,0.443-1.07,0.793-1.775,1.055
			c-0.701,0.26-1.502,0.391-2.402,0.391c-1.135,0-2.111-0.184-2.936-0.545c-0.824-0.363-1.557-0.834-2.207-1.422l0.373-0.549
			c0.053-0.086,0.113-0.152,0.18-0.195c0.064-0.045,0.158-0.064,0.275-0.064c0.139,0,0.312,0.084,0.52,0.26
			c0.207,0.174,0.475,0.357,0.803,0.557c0.328,0.201,0.742,0.389,1.232,0.562c0.496,0.172,1.104,0.26,1.826,0.26
			c0.686,0,1.281-0.096,1.801-0.285s0.953-0.447,1.297-0.771c0.35-0.322,0.609-0.705,0.791-1.145c0.174-0.438,0.264-0.9,0.264-1.387
			c0-0.539-0.129-0.992-0.389-1.346c-0.256-0.355-0.602-0.66-1.023-0.908c-0.42-0.252-0.9-0.461-1.436-0.633
			c-0.531-0.174-1.086-0.346-1.654-0.52s-1.119-0.363-1.654-0.566c-0.535-0.207-1.014-0.467-1.436-0.781s-0.764-0.695-1.023-1.143
			c-0.26-0.449-0.385-1.01-0.385-1.678c0-0.574,0.121-1.129,0.369-1.66c0.248-0.527,0.605-0.99,1.062-1.395
			c0.463-0.4,1.021-0.719,1.68-0.955c0.656-0.24,1.402-0.359,2.223-0.359c0.986,0,1.857,0.143,2.619,0.422
			c0.764,0.279,1.465,0.715,2.102,1.301L675.436,188.287z"/>
		<path fill="#B0EA3F" d="M690.313,202.434c-0.328,0-0.527-0.15-0.602-0.455l-0.227-2.057c-0.445,0.434-0.889,0.822-1.322,1.168
			c-0.438,0.346-0.896,0.639-1.371,0.875c-0.479,0.238-0.988,0.418-1.541,0.543c-0.551,0.125-1.16,0.189-1.816,0.189
			c-0.557,0-1.088-0.084-1.611-0.246c-0.518-0.162-0.977-0.412-1.379-0.746c-0.396-0.336-0.717-0.766-0.965-1.289
			c-0.242-0.523-0.365-1.156-0.365-1.893c0-0.682,0.195-1.312,0.584-1.896c0.391-0.584,1.002-1.092,1.826-1.527
			c0.826-0.432,1.895-0.777,3.195-1.037c1.307-0.26,2.871-0.412,4.697-0.453v-1.688c0-1.492-0.32-2.641-0.965-3.451
			c-0.641-0.803-1.6-1.207-2.859-1.207c-0.779,0-1.445,0.107-1.988,0.324c-0.547,0.219-1.01,0.453-1.391,0.715
			c-0.377,0.26-0.686,0.496-0.926,0.715c-0.234,0.217-0.438,0.326-0.596,0.326c-0.219,0-0.381-0.1-0.49-0.295l-0.275-0.473
			c0.842-0.844,1.73-1.48,2.664-1.914c0.928-0.43,1.982-0.648,3.164-0.648c0.863,0,1.617,0.135,2.271,0.416
			c0.648,0.273,1.188,0.668,1.613,1.184c0.426,0.514,0.75,1.133,0.961,1.865c0.219,0.73,0.328,1.543,0.328,2.443v10.512H690.313z
			 M683.823,201.574c0.625,0,1.205-0.064,1.729-0.199c0.523-0.137,1.01-0.328,1.455-0.57c0.451-0.242,0.873-0.533,1.262-0.867
			c0.391-0.338,0.771-0.697,1.148-1.088v-4.201c-1.533,0.043-2.855,0.158-3.963,0.35c-1.111,0.186-2.023,0.441-2.746,0.77
			c-0.717,0.324-1.248,0.707-1.59,1.156c-0.34,0.451-0.506,0.961-0.506,1.535c0,0.541,0.088,1.008,0.262,1.404
			c0.184,0.396,0.414,0.721,0.707,0.973c0.291,0.258,0.633,0.443,1.021,0.561C682.991,201.516,683.397,201.574,683.823,201.574z"/>
	</g>
</g>
</svg>
