<?xml version="1.0" encoding="utf-8"?>
<!-- Generator: Adobe Illustrator 16.0.0, SVG Export Plug-In . SVG Version: 6.00 Build 0)  -->
<!DOCTYPE svg PUBLIC "-//W3C//DTD SVG 1.1//EN" "http://www.w3.org/Graphics/SVG/1.1/DTD/svg11.dtd">
<svg version="1.1" id="Layer_1" xmlns="http://www.w3.org/2000/svg" xmlns:xlink="http://www.w3.org/1999/xlink" x="0px" y="0px"
	 width="721.286px" height="229.301px" viewBox="0 0 721.286 229.301" enable-background="new 0 0 721.286 229.301"
	 xml:space="preserve">
<g>
	<g>
		<g>
			<path fill="#B0EA3F" d="M40.48,204.807c-0.296,0-0.466-0.156-0.514-0.468l-0.183-2.816c-0.792,1.076-1.718,1.932-2.777,2.567
				c-1.061,0.631-2.254,0.952-3.571,0.952c-2.194,0-3.905-0.759-5.139-2.282c-1.229-1.522-1.843-3.802-1.843-6.846
				c0-1.308,0.168-2.521,0.512-3.656c0.345-1.135,0.849-2.115,1.515-2.947c0.665-0.834,1.48-1.488,2.444-1.965
				c0.965-0.481,2.078-0.721,3.337-0.721c1.211,0,2.262,0.223,3.149,0.67c0.89,0.45,1.652,1.104,2.304,1.971v-10.6h1.705v26.141
				H40.48z M33.92,203.657c1.186,0,2.262-0.306,3.222-0.919c0.959-0.609,1.817-1.46,2.572-2.55v-9.433
				c-0.696-1.021-1.459-1.738-2.296-2.157c-0.833-0.417-1.778-0.628-2.832-0.628c-1.056,0-1.981,0.192-2.771,0.577
				c-0.793,0.383-1.455,0.923-1.986,1.626c-0.533,0.695-0.938,1.538-1.207,2.514c-0.271,0.974-0.406,2.052-0.406,3.227
				c0,2.655,0.496,4.615,1.475,5.862C30.674,203.027,32.083,203.657,33.92,203.657z"/>
			<path fill="#B0EA3F" d="M50.386,180.771c0,0.215-0.046,0.411-0.136,0.598c-0.091,0.187-0.206,0.348-0.351,0.495
				c-0.145,0.143-0.312,0.261-0.501,0.342c-0.193,0.088-0.395,0.128-0.61,0.128s-0.419-0.04-0.612-0.128
				c-0.191-0.081-0.359-0.199-0.501-0.342c-0.145-0.147-0.259-0.309-0.342-0.495c-0.088-0.187-0.127-0.383-0.127-0.598
				c0-0.222,0.039-0.425,0.127-0.624c0.083-0.196,0.197-0.367,0.342-0.514c0.142-0.145,0.31-0.251,0.501-0.335
				c0.193-0.087,0.396-0.13,0.612-0.13s0.417,0.043,0.61,0.13c0.189,0.084,0.356,0.19,0.501,0.335
				c0.145,0.146,0.26,0.312,0.351,0.514C50.34,180.346,50.386,180.549,50.386,180.771z M49.632,186.929v17.878h-1.71v-17.878H49.632
				z"/>
			<path fill="#B0EA3F" d="M61.847,186.625c0.779,0,1.503,0.098,2.168,0.288c0.662,0.191,1.26,0.459,1.787,0.809h4.58v0.592
				c0,0.302-0.167,0.459-0.504,0.485l-2.709,0.195c0.333,0.454,0.59,0.972,0.772,1.538c0.178,0.568,0.268,1.176,0.268,1.821
				c0,0.863-0.158,1.645-0.467,2.35c-0.311,0.696-0.747,1.297-1.3,1.793c-0.56,0.496-1.229,0.881-2.007,1.156
				c-0.777,0.28-1.639,0.416-2.587,0.416c-1.034,0-1.966-0.155-2.803-0.469c-0.504,0.291-0.898,0.629-1.187,1.027
				c-0.291,0.396-0.43,0.78-0.43,1.15c0,0.511,0.178,0.907,0.54,1.184c0.356,0.272,0.836,0.478,1.424,0.6
				c0.595,0.128,1.271,0.207,2.034,0.244c0.76,0.038,1.531,0.077,2.311,0.115c0.79,0.043,1.563,0.121,2.321,0.229
				c0.763,0.105,1.439,0.296,2.031,0.562c0.594,0.268,1.067,0.646,1.427,1.132c0.356,0.488,0.543,1.13,0.543,1.938
				c0,0.739-0.187,1.453-0.56,2.131c-0.375,0.683-0.906,1.292-1.609,1.815c-0.697,0.527-1.546,0.952-2.54,1.27
				c-0.992,0.315-2.11,0.473-3.341,0.473c-1.261,0-2.36-0.126-3.308-0.386c-0.945-0.258-1.741-0.601-2.379-1.04
				c-0.646-0.438-1.125-0.945-1.446-1.521c-0.328-0.568-0.485-1.188-0.485-1.83c0-0.944,0.312-1.758,0.936-2.441
				c0.619-0.686,1.479-1.212,2.565-1.585c-0.599-0.199-1.074-0.494-1.428-0.875c-0.353-0.388-0.527-0.915-0.527-1.604
				c0-0.25,0.045-0.514,0.145-0.793c0.094-0.268,0.237-0.543,0.432-0.813c0.191-0.272,0.42-0.523,0.69-0.762
				c0.271-0.241,0.584-0.456,0.942-0.651c-0.849-0.489-1.511-1.143-1.981-1.952c-0.478-0.816-0.715-1.773-0.715-2.859
				c0-0.859,0.155-1.644,0.459-2.343c0.305-0.702,0.735-1.301,1.295-1.812c0.559-0.502,1.23-0.888,2.021-1.164
				C60.015,186.765,60.891,186.625,61.847,186.625z M68.48,206.013c0-0.565-0.151-1.02-0.44-1.358
				c-0.293-0.342-0.688-0.603-1.179-0.798c-0.49-0.193-1.055-0.327-1.697-0.402c-0.643-0.079-1.312-0.141-2.013-0.174
				c-0.699-0.041-1.405-0.071-2.11-0.105c-0.705-0.039-1.366-0.109-1.975-0.216c-0.457,0.177-0.875,0.384-1.271,0.624
				c-0.386,0.229-0.718,0.491-0.992,0.783c-0.275,0.293-0.493,0.617-0.647,0.972c-0.154,0.354-0.234,0.738-0.234,1.164
				c0,0.525,0.135,1.011,0.404,1.462c0.268,0.446,0.666,0.838,1.186,1.167c0.521,0.329,1.161,0.591,1.917,0.779
				c0.751,0.19,1.619,0.288,2.603,0.288c0.909,0,1.756-0.104,2.542-0.307c0.783-0.2,1.468-0.492,2.05-0.858
				c0.581-0.373,1.033-0.818,1.364-1.334C68.315,207.184,68.48,206.626,68.48,206.013z M61.847,196.901
				c0.771,0,1.451-0.113,2.05-0.329c0.598-0.224,1.105-0.533,1.507-0.934c0.411-0.393,0.721-0.865,0.93-1.418
				c0.208-0.546,0.314-1.158,0.314-1.832c0-0.671-0.109-1.283-0.327-1.839c-0.215-0.553-0.527-1.034-0.941-1.43
				c-0.415-0.395-0.917-0.698-1.511-0.918c-0.593-0.217-1.265-0.322-2.021-0.322c-0.751,0-1.429,0.105-2.029,0.322
				c-0.602,0.22-1.105,0.523-1.52,0.918c-0.411,0.396-0.729,0.877-0.942,1.43c-0.215,0.556-0.324,1.168-0.324,1.839
				c0,0.674,0.109,1.286,0.324,1.832c0.213,0.553,0.531,1.025,0.942,1.418c0.418,0.4,0.918,0.71,1.52,0.934
				C60.418,196.788,61.096,196.901,61.847,196.901z"/>
			<path fill="#B0EA3F" d="M77.048,180.771c0,0.215-0.045,0.411-0.134,0.598c-0.094,0.187-0.207,0.348-0.353,0.495
				c-0.144,0.143-0.309,0.261-0.501,0.342c-0.189,0.088-0.397,0.128-0.612,0.128c-0.22,0-0.422-0.04-0.608-0.128
				c-0.195-0.081-0.362-0.199-0.504-0.342c-0.146-0.147-0.258-0.309-0.343-0.495c-0.086-0.187-0.128-0.383-0.128-0.598
				c0-0.222,0.042-0.425,0.128-0.624c0.085-0.196,0.197-0.367,0.343-0.514c0.142-0.145,0.309-0.251,0.504-0.335
				c0.187-0.087,0.389-0.13,0.608-0.13c0.215,0,0.423,0.043,0.612,0.13c0.188,0.084,0.357,0.19,0.501,0.335
				c0.146,0.146,0.259,0.312,0.353,0.514C77.003,180.346,77.048,180.549,77.048,180.771z M76.293,186.929v17.878h-1.71v-17.878
				H76.293z"/>
			<path fill="#B0EA3F" d="M87.484,205.097c-1.206,0-2.147-0.338-2.815-1.007c-0.678-0.674-1.01-1.707-1.01-3.11v-12.219h-2.57
				c-0.132,0-0.237-0.032-0.321-0.106c-0.084-0.068-0.125-0.173-0.125-0.305v-0.667l3.053-0.211l0.427-6.396
				c0.013-0.106,0.058-0.204,0.135-0.289c0.077-0.087,0.182-0.126,0.31-0.126h0.803v6.827h5.619v1.273h-5.619v12.132
				c0,0.486,0.061,0.909,0.184,1.264c0.129,0.358,0.303,0.645,0.523,0.868c0.223,0.229,0.482,0.4,0.781,0.507
				c0.298,0.106,0.623,0.161,0.972,0.161c0.43,0,0.8-0.059,1.112-0.187c0.313-0.126,0.578-0.267,0.809-0.415
				c0.228-0.147,0.414-0.29,0.56-0.415c0.139-0.122,0.258-0.186,0.337-0.186c0.098,0,0.19,0.059,0.289,0.177l0.467,0.758
				c-0.457,0.503-1.031,0.909-1.733,1.212C88.968,204.94,88.239,205.097,87.484,205.097z"/>
			<path fill="#B0EA3F" d="M106.834,204.807c-0.356,0-0.581-0.17-0.664-0.504l-0.251-2.279c-0.492,0.48-0.978,0.907-1.464,1.29
				c-0.483,0.389-0.995,0.71-1.521,0.971c-0.522,0.267-1.095,0.468-1.703,0.606c-0.613,0.135-1.284,0.209-2.015,0.209
				c-0.61,0-1.204-0.094-1.777-0.276c-0.575-0.18-1.085-0.45-1.526-0.822c-0.443-0.367-0.801-0.847-1.073-1.431
				c-0.266-0.579-0.401-1.278-0.401-2.088c0-0.76,0.218-1.46,0.649-2.109c0.431-0.642,1.103-1.209,2.021-1.685
				c0.911-0.479,2.097-0.863,3.54-1.151c1.439-0.288,3.178-0.459,5.203-0.504v-1.866c0-1.655-0.361-2.929-1.071-3.818
				c-0.716-0.891-1.771-1.337-3.174-1.337c-0.862,0-1.596,0.115-2.199,0.356c-0.606,0.241-1.119,0.506-1.537,0.792
				c-0.42,0.287-0.761,0.552-1.021,0.792c-0.268,0.235-0.49,0.357-0.667,0.357c-0.24,0-0.421-0.107-0.539-0.321l-0.309-0.523
				c0.938-0.936,1.919-1.64,2.948-2.119c1.03-0.478,2.197-0.717,3.505-0.717c0.958,0,1.794,0.148,2.515,0.454
				c0.722,0.309,1.313,0.743,1.789,1.312c0.47,0.568,0.826,1.257,1.067,2.066c0.24,0.811,0.359,1.712,0.359,2.706v11.644h-0.685
				V204.807z M99.648,203.856c0.698,0,1.332-0.071,1.916-0.228c0.581-0.146,1.121-0.357,1.616-0.631
				c0.498-0.268,0.962-0.585,1.393-0.957c0.433-0.373,0.857-0.775,1.279-1.209v-4.65c-1.705,0.05-3.167,0.18-4.397,0.391
				c-1.226,0.203-2.239,0.492-3.034,0.849c-0.799,0.361-1.383,0.789-1.758,1.283c-0.38,0.505-0.567,1.066-0.567,1.706
				c0,0.596,0.098,1.112,0.297,1.55c0.194,0.437,0.458,0.797,0.779,1.08c0.32,0.276,0.703,0.488,1.133,0.617
				C98.735,203.789,99.183,203.856,99.648,203.856z"/>
			<path fill="#B0EA3F" d="M115.118,178.666v26.141h-1.705v-26.141H115.118z"/>
			<path fill="#B0EA3F" d="M141.054,204.807c-0.296,0-0.467-0.156-0.513-0.468l-0.183-2.816c-0.79,1.076-1.719,1.932-2.777,2.567
				c-1.062,0.631-2.252,0.952-3.57,0.952c-2.197,0-3.907-0.759-5.138-2.282c-1.229-1.522-1.839-3.802-1.839-6.846
				c0-1.308,0.167-2.521,0.508-3.656c0.343-1.135,0.845-2.115,1.513-2.947c0.663-0.834,1.479-1.488,2.446-1.965
				c0.965-0.481,2.079-0.721,3.339-0.721c1.21,0,2.26,0.223,3.145,0.67c0.89,0.45,1.657,1.104,2.307,1.971v-10.6h1.703v26.141
				H141.054z M134.495,203.657c1.19,0,2.262-0.306,3.223-0.919c0.958-0.609,1.815-1.46,2.574-2.55v-9.433
				c-0.698-1.021-1.465-1.738-2.297-2.157c-0.834-0.417-1.775-0.628-2.833-0.628c-1.057,0-1.979,0.192-2.772,0.577
				c-0.791,0.383-1.453,0.923-1.989,1.626c-0.533,0.695-0.933,1.538-1.205,2.514c-0.271,0.974-0.403,2.052-0.403,3.227
				c0,2.655,0.489,4.615,1.476,5.862C131.253,203.027,132.662,203.657,134.495,203.657z"/>
			<path fill="#B0EA3F" d="M150.964,180.771c0,0.215-0.047,0.411-0.137,0.598c-0.091,0.187-0.207,0.348-0.349,0.495
				c-0.146,0.143-0.313,0.261-0.504,0.342c-0.19,0.088-0.398,0.128-0.61,0.128c-0.218,0-0.421-0.04-0.611-0.128
				c-0.193-0.081-0.359-0.199-0.504-0.342c-0.142-0.147-0.256-0.309-0.345-0.495c-0.082-0.187-0.127-0.383-0.127-0.598
				c0-0.222,0.045-0.425,0.127-0.624c0.089-0.196,0.203-0.367,0.345-0.514c0.145-0.145,0.311-0.251,0.504-0.335
				c0.19-0.087,0.394-0.13,0.611-0.13c0.212,0,0.42,0.043,0.61,0.13c0.189,0.084,0.357,0.19,0.504,0.335
				c0.142,0.146,0.258,0.312,0.349,0.514C150.917,180.346,150.964,180.549,150.964,180.771z M150.209,186.929v17.878H148.5v-17.878
				H150.209z"/>
			<path fill="#B0EA3F" d="M166.376,189.136c-0.087,0.171-0.216,0.257-0.396,0.257c-0.132,0-0.3-0.072-0.512-0.228
				c-0.208-0.153-0.485-0.315-0.826-0.502c-0.34-0.187-0.762-0.355-1.261-0.501c-0.493-0.157-1.101-0.228-1.823-0.228
				c-0.646,0-1.234,0.096-1.766,0.275c-0.536,0.189-0.992,0.438-1.369,0.747c-0.375,0.314-0.669,0.677-0.881,1.095
				c-0.209,0.409-0.317,0.84-0.317,1.295c0,0.569,0.147,1.029,0.435,1.401c0.289,0.371,0.667,0.688,1.136,0.955
				c0.464,0.263,0.997,0.485,1.589,0.681c0.591,0.194,1.198,0.386,1.821,0.576c0.624,0.193,1.231,0.407,1.82,0.64
				c0.594,0.231,1.125,0.521,1.593,0.871c0.467,0.344,0.849,0.771,1.135,1.276c0.286,0.498,0.432,1.111,0.432,1.828
				c0,0.783-0.146,1.508-0.425,2.179c-0.285,0.672-0.689,1.25-1.224,1.739c-0.533,0.491-1.186,0.885-1.965,1.167
				c-0.779,0.286-1.668,0.437-2.66,0.437c-1.258,0-2.344-0.206-3.252-0.604c-0.909-0.402-1.725-0.926-2.443-1.574l0.411-0.608
				c0.059-0.098,0.129-0.167,0.202-0.215c0.068-0.051,0.17-0.071,0.304-0.071c0.154,0,0.347,0.1,0.573,0.286
				c0.227,0.193,0.519,0.398,0.889,0.617c0.365,0.223,0.819,0.431,1.364,0.623c0.544,0.19,1.219,0.286,2.022,0.286
				c0.751,0,1.417-0.103,1.993-0.308c0.577-0.215,1.057-0.504,1.437-0.861c0.385-0.356,0.678-0.777,0.874-1.266
				c0.196-0.482,0.296-0.991,0.296-1.534c0-0.597-0.145-1.099-0.432-1.494c-0.286-0.392-0.664-0.726-1.131-1
				c-0.467-0.281-0.999-0.514-1.592-0.701c-0.59-0.197-1.201-0.386-1.831-0.578c-0.63-0.187-1.238-0.404-1.832-0.628
				c-0.595-0.227-1.124-0.518-1.594-0.862c-0.464-0.348-0.842-0.768-1.131-1.266c-0.283-0.499-0.431-1.12-0.431-1.859
				c0-0.639,0.139-1.249,0.415-1.837c0.272-0.586,0.667-1.101,1.176-1.541c0.511-0.446,1.131-0.8,1.859-1.062
				c0.73-0.261,1.551-0.396,2.463-0.396c1.087,0,2.058,0.157,2.902,0.469c0.841,0.312,1.619,0.788,2.327,1.438L166.376,189.136z"/>
			<path fill="#B0EA3F" d="M178.717,186.643c1.007,0,1.938,0.173,2.799,0.522c0.852,0.348,1.598,0.854,2.225,1.516
				c0.629,0.668,1.122,1.48,1.476,2.455c0.354,0.973,0.53,2.085,0.53,3.343c0,0.263-0.039,0.439-0.116,0.536
				c-0.079,0.1-0.201,0.148-0.369,0.148h-12.904v0.337c0,1.34,0.158,2.523,0.472,3.541c0.309,1.017,0.753,1.87,1.328,2.562
				c0.574,0.688,1.269,1.204,2.086,1.551c0.812,0.352,1.724,0.525,2.731,0.525c0.895,0,1.672-0.097,2.334-0.3
				c0.659-0.199,1.214-0.417,1.661-0.664c0.446-0.244,0.804-0.467,1.067-0.663c0.264-0.198,0.455-0.299,0.576-0.299
				c0.156,0,0.272,0.061,0.359,0.178l0.466,0.581c-0.289,0.355-0.666,0.686-1.142,1.003c-0.472,0.311-0.996,0.581-1.581,0.8
				c-0.578,0.219-1.202,0.398-1.866,0.525c-0.663,0.134-1.331,0.204-2.006,0.204c-1.222,0-2.332-0.216-3.34-0.64
				c-1.006-0.43-1.873-1.048-2.591-1.863c-0.72-0.813-1.278-1.808-1.674-2.987c-0.39-1.182-0.585-2.531-0.585-4.055
				c0-1.282,0.181-2.462,0.544-3.551c0.365-1.08,0.894-2.016,1.581-2.797c0.693-0.785,1.538-1.401,2.535-1.846
				C176.316,186.864,177.449,186.643,178.717,186.643z M178.747,187.914c-0.922,0-1.745,0.148-2.478,0.436
				c-0.728,0.289-1.357,0.697-1.892,1.237c-0.532,0.542-0.963,1.186-1.291,1.944c-0.334,0.749-0.544,1.597-0.654,2.528H184.2
				c0-0.958-0.132-1.815-0.392-2.57c-0.265-0.768-0.636-1.409-1.115-1.941c-0.476-0.523-1.052-0.928-1.722-1.209
				C180.301,188.062,179.562,187.914,178.747,187.914z"/>
			<path fill="#B0EA3F" d="M201.751,204.807c-0.356,0-0.581-0.17-0.664-0.504l-0.249-2.279c-0.491,0.48-0.98,0.907-1.468,1.29
				c-0.485,0.389-0.989,0.71-1.515,0.971c-0.53,0.267-1.096,0.468-1.707,0.606c-0.613,0.135-1.284,0.209-2.017,0.209
				c-0.606,0-1.199-0.094-1.774-0.276c-0.573-0.18-1.088-0.45-1.528-0.822c-0.445-0.367-0.8-0.847-1.072-1.431
				c-0.27-0.579-0.404-1.278-0.404-2.088c0-0.76,0.218-1.46,0.646-2.109c0.434-0.642,1.105-1.209,2.022-1.685
				c0.921-0.479,2.098-0.863,3.538-1.151c1.446-0.288,3.178-0.459,5.206-0.504v-1.866c0-1.655-0.354-2.929-1.07-3.818
				c-0.71-0.891-1.768-1.337-3.173-1.337c-0.86,0-1.594,0.115-2.197,0.356c-0.604,0.241-1.119,0.506-1.537,0.792
				c-0.42,0.287-0.762,0.552-1.024,0.792c-0.264,0.235-0.486,0.357-0.666,0.357c-0.234,0-0.418-0.107-0.542-0.321l-0.303-0.523
				c0.935-0.936,1.919-1.64,2.948-2.119c1.029-0.478,2.199-0.717,3.505-0.717c0.958,0,1.798,0.148,2.514,0.454
				c0.72,0.309,1.312,0.743,1.791,1.312c0.469,0.568,0.825,1.257,1.066,2.066c0.24,0.811,0.359,1.712,0.359,2.706v11.644h-0.685
				V204.807z M194.568,203.856c0.695,0,1.331-0.071,1.913-0.228c0.579-0.146,1.117-0.357,1.614-0.631
				c0.497-0.268,0.963-0.585,1.395-0.957c0.43-0.373,0.857-0.775,1.275-1.209v-4.65c-1.701,0.05-3.163,0.18-4.394,0.391
				c-1.228,0.203-2.24,0.492-3.037,0.849c-0.795,0.361-1.385,0.789-1.758,1.283c-0.382,0.505-0.568,1.066-0.568,1.706
				c0,0.596,0.096,1.112,0.296,1.55c0.199,0.437,0.459,0.797,0.782,1.08c0.322,0.276,0.701,0.488,1.133,0.617
				C193.652,203.789,194.102,203.856,194.568,203.856z"/>
			<path fill="#B0EA3F" d="M217.672,189.136c-0.083,0.171-0.215,0.257-0.395,0.257c-0.134,0-0.305-0.072-0.511-0.228
				c-0.212-0.153-0.488-0.315-0.831-0.502c-0.339-0.187-0.761-0.355-1.261-0.501c-0.491-0.157-1.1-0.228-1.82-0.228
				c-0.646,0-1.234,0.096-1.77,0.275c-0.533,0.189-0.986,0.438-1.363,0.747c-0.378,0.314-0.67,0.677-0.881,1.095
				c-0.209,0.409-0.317,0.84-0.317,1.295c0,0.569,0.143,1.029,0.435,1.401c0.288,0.371,0.664,0.688,1.133,0.955
				c0.47,0.263,0.997,0.485,1.588,0.681c0.592,0.194,1.202,0.386,1.825,0.576c0.623,0.193,1.23,0.407,1.825,0.64
				c0.593,0.231,1.12,0.521,1.583,0.871c0.472,0.344,0.851,0.771,1.137,1.276c0.289,0.498,0.431,1.111,0.431,1.828
				c0,0.783-0.138,1.508-0.422,2.179c-0.285,0.672-0.687,1.25-1.223,1.739c-0.534,0.491-1.191,0.885-1.968,1.167
				c-0.777,0.286-1.666,0.437-2.657,0.437c-1.258,0-2.343-0.206-3.252-0.604c-0.91-0.402-1.725-0.926-2.444-1.574l0.415-0.608
				c0.056-0.098,0.125-0.167,0.193-0.215c0.074-0.051,0.176-0.071,0.309-0.071c0.154,0,0.344,0.1,0.574,0.286
				c0.227,0.193,0.523,0.398,0.893,0.617c0.365,0.223,0.815,0.431,1.36,0.623c0.548,0.19,1.226,0.286,2.02,0.286
				c0.759,0,1.423-0.103,1.998-0.308c0.575-0.215,1.054-0.504,1.439-0.861c0.381-0.356,0.67-0.777,0.868-1.266
				c0.199-0.482,0.297-0.991,0.297-1.534c0-0.597-0.145-1.099-0.432-1.494c-0.287-0.392-0.665-0.726-1.135-1
				c-0.468-0.281-0.993-0.514-1.588-0.701c-0.591-0.197-1.207-0.386-1.832-0.578c-0.629-0.187-1.24-0.404-1.835-0.628
				c-0.588-0.227-1.118-0.518-1.588-0.862c-0.471-0.348-0.845-0.768-1.133-1.266c-0.288-0.499-0.431-1.12-0.431-1.859
				c0-0.639,0.137-1.249,0.414-1.837c0.275-0.586,0.667-1.101,1.179-1.541c0.508-0.446,1.125-0.8,1.858-1.062
				c0.727-0.261,1.548-0.396,2.461-0.396c1.088,0,2.057,0.157,2.899,0.469c0.845,0.312,1.624,0.788,2.33,1.438L217.672,189.136z"/>
			<path fill="#B0EA3F" d="M230.015,186.643c1.007,0,1.938,0.173,2.793,0.522c0.857,0.348,1.601,0.854,2.229,1.516
				c0.625,0.668,1.119,1.48,1.474,2.455c0.354,0.973,0.532,2.085,0.532,3.343c0,0.263-0.041,0.439-0.119,0.536
				c-0.076,0.1-0.199,0.148-0.368,0.148h-12.899v0.337c0,1.34,0.156,2.523,0.465,3.541c0.311,1.017,0.76,1.87,1.33,2.562
				c0.574,0.688,1.271,1.204,2.082,1.551c0.816,0.352,1.727,0.525,2.732,0.525c0.898,0,1.678-0.097,2.337-0.3
				c0.657-0.199,1.213-0.417,1.663-0.664c0.447-0.244,0.804-0.467,1.068-0.663c0.264-0.198,0.455-0.299,0.572-0.299
				c0.157,0,0.276,0.061,0.359,0.178l0.467,0.581c-0.29,0.355-0.666,0.686-1.139,1.003c-0.473,0.311-0.999,0.581-1.584,0.8
				c-0.58,0.219-1.202,0.398-1.867,0.525c-0.662,0.134-1.33,0.204-2.006,0.204c-1.219,0-2.331-0.216-3.337-0.64
				c-1.01-0.43-1.873-1.048-2.591-1.863c-0.723-0.813-1.275-1.808-1.67-2.987c-0.396-1.182-0.592-2.531-0.592-4.055
				c0-1.282,0.183-2.462,0.547-3.551c0.366-1.08,0.894-2.016,1.584-2.797c0.688-0.785,1.53-1.401,2.53-1.846
				C227.61,186.864,228.746,186.643,230.015,186.643z M230.042,187.914c-0.921,0-1.746,0.148-2.479,0.436
				c-0.727,0.289-1.36,0.697-1.891,1.237c-0.529,0.542-0.964,1.186-1.292,1.944c-0.33,0.749-0.547,1.597-0.654,2.528h11.769
				c0-0.958-0.135-1.815-0.395-2.57c-0.261-0.768-0.635-1.409-1.113-1.941c-0.478-0.523-1.053-0.928-1.72-1.209
				C231.596,188.062,230.854,187.914,230.042,187.914z"/>
			<path fill="#B0EA3F" d="M261.25,204.807c-0.296,0-0.466-0.156-0.516-0.468l-0.178-2.816c-0.797,1.076-1.723,1.932-2.781,2.567
				c-1.061,0.631-2.255,0.952-3.569,0.952c-2.195,0-3.908-0.759-5.139-2.282c-1.229-1.522-1.842-3.802-1.842-6.846
				c0-1.308,0.169-2.521,0.513-3.656c0.341-1.135,0.844-2.115,1.512-2.947c0.666-0.834,1.48-1.488,2.446-1.965
				c0.967-0.481,2.078-0.721,3.338-0.721c1.21,0,2.26,0.223,3.146,0.67c0.888,0.45,1.656,1.104,2.305,1.971v-10.6h1.703v26.141
				H261.25z M254.689,203.657c1.186,0,2.262-0.306,3.22-0.919c0.963-0.609,1.822-1.46,2.577-2.55v-9.433
				c-0.697-1.021-1.46-1.738-2.297-2.157c-0.834-0.417-1.775-0.628-2.833-0.628c-1.057,0-1.979,0.192-2.772,0.577
				c-0.788,0.383-1.455,0.923-1.983,1.626c-0.54,0.695-0.941,1.538-1.209,2.514c-0.272,0.974-0.402,2.052-0.402,3.227
				c0,2.655,0.489,4.615,1.474,5.862C251.448,203.027,252.854,203.657,254.689,203.657z"/>
			<path fill="#B0EA3F" d="M274.93,186.643c1.006,0,1.94,0.173,2.793,0.522c0.857,0.348,1.6,0.854,2.229,1.516
				c0.63,0.668,1.121,1.48,1.473,2.455c0.354,0.973,0.529,2.085,0.529,3.343c0,0.263-0.039,0.439-0.114,0.536
				c-0.077,0.1-0.203,0.148-0.365,0.148h-12.903v0.337c0,1.34,0.155,2.523,0.467,3.541c0.309,1.017,0.755,1.87,1.33,2.562
				c0.574,0.688,1.269,1.204,2.084,1.551c0.812,0.352,1.722,0.525,2.729,0.525c0.898,0,1.677-0.097,2.335-0.3
				c0.662-0.199,1.215-0.417,1.661-0.664c0.45-0.244,0.808-0.467,1.071-0.663c0.264-0.198,0.456-0.299,0.577-0.299
				c0.156,0,0.274,0.061,0.358,0.178l0.466,0.581c-0.29,0.355-0.668,0.686-1.142,1.003c-0.475,0.311-1,0.581-1.578,0.8
				c-0.581,0.219-1.207,0.398-1.873,0.525c-0.662,0.134-1.331,0.204-2.002,0.204c-1.222,0-2.334-0.216-3.341-0.64
				c-1.005-0.43-1.868-1.048-2.59-1.863c-0.722-0.813-1.278-1.808-1.671-2.987c-0.396-1.182-0.592-2.531-0.592-4.055
				c0-1.282,0.184-2.462,0.548-3.551c0.366-1.08,0.893-2.016,1.58-2.797c0.69-0.785,1.537-1.401,2.533-1.846
				C272.522,186.864,273.664,186.643,274.93,186.643z M274.958,187.914c-0.922,0-1.749,0.148-2.481,0.436
				c-0.727,0.289-1.354,0.697-1.89,1.237c-0.531,0.542-0.964,1.186-1.293,1.944c-0.329,0.749-0.545,1.597-0.654,2.528h11.771
				c0-0.958-0.135-1.815-0.396-2.57c-0.262-0.768-0.634-1.409-1.11-1.941c-0.479-0.523-1.055-0.928-1.722-1.209
				C276.51,188.062,275.771,187.914,274.958,187.914z"/>
			<path fill="#B0EA3F" d="M291.42,205.097c-1.208,0-2.147-0.338-2.815-1.007c-0.672-0.674-1.007-1.707-1.007-3.11v-12.219h-2.573
				c-0.127,0-0.236-0.032-0.318-0.106c-0.087-0.068-0.125-0.173-0.125-0.305v-0.667l3.053-0.211l0.427-6.396
				c0.014-0.106,0.055-0.204,0.132-0.289c0.075-0.087,0.181-0.126,0.314-0.126h0.798v6.827h5.625v1.273h-5.625v12.132
				c0,0.486,0.062,0.909,0.189,1.264c0.125,0.358,0.296,0.645,0.519,0.868c0.222,0.229,0.484,0.4,0.784,0.507
				c0.296,0.106,0.622,0.161,0.971,0.161c0.427,0,0.8-0.059,1.112-0.187c0.313-0.126,0.581-0.267,0.81-0.415
				c0.23-0.147,0.414-0.29,0.559-0.415c0.141-0.122,0.256-0.186,0.337-0.186c0.1,0,0.19,0.059,0.29,0.177l0.469,0.758
				c-0.459,0.503-1.037,0.909-1.732,1.212C292.905,204.94,292.178,205.097,291.42,205.097z"/>
			<path fill="#B0EA3F" d="M306.101,186.643c1.004,0,1.938,0.173,2.793,0.522c0.858,0.348,1.604,0.854,2.229,1.516
				c0.629,0.668,1.119,1.48,1.474,2.455c0.354,0.973,0.532,2.085,0.532,3.343c0,0.263-0.041,0.439-0.118,0.536
				c-0.077,0.1-0.199,0.148-0.369,0.148h-12.9v0.337c0,1.34,0.154,2.523,0.468,3.541c0.309,1.017,0.755,1.87,1.328,2.562
				c0.575,0.688,1.27,1.204,2.086,1.551c0.813,0.352,1.726,0.525,2.729,0.525c0.897,0,1.678-0.097,2.337-0.3
				c0.659-0.199,1.212-0.417,1.662-0.664c0.451-0.244,0.805-0.467,1.07-0.663c0.263-0.198,0.451-0.299,0.574-0.299
				c0.157,0,0.272,0.061,0.357,0.178l0.468,0.581c-0.289,0.355-0.664,0.686-1.14,1.003c-0.476,0.311-1,0.581-1.581,0.8
				c-0.58,0.219-1.203,0.398-1.868,0.525c-0.665,0.134-1.331,0.204-2.006,0.204c-1.22,0-2.334-0.216-3.338-0.64
				c-1.008-0.43-1.871-1.048-2.592-1.863c-0.72-0.813-1.278-1.808-1.673-2.987c-0.393-1.182-0.586-2.531-0.586-4.055
				c0-1.282,0.18-2.462,0.543-3.551c0.366-1.08,0.894-2.016,1.584-2.797c0.686-0.785,1.534-1.401,2.531-1.846
				C303.7,186.864,304.83,186.643,306.101,186.643z M306.127,187.914c-0.92,0-1.746,0.148-2.476,0.436
				c-0.727,0.289-1.359,0.697-1.892,1.237c-0.531,0.542-0.965,1.186-1.293,1.944c-0.331,0.749-0.547,1.597-0.656,2.528h11.77
				c0-0.958-0.131-1.815-0.395-2.57c-0.267-0.768-0.631-1.409-1.112-1.941c-0.476-0.523-1.05-0.928-1.724-1.209
				C307.68,188.062,306.941,187.914,306.127,187.914z"/>
			<path fill="#B0EA3F" d="M329.496,189.316c-0.061,0.062-0.118,0.112-0.17,0.154c-0.056,0.041-0.132,0.063-0.224,0.063
				c-0.121,0-0.288-0.079-0.497-0.241c-0.212-0.166-0.489-0.342-0.835-0.532c-0.349-0.189-0.781-0.367-1.303-0.524
				c-0.521-0.161-1.15-0.251-1.896-0.251c-1.027,0-1.943,0.188-2.738,0.553c-0.799,0.366-1.468,0.884-2.015,1.569
				c-0.546,0.688-0.958,1.511-1.246,2.481c-0.286,0.967-0.432,2.062-0.432,3.271c0,1.257,0.146,2.369,0.44,3.343
				c0.293,0.968,0.708,1.787,1.246,2.448c0.542,0.667,1.191,1.173,1.959,1.521c0.771,0.348,1.62,0.521,2.554,0.521
				c0.862,0,1.583-0.103,2.164-0.307c0.585-0.205,1.06-0.424,1.439-0.667c0.377-0.234,0.676-0.457,0.899-0.661
				c0.219-0.204,0.394-0.304,0.524-0.304c0.157,0,0.277,0.059,0.359,0.178l0.473,0.577c-0.276,0.354-0.626,0.689-1.044,1.004
				c-0.418,0.312-0.896,0.584-1.417,0.811c-0.534,0.224-1.1,0.4-1.72,0.523c-0.619,0.128-1.261,0.195-1.931,0.195
				c-1.142,0-2.177-0.212-3.118-0.621c-0.942-0.414-1.749-1.011-2.424-1.799c-0.678-0.779-1.206-1.745-1.585-2.886
				c-0.372-1.138-0.562-2.431-0.562-3.877c0-1.363,0.178-2.612,0.537-3.737c0.36-1.128,0.879-2.095,1.574-2.909
				c0.686-0.818,1.53-1.449,2.531-1.898c0.999-0.45,2.146-0.673,3.441-0.673c1.156,0,2.194,0.187,3.099,0.56
				c0.902,0.367,1.689,0.874,2.361,1.508L329.496,189.316z"/>
			<path fill="#B0EA3F" d="M338.944,205.097c-1.21,0-2.147-0.338-2.824-1.007c-0.665-0.674-1-1.707-1-3.11v-12.219h-2.57
				c-0.132,0-0.242-0.032-0.322-0.106c-0.086-0.068-0.129-0.173-0.129-0.305v-0.667l3.054-0.211l0.431-6.396
				c0.01-0.106,0.052-0.204,0.129-0.289c0.077-0.087,0.184-0.126,0.313-0.126h0.799v6.827h5.624v1.273h-5.624v12.132
				c0,0.486,0.066,0.909,0.188,1.264c0.129,0.358,0.297,0.645,0.523,0.868c0.219,0.229,0.482,0.4,0.779,0.507
				c0.301,0.106,0.62,0.161,0.97,0.161c0.431,0,0.803-0.059,1.111-0.187c0.312-0.126,0.582-0.267,0.813-0.415
				c0.229-0.147,0.41-0.29,0.557-0.415c0.142-0.122,0.254-0.186,0.339-0.186c0.096,0,0.191,0.059,0.287,0.177l0.467,0.758
				c-0.453,0.503-1.032,0.909-1.729,1.212C340.43,204.94,339.7,205.097,338.944,205.097z"/>
			<path fill="#B0EA3F" d="M349.852,180.771c0,0.215-0.047,0.411-0.136,0.598c-0.092,0.187-0.204,0.348-0.35,0.495
				c-0.142,0.143-0.312,0.261-0.501,0.342c-0.195,0.088-0.396,0.128-0.616,0.128c-0.214,0-0.418-0.04-0.604-0.128
				c-0.196-0.081-0.363-0.199-0.505-0.342c-0.145-0.147-0.261-0.309-0.344-0.495s-0.126-0.383-0.126-0.598
				c0-0.222,0.043-0.425,0.126-0.624c0.083-0.196,0.199-0.367,0.344-0.514c0.142-0.145,0.309-0.251,0.505-0.335
				c0.187-0.087,0.391-0.13,0.604-0.13c0.221,0,0.421,0.043,0.616,0.13c0.188,0.084,0.359,0.19,0.501,0.335
				c0.146,0.146,0.258,0.312,0.35,0.514C349.805,180.346,349.852,180.549,349.852,180.771z M349.097,186.929v17.878h-1.707v-17.878
				H349.097z"/>
			<path fill="#B0EA3F" d="M362.228,186.643c1.284,0,2.433,0.219,3.436,0.652c1.019,0.438,1.864,1.06,2.566,1.863
				c0.694,0.802,1.226,1.769,1.587,2.899c0.365,1.137,0.553,2.403,0.553,3.802c0,1.401-0.188,2.666-0.553,3.793
				c-0.361,1.122-0.893,2.086-1.587,2.89c-0.702,0.803-1.548,1.423-2.566,1.854c-1.003,0.427-2.147,0.646-3.436,0.646
				c-1.278,0-2.431-0.222-3.441-0.646c-1.012-0.432-1.867-1.052-2.57-1.854c-0.7-0.804-1.229-1.768-1.598-2.89
				c-0.363-1.127-0.544-2.392-0.544-3.793c0-1.398,0.181-2.665,0.544-3.802c0.366-1.131,0.897-2.098,1.598-2.899
				c0.703-0.804,1.559-1.426,2.57-1.863C359.797,186.86,360.95,186.643,362.228,186.643z M362.228,203.692
				c1.069,0,1.995-0.181,2.794-0.547c0.796-0.366,1.462-0.891,1.994-1.575c0.531-0.68,0.933-1.508,1.193-2.467
				c0.264-0.966,0.397-2.044,0.397-3.244c0-1.186-0.134-2.268-0.397-3.233c-0.261-0.973-0.662-1.806-1.193-2.493
				c-0.532-0.686-1.198-1.215-1.994-1.585c-0.799-0.372-1.725-0.562-2.794-0.562c-1.067,0-1.997,0.189-2.793,0.562
				c-0.799,0.37-1.467,0.896-1.994,1.585c-0.536,0.688-0.938,1.521-1.205,2.493c-0.27,0.966-0.405,2.048-0.405,3.233
				c0,1.2,0.136,2.278,0.405,3.244c0.267,0.959,0.669,1.787,1.205,2.467c0.527,0.685,1.195,1.209,1.994,1.575
				C360.231,203.512,361.161,203.692,362.228,203.692z"/>
			<path fill="#B0EA3F" d="M374.861,204.807v-17.878h0.933c0.309,0,0.492,0.154,0.537,0.449l0.161,2.697
				c0.816-1.031,1.764-1.865,2.847-2.49c1.089-0.628,2.295-0.942,3.626-0.942c0.982,0,1.848,0.157,2.594,0.469
				c0.744,0.312,1.369,0.758,1.864,1.347c0.487,0.589,0.854,1.293,1.104,2.117c0.252,0.83,0.382,1.76,0.382,2.81v11.422H387.2
				v-11.422c0-1.677-0.382-2.994-1.145-3.946c-0.771-0.948-1.946-1.43-3.525-1.43c-1.173,0-2.262,0.301-3.265,0.906
				c-1.01,0.604-1.912,1.437-2.7,2.49v13.401H374.861z"/>
			<path fill="#B0EA3F" d="M401.894,204.807v-16.008l-2.518-0.16c-0.342-0.023-0.517-0.173-0.517-0.448v-0.703h3.034v-2.263
				c0-1.021,0.134-1.915,0.397-2.69c0.264-0.77,0.638-1.416,1.112-1.931c0.479-0.512,1.061-0.896,1.733-1.16
				c0.678-0.254,1.421-0.383,2.237-0.383c0.369,0,0.748,0.028,1.121,0.097c0.378,0.07,0.71,0.154,0.999,0.279l-0.054,0.813
				c-0.011,0.164-0.129,0.246-0.341,0.246c-0.146,0-0.341-0.015-0.589-0.056c-0.243-0.033-0.54-0.05-0.9-0.05
				c-0.59,0-1.138,0.087-1.629,0.258c-0.495,0.178-0.926,0.452-1.286,0.836c-0.358,0.388-0.639,0.891-0.838,1.511
				c-0.193,0.614-0.296,1.376-0.296,2.275v2.217h5.807v1.273h-5.771v16.044h-1.704V204.807z"/>
			<path fill="#B0EA3F" d="M419.616,186.643c1.279,0,2.429,0.219,3.436,0.652c1.016,0.438,1.864,1.06,2.562,1.863
				c0.694,0.802,1.224,1.769,1.592,2.899c0.366,1.137,0.549,2.403,0.549,3.802c0,1.401-0.183,2.666-0.549,3.793
				c-0.368,1.122-0.893,2.086-1.592,2.89c-0.697,0.803-1.546,1.423-2.562,1.854c-1.007,0.427-2.156,0.646-3.436,0.646
				c-1.282,0-2.431-0.222-3.442-0.646c-1.012-0.432-1.867-1.052-2.57-1.854c-0.702-0.804-1.234-1.768-1.595-2.89
				c-0.37-1.127-0.549-2.392-0.549-3.793c0-1.398,0.179-2.665,0.549-3.802c0.36-1.131,0.893-2.098,1.595-2.899
				c0.703-0.804,1.559-1.426,2.57-1.863C417.185,186.861,418.333,186.643,419.616,186.643z M419.616,203.692
				c1.064,0,1.99-0.181,2.794-0.547c0.796-0.366,1.462-0.891,1.99-1.575c0.531-0.68,0.93-1.508,1.197-2.467
				c0.264-0.966,0.395-2.044,0.395-3.244c0-1.186-0.131-2.268-0.395-3.233c-0.268-0.973-0.666-1.806-1.197-2.493
				c-0.528-0.686-1.194-1.215-1.99-1.585c-0.804-0.372-1.729-0.562-2.794-0.562c-1.067,0-1.996,0.189-2.797,0.562
				c-0.796,0.37-1.462,0.896-1.989,1.585c-0.54,0.688-0.938,1.521-1.205,2.493c-0.27,0.966-0.411,2.048-0.411,3.233
				c0,1.2,0.142,2.278,0.411,3.244c0.267,0.959,0.665,1.787,1.205,2.467c0.527,0.685,1.193,1.209,1.989,1.575
				C417.62,203.512,418.548,203.692,419.616,203.692z"/>
			<path fill="#B0EA3F" d="M432.24,204.807v-17.878h0.897c0.208,0,0.354,0.045,0.446,0.128c0.09,0.084,0.139,0.229,0.15,0.431
				l0.143,3.774c0.577-1.451,1.344-2.589,2.302-3.407c0.954-0.82,2.136-1.226,3.537-1.226c0.54,0,1.035,0.053,1.489,0.171
				c0.459,0.106,0.894,0.276,1.3,0.491l-0.243,1.186c-0.033,0.193-0.147,0.286-0.354,0.286c-0.068,0-0.175-0.021-0.305-0.07
				c-0.13-0.048-0.301-0.1-0.496-0.163c-0.193-0.058-0.438-0.113-0.727-0.161c-0.288-0.051-0.617-0.07-0.986-0.07
				c-1.356,0-2.461,0.418-3.333,1.256c-0.868,0.843-1.568,2.047-2.111,3.632v11.625h-1.71V204.807z"/>
			<path fill="#B0EA3F" d="M453.443,204.807v-17.878h0.934c0.312,0,0.492,0.154,0.544,0.449l0.158,2.588
				c0.346-0.491,0.723-0.941,1.121-1.346c0.386-0.41,0.812-0.761,1.263-1.056s0.926-0.515,1.434-0.681
				c0.508-0.155,1.044-0.242,1.607-0.242c1.304,0,2.347,0.381,3.127,1.141c0.778,0.763,1.308,1.816,1.578,3.169
				c0.221-0.741,0.517-1.383,0.91-1.921c0.391-0.536,0.837-0.984,1.332-1.34c0.508-0.349,1.052-0.613,1.641-0.79
				c0.597-0.171,1.201-0.259,1.827-0.259c0.881,0,1.681,0.147,2.383,0.441c0.707,0.295,1.304,0.726,1.799,1.302
				c0.503,0.572,0.881,1.281,1.145,2.12c0.261,0.84,0.395,1.794,0.395,2.878v11.422h-1.702v-11.422c0-1.752-0.377-3.082-1.136-4.002
				c-0.751-0.915-1.831-1.376-3.236-1.376c-0.622,0-1.214,0.116-1.786,0.345c-0.569,0.23-1.076,0.562-1.511,1.015
				c-0.431,0.45-0.784,1.009-1.035,1.682c-0.26,0.671-0.398,1.442-0.398,2.337v11.424h-1.7v-11.424c0-1.739-0.347-3.071-1.044-3.99
				c-0.69-0.925-1.71-1.388-3.037-1.388c-0.962,0-1.864,0.29-2.692,0.874c-0.82,0.579-1.56,1.386-2.209,2.42v13.508H453.443z"/>
			<path fill="#B0EA3F" d="M493.436,204.807c-0.356,0-0.581-0.17-0.662-0.504l-0.251-2.279c-0.495,0.48-0.982,0.907-1.466,1.29
				c-0.487,0.389-0.99,0.71-1.519,0.971c-0.528,0.267-1.097,0.468-1.705,0.606c-0.613,0.135-1.284,0.209-2.015,0.209
				c-0.608,0-1.205-0.094-1.782-0.276c-0.572-0.18-1.084-0.45-1.522-0.822c-0.446-0.367-0.8-0.847-1.063-1.431
				c-0.272-0.579-0.407-1.278-0.407-2.088c0-0.76,0.216-1.46,0.643-2.109c0.435-0.642,1.104-1.209,2.021-1.685
				c0.913-0.479,2.096-0.863,3.536-1.151c1.446-0.288,3.185-0.459,5.206-0.504v-1.866c0-1.655-0.354-2.929-1.067-3.818
				c-0.716-0.891-1.767-1.337-3.176-1.337c-0.86,0-1.596,0.115-2.197,0.356c-0.608,0.241-1.116,0.506-1.534,0.792
				c-0.423,0.287-0.764,0.552-1.027,0.792c-0.264,0.235-0.479,0.357-0.662,0.357c-0.247,0-0.422-0.107-0.535-0.321l-0.313-0.523
				c0.935-0.936,1.918-1.64,2.948-2.119c1.027-0.478,2.197-0.717,3.508-0.717c0.955,0,1.791,0.148,2.51,0.454
				c0.718,0.309,1.319,0.743,1.787,1.312c0.479,0.568,0.827,1.257,1.071,2.066c0.24,0.811,0.356,1.712,0.356,2.706v11.644h-0.682
				V204.807z M486.25,203.856c0.694,0,1.331-0.071,1.916-0.228c0.581-0.146,1.121-0.357,1.612-0.631
				c0.499-0.268,0.962-0.585,1.396-0.957c0.431-0.373,0.854-0.775,1.279-1.209v-4.65c-1.705,0.05-3.167,0.18-4.397,0.391
				c-1.226,0.203-2.237,0.492-3.037,0.849c-0.8,0.361-1.38,0.789-1.762,1.283c-0.378,0.505-0.56,1.066-0.56,1.706
				c0,0.596,0.093,1.112,0.292,1.55c0.203,0.437,0.458,0.797,0.783,1.08c0.32,0.276,0.702,0.488,1.133,0.617
				C485.332,203.789,485.778,203.856,486.25,203.856z"/>
			<path fill="#B0EA3F" d="M509.352,189.136c-0.077,0.171-0.21,0.257-0.39,0.257c-0.134,0-0.309-0.072-0.515-0.228
				c-0.208-0.153-0.488-0.315-0.825-0.502c-0.341-0.187-0.763-0.355-1.258-0.501c-0.496-0.157-1.104-0.228-1.824-0.228
				c-0.649,0-1.234,0.096-1.771,0.275c-0.54,0.189-0.986,0.438-1.359,0.747c-0.386,0.314-0.679,0.677-0.889,1.095
				c-0.208,0.409-0.313,0.84-0.313,1.295c0,0.569,0.146,1.029,0.435,1.401c0.284,0.371,0.661,0.688,1.133,0.955
				c0.459,0.263,0.994,0.485,1.588,0.681c0.592,0.194,1.202,0.386,1.819,0.576c0.624,0.193,1.234,0.407,1.826,0.64
				c0.594,0.231,1.121,0.521,1.593,0.871c0.467,0.344,0.844,0.771,1.128,1.276c0.284,0.498,0.435,1.111,0.435,1.828
				c0,0.783-0.142,1.508-0.418,2.179c-0.289,0.672-0.694,1.25-1.23,1.739c-0.527,0.491-1.186,0.885-1.965,1.167
				c-0.776,0.286-1.661,0.437-2.66,0.437c-1.254,0-2.339-0.206-3.248-0.604c-0.908-0.402-1.729-0.926-2.444-1.574l0.415-0.608
				c0.061-0.098,0.125-0.167,0.193-0.215c0.074-0.051,0.171-0.071,0.306-0.071c0.157,0,0.353,0.1,0.577,0.286
				c0.231,0.193,0.523,0.398,0.888,0.617c0.366,0.223,0.82,0.431,1.369,0.623c0.549,0.19,1.218,0.286,2.018,0.286
				c0.76,0,1.421-0.103,1.997-0.308c0.577-0.215,1.048-0.504,1.43-0.861c0.395-0.356,0.682-0.777,0.877-1.266
				c0.195-0.482,0.297-0.991,0.297-1.534c0-0.597-0.143-1.099-0.435-1.494c-0.284-0.392-0.662-0.726-1.129-1
				c-0.463-0.281-0.999-0.514-1.596-0.701c-0.593-0.197-1.197-0.386-1.827-0.578c-0.629-0.187-1.242-0.404-1.835-0.628
				c-0.588-0.227-1.117-0.518-1.588-0.862c-0.466-0.348-0.845-0.768-1.137-1.266c-0.28-0.499-0.427-1.12-0.427-1.859
				c0-0.639,0.135-1.249,0.414-1.837c0.272-0.586,0.667-1.101,1.179-1.541c0.508-0.446,1.128-0.8,1.854-1.062
				c0.73-0.261,1.552-0.396,2.462-0.396c1.087,0,2.058,0.157,2.902,0.469s1.624,0.788,2.326,1.438L509.352,189.136z"/>
			<path fill="#B0EA3F" d="M524.806,189.136c-0.086,0.171-0.215,0.257-0.395,0.257c-0.125,0-0.305-0.072-0.511-0.228
				c-0.212-0.153-0.488-0.315-0.829-0.502c-0.337-0.187-0.763-0.355-1.258-0.501c-0.496-0.157-1.104-0.228-1.824-0.228
				c-0.641,0-1.233,0.096-1.771,0.275c-0.527,0.189-0.986,0.438-1.363,0.747c-0.377,0.314-0.669,0.677-0.881,1.095
				c-0.208,0.409-0.312,0.84-0.312,1.295c0,0.569,0.146,1.029,0.43,1.401c0.292,0.371,0.667,0.688,1.133,0.955
				c0.467,0.263,0.994,0.485,1.592,0.681c0.597,0.194,1.198,0.386,1.822,0.576c0.626,0.193,1.231,0.407,1.819,0.64
				c0.598,0.231,1.13,0.521,1.597,0.871c0.463,0.344,0.845,0.771,1.128,1.276c0.293,0.498,0.431,1.111,0.431,1.828
				c0,0.783-0.138,1.508-0.422,2.179c-0.276,0.672-0.683,1.25-1.218,1.739c-0.532,0.491-1.186,0.885-1.97,1.167
				c-0.784,0.286-1.661,0.437-2.655,0.437c-1.263,0-2.343-0.206-3.257-0.604c-0.905-0.402-1.721-0.926-2.44-1.574l0.411-0.608
				c0.057-0.098,0.125-0.167,0.199-0.215c0.068-0.051,0.17-0.071,0.303-0.071c0.16,0,0.35,0.1,0.578,0.286
				c0.228,0.193,0.52,0.398,0.884,0.617c0.37,0.223,0.825,0.431,1.365,0.623c0.553,0.19,1.226,0.286,2.025,0.286
				c0.756,0,1.417-0.103,1.993-0.308c0.578-0.215,1.057-0.504,1.438-0.861c0.377-0.356,0.679-0.777,0.872-1.266
				c0.195-0.482,0.293-0.991,0.293-1.534c0-0.597-0.143-1.099-0.426-1.494c-0.292-0.392-0.667-0.726-1.134-1
				c-0.466-0.281-0.994-0.514-1.591-0.701c-0.598-0.197-1.202-0.386-1.835-0.578c-0.626-0.187-1.243-0.404-1.832-0.628
				c-0.592-0.227-1.125-0.518-1.591-0.862c-0.463-0.348-0.846-0.768-1.134-1.266c-0.287-0.499-0.43-1.12-0.43-1.859
				c0-0.639,0.137-1.249,0.418-1.837c0.268-0.586,0.666-1.101,1.174-1.541c0.512-0.446,1.128-0.8,1.855-1.062
				c0.738-0.261,1.559-0.396,2.464-0.396c1.093,0,2.059,0.157,2.903,0.469c0.841,0.312,1.616,0.788,2.323,1.438L524.806,189.136z"/>
			<path fill="#B0EA3F" d="M543.243,186.625c0.776,0,1.499,0.098,2.161,0.288c0.666,0.191,1.267,0.459,1.791,0.809h4.579v0.592
				c0,0.302-0.162,0.459-0.504,0.485l-2.712,0.195c0.337,0.454,0.598,0.972,0.775,1.538c0.179,0.568,0.269,1.176,0.269,1.821
				c0,0.863-0.154,1.645-0.468,2.35c-0.309,0.696-0.743,1.297-1.299,1.793c-0.561,0.496-1.226,0.881-2.006,1.156
				c-0.779,0.28-1.645,0.416-2.587,0.416c-1.026,0-1.965-0.155-2.801-0.469c-0.508,0.291-0.905,0.629-1.186,1.027
				c-0.292,0.396-0.435,0.78-0.435,1.15c0,0.511,0.179,0.907,0.54,1.184c0.357,0.272,0.833,0.478,1.429,0.6
				c0.59,0.128,1.267,0.207,2.03,0.244c0.756,0.038,1.53,0.077,2.318,0.115c0.78,0.043,1.555,0.121,2.319,0.229
				c0.759,0.105,1.437,0.296,2.021,0.562c0.598,0.268,1.071,0.646,1.43,1.132c0.36,0.488,0.544,1.13,0.544,1.938
				c0,0.739-0.191,1.453-0.561,2.131c-0.374,0.683-0.901,1.292-1.608,1.815c-0.698,0.527-1.55,0.952-2.542,1.27
				c-0.994,0.315-2.106,0.473-3.346,0.473c-1.254,0-2.351-0.126-3.301-0.386c-0.945-0.258-1.745-0.601-2.383-1.04
				c-0.642-0.438-1.125-0.945-1.445-1.521c-0.325-0.568-0.488-1.188-0.488-1.83c0-0.944,0.309-1.758,0.938-2.441
				c0.617-0.686,1.481-1.212,2.574-1.585c-0.604-0.199-1.084-0.494-1.434-0.875c-0.356-0.388-0.531-0.915-0.531-1.604
				c0-0.25,0.045-0.514,0.143-0.793c0.097-0.268,0.243-0.543,0.438-0.813c0.191-0.272,0.423-0.523,0.687-0.762
				c0.272-0.241,0.585-0.456,0.942-0.651c-0.849-0.489-1.511-1.143-1.978-1.952c-0.475-0.816-0.719-1.773-0.719-2.859
				c0-0.859,0.163-1.644,0.459-2.343c0.305-0.702,0.739-1.301,1.295-1.812c0.561-0.502,1.234-0.888,2.025-1.164
				C541.413,186.765,542.285,186.625,543.243,186.625z M549.874,206.013c0-0.565-0.149-1.02-0.442-1.358
				c-0.297-0.342-0.687-0.603-1.173-0.798c-0.495-0.193-1.063-0.327-1.702-0.402c-0.646-0.079-1.312-0.141-2.013-0.174
				c-0.699-0.041-1.401-0.071-2.111-0.105c-0.707-0.039-1.365-0.109-1.974-0.216c-0.459,0.177-0.877,0.384-1.263,0.624
				c-0.395,0.229-0.724,0.491-1.003,0.783c-0.272,0.293-0.491,0.617-0.643,0.972c-0.161,0.354-0.243,0.738-0.243,1.164
				c0,0.525,0.143,1.011,0.41,1.462c0.268,0.446,0.666,0.838,1.182,1.167c0.524,0.329,1.161,0.591,1.917,0.779
				c0.755,0.19,1.623,0.288,2.609,0.288c0.906,0,1.755-0.104,2.539-0.307c0.787-0.2,1.465-0.492,2.046-0.858
				c0.584-0.373,1.035-0.818,1.364-1.334C549.708,207.184,549.874,206.626,549.874,206.013z M543.243,196.901
				c0.764,0,1.449-0.113,2.047-0.329c0.598-0.224,1.104-0.533,1.507-0.934c0.409-0.393,0.718-0.865,0.926-1.418
				c0.206-0.546,0.312-1.158,0.312-1.832c0-0.671-0.106-1.283-0.321-1.839c-0.215-0.553-0.527-1.034-0.942-1.43
				c-0.405-0.395-0.913-0.698-1.51-0.918c-0.589-0.217-1.267-0.322-2.019-0.322c-0.755,0-1.434,0.105-2.025,0.322
				c-0.604,0.22-1.112,0.523-1.522,0.918c-0.41,0.396-0.727,0.877-0.946,1.43c-0.211,0.556-0.317,1.168-0.317,1.839
				c0,0.674,0.106,1.286,0.317,1.832c0.22,0.553,0.536,1.025,0.946,1.418c0.41,0.4,0.918,0.71,1.522,0.934
				C541.809,196.788,542.484,196.901,543.243,196.901z"/>
			<path fill="#B0EA3F" d="M566.883,204.807c-0.358,0-0.581-0.17-0.662-0.504l-0.253-2.279c-0.495,0.48-0.978,0.907-1.466,1.29
				c-0.479,0.389-0.986,0.71-1.518,0.971c-0.527,0.267-1.097,0.468-1.706,0.606c-0.613,0.135-1.279,0.209-2.015,0.209
				c-0.611,0-1.2-0.094-1.773-0.276c-0.576-0.18-1.088-0.45-1.531-0.822c-0.442-0.367-0.8-0.847-1.067-1.431
				c-0.272-0.579-0.41-1.278-0.41-2.088c0-0.76,0.224-1.46,0.649-2.109c0.436-0.642,1.104-1.209,2.018-1.685
				c0.923-0.479,2.101-0.863,3.549-1.151c1.442-0.288,3.176-0.459,5.193-0.504v-1.866c0-1.655-0.354-2.929-1.067-3.818
				c-0.707-0.891-1.767-1.337-3.172-1.337c-0.859,0-1.591,0.115-2.195,0.356c-0.61,0.241-1.118,0.506-1.539,0.792
				c-0.419,0.287-0.763,0.552-1.023,0.792c-0.264,0.235-0.487,0.357-0.662,0.357c-0.243,0-0.423-0.107-0.539-0.321l-0.306-0.523
				c0.93-0.936,1.913-1.64,2.944-2.119c1.027-0.478,2.201-0.717,3.504-0.717c0.954,0,1.795,0.148,2.518,0.454
				c0.718,0.309,1.315,0.743,1.782,1.312c0.479,0.568,0.836,1.257,1.076,2.066c0.231,0.811,0.354,1.712,0.354,2.706v11.644h-0.682
				V204.807z M559.7,203.856c0.694,0,1.335-0.071,1.913-0.228c0.579-0.146,1.115-0.357,1.616-0.631
				c0.495-0.271,0.958-0.585,1.396-0.957c0.427-0.373,0.849-0.775,1.267-1.209v-4.65c-1.692,0.05-3.163,0.18-4.389,0.391
				c-1.23,0.203-2.238,0.492-3.042,0.849c-0.791,0.361-1.38,0.789-1.753,1.283c-0.374,0.505-0.564,1.066-0.564,1.706
				c0,0.596,0.102,1.112,0.292,1.55c0.195,0.437,0.459,0.797,0.784,1.08c0.324,0.276,0.698,0.488,1.132,0.617
				C558.787,203.789,559.228,203.856,559.7,203.856z"/>
			<path fill="#B0EA3F" d="M577.825,205.097c-1.206,0-2.147-0.338-2.818-1.007c-0.67-0.674-1.003-1.707-1.003-3.11v-12.219h-2.569
				c-0.143,0-0.244-0.032-0.33-0.106c-0.077-0.068-0.116-0.173-0.116-0.305v-0.667l3.053-0.211l0.418-6.396
				c0.013-0.106,0.062-0.204,0.139-0.289c0.077-0.087,0.183-0.126,0.312-0.126h0.8v6.827h5.624v1.273h-5.624v12.132
				c0,0.486,0.061,0.909,0.183,1.264c0.13,0.358,0.305,0.645,0.523,0.868c0.223,0.229,0.487,0.4,0.784,0.507
				c0.3,0.106,0.617,0.161,0.975,0.161c0.431,0,0.796-0.059,1.108-0.187c0.309-0.126,0.58-0.267,0.812-0.415
				c0.224-0.147,0.406-0.29,0.556-0.415c0.144-0.122,0.257-0.186,0.334-0.186c0.102,0,0.195,0.059,0.292,0.177l0.472,0.758
				c-0.455,0.503-1.035,0.909-1.738,1.212C579.306,204.94,578.584,205.097,577.825,205.097z"/>
			<path fill="#B0EA3F" d="M585.766,204.807v-26.141h1.706v11.321c0.828-1.021,1.774-1.832,2.834-2.441
				c1.063-0.604,2.25-0.903,3.562-0.903c0.981,0,1.851,0.157,2.598,0.469c0.751,0.312,1.368,0.758,1.859,1.347
				c0.492,0.589,0.856,1.293,1.113,2.117c0.251,0.83,0.382,1.76,0.382,2.81v11.422h-1.71v-11.422c0-1.677-0.386-2.994-1.149-3.946
				c-0.763-0.948-1.939-1.43-3.523-1.43c-1.17,0-2.259,0.301-3.269,0.906c-1.008,0.604-1.9,1.437-2.696,2.49v13.401H585.766z"/>
			<path fill="#B0EA3F" d="M611.947,186.643c1.003,0,1.938,0.173,2.795,0.522c0.848,0.348,1.595,0.854,2.228,1.516
				c0.626,0.668,1.121,1.48,1.47,2.455c0.354,0.973,0.532,2.085,0.532,3.343c0,0.263-0.041,0.439-0.114,0.536
				c-0.081,0.1-0.202,0.148-0.373,0.148h-12.898v0.337c0,1.34,0.154,2.523,0.466,3.541c0.316,1.017,0.756,1.87,1.332,2.562
				c0.572,0.688,1.267,1.204,2.083,1.551c0.812,0.352,1.722,0.525,2.729,0.525c0.901,0,1.681-0.097,2.335-0.3
				c0.666-0.199,1.218-0.417,1.665-0.664c0.446-0.244,0.804-0.467,1.071-0.663c0.256-0.198,0.451-0.299,0.568-0.299
				c0.163,0,0.276,0.061,0.362,0.178l0.466,0.581c-0.288,0.355-0.665,0.686-1.141,1.003c-0.476,0.311-0.995,0.581-1.58,0.8
				c-0.58,0.219-1.2,0.398-1.867,0.525c-0.666,0.134-1.335,0.204-2.006,0.204c-1.222,0-2.339-0.216-3.342-0.64
				c-1.003-0.43-1.871-1.048-2.586-1.863c-0.727-0.813-1.279-1.808-1.677-2.987c-0.39-1.179-0.589-2.531-0.589-4.055
				c0-1.282,0.178-2.462,0.548-3.551c0.369-1.08,0.898-2.016,1.58-2.797c0.69-0.785,1.539-1.401,2.537-1.846
				C609.54,186.864,610.672,186.643,611.947,186.643z M611.971,187.914c-0.925,0-1.745,0.148-2.477,0.436
				c-0.73,0.289-1.356,0.697-1.896,1.237c-0.531,0.542-0.958,1.186-1.29,1.944c-0.33,0.749-0.549,1.597-0.65,2.528h11.763
				c0-0.958-0.13-1.815-0.39-2.57c-0.268-0.768-0.634-1.409-1.112-1.941c-0.479-0.523-1.052-0.928-1.726-1.209
				C613.531,188.062,612.788,187.914,611.971,187.914z"/>
			<path fill="#B0EA3F" d="M623.572,204.807v-17.878h0.893c0.203,0,0.354,0.045,0.443,0.128c0.094,0.084,0.142,0.229,0.154,0.431
				l0.138,3.774c0.58-1.451,1.341-2.589,2.302-3.407c0.958-0.82,2.141-1.226,3.545-1.226c0.536,0,1.031,0.053,1.491,0.171
				c0.45,0.106,0.884,0.276,1.29,0.491l-0.235,1.186c-0.036,0.193-0.154,0.286-0.357,0.286c-0.069,0-0.179-0.021-0.309-0.07
				c-0.125-0.048-0.296-0.1-0.491-0.163c-0.199-0.058-0.442-0.113-0.727-0.161c-0.292-0.051-0.621-0.07-0.994-0.07
				c-1.349,0-2.461,0.418-3.334,1.256c-0.861,0.843-1.567,2.047-2.104,3.632v11.625h-1.705V204.807z"/>
			<path fill="#B0EA3F" d="M640.795,180.771c0,0.215-0.04,0.411-0.134,0.598c-0.09,0.187-0.208,0.348-0.354,0.495
				c-0.143,0.143-0.305,0.261-0.5,0.342c-0.194,0.088-0.393,0.128-0.608,0.128c-0.219,0-0.423-0.04-0.613-0.128
				c-0.195-0.081-0.36-0.199-0.504-0.342c-0.146-0.147-0.259-0.309-0.345-0.495c-0.077-0.187-0.122-0.383-0.122-0.598
				c0-0.222,0.045-0.425,0.122-0.624c0.086-0.196,0.199-0.367,0.345-0.514c0.144-0.145,0.309-0.251,0.504-0.335
				c0.19-0.087,0.395-0.13,0.613-0.13c0.216,0,0.414,0.043,0.608,0.13c0.195,0.084,0.357,0.19,0.5,0.335
				c0.146,0.146,0.264,0.312,0.354,0.514C640.75,180.35,640.795,180.549,640.795,180.771z M640.04,186.929v17.878h-1.7v-17.878
				H640.04z"/>
			<path fill="#B0EA3F" d="M646.371,204.807v-17.878h0.929c0.313,0,0.492,0.154,0.54,0.449l0.163,2.697
				c0.816-1.031,1.762-1.865,2.851-2.49c1.088-0.628,2.289-0.942,3.617-0.942c0.986,0,1.852,0.157,2.599,0.469
				s1.364,0.758,1.859,1.347c0.491,0.589,0.857,1.293,1.117,2.117c0.244,0.83,0.373,1.76,0.373,2.81v11.422h-1.709v-11.422
				c0-1.677-0.383-2.994-1.146-3.946c-0.768-0.948-1.944-1.43-3.524-1.43c-1.177,0-2.261,0.301-3.269,0.906
				c-1.007,0.604-1.907,1.437-2.7,2.49v13.401H646.371z"/>
			<path fill="#B0EA3F" d="M671.699,186.625c0.778,0,1.502,0.098,2.167,0.288c0.666,0.191,1.26,0.459,1.791,0.809h4.576v0.592
				c0,0.302-0.167,0.459-0.499,0.485l-2.718,0.195c0.343,0.454,0.598,0.972,0.772,1.538c0.179,0.568,0.271,1.176,0.271,1.821
				c0,0.863-0.154,1.645-0.467,2.35c-0.312,0.696-0.746,1.297-1.304,1.793c-0.556,0.496-1.226,0.881-2.001,1.156
				c-0.779,0.28-1.641,0.416-2.59,0.416c-1.028,0-1.966-0.155-2.806-0.469c-0.5,0.291-0.894,0.629-1.186,1.027
				c-0.285,0.396-0.427,0.78-0.427,1.15c0,0.511,0.179,0.907,0.536,1.184c0.36,0.272,0.836,0.478,1.428,0.6
				c0.598,0.128,1.269,0.207,2.036,0.244c0.754,0.038,1.53,0.077,2.314,0.115c0.782,0.043,1.554,0.121,2.317,0.229
				c0.759,0.105,1.434,0.296,2.025,0.562c0.598,0.268,1.069,0.646,1.43,1.132c0.361,0.488,0.54,1.13,0.54,1.938
				c0,0.739-0.187,1.453-0.56,2.131c-0.366,0.683-0.906,1.292-1.604,1.815c-0.703,0.527-1.552,0.952-2.546,1.27
				c-0.995,0.315-2.104,0.473-3.342,0.473c-1.256,0-2.355-0.126-3.301-0.386c-0.955-0.258-1.742-0.601-2.385-1.04
				c-0.641-0.438-1.119-0.945-1.449-1.521c-0.321-0.568-0.479-1.188-0.479-1.83c0-0.944,0.309-1.758,0.934-2.441
				c0.621-0.686,1.482-1.212,2.566-1.585c-0.598-0.199-1.071-0.494-1.43-0.875c-0.354-0.388-0.531-0.915-0.531-1.604
				c0-0.25,0.048-0.514,0.15-0.793c0.093-0.268,0.238-0.543,0.431-0.813c0.19-0.272,0.422-0.523,0.694-0.762
				c0.264-0.241,0.575-0.456,0.941-0.651c-0.854-0.489-1.514-1.143-1.985-1.952c-0.476-0.816-0.711-1.773-0.711-2.859
				c0-0.859,0.15-1.644,0.454-2.343c0.309-0.702,0.735-1.301,1.301-1.812c0.551-0.502,1.226-0.888,2.013-1.164
				C669.867,186.765,670.745,186.625,671.699,186.625z M678.324,206.013c0-0.565-0.142-1.02-0.434-1.358
				c-0.297-0.342-0.686-0.603-1.178-0.798c-0.491-0.193-1.056-0.327-1.693-0.402c-0.646-0.079-1.314-0.141-2.021-0.174
				c-0.698-0.041-1.401-0.071-2.111-0.105c-0.707-0.039-1.36-0.109-1.974-0.216c-0.45,0.177-0.873,0.384-1.267,0.624
				c-0.386,0.229-0.723,0.491-0.995,0.783c-0.276,0.293-0.486,0.617-0.649,0.972c-0.158,0.354-0.231,0.738-0.231,1.164
				c0,0.525,0.135,1.011,0.401,1.462c0.27,0.446,0.666,0.838,1.189,1.167c0.517,0.329,1.157,0.591,1.909,0.779
				c0.759,0.19,1.625,0.288,2.61,0.288c0.905,0,1.754-0.104,2.542-0.307c0.783-0.2,1.471-0.492,2.047-0.858
				c0.581-0.373,1.035-0.818,1.363-1.334C678.166,207.184,678.324,206.626,678.324,206.013z M671.699,196.901
				c0.767,0,1.449-0.113,2.051-0.329c0.6-0.224,1.1-0.533,1.51-0.934c0.402-0.393,0.715-0.865,0.921-1.418
				c0.212-0.546,0.317-1.158,0.317-1.832c0-0.671-0.105-1.283-0.321-1.839c-0.219-0.553-0.536-1.034-0.941-1.43
				c-0.418-0.395-0.922-0.698-1.515-0.918c-0.588-0.217-1.267-0.322-2.021-0.322c-0.752,0-1.43,0.105-2.027,0.322
				c-0.601,0.22-1.104,0.523-1.518,0.918c-0.418,0.396-0.731,0.877-0.941,1.43c-0.216,0.556-0.326,1.168-0.326,1.839
				c0,0.674,0.11,1.286,0.326,1.832c0.21,0.553,0.523,1.025,0.941,1.418c0.414,0.4,0.917,0.71,1.518,0.934
				C670.265,196.788,670.947,196.901,671.699,196.901z"/>
			<path fill="#B0EA3F" d="M693.786,189.136c-0.093,0.171-0.219,0.257-0.398,0.257c-0.133,0-0.308-0.072-0.515-0.228
				c-0.207-0.153-0.482-0.315-0.82-0.502c-0.341-0.187-0.768-0.355-1.263-0.501c-0.491-0.157-1.104-0.228-1.819-0.228
				c-0.649,0-1.238,0.096-1.773,0.275c-0.533,0.189-0.987,0.438-1.365,0.747c-0.373,0.314-0.669,0.677-0.872,1.095
				c-0.221,0.409-0.321,0.84-0.321,1.295c0,0.569,0.142,1.029,0.431,1.401c0.289,0.371,0.666,0.688,1.138,0.955
				c0.466,0.263,0.99,0.485,1.582,0.681c0.598,0.194,1.206,0.386,1.823,0.576c0.629,0.193,1.235,0.407,1.827,0.64
				c0.593,0.231,1.121,0.521,1.588,0.871c0.476,0.344,0.849,0.771,1.137,1.276c0.288,0.498,0.431,1.111,0.431,1.828
				c0,0.783-0.143,1.508-0.423,2.179c-0.283,0.672-0.69,1.25-1.222,1.739c-0.532,0.491-1.186,0.885-1.97,1.167
				c-0.775,0.286-1.665,0.437-2.659,0.437c-1.255,0-2.339-0.206-3.252-0.604c-0.909-0.402-1.726-0.926-2.441-1.574l0.415-0.608
				c0.061-0.098,0.125-0.167,0.198-0.215c0.07-0.051,0.171-0.071,0.302-0.071c0.161,0,0.354,0.1,0.576,0.286
				c0.228,0.193,0.52,0.398,0.886,0.617c0.368,0.223,0.819,0.431,1.367,0.623c0.545,0.19,1.218,0.286,2.021,0.286
				c0.752,0,1.423-0.103,1.991-0.308c0.58-0.215,1.059-0.504,1.437-0.861c0.386-0.356,0.679-0.777,0.881-1.266
				c0.196-0.482,0.284-0.991,0.284-1.534c0-0.597-0.133-1.099-0.426-1.494c-0.285-0.392-0.667-0.726-1.133-1
				c-0.463-0.281-0.994-0.514-1.592-0.701c-0.589-0.197-1.206-0.386-1.828-0.578c-0.628-0.187-1.241-0.404-1.835-0.628
				c-0.592-0.227-1.12-0.518-1.595-0.862c-0.459-0.348-0.842-0.768-1.125-1.266c-0.285-0.499-0.435-1.12-0.435-1.859
				c0-0.639,0.146-1.249,0.415-1.837c0.279-0.586,0.665-1.101,1.173-1.541c0.516-0.446,1.138-0.8,1.864-1.062
				c0.73-0.261,1.55-0.396,2.459-0.396c1.089,0,2.06,0.157,2.899,0.469c0.845,0.312,1.624,0.788,2.33,1.438L693.786,189.136z"/>
		</g>
	</g>
	<rect x="387.045" y="17.831" fill="#B0EA3F" width="3.86" height="152.331"/>
	<path fill="#B0EA3F" d="M290.974,59.465v66.28v27.766h-32.78V64.729L290.974,59.465z M290.974,55.171h-32.78V27.408h46.493
		c17.613,0,32.694,6.104,45.236,18.313c12.545,12.209,18.818,27.123,18.818,44.735c0,17.618-6.273,32.53-18.818,44.741
		c-12.542,12.205-27.623,18.313-45.236,18.313h-6.252l-3.169-27.766h3.064c10.478,0,19.151-2.951,26.004-8.861
		c6.86-5.913,10.29-14.716,10.29-26.427c0-11.037-3.29-19.676-9.87-25.921c-6.578-6.239-15.275-9.364-26.088-9.364H290.974"/>
	<path fill="#B0EA3F" d="M427.49,27.408h32.274l25.592,67.397l27.091-67.397h32.611l0,0l-23.244,53.519l-30.271,72.584h-13.045
		l-28.933-72.584L427.49,27.408z M446.439,100.175l-7.748,53.335H406.08l20.963-123.171L446.439,100.175z M545.504,30.339
		l18.621,123.171h-32.782l-6.752-53.335L545.504,30.339z"/>
	<path fill="#B0EA3F" d="M656.98,108.856h-26.757V83.099h65.054c-0.203,9.986-0.987,18.571-2.355,25.757
		C692.921,108.856,684.053,110.588,656.98,108.856z M690.05,119.062c-1.839,4.718-4.389,9.34-7.654,13.875
		c-11.814,16.5-29.156,24.754-52.012,24.754c-19.846,0-36.01-6.159-48.495-18.482c-12.489-12.314-18.734-28.349-18.734-48.082
		c0-20.402,6.297-36.819,18.905-49.253c12.595-12.428,29.1-18.647,49.503-18.647c13.151,0,24.58,2.957,34.28,8.864
		c9.7,5.91,17.228,14.717,22.579,26.422l-31.109,13.048c-2.335-6.245-5.852-11.149-10.537-14.716
		c-4.681-3.57-10.256-5.354-16.72-5.354c-10.151,0-18.149,4.014-24.005,12.042c-5.854,8.028-8.777,17.283-8.777,27.761
		c0,10.484,2.983,19.677,8.948,27.596c5.965,7.919,14.077,11.872,24.333,11.872c7.357,0,13.432-1.894,18.231-5.683
		c4.242-3.355,6.873-7.989,7.885-13.886C656.728,110.864,690.797,117.151,690.05,119.062z"/>
	<polygon fill="#2A3303" points="521.814,80.926 522.146,80.926 524.591,100.175 545.504,30.339 545.058,27.408 	"/>
	<polygon fill="#2A3303" points="427.49,27.408 427.042,30.339 446.439,100.175 449.228,80.926 449.566,80.926 	"/>
	<polygon fill="#2A3303" points="290.974,55.171 290.974,59.465 258.194,64.729 258.194,55.171 	"/>
	<polygon fill="#2A3303" points="290.974,125.745 295.264,125.745 298.435,153.511 290.974,153.511 	"/>
	<path fill="#2A3303" d="M690.046,119.058c1.056-2.706,1.885-5.435,2.473-8.197c0.139-0.649,0.264-1.326,0.394-2.004
		c0.021-0.093-35.933,0-35.933,0c-0.077,0.803-0.187,1.578-0.316,2.335L690.046,119.058z"/>
	<path fill="#B0EA3F" d="M174.645,59.465v66.28v27.766h-32.781V64.729L174.645,59.465z M174.645,55.171h-32.781V27.408h46.495
		c17.613,0,32.693,6.104,45.235,18.313c12.545,12.209,18.817,27.123,18.817,44.735c0,17.618-6.272,32.53-18.817,44.741
		c-12.542,12.205-27.622,18.313-45.235,18.313h-6.253l-3.169-27.766h3.065c10.478,0,19.15-2.951,26.004-8.861
		c6.86-5.913,10.288-14.716,10.288-26.427c0-11.037-3.288-19.676-9.87-25.921c-6.577-6.239-15.273-9.364-26.087-9.364H174.645"/>
	<polygon fill="#2A3303" points="174.645,55.171 174.645,59.465 141.864,64.729 141.864,55.171 	"/>
	<polygon fill="#2A3303" points="174.645,125.745 178.935,125.745 182.106,153.511 174.645,153.511 	"/>
	<path fill="#B0EA3F" d="M58.79,59.465v66.28v27.766H26.008V64.729L58.79,59.465z M58.79,55.171H26.008V27.408h46.495
		c17.613,0,32.692,6.104,45.235,18.313c12.544,12.209,18.817,27.123,18.817,44.735c0,17.618-6.273,32.53-18.817,44.741
		c-12.543,12.205-27.622,18.313-45.235,18.313H66.25l-3.169-27.766h3.066c10.478,0,19.15-2.951,26.004-8.861
		c6.86-5.913,10.288-14.716,10.288-26.427c0-11.037-3.288-19.676-9.87-25.921c-6.577-6.239-15.274-9.364-26.088-9.364H58.79"/>
	<polygon fill="#2A3303" points="58.79,55.171 58.79,59.465 26.008,64.729 26.008,55.171 	"/>
	<polygon fill="#2A3303" points="58.79,125.745 63.08,125.745 66.25,153.511 58.79,153.511 	"/>
</g>
</svg>
