<?xml version="1.0" encoding="utf-8"?>
<!-- Generator: Adobe Illustrator 16.0.0, SVG Export Plug-In . SVG Version: 6.00 Build 0)  -->
<!DOCTYPE svg PUBLIC "-//W3C//DTD SVG 1.1//EN" "http://www.w3.org/Graphics/SVG/1.1/DTD/svg11.dtd">
<svg version="1.1" id="Layer_1" xmlns="http://www.w3.org/2000/svg" xmlns:xlink="http://www.w3.org/1999/xlink" x="0px" y="0px"
	 width="170px" height="197px" viewBox="0 0.25 170 197" enable-background="new 0 0.25 170 197" xml:space="preserve">
<g>
	<g>
		<polygon opacity="0.3" fill="#2D2D2D" enable-background="new    " points="30.189,174.083 170,192.949 170,4.551 10.833,31.917 
					"/>
	</g>
	<g>
		<polygon fill="#004D6E" points="38.271,165.172 170,189.865 170,7.635 13.143,33.232 		"/>
	</g>
	<g>
		<path fill="#FFFFFF" d="M51.879,65.047h1.679c0.188,0,0.339,0.048,0.455,0.143c0.115,0.095,0.202,0.213,0.26,0.356l4.387,10.95
			c0.102,0.246,0.193,0.514,0.276,0.802c0.083,0.289,0.164,0.589,0.244,0.899c0.064-0.312,0.135-0.61,0.211-0.899
			c0.076-0.288,0.164-0.556,0.266-0.802l4.365-10.95c0.05-0.123,0.137-0.237,0.26-0.343c0.123-0.104,0.274-0.156,0.455-0.156h1.689
			L60.1,80.57h-1.896L51.879,65.047z"/>
		<path fill="#FFFFFF" d="M71.191,69.423c0.657,0,1.264,0.11,1.82,0.331c0.556,0.221,1.036,0.538,1.44,0.953
			c0.404,0.414,0.721,0.928,0.947,1.537c0.228,0.609,0.342,1.306,0.342,2.086c0,0.304-0.032,0.506-0.098,0.605
			c-0.065,0.102-0.188,0.151-0.368,0.151h-7.301c0.015,0.69,0.108,1.296,0.281,1.81c0.174,0.514,0.412,0.939,0.715,1.283
			c0.304,0.344,0.665,0.6,1.084,0.77c0.418,0.17,0.888,0.254,1.408,0.254c0.483,0,0.9-0.055,1.251-0.168
			c0.35-0.11,0.651-0.23,0.904-0.361c0.253-0.13,0.464-0.251,0.634-0.363c0.169-0.11,0.315-0.168,0.438-0.168
			c0.158,0,0.281,0.062,0.368,0.187l0.542,0.703c-0.238,0.289-0.524,0.541-0.856,0.754s-0.688,0.388-1.066,0.524
			c-0.379,0.138-0.771,0.239-1.176,0.31c-0.405,0.067-0.805,0.103-1.202,0.103c-0.758,0-1.457-0.128-2.096-0.384
			c-0.64-0.258-1.191-0.633-1.657-1.127s-0.829-1.106-1.089-1.836c-0.26-0.729-0.39-1.567-0.39-2.515
			c0-0.766,0.117-1.479,0.352-2.146c0.234-0.664,0.572-1.239,1.013-1.728c0.441-0.489,0.979-0.871,1.614-1.148
			C69.683,69.562,70.397,69.423,71.191,69.423z M71.235,70.842c-0.932,0-1.665,0.27-2.199,0.809
			c-0.534,0.537-0.866,1.283-0.996,2.235h5.968c0-0.446-0.062-0.854-0.184-1.229c-0.123-0.371-0.304-0.691-0.542-0.964
			c-0.238-0.271-0.529-0.479-0.872-0.629C72.067,70.916,71.676,70.842,71.235,70.842z"/>
		<path fill="#FFFFFF" d="M80.345,69.598v11.784c0,0.44-0.059,0.851-0.174,1.229c-0.115,0.377-0.298,0.709-0.547,0.99
			c-0.249,0.28-0.57,0.504-0.964,0.666s-0.865,0.242-1.414,0.242c-0.238,0-0.455-0.019-0.649-0.054
			c-0.195-0.036-0.39-0.092-0.585-0.162l0.087-1.04c0.014-0.095,0.047-0.152,0.097-0.179c0.051-0.025,0.131-0.039,0.238-0.039
			c0.059,0,0.119,0.003,0.185,0.006c0.065,0.004,0.145,0.006,0.238,0.006c0.563,0,0.964-0.132,1.202-0.396
			c0.238-0.264,0.357-0.688,0.357-1.271V69.596L80.345,69.598L80.345,69.598z M80.777,66.152c0,0.188-0.038,0.361-0.113,0.524
			c-0.076,0.162-0.177,0.308-0.304,0.435c-0.126,0.127-0.272,0.227-0.438,0.297c-0.166,0.072-0.343,0.107-0.53,0.107
			c-0.188,0-0.363-0.035-0.525-0.107c-0.163-0.07-0.308-0.17-0.434-0.297c-0.127-0.127-0.226-0.271-0.298-0.435
			c-0.072-0.163-0.108-0.338-0.108-0.524c0-0.188,0.036-0.367,0.108-0.535c0.072-0.17,0.171-0.318,0.298-0.444
			c0.126-0.126,0.271-0.226,0.434-0.298c0.162-0.072,0.337-0.107,0.525-0.107s0.364,0.035,0.53,0.107s0.312,0.172,0.438,0.298
			c0.127,0.126,0.228,0.274,0.304,0.444C80.739,65.785,80.777,65.965,80.777,66.152z"/>
		<path fill="#FFFFFF" d="M91.762,80.57h-0.854c-0.188,0-0.342-0.028-0.455-0.088c-0.116-0.059-0.191-0.181-0.229-0.367l-0.219-1.02
			c-0.289,0.262-0.568,0.492-0.845,0.698c-0.275,0.207-0.562,0.38-0.866,0.521c-0.303,0.143-0.626,0.248-0.969,0.319
			c-0.344,0.07-0.725,0.107-1.145,0.107c-0.428,0-0.826-0.062-1.198-0.181c-0.372-0.119-0.695-0.297-0.97-0.535
			c-0.275-0.237-0.493-0.539-0.655-0.903c-0.162-0.364-0.244-0.797-0.244-1.295c0-0.435,0.119-0.851,0.357-1.25
			c0.239-0.401,0.623-0.759,1.154-1.067c0.53-0.312,1.228-0.562,2.085-0.765c0.857-0.197,1.91-0.312,3.152-0.34v-0.856
			c0-0.853-0.186-1.496-0.549-1.933c-0.363-0.438-0.903-0.655-1.619-0.655c-0.471,0-0.863,0.061-1.188,0.18
			c-0.322,0.118-0.6,0.252-0.834,0.399c-0.235,0.147-0.438,0.281-0.606,0.399c-0.17,0.119-0.338,0.179-0.504,0.179
			c-0.13,0-0.244-0.033-0.342-0.103c-0.097-0.067-0.175-0.154-0.232-0.256l-0.347-0.617c0.606-0.584,1.26-1.021,1.96-1.311
			c0.701-0.289,1.478-0.434,2.328-0.434c0.612,0,1.158,0.102,1.637,0.303c0.477,0.203,0.877,0.482,1.201,0.846
			c0.325,0.361,0.568,0.798,0.735,1.311c0.166,0.515,0.249,1.076,0.249,1.689v7.021h0.005v0.004H91.762z M86.757,79.389
			c0.341,0,0.65-0.033,0.933-0.104c0.281-0.068,0.547-0.166,0.795-0.293c0.25-0.125,0.488-0.278,0.719-0.459
			c0.229-0.182,0.447-0.389,0.666-0.618V75.63c-0.891,0.028-1.646,0.101-2.268,0.211c-0.621,0.112-1.125,0.259-1.516,0.438
			c-0.391,0.182-0.674,0.395-0.851,0.64c-0.177,0.246-0.266,0.521-0.266,0.823c0,0.289,0.047,0.537,0.141,0.746
			c0.094,0.211,0.221,0.381,0.38,0.516c0.158,0.135,0.347,0.23,0.562,0.293C86.27,79.359,86.504,79.389,86.757,79.389z"/>
		<path fill="#FFFFFF" d="M98.866,80.57V69.596h1.147c0.272,0,0.446,0.135,0.521,0.399l0.149,1.19c0.479-0.524,1.01-0.953,1.6-1.276
			c0.589-0.324,1.269-0.487,2.042-0.487c0.599,0,1.128,0.102,1.587,0.299c0.458,0.198,0.841,0.479,1.146,0.846
			c0.309,0.363,0.539,0.803,0.697,1.314c0.158,0.514,0.238,1.08,0.238,1.701v6.984h-1.93v-6.984c0-0.831-0.188-1.477-0.567-1.936
			s-0.958-0.688-1.738-0.688c-0.569,0-1.104,0.137-1.598,0.41c-0.495,0.273-0.951,0.646-1.37,1.115v8.082h-1.928v0.004L98.866,80.57
			L98.866,80.57z"/>
		<path fill="#FFFFFF" d="M115.354,69.423c0.801,0,1.524,0.134,2.172,0.401c0.646,0.267,1.195,0.646,1.646,1.138
			c0.451,0.489,0.799,1.085,1.04,1.78c0.241,0.697,0.362,1.477,0.362,2.334c0,0.867-0.121,1.646-0.362,2.341
			c-0.241,0.692-0.589,1.286-1.04,1.776c-0.449,0.49-1,0.867-1.646,1.131c-0.646,0.265-1.371,0.396-2.172,0.396
			c-0.803,0-1.523-0.132-2.172-0.396c-0.646-0.264-1.197-0.641-1.652-1.131c-0.452-0.49-0.805-1.084-1.051-1.776
			s-0.367-1.474-0.367-2.341c0-0.857,0.121-1.637,0.367-2.334c0.246-0.695,0.599-1.291,1.051-1.78
			c0.455-0.491,1.008-0.87,1.652-1.138C113.827,69.556,114.551,69.423,115.354,69.423z M115.354,79.216
			c1.082,0,1.894-0.362,2.426-1.089c0.535-0.727,0.804-1.738,0.804-3.038c0-1.308-0.269-2.325-0.804-3.056
			c-0.532-0.729-1.344-1.094-2.426-1.094c-0.549,0-1.023,0.094-1.431,0.281c-0.405,0.188-0.741,0.457-1.013,0.812
			c-0.271,0.354-0.475,0.789-0.605,1.305c-0.135,0.517-0.201,1.101-0.201,1.75c0,0.647,0.066,1.229,0.201,1.742
			c0.133,0.514,0.336,0.944,0.605,1.296s0.607,0.618,1.013,0.807C114.327,79.121,114.805,79.216,115.354,79.216z"/>
		<path fill="#FFFFFF" d="M129.239,71.406c-0.087,0.158-0.222,0.236-0.401,0.236c-0.107,0-0.23-0.039-0.367-0.117
			c-0.138-0.08-0.306-0.168-0.505-0.267c-0.198-0.098-0.435-0.188-0.709-0.271s-0.6-0.123-0.975-0.123
			c-0.325,0-0.618,0.041-0.878,0.123c-0.26,0.084-0.481,0.197-0.666,0.342c-0.188,0.146-0.325,0.312-0.424,0.504
			c-0.099,0.191-0.146,0.398-0.146,0.623c0,0.281,0.081,0.518,0.243,0.703c0.163,0.188,0.378,0.352,0.646,0.488
			c0.27,0.137,0.569,0.258,0.909,0.361c0.341,0.104,0.688,0.217,1.045,0.336c0.357,0.119,0.706,0.252,1.048,0.396
			c0.338,0.146,0.644,0.324,0.907,0.541c0.269,0.218,0.482,0.482,0.646,0.797c0.164,0.312,0.244,0.691,0.244,1.133
			c0,0.505-0.09,0.973-0.271,1.402c-0.183,0.429-0.448,0.802-0.802,1.113c-0.354,0.314-0.787,0.562-1.303,0.742
			c-0.513,0.182-1.104,0.271-1.773,0.271c-0.768,0-1.459-0.123-2.08-0.373c-0.621-0.248-1.146-0.568-1.581-0.959l0.455-0.735
			c0.06-0.094,0.126-0.166,0.205-0.217c0.08-0.052,0.187-0.076,0.312-0.076c0.129,0,0.27,0.052,0.412,0.151
			c0.146,0.102,0.319,0.213,0.524,0.336c0.206,0.123,0.455,0.234,0.748,0.336c0.292,0.102,0.657,0.152,1.101,0.152
			c0.375,0,0.703-0.051,0.984-0.146c0.281-0.098,0.518-0.229,0.704-0.396c0.187-0.166,0.325-0.355,0.417-0.573
			c0.09-0.218,0.136-0.446,0.136-0.692c0-0.304-0.082-0.554-0.244-0.753c-0.161-0.198-0.377-0.368-0.646-0.51
			c-0.269-0.142-0.571-0.265-0.914-0.367c-0.344-0.104-0.693-0.215-1.051-0.33c-0.358-0.114-0.709-0.247-1.051-0.396
			c-0.346-0.148-0.648-0.334-0.916-0.559c-0.27-0.224-0.481-0.5-0.646-0.828c-0.163-0.328-0.244-0.729-0.244-1.197
			c0-0.418,0.087-0.82,0.26-1.207c0.176-0.387,0.43-0.727,0.762-1.02c0.332-0.292,0.738-0.523,1.224-0.697
			c0.483-0.175,1.036-0.262,1.657-0.262c0.723,0,1.369,0.114,1.941,0.342c0.574,0.229,1.07,0.541,1.489,0.938L129.239,71.406z"/>
		<path fill="#FFFFFF" d="M138.643,71.406c-0.088,0.158-0.222,0.236-0.399,0.236c-0.108,0-0.229-0.039-0.368-0.117
			c-0.139-0.08-0.307-0.168-0.504-0.267c-0.198-0.098-0.438-0.188-0.709-0.271c-0.273-0.082-0.602-0.123-0.977-0.123
			c-0.326,0-0.619,0.041-0.879,0.123c-0.26,0.084-0.479,0.197-0.666,0.342c-0.185,0.146-0.324,0.312-0.423,0.504
			c-0.097,0.191-0.146,0.398-0.146,0.623c0,0.281,0.08,0.518,0.242,0.703c0.164,0.188,0.379,0.352,0.646,0.488
			c0.269,0.137,0.569,0.258,0.91,0.361c0.339,0.104,0.688,0.217,1.045,0.336c0.356,0.119,0.706,0.252,1.046,0.396
			c0.339,0.146,0.643,0.324,0.909,0.541c0.269,0.218,0.481,0.482,0.646,0.797c0.162,0.312,0.243,0.691,0.243,1.133
			c0,0.505-0.091,0.973-0.271,1.402c-0.182,0.43-0.448,0.802-0.803,1.113c-0.354,0.314-0.787,0.562-1.302,0.742
			c-0.513,0.182-1.104,0.271-1.774,0.271c-0.768,0-1.459-0.123-2.08-0.373c-0.62-0.248-1.147-0.568-1.58-0.959l0.455-0.735
			c0.058-0.094,0.125-0.166,0.205-0.217c0.08-0.052,0.185-0.076,0.312-0.076s0.269,0.052,0.411,0.151
			c0.146,0.102,0.318,0.213,0.523,0.336s0.455,0.234,0.748,0.336c0.291,0.102,0.658,0.152,1.102,0.152
			c0.375,0,0.704-0.051,0.982-0.146c0.281-0.098,0.52-0.229,0.705-0.396c0.188-0.166,0.326-0.355,0.416-0.573
			c0.09-0.218,0.139-0.446,0.139-0.692c0-0.304-0.082-0.554-0.244-0.753c-0.162-0.198-0.377-0.368-0.646-0.51
			c-0.269-0.142-0.572-0.265-0.916-0.367s-0.69-0.215-1.051-0.33c-0.357-0.114-0.708-0.247-1.051-0.396s-0.648-0.334-0.915-0.559
			c-0.269-0.224-0.481-0.5-0.646-0.828c-0.162-0.328-0.244-0.729-0.244-1.197c0-0.418,0.088-0.82,0.261-1.207
			c0.174-0.387,0.427-0.727,0.759-1.02c0.332-0.292,0.74-0.523,1.225-0.697c0.483-0.175,1.035-0.262,1.656-0.262
			c0.723,0,1.37,0.114,1.944,0.342c0.574,0.229,1.069,0.541,1.489,0.938L138.643,71.406z"/>
		<path fill="#FFFFFF" d="M146.201,69.423c0.802,0,1.525,0.134,2.172,0.401c0.646,0.267,1.195,0.646,1.646,1.138
			c0.451,0.489,0.797,1.085,1.039,1.78c0.239,0.697,0.36,1.477,0.36,2.334c0,0.867-0.121,1.646-0.36,2.341
			c-0.242,0.692-0.591,1.286-1.039,1.776c-0.451,0.49-1,0.867-1.646,1.131c-0.646,0.265-1.37,0.396-2.172,0.396
			c-0.803,0-1.525-0.132-2.172-0.396c-0.647-0.264-1.196-0.641-1.651-1.131c-0.455-0.49-0.806-1.084-1.051-1.776
			c-0.246-0.692-0.368-1.474-0.368-2.341c0-0.857,0.122-1.637,0.368-2.334c0.245-0.695,0.596-1.291,1.051-1.78
			c0.455-0.491,1.005-0.87,1.651-1.138C144.675,69.557,145.398,69.423,146.201,69.423z M146.201,79.216
			c1.083,0,1.892-0.362,2.427-1.089c0.534-0.727,0.802-1.738,0.802-3.038c0-1.308-0.268-2.325-0.802-3.056
			c-0.535-0.729-1.344-1.094-2.427-1.094c-0.549,0-1.025,0.094-1.43,0.281c-0.405,0.188-0.742,0.457-1.016,0.812
			c-0.271,0.354-0.474,0.789-0.604,1.305c-0.135,0.517-0.2,1.101-0.2,1.75c0,0.647,0.065,1.229,0.2,1.742
			c0.133,0.514,0.336,0.944,0.604,1.296s0.608,0.618,1.016,0.807C145.176,79.121,145.652,79.216,146.201,79.216z"/>
		<path fill="#FFFFFF" d="M65.094,97.402c-0.087,0.158-0.221,0.238-0.401,0.238c-0.108,0-0.23-0.039-0.368-0.119
			c-0.137-0.078-0.305-0.168-0.504-0.266c-0.198-0.099-0.435-0.188-0.709-0.271s-0.6-0.125-0.975-0.125
			c-0.325,0-0.618,0.041-0.878,0.125c-0.26,0.082-0.481,0.197-0.666,0.343c-0.185,0.146-0.325,0.312-0.423,0.503
			c-0.097,0.189-0.146,0.398-0.146,0.622c0,0.282,0.081,0.518,0.243,0.705c0.163,0.188,0.378,0.351,0.645,0.485
			c0.268,0.14,0.57,0.26,0.91,0.362c0.339,0.104,0.688,0.218,1.045,0.336c0.357,0.119,0.706,0.251,1.046,0.396
			c0.339,0.146,0.643,0.324,0.909,0.541c0.268,0.218,0.482,0.48,0.645,0.796c0.163,0.313,0.244,0.69,0.244,1.134
			c0,0.505-0.091,0.975-0.271,1.4c-0.181,0.432-0.448,0.804-0.802,1.115c-0.354,0.313-0.787,0.562-1.3,0.741
			c-0.513,0.181-1.105,0.271-1.776,0.271c-0.766,0-1.459-0.125-2.08-0.371c-0.621-0.25-1.148-0.569-1.581-0.959l0.455-0.736
			c0.058-0.094,0.126-0.166,0.205-0.217c0.08-0.053,0.185-0.076,0.314-0.076s0.267,0.051,0.411,0.15
			c0.145,0.103,0.32,0.215,0.525,0.338c0.206,0.119,0.455,0.232,0.748,0.334c0.292,0.103,0.658,0.15,1.1,0.15
			c0.375,0,0.704-0.049,0.985-0.146c0.281-0.097,0.517-0.229,0.704-0.396c0.187-0.168,0.326-0.356,0.417-0.574
			c0.09-0.217,0.136-0.446,0.136-0.692c0-0.304-0.082-0.556-0.244-0.753c-0.162-0.198-0.377-0.368-0.645-0.51
			c-0.268-0.142-0.572-0.264-0.915-0.367c-0.344-0.104-0.693-0.217-1.051-0.33c-0.358-0.115-0.708-0.247-1.051-0.396
			c-0.343-0.147-0.648-0.334-0.915-0.559c-0.268-0.225-0.482-0.5-0.645-0.829c-0.163-0.328-0.244-0.728-0.244-1.196
			c0-0.418,0.087-0.821,0.26-1.207c0.174-0.388,0.427-0.727,0.759-1.02c0.332-0.292,0.74-0.525,1.224-0.698
			c0.484-0.174,1.036-0.261,1.657-0.261c0.723,0,1.37,0.113,1.944,0.342c0.574,0.229,1.07,0.54,1.489,0.938L65.094,97.402z"/>
		<path fill="#FFFFFF" d="M71.539,106.738c-0.867,0-1.533-0.24-1.999-0.728c-0.466-0.481-0.698-1.181-0.698-2.09v-6.716h-1.321
			c-0.116,0-0.214-0.034-0.293-0.104c-0.079-0.066-0.119-0.175-0.119-0.318v-0.77l1.798-0.228l0.444-3.392
			c0.015-0.108,0.062-0.196,0.141-0.267c0.08-0.067,0.181-0.103,0.304-0.103h0.975v3.779h3.142V97.2H70.77v6.586
			c0,0.463,0.112,0.806,0.336,1.028c0.224,0.224,0.513,0.336,0.866,0.336c0.202,0,0.378-0.026,0.525-0.082
			c0.148-0.055,0.276-0.112,0.385-0.178c0.108-0.065,0.2-0.125,0.276-0.181c0.075-0.056,0.143-0.081,0.2-0.081
			c0.102,0,0.191,0.062,0.271,0.186l0.563,0.92c-0.332,0.312-0.732,0.557-1.202,0.73C72.52,106.646,72.037,106.738,71.539,106.738z"
			/>
		<path fill="#FFFFFF" d="M76.293,106.566V95.593h1.105c0.209,0,0.354,0.04,0.433,0.119c0.08,0.079,0.134,0.217,0.163,0.411
			l0.13,1.712c0.375-0.767,0.84-1.362,1.392-1.793c0.553-0.431,1.201-0.646,1.944-0.646c0.304,0,0.578,0.033,0.823,0.104
			c0.246,0.067,0.473,0.164,0.683,0.287l-0.249,1.438c-0.051,0.184-0.162,0.273-0.336,0.273c-0.102,0-0.257-0.034-0.466-0.104
			c-0.209-0.068-0.502-0.104-0.877-0.104c-0.672,0-1.233,0.194-1.685,0.585c-0.451,0.391-0.829,0.957-1.132,1.7v6.985h-1.928
			V106.566z"/>
		<path fill="#FFFFFF" d="M89.367,95.42c0.656,0,1.264,0.109,1.82,0.331c0.556,0.22,1.035,0.538,1.438,0.952
			c0.402,0.416,0.723,0.929,0.947,1.539c0.228,0.609,0.342,1.305,0.342,2.084c0,0.305-0.032,0.507-0.1,0.605
			c-0.063,0.104-0.188,0.151-0.366,0.151h-7.302c0.017,0.69,0.107,1.296,0.281,1.81s0.411,0.939,0.715,1.282
			c0.306,0.345,0.664,0.603,1.084,0.771c0.418,0.171,0.89,0.255,1.408,0.255c0.482,0,0.899-0.058,1.25-0.168
			c0.35-0.111,0.651-0.232,0.904-0.362s0.464-0.251,0.634-0.361c0.169-0.11,0.315-0.168,0.438-0.168
			c0.158,0,0.281,0.062,0.367,0.185l0.543,0.704c-0.238,0.289-0.524,0.539-0.856,0.753c-0.332,0.213-0.688,0.389-1.065,0.524
			c-0.379,0.137-0.771,0.239-1.177,0.31c-0.405,0.069-0.805,0.104-1.202,0.104c-0.758,0-1.457-0.128-2.096-0.384
			c-0.641-0.257-1.191-0.632-1.656-1.127c-0.467-0.494-0.83-1.105-1.09-1.837c-0.26-0.729-0.39-1.565-0.39-2.513
			c0-0.768,0.117-1.479,0.352-2.146c0.234-0.664,0.572-1.239,1.013-1.729c0.441-0.487,0.979-0.868,1.615-1.146
			C87.857,95.561,88.573,95.42,89.367,95.42z M89.411,96.839c-0.933,0-1.665,0.271-2.199,0.808
			c-0.534,0.539-0.866,1.283-0.996,2.236h5.968c0-0.447-0.062-0.857-0.184-1.229c-0.123-0.371-0.305-0.692-0.542-0.965
			c-0.237-0.271-0.528-0.479-0.872-0.629C90.243,96.912,89.852,96.839,89.411,96.839z"/>
		<path fill="#FFFFFF" d="M104.436,106.566h-0.854c-0.188,0-0.34-0.027-0.455-0.088c-0.116-0.059-0.189-0.181-0.229-0.367
			l-0.217-1.02c-0.289,0.262-0.57,0.492-0.846,0.698s-0.562,0.379-0.867,0.521c-0.303,0.143-0.626,0.248-0.969,0.319
			c-0.346,0.071-0.727,0.104-1.145,0.104c-0.426,0-0.823-0.06-1.195-0.178c-0.372-0.119-0.695-0.299-0.971-0.537
			c-0.274-0.236-0.494-0.539-0.654-0.902c-0.162-0.363-0.244-0.795-0.244-1.293c0-0.436,0.119-0.854,0.355-1.252
			c0.238-0.4,0.623-0.758,1.153-1.066c0.53-0.312,1.228-0.562,2.085-0.764c0.859-0.198,1.91-0.312,3.152-0.344v-0.854
			c0-0.853-0.184-1.496-0.547-1.935c-0.365-0.438-0.905-0.653-1.62-0.653c-0.47,0-0.864,0.06-1.187,0.179
			c-0.324,0.119-0.602,0.252-0.834,0.399c-0.234,0.147-0.438,0.28-0.605,0.399c-0.17,0.119-0.338,0.181-0.504,0.181
			c-0.131,0-0.244-0.034-0.344-0.104c-0.098-0.068-0.174-0.152-0.23-0.255l-0.348-0.616c0.604-0.586,1.261-1.021,1.961-1.312
			c0.699-0.288,1.478-0.434,2.328-0.434c0.613,0,1.158,0.102,1.637,0.305c0.479,0.201,0.878,0.482,1.201,0.845
			c0.324,0.36,0.57,0.798,0.736,1.312c0.166,0.513,0.25,1.076,0.25,1.688v7.021h0.004V106.566L104.436,106.566z M99.43,105.386
			c0.34,0,0.65-0.034,0.932-0.103c0.283-0.069,0.55-0.166,0.799-0.293c0.25-0.127,0.486-0.279,0.716-0.461s0.449-0.387,0.666-0.617
			v-2.285c-0.892,0.029-1.646,0.1-2.267,0.211s-1.127,0.26-1.517,0.439c-0.391,0.181-0.674,0.394-0.851,0.639
			c-0.178,0.246-0.266,0.52-0.266,0.822c0,0.289,0.047,0.539,0.141,0.748s0.221,0.381,0.38,0.515
			c0.157,0.134,0.347,0.231,0.562,0.293C98.941,105.355,99.177,105.386,99.43,105.386z"/>
		<path fill="#FFFFFF" d="M107.357,106.566V95.593h1.146c0.271,0,0.448,0.134,0.521,0.4l0.142,1.127
			c0.403-0.498,0.856-0.906,1.358-1.226c0.502-0.318,1.084-0.478,1.748-0.478c0.744,0,1.347,0.206,1.806,0.618
			c0.458,0.41,0.789,0.968,0.989,1.668c0.152-0.396,0.354-0.74,0.603-1.029c0.25-0.289,0.529-0.527,0.84-0.715
			c0.312-0.188,0.642-0.325,0.991-0.411c0.352-0.087,0.706-0.131,1.066-0.131c0.576,0,1.093,0.093,1.543,0.276
			c0.451,0.185,0.834,0.453,1.146,0.808c0.314,0.354,0.555,0.789,0.721,1.306s0.25,1.105,0.25,1.771v6.985H120.3v-6.985
			c0-0.858-0.188-1.513-0.562-1.954c-0.375-0.444-0.922-0.666-1.637-0.666c-0.316,0-0.619,0.056-0.903,0.167
			c-0.285,0.11-0.536,0.274-0.755,0.492c-0.215,0.218-0.387,0.489-0.514,0.817c-0.128,0.328-0.188,0.709-0.188,1.144v6.985h-1.931
			v-6.985c0-0.882-0.178-1.537-0.528-1.972c-0.354-0.435-0.87-0.648-1.552-0.648c-0.478,0-0.92,0.128-1.324,0.384
			c-0.408,0.257-0.782,0.604-1.121,1.046v8.179H107.357L107.357,106.566z"/>
		<path fill="#FFFFFF" d="M127.723,92.15c0,0.188-0.037,0.36-0.113,0.523c-0.073,0.162-0.176,0.309-0.303,0.434
			c-0.127,0.127-0.271,0.228-0.438,0.299c-0.166,0.07-0.344,0.107-0.53,0.107s-0.362-0.037-0.524-0.107
			c-0.162-0.071-0.309-0.172-0.435-0.299c-0.127-0.125-0.228-0.271-0.298-0.434c-0.072-0.163-0.107-0.338-0.107-0.523
			c0-0.188,0.035-0.367,0.107-0.537c0.07-0.17,0.171-0.317,0.298-0.443c0.126-0.126,0.271-0.227,0.435-0.299
			c0.162-0.071,0.338-0.107,0.524-0.107s0.364,0.036,0.53,0.107c0.166,0.072,0.312,0.173,0.438,0.299
			c0.127,0.126,0.229,0.273,0.303,0.443C127.686,91.781,127.723,91.962,127.723,92.15z M127.29,95.594v10.973h-1.929V95.594H127.29z
			"/>
		<path fill="#FFFFFF" d="M130.689,106.566V95.593h1.146c0.272,0,0.448,0.134,0.521,0.4l0.15,1.19c0.479-0.526,1.01-0.953,1.6-1.276
			c0.588-0.325,1.27-0.488,2.041-0.488c0.601,0,1.129,0.101,1.588,0.298c0.457,0.199,0.842,0.479,1.146,0.848
			c0.311,0.362,0.54,0.803,0.699,1.313c0.158,0.513,0.236,1.08,0.236,1.701v6.985h-1.928v-6.985c0-0.831-0.188-1.476-0.568-1.935
			c-0.381-0.459-0.957-0.688-1.737-0.688c-0.567,0-1.104,0.137-1.601,0.411c-0.492,0.273-0.948,0.646-1.367,1.115v8.081h-1.93v0.004
			H130.689z"/>
		<path fill="#FFFFFF" d="M146.43,95.408c0.479,0,0.922,0.054,1.338,0.158s0.793,0.258,1.133,0.461h2.979v0.715
			c0,0.236-0.149,0.39-0.455,0.455l-1.243,0.172c0.243,0.471,0.366,0.994,0.366,1.57c0,0.536-0.104,1.021-0.31,1.458
			c-0.205,0.438-0.49,0.812-0.855,1.121c-0.363,0.311-0.798,0.549-1.3,0.715s-1.054,0.25-1.649,0.25
			c-0.515,0-0.998-0.062-1.453-0.187c-0.229,0.146-0.404,0.302-0.523,0.468s-0.18,0.326-0.18,0.485c0,0.26,0.104,0.457,0.312,0.59
			c0.21,0.136,0.487,0.229,0.834,0.287c0.348,0.06,0.74,0.097,1.182,0.106c0.439,0.017,0.892,0.037,1.351,0.07
			c0.459,0.032,0.908,0.088,1.351,0.168c0.438,0.079,0.834,0.209,1.18,0.393c0.349,0.18,0.625,0.43,0.834,0.744
			c0.211,0.317,0.313,0.729,0.313,1.234c0,0.471-0.116,0.926-0.354,1.365c-0.232,0.439-0.57,0.832-1.012,1.175
			c-0.439,0.345-0.979,0.618-1.613,0.823c-0.637,0.206-1.354,0.311-2.155,0.311c-0.804,0-1.504-0.08-2.104-0.236
			c-0.604-0.16-1.104-0.373-1.5-0.643c-0.396-0.268-0.695-0.576-0.896-0.926c-0.199-0.352-0.299-0.717-0.299-1.1
			c0-0.543,0.172-1.002,0.515-1.381c0.346-0.381,0.812-0.684,1.414-0.904c-0.312-0.146-0.559-0.338-0.742-0.58
			s-0.275-0.564-0.275-0.971c0-0.158,0.029-0.321,0.088-0.492c0.059-0.17,0.146-0.338,0.267-0.504s0.267-0.324,0.438-0.478
			s0.375-0.284,0.604-0.399c-0.541-0.305-0.966-0.705-1.271-1.207c-0.31-0.502-0.461-1.09-0.461-1.762
			c0-0.533,0.104-1.021,0.311-1.457c0.205-0.438,0.492-0.81,0.859-1.115c0.369-0.307,0.809-0.543,1.314-0.709
			C145.266,95.492,145.823,95.408,146.43,95.408z M149.854,107.162c0-0.273-0.076-0.495-0.229-0.661s-0.357-0.294-0.617-0.384
			c-0.261-0.092-0.561-0.157-0.898-0.201c-0.34-0.043-0.695-0.073-1.07-0.092c-0.376-0.02-0.762-0.039-1.146-0.061
			c-0.39-0.022-0.764-0.062-1.115-0.119c-0.412,0.193-0.746,0.434-1.002,0.715s-0.385,0.617-0.385,1.008
			c0,0.246,0.062,0.476,0.188,0.688c0.126,0.213,0.316,0.397,0.576,0.555c0.264,0.154,0.59,0.275,0.98,0.367
			c0.395,0.09,0.857,0.138,1.393,0.138c0.521,0,0.986-0.05,1.396-0.145c0.412-0.094,0.762-0.229,1.047-0.399
			c0.284-0.172,0.504-0.379,0.654-0.616C149.775,107.716,149.854,107.451,149.854,107.162z M146.43,101.205
			c0.391,0,0.734-0.055,1.034-0.163s0.552-0.261,0.753-0.455c0.202-0.194,0.354-0.429,0.455-0.698
			c0.102-0.271,0.151-0.566,0.151-0.895c0-0.672-0.204-1.205-0.612-1.604c-0.406-0.396-1.002-0.597-1.781-0.597
			c-0.771,0-1.363,0.199-1.771,0.597c-0.408,0.396-0.611,0.932-0.611,1.604c0,0.326,0.052,0.623,0.156,0.895
			c0.104,0.272,0.259,0.504,0.461,0.698s0.451,0.347,0.747,0.455S146.047,101.205,146.43,101.205z"/>
		<path fill="#FFFFFF" d="M95.162,132.562h-0.855c-0.188,0-0.34-0.027-0.455-0.088c-0.115-0.059-0.188-0.181-0.228-0.367
			l-0.217-1.02c-0.289,0.262-0.57,0.492-0.845,0.697c-0.275,0.207-0.563,0.38-0.867,0.521c-0.303,0.143-0.627,0.248-0.969,0.319
			c-0.347,0.071-0.728,0.104-1.146,0.104c-0.428,0-0.824-0.06-1.196-0.178c-0.37-0.119-0.692-0.299-0.97-0.537
			c-0.275-0.236-0.493-0.539-0.655-0.902c-0.159-0.363-0.241-0.797-0.241-1.295c0-0.435,0.116-0.852,0.354-1.252
			c0.237-0.398,0.623-0.756,1.151-1.064c0.531-0.312,1.229-0.562,2.086-0.764c0.859-0.198,1.91-0.312,3.152-0.344v-0.854
			c0-0.854-0.184-1.496-0.548-1.936c-0.364-0.438-0.905-0.652-1.62-0.652c-0.469,0-0.863,0.061-1.186,0.179
			c-0.323,0.119-0.6,0.252-0.834,0.399c-0.235,0.146-0.438,0.279-0.605,0.398c-0.171,0.119-0.339,0.18-0.505,0.18
			c-0.13,0-0.243-0.033-0.342-0.104c-0.097-0.068-0.175-0.152-0.231-0.255l-0.348-0.617c0.605-0.585,1.26-1.021,1.961-1.312
			c0.7-0.289,1.477-0.434,2.328-0.434c0.613,0,1.159,0.102,1.637,0.305c0.479,0.201,0.877,0.48,1.201,0.844
			c0.325,0.361,0.57,0.799,0.737,1.312c0.166,0.512,0.249,1.074,0.249,1.688v7.021h0.004v0.004H95.162z M90.157,131.382
			c0.34,0,0.649-0.034,0.932-0.103c0.282-0.069,0.547-0.166,0.796-0.293c0.25-0.127,0.488-0.279,0.717-0.461
			c0.229-0.183,0.448-0.387,0.666-0.617v-2.285c-0.89,0.029-1.645,0.1-2.266,0.211s-1.126,0.259-1.516,0.439
			c-0.391,0.18-0.674,0.394-0.854,0.639c-0.177,0.246-0.266,0.52-0.266,0.822c0,0.289,0.047,0.539,0.141,0.748
			c0.096,0.209,0.223,0.381,0.383,0.514c0.155,0.135,0.346,0.23,0.562,0.293C89.67,131.352,89.904,131.382,90.157,131.382z"/>
		<path fill="#FFFFFF" d="M102.527,121.416c0.802,0,1.522,0.134,2.172,0.4c0.646,0.268,1.195,0.646,1.646,1.139
			c0.448,0.49,0.797,1.085,1.037,1.781c0.241,0.695,0.362,1.476,0.362,2.334c0,0.865-0.121,1.646-0.362,2.34
			c-0.24,0.691-0.589,1.285-1.037,1.775c-0.451,0.489-1,0.869-1.646,1.133s-1.37,0.396-2.172,0.396
			c-0.803,0-1.525-0.132-2.172-0.396c-0.647-0.265-1.196-0.644-1.651-1.133c-0.455-0.49-0.806-1.084-1.052-1.775
			c-0.245-0.693-0.367-1.475-0.367-2.34c0-0.858,0.122-1.639,0.367-2.334c0.246-0.696,0.597-1.291,1.052-1.781
			c0.455-0.491,1.005-0.87,1.651-1.139C101.001,121.549,101.727,121.416,102.527,121.416z M102.527,131.209
			c1.082,0,1.892-0.363,2.427-1.09c0.534-0.727,0.801-1.737,0.801-3.037c0-1.309-0.267-2.325-0.801-3.055
			c-0.535-0.729-1.345-1.096-2.427-1.096c-0.549,0-1.025,0.096-1.43,0.28c-0.406,0.188-0.742,0.458-1.016,0.812
			c-0.271,0.354-0.477,0.789-0.604,1.306c-0.137,0.519-0.201,1.103-0.201,1.75s0.064,1.229,0.201,1.744
			c0.133,0.513,0.336,0.942,0.604,1.295c0.271,0.351,0.605,0.618,1.016,0.807C101.502,131.115,101.979,131.209,102.527,131.209z"/>
		<path fill="#FFFFFF" d="M112.926,121.59h1.581c0.151,0,0.278,0.04,0.379,0.119c0.104,0.078,0.175,0.173,0.218,0.281l2.783,7.062
			c0.104,0.261,0.18,0.521,0.238,0.78s0.111,0.518,0.162,0.77c0.059-0.252,0.119-0.51,0.186-0.77c0.063-0.26,0.146-0.521,0.248-0.78
			l2.816-7.062c0.043-0.115,0.113-0.211,0.211-0.287c0.098-0.075,0.219-0.113,0.363-0.113h1.505l-4.474,10.973h-1.744
			L112.926,121.59z"/>
		<path fill="#FFFFFF" d="M127.98,118.146c0,0.188-0.037,0.36-0.112,0.523c-0.076,0.162-0.177,0.309-0.304,0.434
			c-0.127,0.127-0.272,0.228-0.438,0.299c-0.166,0.072-0.343,0.106-0.53,0.106c-0.187,0-0.363-0.034-0.525-0.106
			c-0.16-0.071-0.307-0.172-0.434-0.299c-0.127-0.125-0.226-0.271-0.298-0.434c-0.071-0.163-0.108-0.338-0.108-0.523
			c0-0.188,0.037-0.366,0.108-0.537c0.072-0.17,0.171-0.316,0.298-0.442s0.271-0.228,0.434-0.299
			c0.164-0.071,0.34-0.107,0.525-0.107c0.188,0,0.364,0.036,0.53,0.107s0.312,0.173,0.438,0.299
			c0.125,0.126,0.228,0.272,0.304,0.442C127.943,117.779,127.98,117.958,127.98,118.146z M127.549,121.59v10.973h-1.929V121.59
			H127.549z"/>
		<path fill="#FFFFFF" d="M129.562,121.59h1.582c0.148,0,0.275,0.04,0.379,0.119c0.102,0.078,0.174,0.173,0.217,0.281l2.783,7.062
			c0.102,0.261,0.181,0.521,0.236,0.78c0.061,0.26,0.111,0.518,0.162,0.77c0.061-0.252,0.119-0.51,0.188-0.77
			c0.062-0.26,0.146-0.521,0.248-0.78l2.814-7.062c0.043-0.115,0.113-0.211,0.211-0.287c0.1-0.075,0.221-0.113,0.363-0.113h1.505
			l-4.476,10.973h-1.741L129.562,121.59z"/>
		<path fill="#FFFFFF" d="M146.201,121.416c0.802,0,1.525,0.134,2.172,0.4c0.646,0.268,1.195,0.646,1.646,1.139
			c0.451,0.49,0.797,1.085,1.039,1.781c0.239,0.695,0.36,1.476,0.36,2.334c0,0.865-0.121,1.646-0.36,2.34
			c-0.242,0.691-0.591,1.285-1.039,1.775c-0.451,0.489-1,0.869-1.646,1.133s-1.37,0.396-2.172,0.396
			c-0.803,0-1.525-0.132-2.172-0.396c-0.647-0.265-1.196-0.644-1.651-1.133c-0.455-0.49-0.806-1.084-1.051-1.775
			c-0.246-0.693-0.368-1.475-0.368-2.34c0-0.858,0.122-1.639,0.368-2.334c0.245-0.696,0.596-1.291,1.051-1.781
			c0.455-0.491,1.005-0.87,1.651-1.139C144.675,121.549,145.398,121.416,146.201,121.416z M146.201,131.209
			c1.083,0,1.892-0.363,2.427-1.09c0.534-0.727,0.802-1.737,0.802-3.037c0-1.309-0.268-2.325-0.802-3.055
			c-0.535-0.729-1.344-1.096-2.427-1.096c-0.549,0-1.025,0.096-1.43,0.28c-0.405,0.188-0.742,0.458-1.016,0.812
			c-0.271,0.354-0.474,0.789-0.604,1.306c-0.135,0.519-0.2,1.103-0.2,1.75s0.065,1.229,0.2,1.744
			c0.133,0.513,0.336,0.942,0.604,1.295c0.271,0.351,0.608,0.618,1.016,0.807C145.176,131.115,145.652,131.209,146.201,131.209z"/>
	</g>
</g>
</svg>
