<?xml version="1.0" encoding="utf-8"?>
<!-- Generator: Adobe Illustrator 16.0.0, SVG Export Plug-In . SVG Version: 6.00 Build 0)  -->
<!DOCTYPE svg PUBLIC "-//W3C//DTD SVG 1.1//EN" "http://www.w3.org/Graphics/SVG/1.1/DTD/svg11.dtd">
<svg version="1.1" id="Layer_1" xmlns="http://www.w3.org/2000/svg" xmlns:xlink="http://www.w3.org/1999/xlink" x="0px" y="0px"
	 width="170px" height="197.5px" viewBox="0 72.5 170 197.5" enable-background="new 0 72.5 170 197.5" xml:space="preserve">
<g>
	<g>
		<polygon opacity="0.3" fill="#2D2D2D" enable-background="new    " points="2.824,242.89 170,265.449 170,77.051 38.271,101.744 
					"/>
	</g>
	<g>
		<polygon fill="#FFFFFF" points="13.143,236.768 170,262.365 170,80.135 38.271,104.828 		"/>
	</g>
	<g>
		<path fill="#004D6E" d="M54.438,140.06c-0.064,0.108-0.133,0.188-0.205,0.243c-0.072,0.055-0.167,0.082-0.282,0.082
			c-0.123,0-0.265-0.062-0.428-0.186c-0.162-0.123-0.368-0.258-0.617-0.405c-0.249-0.147-0.549-0.283-0.899-0.406
			c-0.35-0.122-0.774-0.185-1.272-0.185c-0.47,0-0.885,0.062-1.246,0.189c-0.36,0.126-0.662,0.298-0.904,0.516
			c-0.242,0.215-0.424,0.471-0.547,0.764c-0.123,0.292-0.184,0.607-0.184,0.947c0,0.434,0.106,0.793,0.319,1.078
			c0.213,0.284,0.494,0.528,0.845,0.729c0.351,0.203,0.747,0.378,1.191,0.524c0.444,0.148,0.899,0.303,1.365,0.461
			c0.466,0.16,0.92,0.338,1.364,0.537c0.444,0.197,0.842,0.448,1.191,0.752c0.351,0.304,0.632,0.676,0.845,1.115
			c0.213,0.44,0.32,0.982,0.32,1.625c0,0.68-0.116,1.316-0.347,1.912c-0.231,0.596-0.569,1.113-1.013,1.555
			c-0.444,0.44-0.99,0.787-1.636,1.039c-0.646,0.254-1.381,0.379-2.204,0.379c-1.004,0-1.92-0.182-2.746-0.547
			c-0.827-0.363-1.533-0.856-2.118-1.479l0.606-0.996c0.059-0.079,0.129-0.146,0.212-0.2c0.083-0.055,0.175-0.082,0.276-0.082
			c0.151,0,0.324,0.082,0.52,0.244c0.196,0.162,0.438,0.341,0.731,0.536c0.292,0.195,0.646,0.374,1.062,0.536
			c0.415,0.161,0.922,0.243,1.521,0.243c0.498,0,0.942-0.068,1.332-0.205c0.391-0.137,0.721-0.33,0.991-0.579
			c0.271-0.25,0.479-0.548,0.623-0.896c0.144-0.347,0.217-0.731,0.217-1.158c0-0.47-0.106-0.854-0.319-1.153s-0.493-0.55-0.84-0.753
			c-0.347-0.201-0.742-0.373-1.186-0.514c-0.444-0.143-0.899-0.285-1.365-0.435c-0.466-0.149-0.921-0.319-1.365-0.515
			c-0.443-0.195-0.839-0.447-1.186-0.758c-0.347-0.312-0.627-0.699-0.84-1.166c-0.213-0.465-0.319-1.041-0.319-1.728
			c0-0.549,0.106-1.079,0.319-1.592c0.213-0.513,0.521-0.968,0.927-1.365c0.404-0.397,0.904-0.715,1.5-0.953
			c0.596-0.237,1.279-0.356,2.053-0.356c0.866,0,1.657,0.137,2.372,0.41c0.715,0.274,1.339,0.672,1.874,1.191L54.438,140.06z"/>
		<path fill="#004D6E" d="M62.009,142.009c0.657,0,1.264,0.11,1.82,0.331c0.556,0.22,1.036,0.538,1.44,0.953
			c0.404,0.414,0.721,0.928,0.947,1.537c0.228,0.61,0.342,1.306,0.342,2.086c0,0.304-0.032,0.506-0.098,0.605
			c-0.065,0.102-0.188,0.152-0.368,0.152h-7.301c0.015,0.691,0.108,1.296,0.281,1.809c0.174,0.514,0.412,0.94,0.715,1.283
			c0.304,0.344,0.665,0.6,1.084,0.77c0.418,0.17,0.888,0.254,1.408,0.254c0.483,0,0.9-0.055,1.251-0.168
			c0.35-0.11,0.651-0.231,0.904-0.361s0.464-0.251,0.634-0.363c0.169-0.111,0.315-0.168,0.438-0.168
			c0.158,0,0.281,0.062,0.368,0.186l0.542,0.703c-0.238,0.289-0.524,0.541-0.856,0.754s-0.688,0.388-1.066,0.524
			c-0.379,0.138-0.771,0.24-1.176,0.31c-0.405,0.068-0.805,0.103-1.202,0.103c-0.758,0-1.457-0.128-2.096-0.384
			c-0.64-0.258-1.191-0.633-1.657-1.127c-0.466-0.494-0.829-1.106-1.089-1.836c-0.26-0.73-0.39-1.567-0.39-2.514
			c0-0.766,0.117-1.479,0.352-2.146c0.234-0.664,0.572-1.24,1.013-1.728c0.441-0.488,0.979-0.871,1.614-1.148
			C60.5,142.148,61.215,142.009,62.009,142.009z M62.053,143.428c-0.932,0-1.665,0.27-2.199,0.809
			c-0.534,0.537-0.866,1.282-0.996,2.235h5.968c0-0.446-0.062-0.856-0.184-1.229c-0.123-0.371-0.304-0.691-0.542-0.963
			c-0.238-0.271-0.529-0.479-0.872-0.629C62.885,143.502,62.493,143.428,62.053,143.428z"/>
		<path fill="#004D6E" d="M73.36,142.009c0.657,0,1.264,0.11,1.82,0.331c0.556,0.22,1.036,0.538,1.44,0.953
			c0.404,0.414,0.721,0.928,0.947,1.537c0.228,0.61,0.342,1.306,0.342,2.086c0,0.304-0.032,0.506-0.098,0.605
			c-0.065,0.102-0.188,0.152-0.368,0.152h-7.301c0.015,0.691,0.108,1.296,0.281,1.809c0.174,0.514,0.412,0.94,0.715,1.283
			c0.304,0.344,0.665,0.6,1.084,0.77c0.418,0.17,0.888,0.254,1.408,0.254c0.483,0,0.9-0.055,1.251-0.168
			c0.35-0.11,0.651-0.231,0.904-0.361s0.464-0.251,0.634-0.363c0.169-0.111,0.315-0.168,0.438-0.168
			c0.158,0,0.281,0.062,0.368,0.186l0.542,0.703c-0.238,0.289-0.524,0.541-0.856,0.754s-0.688,0.388-1.066,0.524
			c-0.379,0.138-0.771,0.24-1.176,0.31c-0.405,0.068-0.805,0.103-1.202,0.103c-0.758,0-1.457-0.128-2.096-0.384
			c-0.64-0.258-1.191-0.633-1.657-1.127c-0.466-0.494-0.829-1.106-1.089-1.836c-0.26-0.73-0.39-1.567-0.39-2.514
			c0-0.766,0.117-1.479,0.352-2.146c0.234-0.664,0.572-1.24,1.013-1.728c0.441-0.488,0.979-0.871,1.614-1.148
			C71.852,142.148,72.566,142.009,73.36,142.009z M73.404,143.428c-0.932,0-1.665,0.27-2.199,0.809
			c-0.534,0.537-0.866,1.282-0.996,2.235h5.968c0-0.446-0.062-0.856-0.184-1.229c-0.123-0.371-0.304-0.691-0.542-0.963
			c-0.238-0.271-0.529-0.479-0.872-0.629C74.236,143.502,73.845,143.428,73.404,143.428z"/>
		<path fill="#004D6E" d="M88.991,142.009c0.802,0,1.524,0.134,2.172,0.401c0.647,0.267,1.194,0.646,1.646,1.138
			c0.451,0.489,0.799,1.085,1.041,1.78c0.24,0.697,0.361,1.477,0.361,2.334c0,0.867-0.121,1.646-0.361,2.341
			c-0.242,0.692-0.59,1.286-1.041,1.776s-1,0.868-1.646,1.131c-0.646,0.265-1.37,0.396-2.172,0.396s-1.525-0.132-2.173-0.396
			c-0.646-0.263-1.195-0.641-1.65-1.131s-0.807-1.084-1.051-1.776c-0.246-0.693-0.368-1.474-0.368-2.341
			c0-0.857,0.122-1.637,0.368-2.334c0.244-0.695,0.596-1.291,1.051-1.78c0.455-0.491,1.005-0.87,1.65-1.138
			C87.465,142.142,88.189,142.009,88.991,142.009z M88.991,151.802c1.083,0,1.892-0.363,2.427-1.089
			c0.534-0.727,0.801-1.738,0.801-3.038c0-1.308-0.267-2.325-0.801-3.056c-0.535-0.729-1.344-1.094-2.427-1.094
			c-0.55,0-1.025,0.094-1.431,0.281c-0.404,0.188-0.742,0.458-1.013,0.812c-0.271,0.354-0.474,0.789-0.606,1.305
			c-0.133,0.517-0.199,1.1-0.199,1.75c0,0.648,0.066,1.23,0.199,1.742c0.134,0.514,0.336,0.945,0.606,1.296s0.608,0.618,1.013,0.807
			C87.966,151.707,88.441,151.802,88.991,151.802z"/>
		<path fill="#004D6E" d="M98.264,142.183v6.997c0,0.831,0.19,1.475,0.573,1.93c0.384,0.453,0.961,0.682,1.733,0.682
			c0.562,0,1.094-0.133,1.593-0.4c0.498-0.268,0.956-0.639,1.375-1.115v-8.092h1.929v10.973h-1.148c-0.273,0-0.447-0.134-0.52-0.399
			l-0.152-1.181c-0.477,0.525-1.011,0.951-1.603,1.271c-0.593,0.321-1.271,0.48-2.037,0.48c-0.6,0-1.128-0.099-1.587-0.297
			c-0.458-0.199-0.843-0.479-1.152-0.84c-0.311-0.361-0.543-0.798-0.699-1.311c-0.154-0.514-0.232-1.08-0.232-1.701v-6.997H98.264z"
			/>
		<path fill="#004D6E" d="M108.641,153.156v-10.974h1.104c0.209,0,0.354,0.04,0.433,0.119c0.08,0.079,0.135,0.217,0.163,0.411
			l0.13,1.712c0.375-0.767,0.84-1.363,1.393-1.793c0.553-0.431,1.201-0.646,1.943-0.646c0.305,0,0.578,0.034,0.823,0.104
			c0.246,0.067,0.474,0.164,0.683,0.287l-0.248,1.44c-0.051,0.18-0.162,0.271-0.336,0.271c-0.103,0-0.258-0.034-0.467-0.103
			c-0.209-0.069-0.502-0.104-0.877-0.104c-0.672,0-1.232,0.194-1.685,0.585c-0.451,0.391-0.829,0.957-1.132,1.701v6.986h-1.928
			V153.156z"/>
		<path fill="#004D6E" d="M123.695,137.199v15.955h-1.928v-15.955H123.695z"/>
		<path fill="#004D6E" d="M129.675,138.738c0,0.188-0.038,0.362-0.112,0.525c-0.076,0.162-0.178,0.307-0.305,0.434
			c-0.126,0.127-0.271,0.227-0.438,0.297c-0.166,0.072-0.344,0.108-0.53,0.108c-0.188,0-0.363-0.036-0.524-0.108
			c-0.164-0.07-0.309-0.17-0.435-0.297c-0.127-0.127-0.226-0.271-0.298-0.434c-0.072-0.163-0.108-0.338-0.108-0.525
			c0-0.187,0.036-0.367,0.108-0.535c0.072-0.17,0.171-0.318,0.298-0.444c0.126-0.126,0.271-0.226,0.435-0.298
			c0.161-0.072,0.336-0.108,0.524-0.108s0.364,0.036,0.53,0.108s0.312,0.172,0.438,0.298c0.127,0.126,0.229,0.274,0.305,0.444
			C129.637,138.371,129.675,138.551,129.675,138.738z M129.242,142.183v10.974h-1.93v-10.974H129.242z"/>
		<path fill="#004D6E" d="M131.257,142.183h1.581c0.151,0,0.278,0.04,0.379,0.119c0.102,0.079,0.174,0.173,0.217,0.28l2.784,7.062
			c0.101,0.26,0.181,0.521,0.238,0.78c0.058,0.26,0.11,0.517,0.162,0.769c0.058-0.252,0.118-0.509,0.185-0.769
			c0.064-0.261,0.147-0.521,0.249-0.78l2.816-7.062c0.043-0.114,0.112-0.211,0.211-0.286c0.098-0.075,0.219-0.113,0.362-0.113h1.506
			l-4.475,10.974h-1.742L131.257,142.183z"/>
		<path fill="#004D6E" d="M147.797,142.009c0.657,0,1.264,0.11,1.82,0.331c0.556,0.22,1.035,0.538,1.439,0.953
			c0.404,0.414,0.721,0.928,0.947,1.537c0.229,0.61,0.342,1.306,0.342,2.086c0,0.304-0.031,0.506-0.098,0.605
			c-0.064,0.102-0.188,0.152-0.368,0.152h-7.301c0.015,0.691,0.108,1.296,0.28,1.809c0.175,0.514,0.412,0.94,0.716,1.283
			c0.304,0.344,0.665,0.6,1.084,0.77c0.418,0.17,0.888,0.254,1.407,0.254c0.483,0,0.9-0.055,1.252-0.168
			c0.35-0.11,0.65-0.231,0.904-0.361c0.252-0.13,0.463-0.251,0.633-0.363c0.17-0.111,0.315-0.168,0.438-0.168
			c0.158,0,0.281,0.062,0.368,0.186l0.542,0.703c-0.238,0.289-0.524,0.541-0.856,0.754s-0.688,0.388-1.065,0.524
			c-0.38,0.138-0.771,0.24-1.177,0.31c-0.404,0.068-0.805,0.103-1.201,0.103c-0.758,0-1.457-0.128-2.096-0.384
			c-0.641-0.258-1.191-0.633-1.658-1.127c-0.465-0.494-0.828-1.106-1.088-1.836c-0.26-0.73-0.391-1.567-0.391-2.514
			c0-0.766,0.117-1.479,0.352-2.146c0.234-0.664,0.572-1.24,1.014-1.728c0.441-0.488,0.979-0.871,1.613-1.148
			C146.288,142.148,147.003,142.009,147.797,142.009z M147.841,143.428c-0.932,0-1.665,0.27-2.198,0.809
			c-0.535,0.537-0.867,1.282-0.996,2.235h5.968c0-0.446-0.062-0.856-0.185-1.229c-0.123-0.371-0.304-0.691-0.541-0.963
			c-0.238-0.271-0.529-0.479-0.873-0.629C148.673,143.502,148.281,143.428,147.841,143.428z"/>
		<path fill="#004D6E" d="M66.094,169.988c-0.087,0.159-0.221,0.238-0.401,0.238c-0.108,0-0.23-0.039-0.368-0.119
			c-0.137-0.078-0.305-0.168-0.504-0.265c-0.198-0.099-0.435-0.188-0.709-0.271c-0.274-0.084-0.6-0.125-0.975-0.125
			c-0.325,0-0.618,0.041-0.878,0.125c-0.26,0.082-0.481,0.196-0.666,0.342c-0.185,0.145-0.325,0.312-0.423,0.503
			c-0.097,0.19-0.146,0.399-0.146,0.622c0,0.283,0.081,0.518,0.243,0.705c0.163,0.188,0.378,0.351,0.645,0.486
			c0.268,0.139,0.57,0.26,0.91,0.363c0.339,0.104,0.688,0.217,1.045,0.336c0.357,0.119,0.706,0.251,1.046,0.396
			c0.339,0.145,0.643,0.324,0.909,0.541c0.268,0.217,0.482,0.481,0.645,0.795c0.163,0.314,0.244,0.692,0.244,1.134
			c0,0.505-0.091,0.973-0.271,1.401c-0.181,0.431-0.448,0.803-0.802,1.115c-0.354,0.314-0.787,0.562-1.3,0.742
			c-0.513,0.18-1.105,0.271-1.776,0.271c-0.766,0-1.459-0.125-2.08-0.373c-0.621-0.25-1.148-0.569-1.581-0.959l0.455-0.736
			c0.058-0.094,0.126-0.166,0.205-0.217c0.08-0.051,0.185-0.076,0.314-0.076s0.267,0.051,0.411,0.152
			c0.145,0.101,0.32,0.213,0.525,0.336c0.206,0.121,0.455,0.233,0.748,0.334c0.292,0.103,0.658,0.152,1.1,0.152
			c0.375,0,0.704-0.049,0.985-0.146c0.281-0.097,0.517-0.229,0.704-0.396s0.326-0.356,0.417-0.573
			c0.09-0.218,0.136-0.447,0.136-0.693c0-0.303-0.082-0.555-0.244-0.753c-0.162-0.198-0.377-0.368-0.645-0.509
			c-0.268-0.142-0.572-0.265-0.915-0.368c-0.344-0.104-0.693-0.216-1.051-0.33c-0.358-0.115-0.708-0.247-1.051-0.396
			c-0.343-0.149-0.648-0.334-0.915-0.559c-0.268-0.225-0.482-0.5-0.645-0.829c-0.163-0.328-0.244-0.728-0.244-1.196
			c0-0.419,0.087-0.822,0.26-1.207c0.174-0.388,0.427-0.727,0.759-1.02c0.332-0.292,0.74-0.525,1.224-0.698
			c0.484-0.174,1.036-0.261,1.657-0.261c0.723,0,1.37,0.113,1.944,0.342c0.574,0.229,1.07,0.54,1.489,0.938L66.094,169.988z"/>
		<path fill="#004D6E" d="M72.539,179.324c-0.867,0-1.533-0.24-1.999-0.726c-0.466-0.483-0.698-1.181-0.698-2.09v-6.716h-1.321
			c-0.116,0-0.214-0.034-0.293-0.104c-0.079-0.067-0.119-0.175-0.119-0.319v-0.769l1.798-0.228l0.444-3.392
			c0.015-0.108,0.062-0.196,0.141-0.266c0.08-0.068,0.181-0.103,0.304-0.103h0.975v3.779h3.142v1.396H71.77v6.586
			c0,0.463,0.112,0.806,0.336,1.029c0.224,0.223,0.513,0.336,0.866,0.336c0.202,0,0.378-0.027,0.525-0.082
			c0.148-0.055,0.276-0.113,0.385-0.179c0.108-0.065,0.2-0.125,0.276-0.179c0.075-0.055,0.143-0.081,0.2-0.081
			c0.102,0,0.191,0.062,0.271,0.185l0.563,0.92c-0.332,0.312-0.732,0.556-1.202,0.731C73.52,179.232,73.037,179.324,72.539,179.324z
			"/>
		<path fill="#004D6E" d="M77.293,179.152V168.18h1.105c0.209,0,0.354,0.04,0.433,0.119c0.08,0.079,0.134,0.217,0.163,0.411
			l0.13,1.712c0.375-0.766,0.84-1.363,1.392-1.793c0.553-0.43,1.201-0.645,1.944-0.645c0.304,0,0.578,0.033,0.823,0.104
			c0.246,0.068,0.473,0.164,0.683,0.287l-0.249,1.439c-0.051,0.182-0.162,0.271-0.336,0.271c-0.102,0-0.257-0.034-0.466-0.104
			c-0.209-0.068-0.502-0.104-0.877-0.104c-0.672,0-1.233,0.195-1.685,0.585c-0.451,0.391-0.829,0.957-1.132,1.7v6.986h-1.928
			V179.152z"/>
		<path fill="#004D6E" d="M90.367,168.006c0.656,0,1.264,0.109,1.82,0.331c0.556,0.22,1.035,0.538,1.439,0.952
			c0.404,0.416,0.721,0.929,0.947,1.539c0.228,0.609,0.342,1.305,0.342,2.084c0,0.305-0.032,0.507-0.098,0.606
			c-0.065,0.103-0.188,0.152-0.368,0.152h-7.3c0.015,0.692,0.107,1.296,0.281,1.809s0.411,0.94,0.715,1.283
			c0.304,0.344,0.664,0.601,1.084,0.771c0.418,0.17,0.888,0.254,1.408,0.254c0.482,0,0.899-0.057,1.25-0.168
			c0.35-0.111,0.651-0.232,0.904-0.362s0.464-0.251,0.634-0.363c0.169-0.11,0.315-0.168,0.438-0.168
			c0.158,0,0.281,0.062,0.367,0.185l0.543,0.705c-0.238,0.289-0.524,0.539-0.856,0.752s-0.688,0.389-1.065,0.525
			c-0.379,0.137-0.771,0.24-1.177,0.309c-0.405,0.069-0.805,0.104-1.202,0.104c-0.758,0-1.457-0.128-2.096-0.384
			c-0.641-0.257-1.191-0.632-1.656-1.127c-0.467-0.494-0.83-1.106-1.09-1.837c-0.26-0.729-0.39-1.566-0.39-2.512
			c0-0.767,0.116-1.48,0.352-2.146c0.234-0.664,0.572-1.24,1.013-1.729c0.441-0.488,0.979-0.869,1.615-1.147
			C88.857,168.146,89.573,168.006,90.367,168.006z M90.411,169.425c-0.933,0-1.665,0.271-2.199,0.808
			c-0.534,0.538-0.866,1.283-0.996,2.236h5.968c0-0.447-0.062-0.857-0.184-1.229c-0.123-0.371-0.305-0.692-0.542-0.965
			c-0.237-0.271-0.528-0.479-0.872-0.628C91.243,169.498,90.852,169.425,90.411,169.425z"/>
		<path fill="#004D6E" d="M105.436,179.152h-0.855c-0.188,0-0.34-0.027-0.455-0.087c-0.116-0.058-0.191-0.18-0.229-0.368
			l-0.217-1.018c-0.289,0.26-0.57,0.492-0.845,0.698s-0.563,0.379-0.867,0.52c-0.303,0.142-0.626,0.248-0.969,0.32
			c-0.345,0.071-0.726,0.106-1.144,0.106c-0.426,0-0.824-0.06-1.196-0.179c-0.372-0.118-0.695-0.298-0.97-0.536
			c-0.275-0.238-0.494-0.539-0.655-0.904c-0.162-0.363-0.244-0.795-0.244-1.293c0-0.435,0.119-0.852,0.356-1.252
			c0.239-0.4,0.623-0.756,1.154-1.066c0.53-0.311,1.227-0.564,2.085-0.764c0.859-0.198,1.91-0.312,3.152-0.342v-0.855
			c0-0.852-0.183-1.496-0.547-1.934c-0.365-0.438-0.905-0.654-1.62-0.654c-0.469,0-0.864,0.06-1.186,0.179
			c-0.322,0.119-0.601,0.252-0.834,0.399c-0.235,0.148-0.438,0.281-0.606,0.4c-0.17,0.119-0.338,0.18-0.504,0.18
			c-0.13,0-0.244-0.034-0.343-0.104c-0.097-0.068-0.174-0.152-0.231-0.255l-0.347-0.617c0.605-0.585,1.26-1.021,1.961-1.312
			c0.699-0.288,1.477-0.434,2.328-0.434c0.613,0,1.158,0.102,1.636,0.305c0.478,0.201,0.878,0.482,1.202,0.845
			c0.324,0.36,0.57,0.798,0.736,1.311s0.25,1.076,0.25,1.689v7.021H105.436z M100.43,177.972c0.34,0,0.65-0.034,0.932-0.103
			c0.283-0.069,0.548-0.166,0.797-0.293c0.25-0.127,0.488-0.279,0.716-0.461c0.228-0.181,0.449-0.387,0.666-0.617v-2.285
			c-0.89,0.029-1.644,0.1-2.265,0.211s-1.127,0.259-1.517,0.439c-0.391,0.181-0.674,0.394-0.851,0.639
			c-0.178,0.246-0.266,0.52-0.266,0.822c0,0.289,0.047,0.539,0.141,0.748s0.221,0.381,0.38,0.515
			c0.157,0.134,0.347,0.231,0.562,0.293C99.941,177.941,100.177,177.972,100.43,177.972z"/>
		<path fill="#004D6E" d="M108.357,179.152V168.18h1.148c0.273,0,0.448,0.134,0.521,0.4l0.141,1.127
			c0.404-0.498,0.857-0.906,1.359-1.225s1.084-0.478,1.748-0.478c0.744,0,1.346,0.206,1.805,0.618
			c0.458,0.41,0.789,0.968,0.99,1.668c0.152-0.397,0.353-0.74,0.602-1.029c0.25-0.289,0.529-0.527,0.84-0.715
			c0.312-0.188,0.641-0.325,0.991-0.411c0.351-0.087,0.706-0.131,1.067-0.131c0.576,0,1.092,0.093,1.543,0.276
			c0.451,0.185,0.834,0.453,1.147,0.808c0.314,0.354,0.554,0.789,0.72,1.305c0.166,0.517,0.25,1.106,0.25,1.771v6.986h-1.929v-6.986
			c0-0.858-0.188-1.512-0.562-1.954c-0.375-0.444-0.921-0.666-1.636-0.666c-0.317,0-0.619,0.056-0.904,0.167
			s-0.536,0.275-0.754,0.492c-0.215,0.218-0.387,0.49-0.514,0.818s-0.188,0.709-0.188,1.143v6.986h-1.929v-6.986
			c0-0.881-0.178-1.537-0.53-1.971c-0.354-0.435-0.87-0.649-1.55-0.649c-0.478,0-0.92,0.128-1.326,0.384
			c-0.408,0.257-0.782,0.605-1.121,1.046v8.179H108.357L108.357,179.152z"/>
		<path fill="#004D6E" d="M128.723,164.736c0,0.188-0.037,0.361-0.113,0.524c-0.075,0.162-0.176,0.308-0.303,0.433
			c-0.127,0.127-0.272,0.228-0.438,0.299s-0.343,0.107-0.53,0.107s-0.363-0.036-0.525-0.107s-0.308-0.172-0.434-0.299
			c-0.127-0.125-0.227-0.271-0.298-0.433c-0.072-0.163-0.108-0.338-0.108-0.524c0-0.188,0.036-0.367,0.108-0.537
			c0.071-0.17,0.171-0.317,0.298-0.443c0.126-0.126,0.271-0.227,0.434-0.299c0.162-0.071,0.338-0.107,0.525-0.107
			s0.364,0.036,0.53,0.107c0.166,0.072,0.312,0.173,0.438,0.299s0.228,0.273,0.303,0.443
			C128.686,164.367,128.723,164.548,128.723,164.736z M128.29,168.18v10.973h-1.929V168.18H128.29z"/>
		<path fill="#004D6E" d="M131.689,179.152V168.18h1.147c0.274,0,0.448,0.134,0.521,0.4l0.151,1.19
			c0.478-0.526,1.009-0.952,1.599-1.276c0.588-0.325,1.269-0.488,2.041-0.488c0.6,0,1.129,0.1,1.588,0.298
			c0.457,0.199,0.841,0.479,1.146,0.847c0.309,0.363,0.54,0.803,0.699,1.314c0.158,0.513,0.238,1.08,0.238,1.701v6.986h-1.928
			v-6.986c0-0.831-0.19-1.476-0.569-1.935c-0.38-0.459-0.958-0.688-1.738-0.688c-0.569,0-1.104,0.137-1.599,0.411
			c-0.494,0.273-0.95,0.646-1.369,1.115v8.08h-1.928V179.152z"/>
		<path fill="#004D6E" d="M147.43,167.994c0.478,0,0.922,0.054,1.338,0.158c0.416,0.104,0.793,0.258,1.133,0.461h2.979v0.715
			c0,0.237-0.15,0.39-0.455,0.455l-1.244,0.172c0.244,0.471,0.367,0.994,0.367,1.57c0,0.535-0.104,1.021-0.309,1.457
			c-0.206,0.438-0.491,0.812-0.856,1.121c-0.364,0.311-0.798,0.549-1.3,0.715s-1.053,0.25-1.65,0.25
			c-0.514,0-0.998-0.062-1.453-0.185c-0.229,0.146-0.405,0.3-0.524,0.466s-0.179,0.328-0.179,0.487c0,0.26,0.104,0.457,0.313,0.59
			c0.21,0.134,0.487,0.229,0.834,0.287c0.347,0.059,0.74,0.095,1.181,0.108c0.44,0.015,0.891,0.037,1.35,0.069
			c0.459,0.033,0.908,0.089,1.349,0.168c0.44,0.08,0.834,0.21,1.181,0.392c0.348,0.18,0.625,0.43,0.834,0.746
			c0.211,0.317,0.314,0.729,0.314,1.234c0,0.471-0.117,0.925-0.354,1.365c-0.233,0.439-0.571,0.832-1.012,1.175
			c-0.44,0.344-0.979,0.618-1.613,0.823c-0.637,0.206-1.354,0.31-2.156,0.31c-0.803,0-1.504-0.079-2.105-0.237
			c-0.604-0.16-1.104-0.373-1.5-0.641c-0.397-0.268-0.695-0.576-0.895-0.926c-0.199-0.352-0.299-0.717-0.299-1.1
			c0-0.543,0.172-1.002,0.515-1.381c0.345-0.381,0.813-0.682,1.414-0.904c-0.312-0.146-0.558-0.338-0.742-0.58
			c-0.184-0.242-0.276-0.564-0.276-0.971c0-0.158,0.029-0.321,0.088-0.492c0.058-0.17,0.146-0.338,0.266-0.504
			s0.266-0.324,0.438-0.477s0.375-0.285,0.606-0.4c-0.541-0.304-0.966-0.705-1.272-1.207c-0.308-0.502-0.461-1.09-0.461-1.762
			c0-0.533,0.104-1.02,0.311-1.457c0.205-0.437,0.492-0.809,0.859-1.115c0.369-0.307,0.809-0.543,1.316-0.709
			C146.266,168.078,146.823,167.994,147.43,167.994z M150.854,179.748c0-0.274-0.076-0.495-0.229-0.661s-0.357-0.294-0.617-0.384
			c-0.261-0.092-0.561-0.157-0.898-0.201c-0.34-0.043-0.697-0.073-1.072-0.092c-0.376-0.019-0.76-0.039-1.148-0.061
			s-0.762-0.062-1.115-0.119c-0.412,0.195-0.746,0.434-1.002,0.715c-0.256,0.282-0.385,0.617-0.385,1.008
			c0,0.246,0.063,0.476,0.189,0.688s0.318,0.397,0.578,0.554c0.262,0.154,0.588,0.276,0.98,0.367
			c0.395,0.09,0.857,0.137,1.393,0.137c0.521,0,0.986-0.049,1.396-0.143c0.412-0.094,0.762-0.229,1.046-0.4
			c0.285-0.172,0.505-0.379,0.655-0.617C150.775,180.302,150.854,180.037,150.854,179.748z M147.43,173.791
			c0.391,0,0.734-0.055,1.034-0.163s0.552-0.261,0.753-0.455c0.202-0.194,0.354-0.429,0.455-0.698
			c0.102-0.271,0.151-0.568,0.151-0.895c0-0.672-0.204-1.205-0.612-1.604c-0.406-0.396-1.002-0.596-1.781-0.596
			c-0.772,0-1.363,0.199-1.771,0.596c-0.408,0.396-0.611,0.932-0.611,1.604c0,0.326,0.052,0.623,0.156,0.895
			s0.259,0.504,0.461,0.698s0.451,0.347,0.747,0.455S147.047,173.791,147.43,173.791z"/>
		<path fill="#004D6E" d="M111.326,205.148v-15.955h1.929v6.455c0.47-0.498,0.989-0.896,1.56-1.195
			c0.571-0.301,1.229-0.45,1.973-0.45c0.599,0,1.128,0.1,1.587,0.298c0.458,0.199,0.841,0.48,1.147,0.846
			c0.308,0.364,0.539,0.803,0.699,1.315c0.157,0.513,0.237,1.079,0.237,1.7v6.986h-1.929v-6.986c0-0.83-0.189-1.475-0.568-1.934
			s-0.958-0.688-1.738-0.688c-0.57,0-1.104,0.137-1.598,0.41c-0.495,0.274-0.951,0.646-1.37,1.115v8.081L111.326,205.148
			L111.326,205.148z"/>
		<path fill="#004D6E" d="M127.715,194.002c0.657,0,1.264,0.109,1.82,0.33c0.556,0.221,1.035,0.539,1.439,0.953
			c0.404,0.416,0.721,0.929,0.947,1.539c0.229,0.609,0.342,1.305,0.342,2.084c0,0.305-0.031,0.506-0.098,0.606
			c-0.064,0.103-0.188,0.151-0.368,0.151h-7.301c0.015,0.693,0.108,1.297,0.28,1.81c0.175,0.513,0.412,0.94,0.716,1.283
			c0.304,0.344,0.665,0.601,1.084,0.771c0.418,0.17,0.888,0.254,1.407,0.254c0.483,0,0.9-0.057,1.252-0.168
			c0.35-0.111,0.65-0.232,0.904-0.362c0.252-0.13,0.463-0.251,0.633-0.363c0.17-0.11,0.315-0.168,0.438-0.168
			c0.158,0,0.281,0.062,0.368,0.185l0.542,0.705c-0.238,0.289-0.524,0.539-0.856,0.752s-0.688,0.389-1.065,0.525
			c-0.38,0.137-0.771,0.24-1.177,0.309c-0.404,0.069-0.805,0.104-1.201,0.104c-0.758,0-1.457-0.128-2.096-0.385
			c-0.641-0.256-1.191-0.631-1.658-1.127c-0.465-0.493-0.828-1.105-1.088-1.836c-0.26-0.729-0.391-1.566-0.391-2.513
			c0-0.766,0.117-1.479,0.352-2.146c0.234-0.664,0.572-1.24,1.014-1.729s0.979-0.869,1.613-1.147
			C126.206,194.142,126.921,194.002,127.715,194.002z M127.759,195.421c-0.932,0-1.665,0.27-2.198,0.808
			c-0.535,0.538-0.867,1.283-0.996,2.236h5.968c0-0.447-0.062-0.857-0.185-1.229s-0.304-0.692-0.541-0.965
			c-0.238-0.271-0.529-0.479-0.873-0.628C128.591,195.494,128.199,195.421,127.759,195.421z"/>
		<path fill="#004D6E" d="M134.723,205.148v-10.973h1.105c0.209,0,0.354,0.04,0.433,0.119c0.08,0.078,0.134,0.217,0.163,0.41
			l0.131,1.713c0.375-0.766,0.84-1.363,1.391-1.793c0.554-0.43,1.201-0.646,1.945-0.646c0.303,0,0.577,0.034,0.822,0.104
			c0.246,0.068,0.473,0.164,0.684,0.287l-0.25,1.439c-0.051,0.182-0.162,0.271-0.336,0.271c-0.102,0-0.256-0.034-0.465-0.104
			c-0.21-0.068-0.503-0.104-0.878-0.104c-0.672,0-1.233,0.195-1.685,0.585c-0.451,0.391-0.829,0.957-1.133,1.7v6.986h-1.928V205.148
			z"/>
		<path fill="#004D6E" d="M147.797,194.002c0.657,0,1.264,0.109,1.82,0.33c0.556,0.221,1.035,0.539,1.439,0.953
			c0.404,0.416,0.721,0.929,0.947,1.539c0.229,0.609,0.342,1.305,0.342,2.084c0,0.305-0.031,0.506-0.098,0.606
			c-0.064,0.103-0.188,0.151-0.368,0.151h-7.301c0.015,0.693,0.108,1.297,0.28,1.81c0.175,0.513,0.412,0.94,0.716,1.283
			c0.304,0.344,0.665,0.601,1.084,0.771c0.418,0.17,0.888,0.254,1.407,0.254c0.483,0,0.9-0.057,1.252-0.168
			c0.35-0.111,0.65-0.232,0.904-0.362c0.252-0.13,0.463-0.251,0.633-0.363c0.17-0.11,0.315-0.168,0.438-0.168
			c0.158,0,0.281,0.062,0.368,0.185l0.542,0.705c-0.238,0.289-0.524,0.539-0.856,0.752s-0.688,0.389-1.065,0.525
			c-0.38,0.137-0.771,0.24-1.177,0.309c-0.404,0.069-0.805,0.104-1.201,0.104c-0.758,0-1.457-0.128-2.096-0.385
			c-0.641-0.256-1.191-0.631-1.658-1.127c-0.465-0.493-0.828-1.105-1.088-1.836c-0.26-0.729-0.391-1.566-0.391-2.513
			c0-0.766,0.117-1.479,0.352-2.146c0.234-0.664,0.572-1.24,1.014-1.729s0.979-0.869,1.613-1.147
			C146.288,194.142,147.003,194.002,147.797,194.002z M147.841,195.421c-0.932,0-1.665,0.27-2.198,0.808
			c-0.535,0.538-0.867,1.283-0.996,2.236h5.968c0-0.447-0.062-0.857-0.185-1.229c-0.123-0.371-0.304-0.692-0.541-0.965
			c-0.238-0.271-0.529-0.479-0.873-0.628C148.673,195.494,148.281,195.421,147.841,195.421z"/>
	</g>
</g>
</svg>
